<svg width="41" height="41" viewBox="0 0 41 41" fill="none" xmlns="http://www.w3.org/2000/svg">
    <path
        d="M5.53174 32.6606C3.87488 32.6606 2.53174 31.3175 2.53174 29.6606L2.53174 20.6606L2.53174 11.6606C2.53174 10.0038 3.87488 8.66064 5.53174 8.66064L35.5317 8.66064C37.1886 8.66064 38.5317 10.0038 38.5317 11.6606L38.5317 29.6606C38.5317 31.3175 37.1886 32.6606 35.5317 32.6606L5.53174 32.6606Z"
        stroke="#D6D6E1" stroke-width="1.4" />
    <circle cx="20.5376" cy="20.6606" r="10" stroke="#D6D6E1" stroke-width="1.4" />
    <path
        d="M20.5493 27.0329C20.8833 27.0329 21.1802 26.8474 21.1802 26.4021V25.8083C23.1767 25.5931 24.4235 24.4204 24.4235 22.7134C24.4235 21.2438 23.5403 20.3532 21.7071 19.9524L20.2005 19.611C19.2579 19.4032 18.7978 18.9728 18.7978 18.3419C18.7978 17.5849 19.4509 17.0356 20.4751 17.0356C21.3063 17.0356 21.8853 17.3177 22.531 18.0376C22.8575 18.379 23.1099 18.5052 23.4513 18.5052C23.8669 18.5052 24.186 18.2157 24.186 17.7853C24.186 17.3696 23.9411 16.9169 23.5255 16.5087C22.9763 15.9892 22.1524 15.6478 21.2247 15.529V14.913C21.2247 14.4751 20.9278 14.2896 20.5864 14.2896C20.2524 14.2896 19.9556 14.4677 19.9556 14.913V15.5067C18.0333 15.6849 16.8087 16.8353 16.8087 18.4829C16.8087 19.9228 17.6919 20.8802 19.3841 21.2587L20.8907 21.6075C21.9892 21.8673 22.4419 22.2532 22.4419 22.9063C22.4419 23.7524 21.7813 24.2868 20.6013 24.2868C19.7181 24.2868 18.9833 23.9528 18.3153 23.2329C17.9368 22.8544 17.729 22.7728 17.447 22.7728C16.9942 22.7728 16.6528 23.0622 16.6528 23.5595C16.6528 23.9974 16.9052 24.4501 17.3579 24.8435C17.9517 25.3853 18.8794 25.7192 19.911 25.8157V26.4021C19.911 26.8474 20.2079 27.0329 20.5493 27.0329Z"
        fill="#D6D6E1" stroke="#202021" stroke-width="0.3" />
</svg>