<svg width="41" height="41" viewBox="0 0 41 41" fill="none" xmlns="http://www.w3.org/2000/svg">
    <path
        d="M21.3872 10.018C21.3686 10.0012 21.3671 9.97245 21.384 9.95382L22.9258 8.245C25.5873 5.29517 30.1362 5.06147 33.086 7.72301V7.72301C36.0359 10.3845 36.2696 14.9335 33.608 17.8833L32.0358 19.6258L21.3872 10.018Z"
        stroke="#D6D6E1" stroke-width="1.4" stroke-linecap="round" />
    <path d="M33.1216 7.69576L37.1475 3.22294" stroke="#D6D6E1" stroke-width="1.4" stroke-linecap="round" />
    <path
        d="M19.6767 31.8026C19.6953 31.8194 19.6968 31.8481 19.68 31.8667L18.1382 33.5756C15.4767 36.5254 10.9278 36.7591 7.97792 34.0975V34.0975C5.0281 31.436 4.7944 26.8871 7.45594 23.9373L8.99775 22.2285C9.01456 22.2098 9.04329 22.2084 9.06192 22.2252L19.6767 31.8026Z"
        stroke="#D6D6E1" stroke-width="1.4" stroke-linecap="round" />
    <path d="M16.3035 19.8299L12.5345 24.0075" stroke="#D6D6E1" stroke-width="1.4" stroke-linecap="round" />
    <path d="M7.94238 34.1245L3.91643 38.5974" stroke="#D6D6E1" stroke-width="1.4" stroke-linecap="round" />
    <path d="M21.3171 24.3609L17.5482 28.5385" stroke="#D6D6E1" stroke-width="1.4" stroke-linecap="round" />
</svg>