<svg fill="none" xmlns="http://www.w3.org/2000/svg" viewBox="0 0 320 320">
    <g filter="url(#a)">
        <rect x="96" y="96" width="128" height="128" rx="24" fill="url(#b)" />
        <path
            d="M130.5 192H120.316a2 2 0 0 1-1.979-2.291l3.95-26.862a8 8 0 0 1 5.355-6.415L152.6 148m35.9 44H199.684a2 2 0 0 0 1.979-2.291l-3.946-26.836a8.005 8.005 0 0 0-5.39-6.428L166.938 148"
            stroke="#fff" stroke-width="2" stroke-linejoin="round" />
        <rect x="132" y="166" width="56" height="36" rx="3" stroke="#fff" stroke-width="2" />
        <mask id="c" style="mask-type:alpha" maskUnits="userSpaceOnUse" x="133" y="167" width="54" height="34">
            <path d="M186 201h-52a1 1 0 0 1-1-1v-32a1 1 0 0 1 1-1h52a1 1 0 0 1 1 1v32a1 1 0 0 1-1 1Z" fill="#C4C4C4" />
        </mask>
        <g mask="url(#c)" stroke="#fff" stroke-width=".706">
            <path
                d="M60.918 377.741 497.029-58.37M64.559 377.741 500.67-58.37M68.191 377.741 504.302-58.37M71.824 377.741 507.935-58.37M75.457 377.741 511.568-58.37M79.094 377.741 515.205-58.37M82.727 377.741 518.837-58.37M86.36 377.741 522.47-58.37M89.992 377.741 526.103-58.37M93.625 377.741 529.736-58.37M97.262 377.741 533.373-58.37M100.895 377.741 537.005-58.37M104.531 377.741 540.642-58.37M108.168 377.741 544.279-58.37M111.801 377.741 547.912-58.37M115.434 377.741 551.545-58.37M119.074 377.741 555.185-58.37M122.707 377.741 558.818-58.37M126.34 377.741 562.451-58.37M129.973 377.741 566.084-58.37M133.602 377.741 569.712-58.37M137.234 377.741 573.345-58.37M140.871 377.741 576.982-58.37M144.504 377.741 580.615-58.37M148.141 377.741 584.252-58.37M151.777 377.741 587.888-58.37M155.41 377.741 591.521-58.37M159.047 377.741 595.158-58.37M162.676 377.741 598.787-58.37M166.316 377.741 602.427-58.37M169.949 377.741 606.06-58.37M173.582 377.741 609.693-58.37M177.219 377.741 613.33-58.37M57.29 377.741 493.4-58.37M53.652 377.741 489.763-58.37M50.016 377.741 486.127-58.37M46.383 377.741 482.494-58.37M42.746 377.741 478.857-58.37M39.113 377.741 475.224-58.37M35.477 377.741 471.587-58.37M31.844 377.741 467.955-58.37M28.21 377.741 464.323-58.37M24.578 377.741 460.69-58.37M20.941 377.741 457.052-58.37M17.309 377.741 453.42-58.37M13.676 377.741 449.787-58.37M10.043 377.741 446.154-58.37M6.406 377.741 442.517-58.37M2.773 377.741 438.884-58.37M-.86 377.741 435.253-58.37M-4.496 377.741 431.615-58.37M-8.133 377.741 427.978-58.37M-11.766 377.741 424.345-58.37M-15.398 377.741 420.712-58.37M-19.033 377.741 417.078-58.37M-22.666 377.741 413.445-58.37M-26.3 377.741 409.81-58.37M-29.934 377.741 406.177-58.37M-33.572 377.741 402.539-58.37M-37.201 377.741 398.91-58.37M-40.836 377.741 395.275-58.37M-44.475 377.741 391.636-58.37M-48.107 377.741 388.003-58.37M-51.74 377.741 384.37-58.37M-55.375 377.741 380.736-58.37M-59.008 377.741 377.103-58.37M-62.643 377.741 373.468-58.37M-66.275 377.741 369.836-58.37M-69.91 377.741 366.2-58.37M-73.543 377.741 362.568-58.37M-77.182 377.741 358.93-58.37M-80.816 377.741 355.295-58.37M-84.45 377.741 351.663-58.37M-88.084 377.741 348.027-58.37M-91.717 377.741 344.394-58.37M-95.352 377.741 340.76-58.37M-98.984 377.741 337.127-58.37M-102.617 377.741 333.494-58.37M-106.256 377.741 329.855-58.37M-109.891 377.741 326.22-58.37M-113.523 377.741 322.587-58.37M-117.158 377.741 318.953-58.37M-120.791 377.741 315.32-58.37M-124.426 377.741 311.685-58.37M-128.059 377.741 308.052-58.37M-131.693 377.741 304.418-58.37M-135.332 377.741 300.779-58.37M-138.965 377.741 297.146-58.37M-142.6 377.741 293.511-58.37M-146.232 377.741 289.878-58.37M-149.865 377.741 286.246-58.37M-153.5 377.741 282.611-58.37M-157.133 377.741 278.978-58.37M-160.768 377.741 275.343-58.37M-164.4 377.741 271.711-58.37M-168.039 377.741 268.072-58.37M-171.674 377.741 264.437-58.37M-175.307 377.741 260.804-58.37M-178.941 377.741 257.17-58.37M-182.574 377.741 253.537-58.37M-186.213 377.741 249.898-58.37M-189.846 377.741 246.265-58.37M-193.48 377.741 242.63-58.37M-197.113 377.741 238.998-58.37M-200.748 377.741 235.363-58.37M-204.381 377.741 231.73-58.37M-208.016 377.741 228.095-58.37M-211.645 377.741 224.466-58.37M-215.283 377.741 220.828-58.37M-218.916 377.741 217.195-58.37M-222.551 377.741 213.56-58.37M-226.189 377.741 209.921-58.37M-229.818 377.741 206.293-58.37M-233.455 377.741 202.656-58.37M-237.09 377.741 199.021-58.37M-240.723 377.741 195.388-58.37M-244.357 377.741 191.753-58.37M-247.99 377.741 188.121-58.37M-251.625 377.741 184.486-58.37M-255.258 377.741 180.853-58.37M-258.893 377.741 177.218-58.37M-262.525 377.741 173.586-58.37M-266.16 377.741 169.951-58.37M-269.793 377.741 166.318-58.37M-273.432 377.741 162.679-58.37M-277.066 377.741 159.045-58.37M-280.699 377.741 155.412-58.37" />
        </g>
        <path
            d="M148 128.5v7.989c0 4.497 1.893 8.787 5.214 11.818l2.741 2.502a6 6 0 0 0 8.09 0l2.741-2.502A16.001 16.001 0 0 0 172 136.489V128.5"
            stroke="#fff" stroke-width="2" />
        <path d="M170 149c0 5.523-4.477 10-10 10s-10-4.477-10-10" stroke="#fff" stroke-width="2" />
        <path
            d="M165.699 128.5H147a1 1 0 0 1-1-1v-.5c0-6.075 4.925-11 11-11h6c6.075 0 11 4.925 11 11v.5a1 1 0 0 1-1 1h-7.301Zm0 0V123"
            stroke="#fff" stroke-width="2" stroke-linecap="round" stroke-linejoin="round" />
        <rect x="93" y="93" width="134" height="134" rx="27" stroke="url(#d)" stroke-width="6" />
    </g>
    <g filter="url(#e)">
        <rect x="51" y="58" width="64" height="64" rx="32" fill="#fff" />
        <path d="M72.71 78h22.287v22.286M71 102l24-24" stroke="#0D102B" stroke-width="3" stroke-linecap="round"
            stroke-linejoin="round" />
        <rect x="49" y="56" width="68" height="68" rx="34" stroke="url(#f)" stroke-width="4" />
    </g>
    <g filter="url(#g)">
        <path
            d="M239.664 192.51c3.09-3.433 8.738-2.232 10.165 2.161l18.772 57.773c1.427 4.393-2.436 8.683-6.954 7.723l-59.419-12.63c-4.518-.96-6.302-6.451-3.212-9.884l40.648-45.143Z"
            fill="#fff" />
        <path
            d="M251.647 194.08c-1.882-5.793-9.329-7.375-13.404-2.849l-40.647 45.143c-4.076 4.526-1.723 11.767 4.234 13.033l59.42 12.63c5.957 1.266 11.051-4.391 9.169-10.184l-18.772-57.773Z"
            stroke="url(#h)" stroke-width="3.823" />
    </g>
    <path
        d="m240.516 224.147-1.91 6.366-3.443-.732.845-6.592 1.597-7.512 4.508.958-1.597 7.512Zm-4.084 8.129c.814.173 1.415.529 1.801 1.07.387.54.503 1.175.348 1.906-.156.73-.52 1.263-1.093 1.599-.573.337-1.266.418-2.08.245-.814-.173-1.414-.529-1.801-1.07-.387-.54-.503-1.175-.347-1.906.155-.73.519-1.263 1.092-1.599.573-.337 1.267-.418 2.08-.245Z"
        fill="#F04405" />
    <path
        d="M252.445 90.081c-13.383-7.32-4.708-28.198-18.795-35.903-5.446-2.979-12.276-.979-15.255 4.467-2.979 5.446-.979 12.276 4.467 15.255 7.044 3.852 15.441.21 15.441.21"
        stroke="#F04405" stroke-width="3" stroke-linecap="round" stroke-linejoin="round" />
    <path
        d="M252.444 90.08c5.446 2.98 12.276.98 15.255-4.466 2.978-5.446.979-12.276-4.467-15.255-6.339-3.467-15.123.88-15.123.88"
        stroke="#F04405" stroke-width="3" stroke-linecap="round" stroke-linejoin="round" />
    <defs>
        <linearGradient id="b" x1="224" y1="96" x2="224" y2="250.921" gradientUnits="userSpaceOnUse">
            <stop stop-color="#F04405" />
            <stop offset="1" stop-color="#FFA439" />
        </linearGradient>
        <linearGradient id="d" x1="216.291" y1="36.039" x2="27.341" y2="219.033" gradientUnits="userSpaceOnUse">
            <stop stop-color="#fff" />
            <stop offset="1" stop-color="#E4E4E4" />
        </linearGradient>
        <linearGradient id="f" x1="111.146" y1="28.02" x2="16.67" y2="119.516" gradientUnits="userSpaceOnUse">
            <stop stop-color="#fff" />
            <stop offset="1" stop-color="#E4E4E4" />
        </linearGradient>
        <linearGradient id="h" x1="296.284" y1="150.258" x2="132.365" y2="253.014" gradientUnits="userSpaceOnUse">
            <stop stop-color="#fff" />
            <stop offset="1" stop-color="#E4E4E4" />
        </linearGradient>
        <filter id="a" x="86" y="90" width="148" height="148" filterUnits="userSpaceOnUse"
            color-interpolation-filters="sRGB">
            <feFlood flood-opacity="0" result="BackgroundImageFix" />
            <feColorMatrix in="SourceAlpha" values="0 0 0 0 0 0 0 0 0 0 0 0 0 0 0 0 0 0 127 0" result="hardAlpha" />
            <feOffset dy="4" />
            <feGaussianBlur stdDeviation="2" />
            <feColorMatrix values="0 0 0 0 0 0 0 0 0 0 0 0 0 0 0 0 0 0 0.25 0" />
            <feBlend in2="BackgroundImageFix" result="effect1_dropShadow_4079_48474" />
            <feBlend in="SourceGraphic" in2="effect1_dropShadow_4079_48474" result="shape" />
        </filter>
        <filter id="e" x="43" y="54" width="80" height="80" filterUnits="userSpaceOnUse"
            color-interpolation-filters="sRGB">
            <feFlood flood-opacity="0" result="BackgroundImageFix" />
            <feColorMatrix in="SourceAlpha" values="0 0 0 0 0 0 0 0 0 0 0 0 0 0 0 0 0 0 127 0" result="hardAlpha" />
            <feOffset dy="4" />
            <feGaussianBlur stdDeviation="2" />
            <feColorMatrix values="0 0 0 0 0 0 0 0 0 0 0 0 0 0 0 0 0 0 0.25 0" />
            <feBlend in2="BackgroundImageFix" result="effect1_dropShadow_4079_48474" />
            <feBlend in="SourceGraphic" in2="effect1_dropShadow_4079_48474" result="shape" />
        </filter>
        <filter id="g" x="190.152" y="186.697" width="86.071" height="84.416" filterUnits="userSpaceOnUse"
            color-interpolation-filters="sRGB">
            <feFlood flood-opacity="0" result="BackgroundImageFix" />
            <feColorMatrix in="SourceAlpha" values="0 0 0 0 0 0 0 0 0 0 0 0 0 0 0 0 0 0 127 0" result="hardAlpha" />
            <feOffset dy="3.492" />
            <feGaussianBlur stdDeviation="1.746" />
            <feColorMatrix values="0 0 0 0 0 0 0 0 0 0 0 0 0 0 0 0 0 0 0.25 0" />
            <feBlend in2="BackgroundImageFix" result="effect1_dropShadow_4079_48474" />
            <feBlend in="SourceGraphic" in2="effect1_dropShadow_4079_48474" result="shape" />
        </filter>
    </defs>
</svg>