<svg fill="none" xmlns="http://www.w3.org/2000/svg" viewBox="0 0 320 320">
    <g filter="url(#a)">
        <rect x="96" y="96" width="128" height="128" rx="24" fill="url(#b)" />
        <path
            d="M131.5 197H124.28a2 2 0 0 1-1.983-2.261l3.591-27.312a7.998 7.998 0 0 1 5.227-6.486L153.214 153M188 197H195.72a2 2 0 0 0 1.983-2.261l-3.589-27.294a8 8 0 0 0-5.252-6.495L166.5 153"
            stroke="#fff" stroke-width="2" stroke-linejoin="round" />
        <rect x="132" y="171" width="56" height="36" rx="3" stroke="#fff" stroke-width="2" />
        <mask id="c" style="mask-type:alpha" maskUnits="userSpaceOnUse" x="133" y="172" width="54" height="34">
            <path d="M186 206h-52a1 1 0 0 1-1-1v-32a1 1 0 0 1 1-1h52a1 1 0 0 1 1 1v32a1 1 0 0 1-1 1Z" fill="#C4C4C4" />
        </mask>
        <g mask="url(#c)" stroke="#fff" stroke-width=".706">
            <path
                d="M60.918 382.741 497.029-53.37M64.559 382.741 500.67-53.37M68.191 382.741 504.302-53.37M71.824 382.741 507.935-53.37M75.457 382.741 511.568-53.37M79.094 382.741 515.205-53.37M82.727 382.741 518.837-53.37M86.36 382.741 522.47-53.37M89.992 382.741 526.103-53.37M93.625 382.741 529.736-53.37M97.262 382.741 533.373-53.37M100.895 382.741 537.005-53.37M104.531 382.741 540.642-53.37M108.168 382.741 544.279-53.37M111.801 382.741 547.912-53.37M115.434 382.741 551.545-53.37M119.074 382.741 555.185-53.37M122.707 382.741 558.818-53.37M126.34 382.741 562.451-53.37M129.973 382.741 566.084-53.37M133.602 382.741 569.712-53.37M137.234 382.741 573.345-53.37M140.871 382.741 576.982-53.37M144.504 382.741 580.615-53.37M148.141 382.741 584.252-53.37M151.777 382.741 587.888-53.37M155.41 382.741 591.521-53.37M159.047 382.741 595.158-53.37M162.676 382.741 598.787-53.37M166.316 382.741 602.427-53.37M169.949 382.741 606.06-53.37M173.582 382.741 609.693-53.37M177.219 382.741 613.33-53.37M57.29 382.741 493.4-53.37M53.652 382.741 489.763-53.37M50.016 382.741 486.127-53.37M46.383 382.741 482.494-53.37M42.746 382.741 478.857-53.37M39.113 382.741 475.224-53.37M35.477 382.741 471.587-53.37M31.844 382.741 467.955-53.37M28.21 382.741 464.323-53.37M24.578 382.741 460.69-53.37M20.941 382.741 457.052-53.37M17.309 382.741 453.42-53.37M13.676 382.741 449.787-53.37M10.043 382.741 446.154-53.37M6.406 382.741 442.517-53.37M2.773 382.741 438.884-53.37M-.86 382.741 435.253-53.37M-4.496 382.741 431.615-53.37M-8.133 382.741 427.978-53.37M-11.766 382.741 424.345-53.37M-15.398 382.741 420.712-53.37M-19.033 382.741 417.078-53.37M-22.666 382.741 413.445-53.37M-26.3 382.741 409.81-53.37M-29.934 382.741 406.177-53.37M-33.572 382.741 402.539-53.37M-37.201 382.741 398.91-53.37M-40.836 382.741 395.275-53.37M-44.475 382.741 391.636-53.37M-48.107 382.741 388.003-53.37M-51.74 382.741 384.37-53.37M-55.375 382.741 380.736-53.37M-59.008 382.741 377.103-53.37M-62.643 382.741 373.468-53.37M-66.275 382.741 369.836-53.37M-69.91 382.741 366.2-53.37M-73.543 382.741 362.568-53.37M-77.182 382.741 358.93-53.37M-80.816 382.741 355.295-53.37M-84.45 382.741 351.663-53.37M-88.084 382.741 348.027-53.37M-91.717 382.741 344.394-53.37M-95.352 382.741 340.76-53.37M-98.984 382.741 337.127-53.37M-102.617 382.741 333.494-53.37M-106.256 382.741 329.855-53.37M-109.891 382.741 326.22-53.37M-113.523 382.741 322.587-53.37M-117.158 382.741 318.953-53.37M-120.791 382.741 315.32-53.37M-124.426 382.741 311.685-53.37M-128.059 382.741 308.052-53.37M-131.693 382.741 304.418-53.37M-135.332 382.741 300.779-53.37M-138.965 382.741 297.146-53.37M-142.6 382.741 293.511-53.37M-146.232 382.741 289.878-53.37M-149.865 382.741 286.246-53.37M-153.5 382.741 282.611-53.37M-157.133 382.741 278.978-53.37M-160.768 382.741 275.343-53.37M-164.4 382.741 271.711-53.37M-168.039 382.741 268.072-53.37M-171.674 382.741 264.437-53.37M-175.307 382.741 260.804-53.37M-178.941 382.741 257.17-53.37M-182.574 382.741 253.537-53.37M-186.213 382.741 249.898-53.37M-189.846 382.741 246.265-53.37M-193.48 382.741 242.63-53.37M-197.113 382.741 238.998-53.37M-200.748 382.741 235.363-53.37M-204.381 382.741 231.73-53.37M-208.016 382.741 228.095-53.37M-211.645 382.741 224.466-53.37M-215.283 382.741 220.828-53.37M-218.916 382.741 217.195-53.37M-222.551 382.741 213.56-53.37M-226.189 382.741 209.921-53.37M-229.818 382.741 206.293-53.37M-233.455 382.741 202.656-53.37M-237.09 382.741 199.021-53.37M-240.723 382.741 195.388-53.37M-244.357 382.741 191.753-53.37M-247.99 382.741 188.121-53.37M-251.625 382.741 184.486-53.37M-255.258 382.741 180.853-53.37M-258.893 382.741 177.218-53.37M-262.525 382.741 173.586-53.37M-266.16 382.741 169.951-53.37M-269.793 382.741 166.318-53.37M-273.432 382.741 162.679-53.37M-277.066 382.741 159.045-53.37M-280.699 382.741 155.412-53.37" />
        </g>
        <path d="M144 156v-25c0-8.837 7.163-16 16-16v0c8.837 0 16 7.163 16 16v25" stroke="#fff" stroke-width="2"
            stroke-linecap="round" stroke-linejoin="round" />
        <path
            d="m155.955 155.81-2.741-2.502A16.001 16.001 0 0 1 148 141.49v-7.989h6.598a8.998 8.998 0 0 0 7.104-3.475L166 124.5l1.652 7.435a2 2 0 0 0 1.952 1.566H172v7.989c0 4.497-1.893 8.787-5.214 11.818l-2.741 2.502a6 6 0 0 1-8.09 0Z"
            stroke="#fff" stroke-width="2" stroke-linecap="round" stroke-linejoin="round" />
        <path d="M170 154c0 5.523-4.477 10-10 10s-10-4.477-10-10" stroke="#fff" stroke-width="2" />
        <rect x="93" y="93" width="134" height="134" rx="27" stroke="url(#d)" stroke-width="6" />
    </g>
    <g filter="url(#e)">
        <rect x="51" y="58" width="64" height="64" rx="32" fill="#fff" />
        <path d="M72.71 78h22.287v22.286M71 102l24-24" stroke="#0D102B" stroke-width="3" stroke-linecap="round"
            stroke-linejoin="round" />
        <rect x="49" y="56" width="68" height="68" rx="34" stroke="url(#f)" stroke-width="4" />
    </g>
    <g filter="url(#g)">
        <path
            d="M239.664 192.51c3.09-3.433 8.738-2.232 10.165 2.161l18.772 57.773c1.427 4.393-2.436 8.683-6.954 7.723l-59.419-12.63c-4.518-.96-6.302-6.451-3.212-9.884l40.648-45.143Z"
            fill="#fff" />
        <path
            d="M251.647 194.08c-1.882-5.793-9.329-7.375-13.404-2.849l-40.647 45.143c-4.076 4.526-1.723 11.767 4.234 13.033l59.42 12.63c5.957 1.266 11.051-4.391 9.169-10.184l-18.772-57.773Z"
            stroke="url(#h)" stroke-width="3.823" />
    </g>
    <path
        d="m240.516 224.147-1.91 6.366-3.443-.732.845-6.592 1.597-7.512 4.508.958-1.597 7.512Zm-4.084 8.129c.814.173 1.415.529 1.801 1.07.387.54.503 1.175.348 1.906-.156.73-.52 1.263-1.093 1.599-.573.337-1.266.418-2.08.245-.814-.173-1.414-.529-1.801-1.07-.387-.54-.503-1.175-.347-1.906.155-.73.519-1.263 1.092-1.599.573-.337 1.267-.418 2.08-.245Z"
        fill="#F04405" />
    <path
        d="M252.445 90.081c-13.383-7.32-4.708-28.198-18.795-35.903-5.446-2.979-12.276-.979-15.255 4.467-2.979 5.446-.979 12.276 4.467 15.255 7.044 3.852 15.441.21 15.441.21"
        stroke="#F04405" stroke-width="3" stroke-linecap="round" stroke-linejoin="round" />
    <path
        d="M252.444 90.08c5.446 2.98 12.276.98 15.255-4.466 2.978-5.446.979-12.276-4.467-15.255-6.339-3.467-15.123.88-15.123.88"
        stroke="#F04405" stroke-width="3" stroke-linecap="round" stroke-linejoin="round" />
    <defs>
        <linearGradient id="b" x1="224" y1="96" x2="224" y2="250.921" gradientUnits="userSpaceOnUse">
            <stop stop-color="#F04405" />
            <stop offset="1" stop-color="#FFA439" />
        </linearGradient>
        <linearGradient id="d" x1="216.291" y1="36.039" x2="27.341" y2="219.033" gradientUnits="userSpaceOnUse">
            <stop stop-color="#fff" />
            <stop offset="1" stop-color="#E4E4E4" />
        </linearGradient>
        <linearGradient id="f" x1="111.146" y1="28.02" x2="16.67" y2="119.516" gradientUnits="userSpaceOnUse">
            <stop stop-color="#fff" />
            <stop offset="1" stop-color="#E4E4E4" />
        </linearGradient>
        <linearGradient id="h" x1="296.284" y1="150.258" x2="132.365" y2="253.014" gradientUnits="userSpaceOnUse">
            <stop stop-color="#fff" />
            <stop offset="1" stop-color="#E4E4E4" />
        </linearGradient>
        <filter id="a" x="86" y="90" width="148" height="148" filterUnits="userSpaceOnUse"
            color-interpolation-filters="sRGB">
            <feFlood flood-opacity="0" result="BackgroundImageFix" />
            <feColorMatrix in="SourceAlpha" values="0 0 0 0 0 0 0 0 0 0 0 0 0 0 0 0 0 0 127 0" result="hardAlpha" />
            <feOffset dy="4" />
            <feGaussianBlur stdDeviation="2" />
            <feColorMatrix values="0 0 0 0 0 0 0 0 0 0 0 0 0 0 0 0 0 0 0.25 0" />
            <feBlend in2="BackgroundImageFix" result="effect1_dropShadow_4079_48474" />
            <feBlend in="SourceGraphic" in2="effect1_dropShadow_4079_48474" result="shape" />
        </filter>
        <filter id="e" x="43" y="54" width="80" height="80" filterUnits="userSpaceOnUse"
            color-interpolation-filters="sRGB">
            <feFlood flood-opacity="0" result="BackgroundImageFix" />
            <feColorMatrix in="SourceAlpha" values="0 0 0 0 0 0 0 0 0 0 0 0 0 0 0 0 0 0 127 0" result="hardAlpha" />
            <feOffset dy="4" />
            <feGaussianBlur stdDeviation="2" />
            <feColorMatrix values="0 0 0 0 0 0 0 0 0 0 0 0 0 0 0 0 0 0 0.25 0" />
            <feBlend in2="BackgroundImageFix" result="effect1_dropShadow_4079_48474" />
            <feBlend in="SourceGraphic" in2="effect1_dropShadow_4079_48474" result="shape" />
        </filter>
        <filter id="g" x="190.152" y="186.697" width="86.071" height="84.416" filterUnits="userSpaceOnUse"
            color-interpolation-filters="sRGB">
            <feFlood flood-opacity="0" result="BackgroundImageFix" />
            <feColorMatrix in="SourceAlpha" values="0 0 0 0 0 0 0 0 0 0 0 0 0 0 0 0 0 0 127 0" result="hardAlpha" />
            <feOffset dy="3.492" />
            <feGaussianBlur stdDeviation="1.746" />
            <feColorMatrix values="0 0 0 0 0 0 0 0 0 0 0 0 0 0 0 0 0 0 0.25 0" />
            <feBlend in2="BackgroundImageFix" result="effect1_dropShadow_4079_48474" />
            <feBlend in="SourceGraphic" in2="effect1_dropShadow_4079_48474" result="shape" />
        </filter>
    </defs>
</svg>