<svg viewBox="0 0 80 80" fill="none" xmlns="http://www.w3.org/2000/svg">
    <rect width="80" height="80" rx="16" fill="#F2F2F7" />
    <g clip-path="url(#clip0_2836_36145)">
        <path fill-rule="evenodd" clip-rule="evenodd"
            d="M40.0004 29.6355H22.6395C21.1818 29.6355 20 30.8173 20 32.275V45.64C20 47.0978 21.1818 48.2796 22.6395 48.2796H29.3217V51.0095H28.2763C28.0002 51.0095 27.7763 51.2334 27.7763 51.5095C27.7763 51.7856 28.0002 52.0095 28.2763 52.0095H36.6444C36.9205 52.0095 37.1444 51.7856 37.1444 51.5095C37.1444 51.2334 36.9205 51.0095 36.6444 51.0095H35.5978V48.2796H40.0004V46.2796H22.6395C22.2863 46.2796 22 45.9932 22 45.64V32.275C22 31.9218 22.2863 31.6355 22.6395 31.6355H40.0004V29.6355Z"
            fill="#0D102B" />
        <path fill-rule="evenodd" clip-rule="evenodd"
            d="M40 57.8917C40.1942 57.9379 40.3969 57.9624 40.6053 57.9624H55.5673C57.0061 57.9624 58.1725 56.796 58.1725 55.3571V24.2226C58.1725 22.7837 57.0061 21.6173 55.5673 21.6173H40.6053C40.3969 21.6173 40.1942 21.6418 40 21.688V24.2226C40 23.8883 40.271 23.6173 40.6053 23.6173H44.1105C44.067 23.7294 44.0431 23.8513 44.0431 23.9788V24.4047C44.0431 24.957 44.4908 25.4047 45.0431 25.4047H51.1294C51.6817 25.4047 52.1294 24.957 52.1294 24.4047V23.9788C52.1294 23.8513 52.1055 23.7294 52.062 23.6173H55.5673C55.9016 23.6173 56.1725 23.8883 56.1725 24.2226V55.3571C56.1725 55.6914 55.9016 55.9624 55.5673 55.9624H40.6053C40.271 55.9624 40 55.6914 40 55.3571V57.8917ZM44.0431 53.91C43.7089 53.91 43.4379 54.181 43.4379 54.5153C43.4379 54.8496 43.7089 55.1206 44.0431 55.1206H52.1294C52.4637 55.1206 52.7347 54.8496 52.7347 54.5153C52.7347 54.181 52.4637 53.91 52.1294 53.91H44.0431Z"
            fill="#0D102B" />
        <path d="M40 16V64.5" stroke="#0D102B" stroke-width="2" />
    </g>
    <defs>
        <clipPath id="clip0_2836_36145">
            <rect width="48" height="48" fill="white" transform="translate(16 16)" />
        </clipPath>
    </defs>
</svg>