<svg viewBox="0 0 80 80" fill="none" xmlns="http://www.w3.org/2000/svg">
    <rect width="80" height="80" rx="16" fill="#F2F2F7" />
    <path
        d="M40.7786 43.5679V38.1509H58.7339C58.9094 39.095 59 40.2118 59 41.4207C59 45.4849 57.9072 50.5105 54.3852 54.0912C50.9595 57.7179 46.5825 59.6522 40.7842 59.6522C30.0371 59.6522 21 50.7523 21 39.8261C21 28.8999 30.0371 20 40.7842 20C46.7297 20 50.9651 22.3718 54.1474 25.4631L50.3876 29.2856C48.1056 27.1095 45.014 25.4171 40.7786 25.4171C32.9306 25.4171 26.7926 31.8473 26.7926 39.8261C26.7926 47.8049 32.9306 54.2351 40.7786 54.2351C45.869 54.2351 48.7681 52.157 50.6254 50.2688C52.1316 48.7375 53.1225 46.5499 53.5132 43.5622L40.7786 43.5679Z"
        fill="#0D102B" />
</svg>