<svg viewBox="0 0 80 80" fill="none" xmlns="http://www.w3.org/2000/svg">
    <rect width="80" height="80" rx="16" fill="#F2F2F7" />
    <path
        d="M34.2432 43H31.8282L28.2132 33.1H30.4032L32.4882 39.4L33.0582 41.35L33.6132 39.415L35.7132 33.1H37.8432L34.2432 43ZM50.7121 43H48.8521V37.84L48.9421 34.945H48.9121L46.1671 43H44.4721L41.7421 34.945H41.7121L41.8171 37.84V43H39.9421V33.1H42.9421L44.7271 38.5L45.3571 40.735H45.3871L46.0321 38.515L47.8021 33.1H50.7121V43Z"
        fill="#0D102B" />
    <path fill-rule="evenodd" clip-rule="evenodd"
        d="M58.3605 24H21.6395C20.1818 24 19 25.1818 19 26.6396V49.3605C19 50.8183 20.1818 52 21.6395 52H34.2441V58.4517H32.3538C32.0777 58.4517 31.8538 58.6756 31.8538 58.9517C31.8538 59.2279 32.0777 59.4517 32.3538 59.4517H47.4914C47.7676 59.4517 47.9914 59.2279 47.9914 58.9517C47.9914 58.6756 47.7676 58.4517 47.4914 58.4517H45.5973V52H58.3605C59.8182 52 61 50.8183 61 49.3605V26.6396C61 25.1818 59.8182 24 58.3605 24ZM21 26.6396C21 26.2864 21.2863 26 21.6395 26H58.3605C58.7137 26 59 26.2864 59 26.6396V49.3605C59 49.7137 58.7137 50 58.3605 50H21.6395C21.2863 50 21 49.7137 21 49.3605V26.6396Z"
        fill="#0D102B" />
</svg>