<svg id="Layer_1" data-name="Layer 1" xmlns="http://www.w3.org/2000/svg" viewBox="0 0 500 114"><defs><style>.cls-1{fill:#171a31;}.cls-2{fill:#f24405;}</style></defs><path class="cls-1" d="M114.87,72.78v-13h11.47V54.18H114.87V45.51h13l.77-5.53H107.06v32.8ZM145,42.9a4.42,4.42,0,0,0,3.18-1.17,4.32,4.32,0,0,0,0-6A4.33,4.33,0,0,0,145,34.48a4.38,4.38,0,0,0-3.19,1.21,4.24,4.24,0,0,0,0,6A4.38,4.38,0,0,0,145,42.9Zm10.94,29.88V67.67h-6.43v-20H135.1v5.11H142V67.67h-7.09v5.11Zm14.55,0V55.22a10.25,10.25,0,0,1,2.21-2.15,3.72,3.72,0,0,1,2.19-.74,2,2,0,0,1,1.9.9,7.19,7.19,0,0,1,.52,3.26V72.78h7.48V54.31a7.91,7.91,0,0,0-1.82-5.53,6.56,6.56,0,0,0-5.1-2,9.52,9.52,0,0,0-4.23.91A12.21,12.21,0,0,0,170,50.53l-.52-2.89H163V72.78Zm31.68,10.5c4.4,0,7.73-.72,10-2.19A7,7,0,0,0,215.57,75a6.24,6.24,0,0,0-1.19-3.74A7.71,7.71,0,0,0,211,68.61a12.65,12.65,0,0,0-5-.94h-4.16a4,4,0,0,1-2.21-.41,1.33,1.33,0,0,1-.55-1.11,1.52,1.52,0,0,1,.23-.82,1.32,1.32,0,0,1,.58-.61,13.77,13.77,0,0,0,2.94.29,13.42,13.42,0,0,0,5.58-1.08,8.87,8.87,0,0,0,3.74-3,7.53,7.53,0,0,0,1.33-4.33,6.11,6.11,0,0,0-1.2-3.88,9.58,9.58,0,0,0-3.67-2.6,20.36,20.36,0,0,0,7.24-1l-1.71-5.49a25.12,25.12,0,0,1-5.4,2.49,20.25,20.25,0,0,1-6.44.73A14.49,14.49,0,0,0,196.49,48a9.11,9.11,0,0,0-4,3.2A8.49,8.49,0,0,0,191.1,56a7.87,7.87,0,0,0,1,4.17,8.51,8.51,0,0,0,3.41,3,6.12,6.12,0,0,0-2.06,2.11,5.08,5.08,0,0,0-.73,2.67,4.21,4.21,0,0,0,1.94,3.57c1.28.94,3.23,1.4,5.82,1.4h4a4.52,4.52,0,0,1,2.73.69,2.13,2.13,0,0,1,.91,1.82,2.36,2.36,0,0,1-1.24,2.13,9.71,9.71,0,0,1-4.58.76,14.86,14.86,0,0,1-3.6-.33A2.9,2.9,0,0,1,197,77a3.26,3.26,0,0,1-.45-1.85H190A8.31,8.31,0,0,0,191,79.6a6.92,6.92,0,0,0,3.74,2.71,21.89,21.89,0,0,0,7.35,1Zm.39-23.05a3.61,3.61,0,0,1-2.8-1.13,5.28,5.28,0,0,1,0-6.25,3.65,3.65,0,0,1,2.83-1.14c2.56,0,3.83,1.37,3.83,4.13a4.72,4.72,0,0,1-1,3.28,3.59,3.59,0,0,1-2.83,1.11Zm30.08,13.36a16.48,16.48,0,0,0,5.62-.93,13.51,13.51,0,0,0,4.41-2.54l-3-4.07a11.72,11.72,0,0,1-6.44,2.09q-5.35,0-6.07-5.73h16.29a22,22,0,0,0,.15-2.7,15.5,15.5,0,0,0-1.45-6.93,10.29,10.29,0,0,0-4.1-4.45,13.37,13.37,0,0,0-12.84.23A11.38,11.38,0,0,0,221,53.4a15.79,15.79,0,0,0-1.44,6.83,15.44,15.44,0,0,0,1.49,7,10.82,10.82,0,0,0,4.43,4.68,14.17,14.17,0,0,0,7.15,1.69Zm3.68-15.73H227a8,8,0,0,1,1.48-4.56,4,4,0,0,1,3.26-1.49c2.93,0,4.43,2,4.49,6ZM265.5,72.78v-5h-5v-7.2A13.54,13.54,0,0,1,263,55.78a6.38,6.38,0,0,1,3.69-2.27v4.64h4.74l1.37-10.51a11,11,0,0,0-4.16-.75,8.23,8.23,0,0,0-5.13,1.58,11.63,11.63,0,0,0-3.45,4.81l-1.32-5.64h-9v5h3.31V67.76h-3.31v5Zm12.85,10.5,7.48-.8V71a7.63,7.63,0,0,0,6,2.61A8.06,8.06,0,0,0,297,71.86a10.94,10.94,0,0,0,3.34-4.78,19.54,19.54,0,0,0,1.15-6.94q0-6.39-2.22-9.87c-1.48-2.32-3.81-3.47-7-3.47a8.36,8.36,0,0,0-3.67.89,9.6,9.6,0,0,0-3.28,2.75l-.33-2.8h-6.63Zm11.17-15.19a3.65,3.65,0,0,1-2-.54,5.74,5.74,0,0,1-1.68-1.69V55.26c1.16-2,2.53-2.93,4.12-2.93a3,3,0,0,1,2.83,1.72c.64,1.15,1,3.22,1,6.18,0,2.76-.36,4.74-1.07,6a3.42,3.42,0,0,1-3.15,1.87Zm33.67,4.69v-5h-5v-7.2a13.54,13.54,0,0,1,2.51-4.78,6.29,6.29,0,0,1,3.69-2.27v4.64h4.73l1.37-10.51a10.91,10.91,0,0,0-4.16-.75,8.15,8.15,0,0,0-5.11,1.58,11.54,11.54,0,0,0-3.45,4.81l-1.33-5.64h-9v5h3.31V67.76h-3.31v5ZM346.88,42.9a4.4,4.4,0,0,0,3.17-1.17,4.32,4.32,0,0,0,0-6,4.31,4.31,0,0,0-3.17-1.21,4.38,4.38,0,0,0-3.19,1.21,4.19,4.19,0,0,0,0,6,4.38,4.38,0,0,0,3.19,1.2Zm10.94,29.88V67.67h-6.44v-20H337v5.11h6.87V67.67h-7.1v5.11Zm14.54,0V55.22a10.72,10.72,0,0,1,2.21-2.15,3.75,3.75,0,0,1,2.19-.74,2,2,0,0,1,1.91.9,7.19,7.19,0,0,1,.52,3.26V72.78h7.47V54.31a7.91,7.91,0,0,0-1.82-5.53,6.54,6.54,0,0,0-5.09-2,9.46,9.46,0,0,0-4.23.91,12.37,12.37,0,0,0-3.58,2.82l-.52-2.89h-6.53V72.78Zm35.75.81a15,15,0,0,0,8.25-2.28l-2.46-4.78a9,9,0,0,1-4.4,1.14,3.91,3.91,0,0,1-2.75-.81,3.54,3.54,0,0,1-.85-2.65V52.81h7.34l.75-5.17H405.9V41.3l-7.48.89v5.45h-5.26v5.17h5.26v11.4a9.33,9.33,0,0,0,2.44,6.91c1.63,1.65,4,2.47,7.25,2.47Zm22.89-.1q6.25,0,9.73-3.37c2.33-2.23,3.48-5.27,3.48-9.13V40h-17.8v5.68h10V61a6.86,6.86,0,0,1-1.63,5,5.64,5.64,0,0,1-4.23,1.67,11.14,11.14,0,0,1-3.36-.46A13.66,13.66,0,0,1,424,65.63l-2.92,4.78a18.46,18.46,0,0,0,4.55,2.33,17.59,17.59,0,0,0,5.33.75Zm30.64.1a17.85,17.85,0,0,0,7.14-1.31,10.54,10.54,0,0,0,4.62-3.67,9.52,9.52,0,0,0,1.6-5.45,8.86,8.86,0,0,0-2.44-6.64,18,18,0,0,0-7.45-3.9A40.81,40.81,0,0,1,461,51.15a5.28,5.28,0,0,1-2-1.33,2.67,2.67,0,0,1-.61-1.75,2.71,2.71,0,0,1,1.31-2.4,6.64,6.64,0,0,1,3.57-.82,11.7,11.7,0,0,1,7.53,2.74l3.65-4.21q-4.5-4.26-11.74-4.26a16.55,16.55,0,0,0-6.27,1.14A10.22,10.22,0,0,0,452,43.58a8.32,8.32,0,0,0-1.63,5.11,8.16,8.16,0,0,0,2.42,6.1q2.42,2.37,8.19,4.11A14.76,14.76,0,0,1,465.64,61a3.72,3.72,0,0,1-.23,5.77,6.65,6.65,0,0,1-4,1.07,13,13,0,0,1-8.86-3.32l-3.93,4.36q4.83,4.74,13,4.74Zm0,0"/><path class="cls-2" d="M74.6,33.24a1.62,1.62,0,0,1-.78-.2,41.29,41.29,0,0,0-37.29,0,1.75,1.75,0,0,1-2.28-.63,1.54,1.54,0,0,1,.66-2.13,44.88,44.88,0,0,1,40.45-.05,1.51,1.51,0,0,1,.7,2.13,1.68,1.68,0,0,1-1.46.88ZM26.68,49.81a1.86,1.86,0,0,1-1-.29,1.52,1.52,0,0,1-.4-2.2A34.23,34.23,0,0,1,37.86,37a40.78,40.78,0,0,1,34.52,0A34.28,34.28,0,0,1,84.94,47.22a1.53,1.53,0,0,1-.41,2.21A1.74,1.74,0,0,1,82.19,49a31.06,31.06,0,0,0-11.35-9.27,37.2,37.2,0,0,0-31.47,0A31.26,31.26,0,0,0,28,49.14a1.48,1.48,0,0,1-1.31.67ZM47.61,87.9a1.65,1.65,0,0,1-1.18-.48,31.66,31.66,0,0,1-6.72-8.33A26.64,26.64,0,0,1,36.19,65.4c0-9.37,8.5-17,19-17S74.09,56,74.09,65.4a1.68,1.68,0,0,1-3.36,0c0-7.65-7-13.87-15.58-13.87S39.54,57.75,39.54,65.4a23.57,23.57,0,0,0,3.11,12.14,29.64,29.64,0,0,0,6.2,7.63,1.56,1.56,0,0,1,0,2.25,2,2,0,0,1-1.24.48Zm24-5.85a18.86,18.86,0,0,1-10.38-2.8,16.55,16.55,0,0,1-8-13.85,1.67,1.67,0,0,1,3.34,0A13.39,13.39,0,0,0,63.1,76.63a15.37,15.37,0,0,0,8.51,2.24,23.94,23.94,0,0,0,3.48-.31,1.67,1.67,0,0,1,2,1.29,1.59,1.59,0,0,1-1.38,1.83,25,25,0,0,1-4,.37Zm-6.72,6.51a1.5,1.5,0,0,1-.44-.07A26.52,26.52,0,0,1,52,81.88,22.44,22.44,0,0,1,44.72,65.4c0-5.11,4.63-9.29,10.32-9.29s10.31,4.18,10.31,9.29c0,3.36,3.11,6.12,7,6.12s7-2.76,7-6.12c0-11.91-10.89-21.56-24.27-21.56-9.51,0-18.22,5-22.14,12.72a19.37,19.37,0,0,0-2,8.84,29.57,29.57,0,0,0,2.25,11.39,1.53,1.53,0,0,1-1,2A1.7,1.7,0,0,1,30,77.89,33.61,33.61,0,0,1,27.59,65.4a22.47,22.47,0,0,1,2.27-10.23C34.31,46.37,44.19,40.66,55,40.66c15.23,0,27.61,11.07,27.61,24.71,0,5.11-4.61,9.27-10.31,9.27S62,70.48,62,65.37c0-3.38-3.12-6.12-7-6.12s-7,2.74-7,6.12A19.27,19.27,0,0,0,54.34,79.6a23.11,23.11,0,0,0,10.94,5.83,1.57,1.57,0,0,1,1.18,1.92,1.64,1.64,0,0,1-1.57,1.21Zm0,0"/></svg>