<svg xmlns="http://www.w3.org/2000/svg" fill="none" viewBox="0 0 33 32">
    <path fill="#FA7545"
        d="M14.4976 2.25117c.534-1.8624 3.1393-1.95337 3.8019-.13277l2.6161 7.18766c.2963.81424 1.0832 1.34494 1.9492 1.31474l7.6443-.2669c1.9362-.0677 2.8278 2.3819 1.3011 3.5748l-6.0275 4.7091c-.6827.5335-.9444 1.4459-.648 2.2601l2.6161 7.1876c.6626 1.8206-1.3916 3.4256-2.9978 2.3421l-6.3413-4.2772c-.7183-.4845-1.6669-.4514-2.3497.0821l-6.0274 4.7091c-1.52675 1.1928-3.68791-.2649-3.15387-2.1273l2.10833-7.3526c.23883-.8329-.08582-1.7248-.80414-2.2094l-6.34125-4.2772c-1.60622-1.0834-.88769-3.5892 1.04858-3.6568l7.64425-.267c.866-.0302 1.6139-.6146 1.8528-1.4475l2.1083-7.35263Z" />
</svg>