<svg id="startButton" viewBox="0 0 400 400" fill="none" xmlns="http://www.w3.org/2000/svg">
    <circle cx="24" cy="24" r="8" fill="#F2F2F7" />
    <circle cx="56" cy="24" r="8" fill="#F2F2F7" />
    <circle cx="88" cy="24" r="8" fill="#F2F2F7" />
    <circle cx="120" cy="24" r="8" fill="#F2F2F7" />
    <circle cx="152" cy="24" r="8" fill="#F2F2F7" />
    <circle cx="184" cy="24" r="8" fill="#F2F2F7" />
    <circle cx="216" cy="24" r="8" fill="#63CB7B" />
    <circle cx="248" cy="24" r="8" fill="#F2F2F7" />
    <circle cx="280" cy="24" r="8" fill="#F2F2F7" />
    <circle cx="312" cy="24" r="8" fill="#F2F2F7" />
    <circle cx="344" cy="24" r="8" fill="#F2F2F7" />
    <circle cx="376" cy="24" r="8" fill="#F2F2F7" />
    <circle cx="24" cy="56" r="8" fill="#F2F2F7" />
    <circle cx="56" cy="56" r="8" fill="#F04405" />
    <circle cx="88" cy="56" r="8" fill="#F2F2F7" />
    <circle cx="120" cy="56" r="8" fill="#F2F2F7" />
    <circle cx="152" cy="56" r="8" fill="#F2F2F7" />
    <circle cx="184" cy="56" r="8" fill="#F2F2F7" />
    <circle cx="216" cy="56" r="8" fill="#F2F2F7" />
    <circle cx="248" cy="56" r="8" fill="#F2F2F7" />
    <circle cx="280" cy="56" r="8" fill="#F2F2F7" />
    <circle cx="312" cy="56" r="8" fill="#F2F2F7" />
    <circle cx="344" cy="56" r="8" fill="#F2F2F7" />
    <circle cx="376" cy="56" r="8" fill="#F2F2F7" />
    <circle cx="24" cy="88" r="8" fill="#F2F2F7" />
    <circle cx="56" cy="88" r="8" fill="#F2F2F7" />
    <circle cx="88" cy="88" r="8" fill="#F2F2F7" />
    <circle cx="120" cy="88" r="8" fill="#F2F2F7" />
    <circle cx="152" cy="88" r="8" fill="#F2F2F7" />
    <circle cx="184" cy="88" r="8" fill="#F2F2F7" />
    <circle cx="216" cy="88" r="8" fill="#F2F2F7" />
    <circle cx="248" cy="88" r="8" fill="#F2F2F7" />
    <circle cx="280" cy="88" r="8" fill="#F04405" />
    <circle cx="312" cy="88" r="8" fill="#F2F2F7" />
    <circle cx="344" cy="88" r="8" fill="#F2F2F7" />
    <circle cx="376" cy="88" r="8" fill="#F2F2F7" />
    <circle cx="24" cy="120" r="8" fill="#F2F2F7" />
    <circle cx="56" cy="120" r="8" fill="#F2F2F7" />
    <circle cx="88" cy="120" r="8" fill="#63CB7B" />
    <circle cx="120" cy="120" r="8" fill="#F2F2F7" />
    <circle cx="152" cy="120" r="8" fill="#F2F2F7" />
    <circle cx="184" cy="120" r="8" fill="#F2F2F7" />
    <circle cx="216" cy="120" r="8" fill="#F2F2F7" />
    <circle cx="248" cy="120" r="8" fill="#F2F2F7" />
    <circle cx="280" cy="120" r="8" fill="#F2F2F7" />
    <circle cx="312" cy="120" r="8" fill="#F2F2F7" />
    <circle cx="344" cy="120" r="8" fill="#F2F2F7" />
    <circle cx="376" cy="120" r="8" fill="#F2F2F7" />
    <circle cx="24" cy="152" r="8" fill="#F2F2F7" />
    <circle cx="56" cy="152" r="8" fill="#F2F2F7" />
    <circle cx="88" cy="152" r="8" fill="#F2F2F7" />
    <circle cx="120" cy="152" r="8" fill="#F2F2F7" />
    <circle cx="152" cy="152" r="8" fill="#F2F2F7" />
    <circle cx="184" cy="152" r="8" fill="#F2F2F7" />
    <circle cx="216" cy="152" r="8" fill="#F2F2F7" />
    <circle cx="248" cy="152" r="8" fill="#F2F2F7" />
    <circle cx="280" cy="152" r="8" fill="#F2F2F7" />
    <circle cx="310.5" cy="151" r="8" fill="#F2F2F7" />
    <circle cx="344" cy="152" r="8" fill="#F2F2F7" />
    <circle cx="376" cy="152" r="8" fill="#F2F2F7" />
    <circle cx="24" cy="184" r="8" fill="#F2F2F7" />
    <circle cx="56" cy="184" r="8" fill="#F2F2F7" />
    <circle cx="88" cy="184" r="8" fill="#F2F2F7" />
    <circle cx="120" cy="184" r="8" fill="#F2F2F7" />
    <circle cx="152" cy="184" r="8" fill="#F2F2F7" />
    <circle cx="184" cy="184" r="8" fill="#F04405" />
    <circle cx="216" cy="184" r="8" fill="#F2F2F7" />
    <circle cx="248" cy="184" r="8" fill="#F2F2F7" />
    <circle cx="280" cy="184" r="8" fill="#F2F2F7" />
    <circle cx="312" cy="184" r="8" fill="#F2F2F7" />
    <circle cx="344" cy="184" r="8" fill="#F2F2F7" />
    <circle cx="376" cy="184" r="8" fill="#F2F2F7" />
    <circle cx="24" cy="216" r="8" fill="#F04405" />
    <circle cx="56" cy="216" r="8" fill="#F2F2F7" />
    <circle cx="88" cy="216" r="8" fill="#F2F2F7" />
    <circle cx="120" cy="216" r="8" fill="#F2F2F7" />
    <circle cx="152" cy="216" r="8" fill="#F2F2F7" />
    <circle cx="184" cy="216" r="8" fill="#F2F2F7" />
    <circle cx="216" cy="216" r="8" fill="#F2F2F7" />
    <circle cx="248" cy="216" r="8" fill="#F2F2F7" />
    <circle cx="280" cy="216" r="8" fill="#F2F2F7" />
    <circle cx="312" cy="216" r="8" fill="#F2F2F7" />
    <circle cx="344" cy="216" r="8" fill="#F2F2F7" />
    <circle cx="376" cy="216" r="8" fill="#F2F2F7" />
    <circle cx="24" cy="248" r="8" fill="#F2F2F7" />
    <circle cx="56" cy="248" r="8" fill="#F2F2F7" />
    <circle cx="88" cy="248" r="8" fill="#F2F2F7" />
    <circle cx="120" cy="248" r="8" fill="#F2F2F7" />
    <circle cx="152" cy="248" r="8" fill="#F2F2F7" />
    <circle cx="184" cy="248" r="8" fill="#F2F2F7" />
    <circle cx="216" cy="248" r="8" fill="#F2F2F7" />
    <circle cx="248" cy="248" r="8" fill="#F2F2F7" />
    <circle cx="280" cy="248" r="8" fill="#F2F2F7" />
    <circle cx="312" cy="248" r="8" fill="#F2F2F7" />
    <circle cx="344" cy="248" r="8" fill="#F2F2F7" />
    <circle cx="376" cy="248" r="8" fill="#F2F2F7" />
    <circle cx="24" cy="280" r="8" fill="#F2F2F7" />
    <circle cx="56" cy="280" r="8" fill="#F2F2F7" />
    <circle cx="88" cy="280" r="8" fill="#F2F2F7" />
    <circle cx="120" cy="280" r="8" fill="#F04405" />
    <circle cx="152" cy="280" r="8" fill="#F2F2F7" />
    <circle cx="184" cy="280" r="8" fill="#F2F2F7" />
    <circle cx="216" cy="280" r="8" fill="#F2F2F7" />
    <circle cx="248" cy="280" r="8" fill="#F2F2F7" />
    <circle cx="280" cy="280" r="8" fill="#F2F2F7" />
    <circle cx="312" cy="280" r="8" fill="#F2F2F7" />
    <circle cx="344" cy="280" r="8" fill="#F04405" />
    <circle cx="376" cy="280" r="8" fill="#F2F2F7" />
    <circle cx="24" cy="312" r="8" fill="#F2F2F7" />
    <circle cx="56" cy="312" r="8" fill="#F2F2F7" />
    <circle cx="88" cy="312" r="8" fill="#F2F2F7" />
    <circle cx="120" cy="312" r="8" fill="#F2F2F7" />
    <circle cx="152" cy="312" r="8" fill="#F2F2F7" />
    <circle cx="184" cy="312" r="8" fill="#F2F2F7" />
    <circle cx="216" cy="312" r="8" fill="#F2F2F7" />
    <circle cx="248" cy="312" r="8" fill="#F2F2F7" />
    <circle cx="280" cy="312" r="8" fill="#F2F2F7" />
    <circle cx="312" cy="312" r="8" fill="#F2F2F7" />
    <circle cx="344" cy="312" r="8" fill="#F2F2F7" />
    <circle cx="376" cy="312" r="8" fill="#F2F2F7" />
    <circle cx="24" cy="344" r="8" fill="#F2F2F7" />
    <circle cx="56" cy="344" r="8" fill="#F2F2F7" />
    <circle cx="88" cy="344" r="8" fill="#F2F2F7" />
    <circle cx="120" cy="344" r="8" fill="#F2F2F7" />
    <circle cx="152" cy="344" r="8" fill="#F2F2F7" />
    <circle cx="184" cy="344" r="8" fill="#F2F2F7" />
    <circle cx="216" cy="344" r="8" fill="#F2F2F7" />
    <circle cx="248" cy="344" r="8" fill="#F2F2F7" />
    <circle cx="280" cy="344" r="8" fill="#F2F2F7" />
    <circle cx="312" cy="344" r="8" fill="#63CB7B" />
    <circle cx="344" cy="344" r="8" fill="#F2F2F7" />
    <circle cx="376" cy="344" r="8" fill="#F2F2F7" />
    <circle cx="24" cy="376" r="8" fill="#F2F2F7" />
    <circle cx="56" cy="376" r="8" fill="#63CB7B" />
    <circle cx="88" cy="376" r="8" fill="#F2F2F7" />
    <circle cx="120" cy="376" r="8" fill="#F2F2F7" />
    <circle cx="152" cy="376" r="8" fill="#F2F2F7" />
    <circle cx="184" cy="376" r="8" fill="#F2F2F7" />
    <circle cx="216" cy="376" r="8" fill="#F2F2F7" />
    <circle cx="248" cy="376" r="8" fill="#F2F2F7" />
    <circle cx="280" cy="376" r="8" fill="#F2F2F7" />
    <circle cx="312" cy="376" r="8" fill="#F2F2F7" />
    <circle cx="344" cy="376" r="8" fill="#F2F2F7" />
    <circle cx="376" cy="376" r="8" fill="#F2F2F7" />
    <path id="path" d="m56.333 56.667 226 32.5 62 191-288-223.5z" stroke="#F04405" stroke-linejoin="bevel"
        stroke-dasharray="1000" stroke-dashoffset="1000">>
        <animate attributeType="xml" attributeName="stroke-dashoffset" from="1000" to="0" dur="2.5s" begin="indefinite"
            repeatCount="1" fill="freeze" restart="never" />
    </path>
    <circle cx="343.75" cy="279.917" r="14" fill="#F04405">
        <animate attributeType="CSS" attributeName="opacity" from="0" to="0.5" dur="4s" repeatCount="indefinite"
            values="0; 0.25; 0.5; 0" keyTimes="0; 0.4; 0.7; 1" />
    </circle>
    <circle opacity=".1" cx="279.917" cy="88.25" r="14" fill="#F04405">
        <animate attributeType="CSS" attributeName="opacity" from="0" to="0.5" dur="2s" repeatCount="indefinite"
            values="0; 0.5; 0.25; 0" keyTimes="0; 0.5; 0.8; 1" />
    </circle>
    <circle fill="#F04405" r="14" cy="55.998" cx="55.998" opacity=".1">
        <animate attributeType="CSS" attributeName="opacity" from="0" to="0.5" dur="3s" repeatCount="indefinite"
            values="0; 0.25; 0.5; 0" keyTimes="0; 0.2; 0.6; 1" />
    </circle>
</svg>