<svg viewBox="0 0 18 13" fill="none" xmlns="http://www.w3.org/2000/svg">
    <path
        d="M14.834 11.431v.6a.6.6 0 0 0 .598-.65l-.598.05Zm-11.667 0-.598-.05a.6.6 0 0 0 .598.65v-.6Zm10.871-9.549-.598.05.598-.05Zm-.483-.376.098.592-.098-.592Zm-4.623.747.099-.592-.099.592Zm.137 0-.098-.592.098.592Zm-5.106-.37-.598-.05.598.05Zm.484-.377-.099.592.099-.592ZM1.084 10.83a.6.6 0 1 0 0 1.2v-1.2Zm15.833 1.2a.6.6 0 1 0 0-1.2v1.2ZM13.44 1.932l.796 9.55 1.196-.1-.796-9.55-1.196.1Zm-9.675 9.55.796-9.55-1.196-.1-.796 9.55 1.196.1Zm.583-9.384 4.486.747.197-1.184L4.545.914l-.197 1.184Zm4.82.747 4.485-.747-.197-1.184-4.485.747.197 1.184Zm5.468-1.013a1.017 1.017 0 0 0-1.18-.918l.197 1.184a.183.183 0 0 1-.213-.166l1.196-.1ZM8.834 2.845c.11.019.223.019.334 0L8.97 1.661a.184.184 0 0 1 .06 0l-.197 1.184ZM4.56 1.932a.183.183 0 0 1-.213.166L4.545.914a1.017 1.017 0 0 0-1.18.918l1.196.1Zm-3.477 10.1h15.833v-1.2H1.084v1.2Zm13.75-1.2H3.167v1.2h11.667v-1.2Z"
        fill="#0D102B" fill-opacity=".72" />
</svg>