<svg viewBox="0 0 104 104" fill="none" xmlns="http://www.w3.org/2000/svg">
    <g clip-path="url(#clip0)">
        <rect width="104" height="104" rx="16" fill="#202659" />
        <path
            d="M0-25a4 4 0 014-4h93a4 4 0 014 4v73.367a3.999 3.999 0 01-1.415 3.052l-46.5 39.39a4 4 0 01-5.17 0l-46.5-39.39A4 4 0 010 48.367V-25z"
            fill="#fff" fill-opacity=".5" />
        <path
            d="M.5-25A3.5 3.5 0 014-28.5h93a3.5 3.5 0 013.5 3.5v73.367a3.501 3.501 0 01-1.238 2.67l-46.5 39.391a3.5 3.5 0 01-4.524 0l-46.5-39.39A3.5 3.5 0 01.5 48.367V-25z"
            stroke="#fff" stroke-opacity=".1" />
        <path
            d="M20-26a4 4 0 014-4h93a4 4 0 014 4v73.367a3.998 3.998 0 01-1.415 3.052l-46.5 39.39a4 4 0 01-5.17 0l-46.5-39.39A4 4 0 0120 47.367V-26z"
            fill="#fff" fill-opacity=".5" />
        <path
            d="M20.5-26a3.5 3.5 0 013.5-3.5h93a3.5 3.5 0 013.5 3.5v73.367a3.5 3.5 0 01-1.238 2.67l-46.5 39.391a3.5 3.5 0 01-4.524 0l-46.5-39.39a3.5 3.5 0 01-1.238-2.671V-26z"
            stroke="#fff" stroke-opacity=".1" />
    </g>
    <defs>
        <filter id="filter0_b" x="-14" y="-43" width="129" height="148.758" filterUnits="userSpaceOnUse"
            color-interpolation-filters="sRGB">
            <feFlood flood-opacity="0" result="BackgroundImageFix" />
            <feGaussianBlur in="BackgroundImage" stdDeviation="7" />
            <feComposite in2="SourceAlpha" operator="in" result="effect1_backgroundBlur" />
            <feBlend in="SourceGraphic" in2="effect1_backgroundBlur" result="shape" />
        </filter>
        <filter id="filter1_b" x="6" y="-44" width="129" height="148.758" filterUnits="userSpaceOnUse"
            color-interpolation-filters="sRGB">
            <feFlood flood-opacity="0" result="BackgroundImageFix" />
            <feGaussianBlur in="BackgroundImage" stdDeviation="7" />
            <feComposite in2="SourceAlpha" operator="in" result="effect1_backgroundBlur" />
            <feBlend in="SourceGraphic" in2="effect1_backgroundBlur" result="shape" />
        </filter>
        <clipPath id="clip0">
            <rect width="104" height="104" rx="16" fill="#fff" />
        </clipPath>
    </defs>
</svg>