<svg width="25" height="18" viewBox="0 0 25 18" fill="none" xmlns="http://www.w3.org/2000/svg">
    <path
        d="M16.4219 8.23643C15.2174 8.23643 14.2479 9.29401 14.2479 10.616C14.2479 11.9086 15.2174 12.9662 16.4219 12.9662C17.6557 12.9662 18.6251 11.9086 18.6251 10.616C18.6251 9.29401 17.6557 8.23643 16.4219 8.23643ZM8.6369 8.23643C7.43243 8.23643 6.43361 9.29401 6.43361 10.616C6.43361 11.9086 7.43243 12.9662 8.6369 12.9662C9.84136 12.9662 10.8108 11.9086 10.8108 10.616C10.8108 9.29401 9.84136 8.23643 8.6369 8.23643ZM18.4783 17.9897C18.4783 17.9897 17.7145 17.0496 17.0682 16.2564C19.8884 15.4632 20.9459 13.7006 20.9459 13.7006C20.0646 14.2881 19.2127 14.6994 18.4783 14.9638C17.3913 15.4045 16.3631 15.7276 15.3643 15.9039C13.3079 16.2858 11.4277 16.1977 9.81199 15.9039C8.57814 15.6689 7.52056 15.3163 6.66862 14.9638C6.16921 14.7875 5.64042 14.5525 5.08226 14.2294C5.0235 14.2 4.96475 14.1706 4.90599 14.1119C4.84724 14.1119 4.81786 14.0825 4.78848 14.0825C4.40658 13.8475 4.20094 13.7006 4.20094 13.7006C4.20094 13.7006 5.22914 15.4045 7.96122 16.227C7.31492 17.0496 6.52174 17.9897 6.52174 17.9897C1.79201 17.8428 0 14.7288 0 14.7288C0 7.82515 3.08461 2.24348 3.08461 2.24348C6.16921 -0.0773165 9.07756 0.0108151 9.07756 0.0108151L9.31257 0.245833C5.43478 1.36217 3.67215 3.06604 3.67215 3.06604C3.67215 3.06604 4.14219 2.80165 4.96475 2.44912C7.25617 1.4503 9.04818 1.1859 9.81199 1.09777C9.92949 1.09777 10.047 1.06839 10.1645 1.03902C11.4865 0.892131 12.9553 0.833377 14.5123 1.00964C16.5394 1.24466 18.7133 1.86158 20.9459 3.06604C20.9459 3.06604 19.2714 1.4503 15.6287 0.333964L15.9224 0.0108151C15.9224 0.0108151 18.8308 -0.0773165 21.9154 2.24348C21.9154 2.24348 25 7.82515 25 14.7288C25 14.7288 23.208 17.8428 18.4783 17.9897Z"
        fill="#F04405" />
</svg>