<svg width="26" height="25" viewBox="0 0 26 25" xmlns="http://www.w3.org/2000/svg">
    <path
        d="M12.6 0.321533C5.64235 0.321533 0 5.98594 0 12.9735C0 18.5623 3.61035 23.3036 8.61947 24.9781C9.24955 25.0946 9.47952 24.704 9.47952 24.3685C9.47952 24.0676 9.4685 23.2721 9.4622 22.2167C5.95739 22.9807 5.21705 20.5203 5.21705 20.5203C4.64525 19.0585 3.81827 18.6694 3.81827 18.6694C2.67311 17.885 3.90333 17.9007 3.90333 17.9007C5.16822 17.9905 5.83295 19.205 5.83295 19.205C6.95764 21.1377 8.78329 20.5801 9.50158 20.2556C9.61499 19.4381 9.94106 18.8805 10.3018 18.5639C7.50423 18.2441 4.56177 17.1588 4.56177 12.3119C4.56177 10.9305 5.05323 9.80106 5.85973 8.9158C5.72898 8.59603 5.29738 7.3091 5.98259 5.56851C5.98259 5.56851 7.04112 5.22827 9.44802 6.86489C10.453 6.58451 11.5304 6.44432 12.6031 6.43959C13.6727 6.44589 14.7517 6.58451 15.7583 6.86647C18.1636 5.22984 19.2205 5.57008 19.2205 5.57008C19.9073 7.31225 19.4757 8.59761 19.3465 8.91737C20.1546 9.80263 20.6414 10.932 20.6414 12.3135C20.6414 17.173 17.6957 18.2425 14.8887 18.556C15.3408 18.9466 15.7441 19.7185 15.7441 20.8983C15.7441 22.5901 15.7283 23.9542 15.7283 24.3685C15.7283 24.7071 15.9552 25.1009 16.5947 24.9765C21.5959 23.3005 25.2031 18.5607 25.2031 12.9735C25.2031 5.98594 19.5608 0.321533 12.6 0.321533Z" />
</svg>