<svg fill="none" xmlns="http://www.w3.org/2000/svg" viewBox="0 0 225 160">
    <g filter="url(#filter0_d_517_27561)">
        <path
            d="M67.568 35.512A3.512 3.512 0 0 1 71.081 32h82.121a3.512 3.512 0 0 1 3.512 3.512v18.99a3.512 3.512 0 0 1-3.512 3.513H71.081a3.512 3.512 0 0 1-3.513-3.512v-18.99Z"
            fill="#3C3C3D" />
        <path
            d="M67.968 35.512a3.112 3.112 0 0 1 3.113-3.112h82.121a3.112 3.112 0 0 1 3.112 3.112v18.99a3.112 3.112 0 0 1-3.112 3.113H71.081a3.112 3.112 0 0 1-3.113-3.112v-18.99Z"
            stroke="#3C3C3D" stroke-width=".8" />
    </g>
    <path
        d="M53.693 116.036a3.3 3.3 0 0 1 3.3-3.3h123.448a3.3 3.3 0 0 1 3.3 3.3v22.303a3.3 3.3 0 0 1-3.3 3.3H56.993a3.3 3.3 0 0 1-3.3-3.3v-22.303Z"
        fill="#434344" />
    <path
        d="M54.093 116.036a2.9 2.9 0 0 1 2.9-2.9h123.448a2.9 2.9 0 0 1 2.9 2.9v22.303a2.9 2.9 0 0 1-2.9 2.9H56.993a2.9 2.9 0 0 1-2.9-2.9v-22.303Z"
        stroke="#AEAEAE" stroke-opacity=".2" stroke-width=".8" />
    <defs>
        <filter id="filter0_d_517_27561" x=".08" y="-1.744" width="224.123" height="160.992"
            filterUnits="userSpaceOnUse" color-interpolation-filters="sRGB">
            <feFlood flood-opacity="0" result="BackgroundImageFix" />
            <feColorMatrix in="SourceAlpha" values="0 0 0 0 0 0 0 0 0 0 0 0 0 0 0 0 0 0 127 0" result="hardAlpha" />
            <feOffset dy="33.744" />
            <feGaussianBlur stdDeviation="33.744" />
            <feColorMatrix values="0 0 0 0 0 0 0 0 0 0 0 0 0 0 0 0 0 0 0.15 0" />
            <feBlend in2="BackgroundImageFix" result="effect1_dropShadow_517_27561" />
            <feBlend in="SourceGraphic" in2="effect1_dropShadow_517_27561" result="shape" />
        </filter>
    </defs>
</svg>