<svg fill="none" xmlns="http://www.w3.org/2000/svg" viewBox="0 0 231 226">
    <g>
        <path d="M32.666 65.527a4 4 0 0 1 4-4h122.049a4 4 0 0 1 4 4v55.175a4 4 0 0 1-4 4H36.666a4 4 0 0 1-4-4V65.527Z"
            fill="#B9B9B9" />
        <path
            d="M36.666 61.927h122.049a3.6 3.6 0 0 1 3.6 3.6v55.175a3.6 3.6 0 0 1-3.6 3.6H36.666a3.6 3.6 0 0 1-3.6-3.6V65.527a3.6 3.6 0 0 1 3.6-3.6Z"
            stroke="#E9F2FF" stroke-opacity=".2" stroke-width=".8" />
    </g>
    <g>
        <path d="M73.568 36a4 4 0 0 1 4-4h81.146a4 4 0 0 1 4 4v18.015a4 4 0 0 1-4 4H77.568a4 4 0 0 1-4-4V36Z"
            fill="#B9B9B9" />
        <path
            d="M77.568 32.4h81.146a3.6 3.6 0 0 1 3.6 3.6v18.015a3.6 3.6 0 0 1-3.6 3.6H77.568a3.6 3.6 0 0 1-3.6-3.6V36a3.6 3.6 0 0 1 3.6-3.6Z"
            stroke="#E9F2FF" stroke-opacity=".2" stroke-width=".8" />
    </g>
</svg>