<svg fill="none" xmlns="http://www.w3.org/2000/svg" viewBox="0 0 175 131">
    <mask id="path-1-inside-1_517_27561" fill="#fff">
        <path
            d="M65.317 119.982a60.62 60.62 0 0 1-4.956.202c-32.934 0-59.654-26.72-59.654-59.655S27.427.874 60.36.874a59.683 59.683 0 0 1 56.822 41.432" />
    </mask>
    <path
        d="M65.317 119.982a60.62 60.62 0 0 1-4.956.202c-32.934 0-59.654-26.72-59.654-59.655S27.427.874 60.36.874a59.683 59.683 0 0 1 56.822 41.432"
        fill="#434344" />
    <path
        d="M60.361.874v-.8.8Zm4.89 118.31a59.45 59.45 0 0 1-4.89.2v1.6c1.691 0 3.365-.069 5.022-.205l-.132-1.595Zm-4.89.2c-32.492 0-58.854-26.363-58.854-58.855h-1.6c0 33.376 27.078 60.455 60.454 60.455v-1.6ZM1.507 60.529c0-32.493 26.362-58.855 58.854-58.855v-1.6C26.985.074-.093 27.153-.093 60.529h1.6ZM60.36 1.674a58.883 58.883 0 0 1 34.69 11.305l.943-1.293A60.483 60.483 0 0 0 60.36.074v1.6Zm34.69 11.305a58.887 58.887 0 0 1 21.37 29.572l1.523-.49a60.48 60.48 0 0 0-21.95-30.375l-.943 1.293Z"
        fill="#AEAEAE" fill-opacity=".2" mask="url(#path-1-inside-1_517_27561)" />
    <g>
        <path
            d="M65.329 127.096c0 1.672 1.358 3.034 3.028 2.957 34.287-1.581 61.598-29.877 61.598-64.556a64.42 64.42 0 0 0-4.449-23.619c-.611-1.556-2.409-2.237-3.934-1.554L67.119 64.696a3.027 3.027 0 0 0-1.79 2.763v59.637Z"
            fill="#B9B9B9" />
        <path
            d="M129.555 65.496c0 34.465-27.142 62.587-61.217 64.158-1.43.066-2.61-1.102-2.61-2.558V67.458c0-1.035.61-1.974 1.555-2.397l54.452-24.372c1.329-.595 2.876.003 3.398 1.335a63.992 63.992 0 0 1 4.422 23.472Z"
            stroke="#E9F2FF" stroke-opacity=".2" stroke-width=".8" />
    </g>
</svg>