<svg xmlns="http://www.w3.org/2000/svg" fill="none" viewBox="0 0 169 22">
    <g fill="#E8E8E8" clip-path="url(#clip0_1205_17420)">
        <path
            d="M125.259 17.3458c.338.0058.67-.0891.954-.2727.284-.1836.507-.4476.641-.7583.133-.3108.171-.6542.109-.9866-.063-.3324-.223-.6387-.46-.8799-.237-.2412-.54-.4064-.871-.4746-.332-.0681-.676-.0362-.989.0919-.313.128-.581.3463-.769.6271-.189.2807-.289.6112-.289.9494-.002.2218.039.4418.122.6475.084.2056.206.3929.362.5511.155.1582.34.2842.545.3709.204.0866.423.1323.645.1342ZM29.0058 16.8942a4.90926 4.90926 0 0 1-1.8951-1.3452 6.58439 6.58439 0 0 1-1.6742-4.5267 7.6804 7.6804 0 0 1 .3977-2.5088 5.4012 5.4012 0 0 1 1.1881-2.01785 5.48901 5.48901 0 0 1 1.8509-1.34524 6.22097 6.22097 0 0 1 2.4549-.49096 5.92088 5.92088 0 0 1 2.0669.31422 6.38264 6.38264 0 0 1 1.63.89845 3.74167 3.74167 0 0 1 1.0998 1.38943 5.02462 5.02462 0 0 1 .5744 1.79201h-3.0833a2.28265 2.28265 0 0 0-.7462-1.34523 2.08681 2.08681 0 0 0-1.4729-.54006 2.48452 2.48452 0 0 0-1.2098.23938 2.48385 2.48385 0 0 0-.9455.79164 4.70808 4.70808 0 0 0-.7021 2.77881 4.80177 4.80177 0 0 0 .7021 2.7789c.2332.3498.5566.6303.9359.8117.3793.1815.8006.2572 1.2194.2193a2.4894 2.4894 0 0 0 1.5858-.491c.4339-.417.7127-.9694.7904-1.5661h3.0833a4.94898 4.94898 0 0 1-1.5858 3.2698 4.98546 4.98546 0 0 1-1.63.9819 6.6081 6.6081 0 0 1-2.1553.3584 5.71004 5.71004 0 0 1-2.4794-.4468ZM41.8195 6.50071a4.9093 4.9093 0 0 1 1.4728-1.4336 3.88368 3.88368 0 0 1 2.0277-.49096 3.99655 3.99655 0 0 1 1.6742.3584 3.81018 3.81018 0 0 1 1.2765.94264c.3549.42893.6368.91326.8346 1.43362a4.86807 4.86807 0 0 1 .3093 1.83619v7.8848H46.243V9.59378a2.3662 2.3662 0 0 0-.5302-1.61527 1.96407 1.96407 0 0 0-.7009-.48566 1.9639 1.9639 0 0 0-.8407-.14277 2.21474 2.21474 0 0 0-.944.18914 2.21493 2.21493 0 0 0-.7744.57184 2.94593 2.94593 0 0 0-.7021 2.01784v6.9029h-3.1716V.13785h3.1716v6.3825l.0688-.01964ZM54.5896 16.894a5.4006 5.4006 0 0 1-1.9393-1.3452 5.60264 5.60264 0 0 1-1.1881-2.062 7.8558 7.8558 0 0 1-.3977-2.5088 6.67744 6.67744 0 0 1 .4419-2.50886 7.56413 7.56413 0 0 1 1.1881-2.01785 5.48874 5.48874 0 0 1 1.8509-1.34524 5.78858 5.78858 0 0 1 2.3763-.49097 5.37077 5.37077 0 0 1 2.418.49434 5.37045 5.37045 0 0 1 1.9417 1.52353 7.36405 7.36405 0 0 1 1.144 2.28297c.2725.95789.4064 1.94988.3977 2.94578h-8.6066c.0785.8214.3998 1.6008.923 2.2388a2.70058 2.70058 0 0 0 2.1111.8052 2.57833 2.57833 0 0 0 1.4729-.4026c.3677-.2571.6458-.6228.7954-1.0458h3.1274a4.90877 4.90877 0 0 1-.5744 1.522c-.2932.4779-.665.9028-1.0998 1.2569a4.7221 4.7221 0 0 1-1.63.8493c-.6672.2237-1.3682.33-2.0718.3142a7.18655 7.18655 0 0 1-2.6807-.5057Zm.491-9.14166a3.92695 3.92695 0 0 0-.8788 1.88038h5.2827a3.00935 3.00935 0 0 0-.7463-1.88038 2.26755 2.26755 0 0 0-.8024-.55215 2.26815 2.26815 0 0 0-.9601-.16465 2.71974 2.71974 0 0 0-1.9049.7168h.0098ZM67.5317 16.8942a4.90926 4.90926 0 0 1-1.8951-1.3452 6.58345 6.58345 0 0 1-1.6742-4.5267 7.6804 7.6804 0 0 1 .3977-2.5088 5.39987 5.39987 0 0 1 1.1881-2.01785 5.48901 5.48901 0 0 1 1.8509-1.34524 6.21538 6.21538 0 0 1 2.4548-.49096 5.92108 5.92108 0 0 1 2.067.31422 6.38264 6.38264 0 0 1 1.63.89845c.4725.36839.8497.8449 1.0997 1.38943a5.0228 5.0228 0 0 1 .5745 1.79201h-3.0833a2.28286 2.28286 0 0 0-.7413-1.34033 2.08676 2.08676 0 0 0-1.4729-.54005 2.48453 2.48453 0 0 0-1.2098.23939 2.48476 2.48476 0 0 0-.9456.79162 4.708 4.708 0 0 0-.702 2.77881 4.80169 4.80169 0 0 0 .702 2.7789c.2333.3498.5567.6303.936.8117.3793.1815.8006.2573 1.2194.2193a2.4894 2.4894 0 0 0 1.5858-.491c.4339-.417.7127-.9694.7904-1.5661h3.0391a4.94898 4.94898 0 0 1-1.5858 3.2698 4.98442 4.98442 0 0 1-1.63.9819 6.6081 6.6081 0 0 1-2.1553.3584 5.63077 5.63077 0 0 1-2.4401-.4517ZM80.2373 12.9667v4.0799h-3.1274V.13785h3.1274V9.5054l4.2272-4.57086h3.7853l-4.4187 4.61504 4.9096 7.48221h-3.8295l-3.3483-5.5135-1.3256 1.4484Z" />
        <path
            d="M92.281 16.8941a6.00946 6.00946 0 0 1-1.9639-1.3452 6.79194 6.79194 0 0 1-1.2765-2.0179 7.36491 7.36491 0 0 1 0-5.01761 6.26521 6.26521 0 0 1 1.2765-2.01784A5.22363 5.22363 0 0 1 92.281 5.1503c1.6095-.65784 3.4129-.65784 5.0225 0a6.00519 6.00519 0 0 1 1.9639 1.34525 6.79183 6.79183 0 0 1 1.2766 2.01784 7.36845 7.36845 0 0 1 0 5.01761c-.292.7483-.7257 1.4333-1.2766 2.0179a5.21906 5.21906 0 0 1-1.9639 1.3452c-1.6096.6579-3.413.6579-5.0225 0Zm4.7574-3.0489a5.58656 5.58656 0 0 0 .7918-2.8672 5.5869 5.5869 0 0 0-.7918-2.8672 2.66068 2.66068 0 0 0-.9818-.84053 2.66057 2.66057 0 0 0-1.2619-.27886 2.55322 2.55322 0 0 0-1.2688.26527 2.55326 2.55326 0 0 0-.9749.85412 5.5821 5.5821 0 0 0-.7926 2.8672c0 1.0099.2739 2.0008.7926 2.8672.2701.336.6121.6071 1.0008.7934.3887.1862.8143.2829 1.2453.2829.4311 0 .8567-.0967 1.2454-.2829a2.88257 2.88257 0 0 0 1.0008-.7934h-.0049ZM110.245 15.598h-.088c-.374.5114-.836.952-1.365 1.3011-.622.3291-1.321.4835-2.023.4468-.566.029-1.133-.0594-1.663-.2596a4.11107 4.11107 0 0 1-1.42-.904 4.6069 4.6069 0 0 1-1.056-3.1814V4.93436h3.138v7.54114c-.036.58.138 1.1534.49 1.6153.191.1958.421.3491.674.4498.254.1007.527.1465.799.1344.332.0118.663-.0503.967-.1819.305-.1317.577-.3294.796-.5791.455-.5502.69-1.2502.658-1.9638V4.93436h3.171V17.0316h-3.039V15.598h-.039ZM116.363 4.92941V1.11954h3.083v3.80987h2.033v2.10623h-2.028v6.42176c-.022.1703-.006.3433.048.5065.053.1631.143.3121.261.4362.25.1943.563.2904.879.27h.619c.105.0076.21-.0075.309-.0442v2.4204c-.177 0-.309.0442-.53.0442-.221 0-.398.0442-.614.0442h-.835c-.385.0002-.769-.0443-1.143-.1325a2.5999 2.5999 0 0 1-1.012-.4468 2.4596 2.4596 0 0 1-.746-.8985c-.21-.4483-.316-.9385-.309-1.4336V7.05527h-1.63V4.94905l1.615-.01964ZM131.508 16.8498a5.01552 5.01552 0 0 1-1.718-1.3452c-.489-.5917-.848-1.279-1.056-2.0178a9.18469 9.18469 0 0 1-.353-2.5531c0-.8631.119-1.72218.353-2.55295a6.68259 6.68259 0 0 1 1.056-2.01786 5.01392 5.01392 0 0 1 1.718-1.34523c.732-.33417 1.528-.50185 2.332-.49096a5.08 5.08 0 0 1 3.26 1.03102c.871.74055 1.436 1.77802 1.586 2.9114h-1.409c-.103-.8085-.512-1.54659-1.144-2.06203-.65-.47232-1.441-.70953-2.243-.67263-.627-.01496-1.247.12324-1.807.40259-.5.26184-.924.6472-1.233 1.1194a4.68372 4.68372 0 0 0-.707 1.65945c-.307 1.3278-.292 2.7101.045 4.0308.149.5935.404 1.1555.751 1.6594.308.4722.733.8576 1.232 1.1194.545.2794 1.151.4178 1.763.4026.904.0308 1.784-.2914 2.454-.8984a3.85241 3.85241 0 0 0 1.1-2.3763h1.365c-.063 1.249-.588 2.43-1.473 3.314-.465.4179-1.008.7397-1.598.947-.589.2073-1.214.2959-1.838.2608-.839-.0102-1.667-.1889-2.436-.5254ZM143.267 16.8497c-.685-.3038-1.288-.7646-1.762-1.3452-.487-.6-.859-1.2838-1.1-2.0179-.274-.8228-.408-1.6857-.398-2.553-.007-.8669.127-1.72929.398-2.55295.231-.73829.604-1.42395 1.1-2.01786.474-.58058 1.077-1.04142 1.762-1.34523.736-.32539 1.531-.49348 2.335-.49348s1.599.16809 2.334.49348c.678.31553 1.28.77451 1.763 1.34523.486.60054.858 1.28424 1.1 2.01786.259.82545.378 1.68825.353 2.55295 0 .8632-.119 1.7223-.353 2.553-.231.7383-.604 1.424-1.1 2.0179a4.77717 4.77717 0 0 1-1.763 1.3452c-.731.3341-1.527.5017-2.332.491a5.7359 5.7359 0 0 1-2.337-.491Zm4.095-1.1194c.512-.2605.951-.6453 1.277-1.1193.364-.4939.62-1.0595.751-1.6595.35-1.3207.35-2.7101 0-4.03079a6.32115 6.32115 0 0 0-.751-1.65945c-.326-.47402-.765-.85889-1.277-1.1194a3.7832 3.7832 0 0 0-1.762-.40259 3.66038 3.66038 0 0 0-1.763.40259c-.504.27265-.94.65523-1.277 1.1194-.359.50213-.627 1.06396-.79 1.65945a7.84638 7.84638 0 0 0 0 4.03079c.164.5955.431 1.1573.79 1.6595.337.4641.773.8467 1.277 1.1193.55.2657 1.152.4036 1.763.4036.61 0 1.212-.1379 1.762-.4036ZM154.628 4.79684v1.83621h.045c.383-.60138.884-1.11908 1.472-1.52198.656-.41724 1.424-.62133 2.2-.58425a3.65642 3.65642 0 0 1 1.964.54006c.585.39975 1.019.98404 1.232 1.65946h.044c.372-.68459.919-1.25751 1.586-1.65946.679-.40103 1.456-.60347 2.244-.58424.483-.00561.962.08622 1.409.27002.426.15854.815.40247 1.144.71681.333.34367.588.75579.746 1.20777.181.51911.271 1.06559.265 1.61527v8.73909h-1.409V8.47416a2.60943 2.60943 0 0 0-.135-1.08415c-.121-.34781-.314-.66603-.567-.93371a2.54907 2.54907 0 0 0-1.807-.62843c-.421.00183-.838.0783-1.232.22585-.375.16116-.718.38906-1.011.67262-.323.33163-.576.7244-.745 1.15524-.168.43084-.249.89105-.237 1.35356v7.79646h-1.473V8.47416c.031-.36721-.015-.73692-.137-1.08474-.122-.34782-.316-.66586-.57-.93312a2.26617 2.26617 0 0 0-.793-.49516 2.27 2.27 0 0 0-.926-.13327 2.91627 2.91627 0 0 0-1.232.27003c-.401.18028-.773.42212-1.1.71681-.324.31745-.58.69853-.751 1.11939a3.53895 3.53895 0 0 0-.265 1.38941v7.70809h-1.473V4.79684h1.512ZM13.55 11.0024 19.1862.96719a.61845.61845 0 0 0 .0994-.33631.61845.61845 0 0 0-.0994-.33631.75125.75125 0 0 0-.5744-.31422H6.99071a.75118.75118 0 0 0-.57442.31422L.42655 10.644a.61877.61877 0 0 0 0 .6727L6.4163 21.6661a.63785.63785 0 0 0 .24384.2364.63833.63833 0 0 0 .33058.0778H18.6167a.75077.75077 0 0 0 .3232-.0912.75002.75002 0 0 0 .2512-.223.61862.61862 0 0 0 0-.6726L13.55 11.0024Zm-.7463-1.34518L8.13465 1.31086H17.512l-4.7083 8.34636ZM6.94653 2.01785l5.04707 8.98455-5.0618 9.0092-5.17965-9.0092 5.19438-8.98455ZM8.13465 20.6744l4.66905-8.3464 4.669 8.3464H8.13465Z" />
    </g>
    <defs>
        <clipPath id="clip0_1205_17420">
            <path fill="#fff" d="M.3335 0h168.65v22H.3335z" />
        </clipPath>
    </defs>
</svg>