<svg fill="none" xmlns="http://www.w3.org/2000/svg" viewBox="0 0 131 26">
  <g clip-path="url(#clip0_9_933)" fill="#E8E8E8">
    <path
      d="M15.12 5.157 7.56 9.98l7.56 4.823-7.56 4.823L0 14.777l7.56-4.823L0 5.157 7.56.335l7.56 4.822Zm-7.599 16.02 7.56-4.823 7.56 4.823L15.081 26l-7.56-4.823Zm7.6-6.4 7.56-4.823-7.56-4.797L22.64.335l7.56 4.822-7.56 4.823 7.56 4.823-7.56 4.823-7.52-4.849ZM36.132 5.158h6.114c3.897 0 7.117 2.255 7.117 7.403v1.082c0 5.188-3.011 7.521-7 7.521h-6.23V5.158Zm3.416 2.906v10.18h2.62c2.215 0 3.701-1.446 3.701-4.666v-.847c0-3.22-1.564-4.667-3.819-4.667h-2.502Zm11.626.157h2.738l.443 3.01c.521-2.046 1.85-3.14 4.262-3.14h.848v3.454h-1.408c-2.777 0-3.454.964-3.454 3.701v5.957h-3.376V8.221h-.053Zm8.968 6.752v-.365c0-4.34 2.777-6.713 6.557-6.713 3.858 0 6.556 2.372 6.556 6.713v.365c0 4.262-2.62 6.556-6.556 6.556-4.184-.039-6.557-2.28-6.557-6.556Zm9.659-.04v-.325c0-2.412-1.212-3.859-3.141-3.859-1.89 0-3.142 1.33-3.142 3.859v.326c0 2.333 1.213 3.662 3.142 3.662 1.929-.039 3.141-1.33 3.141-3.662Zm5.227-6.712h2.815l.326 2.45c.678-1.642 2.125-2.776 4.263-2.776 3.297 0 5.474 2.372 5.474 6.765v.365c0 4.262-2.411 6.517-5.474 6.517-2.047 0-3.454-.925-4.145-2.411v6.556h-3.298l.039-17.466Zm9.45 6.713v-.287c0-2.581-1.33-3.858-3.102-3.858-1.89 0-3.142 1.447-3.142 3.858v.248c0 2.294 1.213 3.74 3.103 3.74 1.942-.039 3.141-1.277 3.141-3.701Zm8.42 3.871-.286 2.372h-2.894V3.88h3.298v6.635c.73-1.695 2.177-2.62 4.223-2.62 3.102.039 5.396 2.177 5.396 6.478v.404c0 4.302-2.176 6.765-5.474 6.765-2.177-.052-3.585-1.056-4.263-2.737Zm6.27-4.028v-.326c0-2.372-1.29-3.702-3.102-3.702-1.851 0-3.141 1.486-3.141 3.742v.286c0 2.412 1.25 3.82 3.102 3.82 1.981 0 3.141-1.239 3.141-3.82Zm4.914.196v-.365c0-4.34 2.777-6.713 6.557-6.713 3.858 0 6.556 2.372 6.556 6.713v.365c0 4.262-2.659 6.556-6.556 6.556-4.184-.039-6.557-2.28-6.557-6.556Zm9.685-.04v-.325c0-2.412-1.212-3.859-3.141-3.859-1.89 0-3.142 1.33-3.142 3.859v.326c0 2.333 1.213 3.662 3.142 3.662 1.942-.039 3.141-1.33 3.141-3.662Zm7.847-.482-4.549-6.23h3.897l2.62 3.897 2.659-3.897h3.859l-4.615 6.191 4.862 6.765h-3.819l-2.972-4.301-2.894 4.301h-3.988l4.94-6.726Z" />
  </g>
  <defs>
    <clipPath id="clip0_9_933">
      <path fill="#fff" d="M0 .335h130.347V26H0z" />
    </clipPath>
  </defs>
</svg>