<svg fill="none" xmlns="http://www.w3.org/2000/svg" viewBox="0 0 117 22">
    <g clip-path="url(#clip0_185_2951)" fill="#E8E8E8">
        <path
            d="M8.512 11.296c-.717 0-1.124-.31-1.337-.892-.213-.542-.155-.794-.698-.794-.543 0-1.822 1.492-1.996 3.546-.039.233-.058 1.609-.058 2.365v1.86c0 .814-.058 1.842.097 2.442.155.815.368.912.988 1.183.213.097.31.116.446.155v.058H.334v-.058c.116-.039.232-.058.445-.155.64-.271.814-.368.97-1.183.154-.6.096-1.628.096-2.442V12.13c0-.504.039-1.957-.039-2.422-.097-.582-.232-.756-.523-.97-.31-.232-.6-.232-.795-.27v-.059h3.78c.174 0 .174.058.174.174l-.039 3.45h.04c.367-1.511 1.143-2.48 1.569-2.907.426-.446 1.202-.988 2.17-.988.446 0 .97.116 1.3.484.232.233.426.64.426 1.28.019.697-.427 1.395-1.396 1.395ZM65.203 11.296c-.717 0-1.124-.31-1.337-.892-.213-.542-.155-.794-.698-.794-.542 0-1.822 1.492-1.996 3.546-.039.233-.058 1.609-.058 2.365v1.86c0 .814-.058 1.842.097 2.442.155.815.368.912.988 1.183.213.097.31.116.446.155v.058h-5.66v-.058c.117-.039.233-.058.446-.155.64-.271.814-.368.97-1.183.154-.6.096-1.628.096-2.442V12.13c0-.504.039-1.957-.038-2.422-.097-.582-.233-.756-.504-.97-.31-.232-.601-.232-.795-.27v-.059h3.818c.175 0 .175.058.175.174l-.04 3.45h.04c.368-1.511 1.143-2.48 1.57-2.907.426-.446 1.201-.988 2.17-.988.446 0 .97.116 1.299.484.232.233.426.64.426 1.28 0 .697-.446 1.395-1.415 1.395ZM16.692 9.261c-.485-.407-.97-.542-1.686-.542-.64 0-1.124.155-1.57.581-.66.6-1.027 1.958-1.124 3.934h4.341c.872 0 .97-.019.97-1.124.018-1.53-.447-2.442-.931-2.849Zm3.605 4.574h-7.985c0 3.528.445 4.613 1.337 5.601.698.795 1.337.989 2.21.989 2.422 0 3.74-1.221 4.205-3.353l.116.039c-.542 2.636-2.21 4.341-4.806 4.341-1.512 0-3.14-.368-4.264-1.531-1.202-1.299-1.667-2.868-1.667-5.04 0-4.05 2.326-6.763 5.524-6.763 3.721 0 5.35 2.5 5.35 4.864.018.214.018.524-.02.853Zm5.116 1.415c-.852.446-1.201.756-1.473 1.182-.31.485-.484 1.028-.484 1.88 0 1.725.659 2.093 1.88 2.093.232 0 .504-.038.756-.155.64-.329 1.55-1.298 1.55-2.267l.039-4.225c-.427.64-1.454 1.066-2.268 1.492Zm4.497 6.221c-.717 0-1.299-.038-1.667-.232-.388-.213-.659-.814-.6-1.938h-.04c-.31 1.027-1.666 2.17-3.605 2.17-1.783 0-3.353-1.027-3.353-3.197 0-.814.233-1.454.756-1.939.93-.872 2.21-.93 3.508-1.453 1.725-.66 2.83-1.473 2.83-2.384 0-.446.039-1.492.039-1.938 0-1.628-.737-1.9-2.035-1.9-.64 0-1.027.117-1.337.427-.31.31-.427.581-.427 1.473 0 .891-.504 1.337-1.357 1.337-.659 0-1.201-.368-1.201-1.143 0-.504.174-.873.484-1.24.66-.854 2.5-1.357 3.799-1.357 2.229 0 4.73.814 4.73 2.965 0 .988-.06 5.737-.06 7.54 0 .406 0 .794.02 1.2.04.485.175 1.047.737 1.183.252.058.581 0 .794-.155v.039c-.31.271-1.046.543-2.015.543Zm2.054-.27v-.059a3.83 3.83 0 0 0 .504-.155c.523-.213.756-.388.911-1.182.116-.582.116-1.57.116-2.423V4.242c0-.504.04-1.958-.058-2.423-.097-.582-.232-.795-.504-.97-.33-.251-.581-.251-.794-.27v-.04h3.798c.117 0 .175.072.175.214 0 .446-.039 1.085-.039 1.9V17.4c0 .853-.039 1.822.097 2.423.174.814.387.97 1.027 1.202.174.058.233.097.388.116v.058h-5.62ZM45.88 19.552c-.446.989-1.784 1.939-3.082 1.939-1.183 0-1.958-.175-2.636-.795-.543-.485-.795-1.086-.795-2.21 0-.6.097-8.43.117-9.903-.446-.04-1.338-.04-1.784-.097v-.058c1.88-.427 3.043-1.396 4.322-5.466h.097v5h2.985v.582H42.12L42.003 18.7c0 1.143.33 2.131 1.531 2.131 1.066 0 1.88-.62 2.23-1.356l.115.077Z" />
        <path
            d="M52.992 9.59c-.6-.717-1.298-.872-1.996-.872-.659 0-1.395.252-1.957.853-.911.93-1.415 2.907-1.415 5.213 0 2.307.542 4.206 1.395 5.195.601.717 1.337.91 1.997.91.697 0 1.356-.154 1.996-.872.814-.988 1.395-2.868 1.395-5.232-.038-2.346-.581-4.187-1.415-5.195Zm-1.996 11.881c-2.985 0-6.202-2.558-6.202-6.706 0-4.148 3.198-6.648 6.202-6.648s6.221 2.54 6.221 6.648c0 4.109-3.236 6.706-6.22 6.706Zm37.077-11.88c-.601-.718-1.3-.873-1.997-.873-.659 0-1.395.252-1.957.853-.911.93-1.415 2.907-1.415 5.213 0 2.307.543 4.206 1.395 5.195.601.717 1.338.91 1.997.91.697 0 1.356-.154 1.996-.872.814-.988 1.395-2.868 1.395-5.232-.038-2.346-.581-4.187-1.414-5.195Zm-1.997 11.88c-2.984 0-6.202-2.558-6.202-6.706 0-4.148 3.198-6.648 6.202-6.648s6.222 2.54 6.222 6.648c0 4.109-3.237 6.706-6.222 6.706Zm-19.342.194c-.872 0-1.609-.698-1.609-1.667 0-.969.717-1.667 1.609-1.667.891 0 1.608.601 1.608 1.667s-.736 1.667-1.608 1.667Zm8.392-.194c-1.667 0-3.14-.64-4.109-1.609-1.24-1.26-1.725-3.042-1.725-5.233 0-4.108 3.14-6.531 5.853-6.531 1.88 0 3.256.698 3.799 1.357.426.523.64.969.64 1.395 0 .93-.698 1.299-1.24 1.299-1.028 0-1.396-.64-1.513-1.609-.232-1.725-.523-1.938-1.822-1.938-.503 0-1.337.213-1.821.756-.698.794-1.066 2.403-1.066 4.748 0 2.965.368 4.128 1.143 5.272.582.853 1.299 1.066 1.996 1.066 2.714 0 3.935-1.59 4.342-3.373l.116.04c-.484 2.402-2.054 4.36-4.593 4.36Z" />
        <path
            d="M107.764 21.22v-.059c.155-.039.233-.058.446-.155.601-.232.814-.387.969-1.201.155-.601.117-1.57.117-2.423V12.13c0-1.396-.117-2.035-.446-2.5-.388-.524-.872-.795-1.667-.795-1.357 0-2.868 2.325-3.082 4.651-.038.446-.058.834-.058 1.396v2.5c0 .853-.058 1.822.097 2.423.155.814.388.969.989 1.201.213.097.31.116.445.155v.058h-5.64v-.058c.155-.039.233-.058.446-.155.601-.232.814-.387.969-1.201.155-.601.116-1.57.116-2.423V12.13c0-1.396-.155-2.035-.484-2.5-.388-.524-.872-.795-1.667-.795-1.512 0-2.868 2.384-3.081 4.71-.059.716-.059.445-.059 1.356v2.48c0 .854-.058 1.842.097 2.443.155.814.388.91 1.028 1.182l.426.155v.058h-5.64v-.058c.116-.039.233-.058.446-.155.64-.232.794-.368.969-1.182.155-.6.116-1.609.116-2.442v-5.233c0-.543 0-1.996-.058-2.442-.097-.581-.213-.717-.523-.97-.31-.232-.582-.232-.795-.27v-.059h3.799c.174 0 .174.04.174.175l-.058 2.965h.039c.368-1.337 1.027-2.093 1.686-2.558.485-.368 1.454-.853 2.5-.853 1.337 0 2.268.388 2.81 1.066.311.368.795 1.202.795 2.442h.039c.387-1.415 1.124-2.21 1.744-2.655.659-.485 1.686-.853 2.481-.853 1.667 0 2.423.523 2.868 1.085.388.446.717 1.26.717 2.81v5.35c0 .853-.038 1.822.117 2.423.155.814.368.93.988 1.201l.427.155v.058h-5.602Zm7.21-12.695c.117 0 .213-.02.272-.078a.277.277 0 0 0 .096-.213v-.02c0-.096-.038-.174-.096-.213-.059-.058-.155-.077-.272-.077h-.465v.581h.465v.02Zm-.814-.911h.834c.232 0 .426.058.562.194a.54.54 0 0 1 .155.387.557.557 0 0 1-.117.368.567.567 0 0 1-.31.194l.504.698h-.426l-.446-.64h-.388v.64h-.348l-.02-1.841Zm.717 2.48c.214 0 .407-.038.601-.116a1.65 1.65 0 0 0 .485-.33c.135-.135.232-.29.31-.484.077-.174.116-.387.116-.581 0-.213-.039-.407-.116-.582a1.613 1.613 0 0 0-.31-.484 1.435 1.435 0 0 0-.485-.33 1.507 1.507 0 0 0-.601-.116c-.213 0-.407.039-.601.116a1.659 1.659 0 0 0-.484.33c-.136.136-.233.29-.31.484a1.474 1.474 0 0 0-.116.582c0 .213.038.407.116.581.077.175.174.35.31.485s.291.252.484.33c.194.077.388.116.601.116Zm0 .233a1.57 1.57 0 0 1-.678-.136 1.793 1.793 0 0 1-.543-.368 1.792 1.792 0 0 1-.368-.542 1.544 1.544 0 0 1-.136-.66c0-.232.039-.465.136-.658.097-.214.213-.388.368-.543.155-.155.349-.29.543-.368.213-.097.446-.136.678-.136.252 0 .465.039.679.136.213.097.387.213.542.368.155.155.272.33.369.543.096.213.135.426.135.659a1.5 1.5 0 0 1-.135.659 1.794 1.794 0 0 1-.369.542 1.69 1.69 0 0 1-.542.368 1.93 1.93 0 0 1-.679.136Z" />
    </g>
    <defs>
        <clipPath id="clip0_185_2951">
            <path fill="#fff" d="M.333.54h116.268v21.126H.333z" />
        </clipPath>
    </defs>
</svg>