<svg fill="none" xmlns="http://www.w3.org/2000/svg" viewBox="0 0 151 22">
    <g clip-path="url(#clip0_184_2937)" fill-rule="evenodd" clip-rule="evenodd" fill="#E8E8E8">
        <path
            d="M33.987 3.567h-4.78v-2.26h12.15v2.26h-4.78v13.246h-2.59V3.567ZM47 7.731c-1.638 0-3.076 1.462-3.076 4.918v4.164H41.51V5.65h2.413v2.127c.598-1.33 2.058-2.304 3.408-2.304.42 0 .907.067 1.24.2l-.134 2.325c-.398-.177-.929-.266-1.438-.266ZM49.833 16.813h2.412V5.65h-2.412v11.164ZM49.48 2.238c0-.886.664-1.573 1.55-1.573.907 0 1.593.687 1.593 1.573 0 .864-.686 1.55-1.594 1.55-.885 0-1.549-.686-1.549-1.55ZM63.378 11.231c0-2.215-1.284-3.655-3.231-3.655-1.948 0-3.231 1.44-3.231 3.655 0 2.193 1.283 3.655 3.23 3.655 1.948 0 3.232-1.462 3.232-3.655Zm-8.72-5.582h2.412v1.418c.62-.909 1.926-1.595 3.475-1.595 3.298 0 5.245 2.392 5.245 5.76 0 3.366-2.036 5.758-5.378 5.758-1.35 0-2.656-.576-3.342-1.462v5.317h-2.412V5.649ZM67.583 16.813h2.412V1.13h-2.412v15.683ZM80.175 9.969c-.155-1.506-1.15-2.592-2.921-2.592-1.527 0-2.612.93-2.966 2.592h5.887Zm2.523 1.838h-8.52c.22 1.928 1.46 3.123 3.23 3.123 1.461 0 2.501-.686 2.79-1.904l2.279.575c-.598 2.15-2.501 3.39-5.112 3.39-3.541 0-5.555-2.747-5.555-5.76 0-3.012 1.903-5.759 5.444-5.759 3.585 0 5.488 2.614 5.488 5.339 0 .332-.022.797-.044.996ZM88.342 1.308h2.678l3.275 12.449 3.342-12.45h2.855l3.32 12.45 3.297-12.45h2.678l-4.559 15.506h-2.744L99.075 4.985l-3.43 11.828h-2.7L88.342 1.308ZM111.116 1.13h2.412v6.447c.775-1.396 2.08-2.105 3.651-2.105 2.523 0 4.184 1.573 4.184 4.01v7.331h-2.413v-6.778c0-1.484-.929-2.392-2.434-2.392-1.859 0-2.988 1.617-2.988 4.342v4.828h-2.412V1.131ZM130.414 12.007v-.465l-2.124.243c-1.815.2-2.745.864-2.745 1.839 0 .886.731 1.506 1.86 1.506 1.881 0 2.987-1.307 3.009-3.123Zm2.369-2.15v6.956h-2.369v-1.705c-.642 1.13-2.014 1.882-3.496 1.882-2.213 0-3.74-1.395-3.74-3.3 0-2.193 1.704-3.367 5.134-3.721l2.102-.222v-.155c0-1.373-.951-2.215-2.412-2.215-1.35 0-2.301.797-2.457 2.127l-2.168-.399c.354-2.193 2.257-3.633 4.625-3.633 2.833 0 4.781 1.595 4.781 4.386ZM135.173 16.813h2.412V1.13h-2.412v15.683ZM147.765 9.969c-.155-1.506-1.151-2.592-2.921-2.592-1.527 0-2.611.93-2.965 2.592h5.886Zm2.523 1.838h-8.52c.221 1.928 1.461 3.123 3.231 3.123 1.461 0 2.501-.686 2.788-1.904l2.28.575c-.598 2.15-2.501 3.39-5.112 3.39-3.541 0-5.555-2.747-5.555-5.76 0-3.012 1.903-5.759 5.444-5.759 3.585 0 5.488 2.614 5.488 5.339 0 .332-.022.797-.044.996ZM18.49 1.132c-2.221 0-3.959.641-5.333 1.658 1.354 1.16 2.367 2.418 3.06 5.051 1.914-.355 5.791-1.306 7.45-6.71H18.49ZM14.761 7.464c-1.254-3.557-4.359-6.136-8.49-6.316-.07-.01-5.604-.016-5.604-.016 1.856 6.254 8.192 6.723 8.192 6.723v9.996h7.548s-.402-6.86-1.646-10.387Z" />
    </g>
    <defs>
        <clipPath id="clip0_184_2937">
            <path fill="#fff" d="M.667.665h150v21h-150z" />
        </clipPath>
    </defs>
</svg>