<svg width="16" height="17" viewBox="0 0 16 17" fill="none" xmlns="http://www.w3.org/2000/svg">
    <g clip-path="url(#clip0_824_42714)">
        <path
            d="M7.33301 5.17074H8.66634V6.50407H7.33301V5.17074ZM7.33301 7.8374H8.66634V11.8374H7.33301V7.8374ZM7.99967 1.8374C4.31967 1.8374 1.33301 4.82407 1.33301 8.50407C1.33301 12.1841 4.31967 15.1707 7.99967 15.1707C11.6797 15.1707 14.6663 12.1841 14.6663 8.50407C14.6663 4.82407 11.6797 1.8374 7.99967 1.8374ZM7.99967 13.8374C5.05967 13.8374 2.66634 11.4441 2.66634 8.50407C2.66634 5.56407 5.05967 3.17074 7.99967 3.17074C10.9397 3.17074 13.333 5.56407 13.333 8.50407C13.333 11.4441 10.9397 13.8374 7.99967 13.8374Z"
            fill="#141415" />
    </g>
    <defs>
        <clipPath id="clip0_824_42714">
            <rect width="16" height="16" fill="white" transform="translate(0 0.50415)" />
        </clipPath>
    </defs>
</svg>