<svg fill="none" xmlns="http://www.w3.org/2000/svg" viewBox="0 0 97 97">
    <rect x=".499" y=".508" width="96.002" height="96.002" rx="14.77" fill="#D0D0D0" fill-opacity=".1" />
    <path fill-rule="evenodd" clip-rule="evenodd"
        d="M84.126 49.156C83.78 68.536 67.963 84.14 48.5 84.14c-19.463 0-35.281-15.605-35.626-34.985h71.252Zm0-1.293H12.874c.345-19.38 16.163-34.985 35.626-34.985 19.463 0 35.281 15.605 35.626 34.985Zm1.292 0C85.073 27.77 68.677 11.586 48.5 11.586S11.926 27.769 11.582 47.863h-.006V49.156h.006C11.926 69.25 28.323 85.433 48.5 85.433S85.073 69.25 85.418 49.156h.006V47.863h-.006Z"
        fill="#fff" />
    <path
        d="m84.126 49.156.23.004.005-.235h-.235v.23Zm-71.252 0v-.231h-.235l.004.235.231-.004Zm0-1.293-.23-.004-.005.235h.235v-.23Zm71.252 0v.231h.235l-.005-.235-.23.004Zm1.292 0-.23.004.004.227h.226v-.23Zm-73.836 0v.231h.226l.004-.227-.23-.004Zm-.006 0v-.23h-.23v.23h.23Zm0 1.293h-.23v.23h.23v-.23Zm.006 0 .23-.004-.004-.227h-.226v.23Zm73.836 0v-.231h-.227l-.003.227.23.004Zm.006 0v.23h.23v-.23h-.23Zm0-1.293h.23v-.23h-.23v.23ZM48.5 84.372c19.589 0 35.51-15.706 35.856-35.212l-.461-.008C83.553 68.406 67.837 83.91 48.5 83.91v.462ZM12.643 49.16C12.99 68.666 28.911 84.372 48.5 84.372v-.462c-19.337 0-35.053-15.504-35.395-34.758l-.462.008Zm71.483-.235H12.874v.461h71.252v-.461Zm-71.252-.831h71.252v-.462H12.874v.462ZM48.5 12.647c-19.589 0-35.51 15.706-35.857 35.212l.462.008C13.447 28.612 29.163 13.11 48.5 13.11v-.462ZM84.356 47.86C84.01 28.353 68.09 12.647 48.5 12.647v.462c19.337 0 35.053 15.503 35.395 34.758l.462-.008Zm1.293 0C85.302 27.64 68.803 11.355 48.5 11.355v.461c20.05 0 36.345 16.082 36.688 36.051l.461-.008ZM48.5 11.355c-20.303 0-36.802 16.284-37.15 36.504l.462.008C12.155 27.9 28.45 11.817 48.5 11.817v-.462ZM11.576 48.094h.006v-.462h-.006v.462Zm.23.416v-.647h-.46v.647h.46Zm0 .646v-.646h-.46v.646h.46Zm-.224-.231h-.006v.461h.006v-.461Zm-.231.235c.347 20.22 16.846 36.504 37.149 36.504v-.461c-20.05 0-36.345-16.083-36.688-36.051l-.461.008ZM48.5 85.663c20.303 0 36.802-16.284 37.15-36.505l-.462-.007C84.845 69.12 68.55 85.202 48.5 85.202v.462Zm36.924-36.74h-.006v.462h.006v-.461Zm-.23-.414v.646h.46v-.646h-.46Zm0-.647v.647h.46v-.647h-.46Zm.224.231h.006v-.462h-.006v.462ZM37.273 39.125h1.848l-3.114-8.53h-2.133l-3.114 8.53h1.822l.698-2.081h3.295l.698 2.08Zm-3.541-3.4.814-2.429.362-1.266h.026l.388 1.292.814 2.404h-2.404Zm8.18-5.13h-1.784v8.53h1.783v-8.53Zm9.26 6.178-1.642-.492c-.271 1.021-.943 1.513-1.964 1.513-1.434 0-2.275-1.047-2.275-2.934 0-1.9.892-2.934 2.314-2.934.982 0 1.55.4 1.835 1.435l1.615-.685c-.478-1.486-1.783-2.21-3.528-2.21-2.494 0-4.084 1.654-4.084 4.394s1.577 4.394 4.11 4.394c1.732 0 3.102-.814 3.619-2.481Zm4.84-6.178h-3.579v8.53h1.784v-3.102h1.796c1.977 0 3.14-.995 3.14-2.688 0-1.745-1.163-2.74-3.14-2.74Zm-.27 4.045h-1.525v-2.623h1.525c1.111 0 1.602.44 1.602 1.305 0 .866-.491 1.318-1.602 1.318Zm9.575 4.485h1.848l-3.115-8.53h-2.132l-3.115 8.53h1.823l.697-2.081h3.296l.698 2.08Zm-3.541-3.4.814-2.429.362-1.266h.026l.387 1.292.814 2.404h-2.403Z"
        fill="#fff" />
    <path
        d="M34.56 58.235c-2.21 0-3.49 1.176-3.49 2.688 0 1.422.904 2.146 3.282 2.624 1.409.284 1.861.556 1.861 1.02 0 .647-.594.996-1.693.996-1.15 0-1.964-.284-2.636-1.396l-1.06 1.267c.724 1.034 1.822 1.59 3.76 1.59 2.043 0 3.503-.957 3.503-2.56 0-1.421-.866-2.132-3.166-2.558-1.5-.272-1.964-.582-1.964-1.15 0-.608.542-1.06 1.615-1.06 1.15 0 1.861.465 2.3 1.383l1.228-1.202c-.866-1.138-1.951-1.642-3.54-1.642Zm8.613 0c-2.532 0-4.11 1.655-4.11 4.394 0 2.74 1.578 4.394 4.11 4.394 2.533 0 4.097-1.654 4.097-4.394s-1.564-4.394-4.097-4.394Zm0 1.46c1.422 0 2.25 1.035 2.25 2.934 0 1.9-.828 2.934-2.25 2.934-1.434 0-2.261-1.034-2.261-2.934 0-1.9.827-2.933 2.261-2.933Zm12.94 4.847-1.642-.491c-.271 1.02-.943 1.512-1.964 1.512-1.435 0-2.275-1.047-2.275-2.934 0-1.9.892-2.933 2.314-2.933.982 0 1.55.4 1.835 1.434l1.615-.685c-.478-1.486-1.783-2.21-3.528-2.21-2.494 0-4.084 1.655-4.084 4.394 0 2.74 1.577 4.394 4.11 4.394 1.732 0 3.102-.814 3.618-2.48Zm4.681 2.352h6.152V65.46h-2.352c-.44 0-1.19.026-1.564.051v-.013c2.585-1.59 3.787-2.907 3.787-4.549 0-1.421-1.008-2.714-3.076-2.714-1.848 0-3.102 1.021-3.218 2.766l1.538.582c.052-1.202.62-1.887 1.577-1.887.878 0 1.382.568 1.382 1.357 0 1.305-1.124 2.559-4.226 4.626v1.215Z"
        fill="#fff" />
    <rect x="12.038" y="12.047" width="72.925" height="72.925" rx="36.462" stroke="#fff" stroke-width=".923" />
    <rect x=".96" y=".97" width="95.079" height="95.079" rx="14.308" stroke="#E8E8E8" stroke-opacity=".1"
        stroke-width=".923" />
</svg>