<svg fill="none" xmlns="http://www.w3.org/2000/svg" viewBox="0 0 97 97">
    <rect x=".499" y=".508" width="96.003" height="96.002" rx="14.77" fill="#D0D0D0" fill-opacity=".1" />
    <path
        d="M35.437 48.538v1.318h2.494v.194c0 1.137-.892 1.693-2.042 1.693-1.577 0-2.39-1.022-2.39-2.96 0-1.9.89-2.934 2.351-2.934.944 0 1.667.44 1.939 1.344l1.641-.71c-.672-1.448-1.783-2.094-3.632-2.094-2.532 0-4.148 1.667-4.148 4.407 0 2.779 1.616 4.381 3.955 4.381 1.202 0 2.029-.426 2.52-1.15l.038 1.02h1.306v-4.51h-4.032Zm9.016-4.02h-3.296v8.53h3.296c2.675 0 4.2-1.538 4.2-4.265 0-2.727-1.525-4.265-4.2-4.265Zm-.09 7.108H42.94V45.94h1.421c1.629 0 2.443 1.008 2.443 2.843s-.814 2.843-2.443 2.843Zm9.404-7.108h-3.58v8.53h1.784v-3.102h1.796c1.977 0 3.14-.995 3.14-2.688 0-1.745-1.162-2.74-3.14-2.74Zm-.271 4.045H51.97V45.94h1.525c1.111 0 1.602.44 1.602 1.305 0 .866-.49 1.318-1.602 1.318Zm10.151 4.485h2.003l-2.249-3.464c1.112-.349 1.745-1.202 1.745-2.43 0-1.68-1.163-2.636-3.102-2.636h-3.76v8.53h1.757v-3.27h1.603l2.003 3.27Zm-3.606-7.108h1.77c1.035 0 1.513.388 1.513 1.24 0 .853-.478 1.241-1.512 1.241h-1.77V45.94ZM48.06 12.937a.462.462 0 0 1 .877 0l.69 2.121c.062.19.239.32.439.32h2.23c.448 0 .634.571.272.834l-1.805 1.311a.461.461 0 0 0-.168.516l.69 2.122a.462.462 0 0 1-.71.516l-1.805-1.311a.462.462 0 0 0-.543 0l-1.805 1.311a.462.462 0 0 1-.71-.516l.69-2.122a.461.461 0 0 0-.168-.516l-1.805-1.31a.462.462 0 0 1 .271-.836h2.231c.2 0 .377-.129.44-.319l.688-2.121ZM48.06 75.81a.462.462 0 0 1 .877 0l.69 2.121c.062.19.239.32.439.32h2.23c.448 0 .634.572.272.834l-1.805 1.312a.461.461 0 0 0-.168.516l.69 2.121a.462.462 0 0 1-.71.516l-1.805-1.31a.462.462 0 0 0-.543 0l-1.805 1.31a.462.462 0 0 1-.71-.516l.69-2.121a.461.461 0 0 0-.168-.516l-1.805-1.312a.462.462 0 0 1 .271-.835h2.231c.2 0 .377-.128.44-.319l.688-2.121ZM79.498 44.373a.462.462 0 0 1 .878 0l.69 2.122c.061.19.239.319.438.319h2.231c.447 0 .633.572.272.835l-1.805 1.311a.462.462 0 0 0-.168.516l.69 2.122a.462.462 0 0 1-.71.516l-1.805-1.311a.462.462 0 0 0-.543 0l-1.805 1.31a.462.462 0 0 1-.71-.515l.69-2.122a.461.461 0 0 0-.168-.516l-1.805-1.311a.462.462 0 0 1 .271-.835h2.23c.2 0 .378-.129.44-.32l.69-2.12ZM16.624 44.373a.462.462 0 0 1 .878 0l.69 2.122c.061.19.238.319.438.319h2.231c.447 0 .633.572.271.835l-1.805 1.311a.462.462 0 0 0-.167.516l.69 2.122a.462.462 0 0 1-.711.516l-1.805-1.311a.462.462 0 0 0-.542 0l-1.805 1.31a.462.462 0 0 1-.71-.515l.689-2.122a.462.462 0 0 0-.168-.516l-1.805-1.311a.461.461 0 0 1 .272-.835h2.23c.2 0 .378-.129.44-.32l.689-2.12ZM63.78 17.148a.462.462 0 0 1 .878 0l.69 2.122c.061.19.239.319.439.319h2.23c.448 0 .634.572.272.835l-1.805 1.311a.462.462 0 0 0-.168.516l.69 2.122a.462.462 0 0 1-.71.516l-1.805-1.311a.462.462 0 0 0-.543 0l-1.805 1.31a.462.462 0 0 1-.71-.515l.69-2.122a.462.462 0 0 0-.168-.516l-1.805-1.311a.462.462 0 0 1 .271-.835h2.231c.2 0 .377-.129.44-.319l.688-2.122ZM32.345 71.598a.462.462 0 0 1 .878 0l.69 2.122c.061.19.238.319.438.319h2.231c.447 0 .633.572.271.835l-1.805 1.311a.461.461 0 0 0-.167.516l.69 2.122a.462.462 0 0 1-.711.516l-1.805-1.312a.462.462 0 0 0-.542 0l-1.805 1.312a.462.462 0 0 1-.71-.516l.689-2.122a.461.461 0 0 0-.168-.516l-1.805-1.311a.462.462 0 0 1 .272-.835h2.23c.2 0 .378-.129.44-.32l.689-2.12ZM75.284 60.092a.462.462 0 0 1 .878 0l.69 2.121c.061.19.239.32.438.32h2.231c.448 0 .633.571.272.834l-1.805 1.311a.462.462 0 0 0-.168.516l.69 2.122a.462.462 0 0 1-.71.516l-1.805-1.311a.461.461 0 0 0-.543 0l-1.805 1.311a.462.462 0 0 1-.71-.516l.69-2.122a.461.461 0 0 0-.168-.516l-1.805-1.31a.462.462 0 0 1 .271-.836h2.23c.2 0 .378-.129.44-.319l.69-2.121ZM20.835 28.655a.462.462 0 0 1 .878 0l.689 2.121c.062.19.239.32.439.32h2.23c.448 0 .634.572.272.834l-1.805 1.312a.462.462 0 0 0-.167.516l.689 2.121a.462.462 0 0 1-.71.516l-1.805-1.311a.462.462 0 0 0-.543 0l-1.804 1.311a.462.462 0 0 1-.71-.516l.689-2.121a.462.462 0 0 0-.168-.516l-1.805-1.312a.462.462 0 0 1 .271-.835h2.231c.2 0 .378-.128.44-.319l.689-2.121ZM33.219 17.148a.462.462 0 0 0-.878 0l-.69 2.122a.462.462 0 0 1-.438.319h-2.231a.462.462 0 0 0-.271.835l1.804 1.311c.162.118.23.326.168.516l-.69 2.122a.462.462 0 0 0 .71.516l1.806-1.311a.462.462 0 0 1 .542 0l1.805 1.31a.462.462 0 0 0 .71-.515l-.689-2.122a.462.462 0 0 1 .168-.516l1.804-1.311a.462.462 0 0 0-.27-.835h-2.232a.462.462 0 0 1-.439-.319l-.689-2.122ZM64.654 71.598a.462.462 0 0 0-.877 0l-.69 2.122a.462.462 0 0 1-.439.319h-2.23a.462.462 0 0 0-.272.835l1.805 1.311c.162.117.23.326.168.516l-.69 2.122a.462.462 0 0 0 .71.516l1.805-1.312a.462.462 0 0 1 .543 0l1.805 1.312a.462.462 0 0 0 .71-.516l-.69-2.122a.461.461 0 0 1 .168-.516l1.805-1.311a.462.462 0 0 0-.271-.835h-2.231a.462.462 0 0 1-.44-.32l-.689-2.12ZM21.712 60.092a.462.462 0 0 0-.878 0l-.69 2.121a.462.462 0 0 1-.438.32h-2.231a.461.461 0 0 0-.272.834l1.805 1.311c.162.118.23.326.168.516l-.69 2.122a.462.462 0 0 0 .71.516l1.806-1.311a.461.461 0 0 1 .542 0l1.805 1.311a.462.462 0 0 0 .71-.516l-.69-2.122a.461.461 0 0 1 .169-.516l1.804-1.31a.462.462 0 0 0-.27-.836H22.84a.462.462 0 0 1-.439-.319l-.69-2.121ZM76.165 28.655a.462.462 0 0 0-.878 0l-.69 2.121a.462.462 0 0 1-.438.32h-2.231a.462.462 0 0 0-.272.834l1.805 1.312c.162.117.23.325.168.516l-.69 2.121a.462.462 0 0 0 .71.516l1.805-1.311a.462.462 0 0 1 .543 0l1.805 1.311a.462.462 0 0 0 .71-.516l-.69-2.121a.462.462 0 0 1 .168-.516l1.805-1.312a.462.462 0 0 0-.271-.835h-2.23a.462.462 0 0 1-.44-.319l-.69-2.121Z"
        fill="#fff" />
    <rect x=".96" y=".97" width="95.08" height="95.079" rx="14.308" stroke="#E8E8E8" stroke-opacity=".1"
        stroke-width=".923" />
</svg>