<svg fill="none" xmlns="http://www.w3.org/2000/svg" viewBox="0 0 65 64">
  <path
    d="M13 6.875v10m32-10v10M9 57.125v-2c0-5.523 4.477-10 10-10s10 4.476 10 9.999v2.001m0 0h24a4 4 0 0 0 4-4v-32a4 4 0 0 0-4-4H5a4 4 0 0 0-4 4v32a4 4 0 0 0 4 4h24Zm6-19.25h12m-12 6.75h12m-12-13.75h12m-22.344 1.248c-.252 3.39-2.822 6.156-5.643 6.156-2.822 0-5.397-2.765-5.644-6.156-.256-3.527 2.245-6.157 5.644-6.157 3.398 0 5.9 2.694 5.643 6.157Z"
    stroke="#000" stroke-width="1.4" stroke-linecap="round" stroke-linejoin="round" />
</svg>