<svg width="80" height="80" viewBox="0 0 80 80" fill="none" xmlns="http://www.w3.org/2000/svg">
    <path fill-rule="evenodd" clip-rule="evenodd"
        d="M78.5938 40.7C78.2204 61.6952 61.0844 78.6 40 78.6C18.9156 78.6 1.77959 61.6952 1.40622 40.7H78.5938ZM78.5938 39.3H1.40622C1.77959 18.3048 18.9156 1.4 40 1.4C61.0844 1.4 78.2204 18.3048 78.5938 39.3ZM79.994 39.3C79.6205 17.5315 61.8576 0 40 0C18.1424 0 0.379545 17.5315 0.00600175 39.3H0V40V40.7H0.00600175C0.379545 62.4685 18.1424 80 40 80C61.8576 80 79.6205 62.4685 79.994 40.7H80V40V39.3H79.994Z"
        fill="#E3E3ED" />
    <path
        d="M27.0677 27.746H23.5117L22.7557 30H20.7817L24.1557 20.76H26.4657L29.8397 30H27.8377L27.0677 27.746ZM26.5917 26.318L25.7237 23.714L25.3037 22.314H25.2757L24.8837 23.686L23.9877 26.318H26.5917ZM32.8623 30H30.9303V20.76H32.8623V30ZM42.8943 27.452C42.6236 28.3387 42.1429 29.0107 41.4523 29.468C40.7616 29.916 39.9356 30.14 38.9743 30.14C38.0689 30.14 37.2803 29.9487 36.6083 29.566C35.9363 29.1833 35.4183 28.6373 35.0543 27.928C34.6996 27.2093 34.5223 26.36 34.5223 25.38C34.5223 24.4 34.6996 23.5553 35.0543 22.846C35.4183 22.1273 35.9316 21.5767 36.5943 21.194C37.2663 20.8113 38.0503 20.62 38.9463 20.62C39.9076 20.62 40.7196 20.8207 41.3823 21.222C42.0543 21.6233 42.5163 22.2207 42.7683 23.014L41.0183 23.756C40.8689 23.2053 40.6356 22.8087 40.3183 22.566C40.0009 22.3233 39.5716 22.202 39.0303 22.202C38.2463 22.202 37.6303 22.4773 37.1823 23.028C36.7436 23.5787 36.5243 24.3627 36.5243 25.38C36.5243 26.3973 36.7389 27.1813 37.1683 27.732C37.5976 28.2827 38.2043 28.558 38.9883 28.558C40.1176 28.558 40.8269 28.012 41.1163 26.92L42.8943 27.452ZM48.1389 20.76C49.2122 20.76 50.0476 21.0213 50.6449 21.544C51.2422 22.0573 51.5409 22.7853 51.5409 23.728C51.5409 24.6427 51.2422 25.3567 50.6449 25.87C50.0476 26.3833 49.2122 26.64 48.1389 26.64H46.1929V30H44.2609V20.76H48.1389ZM47.8449 25.142C48.4422 25.142 48.8809 25.0253 49.1609 24.792C49.4409 24.5493 49.5809 24.19 49.5809 23.714C49.5809 23.238 49.4409 22.8833 49.1609 22.65C48.8809 22.4167 48.4422 22.3 47.8449 22.3H46.1929V25.142H47.8449ZM57.4477 27.746H53.8917L53.1357 30H51.1617L54.5357 20.76H56.8457L60.2197 30H58.2177L57.4477 27.746ZM56.9717 26.318L56.1037 23.714L55.6837 22.314H55.6557L55.2637 23.686L54.3677 26.318H56.9717Z"
        fill="#0D102B" />
    <path
        d="M24.8978 50.62C25.7564 50.62 26.4938 50.7647 27.1098 51.054C27.7258 51.334 28.2671 51.782 28.7338 52.398L27.4038 53.7C27.1611 53.196 26.8391 52.8227 26.4378 52.58C26.0364 52.328 25.5278 52.202 24.9118 52.202C24.3518 52.202 23.9178 52.3093 23.6098 52.524C23.3111 52.7293 23.1618 53.0047 23.1618 53.35C23.1618 53.6673 23.3158 53.9193 23.6238 54.106C23.9318 54.2927 24.4871 54.456 25.2898 54.596C26.1298 54.7547 26.7971 54.9507 27.2918 55.184C27.7864 55.4173 28.1458 55.7113 28.3698 56.066C28.6031 56.4113 28.7198 56.8453 28.7198 57.368C28.7198 57.9373 28.5564 58.432 28.2298 58.852C27.9124 59.2627 27.4644 59.58 26.8858 59.804C26.3164 60.028 25.6631 60.14 24.9258 60.14C23.9084 60.14 23.0731 60 22.4198 59.72C21.7758 59.4307 21.2531 58.9967 20.8518 58.418L21.9998 57.046C22.3451 57.6153 22.7418 58.012 23.1898 58.236C23.6378 58.4507 24.1931 58.558 24.8558 58.558C25.4531 58.558 25.9058 58.4647 26.2138 58.278C26.5311 58.0913 26.6898 57.8253 26.6898 57.48C26.6898 57.228 26.5404 57.018 26.2418 56.85C25.9524 56.682 25.4298 56.5233 24.6738 56.374C23.8058 56.1967 23.1104 55.9867 22.5878 55.744C22.0744 55.5013 21.7011 55.2027 21.4678 54.848C21.2344 54.4933 21.1178 54.0547 21.1178 53.532C21.1178 52.9813 21.2671 52.4867 21.5658 52.048C21.8644 51.6 22.2984 51.25 22.8678 50.998C23.4464 50.746 24.1231 50.62 24.8978 50.62ZM34.2299 50.62C35.1352 50.62 35.9192 50.8113 36.5819 51.194C37.2539 51.5767 37.7672 52.1273 38.1219 52.846C38.4859 53.5553 38.6679 54.4 38.6679 55.38C38.6679 56.36 38.4859 57.2093 38.1219 57.928C37.7672 58.6373 37.2539 59.1833 36.5819 59.566C35.9192 59.9487 35.1352 60.14 34.2299 60.14C33.3245 60.14 32.5359 59.9487 31.8639 59.566C31.1919 59.1833 30.6739 58.6373 30.3099 57.928C29.9552 57.2093 29.7779 56.36 29.7779 55.38C29.7779 54.4 29.9552 53.5553 30.3099 52.846C30.6739 52.1273 31.1919 51.5767 31.8639 51.194C32.5359 50.8113 33.3245 50.62 34.2299 50.62ZM34.2299 52.202C33.4459 52.202 32.8392 52.4773 32.4099 53.028C31.9899 53.5693 31.7799 54.3533 31.7799 55.38C31.7799 56.4067 31.9899 57.1953 32.4099 57.746C32.8392 58.2873 33.4459 58.558 34.2299 58.558C35.0045 58.558 35.6019 58.2873 36.0219 57.746C36.4512 57.1953 36.6659 56.4067 36.6659 55.38C36.6659 54.3533 36.4512 53.5693 36.0219 53.028C35.6019 52.4773 35.0045 52.202 34.2299 52.202ZM48.2468 57.452C47.9761 58.3387 47.4955 59.0107 46.8048 59.468C46.1141 59.916 45.2881 60.14 44.3268 60.14C43.4215 60.14 42.6328 59.9487 41.9608 59.566C41.2888 59.1833 40.7708 58.6373 40.4068 57.928C40.0521 57.2093 39.8748 56.36 39.8748 55.38C39.8748 54.4 40.0521 53.5553 40.4068 52.846C40.7708 52.1273 41.2841 51.5767 41.9468 51.194C42.6188 50.8113 43.4028 50.62 44.2988 50.62C45.2601 50.62 46.0721 50.8207 46.7348 51.222C47.4068 51.6233 47.8688 52.2207 48.1208 53.014L46.3708 53.756C46.2215 53.2053 45.9881 52.8087 45.6708 52.566C45.3535 52.3233 44.9241 52.202 44.3828 52.202C43.5988 52.202 42.9828 52.4773 42.5348 53.028C42.0961 53.5787 41.8768 54.3627 41.8768 55.38C41.8768 56.3973 42.0915 57.1813 42.5208 57.732C42.9501 58.2827 43.5568 58.558 44.3408 58.558C45.4701 58.558 46.1795 58.012 46.4688 56.92L48.2468 57.452ZM53.3188 58.684C54.4481 57.928 55.3441 57.2653 56.0068 56.696C56.6694 56.1267 57.1501 55.5993 57.4488 55.114C57.7474 54.6287 57.8968 54.148 57.8968 53.672C57.8968 53.2333 57.7614 52.8787 57.4908 52.608C57.2294 52.3373 56.8654 52.202 56.3988 52.202C55.8854 52.202 55.4794 52.3793 55.1808 52.734C54.8821 53.0887 54.7188 53.5927 54.6908 54.246L53.0248 53.616C53.0901 52.6827 53.4354 51.95 54.0608 51.418C54.6861 50.886 55.5028 50.62 56.5108 50.62C57.2294 50.62 57.8361 50.7553 58.3308 51.026C58.8348 51.2967 59.2128 51.656 59.4648 52.104C59.7168 52.5427 59.8428 53.028 59.8428 53.56C59.8428 54.428 59.5161 55.2493 58.8628 56.024C58.2094 56.7893 57.1688 57.6107 55.7408 58.488V58.502C56.2821 58.4647 56.8468 58.446 57.4348 58.446H59.9828V60H53.3188V58.684Z"
        fill="#0D102B" />
    <rect x="0.5" y="0.5" width="79" height="79" rx="39.5" stroke="#E3E3ED" />
</svg>