<svg width="80" height="80" xmlns="http://www.w3.org/2000/svg" fill="none">
    <path fill="#E3E3ED"
        d="M39.523 1.464a.5.5 0 01.952 0l.746 2.298a.5.5 0 00.476.345h2.417a.5.5 0 01.293.905l-1.955 1.42a.5.5 0 00-.181.56l.746 2.298a.5.5 0 01-.769.559l-1.955-1.42a.5.5 0 00-.588 0l-1.955 1.42a.5.5 0 01-.77-.56l.747-2.298a.5.5 0 00-.181-.559l-1.955-1.42a.5.5 0 01.294-.905H38.3a.5.5 0 00.476-.345l.746-2.298zM39.523 69.575a.5.5 0 01.952 0l.746 2.298a.5.5 0 00.476.346h2.417a.5.5 0 01.293.904l-1.955 1.42a.5.5 0 00-.181.56l.746 2.298a.5.5 0 01-.769.56l-1.955-1.421a.5.5 0 00-.588 0l-1.955 1.42a.5.5 0 01-.77-.559l.747-2.298a.5.5 0 00-.181-.56l-1.955-1.42a.5.5 0 01.294-.904H38.3a.5.5 0 00.476-.346l.746-2.298zM73.582 35.52a.5.5 0 01.951 0l.747 2.298a.5.5 0 00.475.345h2.417a.5.5 0 01.294.905l-1.955 1.42a.5.5 0 00-.182.56l.747 2.297a.5.5 0 01-.77.56l-1.955-1.421a.5.5 0 00-.587 0l-1.955 1.42a.5.5 0 01-.77-.559l.747-2.298a.5.5 0 00-.182-.559l-1.955-1.42a.5.5 0 01.294-.905h2.417a.5.5 0 00.475-.345l.747-2.299zM5.469 35.52a.5.5 0 01.95 0l.748 2.298a.5.5 0 00.475.345h2.417a.5.5 0 01.294.905l-1.955 1.42a.5.5 0 00-.182.56l.747 2.297a.5.5 0 01-.77.56l-1.955-1.421a.5.5 0 00-.588 0l-1.955 1.42a.5.5 0 01-.77-.559l.748-2.298a.5.5 0 00-.182-.559l-1.955-1.42a.5.5 0 01.294-.905h2.416a.5.5 0 00.476-.345l.747-2.299zM56.555 6.026a.5.5 0 01.95 0l.748 2.299a.5.5 0 00.475.345h2.417a.5.5 0 01.294.905l-1.955 1.42a.5.5 0 00-.182.56l.747 2.298a.5.5 0 01-.77.559l-1.955-1.42a.5.5 0 00-.588 0l-1.955 1.42a.5.5 0 01-.77-.56l.748-2.298a.5.5 0 00-.182-.559l-1.955-1.42a.5.5 0 01.294-.905h2.416a.5.5 0 00.476-.345l.747-2.299zM22.5 65.012a.5.5 0 01.951 0l.747 2.299a.5.5 0 00.476.345h2.416a.5.5 0 01.294.905l-1.955 1.42a.5.5 0 00-.182.56l.747 2.298a.5.5 0 01-.77.559l-1.955-1.42a.5.5 0 00-.587 0l-1.955 1.42a.5.5 0 01-.77-.56l.747-2.298a.5.5 0 00-.182-.559l-1.955-1.42a.5.5 0 01.294-.905h2.417a.5.5 0 00.475-.345l.747-2.299zM69.016 52.547a.5.5 0 01.95 0l.748 2.298a.5.5 0 00.475.346h2.417a.5.5 0 01.294.904l-1.956 1.42a.5.5 0 00-.181.56l.747 2.298a.5.5 0 01-.77.56l-1.955-1.421a.5.5 0 00-.588 0l-1.955 1.42a.5.5 0 01-.77-.559l.748-2.298a.5.5 0 00-.182-.56l-1.955-1.42a.5.5 0 01.294-.904h2.416a.5.5 0 00.476-.346l.747-2.298zM10.031 18.491a.5.5 0 01.951 0l.747 2.299a.5.5 0 00.476.345h2.416a.5.5 0 01.294.905l-1.955 1.42a.5.5 0 00-.181.56l.746 2.298a.5.5 0 01-.77.559l-1.954-1.42a.5.5 0 00-.588 0l-1.955 1.42a.5.5 0 01-.77-.56l.747-2.298a.5.5 0 00-.181-.559l-1.956-1.42a.5.5 0 01.294-.905H8.81a.5.5 0 00.476-.345l.746-2.299zM23.445 6.026a.5.5 0 00-.95 0l-.748 2.299a.5.5 0 01-.475.345h-2.417a.5.5 0 00-.294.905l1.955 1.42a.5.5 0 01.182.56l-.747 2.298a.5.5 0 00.77.559l1.955-1.42a.5.5 0 01.588 0l1.955 1.42a.5.5 0 00.77-.56l-.748-2.298a.5.5 0 01.182-.559l1.955-1.42a.5.5 0 00-.294-.905h-2.416a.5.5 0 01-.476-.345l-.747-2.299zM57.5 65.012a.5.5 0 00-.951 0l-.747 2.299a.5.5 0 01-.476.345H52.91a.5.5 0 00-.294.905l1.955 1.42a.5.5 0 01.182.56l-.747 2.298a.5.5 0 00.77.559l1.954-1.42a.5.5 0 01.588 0l1.955 1.42a.5.5 0 00.77-.56l-.747-2.298a.5.5 0 01.182-.559l1.955-1.42a.5.5 0 00-.294-.905h-2.417a.5.5 0 01-.475-.345l-.747-2.299zM10.98 52.547a.5.5 0 00-.95 0l-.747 2.298a.5.5 0 01-.476.346H6.39a.5.5 0 00-.294.904l1.956 1.42a.5.5 0 01.181.56l-.747 2.298a.5.5 0 00.77.56l1.955-1.421a.5.5 0 01.588 0l1.955 1.42a.5.5 0 00.77-.559l-.748-2.298a.5.5 0 01.182-.56l1.955-1.42a.5.5 0 00-.294-.904h-2.416a.5.5 0 01-.476-.346l-.747-2.298zM69.969 18.491a.5.5 0 00-.951 0l-.747 2.299a.5.5 0 01-.476.345H65.38a.5.5 0 00-.294.905l1.955 1.42a.5.5 0 01.182.56l-.747 2.298a.5.5 0 00.77.559l1.954-1.42a.5.5 0 01.588 0l1.955 1.42a.5.5 0 00.77-.56l-.747-2.298a.5.5 0 01.182-.559l1.955-1.42a.5.5 0 00-.294-.905H71.19a.5.5 0 01-.475-.345l-.747-2.299z" />
    <path fill="#0D102B"
        d="M30.054 39.734v4.886H28.64l-.042-1.106c-.56.83-1.47 1.246-2.73 1.246-.85 0-1.596-.187-2.24-.56-.644-.373-1.148-.915-1.512-1.624-.355-.719-.532-1.573-.532-2.562 0-.98.182-1.83.546-2.548a3.944 3.944 0 011.568-1.652c.681-.383 1.474-.574 2.38-.574.998 0 1.81.182 2.436.546.634.364 1.134.938 1.498 1.722l-1.778.77c-.14-.476-.397-.835-.77-1.078-.364-.252-.808-.378-1.33-.378-.803 0-1.428.275-1.876.826-.448.55-.672 1.335-.672 2.352 0 1.055.22 1.853.658 2.394.438.541 1.082.812 1.932.812.653 0 1.185-.154 1.596-.462.41-.317.616-.775.616-1.372v-.21h-2.702v-1.428h4.368zm5.399-4.354c1.447 0 2.567.401 3.36 1.204.793.803 1.19 1.941 1.19 3.416 0 1.475-.397 2.613-1.19 3.416-.793.803-1.913 1.204-3.36 1.204h-3.57v-9.24h3.57zm-.098 7.7c.877 0 1.535-.261 1.974-.784.448-.532.672-1.297.672-2.296 0-.999-.224-1.76-.672-2.282-.439-.532-1.097-.798-1.974-.798h-1.54v6.16h1.54zm10.188-7.7c1.074 0 1.91.261 2.506.784.598.513.896 1.241.896 2.184 0 .915-.298 1.629-.896 2.142-.597.513-1.432.77-2.506.77h-1.946v3.36h-1.932v-9.24h3.878zm-.294 4.382c.598 0 1.036-.117 1.316-.35.28-.243.42-.602.42-1.078 0-.476-.14-.83-.42-1.064-.28-.233-.718-.35-1.316-.35h-1.652v2.842h1.652zm8.827 1.316H52.34v3.542h-1.904v-9.24h4.074c1.055 0 1.876.252 2.464.756.598.495.896 1.195.896 2.1 0 .663-.163 1.218-.49 1.666-.326.448-.793.77-1.4.966l2.436 3.752h-2.17l-2.17-3.542zm-1.736-1.47h1.918c.56 0 .97-.107 1.232-.322.27-.224.406-.565.406-1.022 0-.457-.135-.793-.406-1.008-.261-.224-.672-.336-1.232-.336H52.34v2.688z" />
</svg>