<svg width="30" height="38" viewBox="0 0 38 41" fill="none" xmlns="http://www.w3.org/2000/svg">
    <path fill-rule="evenodd" clip-rule="evenodd"
        d="M19 10c8.731 0 15.829 6.994 15.997 15.685L35 26a6 6 0 01-11.996.225L23 26a4 4 0 00-7.995-.2L15 26c0 6.456 4.627 11.657 10.727 12.788a1 1 0 11-.365 1.966C18.342 39.453 13 33.45 13 26a6 6 0 0111.996-.225L25 26a4 4 0 007.995.2L33 26c0-7.732-6.268-14-14-14-7.628 0-13.83 6.1-13.997 13.687L5 26c0 1.49.232 2.946.683 4.332a1 1 0 11-1.902.618A15.987 15.987 0 013 26c0-8.837 7.163-16 16-16zM9.919 21.688a1 1 0 01.604 1.279 8.963 8.963 0 00-.515 2.64L10 26c0 5.084 2.137 9.588 5.816 12.766a1 1 0 11-1.307 1.513c-4.009-3.462-6.388-8.352-6.505-13.854L8 25.999l.009-.424c.043-1.13.257-2.234.632-3.282a1 1 0 011.279-.605zM19.051 25a1 1 0 011 1c0 6.403 6.78 10.723 12.445 8.362a1 1 0 11.77 1.846C26.303 39.11 18.05 33.852 18.05 26a1 1 0 011-1zM19 15c6.075 0 11 4.925 11 11a1 1 0 11-2 0 9 9 0 00-9-9 8.973 8.973 0 00-6.692 2.982 1 1 0 01-1.487-1.338A10.973 10.973 0 0119 15zm10.144-7.391a21.09 21.09 0 018.628 8.969 1 1 0 01-1.787.898 19.09 19.09 0 00-7.808-8.117 1 1 0 11.967-1.75zM19 5c2.203 0 4.361.34 6.418 1a1 1 0 01-.61 1.904A18.986 18.986 0 0019 7 18.997 18.997 0 002.018 17.468a1 1 0 01-1.786-.9A20.997 20.997 0 0119 5zm0-5a24.893 24.893 0 0115.349 5.265 1 1 0 01-1.229 1.578A22.893 22.893 0 0019 2C13.83 2 8.922 3.71 4.92 6.81a1 1 0 01-1.225-1.58A24.892 24.892 0 0119 0z"
        fill="#434875" />
</svg>