<svg xmlns="http://www.w3.org/2000/svg" fill="none" viewBox="0 0 99 23">
    <g clip-path="url(#coin)">
        <path fill="#E8E8E8"
            d="M90.814 22.109c-2.11-.327-3.985-1.72-4.874-3.62-.412-.882-.486-1.236-.548-2.619-.084-1.88.115-2.962.77-4.203a6.435 6.435 0 0 1 2.848-2.762c.981-.482 1.091-.502 2.862-.502 1.825 0 1.85.005 2.837.55 1.822 1.003 2.612 2.521 2.724 5.234l.068 1.648h-4.69c-4.687 0-4.69 0-4.69.327 0 1.165.86 2.407 2.16 3.114 1.476.803 3.802.713 5.785-.225l.954-.451-.045 1.246-.044 1.246-.536.276c-1.282.66-3.878 1.004-5.58.74Zm3.918-8.65c-.11-1.263-.64-2.09-1.632-2.546-1.788-.82-3.939.159-4.676 2.13-.17.452-.267.888-.218.967.053.086 1.412.128 3.335.104l3.245-.042-.054-.612Zm-16.565 8.796c-1.58-.266-2.268-.46-3.042-.86l-.317-.164v-1.368c0-1.296.01-1.36.19-1.199.357.32 1.707.92 2.5 1.11.932.223 2.27.178 2.791-.095.61-.318.75-.563.75-1.316 0-1.091-.39-1.392-2.667-2.06-2.883-.844-3.752-1.758-3.772-3.968-.011-1.248.267-1.999 1.017-2.75.637-.638 1.287-.967 2.344-1.19 1.44-.303 3.237-.106 4.487.49l.703.336v2.585l-.352-.211c-1.097-.658-2.17-.976-3.296-.976-1.177 0-1.645.217-1.987.923-.557 1.15.172 1.965 2.222 2.486 2.21.561 3.324 1.278 3.865 2.485.35.785.36 2.586.017 3.334-.524 1.14-1.698 1.981-3.123 2.237-.814.146-1.973.23-2.33.17Zm-12.46-.205c-1.482-.255-2.577-.804-3.176-1.591-1.061-1.395-.948-3.546.249-4.755 1.027-1.037 2.621-1.51 5.091-1.51h1.61l.036-.623c.076-1.293.016-1.52-.548-2.084-.468-.469-.59-.53-1.293-.656-1.157-.207-2.972.107-4.153.718-.163.084-.324.153-.357.153-.032 0-.059-.55-.059-1.222V9.258l.352-.142c1.556-.629 2.667-.88 3.876-.88.99 0 2.236.249 2.965.594.748.354 1.463 1.134 1.805 1.97.257.63.258.647.296 5.744l.039 5.112-.414.119c-1.36.391-4.777.54-6.319.275Zm3.454-2.073.338-.068v-3.895l-1.381.049c-1.607.056-2.338.25-2.883.764-.901.85-.674 2.327.44 2.856.213.101.564.218.779.26.507.1 2.27.121 2.707.034Zm-16.997 2.277c-1.66-.166-3.652-.559-4.144-.817-.179-.094-.19-.687-.19-10.118V1.301h2.925v3.792c0 2.086.026 3.792.058 3.792s.23-.072.44-.16c.54-.225 2.017-.49 2.738-.49 1.566 0 3.508.687 4.585 1.622 2.277 1.978 2.798 6.242 1.107 9.064-1.213 2.025-3.319 3.13-6.327 3.32-.447.028-.983.034-1.192.013Zm1.896-2.577c1.803-.332 2.932-1.27 3.473-2.883.282-.841.282-2.464 0-3.196-.45-1.164-1.14-1.916-2.203-2.401-.555-.253-.75-.283-1.866-.28-1.037.001-1.364.045-1.95.259l-.704.257v8.124l.758.123c1.017.164 1.588.164 2.492-.003Zm-20.614-3.993.028-6.31.434-.144a19.716 19.716 0 0 1 3.683-.835c4.077-.495 6.263.306 7.262 2.657.192.453.21.858.243 5.715l.037 5.228h-2.829l-.002-4.578c-.002-4.368-.013-4.6-.223-5.063-.29-.64-.481-.838-1.12-1.162-.515-.261-.589-.269-2.167-.219-.912.029-1.814.114-2.04.192l-.407.14v10.69h-2.927l.028-6.31Zm-5.66-.406V8.56h2.817v13.435h-2.817v-6.717Zm.473-9.41c-.507-.368-.738-.698-.835-1.196-.317-1.62 1.723-2.69 2.974-1.56.733.662.806 1.659.175 2.378-.678.772-1.57.917-2.314.377ZM18.143 22.254c-1.766-.3-2.5-.557-3.447-1.208-1.676-1.152-2.654-2.977-2.795-5.216-.158-2.492.65-4.577 2.322-6 3.014-2.564 8.136-1.904 10.294 1.327 1.639 2.455 1.564 6.093-.174 8.453-1.132 1.538-2.993 2.469-5.279 2.641-.358.027-.772.029-.92.003Zm1.43-2.549c.805-.17 1.477-.539 1.983-1.088.889-.962 1.148-1.71 1.15-3.315.002-1.42-.152-2.01-.77-2.943-1.303-1.97-4.262-2.206-5.934-.473-.8.83-1.22 1.99-1.214 3.352.012 2.241 1.131 3.922 2.94 4.413.725.196 1.12.208 1.845.054ZM7.254 22.251c-3.71-.54-5.74-2.42-6.295-5.828-.177-1.085-.177-1.206 0-2.297.265-1.623.769-2.68 1.793-3.757.637-.67.962-.911 1.776-1.316a7.91 7.91 0 0 1 3.448-.818c1.105 0 2.923.446 3.326.817.122.112.049.302-.43 1.124-.43.738-.62.972-.743.92-.091-.039-.57-.123-1.062-.187-1.7-.221-3.064.159-4.029 1.123-.914.915-1.27 2.054-1.156 3.703.187 2.717 2.343 4.319 5.25 3.901.457-.065.937-.151 1.067-.19.205-.063.317.051.84.853.332.51.603.973.603 1.03 0 .13-1.274.612-2.004.758-.69.138-1.962.226-2.384.164Z" />
    </g>
    <defs>
        <clipPath id="coin">
            <path fill="#fff" d="M0 .436h98.371v22.543H0z" />
        </clipPath>
    </defs>
</svg>