<svg xmlns="http://www.w3.org/2000/svg" fill="none" viewBox="0 0 131 27">
    <g fill="#E8E8E8" clip-path="url(#drop)">
        <path
            d="M15.49 5.698 7.93 10.52l7.56 4.822-7.56 4.823-7.56-4.849 7.56-4.822L.37 5.698 7.93.875l7.56 4.823Zm-7.598 16.02 7.56-4.823 7.56 4.823-7.56 4.822-7.56-4.822Zm7.599-6.4 7.56-4.823-7.56-4.797L23.01.875l7.561 4.823-7.56 4.823 7.56 4.822-7.56 4.823-7.521-4.849ZM36.503 5.698h6.113c3.898 0 7.117 2.255 7.117 7.404v1.082c0 5.187-3.01 7.52-7 7.52h-6.23V5.699Zm3.415 2.907v10.18h2.62c2.216 0 3.702-1.447 3.702-4.667v-.847c0-3.22-1.564-4.666-3.82-4.666h-2.502Zm11.627.156h2.737l.443 3.011c.522-2.046 1.851-3.141 4.263-3.141h.847v3.454h-1.408c-2.776 0-3.454.964-3.454 3.702v5.957h-3.376V8.76h-.052Zm8.968 6.752v-.365c0-4.34 2.776-6.713 6.556-6.713 3.859 0 6.557 2.372 6.557 6.713v.365c0 4.262-2.62 6.557-6.557 6.557-4.184-.04-6.556-2.282-6.556-6.557Zm9.659-.039v-.326c0-2.411-1.213-3.858-3.142-3.858-1.89 0-3.141 1.33-3.141 3.858v.326c0 2.333 1.212 3.663 3.141 3.663 1.93-.04 3.142-1.33 3.142-3.663Zm5.227-6.713h2.815l.326 2.45c.678-1.642 2.124-2.776 4.262-2.776 3.298 0 5.475 2.372 5.475 6.765v.365c0 4.263-2.412 6.518-5.475 6.518-2.046 0-3.454-.926-4.145-2.412v6.557H75.36L75.4 8.76Zm9.45 6.713v-.287c0-2.58-1.33-3.858-3.103-3.858-1.89 0-3.141 1.447-3.141 3.858v.248c0 2.294 1.212 3.74 3.102 3.74 1.943-.038 3.142-1.277 3.142-3.701Zm8.42 3.871-.287 2.373H90.09V4.42h3.297v6.634c.73-1.694 2.177-2.62 4.224-2.62 3.102.04 5.396 2.177 5.396 6.479v.404c0 4.301-2.177 6.765-5.475 6.765-2.176-.053-3.584-1.056-4.262-2.738Zm6.27-4.027v-.326c0-2.373-1.29-3.702-3.103-3.702-1.85 0-3.14 1.486-3.14 3.74v.288c0 2.411 1.25 3.819 3.101 3.819 1.982 0 3.142-1.239 3.142-3.82Zm4.914.195v-.365c0-4.34 2.776-6.713 6.556-6.713 3.859 0 6.557 2.372 6.557 6.713v.365c0 4.262-2.659 6.557-6.557 6.557-4.184-.04-6.556-2.282-6.556-6.557Zm9.685-.039v-.326c0-2.411-1.213-3.858-3.142-3.858-1.89 0-3.141 1.33-3.141 3.858v.326c0 2.333 1.212 3.663 3.141 3.663 1.942-.04 3.142-1.33 3.142-3.663Zm7.847-.482-4.55-6.23h3.898l2.62 3.896 2.659-3.897h3.858l-4.614 6.192 4.862 6.765h-3.819l-2.972-4.302-2.894 4.302h-3.989l4.941-6.726Z" />
    </g>
    <defs>
        <clipPath id="drop">
            <path fill="#fff" d="M.37.875h130.348V26.54H.37z" />
        </clipPath>
    </defs>
</svg>