<svg xmlns="http://www.w3.org/2000/svg" fill="none" viewBox="0 0 38 48">
    <g fill="#E8E8E8" clip-path="url(#targ)">
        <path
            d="M19.47 30.755a12.308 12.308 0 1 1-.059-24.616 12.308 12.308 0 0 1 .06 24.616ZM19.47 0a18.457 18.457 0 1 0 18.457 18.457A18.446 18.446 0 0 0 19.471 0Z" />
        <path
            d="M19.47 12.13a6.326 6.326 0 1 0 6.327 6.326 6.318 6.318 0 0 0-6.326-6.326ZM2.78 41.74H.718v-1.274h5.566v1.264H4.241v5.527h-1.49V41.73l.03.01Zm2.873 5.507h1.49l.533-1.51h2.536l.514 1.51h1.55l-2.537-6.78h-1.53l-2.556 6.78Zm3.316-5.113.859 2.488H8.07l.898-2.488Zm3.948 5.113h1.49v-2.645h1.5c.75 0 .987.306 1.126.987.021.546.1 1.089.236 1.619h1.5a3.7 3.7 0 0 1-.285-1.57c-.05-.68-.257-1.391-.988-1.579a1.667 1.667 0 0 0 .988-1.727 1.865 1.865 0 0 0-1.975-1.866h-3.642v6.791l.05-.01Zm1.44-5.616h1.64c.66 0 .986.286.986.938 0 .651-.365.987-.987.987h-1.638V41.62v.01Zm10.048 4.846a2.28 2.28 0 0 1-1.855.938 3.277 3.277 0 0 1-3.336-3.534A3.287 3.287 0 0 1 22.55 40.3a2.744 2.744 0 0 1 2.862 2.398H24.02a1.392 1.392 0 0 0-1.43-1.145c-1.343 0-1.846 1.145-1.846 2.33 0 1.184.503 2.27 1.845 2.27a1.45 1.45 0 0 0 1.61-1.461h-1.501v-1.106h2.852v3.662h-.987l-.158-.77Zm2.162-6.01h5.083v1.263h-3.583v1.45h3.247v1.165h-3.247v1.649h3.652v1.253h-5.152v-6.78Zm7.896 1.263H32.39v-1.264h5.557v1.264h-2.033v5.527h-1.49V41.73" />
    </g>
    <defs>
        <clipPath id="targ">
            <path fill="#fff" d="M.718 0h37.23v47.415H.718z" />
        </clipPath>
    </defs>
</svg>