<svg xmlns="http://www.w3.org/2000/svg" fill="none" viewBox="0 0 92 26">
    <path fill="#E8E8E8"
        d="M.947 6.282h5.372l3.129 8.004 3.169-8.004h5.23L9.972 25.23H4.707l2.156-5.02L.947 6.281Zm22.35-.318c-4.036 0-6.588 3.62-6.588 7.225 0 4.057 2.797 7.274 6.512 7.274 2.77 0 3.815-1.688 3.815-1.688v1.314h4.686V6.283h-4.686v1.255s-1.166-1.574-3.739-1.574Zm.997 4.437c1.863 0 2.824 1.474 2.824 2.803 0 1.433-1.03 2.838-2.824 2.838-1.487 0-2.83-1.215-2.83-2.776 0-1.584 1.08-2.865 2.83-2.865Zm9.042 9.688V.186h4.9v7.4s1.165-1.62 3.603-1.62c2.982 0 4.73 2.222 4.73 5.397v8.726h-4.866v-7.53c0-1.075-.512-2.113-1.671-2.113-1.18 0-1.795 1.054-1.795 2.112v7.531h-4.901Zm21.59-14.123c-4.624 0-7.377 3.515-7.377 7.28 0 4.287 3.333 7.217 7.393 7.217 3.935 0 7.38-2.797 7.38-7.144 0-4.757-3.606-7.353-7.397-7.353Zm.043 4.476c1.633 0 2.763 1.36 2.763 2.81 0 1.237-1.053 2.763-2.763 2.763-1.566 0-2.743-1.257-2.743-2.777 0-1.463.978-2.796 2.743-2.796Zm15.517-4.476c-4.623 0-7.375 3.515-7.375 7.28 0 4.287 3.333 7.217 7.392 7.217 3.936 0 7.38-2.797 7.38-7.144 0-4.757-3.606-7.353-7.397-7.353Zm.044 4.476c1.633 0 2.763 1.36 2.763 2.81 0 1.237-1.053 2.763-2.763 2.763-1.567 0-2.742-1.257-2.742-2.777 0-1.463.977-2.796 2.742-2.796ZM81.75 20.382a3.254 3.254 0 1 0 0-6.508 3.254 3.254 0 0 0 0 6.508ZM86.074 12.678h-5.86l5.2-12.492h5.838l-5.178 12.492Z" />
</svg>