<svg xmlns="http://www.w3.org/2000/svg" viewBox="0 0 608 400" fill="none">
    <g filter="url(#cf)">
        <rect width="150" height="150" x="135.63" y="72.73" fill="#fff" rx="28.74"
            transform="rotate(-13.43 135.63 72.73)" />
        <path fill="#F38020"
            d="M245.9 138.54c.09-1.98-.52-3.63-1.72-4.68a5.07 5.07 0 0 0-4.34-.98l-31.77 7.15a.6.6 0 0 1-.55-.14.73.73 0 0 1-.21-.54.9.9 0 0 1 .61-.75l31.85-8.04c3.75-1.06 7.13-5.12 7.67-9.22l.68-5.2c.03-.2 0-.43-.1-.62a21.36 21.36 0 0 0-35.37-4.63 21.4 21.4 0 0 0-5.14 12.04 9.63 9.63 0 0 0-12.35 13.32 13.66 13.66 0 0 0-9.15 18.29c.12.3.44.46.75.39l58.45-13.95a.8.8 0 0 0 .6-.75l.07-1.67.01-.02Z" />
        <path fill="#FAAE40"
            d="m251.12 115.78-.87.23c-.2.05-.35.25-.38.48l-.2 4.59c-.1 1.98.5 3.63 1.7 4.67a5.07 5.07 0 0 0 4.35.98l6.84-1.2a.6.6 0 0 1 .55.14.73.73 0 0 1 .2.55.9.9 0 0 1-.6.74l-6.93 2.1c-3.77 1.06-7.12 5.12-7.67 9.22l-.2 1.43c-.04.28.2.5.49.43l24.12-5.76c.29-.07.5-.3.51-.6a17.83 17.83 0 0 0-21.91-18" />
        <rect width="149.1" height="149.1" x="136.18" y="73.06" stroke="#fff" stroke-width=".9" rx="28.29"
            transform="rotate(-13.43 136.18 73.06)" />
    </g>
    <g filter="url(#gtm)">
        <rect width="150" height="150" x="351.09" y="146.09" fill="#fff" rx="34.95"
            transform="rotate(8.88 351.09 146.09)" />
        <g clip-path="url(#gtmClip)">
            <path fill="#8AB4F8" d="m415.34 263.17-9.33-12.8 27.53-20.31 9.5 13.03-27.7 20.08Z" />
            <path fill="#4285F4"
                d="m422.88 215.46-9.5-13.04-27.64 20.17a8.06 8.06 0 0 0-1.76 11.27l20.16 27.63 12.8-9.38-15.19-21.23 21.13-15.42Z" />
            <path fill="#8AB4F8"
                d="m444.8 231.82-20.16-27.63a8.07 8.07 0 1 0-13.03 9.5l20.18 27.64a8.07 8.07 0 1 0 13.03-9.5l-.01-.01Z" />
            <path fill="#246FDB" d="M409.32 264.72a8 8 0 1 0 2.47-15.8 8 8 0 0 0-2.47 15.8Z" />
        </g>
        <rect width="148.91" height="148.91" x="351.54" y="146.71" stroke="#fff" stroke-width="1.09" rx="34.4"
            transform="rotate(8.88 351.54 146.71)" />
    </g>
    <defs>
        <filter id="cf" width="295.69" height="295.69" x="78.16" y="-5.21" color-interpolation-filters="sRGB"
            filterUnits="userSpaceOnUse">
            <feFlood flood-opacity="0" result="BackgroundImageFix" />
            <feColorMatrix in="SourceAlpha" result="hardAlpha" values="0 0 0 0 0 0 0 0 0 0 0 0 0 0 0 0 0 0 127 0" />
            <feOffset dy="14.37" />
            <feGaussianBlur stdDeviation="28.74" />
            <feColorMatrix values="0 0 0 0 0.0509804 0 0 0 0 0.0627451 0 0 0 0 0.168627 0 0 0 0.1 0" />
            <feBlend in2="BackgroundImageFix" result="effect1_dropShadow_136_10365" />
            <feBlend in="SourceGraphic" in2="effect1_dropShadow_136_10365" result="shape" />
        </filter>
        <filter id="gtm" width="311.14" height="311.14" x="258.04" y="93.67" color-interpolation-filters="sRGB"
            filterUnits="userSpaceOnUse">
            <feFlood flood-opacity="0" result="BackgroundImageFix" />
            <feColorMatrix in="SourceAlpha" result="hardAlpha" values="0 0 0 0 0 0 0 0 0 0 0 0 0 0 0 0 0 0 127 0" />
            <feOffset dy="17.47" />
            <feGaussianBlur stdDeviation="34.95" />
            <feColorMatrix values="0 0 0 0 0.0509804 0 0 0 0 0.0627451 0 0 0 0 0.168627 0 0 0 0.1 0" />
            <feBlend in2="BackgroundImageFix" result="effect1_dropShadow_136_10365" />
            <feBlend in="SourceGraphic" in2="effect1_dropShadow_136_10365" result="shape" />
        </filter>
        <clipPath id="gtmClip">
            <path fill="#fff" d="M0 0h64.53v64.53H0z" transform="rotate(8.88 -1067.95 2592.58)" />
        </clipPath>
    </defs>
</svg>