<svg xmlns="http://www.w3.org/2000/svg" viewBox="0 0 77 77" fill="none">
    <rect width="76.58" height="76.58" x=".58" y=".44" fill="#fff" rx="16.6" />
    <path fill="#3DDB85"
        d="M51.42 46.33a2.27 2.27 0 1 1 0-4.55 2.27 2.27 0 0 1 0 4.55Zm-25.1 0a2.27 2.27 0 1 1 0-4.55 2.27 2.27 0 0 1 0 4.55Zm25.92-13.69 4.54-7.86a.95.95 0 0 0-1.64-.94l-4.6 7.96a28.02 28.02 0 0 0-11.67-2.5c-4.21 0-8.16.9-11.67 2.5l-4.6-7.96a.95.95 0 0 0-1.64.94l4.54 7.86A26.8 26.8 0 0 0 11.6 54.1h54.54a26.8 26.8 0 0 0-13.9-21.46Z" />
    <rect width="76.58" height="76.58" x=".58" y=".44" stroke="#fff" stroke-width=".53" rx="16.6" />
</svg>