<svg xmlns="http://www.w3.org/2000/svg" viewBox="0 0 77 77" fill="none">
    <rect width="76.58" height="76.58" x=".79" y=".81" fill="#fff" rx="16.6" />
    <g clip-path="url(#a)">
        <path fill="#727273"
            d="M51.87 33.76c-.2.15-3.63 2.09-3.63 6.4 0 4.97 4.37 6.73 4.5 6.77-.02.11-.7 2.42-2.3 4.77-1.44 2.06-2.94 4.13-5.22 4.13s-2.87-1.33-5.5-1.33c-2.57 0-3.48 1.37-5.57 1.37-2.09 0-3.54-1.91-5.22-4.26a20.55 20.55 0 0 1-3.5-11.11c0-6.52 4.24-9.98 8.41-9.98 2.22 0 4.07 1.46 5.46 1.46 1.32 0 3.4-1.55 5.91-1.55.96 0 4.4.09 6.66 3.33Zm-7.85-6.09A7.49 7.49 0 0 0 45.8 23c0-.24-.02-.48-.07-.68a7.5 7.5 0 0 0-4.93 2.55 7.3 7.3 0 0 0-1.85 4.54c0 .26.04.53.06.61.11.02.29.04.46.04 1.52 0 3.44-1.02 4.55-2.39Z" />
    </g>
    <rect width="76.58" height="76.58" x=".79" y=".81" stroke="#fff" stroke-width=".53" rx="16.6" />
    <defs>
        <clipPath id="a">
            <path fill="#fff" d="M0 0h27.31v33.55H0z" transform="translate(25.43 22.32)" />
        </clipPath>
    </defs>
</svg>