<svg xmlns="http://www.w3.org/2000/svg" viewBox="0 0 77 77" fill="none">
    <rect width="76.58" height="76.58" x=".75" y=".53" fill="#fff" rx="16.6" />
    <path fill="#44D1FD"
        d="M42.2 22.14h10.35L35.2 39.46l-4.52 4.5-5.15-5.15 16.68-16.68Zm-.09 15.49c.13-.18.38-.1.57-.12h9.86l-8.99 8.99-5.17-5.14 3.73-3.73Z" />
    <path fill="#1FBCFD" d="m33.23 46.5 5.15-5.15 5.17 5.14.02.03-5.19 5.14-5.15-5.16Z" />
    <path fill="#08589C" d="m38.38 51.66 5.2-5.14 8.96 8.97-10.13.01c-.2.04-.31-.13-.43-.24l-3.6-3.6Z" />
    <rect width="76.58" height="76.58" x=".75" y=".53" stroke="#fff" stroke-width=".53" rx="16.6" />
</svg>