<svg xmlns="http://www.w3.org/2000/svg" viewBox="0 0 77 77" fill="none">
    <rect width="76.58" height="76.58" x="1.17" y=".53" fill="#fff" rx="16.6" />
    <path fill="#00ACD7"
        d="M16.45 34.83c-.1 0-.13-.06-.08-.13l.56-.72c.05-.08.18-.13.29-.13h9.42c.1 0 .13.08.08.16l-.45.69c-.05.07-.19.15-.27.15l-9.55-.02ZM12.47 37.25c-.1 0-.13-.05-.08-.13l.55-.71c.05-.08.19-.13.3-.13h12.03c.1 0 .15.08.13.16l-.21.63c-.03.1-.13.16-.24.16l-12.48.02ZM18.85 39.68c-.1 0-.13-.08-.08-.16l.37-.66c.06-.07.16-.15.27-.15h5.28c.1 0 .15.08.15.18l-.05.63c0 .11-.1.19-.18.19l-5.76-.03ZM46.25 34.35c-1.67.42-2.8.74-4.44 1.16-.4.1-.42.13-.76-.26-.4-.45-.69-.74-1.24-1a4.59 4.59 0 0 0-4.78.4 5.61 5.61 0 0 0-2.7 5 4.14 4.14 0 0 0 3.57 4.15c1.8.24 3.3-.4 4.49-1.74.23-.3.45-.61.71-.98H36c-.55 0-.68-.34-.5-.8.35-.8.98-2.18 1.35-2.87a.71.71 0 0 1 .66-.42h9.6c-.05.71-.05 1.42-.15 2.14-.3 1.9-1 3.64-2.17 5.17a11 11 0 0 1-7.52 4.49 9.35 9.35 0 0 1-7.1-1.75 8.29 8.29 0 0 1-3.35-5.85c-.34-2.88.5-5.47 2.25-7.74a11.71 11.71 0 0 1 7.38-4.56 9.1 9.1 0 0 1 7 1.3c1.4.91 2.4 2.18 3.06 3.71.16.24.05.37-.26.45Z" />
    <path fill="#00ACD7"
        d="M54.98 48.95a9.9 9.9 0 0 1-6.44-2.33 8.28 8.28 0 0 1-2.85-5.09c-.47-2.98.34-5.62 2.14-7.97a11.06 11.06 0 0 1 7.39-4.4c2.69-.48 5.22-.22 7.52 1.34a8.21 8.21 0 0 1 3.72 5.88c.45 3.57-.58 6.47-3.03 8.95a12.1 12.1 0 0 1-6.34 3.38c-.71.13-1.42.16-2.1.24Zm6.28-10.67c-.02-.34-.02-.6-.08-.87a4.35 4.35 0 0 0-5.38-3.5 5.77 5.77 0 0 0-4.62 4.58 4.35 4.35 0 0 0 2.43 5c1.45.63 2.9.55 4.3-.17a5.78 5.78 0 0 0 3.35-5.04Z" />
    <rect width="76.58" height="76.58" x="1.17" y=".53" stroke="#fff" stroke-width=".53" rx="16.6" />
</svg>