<svg xmlns="http://www.w3.org/2000/svg" viewBox="0 0 77 77" fill="none">
    <rect width="76.58" height="76.58" x=".47" y=".44" fill="#fff" rx="16.6" />
    <g fill="#727273" clip-path="url(#a)" opacity=".9">
        <path
            d="M37.4 22.55a2.77 2.77 0 0 1 2.7 0l12.37 6.98c.77.44 1.29 1.3 1.28 2.2v14c0 .93-.56 1.82-1.38 2.24l-12.32 6.95a2.7 2.7 0 0 1-2.73-.07l-3.7-2.14c-.25-.15-.54-.27-.71-.51.15-.22.43-.24.66-.34.52-.16.99-.42 1.46-.68.12-.08.27-.05.38.03l3.15 1.82c.23.13.46-.04.65-.15l12.1-6.83a.4.4 0 0 0 .21-.39V31.8a.43.43 0 0 0-.25-.44l-12.28-6.91a.43.43 0 0 0-.48 0c-4.1 2.3-8.18 4.61-12.27 6.92a.43.43 0 0 0-.26.43v13.86a.4.4 0 0 0 .22.39l3.28 1.85c.61.33 1.37.53 2.05.28.6-.22 1.02-.83 1-1.47V32.93c0-.2.19-.37.38-.35h1.58c.22 0 .37.22.34.42v13.87c0 1.23-.5 2.57-1.65 3.18-1.4.72-3.14.57-4.52-.13-1.2-.6-2.35-1.3-3.53-1.95a2.57 2.57 0 0 1-1.38-2.24v-14c0-.92.53-1.8 1.33-2.22l12.32-6.96Z" />
        <path
            d="M40.98 32.25c1.8-.11 3.7-.06 5.32.82a4.02 4.02 0 0 1 1.96 3.48c-.03.19-.23.29-.4.28h-1.57c-.22 0-.34-.2-.37-.4a2.37 2.37 0 0 0-1.14-1.64c-.96-.48-2.07-.45-3.11-.44-.77.04-1.59.1-2.23.55-.5.34-.65 1.03-.47 1.58.17.4.62.53 1 .64 2.16.57 4.44.51 6.56 1.25.88.3 1.73.9 2.03 1.81.4 1.23.22 2.7-.65 3.7a5.17 5.17 0 0 1-2.77 1.49c-1.38.3-2.8.31-4.2.17a6.6 6.6 0 0 1-3.68-1.38 3.87 3.87 0 0 1-1.24-3.05c.01-.2.2-.32.38-.3.53-.01 1.05-.01 1.57 0 .21-.02.37.16.38.36.1.63.33 1.3.88 1.67 1.07.68 2.4.63 3.62.65 1-.04 2.14-.05 2.96-.72.44-.38.57-1.02.45-1.57-.13-.46-.61-.67-1.03-.81-2.13-.68-4.44-.43-6.55-1.2-.86-.3-1.69-.87-2.02-1.75a3.6 3.6 0 0 1 .72-3.74c.95-.95 2.3-1.32 3.6-1.45Z" />
    </g>
    <rect width="76.58" height="76.58" x=".47" y=".44" stroke="#fff" stroke-width=".53" rx="16.6" />
    <defs>
        <clipPath id="a">
            <path fill="#fff" d="M0 0h30.15v33.2H0z" transform="translate(23.68 22.13)" />
        </clipPath>
    </defs>
</svg>