<svg xmlns="http://www.w3.org/2000/svg" viewBox="0 0 77 77" fill="none">
    <rect width="76.58" height="76.58" x="1.16" y=".44" fill="#fff" rx="16.6" />
    <g fill="#727273" stroke="#727273" opacity=".9">
        <path stroke-width=".69"
            d="M28.17 32.57h8.33v.66h-7.57v4.96h7.11v.66h-7.1v5.44h7.64v.66h-8.41V32.57Zm9.07 0h.89l3.92 5.45 4-5.45 5.46-6.9-8.96 12.92 4.62 6.36h-.92l-4.2-5.79-4.22 5.8h-.9l4.65-6.37-4.34-6.02Zm10.26.66v-.66h9.49v.66H52.6v11.72h-.76V33.23H47.5ZM17.75 32.57h.95l13.16 19.6-5.44-7.22-7.87-11.44-.04 11.44h-.76V32.57Z" />
        <path stroke-width=".48"
            d="M56.9 44.1c.17 0 .28-.13.28-.28a.27.27 0 0 0-.27-.28.27.27 0 0 0-.28.28c0 .15.12.28.28.28Zm.76-.73c0 .46.33.76.82.76.51 0 .82-.31.82-.85V41.4h-.41v1.9c0 .29-.15.45-.42.45-.24 0-.4-.15-.4-.37h-.41Zm2.19-.02c.03.47.43.78 1.02.78.64 0 1.03-.32 1.03-.83 0-.4-.22-.63-.77-.75l-.3-.08c-.35-.08-.49-.19-.49-.38 0-.24.22-.4.55-.4.31 0 .53.16.57.4h.4c-.02-.45-.42-.76-.97-.76-.58 0-.97.32-.97.8 0 .38.22.62.7.73l.35.08c.36.09.51.2.51.41 0 .24-.24.41-.58.41-.36 0-.6-.16-.64-.41h-.41Z" />
    </g>
    <rect width="76.58" height="76.58" x="1.16" y=".44" stroke="#fff" stroke-width=".53" rx="16.6" />
</svg>