<svg xmlns="http://www.w3.org/2000/svg" viewBox="0 0 77 77" fill="none">
    <rect width="76.58" height="76.58" x=".37" y=".81" fill="#fff" rx="16.6" />
    <path fill="#93D500"
        d="M44.72 39.66h8.88v.13l-.02.25v.1l-.03.3-.01.06a14.98 14.98 0 0 1-.08.7 14.16 14.16 0 0 1-.57 2.45v.01l-.1.3-.03.07a17.1 17.1 0 0 1-.13.36l-.09.2a7.27 7.27 0 0 1-.13.33l-.08.2-.06.11-.1.24-.04.07-.14.27-.02.04-.15.3-.01.01-.03.06-7.58-4.56-.03-.02c.3-.63.48-1.3.55-1.98Z" />
    <path fill="#4D5A31"
        d="m42.54 43.73.02.02L48.81 50l-.1.1-.17.15-.1.08-.2.18-.06.05a14.6 14.6 0 0 1-1.73 1.22l-.04.03-.23.14-.14.08-.13.07-.25.13a14.2 14.2 0 0 1-.73.35l-.21-.53-3.15-7.63v-.03c.33-.19.66-.4.97-.66Z" />
    <path fill="#6BA43A"
        d="M43.2 43.11a5.27 5.27 0 0 0 .69-.94l7.58 4.57a14.06 14.06 0 0 1-.37.6l-.02.02a15.45 15.45 0 0 1-.44.62v.01l-.02.01-.18.24-.03.03c-.06.09-.12.17-.2.25 0 .02-.02.04-.04.06l-.18.21-.08.1-.16.17-.09.1-.04.04-.11.12-.05.05-.21.22-6.26-6.26.2-.22Z" />
    <path fill="#4D5A31" d="m34.9 43.73.2.16v.03l-4.57 7.57a13.83 13.83 0 0 1-1.9-1.49l6.24-6.25.03-.02Z" />
    <path fill="#93D500"
        d="m31.19 51.55.15-.25 4.26-7.07a6.3 6.3 0 0 0 3.13.86c.58 0 1.16-.08 1.72-.25.1-.03.2-.06.28-.1l.29-.1 3.14 7.63.12.3.1.26h-.02l-.02.02-.23.08-.28.11-.14.06c-.99.34-2 .59-3.04.72l-.12.02-.13.01-.24.03h-.06l-.3.03h-.1l-.25.02h-.16l-.2.01h-.37a14.93 14.93 0 0 1-2.51-.2l-.26-.05-.15-.03-.15-.03-.26-.06h-.04a14.94 14.94 0 0 1-3.57-1.34l-.22-.12-.26-.15-.18-.1h-.01l.01-.02-.01.01h-.02l-.05-.04.15-.26ZM42.54 34.4a7.12 7.12 0 0 0-.21-.16l.02-.03 4.56-7.58a14.4 14.4 0 0 1 1.9 1.5l-6.25 6.24-.02.03Z" />
    <path fill="#4D5A31"
        d="m49.25 28.53.2.22.21.21c.46.5.88 1.02 1.27 1.57l.05.08.13.19a10.54 10.54 0 0 1 .17.27 14.85 14.85 0 0 1 2.32 7.39v.3l.01.3h-8.85l-.02-.3-.01-.3a6 6 0 0 0-1.34-3.23l-.2-.22-.2-.22 6.26-6.26Zm-18.27-2.2.04-.02.23-.14.14-.08.14-.07c.08-.05.16-.1.24-.13l.04-.02a14.9 14.9 0 0 1 4.98-1.58l.12-.01.13-.02.24-.02h.06l.29-.03h.11l.25-.02h.13v8.86c-.46.05-.9.15-1.35.3l-6.53-6.53.74-.49Z" />
    <path fill="#6BA43A"
        d="m39.02 24.17.3.01c.62.03 1.25.09 1.87.2h.04l.26.05.15.03a7.52 7.52 0 0 1 .4.08l.05.01a15 15 0 0 1 3.57 1.34l.22.12.26.15.2.1.01.01.05.03-.15.26-4.42 7.33a6.39 6.39 0 0 0-2.81-.86l-.3-.01v-8.85h.3Z" />
    <path fill="#4D5A31"
        d="M23.84 38.33a16.43 16.43 0 0 1 .05-.64v-.07l.04-.32v-.03l.05-.34v-.01c.1-.71.25-1.4.46-2.1a27 27 0 0 1 .21-.66l.03-.07.09-.25.04-.12a8.42 8.42 0 0 1 .15-.36l.06-.16.1-.2c0-.04.03-.08.04-.11l.11-.24.04-.08.13-.27.02-.04.16-.3c.26-.48.55-.94.85-1.38l6.54 6.53c-.15.44-.25.9-.3 1.35h-8.87v-.13Z" />
    <path fill="#6BA43A"
        d="m32.68 39.06.01.3.02.3a6 6 0 0 0 1.33 3.22l.2.23.2.22-6.25 6.26-.21-.22-.2-.22c-.47-.5-.9-1.02-1.28-1.57l-.04-.06-.14-.2-.12-.19-.05-.09a14.84 14.84 0 0 1-2.32-7.68v-.3h8.85Z" />
    <path fill="#424143"
        d="M21.2 21.54a4.15 4.15 0 0 1 6.64 4.77l9.04 9.04A4.15 4.15 0 1 1 35 37.22l-9.03-9.04a4.15 4.15 0 0 1-4.77-6.64Z" />
    <rect width="76.58" height="76.58" x=".37" y=".81" stroke="#fff" stroke-width=".53" rx="16.6" />
</svg>