<svg xmlns="http://www.w3.org/2000/svg" viewBox="0 0 77 77" fill="none">
    <rect width="76.58" height="76.58" x=".95" y=".81" fill="#fff" rx="16.6" />
    <path fill="#673AB8" d="m39.24 22.77 14.14 8.16v16.33l-14.14 8.17-14.15-8.17V30.93l14.15-8.16Z" />
    <path stroke="#F0ECF8" stroke-width="1.02"
        d="M29.32 46.71c1.61 2.1 7.36.4 12.83-3.81 5.48-4.2 8.62-9.31 7.01-11.4-1.6-2.1-7.35-.4-12.83 3.8-5.48 4.21-8.62 9.32-7 11.41Z" />
    <path stroke="#F0ECF8" stroke-width="1.02"
        d="M49.14 46.71c1.61-2.1-1.53-7.2-7-11.4-5.48-4.2-11.23-5.92-12.84-3.82-1.6 2.1 1.53 7.2 7.01 11.4 5.48 4.21 11.22 5.92 12.83 3.82Z" />
    <rect width="76.58" height="76.58" x=".95" y=".81" stroke="#fff" stroke-width=".53" rx="16.6" />
</svg>