<svg xmlns="http://www.w3.org/2000/svg" viewBox="0 0 77 77" fill="none">
    <rect width="76.58" height="76.58" x=".64" y=".81" fill="#fff" rx="16.6" />
    <path fill="url(#py-a)"
        d="M38.74 23.59c-1.26 0-2.47.11-3.53.3-3.13.55-3.7 1.7-3.7 3.85v2.82h7.4v.94H28.73a4.62 4.62 0 0 0-4.63 3.75 13.83 13.83 0 0 0 0 7.52c.53 2.2 1.79 3.75 3.94 3.75h2.54v-3.38a4.7 4.7 0 0 1 4.63-4.6h7.39c2.06 0 3.7-1.69 3.7-3.76v-7.04c0-2.01-1.7-3.52-3.7-3.85a23.1 23.1 0 0 0-3.86-.3Zm-4 2.26c.77 0 1.39.64 1.39 1.42 0 .78-.62 1.4-1.39 1.4a1.4 1.4 0 0 1-1.39-1.4c0-.78.62-1.42 1.4-1.42Z" />
    <path fill="url(#py-b)"
        d="M47.22 31.5v3.28c0 2.55-2.16 4.7-4.62 4.7h-7.4a3.78 3.78 0 0 0-3.7 3.76v7.05c0 2 1.75 3.18 3.7 3.76 2.35.69 4.6.81 7.4 0 1.86-.54 3.7-1.63 3.7-3.76v-2.83h-7.4v-.94H50c2.15 0 2.96-1.5 3.7-3.75.78-2.32.74-4.55 0-7.52-.53-2.14-1.54-3.75-3.7-3.75h-2.78Zm-4.15 17.84c.76 0 1.39.63 1.39 1.41a1.4 1.4 0 0 1-1.4 1.42 1.4 1.4 0 0 1-1.38-1.42c0-.78.62-1.4 1.39-1.4Z" />
    <rect width="76.58" height="76.58" x=".64" y=".81" stroke="#fff" stroke-width=".53" rx="16.6" />
    <defs>
        <linearGradient id="py-a" x1="23.58" x2="40.65" y1="23.59" y2="38.13" gradientUnits="userSpaceOnUse">
            <stop stop-color="#5A9FD4" />
            <stop offset="1" stop-color="#306998" />
        </linearGradient>
        <linearGradient id="py-b" x1="42.89" x2="36.77" y1="50.51" y2="41.93" gradientUnits="userSpaceOnUse">
            <stop stop-color="#FFD43B" />
            <stop offset="1" stop-color="#FFE873" />
        </linearGradient>
    </defs>
</svg>