<svg xmlns="http://www.w3.org/2000/svg" viewBox="0 0 77 77" fill="none">
    <rect width="76.58" height="76.58" x=".87" y=".53" fill="#fff" rx="16.6" />
    <path fill="#00D8FF" d="M39.15 42.12a3.33 3.33 0 1 0 0-6.66 3.33 3.33 0 0 0 0 6.66Z" />
    <path stroke="#00D8FF" stroke-width="1.59"
        d="M39.15 32.02c4.47 0 8.63.64 11.76 1.72 3.77 1.3 6.1 3.27 6.1 5.05 0 1.86-2.47 3.95-6.52 5.29-3.06 1.01-7.1 1.54-11.34 1.54-4.35 0-8.47-.5-11.56-1.55-3.92-1.34-6.28-3.46-6.28-5.28 0-1.77 2.21-3.72 5.93-5.02 3.14-1.1 7.4-1.75 11.91-1.75Z"
        clip-rule="evenodd" />
    <path stroke="#00D8FF" stroke-width="1.59"
        d="M33.26 35.42a37.36 37.36 0 0 1 7.36-9.32c3.01-2.62 5.88-3.65 7.42-2.76 1.61.93 2.2 4.1 1.33 8.29-.65 3.16-2.2 6.91-4.32 10.59-2.18 3.77-4.66 7.09-7.13 9.24-3.12 2.73-6.13 3.72-7.71 2.8-1.53-.88-2.12-3.77-1.38-7.64.62-3.27 2.18-7.29 4.43-11.2Z"
        clip-rule="evenodd" />
    <path stroke="#00D8FF" stroke-width="1.59"
        d="M33.27 42.23a37.37 37.37 0 0 1-4.4-11.03c-.77-3.92-.23-6.91 1.31-7.8 1.61-.94 4.65.14 7.84 2.97 2.42 2.15 4.9 5.37 7.02 9.04 2.18 3.77 3.82 7.58 4.45 10.8.8 4.06.15 7.16-1.42 8.07-1.53.89-4.33-.05-7.32-2.62-2.52-2.17-5.22-5.52-7.48-9.43Z"
        clip-rule="evenodd" />
    <rect width="76.58" height="76.58" x=".87" y=".53" stroke="#fff" stroke-width=".53" rx="16.6" />
</svg>