<svg xmlns="http://www.w3.org/2000/svg" viewBox="0 0 77 77" fill="none">
    <rect width="76.58" height="76.58" x="1.22" y=".81" fill="#fff" rx="16.6" />
    <g clip-path="url(#s-a)">
        <path fill="#FF3E00"
            d="M50.69 27.75c-2.85-4.11-8.53-5.32-12.61-2.73l-7.2 4.6a8.18 8.18 0 0 0-3.71 5.53 8.56 8.56 0 0 0 .86 5.57 7.9 7.9 0 0 0-1.23 3.09 8.8 8.8 0 0 0 1.5 6.64c2.87 4.11 8.52 5.31 12.6 2.72l7.2-4.57a8.18 8.18 0 0 0 3.71-5.52 8.56 8.56 0 0 0-.86-5.58 8.62 8.62 0 0 0-.26-9.76Z" />
        <path fill="#fff"
            d="M37.37 50.85a5.7 5.7 0 0 1-6.12-2.28 5.3 5.3 0 0 1-.92-4l.16-.68.13-.42.37.26c.86.63 1.8 1.1 2.82 1.41l.27.08-.03.26a1.73 1.73 0 0 0 2.15 1.78c.15-.05.3-.1.44-.18l7.17-4.58c.36-.24.6-.58.68-1 .08-.41-.03-.86-.26-1.2a1.72 1.72 0 0 0-2.3-.5l-2.75 1.76a5.7 5.7 0 0 1-7.59-1.65 5.28 5.28 0 0 1-.89-4 4.95 4.95 0 0 1 2.25-3.32l7.2-4.58c.44-.3.94-.5 1.46-.66a5.7 5.7 0 0 1 6.12 2.28 5.3 5.3 0 0 1 .73 4.68l-.13.42-.36-.26a9.54 9.54 0 0 0-2.83-1.41l-.26-.08.03-.26a1.72 1.72 0 0 0-2.59-1.57l-7.17 4.57c-.37.24-.6.58-.68 1-.08.42.02.86.26 1.2.42.6 1.15.87 1.86.68.15-.05.31-.1.44-.18l2.75-1.75c.44-.3.94-.5 1.46-.66a5.7 5.7 0 0 1 6.13 2.28 5.3 5.3 0 0 1 .91 4 4.95 4.95 0 0 1-2.25 3.32l-7.2 4.58c-.44.29-.93.5-1.46.66Z" />
    </g>
    <rect width="76.58" height="76.58" x="1.22" y=".81" stroke="#fff" stroke-width=".53" rx="16.6" />
    <defs>
        <clipPath id="s-a">
            <path fill="#fff" d="M0 0h25.66v30.87H0z" transform="translate(26.67 23.66)" />
        </clipPath>
    </defs>
</svg>