<?xml version="1.0"?>
<svg xmlns="http://www.w3.org/2000/svg" xmlns:xlink="http://www.w3.org/1999/xlink" xmlns:svgjs="http://svgjs.com/svgjs" version="1.1" width="512" height="512" x="0" y="0" viewBox="0 0 475.293 475.293" style="enable-background:new 0 0 512 512" xml:space="preserve" class=""><g><path xmlns="http://www.w3.org/2000/svg" d="m430.734 415.882h-386.175c-24.571 0-44.559-19.988-44.559-44.559v-74.265c0-8.21 6.643-14.853 14.853-14.853 24.571 0 44.559-19.988 44.559-44.559s-19.988-44.559-44.559-44.559c-8.21.001-14.853-6.642-14.853-14.852v-74.265c0-24.571 19.988-44.559 44.559-44.559h386.176c24.571 0 44.559 19.988 44.559 44.559v74.265c0 8.21-6.643 14.853-14.853 14.853-24.571 0-44.559 19.988-44.559 44.559s19.988 44.559 44.559 44.559c8.21 0 14.853 6.643 14.853 14.853v74.265c-.001 24.57-19.988 44.558-44.56 44.558zm-401.028-105.465v60.906c0 8.195 6.658 14.853 14.853 14.853h386.176c8.195 0 14.853-6.658 14.853-14.853v-60.906c-33.854-6.904-59.412-36.9-59.412-72.771s25.557-65.866 59.412-72.771v-60.905c0-8.195-6.658-14.853-14.853-14.853h-386.176c-8.195 0-14.853 6.658-14.853 14.853v60.906c33.854 6.904 59.412 36.9 59.412 72.771s-25.558 65.866-59.412 72.77z" fill="#0d102b" data-original="#000000" style="" class=""/><path xmlns="http://www.w3.org/2000/svg" d="m-253.192 288.847h253.806v29.716h-253.806z" transform="matrix(.351 -.936 .936 .351 -2.301 12.678)" fill="#0d102b" data-original="#000000" style="" class=""/><path xmlns="http://www.w3.org/2000/svg" id="path-1_20_" d="m163.382 237.647c-24.571 0-44.559-19.988-44.559-44.559s19.988-44.559 44.559-44.559 44.559 19.988 44.559 44.559-19.988 44.559-44.559 44.559zm0-59.412c-8.195 0-14.853 6.658-14.853 14.853s6.658 14.853 14.853 14.853 14.853-6.658 14.853-14.853-6.658-14.853-14.853-14.853z" transform="translate(4 5)" fill="#0d102b" data-original="#000000" style="" class=""/><path xmlns="http://www.w3.org/2000/svg" id="path-1_19_" d="m311.911 326.764c-24.571 0-44.559-19.988-44.559-44.559s19.988-44.559 44.559-44.559 44.559 19.988 44.559 44.559-19.988 44.559-44.559 44.559zm0-59.412c-8.195 0-14.853 6.658-14.853 14.853s6.658 14.853 14.853 14.853 14.853-6.658 14.853-14.853-6.658-14.853-14.853-14.853z" transform="translate(9 8)" fill="#0d102b" data-original="#000000" style="" class=""/></g></svg>
