<?xml version="1.0" encoding="UTF-8"?>
<svg width="18px" height="16px" viewBox="0 0 18 16" version="1.1" xmlns="http://www.w3.org/2000/svg" xmlns:xlink="http://www.w3.org/1999/xlink">
    <title>incognito</title>
    <defs>
        <filter id="filter-1">
            <feColorMatrix in="SourceGraphic" type="matrix" values="0 0 0 0 0.050980 0 0 0 0 0.062745 0 0 0 0 0.160784 0 0 0 1.000000 0"></feColorMatrix>
        </filter>
    </defs>
    <g id="Page-1" stroke="none" stroke-width="1" fill="none" fill-rule="evenodd">
        <g id="Landing-feedback-Copy-2" transform="translate(-112.000000, -43.000000)">
            <g id="system/incognito" transform="translate(111.000000, 41.000000)" filter="url(#filter-1)">
                <g>
                    <path d="M13.9789836,11.6680908 C15.7048734,11.6680908 17.1039836,13.067201 17.1039836,14.7930908 C17.1039836,16.5189807 15.7048734,17.9180908 13.9789836,17.9180908 C12.2530937,17.9180908 10.8539836,16.5189807 10.8539836,14.7930908 L10.8550317,14.8631792 L10.8088454,14.8383007 C10.5611881,14.7203726 10.2889795,14.6580775 10.006619,14.6580775 C9.72904149,14.6580775 9.46126879,14.7182722 9.2169267,14.8323921 L9.1852456,14.8502196 C9.15850374,16.5530233 7.76981101,17.9251607 6.06063843,17.9251607 C4.33474858,17.9251607 2.93563843,16.5260506 2.93563843,14.8001607 C2.93563843,13.0742709 4.33474858,11.6751607 6.06063843,11.6751607 C7.3595,11.6751607 8.47328363,12.4675736 8.94492427,13.5953341 C9.28078225,13.4718672 9.63937371,13.4080775 10.006619,13.4080775 C10.3813197,13.4080775 10.7469696,13.4744867 11.0897818,13.6014249 C11.5570628,12.4671189 12.6747117,11.6680908 13.9789836,11.6680908 Z M6.06063843,12.9251607 C5.02510452,12.9251607 4.18563843,13.7646268 4.18563843,14.8001607 C4.18563843,15.8356946 5.02510452,16.6751607 6.06063843,16.6751607 C7.09617233,16.6751607 7.93563843,15.8356946 7.93563843,14.8001607 C7.93563843,13.7646268 7.09617233,12.9251607 6.06063843,12.9251607 Z M13.9789836,12.9180908 C12.9434497,12.9180908 12.1039836,13.7575569 12.1039836,14.7930908 C12.1039836,15.8286247 12.9434497,16.6680908 13.9789836,16.6680908 C15.0145175,16.6680908 15.8539836,15.8286247 15.8539836,14.7930908 C15.8539836,13.7575569 15.0145175,12.9180908 13.9789836,12.9180908 Z M2.09503174,10.625 C1.74985377,10.625 1.47003174,10.345178 1.47003174,10 C1.47003174,9.68358686 1.70515997,9.42209087 2.01022294,9.38070551 L2.09503174,9.375 L3.65203174,9.3741792 L4.61261686,3.80777464 C4.74151385,3.06077598 5.41738188,2.54523919 6.158151,2.60135122 L6.29768808,2.61865429 C6.54747605,2.661756 6.78171616,2.76922034 6.97730953,2.93045005 L6.97730953,2.93045005 L8.14468304,3.89272856 C9.23748039,4.79353314 10.814143,4.79791581 11.9119314,3.90320044 L11.9119314,3.90320044 L13.1117836,2.92530134 C13.7361081,2.41646673 14.6547151,2.51008978 15.1635497,3.13441428 C15.3246517,3.33208153 15.4311068,3.56853668 15.4722948,3.82019071 L15.4722948,3.82019071 L16.3810317,9.3741792 L17.9283651,9.375 C18.273543,9.375 18.5533651,9.65482203 18.5533651,10 C18.5533651,10.3164131 18.3182368,10.5779091 18.0131739,10.6192945 L17.9283651,10.625 L2.09503174,10.625 Z M14.1946015,3.92412276 C14.1219109,3.83493355 13.9906813,3.82155883 13.9014921,3.89424948 L13.9014921,3.89424948 L12.7016398,4.87214859 C11.1420381,6.14324938 8.90211114,6.13702302 7.3496,4.85727144 L7.3496,4.85727144 L6.18222649,3.89499293 C6.15428458,3.87196011 6.1208217,3.85660806 6.08513771,3.85045068 C5.97175398,3.83088596 5.86397797,3.90694129 5.84441325,4.02032501 L5.84441325,4.02032501 L4.92,9.375 L15.1141667,9.375 L14.238708,4.02209082 C14.2347853,3.99812377 14.2267187,3.97512173 14.2149577,3.95408317 L14.2149577,3.95408317 Z" id="Combined-Shape" fill="#202659"></path>
                </g>
            </g>
        </g>
    </g>
</svg>