<?xml version="1.0" encoding="UTF-8" standalone="no"?>
<svg
   xmlns:dc="http://purl.org/dc/elements/1.1/"
   xmlns:cc="http://creativecommons.org/ns#"
   xmlns:rdf="http://www.w3.org/1999/02/22-rdf-syntax-ns#"
   xmlns:svg="http://www.w3.org/2000/svg"
   xmlns="http://www.w3.org/2000/svg"
   xmlns:sodipodi="http://sodipodi.sourceforge.net/DTD/sodipodi-0.dtd"
   xmlns:inkscape="http://www.inkscape.org/namespaces/inkscape"
   viewBox="0 0 18 16"
   version="1.1"
   id="svg893"
   sodipodi:docname="incognito (1).svg"
   inkscape:version="1.0.2 (e86c8708, 2021-01-15)">
  <metadata
     id="metadata897">
    <rdf:RDF>
      <cc:Work
         rdf:about="">
        <dc:format>image/svg+xml</dc:format>
        <dc:type
           rdf:resource="http://purl.org/dc/dcmitype/StillImage" />
      </cc:Work>
    </rdf:RDF>
  </metadata>
  <sodipodi:namedview
     pagecolor="#ffffff"
     bordercolor="#666666"
     borderopacity="1"
     objecttolerance="10"
     gridtolerance="10"
     guidetolerance="10"
     inkscape:pageopacity="0"
     inkscape:pageshadow="2"
     inkscape:window-width="1920"
     inkscape:window-height="1027"
     id="namedview895"
     showgrid="false"
     inkscape:zoom="39.555556"
     inkscape:cx="5.7708924"
     inkscape:cy="7.7630549"
     inkscape:window-x="0"
     inkscape:window-y="25"
     inkscape:window-maximized="1"
     inkscape:current-layer="svg893" />
  <defs
     id="defs887">
    <filter
       id="a">
      <feColorMatrix
         in="SourceGraphic"
         values="0 0 0 0 0.050980 0 0 0 0 0.062745 0 0 0 0 0.160784 0 0 0 1.000000 0"
         id="feColorMatrix884" />
    </filter>
  </defs>
  <path
     fill="#202659"
     d="m 12.979,9.668 a 3.125,3.125 0 1 1 -3.125,3.125 l 0.001,0.07 -0.046,-0.025 a 1.86,1.86 0 0 0 -0.802,-0.18 c -0.278,0 -0.546,0.06 -0.79,0.174 L 8.185,12.85 a 3.125,3.125 0 1 1 -0.24,-1.255 3.115,3.115 0 0 1 2.145,0.006 3.124,3.124 0 0 1 2.889,-1.933 z m -7.918,1.257 a 1.875,1.875 0 1 0 0,3.75 1.875,1.875 0 0 0 0,-3.75 z m 7.918,-0.007 a 1.875,1.875 0 1 0 0,3.75 1.875,1.875 0 0 0 0,-3.75 z M 1.095,8.625 A 0.625,0.625 0 0 1 1.01,7.381 L 1.095,7.375 H 2.652 L 3.612,1.808 A 1.459,1.459 0 0 1 5.159,0.6 l 0.14,0.018 c 0.25,0.043 0.484,0.15 0.68,0.311 l 1.167,0.963 c 1.092,0.9 2.67,0.905 3.767,0.01 l 1.2,-0.978 a 1.458,1.458 0 0 1 2.36,0.895 l 0.909,5.554 1.547,10e-4 a 0.625,0.625 0 0 1 0.085,1.244 L 16.929,8.624 H 1.095 Z m 12.1,-6.7 a 0.208,0.208 0 0 0 -0.294,-0.03 l -1.2,0.977 A 4.221,4.221 0 0 1 6.35,2.857 L 5.182,1.895 A 0.208,0.208 0 0 0 4.844,2.02 L 3.92,7.375 H 14.114 L 13.239,2.022 A 0.208,0.208 0 0 0 13.215,1.954 Z"
     style="fill:#001aff;fill-opacity:1;fill-rule:evenodd;filter:url(#a)"
     id="path889" />
  <path
     style="fill:#0d102b;fill-opacity:1;stroke-width:0.143325;stroke-linecap:round"
     d="M 0.89490208,8.5728484 C 0.65369303,8.4868675 0.49097612,8.2587633 0.49196518,8.0079922 0.49293591,7.7618718 0.62449072,7.5515246 0.84113856,7.4496881 0.94921326,7.3988871 0.99291276,7.3964814 1.8078359,7.3964692 L 2.6613418,7.3964569 3.1503596,4.5629277 C 3.4193193,3.0044868 3.6616321,1.663499 3.6888321,1.5829549 3.8366376,1.1452787 4.2350611,0.77706971 4.6887005,0.65891169 4.8742732,0.61057616 5.2263784,0.61054443 5.4118229,0.65884647 5.6795901,0.728591 5.8466195,0.83968989 6.5218071,1.3971482 c 0.3656485,0.3018921 0.733074,0.5966745 0.816501,0.6550719 0.8021755,0.5615095 1.8633496,0.6803083 2.8113279,0.3147292 0.333906,-0.1287679 0.599105,-0.3097816 1.335382,-0.9114787 0.382827,-0.3128511 0.761132,-0.60588 0.84068,-0.65117536 0.42524,-0.24213596 0.946917,-0.25120693 1.383397,-0.0240546 0.309931,0.1612942 0.628019,0.55650256 0.716959,0.89078636 0.02401,0.090244 0.938939,5.6468113 0.938939,5.7023883 0,0.013435 0.356276,0.023298 0.853231,0.023622 0.776053,5.056e-4 0.862562,0.00479 0.956397,0.047411 0.307313,0.1395736 0.445038,0.5011982 0.304278,0.7989442 -0.07182,0.151923 -0.166186,0.2448099 -0.318962,0.3139658 -0.113694,0.051465 -0.118675,0.051496 -8.1404491,0.050942 C 2.2589554,8.6078331 0.97735937,8.602241 0.89490208,8.5728484 Z M 14.125855,7.3775212 C 14.125653,7.3670928 13.927629,6.1494474 13.685808,4.6716426 13.391875,2.8753668 13.232674,1.9641803 13.205525,1.9227461 13.160273,1.8536825 13.069148,1.821674 12.980864,1.8438319 12.948806,1.8518779 12.621735,2.1039214 12.254038,2.4039287 11.886342,2.703936 11.483111,3.0180209 11.357971,3.101895 10.119684,3.9318457 8.511205,4.0320225 7.1672836,3.3628932 6.7907584,3.175424 6.551812,3.0048115 5.821489,2.4019691 5.4738959,2.1150496 5.1703251,1.8700343 5.146887,1.8574907 5.0375984,1.7990012 4.8691538,1.8729123 4.8396778,1.9922899 c -0.020235,0.08195 -0.9269315,5.3394021 -0.9269315,5.374782 0,0.022262 1.2411202,0.02941 5.1067416,0.02941 2.8087081,0 5.1065731,-0.00853 5.1063671,-0.018961 z"
     id="path902" />
  <path
     style="fill:#0d102b;fill-opacity:1;stroke-width:0.143325;stroke-linecap:round"
     d="M 4.7036731,15.888352 C 3.5250326,15.751136 2.4907183,14.9162 2.12057,13.803177 1.9916017,13.415374 1.9585506,13.209498 1.9585506,12.793954 c 0,-0.824674 0.2841626,-1.537885 0.8477713,-2.127796 0.9579538,-1.0026579 2.4206537,-1.26191 3.6471547,-0.646429 0.5811424,0.291628 1.0917718,0.803297 1.3872696,1.390096 0.050764,0.100807 0.1063762,0.183139 0.1235819,0.18296 0.017206,-1.8e-4 0.1014558,-0.02233 0.1872223,-0.04922 0.199197,-0.06245 0.6352844,-0.127422 0.855297,-0.127422 0.2356905,0 0.6662457,0.06725 0.8943942,0.139702 0.1047834,0.03327 0.1925144,0.05812 0.1949564,0.0552 0.0024,-0.0029 0.04691,-0.09062 0.09881,-0.194904 0.330227,-0.663484 0.889366,-1.192901 1.567324,-1.4840095 0.956546,-0.4107316 2.062431,-0.3058589 2.940774,0.2788775 0.620014,0.41276 1.086278,1.063502 1.280115,1.786592 0.444348,1.657601 -0.560386,3.371388 -2.23138,3.806092 -0.740305,0.192588 -1.509454,0.103361 -2.204805,-0.255773 C 10.860599,15.193389 10.323737,14.580827 10.055645,13.846237 9.963926,13.594921 9.8790364,13.186783 9.8790364,12.997125 v -0.142816 l -0.1129669,-0.04997 c -0.4425748,-0.195772 -1.1076616,-0.197495 -1.5034103,-0.0039 -0.089652,0.04386 -0.090158,0.04504 -0.1055369,0.246316 -0.099187,1.298104 -1.0555534,2.437936 -2.3132076,2.756966 -0.4142743,0.10509 -0.7502569,0.130024 -1.1402436,0.08462 z m 0.8166866,-1.261185 c 0.3083197,-0.07742 0.5898438,-0.231458 0.8217611,-0.449629 0.426369,-0.401097 0.6288515,-0.904155 0.5971839,-1.483674 -0.077851,-1.42467 -1.6362091,-2.241248 -2.865599,-1.501572 -0.4423393,0.266139 -0.7749564,0.751958 -0.8693226,1.269729 -0.043973,0.241272 -0.019478,0.662232 0.051678,0.888113 0.2007626,0.637308 0.7110959,1.122679 1.3438005,1.27807 0.2608233,0.06406 0.6630687,0.0636 0.9204978,-10e-4 z m 7.8420093,0.01 c 0.39184,-0.08094 0.716678,-0.264432 0.994408,-0.561725 0.199339,-0.21338 0.30823,-0.394046 0.41032,-0.680784 0.07517,-0.211118 0.07882,-0.239253 0.07802,-0.600705 -7.45e-4,-0.338739 -0.0078,-0.399901 -0.06578,-0.573033 -0.104121,-0.310744 -0.233036,-0.515931 -0.473858,-0.754214 -0.370461,-0.366557 -0.732058,-0.528237 -1.231024,-0.550424 -0.897234,-0.0399 -1.637507,0.486964 -1.910064,1.359412 -0.08497,0.271976 -0.08475,0.762288 4.55e-4,1.035626 0.169625,0.544149 0.491941,0.92842 0.976827,1.164592 0.400315,0.194981 0.801097,0.247924 1.22069,0.161255 z"
     id="path904" />
</svg>
