<?xml version="1.0" encoding="UTF-8" standalone="no"?>
<svg
   xmlns:dc="http://purl.org/dc/elements/1.1/"
   xmlns:cc="http://creativecommons.org/ns#"
   xmlns:rdf="http://www.w3.org/1999/02/22-rdf-syntax-ns#"
   xmlns:svg="http://www.w3.org/2000/svg"
   xmlns="http://www.w3.org/2000/svg"
   xmlns:sodipodi="http://sodipodi.sourceforge.net/DTD/sodipodi-0.dtd"
   xmlns:inkscape="http://www.inkscape.org/namespaces/inkscape"
   height="512pt"
   viewBox="0 -1 512.92212 512"
   width="512pt"
   id="svg4136"
   version="1.1"
   inkscape:version="0.91 r13725"
   sodipodi:docname="shield.svg">
  <metadata
     id="metadata4164">
    <rdf:RDF>
      <cc:Work
         rdf:about="">
        <dc:format>image/svg+xml</dc:format>
        <dc:type
           rdf:resource="http://purl.org/dc/dcmitype/StillImage" />
      </cc:Work>
    </rdf:RDF>
  </metadata>
  <defs
     id="defs4162" />
  <sodipodi:namedview
     pagecolor="#ffffff"
     bordercolor="#666666"
     borderopacity="1"
     objecttolerance="10"
     gridtolerance="10"
     guidetolerance="10"
     inkscape:pageopacity="0"
     inkscape:pageshadow="2"
     inkscape:window-width="1920"
     inkscape:window-height="1017"
     id="namedview4160"
     showgrid="false"
     inkscape:zoom="0.47729708"
     inkscape:cx="-326.02222"
     inkscape:cy="220.53402"
     inkscape:window-x="-8"
     inkscape:window-y="-8"
     inkscape:window-maximized="1"
     inkscape:current-layer="svg4136" />
  <path
     d="m276.511719 77.839844c-1.269531 0-2.550781-.304688-3.71875-.921875l-16.335938-8.589844-16.335937 8.589844c-2.6875 1.417969-5.960938 1.183593-8.425782-.605469-2.464843-1.792969-3.695312-4.824219-3.183593-7.824219l3.121093-18.191406-13.214843-12.882813c-2.175781-2.128906-2.96875-5.304687-2.027344-8.199218.945313-2.894532 3.449219-5.007813 6.464844-5.449219l18.265625-2.65625 8.167968-16.550781c2.695313-5.464844 11.648438-5.464844 14.34375 0l8.167969 16.550781 18.261719 2.65625c3.019531.441406 5.523438 2.554687 6.464844 5.449219.945312 2.894531.160156 6.070312-2.023438 8.199218l-13.214844 12.890626 3.121094 18.191406c.511719 3-.722656 6.03125-3.1875 7.824218-1.398437 1-3.054687 1.519532-4.710937 1.519532zm-20.054688-26.554688c1.28125 0 2.558594.304688 3.71875.921875l5.710938 3-1.09375-6.359375c-.441407-2.59375.414062-5.242187 2.304687-7.082031l4.621094-4.503906-6.382812-.925781c-2.609376-.375-4.855469-2.015626-6.023438-4.375l-2.855469-5.792969-2.855469 5.792969c-1.167968 2.359374-3.417968 4-6.023437 4.375l-6.386719.925781 4.625 4.503906c1.878906 1.839844 2.742188 4.488281 2.304688 7.082031l-1.097656 6.359375 5.714843-3c1.15625-.617187 2.4375-.921875 3.71875-.921875zm0 0"
     id="path4138"
     style="fill:#434875;fill-opacity:1;stroke:#ffffff;stroke-opacity:1;stroke-width:4.00720404;stroke-miterlimit:4;stroke-dasharray:none" />
  <path
     d="m124.511719 141.839844c-1.269531 0-2.550781-.304688-3.71875-.921875l-16.335938-8.589844-16.335937 8.589844c-2.695313 1.417969-5.953125 1.175781-8.425782-.605469-2.464843-1.792969-3.695312-4.824219-3.183593-7.824219l3.121093-18.191406-13.214843-12.882813c-2.175781-2.128906-2.96875-5.304687-2.027344-8.199218.945313-2.894532 3.449219-5.007813 6.464844-5.449219l18.265625-2.65625 8.167968-16.550781c2.695313-5.464844 11.648438-5.464844 14.34375 0l8.167969 16.550781 18.261719 2.65625c3.019531.441406 5.523438 2.554687 6.464844 5.449219.945312 2.894531.160156 6.070312-2.023438 8.199218l-13.214844 12.890626 3.121094 18.191406c.511719 3-.722656 6.03125-3.1875 7.824218-1.398437 1-3.054687 1.519532-4.710937 1.519532zm-20.054688-26.554688c1.28125 0 2.558594.304688 3.71875.921875l5.710938 3-1.09375-6.359375c-.441407-2.59375.414062-5.242187 2.304687-7.082031l4.621094-4.503906-6.382812-.925781c-2.609376-.375-4.855469-2.015626-6.023438-4.375l-2.855469-5.792969-2.855469 5.792969c-1.167968 2.359374-3.417968 4-6.023437 4.375l-6.386719.925781 4.625 4.503906c1.878906 1.839844 2.742188 4.488281 2.304688 7.082031l-1.097656 6.359375 5.714843-3c1.15625-.617187 2.4375-.921875 3.71875-.921875zm0 0"
     id="path4140"
     style="fill:#434875;fill-opacity:1;stroke:#ffffff;stroke-opacity:1;stroke-width:4.00720404;stroke-miterlimit:4;stroke-dasharray:none" />
  <path
     d="m428.511719 141.839844c-1.269531 0-2.550781-.304688-3.71875-.921875l-16.335938-8.589844-16.335937 8.589844c-2.6875 1.417969-5.960938 1.175781-8.425782-.605469-2.464843-1.792969-3.695312-4.824219-3.183593-7.824219l3.121093-18.191406-13.214843-12.882813c-2.175781-2.128906-2.96875-5.304687-2.027344-8.199218.945313-2.894532 3.449219-5.007813 6.464844-5.449219l18.265625-2.65625 8.167968-16.550781c2.695313-5.464844 11.648438-5.464844 14.34375 0l8.167969 16.550781 18.261719 2.65625c3.019531.441406 5.523438 2.554687 6.464844 5.449219.945312 2.894531.160156 6.070312-2.023438 8.199218l-13.214844 12.890626 3.121094 18.191406c.511719 3-.722656 6.03125-3.1875 7.824218-1.398437 1-3.054687 1.519532-4.710937 1.519532zm-20.054688-26.554688c1.28125 0 2.558594.304688 3.71875.921875l5.710938 3-1.09375-6.359375c-.441407-2.59375.414062-5.242187 2.304687-7.082031l4.621094-4.503906-6.382812-.925781c-2.609376-.375-4.855469-2.015626-6.023438-4.375l-2.855469-5.792969-2.855469 5.792969c-1.167968 2.359374-3.417968 4-6.023437 4.375l-6.386719.925781 4.625 4.503906c1.878906 1.839844 2.742188 4.488281 2.304688 7.082031l-1.097656 6.359375 5.714843-3c1.15625-.617187 2.4375-.921875 3.71875-.921875zm0 0"
     id="path4142"
     style="fill:#434875;fill-opacity:1;stroke:#ffffff;stroke-opacity:1;stroke-width:4.00720404;stroke-miterlimit:4;stroke-dasharray:none" />
  <path
     d="m124.511719 445.839844c-1.269531 0-2.550781-.304688-3.71875-.921875l-16.335938-8.589844-16.335937 8.589844c-2.695313 1.410156-5.953125 1.183593-8.425782-.605469-2.464843-1.792969-3.695312-4.824219-3.183593-7.824219l3.121093-18.191406-13.214843-12.882813c-2.175781-2.128906-2.96875-5.304687-2.027344-8.199218.945313-2.894532 3.449219-5.007813 6.464844-5.449219l18.265625-2.65625 8.167968-16.550781c2.695313-5.464844 11.648438-5.464844 14.34375 0l8.167969 16.550781 18.261719 2.65625c3.019531.441406 5.523438 2.554687 6.464844 5.449219.945312 2.894531.160156 6.070312-2.023438 8.199218l-13.214844 12.890626 3.121094 18.191406c.511719 3-.722656 6.03125-3.1875 7.824218-1.398437 1-3.054687 1.519532-4.710937 1.519532zm-20.054688-26.554688c1.28125 0 2.558594.304688 3.71875.921875l5.710938 3-1.09375-6.359375c-.441407-2.59375.414062-5.242187 2.304687-7.082031l4.621094-4.503906-6.382812-.925781c-2.609376-.375-4.855469-2.015626-6.023438-4.375l-2.855469-5.792969-2.855469 5.792969c-1.167968 2.359374-3.417968 4-6.023437 4.375l-6.386719.925781 4.625 4.503906c1.878906 1.839844 2.742188 4.488281 2.304688 7.082031l-1.097656 6.359375 5.714843-3c1.15625-.617187 2.4375-.921875 3.71875-.921875zm0 0"
     id="path4144"
     style="fill:#434875;fill-opacity:1;stroke:#ffffff;stroke-opacity:1;stroke-width:4.00720404;stroke-miterlimit:4;stroke-dasharray:none" />
  <path
     d="m428.511719 445.839844c-1.269531 0-2.550781-.304688-3.71875-.921875l-16.335938-8.589844-16.335937 8.589844c-2.6875 1.410156-5.960938 1.183593-8.425782-.605469-2.464843-1.792969-3.695312-4.824219-3.183593-7.824219l3.121093-18.191406-13.214843-12.882813c-2.175781-2.128906-2.96875-5.304687-2.027344-8.199218.945313-2.894532 3.449219-5.007813 6.464844-5.449219l18.265625-2.65625 8.167968-16.550781c2.695313-5.464844 11.648438-5.464844 14.34375 0l8.167969 16.550781 18.261719 2.65625c3.019531.441406 5.523438 2.554687 6.464844 5.449219.945312 2.894531.160156 6.070312-2.023438 8.199218l-13.214844 12.890626 3.121094 18.191406c.511719 3-.722656 6.03125-3.1875 7.824218-1.398437 1-3.054687 1.519532-4.710937 1.519532zm-20.054688-26.554688c1.28125 0 2.558594.304688 3.71875.921875l5.710938 3-1.09375-6.359375c-.441407-2.59375.414062-5.242187 2.304687-7.082031l4.621094-4.503906-6.382812-.925781c-2.609376-.375-4.855469-2.015626-6.023438-4.375l-2.855469-5.792969-2.855469 5.792969c-1.167968 2.359374-3.417968 4-6.023437 4.375l-6.386719.925781 4.625 4.503906c1.878906 1.839844 2.742188 4.488281 2.304688 7.082031l-1.097656 6.359375 5.714843-3c1.15625-.617187 2.4375-.921875 3.71875-.921875zm0 0"
     id="path4146"
     style="fill:#434875;fill-opacity:1;stroke:#ffffff;stroke-opacity:1;stroke-width:4.00720404;stroke-miterlimit:4;stroke-dasharray:none" />
  <path
     d="m492.511719 293.839844c-1.269531 0-2.550781-.304688-3.71875-.921875l-16.335938-8.589844-16.335937 8.589844c-2.695313 1.417969-5.960938 1.175781-8.425782-.605469-2.464843-1.792969-3.695312-4.824219-3.183593-7.824219l3.121093-18.191406-13.214843-12.882813c-2.175781-2.128906-2.96875-5.304687-2.027344-8.199218.945313-2.894532 3.449219-5.007813 6.464844-5.449219l18.265625-2.65625 8.167968-16.550781c2.695313-5.464844 11.648438-5.464844 14.34375 0l8.167969 16.550781 18.261719 2.65625c3.019531.441406 5.523438 2.554687 6.464844 5.449219.945312 2.894531.160156 6.070312-2.023438 8.199218l-13.214844 12.890626 3.121094 18.191406c.511719 3-.722656 6.03125-3.1875 7.824218-1.398437 1-3.054687 1.519532-4.710937 1.519532zm-20.054688-26.554688c1.28125 0 2.558594.304688 3.71875.921875l5.710938 3-1.09375-6.359375c-.441407-2.59375.414062-5.242187 2.304687-7.082031l4.621094-4.503906-6.382812-.925781c-2.609376-.375-4.855469-2.015626-6.023438-4.375l-2.855469-5.792969-2.855469 5.792969c-1.167968 2.359374-3.417968 4-6.023437 4.375l-6.386719.925781 4.625 4.503906c1.878906 1.839844 2.742188 4.488281 2.304688 7.082031l-1.097656 6.359375 5.714843-3c1.15625-.617187 2.4375-.921875 3.71875-.921875zm0 0"
     id="path4148"
     style="fill:#434875;fill-opacity:1;stroke:#ffffff;stroke-opacity:1;stroke-width:4.00720404;stroke-miterlimit:4;stroke-dasharray:none" />
  <path
     d="m60.511719 293.839844c-1.269531 0-2.550781-.304688-3.71875-.921875l-16.335938-8.589844-16.335937 8.589844c-2.6875 1.417969-5.953125 1.175781-8.425782-.605469-2.464843-1.792969-3.695312-4.824219-3.183593-7.824219l3.121093-18.191406-13.214843-12.882813c-2.175781-2.128906-2.96875-5.304687-2.027344-8.199218.945313-2.894532 3.449219-5.007813 6.464844-5.449219l18.265625-2.65625 8.167968-16.550781c2.695313-5.464844 11.648438-5.464844 14.34375 0l8.167969 16.550781 18.261719 2.65625c3.019531.441406 5.523438 2.554687 6.464844 5.449219.945312 2.894531.160156 6.070312-2.023438 8.199218l-13.214844 12.890626 3.121094 18.191406c.511719 3-.722656 6.03125-3.1875 7.824218-1.398437 1-3.054687 1.519532-4.710937 1.519532zm-20.054688-26.554688c1.28125 0 2.558594.304688 3.71875.921875l5.710938 3-1.09375-6.359375c-.441407-2.59375.414062-5.242187 2.304687-7.082031l4.621094-4.503906-6.382812-.925781c-2.609376-.375-4.855469-2.015626-6.023438-4.375l-2.855469-5.792969-2.855469 5.792969c-1.167968 2.359374-3.417968 4-6.023437 4.375l-6.386719.925781 4.625 4.503906c1.878906 1.839844 2.742188 4.488281 2.304688 7.082031l-1.097656 6.359375 5.714843-3c1.15625-.617187 2.4375-.921875 3.71875-.921875zm0 0"
     id="path4150"
     style="fill:#434875;fill-opacity:1;stroke:#ffffff;stroke-opacity:1;stroke-width:4.00720404;stroke-miterlimit:4;stroke-dasharray:none" />
  <path
     d="m276.511719 509.839844c-1.269531 0-2.550781-.304688-3.71875-.921875l-16.335938-8.589844-16.335937 8.589844c-2.6875 1.417969-5.960938 1.183593-8.425782-.605469-2.464843-1.792969-3.695312-4.824219-3.183593-7.824219l3.121093-18.191406-13.214843-12.882813c-2.175781-2.128906-2.96875-5.304687-2.027344-8.199218.945313-2.894532 3.449219-5.007813 6.464844-5.449219l18.265625-2.65625 8.167968-16.550781c2.695313-5.464844 11.648438-5.464844 14.34375 0l8.167969 16.550781 18.261719 2.65625c3.019531.441406 5.523438 2.554687 6.464844 5.449219.945312 2.894531.160156 6.070312-2.023438 8.199218l-13.214844 12.890626 3.121094 18.191406c.511719 3-.722656 6.03125-3.1875 7.824218-1.398437 1-3.054687 1.519532-4.710937 1.519532zm-20.054688-26.554688c1.28125 0 2.558594.304688 3.71875.921875l5.710938 3-1.09375-6.359375c-.441407-2.59375.414062-5.242187 2.304687-7.082031l4.621094-4.503906-6.382812-.925781c-2.609376-.375-4.855469-2.015626-6.023438-4.375l-2.855469-5.792969-2.855469 5.792969c-1.167968 2.359374-3.417968 4-6.023437 4.375l-6.386719.925781 4.625 4.503906c1.878906 1.839844 2.742188 4.488281 2.304688 7.082031l-1.097656 6.359375 5.714843-3c1.15625-.617187 2.4375-.921875 3.71875-.921875zm0 0"
     id="path4152"
     style="fill:#434875;fill-opacity:1;stroke:#ffffff;stroke-opacity:1;stroke-width:4.00720404;stroke-miterlimit:4;stroke-dasharray:none" />
  <path
     d="m256.914062 399.238281c-1.5625 0-3.128906-.457031-4.480468-1.367187l-52.800782-35.695313c-33.792968-22.855469-55.199218-59.273437-58.738281-99.914062l-6.863281-78.894531c-.277344-3.152344 1.335938-6.175782 4.113281-7.703126l114.902344-63.183593c2.402344-1.320313 5.3125-1.320313 7.714844 0l114.902343 63.183593c2.777344 1.527344 4.390626 4.550782 4.113282 7.703126l-6.863282 78.894531c-3.53125 40.640625-24.945312 77.058593-58.738281 99.90625l-52.800781 35.703125c-1.335938.910156-2.902344 1.367187-4.460938 1.367187zm-106.488281-212.0625 6.40625 73.695313c3.113281 35.816406 21.984375 67.902344 51.761719 88.039062l48.320312 32.671875 48.316407-32.671875c29.777343-20.136718 48.648437-52.222656 51.761719-88.03125l6.40625-73.703125-106.484376-58.5625zm0 0"
     id="path4154"
     style="fill:#434875;fill-opacity:1;stroke:#ffffff;stroke-opacity:1;stroke-width:0.80144081;stroke-miterlimit:4;stroke-dasharray:none" />
  <path
     d="m248.914062 288.367188c-2.121093 0-4.152343-.839844-5.65625-2.34375l-24-24 11.3125-11.3125 17.804688 17.808593 34.394531-41.273437 12.285157 10.242187-40 48c-1.4375 1.726563-3.535157 2.765625-5.78125 2.871094-.121094.007813-.242188.007813-.359376.007813zm0 0"
     id="path4156"
     style="fill:#434875;fill-opacity:1;stroke:#ffffff;stroke-opacity:1;stroke-width:0.80144081;stroke-miterlimit:4;stroke-dasharray:none" />
  <path
     d="m256.914062 336.367188c-44.113281 0-80-35.886719-80-80 0-44.113282 35.886719-80 80-80 44.109376 0 80 35.886718 80 80 0 44.113281-35.890624 80-80 80zm0-144c-35.289062 0-64 28.710937-64 64 0 35.289062 28.710938 64 64 64 35.285157 0 64-28.710938 64-64 0-35.289063-28.714843-64-64-64zm0 0"
     id="path4158"
     style="fill:#434875;fill-opacity:1;stroke:#ffffff;stroke-opacity:1;stroke-width:0.80144081;stroke-miterlimit:4;stroke-dasharray:none" />
</svg>
