<svg viewBox="0 0 48 48" fill="none" xmlns="http://www.w3.org/2000/svg">
  <path
    d="M31 35C31 38.3137 33.6863 41 37 41C40.3137 41 43 38.3137 43 35C43 31.6863 40.3137 29 37 29C33.6863 29 31 31.6863 31 35ZM31 35H17M17 35C17 38.3137 14.3137 41 11 41C7.68629 41 5 38.3137 5 35C5 31.6863 7.68629 29 11 29C14.3137 29 17 31.6863 17 35ZM27 18L34.4189 29.8727M21.4189 18L14.0001 29.8727M30 13C30 16.3137 27.3137 19 24 19C20.6863 19 18 16.3137 18 13C18 9.68629 20.6863 7 24 7C27.3137 7 30 9.68629 30 13Z"
    stroke="#0D102B" stroke-width="2.4" />
</svg>