<svg viewBox='0 0 57 47'>
  <g transform="translate(-4.000000, -9.000000)">
    <path
      d="M38.6666667,9.86666667 C40.5812538,9.86666667 42.1333333,11.4187462 42.1333333,13.3333333 L42.1333333,13.3333333 L42.1331769,16.5326667 L50.6666667,16.5333333 C53.2454628,16.5333333 55.328358,18.6868653 55.4600549,21.3709126 L55.4666667,21.6410256 L55.46732,27.0737459 C58.6422746,28.7848693 60.8,32.1404527 60.8,36 C60.8,41.5964855 56.2631521,46.1333333 50.6666667,46.1333333 C46.9621673,46.1333333 43.6196423,44.1270797 41.8434116,40.9871771 L41.8434116,40.9871771 L41.7413333,40.8 L22.2573333,40.8 L22.1565884,40.9871771 C20.4395654,44.0224163 17.2589273,45.9983235 13.7025321,46.1266781 L13.7025321,46.1266781 L13.3333333,46.1333333 C12.223716,46.1333333 11.1461868,45.9533534 10.1332961,45.6165305 L10.1333333,50.3589744 C10.1333333,52.2309233 11.4664075,53.7414195 13.1244574,53.8592641 L13.3333333,53.8666667 L50.6666667,53.8666667 C52.4201887,53.8666667 53.8666667,52.3089211 53.8666667,50.3589744 C53.8666667,49.9171466 54.2248389,49.5589744 54.6666667,49.5589744 C55.1084945,49.5589744 55.4666667,49.9171466 55.4666667,50.3589744 C55.4666667,53.0765861 53.4669584,55.3177829 50.9228394,55.4595483 L50.6666667,55.4666667 L13.3333333,55.4666667 C10.7545372,55.4666667 8.67164201,53.3131347 8.53994513,50.6290874 L8.53333333,50.3589744 L8.53333333,45.3164063 C8.53333333,45.1917882 8.56182698,45.0738251 8.61265467,44.9686767 C6.77627036,44.0015336 5.25256998,42.4776404 4.28748316,40.5714099 C4.01807649,40.0392804 4.40474147,39.4100878 5.00118242,39.4100576 L5.00118242,39.4100576 L12.9573333,39.4093333 L15.784,35.9986667 L12.9426667,32.3426667 L5.13087819,32.3431258 C4.56434815,32.3431367 4.19042877,31.77736 4.37909319,31.2685 L4.37909319,31.2685 L4.42826708,31.1605567 C6.19028731,27.9245719 9.58088797,25.8666667 13.3333333,25.8666667 C17.038374,25.8666667 20.3813066,27.8735078 22.1573287,31.01413 L22.1573287,31.01413 L22.2573333,31.2 L41.7413333,31.2 L41.8426713,31.01413 C43.5594927,27.9781952 46.7405048,26.0017158 50.2974142,25.8733238 L50.2974142,25.8733238 L50.6666667,25.8666667 C51.7848577,25.8666667 52.860747,26.0477821 53.8665992,26.3822777 L53.8666667,21.6410256 C53.8666667,19.7690767 52.5335925,18.2585805 50.8755426,18.1407359 L50.6666667,18.1333333 L13.3333333,18.1333333 C11.5798113,18.1333333 10.1333333,19.6910789 10.1333333,21.6410256 C10.1333333,22.0828534 9.77516113,22.4410256 9.33333333,22.4410256 C8.89150553,22.4410256 8.53333333,22.0828534 8.53333333,21.6410256 C8.53333333,18.9234139 10.5330416,16.6822171 13.0771606,16.5404517 L13.3333333,16.5333333 L21.8661769,16.5326667 L21.8666667,13.3333333 C21.8666667,11.4825658 23.3169988,9.97054142 25.143127,9.87179621 L25.3333333,9.86666667 Z M50.6666667,27.4666667 C47.3381198,27.4666667 44.357215,29.389359 42.9539622,32.3435992 C42.8214496,32.6225752 42.5401872,32.800356 42.2313391,32.800356 L42.2313391,32.800356 L21.7686609,32.800356 C21.4598128,32.800356 21.1785504,32.6225752 21.0460378,32.3435992 C19.642785,29.389359 16.6618802,27.4666667 13.3333333,27.4666667 C10.737092,27.4666667 8.34728911,28.6357554 6.75376207,30.5644018 L6.75376207,30.5644018 L6.61066667,30.7426667 L13.3345387,30.7429688 C13.5403889,30.7429648 13.7366202,30.822207 13.8840191,30.9615048 L13.8840191,30.9615048 L13.9662849,31.0521366 L17.4412198,35.5245894 C17.6713257,35.8207498 17.6648009,36.2370093 17.4255257,36.5258123 L17.4255257,36.5258123 L13.9505908,40.7200261 C13.7986163,40.9034579 13.5728035,41.0096233 13.3345946,41.0096354 L13.3345946,41.0096354 L6.42266667,41.0093333 L6.62304836,41.273709 C8.1434146,43.2075568 10.4508548,44.4242103 12.9862388,44.5263506 L12.9862388,44.5263506 L13.3333333,44.5333333 C16.6613945,44.5333333 19.6419401,42.6112046 21.0454571,39.6576231 C21.1779943,39.3787098 21.4592234,39.2009815 21.7680255,39.2009815 L21.7680255,39.2009815 L42.2319745,39.2009815 C42.5407766,39.2009815 42.8220057,39.3787098 42.9545429,39.6576231 C44.3580599,42.6112046 47.3386055,44.5333333 50.6666667,44.5333333 C55.3794965,44.5333333 59.2,40.7128299 59.2,36 C59.2,31.2871701 55.3794965,27.4666667 50.6666667,27.4666667 Z M50.2813151,30.6672057 C50.528836,30.5242995 50.8337942,30.5242995 51.0813151,30.6672057 L51.0813151,30.6672057 L55.122767,33.0005391 C55.3702878,33.1434453 55.522767,33.4075469 55.522767,33.6933594 L55.522767,33.6933594 L55.522767,38.360026 C55.522767,38.6458385 55.3702878,38.9099401 55.122767,39.0528464 L55.122767,39.0528464 L51.0813151,41.3861797 C50.8337942,41.5290859 50.528836,41.5290859 50.2813151,41.3861797 L50.2813151,41.3861797 L46.2398632,39.0528464 C45.9923424,38.9099401 45.8398632,38.6458385 45.8398632,38.360026 L45.8398632,38.360026 L45.8398632,33.6933594 C45.8398632,33.4075469 45.9923424,33.1434453 46.2398632,33.0005391 L46.2398632,33.0005391 Z M50.68,32.2826667 L47.4386667,34.1546667 L47.4386667,37.8973333 L50.68,39.7693333 L53.9226667,37.8973333 L53.9226667,34.1546667 L50.68,32.2826667 Z M38.6666667,11.4666667 L25.3333333,11.4666667 C24.3024018,11.4666667 23.4666667,12.3024018 23.4666667,13.3333333 L23.4666667,13.3333333 L23.4666667,16.5333333 L40.5333333,16.5333333 L40.5333333,13.3333333 C40.5333333,12.3630448 39.7930282,11.5656639 38.8464391,11.4752117 L38.8464391,11.4752117 L38.6666667,11.4666667 Z"
      id="Shape"
      fill="currentcolor"
    ></path>
  </g>
</svg>