<svg viewBox="0 0 84 83" fill="none" xmlns="http://www.w3.org/2000/svg">
    <g filter="url(#filter0_d_4079_48817)">
        <rect x="10" y="4" width="64" height="64" rx="16" fill="white" />
        <path
            d="M30.9815 23.0006L30.9815 22.0006L30.9815 22.0006L30.9815 23.0006ZM38.4817 24.0006C39.034 24.0006 39.4817 23.5529 39.4817 23.0006C39.4817 22.4483 39.034 22.0006 38.4817 22.0006L38.4817 24.0006ZM38.5691 28.2157C38.0895 27.9417 37.4787 28.1084 37.2048 28.588C36.9308 29.0676 37.0975 29.6784 37.5771 29.9523L38.5691 28.2157ZM49.9377 35.861L49.4417 36.7294L49.4417 36.7294L49.9377 35.861ZM38.9777 33.522C38.4981 33.248 37.8873 33.4148 37.6134 33.8943C37.3394 34.3739 37.5061 34.9847 37.9857 35.2586L38.9777 33.522ZM47.7174 39.6657L47.2214 40.5341L47.2214 40.5341L47.7174 39.6657ZM50.4032 41.1999L50.8992 40.3316L50.8992 40.3316L50.4032 41.1999ZM48.183 45.0046L47.687 45.8729L47.687 45.8729L48.183 45.0046ZM46.3028 43.9307L46.7988 43.0624L46.7988 43.0624L46.3028 43.9307ZM36.7574 37.3267C36.2778 37.0527 35.667 37.2194 35.3931 37.699C35.1191 38.1786 35.2858 38.7894 35.7654 39.0633L36.7574 37.3267ZM44.0826 47.7354L43.5866 48.6037L43.5866 48.6037L44.0826 47.7354ZM40.5626 45.7248L41.0586 44.8565L41.0586 44.8565L40.5626 45.7248ZM34.5371 41.1314C34.0575 40.8574 33.4467 41.0242 33.1728 41.5037C32.8988 41.9833 33.0655 42.5941 33.5451 42.868L34.5371 41.1314ZM38.7879 49.7154L38.2659 50.5684L38.2659 50.5684L38.7879 49.7154ZM27.1081 42.5683L26.5252 43.3808C26.545 43.395 26.5653 43.4085 26.5862 43.4213L27.1081 42.5683ZM23.8562 40.2353L23.2733 41.0478L23.2733 41.0478L23.8562 40.2353ZM50.7504 38.8617L49.8867 38.3577L49.8867 38.3577L50.7504 38.8617ZM47.1155 46.9314L46.2518 46.4273L46.2518 46.4273L47.1155 46.9314ZM41.4629 49.0491L40.5993 48.5451L40.5993 48.5451L41.4629 49.0491ZM23.9458 25.2135L23.3724 24.3941L23.3724 24.3941L23.9458 25.2135ZM42.6145 28.1579L42.3526 29.123L42.3526 29.123L42.6145 28.1579ZM46.0252 29.0834L46.6566 29.8589C46.9474 29.6221 47.0813 29.2425 47.0034 28.8757C46.9255 28.5089 46.649 28.2165 46.2871 28.1183L46.0252 29.0834ZM53.1042 43.6905C52.65 44.0048 52.5367 44.6277 52.851 45.0819C53.1652 45.536 53.7882 45.6494 54.2423 45.3351L53.1042 43.6905ZM60.0695 40.0863L59.5004 39.264L59.5004 39.264L60.0695 40.0863ZM43.9606 29.475C43.5324 29.8237 43.4679 30.4536 43.8166 30.8818C44.1654 31.3101 44.7952 31.3746 45.2235 31.0259L43.9606 29.475ZM40.7534 24.9444L39.7883 24.6824L39.7883 24.6824L40.7534 24.9444ZM60.1088 25.1823L60.6821 24.363L60.6821 24.363L60.1088 25.1823ZM30.9815 24.0006L38.4817 24.0006L38.4817 22.0006L30.9815 22.0006L30.9815 24.0006ZM37.5771 29.9523L49.4417 36.7294L50.4337 34.9927L38.5691 28.2157L37.5771 29.9523ZM37.9857 35.2586L47.2214 40.5341L48.2134 38.7974L38.9777 33.522L37.9857 35.2586ZM47.2214 40.5341L49.9073 42.0682L50.8992 40.3316L48.2134 38.7974L47.2214 40.5341ZM48.6789 44.1363L46.7988 43.0624L45.8069 44.799L47.687 45.8729L48.6789 44.1363ZM46.7988 43.0624L36.7574 37.3267L35.7654 39.0633L45.8069 44.799L46.7988 43.0624ZM44.5785 46.8671L41.0586 44.8565L40.0666 46.5931L43.5866 48.6037L44.5785 46.8671ZM41.0586 44.8565L34.5371 41.1314L33.5451 42.868L40.0666 46.5931L41.0586 44.8565ZM39.3098 48.8624L27.6301 41.7153L26.5862 43.4213L38.2659 50.5684L39.3098 48.8624ZM27.691 41.7558L24.4391 39.4227L23.2733 41.0478L26.5252 43.3808L27.691 41.7558ZM49.8867 38.3577C49.5526 38.9302 48.8032 39.1343 48.2134 38.7974L47.2214 40.5341C48.7554 41.4103 50.7219 40.8945 51.6141 39.3657L49.8867 38.3577ZM47.9792 47.4354C48.8751 45.9002 48.339 43.9421 46.7988 43.0624L45.8069 44.799C46.3906 45.1324 46.5822 45.8612 46.2518 46.4273L47.9792 47.4354ZM40.5993 48.5451C40.3422 48.9856 39.758 49.1367 39.3098 48.8624L38.2659 50.5684C39.6618 51.4225 41.4996 50.9703 42.3266 49.5531L40.5993 48.5451ZM43.5866 48.6037C45.1206 49.48 47.0871 48.9642 47.9792 47.4354L46.2518 46.4273C45.9178 46.9998 45.1684 47.204 44.5785 46.8671L43.5866 48.6037ZM50.3522 43.6965C50.0182 44.269 49.2688 44.4732 48.6789 44.1363L47.687 45.8729C49.221 46.7492 51.1875 46.2334 52.0796 44.7046L50.3522 43.6965ZM49.4417 36.7294C50.0254 37.0628 50.217 37.7916 49.8867 38.3577L51.6141 39.3657C52.5099 37.8305 51.9739 35.8725 50.4337 34.9927L49.4417 36.7294ZM49.9073 42.0682C50.4909 42.4016 50.6826 43.1305 50.3522 43.6965L52.0796 44.7046C52.9755 43.1694 52.4395 41.2113 50.8992 40.3316L49.9073 42.0682ZM40.0666 46.5931C40.7648 46.992 40.9957 47.8657 40.5993 48.5451L42.3266 49.5531C43.2887 47.9046 42.7133 45.8017 41.0586 44.8565L40.0666 46.5931ZM24.5191 26.0328C26.4079 24.7111 28.6657 24.0006 30.9815 24.0006L30.9815 22.0006C28.2571 22.0006 25.5986 22.8363 23.3724 24.3941L24.5191 26.0328ZM23.3724 24.3941C17.5847 28.4442 17.5339 36.9302 23.2733 41.0478L24.4391 39.4227C19.8203 36.1091 19.8607 29.2926 24.5191 26.0328L23.3724 24.3941ZM53.1704 22H43.3165V24H53.1704V22ZM42.3526 29.123L45.7633 30.0485L46.2871 28.1183L42.8764 27.1928L42.3526 29.123ZM54.2423 45.3351L60.6386 40.9086L59.5004 39.264L53.1042 43.6905L54.2423 45.3351ZM45.3938 28.308L43.9606 29.475L45.2235 31.0259L46.6566 29.8589L45.3938 28.308ZM39.7883 24.6824C39.2624 26.6191 40.4196 28.5985 42.3526 29.123L42.8764 27.1928C41.9927 26.9531 41.4866 26.0604 41.7184 25.2065L39.7883 24.6824ZM43.3165 22C41.671 22 40.2198 23.0935 39.7883 24.6824L41.7184 25.2065C41.91 24.5012 42.5609 24 43.3165 24V22ZM60.6821 24.363C58.4844 22.8251 55.86 22 53.1704 22V24C55.4513 24 57.6751 24.6998 59.5355 26.0016L60.6821 24.363ZM59.5355 26.0016C64.1696 29.2444 64.1517 36.0451 59.5004 39.264L60.6386 40.9086C66.4352 36.897 66.4578 28.4046 60.6821 24.363L59.5355 26.0016Z"
            fill="#F04405" />
        <rect x="8" y="2" width="68" height="68" rx="18" stroke="url(#paint0_linear_4079_48817)" stroke-width="4" />
    </g>
    <defs>
        <filter id="filter0_d_4079_48817" x="0.51935" y="0" width="82.9613" height="82.9613"
            filterUnits="userSpaceOnUse" color-interpolation-filters="sRGB">
            <feFlood flood-opacity="0" result="BackgroundImageFix" />
            <feColorMatrix in="SourceAlpha" type="matrix" values="0 0 0 0 0 0 0 0 0 0 0 0 0 0 0 0 0 0 127 0"
                result="hardAlpha" />
            <feOffset dy="5.48065" />
            <feGaussianBlur stdDeviation="2.74032" />
            <feColorMatrix type="matrix" values="0 0 0 0 0 0 0 0 0 0 0 0 0 0 0 0 0 0 0.15 0" />
            <feBlend mode="normal" in2="BackgroundImageFix" result="effect1_dropShadow_4079_48817" />
            <feBlend mode="normal" in="SourceGraphic" in2="effect1_dropShadow_4079_48817" result="shape" />
        </filter>
        <linearGradient id="paint0_linear_4079_48817" x1="70.1457" y1="-25.9802" x2="-24.3296" y2="65.5164"
            gradientUnits="userSpaceOnUse">
            <stop stop-color="white" />
            <stop offset="1" stop-color="#E4E4E4" />
        </linearGradient>
    </defs>
</svg>