<svg viewBox="0 0 84 83" fill="none" xmlns="http://www.w3.org/2000/svg">
    <g filter="url(#filter0_d_4079_48824)">
        <rect x="10" y="4" width="64" height="64" rx="16" fill="white" />
        <path
            d="M55.7132 28.2497L42.6168 35.8109C42.1465 36.0824 41.567 36.0824 41.0968 35.8109L28.0003 28.2497M41.8564 51.7649V35.7649M28 28.6424V42.8873C28 43.4303 28.2897 43.9321 28.76 44.2036L41.0964 51.3261C41.5667 51.5976 42.1461 51.5976 42.6164 51.3261L54.9528 44.2036C55.4231 43.9321 55.7128 43.4303 55.7128 42.8873V28.6424C55.7128 28.0994 55.4231 27.5976 54.9528 27.3261L42.6164 20.2036C42.1461 19.9321 41.5667 19.9321 41.0964 20.2036L28.76 27.3261C28.2897 27.5976 28 28.0994 28 28.6424Z"
            stroke="#F04405" stroke-width="2" />
        <rect x="8" y="2" width="68" height="68" rx="18" stroke="url(#paint0_linear_4079_48824)" stroke-width="4" />
    </g>
    <defs>
        <filter id="filter0_d_4079_48824" x="0.51935" y="0" width="82.9613" height="82.9613"
            filterUnits="userSpaceOnUse" color-interpolation-filters="sRGB">
            <feFlood flood-opacity="0" result="BackgroundImageFix" />
            <feColorMatrix in="SourceAlpha" type="matrix" values="0 0 0 0 0 0 0 0 0 0 0 0 0 0 0 0 0 0 127 0"
                result="hardAlpha" />
            <feOffset dy="5.48065" />
            <feGaussianBlur stdDeviation="2.74032" />
            <feColorMatrix type="matrix" values="0 0 0 0 0 0 0 0 0 0 0 0 0 0 0 0 0 0 0.15 0" />
            <feBlend mode="normal" in2="BackgroundImageFix" result="effect1_dropShadow_4079_48824" />
            <feBlend mode="normal" in="SourceGraphic" in2="effect1_dropShadow_4079_48824" result="shape" />
        </filter>
        <linearGradient id="paint0_linear_4079_48824" x1="70.1457" y1="-25.9802" x2="-24.3296" y2="65.5164"
            gradientUnits="userSpaceOnUse">
            <stop stop-color="white" />
            <stop offset="1" stop-color="#E4E4E4" />
        </linearGradient>
    </defs>
</svg>