<svg viewBox="0 0 84 83" fill="none" xmlns="http://www.w3.org/2000/svg">
    <g filter="url(#filter0_d_4079_48833)">
        <rect x="10" y="4" width="64" height="64" rx="16" fill="white" />
        <path fill-rule="evenodd" clip-rule="evenodd"
            d="M41.7467 23.0501C41.8876 22.9833 42.051 22.9833 42.1919 23.0501L59.6412 31.3155C60.0378 31.5034 60.0378 32.0676 59.6412 32.2554L42.1919 40.5209C42.051 40.5876 41.8876 40.5876 41.7467 40.5209L24.2974 32.2554C23.9009 32.0676 23.9009 31.5033 24.2974 31.3155L41.7467 23.0501ZM43.0481 21.2426C42.3653 20.9191 41.5734 20.9191 40.8905 21.2426L23.4412 29.508C21.5196 30.4183 21.5196 33.1526 23.4412 34.0629L25.4967 35.0365V45.0481C25.4967 46.1884 26.2152 47.102 27.1076 47.7802C28.0157 48.4703 29.2667 49.049 30.7228 49.517C33.6463 50.4567 37.6228 51.0217 41.9703 51.0217C46.3179 51.0217 50.2943 50.4567 53.2179 49.517C54.674 49.049 55.925 48.4703 56.8331 47.7802C57.7255 47.102 58.444 46.1884 58.444 45.0481V35.0355L60.4974 34.0629C62.419 33.1526 62.419 30.4183 60.4974 29.508L43.0481 21.2426ZM56.444 35.9829L43.0481 42.3283C42.3653 42.6518 41.5734 42.6518 40.8905 42.3283L27.4967 35.9839V45.0481C27.4967 45.2811 27.6441 45.676 28.3177 46.1879C28.9756 46.6878 29.9907 47.1809 31.3348 47.613C34.0116 48.4734 37.772 49.0217 41.9703 49.0217C46.1687 49.0217 49.9291 48.4734 52.6059 47.613C53.9499 47.1809 54.9651 46.6878 55.623 46.1879C56.2966 45.676 56.444 45.2811 56.444 45.0481V35.9829Z"
            fill="#F04405" />
        <rect x="8" y="2" width="68" height="68" rx="18" stroke="url(#paint0_linear_4079_48833)" stroke-width="4" />
    </g>
    <defs>
        <filter id="filter0_d_4079_48833" x="0.51935" y="0" width="82.9613" height="82.9613"
            filterUnits="userSpaceOnUse" color-interpolation-filters="sRGB">
            <feFlood flood-opacity="0" result="BackgroundImageFix" />
            <feColorMatrix in="SourceAlpha" type="matrix" values="0 0 0 0 0 0 0 0 0 0 0 0 0 0 0 0 0 0 127 0"
                result="hardAlpha" />
            <feOffset dy="5.48065" />
            <feGaussianBlur stdDeviation="2.74032" />
            <feColorMatrix type="matrix" values="0 0 0 0 0 0 0 0 0 0 0 0 0 0 0 0 0 0 0.15 0" />
            <feBlend mode="normal" in2="BackgroundImageFix" result="effect1_dropShadow_4079_48833" />
            <feBlend mode="normal" in="SourceGraphic" in2="effect1_dropShadow_4079_48833" result="shape" />
        </filter>
        <linearGradient id="paint0_linear_4079_48833" x1="70.1457" y1="-25.9802" x2="-24.3296" y2="65.5164"
            gradientUnits="userSpaceOnUse">
            <stop stop-color="white" />
            <stop offset="1" stop-color="#E4E4E4" />
        </linearGradient>
    </defs>
</svg>