<svg viewBox="0 0 84 83" fill="none" xmlns="http://www.w3.org/2000/svg">
    <g filter="url(#filter0_d_4079_48841)">
        <rect x="10" y="4" width="64" height="64" rx="16" fill="white" />
        <path fill-rule="evenodd" clip-rule="evenodd"
            d="M48.3695 22.1107C48.9713 22.3885 49.2339 23.1014 48.9562 23.7032L36.9562 49.7032C36.6785 50.3049 35.9655 50.5676 35.3638 50.2898C34.7621 50.0121 34.4994 49.2992 34.7771 48.6974L46.7771 22.6974C47.0548 22.0957 47.7678 21.833 48.3695 22.1107ZM32.8267 27.9803C33.2243 28.5105 33.1169 29.2626 32.5867 29.6603L24.72 35.5603C24.2933 35.8803 24.2933 36.5203 24.72 36.8403L32.5867 42.7403C33.1169 43.1379 33.2243 43.8901 32.8267 44.4203C32.429 44.9505 31.6769 45.0579 31.1467 44.6603L23.28 38.7603C21.5733 37.4803 21.5733 34.9203 23.28 33.6403L31.1467 27.7403C31.6769 27.3426 32.429 27.4501 32.8267 27.9803ZM50.9067 27.9803C51.3043 27.4501 52.0565 27.3426 52.5867 27.7403L60.4533 33.6403C62.16 34.9203 62.16 37.4803 60.4533 38.7603L52.5867 44.6603C52.0565 45.0579 51.3043 44.9505 50.9067 44.4203C50.509 43.8901 50.6165 43.1379 51.1467 42.7403L59.0133 36.8403C59.44 36.5203 59.44 35.8803 59.0133 35.5603L51.1467 29.6603C50.6165 29.2626 50.509 28.5105 50.9067 27.9803Z"
            fill="#F04405" />
        <rect x="8" y="2" width="68" height="68" rx="18" stroke="url(#paint0_linear_4079_48841)" stroke-width="4" />
    </g>
    <defs>
        <filter id="filter0_d_4079_48841" x="0.51935" y="0" width="82.9613" height="82.9613"
            filterUnits="userSpaceOnUse" color-interpolation-filters="sRGB">
            <feFlood flood-opacity="0" result="BackgroundImageFix" />
            <feColorMatrix in="SourceAlpha" type="matrix" values="0 0 0 0 0 0 0 0 0 0 0 0 0 0 0 0 0 0 127 0"
                result="hardAlpha" />
            <feOffset dy="5.48065" />
            <feGaussianBlur stdDeviation="2.74032" />
            <feColorMatrix type="matrix" values="0 0 0 0 0 0 0 0 0 0 0 0 0 0 0 0 0 0 0.15 0" />
            <feBlend mode="normal" in2="BackgroundImageFix" result="effect1_dropShadow_4079_48841" />
            <feBlend mode="normal" in="SourceGraphic" in2="effect1_dropShadow_4079_48841" result="shape" />
        </filter>
        <linearGradient id="paint0_linear_4079_48841" x1="70.1457" y1="-25.9802" x2="-24.3296" y2="65.5164"
            gradientUnits="userSpaceOnUse">
            <stop stop-color="white" />
            <stop offset="1" stop-color="#E4E4E4" />
        </linearGradient>
    </defs>
</svg>