<svg viewBox="0 0 84 83" fill="none" xmlns="http://www.w3.org/2000/svg">
    <g filter="url(#filter0_d_4079_48796)">
        <rect x="10" y="4" width="64" height="64" rx="16" fill="white" />
        <path fill-rule="evenodd" clip-rule="evenodd"
            d="M41 22.1819C39.813 22.6114 38.6072 23.8084 37.5911 25.8406C37.4058 26.2113 37.2301 26.6041 37.0652 27.017C38.3019 27.2681 39.6219 27.4284 41 27.481V22.1819ZM43 22.1819V27.481C44.3781 27.4284 45.6981 27.2681 46.9348 27.017C46.7699 26.6041 46.5942 26.2113 46.4089 25.8406C45.3928 23.8084 44.187 22.6114 43 22.1819ZM41 29.4823C39.4052 29.4257 37.8673 29.2346 36.4218 28.9258C35.915 30.7272 35.5922 32.7879 35.517 35H41V29.4823ZM43 35V29.4823C44.5948 29.4257 46.1327 29.2346 47.5782 28.9258C48.085 30.7272 48.4078 32.7879 48.483 35H43ZM41 37H35.517C35.5922 39.2121 35.915 41.2728 36.4218 43.0742C37.8673 42.7654 39.4052 42.5743 41 42.5177V37ZM43 42.5177V37H48.483C48.4078 39.2121 48.085 41.2728 47.5782 43.0742C46.1327 42.7654 44.5948 42.5743 43 42.5177ZM41 44.519C39.6219 44.5716 38.3019 44.7319 37.0652 44.983C37.2301 45.3959 37.4058 45.7887 37.5911 46.1594C38.6072 48.1916 39.813 49.3886 41 49.8181V44.519ZM43 49.8181V44.519C44.3781 44.5716 45.6981 44.7319 46.9348 44.983C46.7699 45.3959 46.5942 45.7887 46.4089 46.1594C45.3928 48.1916 44.187 49.3886 43 49.8181ZM35.8023 24.9462C35.5539 25.443 35.3227 25.9704 35.1101 26.5249C34.2271 26.2568 33.4026 25.9397 32.6482 25.5814C33.927 24.4328 35.4184 23.5162 37.0561 22.8979C36.591 23.5158 36.1718 24.2071 35.8023 24.9462ZM34.485 28.4253C33.2976 28.0621 32.194 27.6142 31.1984 27.0929C29.3989 29.2727 28.2464 32.0064 28.0352 35H33.5159C33.5911 32.6403 33.9308 30.409 34.485 28.4253ZM31.1984 44.9071C29.3989 42.7273 28.2464 39.9936 28.0352 37H33.5159C33.5911 39.3597 33.9308 41.591 34.485 43.5747C33.2976 43.9379 32.194 44.3858 31.1984 44.9071ZM49.515 43.5747C50.0692 41.591 50.4089 39.3597 50.4841 37H55.9648C55.7536 39.9936 54.6011 42.7273 52.8016 44.9071C51.806 44.3858 50.7024 43.9379 49.515 43.5747ZM50.4841 35H55.9648C55.7536 32.0064 54.6011 29.2727 52.8016 27.0929C51.806 27.6142 50.7024 28.0621 49.515 28.4253C50.0692 30.409 50.4089 32.6403 50.4841 35ZM35.1101 45.4751C34.2271 45.7432 33.4026 46.0603 32.6482 46.4186C33.927 47.5672 35.4184 48.4838 37.0561 49.1021C36.591 48.4842 36.1718 47.7929 35.8023 47.0538C35.5539 46.557 35.3227 46.0296 35.1101 45.4751ZM48.8899 45.4751C48.6773 46.0296 48.4461 46.557 48.1977 47.0538C47.8282 47.7929 47.409 48.4842 46.9439 49.1021C48.5816 48.4838 50.073 47.5672 51.3518 46.4186C50.5974 46.0603 49.7729 45.7432 48.8899 45.4751ZM46.9439 22.8979C48.5816 23.5162 50.073 24.4328 51.3518 25.5814C50.5974 25.9397 49.7729 26.2568 48.8899 26.5249C48.6773 25.9704 48.4461 25.443 48.1977 24.9462C47.8282 24.2071 47.409 23.5158 46.9439 22.8979ZM42 52C50.8366 52 58 44.8366 58 36C58 27.1634 50.8366 20 42 20C33.1634 20 26 27.1634 26 36C26 44.8366 33.1634 52 42 52Z"
            fill="#F04405" />
        <rect x="8" y="2" width="68" height="68" rx="18" stroke="url(#paint0_linear_4079_48796)" stroke-width="4" />
    </g>
    <defs>
        <filter id="filter0_d_4079_48796" x="0.51935" y="0" width="82.9613" height="82.9613"
            filterUnits="userSpaceOnUse" color-interpolation-filters="sRGB">
            <feFlood flood-opacity="0" result="BackgroundImageFix" />
            <feColorMatrix in="SourceAlpha" type="matrix" values="0 0 0 0 0 0 0 0 0 0 0 0 0 0 0 0 0 0 127 0"
                result="hardAlpha" />
            <feOffset dy="5.48065" />
            <feGaussianBlur stdDeviation="2.74032" />
            <feColorMatrix type="matrix" values="0 0 0 0 0 0 0 0 0 0 0 0 0 0 0 0 0 0 0.15 0" />
            <feBlend mode="normal" in2="BackgroundImageFix" result="effect1_dropShadow_4079_48796" />
            <feBlend mode="normal" in="SourceGraphic" in2="effect1_dropShadow_4079_48796" result="shape" />
        </filter>
        <linearGradient id="paint0_linear_4079_48796" x1="70.1457" y1="-25.9802" x2="-24.3296" y2="65.5164"
            gradientUnits="userSpaceOnUse">
            <stop stop-color="white" />
            <stop offset="1" stop-color="#E4E4E4" />
        </linearGradient>
    </defs>
</svg>