<svg viewBox="0 0 84 83" fill="none" xmlns="http://www.w3.org/2000/svg">
    <g filter="url(#filter0_d_4079_48808)">
        <rect x="10" y="4" width="64" height="64" rx="16" fill="white" />
        <path fill-rule="evenodd" clip-rule="evenodd"
            d="M27 21.9004C25.2879 21.9004 23.9 23.2883 23.9 25.0004V45.0004H21C20.4477 45.0004 20 45.4481 20 46.0004V47.0004C20 47.5527 20.4477 48.0004 21 48.0004H63C63.5523 48.0004 64 47.5527 64 47.0004V46.0004C64 45.4481 63.5523 45.0004 63 45.0004H60.1V25.0004C60.1 23.2883 58.7121 21.9004 57 21.9004H27ZM57.9 45.0004V25.0004C57.9 24.5033 57.4971 24.1004 57 24.1004H27C26.5029 24.1004 26.1 24.5033 26.1 25.0004V45.0004H57.9Z"
            fill="#F04405" />
        <rect x="8" y="2" width="68" height="68" rx="18" stroke="url(#paint0_linear_4079_48808)" stroke-width="4" />
    </g>
    <defs>
        <filter id="filter0_d_4079_48808" x="0.51935" y="0" width="82.9613" height="82.9613"
            filterUnits="userSpaceOnUse" color-interpolation-filters="sRGB">
            <feFlood flood-opacity="0" result="BackgroundImageFix" />
            <feColorMatrix in="SourceAlpha" type="matrix" values="0 0 0 0 0 0 0 0 0 0 0 0 0 0 0 0 0 0 127 0"
                result="hardAlpha" />
            <feOffset dy="5.48065" />
            <feGaussianBlur stdDeviation="2.74032" />
            <feColorMatrix type="matrix" values="0 0 0 0 0 0 0 0 0 0 0 0 0 0 0 0 0 0 0.15 0" />
            <feBlend mode="normal" in2="BackgroundImageFix" result="effect1_dropShadow_4079_48808" />
            <feBlend mode="normal" in="SourceGraphic" in2="effect1_dropShadow_4079_48808" result="shape" />
        </filter>
        <linearGradient id="paint0_linear_4079_48808" x1="70.1457" y1="-25.9802" x2="-24.3296" y2="65.5164"
            gradientUnits="userSpaceOnUse">
            <stop stop-color="white" />
            <stop offset="1" stop-color="#E4E4E4" />
        </linearGradient>
    </defs>
</svg>