<svg xmlns="http://www.w3.org/2000/svg" fill="none" viewBox="0 0 124 31">
    <path fill="#434344"
        d="M32.5365 11.3145h12.5241v2.3314h-4.9312V26.789h-2.7029V13.646h-4.9106l.0206-2.3315Zm11.9876 4.2709h2.3109v2.1665h.0413c.0825-.3095.2269-.5984.4332-.8872.2064-.2889.454-.5571.7635-.7841.2888-.2476.6189-.4333.9903-.5777.3508-.1444.7222-.227 1.0936-.227.2888 0 .4952.0207.5983.0207.1032.0206.227.0412.3301.0412v2.3728c-.165-.0413-.3507-.0619-.5364-.0825-.1857-.0207-.3508-.0413-.5365-.0413-.4126 0-.8046.0825-1.176.2476-.3714.1651-.6809.4126-.9698.7221-.2682.3302-.4952.7222-.6602 1.1967-.1651.4746-.2476 1.0317-.2476 1.6507v5.3232h-2.4759l.0412-11.1417ZM62.4334 26.789h-2.4347v-1.5681h-.0413c-.3095.5777-.7634 1.011-1.3617 1.3618-.5984.3507-1.2174.5158-1.8364.5158-1.4649 0-2.5378-.3508-3.198-1.0935-.6603-.7222-.9904-1.8364-.9904-3.3013v-7.1183h2.4759v6.8707c0 .9904.1857 1.6919.5777 2.0839.3714.4127.9079.619 1.5888.619.5158 0 .9491-.0825 1.2998-.2476.3508-.165.6396-.3714.846-.6396.2269-.2682.3714-.5983.4745-.9697.1032-.3714.1445-.7841.1445-1.2174v-6.4993h2.4759V26.789h-.0206Zm4.209-3.5901c.0826.7222.3508 1.2173.8253 1.5268.4746.2889 1.0523.4333 1.7126.4333.2269 0 .4951-.0206.784-.0619.2889-.0412.5777-.1031.8253-.2063.2682-.1032.4746-.2476.6396-.4539.1651-.2064.2476-.4539.227-.7634-.0206-.3095-.1238-.5778-.3508-.7841-.2269-.2063-.4952-.3507-.8253-.4952-.3301-.1238-.7221-.2269-1.1554-.3095-.4333-.0825-.8666-.1857-1.3205-.2888-.4539-.1032-.9078-.227-1.3411-.3714-.4333-.1444-.8047-.3301-1.1555-.5984-.3301-.2476-.619-.557-.8046-.9491-.2064-.392-.3095-.8459-.3095-1.4236 0-.619.1444-1.1142.4539-1.5268.2888-.4127.6809-.7428 1.1348-.9904.4539-.2476.9697-.4333 1.5268-.5365.5571-.1031 1.0935-.1444 1.5887-.1444.5777 0 1.1348.0619 1.6506.1857.5159.1238 1.011.3095 1.4237.5983.4333.2683.784.6397 1.0523 1.0729.2888.4333.4539.9698.5364 1.5888h-2.5791c-.1238-.5984-.392-.9904-.8046-1.1967-.4333-.2064-.9079-.3095-1.465-.3095-.165 0-.392.0206-.619.0412-.2475.0413-.4539.0826-.6808.1651-.2064.0825-.3921.2063-.5365.3508-.1444.1444-.2269.3507-.2269.5983 0 .3095.1031.5365.3094.7222.2064.1857.4746.3301.8254.4745.3301.1238.7221.227 1.1554.3095.4333.0825.8872.1857 1.3411.2889.4539.1031.8872.2269 1.3205.3713.4333.1445.8253.3302 1.1555.5984.3301.2476.6189.5571.8253.9285.2063.3714.3095.8459.3095 1.3824 0 .6602-.1445 1.2173-.454 1.6919-.3095.4539-.7015.8459-1.176 1.1348-.4746.2888-1.0317.4951-1.6094.6396-.5983.1238-1.1761.2063-1.7538.2063-.7015 0-1.3617-.0825-1.9601-.2476-.5983-.1651-1.1348-.4127-1.5681-.7221-.4333-.3302-.784-.7222-1.0316-1.2174-.2476-.4745-.392-1.0522-.4127-1.7331h2.4966v.0206h.0206Zm8.15-7.6135h1.8775v-3.3837h2.476v3.3631h2.2283v1.8363h-2.2283v5.9835c0 .2682.0206.4746.0412.6809.0207.1857.0826.3507.1445.4745.0825.1238.2063.227.3507.2889.1651.0619.3714.1032.6603.1032.165 0 .3507 0 .5158-.0207.1651-.0206.3507-.0412.5158-.0825v1.9188c-.2682.0413-.5364.0619-.8047.0826-.2682.0412-.5158.0412-.8046.0412-.6603 0-1.1761-.0619-1.5681-.1857-.3921-.1238-.7015-.3094-.9285-.5364-.227-.2476-.3714-.5365-.4539-.8872-.0826-.3508-.1238-.7841-.1445-1.238v-6.6025h-1.8775v-1.8775.0412Zm8.315 0h2.3315v1.5268h.0412c.3508-.6602.8253-1.1141 1.4443-1.403.619-.2888 1.2792-.4333 2.022-.4333.8872 0 1.6506.1445 2.3109.4746.6602.3095 1.1967.7221 1.63 1.2792.4333.5365.7634 1.1761.9697 1.8982.2063.7222.3301 1.5062.3301 2.3109 0 .7634-.1031 1.4856-.2888 2.1871-.2063.7015-.4952 1.3411-.8872 1.8775-.392.5365-.8872.9698-1.5062 1.2999-.619.3301-1.3205.4952-2.1458.4952-.3508 0-.7222-.0413-1.0729-.1032-.3508-.0619-.7015-.165-1.0317-.3095-.3301-.1444-.6396-.3301-.9078-.557-.2889-.227-.5158-.4952-.7015-.7841h-.0413v5.5915H83.128V15.5854h-.0206Zm8.6451 5.6121c0-.4952-.0619-.9903-.2063-1.4649-.1238-.4745-.3302-.8872-.5984-1.2586-.2682-.3714-.5983-.6602-.9697-.8872-.3921-.227-.846-.3301-1.3412-.3301-1.0316 0-1.8156.3507-2.3521 1.0729-.5158.7221-.784 1.6919-.784 2.8886 0 .5777.0619 1.0935.2063 1.568.1444.4746.3301.8873.619 1.238.2682.3508.5983.619.9903.8253.3921.2064.8254.3095 1.3412.3095.5777 0 1.0316-.1238 1.4236-.3507.3921-.227.7015-.5365.9698-.8873.2476-.3713.4333-.784.5364-1.2585.1032-.4952.1651-.9698.1651-1.465Zm4.3535-9.8831h2.4759v2.3315H96.106v-2.3315Zm0 4.271h2.4759V26.789H96.106V15.5854Zm4.684-4.271h2.476V26.789h-2.476V11.3144Zm10.027 15.7841c-.887 0-1.692-.1444-2.393-.4539-.702-.3095-1.279-.7015-1.775-1.2174-.474-.5158-.846-1.1554-1.093-1.8775-.248-.7222-.392-1.5269-.392-2.3728 0-.8459.124-1.63.392-2.3521.247-.7222.619-1.3412 1.093-1.8776.475-.5158 1.073-.9285 1.775-1.2173.701-.2889 1.506-.454 2.393-.454.887 0 1.692.1445 2.394.454.701.2888 1.279.7015 1.774 1.2173.475.5158.846 1.1554 1.093 1.8776.248.7221.393 1.5062.393 2.3521 0 .8666-.124 1.6506-.393 2.3728-.268.7221-.618 1.3411-1.093 1.8775-.475.5159-1.073.9285-1.774 1.2174-.702.2888-1.486.4539-2.394.4539Zm0-1.9601c.537 0 1.032-.1238 1.424-.3508.412-.2269.722-.5364.99-.9078.268-.3714.454-.8047.578-1.2586.124-.4746.186-.9491.186-1.4443 0-.4746-.062-.9491-.186-1.4237-.124-.4745-.31-.8872-.578-1.2586-.268-.3714-.598-.6602-.99-.8872-.413-.2269-.887-.3507-1.424-.3507-.536 0-1.031.1238-1.424.3507-.412.227-.722.5365-.99.8872-.268.3714-.454.7841-.578 1.2586-.123.4746-.185.9491-.185 1.4237 0 .4952.062.9697.185 1.4443.124.4745.31.8872.578 1.2586.268.3714.598.6809.99.9078.413.2476.888.3508 1.424.3508Zm6.396-9.553h1.878v-3.3837h2.476v3.3631h2.228v1.8363h-2.228v5.9835c0 .2682.02.4746.041.6809.021.1857.083.3507.144.4745.083.1238.207.227.351.2889.165.0619.372.1032.66.1032.166 0 .351 0 .516-.0207.165-.0206.351-.0412.516-.0825v1.9188c-.268.0413-.536.0619-.805.0826-.268.0412-.515.0412-.804.0412-.66 0-1.176-.0619-1.568-.1857-.392-.1238-.702-.3095-.929-.5364-.227-.2476-.371-.5365-.454-.8872-.082-.3508-.123-.7841-.144-1.238v-6.6025h-1.878v-1.8775.0412Z" />
    <path fill="#5B5B5B"
        d="M29.6493 11.3142H18.3219L14.8349.54394 11.3274 11.3142 0 11.2936l9.16094 6.6644-3.50756 10.7703 9.16092-6.6644 9.161 6.6644-3.487-10.7703 9.161-6.6438Z" />
    <path fill="#434344" d="m21.276 20.3927-.784-2.4347-5.6534 4.1059 6.4374-1.6712Z" />
</svg>