<svg viewBox="0 0 169 25" fill="none" xmlns="http://www.w3.org/2000/svg">
    <path
        d="M28.2 21.5V3.2c0-1 .2-1.6.6-2.1.4-.5 1-.7 1.7-.7s1.3.2 1.7.7c.5.5.7 1.2.7 2.1v18.3c0 1-.2 1.7-.7 2.2-.4.5-1 .7-1.7.7s-1.2-.2-1.7-.7c-.4-.5-.6-1.2-.6-2.2ZM156 5.3a7.1 7.1 0 1 0 0 14.3 7.1 7.1 0 0 0 0-14.3Zm0 19a12 12 0 1 1 0-24 12 12 0 0 1 0 24Zm-53.8-19a7.1 7.1 0 1 0 0 14.3 7.1 7.1 0 0 0 0-14.3Zm0 19a12 12 0 1 1 0-24 12 12 0 0 1 0 24Zm26.8-4.8h-5V5.3h5a7.1 7.1 0 0 1 6.3 7v.1a7.1 7.1 0 0 1-6.3 7Zm11.2-7.1a12 12 0 0 0-11.7-12h-6.3c-1 0-1.8.2-2.3.7-.4.5-.7 1.2-.7 2.3v18c0 1 .3 1.8.7 2.3.5.4 1.2.7 2.3.7h6.3a12 12 0 0 0 11.7-12ZM83.4.5a2 2 0 0 0-2.3.8l-7.3 11-7.2-11a2 2 0 0 0-2.3-.8c-.9.3-1.5 1.1-1.5 2v19.6c0 1.2 1 2.1 2 2.1 1.2 0 2.2-1 2.2-2V9.4l5 7.8h.1l.1.2.2.2.1.1.1.1.2.1.2.1.6.2h.4c.3 0 .5 0 .7-.2h.1l.2-.2h.2v-.1l.1-.1v-.1h.1l.1-.2 5.2-7.9v12.6c0 1.2 1 2.1 2.1 2.1s2-1 2-2V2.4c0-.9-.5-1.7-1.4-2ZM55.7 23.7H40.2c-.9 0-1.8-.6-2.1-1.3-.3-.8-.4-2 .3-2.8L51.1 5H40.6c-1.1 0-2-1-2-2.3 0-1.2.9-2 2-2h14.2c.8 0 1.7.2 2.4 1 .7.7.7 2.3-.1 3.3L44.8 19.2h11c1 0 1.9 1 1.9 2.2 0 1.3-.8 2.3-2 2.3Zm-43 .7c-3.5 0-6.6-1.4-8.9-3.9-2-2.2-3-5-3-7.9C.8 3.7 8.2.4 12.8.4s8 2.2 8.1 2.3c1 .7 1.3 2.2.7 3.2-.7 1-2.1 1.3-3.2.6 0 0-2.4-1.5-5.6-1.5-2.9 0-7 1.9-7 7.6 0 3.3 2.5 7.1 7 7.1 2.5 0 4.2-.6 5.2-1.3V15h-3.4c-1.3 0-2.3-1-2.3-2.3 0-1.2 1-2.2 2.3-2.2h5.7c1.2 0 2.2 1 2.2 2.2v6.8a2.3 2.3 0 0 1-.6 1.7 13.6 13.6 0 0 1-9.2 3.2Z"
        fill="#0D102B" />
</svg>