<svg viewBox="0 0 218 33" fill="none" xmlns="http://www.w3.org/2000/svg">
    <path
        d="m89.4 17.6-4.3 3c-1.2.8-2.5 1.5-3.8 2-1.2.4-1.9.3-2.3-.2-.4-.6-.4-1.7 0-3 .3-1.3.8-2.7 1.3-4 .7-1.2 1.2-2.5 1.6-3.8.5-1.3.7-2.7.7-4 0-1.4-.5-2.8-1.3-4-.7-1.1-1.8-2-3-2.4a14 14 0 0 0-9.8.2c-1.4.5-2.6 1.2-3.6 2.2-1.1 1-2 2.3-2.6 3.8-.2.7-.4 1.4-.4 2.2l-.2 2.4v1.2L59.4 15a19 19 0 0 0-5 5.7c-.5.7-.9 1.5-1.1 2.4-.1.3 0 .8.1 2a12.4 12.4 0 0 0 5.8 7.4l.2-.2.1-.1-.7-.8c-.5-.6-.9-1.2-1.2-2-.4-.7-.6-1.5-.5-2.4 0-1.1.8-2.2 2.2-3.2 1.4-1 3.9-1.8 7.3-2.5a8 8 0 0 0 2.6-1.2c.7-.5 1-.8 1.2-.8-.3 2.7.1 5.2 1.4 7.5 1.1 1.9 2.5 3.6 4.1 5L92 16c-.9.5-1.7 1-2.5 1.7Zm-21-8.8-.7 2-.4 1.2.5.5.4.6-.3 1.2c-.2.6-.6 1-1.2 1.3-.7.3-1.4.4-2.2.2l-1.6-.6-.6-.5 6.5-7v.2l-.3 1ZM214.6 6a3.3 3.3 0 0 1 .2 6.6h-.2a3.3 3.3 0 0 1-.2-6.6h.2Zm0 .6a2.6 2.6 0 0 0-2.6 2.8c0 1.4 1.2 2.5 2.6 2.5 1.4 0 2.5-1.1 2.5-2.5v-.1c0-1.4-1-2.7-2.6-2.7ZM214 11h-.8V7.7h1.3c.4-.1.8 0 1.2.2.2.2.3.4.3.7 0 .4-.2.6-.7.8.3.2.5.5.6.9l.3.8h-.8l-.3-.8c0-.4-.3-.5-.7-.5h-.4V11Zm0-1.9h.4c.4 0 .8-.1.8-.5 0-.3-.3-.5-.8-.5h-.4v1ZM.1 4.2h18.7v5.6h-5.2v15.3H5.3V9.8H.1V4.2Z"
        fill="#0D102B" />
    <path
        d="M35 25h-7v-8.8l-.3-1.2c-.3-.3-.6-.5-1-.4-.4 0-.7 0-1 .4-.2.2-.3.7-.3 1.5v8.7h-7v-21h7v8.3c.4-.7 1-1.3 1.8-1.7.8-.5 1.8-.6 2.7-.6a5.5 5.5 0 0 1 3.4 1l1 1 .5 1.6.2 2.6V25ZM52.5 19h-10v.6c0 1 0 1.6.4 1.9.4.3 1 .5 1.5.5.4 0 .9-.1 1.3-.5.3-.3.5-.8.5-1.3h6.2c0 .8-.3 1.5-.7 2.2-.5.7-1 1.3-1.7 1.8-.7.4-1.5.8-2.4 1a15 15 0 0 1-6.6 0c-.9-.2-1.7-.5-2.4-1a7.8 7.8 0 0 1-1.8-2 6 6 0 0 1-.8-2l-.3-2.4c0-1.3.2-2.5.6-3.7.4-.8 1-1.6 1.6-2.2.7-.6 1.6-1 2.5-1.4a12.8 12.8 0 0 1 7.7 0 6.7 6.7 0 0 1 4 4.1c.3 1 .4 2.2.4 3.3v1.2Zm-6.3-3a4 4 0 0 0-.3-1.7c-.3-.5-.8-.7-1.5-.7-.6 0-1.2.2-1.5.7-.3.3-.4.9-.4 1.7h3.7ZM90.4 4.1h12.5c2.6 0 4.5.5 5.5 1.4a5.8 5.8 0 0 1 1.3 5.8c-.2.6-.5 1.1-.8 1.5l-1.3 1-1.8.7c.7 0 1.4.3 2 .5l1 .8c.3.4.5 1 .6 1.4l.5 3.4c.2 1.6.5 3.1.9 4.6h-8.2a5 5 0 0 1-.2-1l-.3-1.7-.4-2.8c0-.4-.2-1-.4-1.4a1 1 0 0 0-.6-.5 6 6 0 0 0-1.2 0h-1V25h-8.1v-21Zm8.1 8.8h.7c.5 0 1 0 1.5-.2.4-.1.8-.3 1-.7.2-.4.4-.8.3-1.3 0-.5-.2-1-.5-1.4-.4-.3-1.2-.4-2.3-.4h-.7v4Z"
        fill="#0D102B" />
    <path
        d="M127.1 19h-10v.6c0 1 0 1.6.4 1.9.4.3 1 .5 1.4.5.5 0 1-.1 1.3-.5.4-.3.6-.8.6-1.3h6.1c0 .8-.3 1.5-.7 2.2-.4.7-1 1.3-1.6 1.8-.8.4-1.6.8-2.4 1a15 15 0 0 1-6.6 0 6 6 0 0 1-2.4-1 7.8 7.8 0 0 1-1.7-2 9.7 9.7 0 0 1-1.2-4.4c0-1.3.2-2.5.6-3.7.4-.8 1-1.6 1.6-2.2.7-.6 1.6-1 2.5-1.4a12.8 12.8 0 0 1 7.6 0 6.7 6.7 0 0 1 4 4.1c.3 1 .5 2.2.5 3.3v1.2Zm-6.3-3c0-.9 0-1.4-.2-1.7-.4-.5-.9-.7-1.6-.7-.6 0-1.2.2-1.5.7-.3.3-.4.9-.4 1.7h3.7ZM138.2 12.1l.3-1.5h6.6v12.6c0 1 0 2-.2 2.9-.3 1.6-1.2 3-2.6 3.7-.8.5-1.7.7-2.7 1-1.1.2-2.3.3-3.4.3-2.9 0-4.8-.4-6-1.3a4.7 4.7 0 0 1-1.8-3.7h6.8c0 .4 0 .7.3.9.4.2.7.3 1.1.3.7 0 1.2-.3 1.5-.7.2-.4.3-1 .3-2V23c-.4.7-1 1.2-1.7 1.5a7 7 0 0 1-2.7.5c-2.2 0-3.8-.8-5-2.3a7.4 7.4 0 0 1-1.4-4.7c0-2.5.5-4.4 1.8-5.7 1.1-1.3 2.8-2 4.5-2 .9 0 1.8.1 2.6.5.7.3 1.3.8 1.7 1.3Zm-1.9 8.8c.4 0 .8 0 1-.3.3-.2.5-.6.6-1v-4.1a2 2 0 0 0-.5-.9l-1-.2c-.3 0-.6 0-.9.3-.3.2-.4.5-.6.8-.1.9-.2 1.7-.1 2.6v1.8c.1.3.3.6.6.8l1 .2ZM146.1 8.7V4.2h7v4.5h-7Zm0 2h7V25h-7V10.6ZM153.7 20.4h6.4c0 .7.2 1.2.4 1.5.3.4.7.5 1.2.5.4 0 .8-.1 1.1-.3.3-.3.5-.6.4-1 0-.3 0-.6-.3-.8-.3-.2-.8-.4-1.8-.5l-2.5-.5c-1-.1-1.8-.4-2.6-.8a4 4 0 0 1-1.7-2c-.2-.4-.3-1-.3-1.4 0-1.2.3-2.2 1-3a6 6 0 0 1 2.5-1.6 18.8 18.8 0 0 1 7.5-.2c1 .2 1.8.6 2.6 1.1.6.5 1 1 1.4 1.8l.2 1.7h-6c0-.4 0-.9-.3-1.3-.3-.2-.7-.4-1.1-.3-.5 0-1 0-1.2.3a1 1 0 0 0-.3.8l.1.7.4.3 1.3.2 2.4.4c1.4.2 2.5.5 3.2 1 .6.2 1.2.7 1.5 1.4a5 5 0 0 1-.3 4.9c-.6.8-1.4 1.4-2.4 1.7-1.1.5-2.7.8-4.8.8-1 0-2 0-3-.2-.8-.1-1.6-.3-2.3-.6a4 4 0 0 1-1.4-1.1c-.4-.4-.7-1-.9-1.4-.3-.7-.4-1.4-.4-2.1ZM171.3 8.2l6.9-2.5v4.8h3.3V15h-3.3v4.3c0 .7 0 1.2.3 1.3.3.3.6.4 1 .4l1.8-.3v4.3c-1.6.3-3.1.5-4.7.6-.8 0-1.7-.2-2.5-.4-.7-.2-1.3-.6-1.8-1.1-.4-.4-.6-.9-.8-1.4l-.2-1.8V15h-2v-4.3h2V8.2Z"
        fill="#0D102B" />
    <path
        d="M198 19h-10v.6c0 1 0 1.6.4 1.9.4.4 1 .5 1.5.5s1-.1 1.3-.5c.3-.3.5-.8.6-1.3h6c0 .8-.2 1.5-.7 2.2-.4.7-1 1.3-1.6 1.8-.8.4-1.6.8-2.4 1a15 15 0 0 1-6.6 0 6 6 0 0 1-2.4-1 7.3 7.3 0 0 1-1.8-2 6 6 0 0 1-.8-2l-.3-2.4c0-1.3.2-2.5.6-3.7.4-.8 1-1.6 1.6-2.2.8-.6 1.6-1 2.5-1.4a12.8 12.8 0 0 1 7.7 0c1 .4 1.9 1 2.6 1.8.6.7 1 1.5 1.3 2.3.3 1.1.4 2.2.4 3.3.2.4.2.8.1 1.2Zm-6.2-3c0-.9 0-1.4-.3-1.7-.3-.5-.8-.7-1.6-.7-.6 0-1.1.2-1.5.7-.3.3-.3.9-.3 1.6h3.7ZM198.8 10.4h6.7l.2 1.7c.5-.5 1-1 1.7-1.4.5-.2 1-.4 1.5-.4.6 0 1.2.2 1.7.4v5.5l-1.8-.3h-.9a2 2 0 0 0-1.5.5c-.3.3-.5.9-.5 1.6v7.1h-7V10.4Z"
        fill="#0D102B" />
</svg>