<svg viewBox="0 0 189 25" fill="none" xmlns="http://www.w3.org/2000/svg">
    <path
        d="M22.5.4V5h-1c-.4-.1-.6.2-.6.5-1.4 5-3 9.7-4.6 14.6l-1 3.3c0 .2-.4.4-.6.4H7.4l-.1-.5L1.7 5.6c-.1-.5-.3-.5-.8-.5H0V.4h10.1V5h-2l3.3 13.2h.2l3.6-13.2h-2V.4h9.3Zm16 6.3h6.9l.1 2.4 1.1-1.3a6.4 6.4 0 0 1 6.5-1c1.8.6 2.6 2 2.6 3.9v8.4H57v4.8h-7.6V13.2c0-1-.4-1.4-1-1.6-.8-.1-1.4 0-1.9.7l-.3.5-.2.4v5.9h1.1v4.8h-8.7V19h1.3v-7.6h-1.3V6.7Zm41.6 4.6H79V6.6h7.4V19h1.4v4.8h-7V22l-.7.8a6.7 6.7 0 0 1-6.8 1 4 4 0 0 1-2.4-3.8l-.2-8v-.6h-1.4V6.7h7.6V17c0 .4 0 1 .2 1.2.1.7.8 1 1.4 1 .6 0 1.1-.3 1.4-1 .2-.1.2-.4.2-.7v-6Zm-42.7 5.1H26.8c0 1 0 2 .5 2.7.3.6 1 1 1.7 1 .6 0 1.4-.4 1.8-1.2l.3-1h5.8a6 6 0 0 1-2.5 4.5 8 8 0 0 1-3.6 1.5c-1.8.3-3.7.1-5.4-.4-2.4-.7-4-2.3-4.6-4.6-.8-2.5-.8-5 0-7.6 1-3 3.1-4.7 6.3-5.2 1.4-.2 2.9-.2 4.3.3 3.2 1 5 3 5.5 6.4.4 1.2.4 2.3.5 3.6ZM27 13.1h4c0-1 0-1.8-.9-2.2-.8-.5-1.6-.5-2.2 0-1 .4-1 1.2-1 2.2Zm93 3.3h-10.6c0 1 0 2 .5 2.7.5.8 1 1 1.9 1a2 2 0 0 0 1.7-1.2l.3-.9h6a6.7 6.7 0 0 1-6.4 6.2c-1.8.1-3.4.1-5-.5-2.3-.8-4-2.4-4.7-4.8a12 12 0 0 1 0-7.4c1-3.2 3.3-4.8 6.5-5.2 1.4-.2 3-.2 4.4.3 3 1 4.6 3 5.3 5.8l.1 4Zm-10.3-3.3h4.1c0-1.8-.8-2.7-2.2-2.6-1.3.2-2 1.2-1.9 2.6ZM58 6.6h1.9V3.2c0-.6.1-.7.8-1l4.9-1v5.4h2.7v4.7h-2.7V18c.1 1.1 1 1.6 1.9 1.4l.6-.1v3c0 1.4 0 1.4-1.4 1.6a14 14 0 0 1-4.5 0c-2-.5-3-1.8-3-3.8v-8.8h-1.4c.2-1.4.2-3 .2-4.7ZM89 23.9V19h1.4v-7.6h-1.4V6.7h6.7l.1 2.7c.2-.1.2-.3.2-.4a3.4 3.4 0 0 1 3-2.4h2.2a.3.3 0 0 1 .3.3V12h-2.5c-1.8.3-2.5 1.3-2.7 3V19h1.9v4.8c-2.9.2-6 .2-9.2.2ZM133.7.6c1 .1 2 .1 2.7.4a6 6 0 0 1 3.7 8.8 5 5 0 0 1-2 1.7l-1 .6c.1.2.3.2.4.2 2.6.8 3.7 2.7 3.8 5 .3 3.6-1.9 6-5.4 6.4-1 .2-2.2.2-3.1.2h-11V19h2v-14h-2V.5c4.1.2 8 .2 12 .2Zm-3.5 14V19a.3.3 0 0 0 .3.3h2.7c.7 0 1.3-.3 1.6-1 .8-1.3 0-3.3-1.6-3.6-1-.3-1.9-.3-3-.3Zm0-4.5c1 0 1.8 0 2.7-.2 1.1-.1 1.8-1 1.8-2.2 0-1.1-.7-2-1.6-2.2-1-.2-2-.2-2.9-.2v4.8Zm58 1.6H186a.3.3 0 0 0-.3.3v6c0 1.3.8 1.9 2.2 1.6h.3v3.8c0 .3 0 .5-.3.5-1.8.3-3.5.4-5.4.1-2-.5-3-1.6-3-3.6v-8.9h-.6c-1 0-.8.2-.8-.8v-4h1.9V3.7c0-1.1-.2-1 1-1.1a67 67 0 0 0 4.7-1.1v5.4h2.8l-.1 4.9Zm-18.6 1.7v-1.6c0-1-.7-1.6-1.5-1.6s-1.6.7-1.6 1.5v.6h-5.7a5 5 0 0 1 3-5 11 11 0 0 1 9.2 0c2 1 2.9 2.5 2.9 4.5V19h1.4v4.7h-7.1l-.2-1.9c-.1.2-.3.3-.3.5-1.9 2.2-5.4 2.2-7.3 1.3-1.4-.8-2-2.3-2.2-3.8-.2-3.5 1.6-5.8 5.2-6.4l3.8-.3c-.1.3 0 .3.3.3Zm0 3H168c-1.4.2-2 1.3-1.9 2.6.2 1 1.1 1.7 2.2 1.2.7-.1 1-.6 1.2-1.2v-2.6Zm-10.2.2h-10.6c0 1 0 2 .6 2.8.5.7 1.1.8 2 .8.7 0 1.2-.5 1.5-1l.3-1h5.9a6 6 0 0 1-2.5 4.6 8.7 8.7 0 0 1-6.2 1.5 8 8 0 0 1-2.7-.4 6.5 6.5 0 0 1-4.6-4.5c-.8-2.7-1-5.4.1-8a7.2 7.2 0 0 1 6.4-4.8c1.4-.2 3 0 4.4.3 3 1 4.6 3.2 5.2 6.2l.2 3.5Zm-6.2-3.2c0-1-.1-1.9-1-2.4a2 2 0 0 0-2.3.2c-.6.5-.8 1.3-.8 2.2h4.1Z"
        fill="#0D102B" />
</svg>