<svg viewBox="0 0 189 25" fill="none" xmlns="http://www.w3.org/2000/svg">
    <path
        d="M22.5103 0.390625V5.14722H21.5598C21.084 4.98881 20.9256 5.30564 20.9256 5.62306C19.4986 10.5387 17.9133 15.2959 16.3274 20.2043C16.0105 21.3144 15.6931 22.4245 15.2173 23.5346C15.2173 23.693 14.9004 23.8514 14.7414 23.8514H7.44062L7.28221 23.3756L1.73174 5.61706C1.57333 5.14122 1.41492 5.14122 0.939679 5.14122H0V0.390625H10.1481V5.14722H8.08688L11.4172 18.3075H11.5756L15.2227 5.14722H13.1615V0.390625H22.5103ZM38.5316 6.73316H45.35L45.5084 9.11176C45.9843 8.63592 46.3005 8.16068 46.6185 7.84325C48.5207 6.25792 50.7409 5.94109 53.1194 6.73316C54.8638 7.36741 55.6565 8.79433 55.6565 10.6971V19.1002H57.0834V23.8568H49.4657V13.2341C49.4657 12.283 49.1489 11.8072 48.5147 11.6488C47.7226 11.4904 47.0877 11.6488 46.6125 12.283L46.2957 12.7589L46.1373 13.2347V19.1014H47.2474V23.858H38.525V19.0996H39.7935V11.4898H38.525L38.5316 6.73316ZM80.0743 11.3313H78.9642V6.57474H86.4168V19.1002H87.8438V23.8568H80.867V22.1124C80.5501 22.4293 80.3911 22.7467 80.0749 22.9045C78.3306 24.4898 75.3183 24.8067 73.2565 23.8556C71.6712 23.0635 70.8779 21.7944 70.8779 20.0501L70.7195 12.1222V11.488H69.2926V6.73316H76.9036V16.874C76.9036 17.3498 76.9036 17.8251 77.062 18.1425C77.2205 18.7768 77.8541 19.0936 78.489 19.0936C79.1238 19.0936 79.5991 18.7768 79.9159 18.1425C80.0743 17.9841 80.0743 17.6667 80.0743 17.3504V11.3313ZM37.4149 16.412H26.7922C26.7922 17.363 26.7922 18.3141 27.2681 19.1074C27.5849 19.7416 28.3782 20.0585 29.0124 20.0585C29.6467 20.0585 30.4394 19.7416 30.7568 18.9484C30.9152 18.6316 30.9152 18.3141 31.0736 17.8383H36.9403C36.7819 19.7404 35.9892 21.3264 34.4033 22.4365C33.3245 23.2068 32.0713 23.6971 30.7562 23.8634C29.0118 24.1802 27.1091 24.0218 25.3653 23.5466C22.9867 22.7545 21.4014 21.168 20.7671 18.9484C19.9751 16.4114 19.9751 13.8744 20.7671 11.3373C21.7182 8.32509 23.9384 6.58074 27.1097 6.1049C28.5366 5.94649 29.9635 5.94649 31.391 6.42173C34.5623 7.37281 36.3066 9.43398 36.9415 12.7643C37.2583 14.0328 37.2583 15.1429 37.4173 16.4114L37.4149 16.412ZM26.9501 13.0817H31.0724C31.0724 12.1306 31.0724 11.3373 30.1213 10.8615C29.3293 10.3857 28.536 10.3857 27.9011 10.8615C26.9501 11.3373 26.9501 12.13 26.9501 13.0817ZM120.018 16.412H109.401C109.401 17.363 109.401 18.3141 109.877 19.1074C110.353 19.9007 110.987 20.0585 111.779 20.0585C112.571 20.0585 113.206 19.5826 113.524 18.9484L113.84 17.9973H119.707C119.39 21.4854 116.853 23.864 113.365 24.1814C111.62 24.3398 110.034 24.3398 108.449 23.7056C106.07 22.9135 104.485 21.327 103.692 18.949C102.9 16.412 102.9 14.0334 103.692 11.4964C104.643 8.32509 107.023 6.73976 110.193 6.26392C111.62 6.1055 113.205 6.1055 114.634 6.58074C117.646 7.53182 119.232 9.593 119.866 12.4474C120.024 13.8744 120.024 15.1429 120.024 16.4114L120.018 16.412ZM109.711 13.0817H113.834C113.834 11.3373 113.042 10.3863 111.614 10.5447C110.345 10.7031 109.552 11.6548 109.711 13.0817ZM57.8689 6.57414H59.771V3.24386C59.771 2.60961 59.9294 2.4518 60.5631 2.29278L65.4787 1.18269V6.57354H68.1741V11.3301H65.4787V17.9907C65.6371 19.1008 66.4298 19.576 67.3808 19.4176C67.5393 19.4176 67.6977 19.4176 68.0151 19.2592V22.2715C68.0151 23.6984 68.0151 23.6984 66.5882 23.8568C65.1613 24.0152 63.7343 24.1736 62.1478 23.8568C60.0866 23.381 59.1356 22.1124 59.1356 20.0513V11.3325H57.7086C57.867 9.90562 57.867 8.32029 57.867 6.57594L57.8689 6.57414ZM89.1051 23.8574V19.1002H90.532V11.4898H89.1051V6.73316H95.7644C95.7644 7.52522 95.9228 8.4775 95.9228 9.42858C96.0813 9.27017 96.0812 9.11176 96.0812 8.95274C96.5571 7.52582 97.6666 6.73256 99.0935 6.57414H101.314C101.396 6.58 101.473 6.61526 101.531 6.67345C101.589 6.73165 101.625 6.80888 101.631 6.89097V12.1234C100.838 12.1234 99.8862 11.965 99.0935 12.1234C97.3492 12.4402 96.5565 13.3919 96.3981 15.1357V18.9412H98.3002V23.6978C95.4464 23.8562 92.2757 23.8562 89.1039 23.8562L89.1051 23.8574ZM133.718 0.560439C134.669 0.718852 135.62 0.718853 136.413 1.03628C140.06 1.98736 141.964 6.42713 140.06 9.75681C139.584 10.5489 138.95 11.0253 138.158 11.5012C137.841 11.6596 137.524 11.818 137.048 12.1354C137.206 12.2938 137.365 12.2938 137.524 12.2938C140.061 13.0859 141.171 14.9892 141.329 17.3678C141.646 20.8559 139.427 23.3924 135.938 23.7104C134.828 23.8688 133.718 23.8688 132.767 23.8688H121.826V19.1122H123.888V5.15862H121.826V0.402626C125.949 0.56104 129.754 0.56104 133.718 0.56104L133.718 0.560439ZM130.23 14.514V19.1122C130.235 19.1943 130.271 19.2715 130.329 19.3297C130.387 19.3879 130.464 19.4232 130.546 19.429H133.242C133.876 19.429 134.51 19.1122 134.827 18.4779C135.619 17.051 134.827 15.1477 133.242 14.8308C132.291 14.514 131.34 14.514 130.23 14.514ZM130.23 10.0736C131.181 10.0736 131.974 10.0736 132.925 9.91522C134.035 9.75681 134.669 8.80513 134.669 7.69504C134.669 6.58494 134.035 5.63386 133.084 5.47485C132.133 5.31584 131.182 5.31644 130.23 5.31644L130.23 10.0736ZM188.262 11.659H185.884C185.801 11.6648 185.724 11.7001 185.666 11.7583C185.608 11.8165 185.573 11.8937 185.567 11.9758V18.0003C185.567 19.2688 186.359 19.9025 187.787 19.5856H188.104V23.3912C188.104 23.708 188.104 23.867 187.787 23.867C186.043 24.1838 184.299 24.3428 182.396 24.0254C180.335 23.5496 179.384 22.4401 179.384 20.3783V11.5012H178.755C177.804 11.5012 177.963 11.6596 177.963 10.7091V6.75116H179.865V3.57989C179.865 2.4698 179.707 2.62881 180.816 2.4698C182.415 2.15774 184.001 1.78747 185.573 1.35971V6.75056H188.427C188.268 8.4949 188.268 10.0808 188.268 11.6662L188.262 11.659ZM169.553 13.4033V11.818C169.553 10.8669 168.918 10.2326 168.126 10.2326C167.333 10.2326 166.54 10.8669 166.54 11.6596V12.2938H160.832C160.674 10.0736 161.783 8.17148 163.844 7.2198C166.857 5.95129 170.028 5.95129 173.041 7.37821C174.943 8.32929 175.895 9.75681 175.895 11.8186V18.9592H177.321V23.7158H170.181C170.181 23.0815 170.022 22.6057 170.022 21.8136C169.864 21.972 169.706 22.1304 169.706 22.2895C167.803 24.5096 164.315 24.5096 162.412 23.558C160.985 22.7659 160.351 21.3378 160.192 19.7524C160.033 16.2644 161.777 14.0442 165.424 13.4099L169.23 13.0931C169.071 13.4099 169.23 13.4099 169.547 13.4099L169.553 13.4033ZM169.553 16.4156H168.126C166.699 16.574 166.065 17.6841 166.224 18.9526C166.382 20.0627 167.334 20.6969 168.444 20.2211C169.078 20.0627 169.395 19.5868 169.554 18.9526L169.553 16.4156ZM159.405 16.574H148.781C148.781 17.6841 148.781 18.6352 149.416 19.4278C149.891 20.0621 150.526 20.2199 151.318 20.2199C152.11 20.2199 152.586 19.744 152.903 19.1098L153.22 18.1587H159.087C158.928 20.0609 158.135 21.6468 156.55 22.7569C154.647 24.1838 152.586 24.5012 150.365 24.3422C149.414 24.3422 148.621 24.1838 147.67 23.8664C145.291 23.2321 143.864 21.6462 143.072 19.426C142.28 16.7306 142.121 14.0352 143.23 11.3397C144.34 8.4859 146.56 6.89937 149.573 6.58314C151 6.42473 152.585 6.58314 154.013 6.89997C157.025 7.85105 158.611 10.0712 159.246 13.0841C159.246 14.1942 159.404 15.3043 159.404 16.5722L159.405 16.574ZM153.22 13.4027C153.22 12.4516 153.062 11.5006 152.269 11.0241C151.477 10.5477 150.684 10.5483 149.891 11.1825C149.257 11.6584 149.099 12.451 149.099 13.4027H153.22Z"
        fill="#0D102B" />
</svg>