<svg fill="none" xmlns="http://www.w3.org/2000/svg" viewBox="0 0 111 22">
  <path
    d="M25.1.1V22H1V0H25Zm-7.7 4.4h-14v1.8h4.1V17h2.8V6.3h6.2c1.9 0 2.8 1 2.8 4.4 0 3.3-.8 4.6-2.7 4.6h-2.8V7H11V17h5.6c3.3 0 5.7-.7 5.7-6.5.2-4.3-1.5-6-4.9-6Zm82.2 8.8v-1.2a2 2 0 0 1-2.2 1.4c-2 0-2.9-1.7-2.9-3.5s.8-3.4 2.8-3.4c.8 0 1.6.3 2 1V3.8h3.1v9.5h-2.8Zm-1-4.7c-.7 0-.8.7-.8 1.4s0 1.4.8 1.4c.7 0 .8-.6.8-1.3 0-.8-.1-1.5-.8-1.5Zm-65-4h4.7l3.2 8.7h-3.6l-.6-1.9h-2.8l-.6 2h-3.4l3.2-8.9ZM35 9.3h2l-1-3-1 3Zm7-2.6h3V8c.5-1 1.4-1.4 2.3-1.3 1 0 1.8.3 2.1 1 .2-.7 1.3-1 2.1-1 2.4 0 2.4 1.5 2.4 2.8v4h-3.2V9.6c0-.4 0-1-.6-1s-.6.6-.6 1v3.7h-3.1V9.7c0-.4 0-1-.6-1s-.6.6-.6 1v3.7H42V6.8Zm15.8 4c.1.8.8 1 1.8 1 .8 0 1.5 0 2.2-.4v1.7c-1 .3-2 .4-3 .4-2.6 0-4-1.3-4-3.5 0-2.3 1.4-3.4 4-3.4s3.5 1.6 3.5 3.9v.4h-4.5Zm1.6-1.3c0-.5 0-1.3-.8-1.3-.7 0-.9.8-.9 1.3h1.7Zm6.7-2.7v1.5c.4-1 1-1.7 2-1.7h.4v2.8l-.6-.1c-.5 0-1 .2-1.2.5-.3.3-.5.8-.5 1.2v2.3H63V6.7h3Zm6.7-.7h-3.2V3.9h3.2v2.2Zm-3.3.7h3.2v6.6h-3.2V6.8Zm5.2 0V5.3l3.2-1v2.5h1.5v1.9h-1.5V11c.2.2.4.3.7.3h.8v1.8c-.7.2-1.5.3-2.2.3-1.7 0-2.5-.8-2.5-2.5V8.7h-1.1v-2h1Zm8.6 0v1.5c.4-1 1-1.7 2-1.7h.5v2.8l-.7-.1c-.5 0-.9.2-1.2.5-.3.3-.5.8-.5 1.2v2.3h-3.2V6.7h3.1ZM87 7c.9-.3 1.8-.4 2.8-.4 1.7 0 4 .3 4 2.8v4h-3v-1c-.4.7-1.2 1.2-2.1 1.1-1.2 0-2.4-.6-2.4-2 0-2 1.8-2.4 3.5-2.4h1.2c0-.8-.8-1-1.6-1s-1.5.3-2.2.7L86.9 7Zm3.8 3.5h-.3c-.6 0-1.3 0-1.3.7 0 .2 0 .4.2.5 0 .1.3.2.5.1.3 0 .6-.2.7-.4.2-.2.3-.4.2-.7v-.2Zm15.7.4c0 .7.8 1 1.8 1 .8 0 1.5-.2 2.2-.5v1.7c-1 .3-2 .4-3 .4-2.7 0-4-1.3-4-3.5 0-2.3 1.3-3.4 4-3.4 2.6 0 3.5 1.6 3.5 3.9v.4h-4.5Zm1.7-1.5c0-.5-.1-1.3-.8-1.3-.7 0-.9.8-.9 1.3h1.7Z"
    fill="#0D102B" />
  <defs>
    <clipPath id="a">
      <path fill="#fff" transform="translate(.9 .1)" d="M0 0h110v21.7H0z" />
    </clipPath>
  </defs>
</svg>