<svg xmlns="http://www.w3.org/2000/svg" viewBox="0 0 131 89.3">
  <path stroke-miterlimit="10" fill="#f2f2f7" stroke="#0d102b" d="M.5.5h130v88.3H.5z"/>
  <path d="M6.6 6.6h24.1c11 0 22.3 2.6 22.3 15.8 0 5-2.5 9.9-7.5 11.5v.5c6.2 2.2 10.1 6.7 10.1 13.5 0 11.7-10.9 15.7-20.9 15.7H6.6v-57zm21.1 21.9c3 0 6.4-.3 6.4-4.2 0-4.2-3.9-3.9-6.9-3.9h-1.4v8.2h1.9zM25.8 50h2.3c3.4 0 8.3-.1 8.3-4.8 0-4.8-5.3-4.7-8.6-4.7h-2V50zM71.7 6.6h20v19.2h12.7V6.6h20v57.1h-20V43.8H91.7v19.8h-20v-57zM6.6 66.8h117.8v15.9H6.6z" fill="#0d102b"/>
  <path d="M9.4 78.4v-7.2H11c.3 0 2.7-.2 2.7 2.1 0 1.4-1 2.1-2.4 2.1H11v3H9.4zm1.5-4.1c.8 0 1.2-.2 1.2-1 0-.5-.2-.9-.9-.9h-.3v1.9zM16 71.2V74h1.6v-2.8h1.6v7.2h-1.6v-3.1H16v3.1h-1.6v-7.2H16zM25.5 74.8c0 2.7-1.4 3.7-2.8 3.7s-2.8-1-2.8-3.7 1.4-3.7 2.8-3.7 2.8 1 2.8 3.7zm-2.8 2.4c1 0 1.1-1.8 1.1-2.4 0-.6-.1-2.4-1.1-2.4s-1.1 1.8-1.1 2.4c0 .6.1 2.4 1.1 2.4zM30 71.2v1.3h-1.2v5.9h-1.6v-5.9H26v-1.3h4zM35.9 74.8c0 2.7-1.4 3.7-2.8 3.7s-2.8-1-2.8-3.7 1.4-3.7 2.8-3.7 2.8 1 2.8 3.7zm-2.8 2.4c1 0 1.1-1.8 1.1-2.4 0-.6-.1-2.4-1.1-2.4S32 74.2 32 74.8c0 .6.1 2.4 1.1 2.4zM41.7 74.6v1.3H39v-1.3h2.7zM46.3 71.2l.9 3.5.3 1.2c.1-.4.1-.8.2-1.3l1-3.5h1.6l-2.2 7.2h-1.3l-2.3-7.2h1.8zM52.6 71.2v7.2H51v-7.2h1.6zM53.6 78.4v-7.2h1.2c.3 0 3.6-.4 3.6 3.7 0 2.1-.9 3.6-3.4 3.6h-1.4zm3.2-3.6c0-.9-.3-2.4-1.6-2.4v4.7c1.3.1 1.6-1.4 1.6-2.3zM62.3 71.2v1.3h-1.6v1.6h1.4v1.3h-1.4V77h1.6v1.3h-3.2v-7.2h3.2zM68.6 74.8c0 2.7-1.4 3.7-2.8 3.7s-2.8-1-2.8-3.7 1.4-3.7 2.8-3.7 2.8 1 2.8 3.7zm-2.8 2.4c1 0 1.1-1.8 1.1-2.4 0-.6-.1-2.4-1.1-2.4s-1.1 1.8-1.1 2.4c-.1.6 0 2.4 1.1 2.4zM74.3 74.6v1.3h-2.6v-1.3h2.6zM77.7 78.4v-7.2h1.6c.3 0 2.7-.2 2.7 2.1 0 1.4-1 2.1-2.4 2.1h-.3v3h-1.6zm1.6-4.1c.8 0 1.2-.2 1.2-1 0-.5-.2-.9-.9-.9h-.3v1.9zM82.8 78.4v-7.2h1.6c1 0 2.8.1 2.8 2.1 0 .8-.3 1.5-1.1 1.9l1.4 3.3h-1.7l-1.4-3.3v3.3h-1.6zm1.5-4.1h.3c.7 0 1-.4 1-1 0-.5-.3-.9-1.1-.9h-.2v1.9zM93.6 74.8c0 2.7-1.4 3.7-2.8 3.7s-2.8-1-2.8-3.7 1.4-3.7 2.8-3.7 2.8 1 2.8 3.7zm-2.8 2.4c1 0 1.1-1.8 1.1-2.4 0-.6-.1-2.4-1.1-2.4s-1.1 1.8-1.1 2.4c0 .6.1 2.4 1.1 2.4zM100 71.2l1.9 7.2h-1.7l-.3-1.2h-1.6l-.3 1.2h-1.6l1.8-7.2h1.8zm-.7 2.9l-.2-1.1-.2 1.1-.3 1.9h1.1l-.4-1.9zM104 71.2v4.7c0 .5-.1 1.4.8 1.4.8 0 .8-.5.8-1.1v-5h1.6v5.3c0 .8-.1 2.1-2.4 2.1-1.5 0-2.3-.6-2.3-2v-5.4h1.5zM108.1 78.4v-7.2h1.2c.3 0 3.6-.4 3.6 3.7 0 2.1-.9 3.6-3.4 3.6h-1.4zm3.2-3.6c0-.9-.3-2.4-1.6-2.4v4.7c1.3.1 1.6-1.4 1.6-2.3zM115.2 71.2v7.2h-1.6v-7.2h1.6zM121.6 74.8c0 2.7-1.4 3.7-2.8 3.7s-2.8-1-2.8-3.7 1.4-3.7 2.8-3.7 2.8 1 2.8 3.7zm-2.8 2.4c1 0 1.1-1.8 1.1-2.4 0-.6-.1-2.4-1.1-2.4s-1.1 1.8-1.1 2.4c0 .6.1 2.4 1.1 2.4z" fill="#f2f2f7"/>
  <path d="M70.5 48.1c-3.3 2.3-7.3 4.5-12 4.5-5.7 0-11-3.3-11-7.8 0-4.8 4.5-7 9.2-9.4l.5-.2c-1.7-1.8-3.7-3.7-3.7-6.1 0-3.6 3.5-6.1 8.2-6.1 4.2 0 8 2.3 8 5.6 0 3.4-3.4 5.3-6.6 7.1l7.9 7.7 4.2-3.7 3 1.9-4.8 4.2 6.4 6.2h-5.3l-4-3.9zm-9.6-15.6c2.1-1.2 4.7-2.3 4.7-4.6 0-1.7-1.9-2.9-4.1-2.9-2.3 0-4.1 1.4-4.1 3.1 0 1.4 1.2 2.5 2.3 3.6l.9.9.3-.1zm-3.5 5.7c-2.8 1.5-6.2 3.2-6.2 6.1 0 2.7 3.1 5.1 6.6 5.1 3.8 0 7.1-2.2 9.8-4l-8.4-8.2-1.8 1z" fill="#f2f2f7" stroke="#0d102b"/>
  <path d="M52.8 29.1c0 2.3 1.8 4.2 3.4 5.9-4.6 2.3-9.3 4.7-9.3 9.8 0 4.6 5.2 8.4 11.6 8.4 4.7 0 8.7-2.2 12-4.3l3.9 3.9h6.9s-6.2-6.1-6.9-6.8c.7-.7 4.9-4.3 4.9-4.3l-4-2.5s-3.5 3.1-4.2 3.7c-.6-.6-6.1-5.9-7-6.8 3.2-1.8 6.3-3.7 6.3-7.2s-3.8-6.2-8.6-6.2c-5.3-.2-9 2.6-9 6.4zM48 44.8c0-4.4 4.3-6.6 8.9-8.9l1.1-.6-.9-1c-1.6-1.6-3.2-3.3-3.2-5.2 0-3.2 3.2-5.5 7.7-5.5 4.2 0 7.4 2.2 7.4 5 0 3-3 4.7-6.1 6.5l-.9.5 8.9 8.6s3.8-3.3 4.3-3.8c.4.3 1.4.8 2 1.3-.9.8-4.7 4.1-4.7 4.1s4.4 4.3 5.8 5.7h-3.7l-4.2-4.2-.4.3c-3 2.2-7 4.4-11.6 4.4-5.7 0-10.4-3.2-10.4-7.2z" fill="none"/>
  <path d="M56.8 28.1c0 1.5 1 2.5 2 3.5l1.7 1.7.7-.4.8-.5c1.9-1.1 4.2-2.3 4.2-4.6 0-2-2-3.5-4.7-3.5-2.6.1-4.7 1.7-4.7 3.8zm2.8 2.8c-.8-.9-1.6-1.8-1.6-2.8 0-1.4 1.6-2.6 3.6-2.6 1.7 0 3.5.9 3.5 2.4 0 1.7-1.7 2.6-3.6 3.7 0 0-.7.4-.8.4l-1.1-1.1z" fill="#0d102b"/>
  <path d="M57.1 37.8c-2.9 1.5-6.5 3.4-6.5 6.6 0 3 3.4 5.7 7.2 5.7 3.9 0 7.2-2.2 9.9-4l.8-.5-9.2-8.9-2.2 1.1zm2 .2c.5.5 6.7 6.6 7.6 7.4-2.5 1.6-5.5 3.5-8.9 3.5-3.2 0-6.1-2.2-6.1-4.6 0-2.6 3.1-4.2 5.9-5.6 0 .1 1-.5 1.5-.7z" fill="none"/>
</svg>
