<?xml version="1.0" encoding="UTF-8" standalone="no"?>
<svg
   xmlns:dc="http://purl.org/dc/elements/1.1/"
   xmlns:cc="http://creativecommons.org/ns#"
   xmlns:rdf="http://www.w3.org/1999/02/22-rdf-syntax-ns#"
   xmlns:svg="http://www.w3.org/2000/svg"
   xmlns="http://www.w3.org/2000/svg"
   xmlns:sodipodi="http://sodipodi.sourceforge.net/DTD/sodipodi-0.dtd"
   xmlns:inkscape="http://www.inkscape.org/namespaces/inkscape"
   id="bhlogo"
   viewBox="0 0 131 89.3"
   width="100%"
   height="100%"
   version="1.1"
   sodipodi:docname="B&amp;H_Foto_&amp;_Electronics_Logo.svg"
   inkscape:version="0.91 r13725">
  <metadata
     id="metadata77">
    <rdf:RDF>
      <cc:Work
         rdf:about="">
        <dc:format>image/svg+xml</dc:format>
        <dc:type
           rdf:resource="http://purl.org/dc/dcmitype/StillImage" />
        <dc:title />
      </cc:Work>
    </rdf:RDF>
  </metadata>
  <defs
     id="defs75" />
  <sodipodi:namedview
     pagecolor="#ffffff"
     bordercolor="#666666"
     borderopacity="1"
     objecttolerance="10"
     gridtolerance="10"
     guidetolerance="10"
     inkscape:pageopacity="0"
     inkscape:pageshadow="2"
     inkscape:window-width="1920"
     inkscape:window-height="1017"
     id="namedview73"
     showgrid="false"
     inkscape:zoom="3.4246773"
     inkscape:cx="-24.147192"
     inkscape:cy="24.735594"
     inkscape:current-layer="bhlogo"
     inkscape:window-x="-8"
     inkscape:window-y="-8"
     inkscape:window-maximized="1" />
  <rect
     x="-2.3"
     y="-2"
     display="none"
     width="135.5"
     height="93.300003"
     id="rect2"
     style="display:none;fill:url(#SVGID_1_)" />
  <rect
     x="0.5"
     y="0.5"
     stroke-miterlimit="10"
     width="130"
     height="88.300003"
     id="rect4"
     style="fill:#f2f2f7;stroke:#0d102b;stroke-miterlimit:10;stroke-opacity:1;fill-opacity:1" />
  <path
     d="M 65.5,44.7"
     id="path8"
     inkscape:connector-curvature="0" />
  <path
     d="m 6.6,6.6 24.1,0 c 11,0 22.3,2.6 22.3,15.8 0,5 -2.5,9.9 -7.5,11.5 l 0,0.5 c 6.2,2.2 10.1,6.7 10.1,13.5 0,11.7 -10.9,15.7 -20.9,15.7 l -28.1,0 0,-57 z m 21.1,21.9 c 3,0 6.4,-0.3 6.4,-4.2 0,-4.2 -3.9,-3.9 -6.9,-3.9 l -1.4,0 0,8.2 1.9,0 z m -1.9,21.5 2.3,0 c 3.4,0 8.3,-0.1 8.3,-4.8 0,-4.8 -5.3,-4.7 -8.6,-4.7 l -2,0 0,9.5 z"
     id="path10"
     inkscape:connector-curvature="0"
     style="fill:#0d102b;fill-opacity:1" />
  <path
     d="m 71.7,6.6 20,0 0,19.2 12.7,0 0,-19.2 20,0 0,57.1 -20,0 0,-19.9 -12.7,0 0,19.8 -20,0 0,-57 z"
     id="path12"
     inkscape:connector-curvature="0"
     style="fill:#0d102b;fill-opacity:1" />
  <rect
     x="6.5999999"
     y="66.800003"
     width="117.8"
     height="15.9"
     id="rect14"
     style="fill:#0d102b;fill-opacity:1" />
  <path
     style="fill:#f2f2f7;fill-opacity:1"
     inkscape:connector-curvature="0"
     id="path16"
     d="m 9.4,78.4 0,-7.2 1.6,0 c 0.3,0 2.7,-0.2 2.7,2.1 0,1.4 -1,2.1 -2.4,2.1 l -0.3,0 0,3 -1.6,0 z m 1.5,-4.1 c 0.8,0 1.2,-0.2 1.2,-1 0,-0.5 -0.2,-0.9 -0.9,-0.9 l -0.3,0 0,1.9 z" />
  <path
     style="fill:#f2f2f7;fill-opacity:1"
     inkscape:connector-curvature="0"
     id="path18"
     d="m 16,71.2 0,2.8 1.6,0 0,-2.8 1.6,0 0,7.2 -1.6,0 0,-3.1 -1.6,0 0,3.1 -1.6,0 0,-7.2 1.6,0 z" />
  <path
     style="fill:#f2f2f7;fill-opacity:1"
     inkscape:connector-curvature="0"
     id="path20"
     d="m 25.5,74.8 c 0,2.7 -1.4,3.7 -2.8,3.7 -1.4,0 -2.8,-1 -2.8,-3.7 0,-2.7 1.4,-3.7 2.8,-3.7 1.4,0 2.8,1 2.8,3.7 z m -2.8,2.4 c 1,0 1.1,-1.8 1.1,-2.4 0,-0.6 -0.1,-2.4 -1.1,-2.4 -1,0 -1.1,1.8 -1.1,2.4 0,0.6 0.1,2.4 1.1,2.4 z" />
  <path
     style="fill:#f2f2f7;fill-opacity:1"
     inkscape:connector-curvature="0"
     id="path22"
     d="m 30,71.2 0,1.3 -1.2,0 0,5.9 -1.6,0 0,-5.9 -1.2,0 0,-1.3 4,0 z" />
  <path
     style="fill:#f2f2f7;fill-opacity:1"
     inkscape:connector-curvature="0"
     id="path24"
     d="m 35.9,74.8 c 0,2.7 -1.4,3.7 -2.8,3.7 -1.4,0 -2.8,-1 -2.8,-3.7 0,-2.7 1.4,-3.7 2.8,-3.7 1.4,0 2.8,1 2.8,3.7 z m -2.8,2.4 c 1,0 1.1,-1.8 1.1,-2.4 0,-0.6 -0.1,-2.4 -1.1,-2.4 -1,0 -1.1,1.8 -1.1,2.4 0,0.6 0.1,2.4 1.1,2.4 z" />
  <path
     style="fill:#f2f2f7;fill-opacity:1"
     inkscape:connector-curvature="0"
     id="path26"
     d="m 41.7,74.6 0,1.3 -2.7,0 0,-1.3 2.7,0 z" />
  <path
     style="fill:#f2f2f7;fill-opacity:1"
     inkscape:connector-curvature="0"
     id="path28"
     d="m 46.3,71.2 0.9,3.5 c 0.1,0.4 0.2,0.8 0.3,1.2 l 0,0 c 0.1,-0.4 0.1,-0.8 0.2,-1.3 l 1,-3.5 1.6,0 -2.2,7.2 -1.3,0 -2.3,-7.2 1.8,0 z" />
  <path
     style="fill:#f2f2f7;fill-opacity:1"
     inkscape:connector-curvature="0"
     id="path30"
     d="m 52.6,71.2 0,7.2 -1.6,0 0,-7.2 1.6,0 z" />
  <path
     style="fill:#f2f2f7;fill-opacity:1"
     inkscape:connector-curvature="0"
     id="path32"
     d="m 53.6,78.4 0,-7.2 1.2,0 c 0.3,0 3.6,-0.4 3.6,3.7 0,2.1 -0.9,3.6 -3.4,3.6 l -1.4,0 z m 3.2,-3.6 c 0,-0.9 -0.3,-2.4 -1.6,-2.4 l 0,4.7 c 1.3,0.1 1.6,-1.4 1.6,-2.3 z" />
  <path
     style="fill:#f2f2f7;fill-opacity:1"
     inkscape:connector-curvature="0"
     id="path34"
     d="m 62.3,71.2 0,1.3 -1.6,0 0,1.6 1.4,0 0,1.3 -1.4,0 0,1.6 1.6,0 0,1.3 -3.2,0 0,-7.2 3.2,0 z" />
  <path
     style="fill:#f2f2f7;fill-opacity:1"
     inkscape:connector-curvature="0"
     id="path36"
     d="m 68.6,74.8 c 0,2.7 -1.4,3.7 -2.8,3.7 -1.4,0 -2.8,-1 -2.8,-3.7 0,-2.7 1.4,-3.7 2.8,-3.7 1.4,0 2.8,1 2.8,3.7 z m -2.8,2.4 c 1,0 1.1,-1.8 1.1,-2.4 0,-0.6 -0.1,-2.4 -1.1,-2.4 -1,0 -1.1,1.8 -1.1,2.4 -0.1,0.6 0,2.4 1.1,2.4 z" />
  <path
     style="fill:#f2f2f7;fill-opacity:1"
     inkscape:connector-curvature="0"
     id="path38"
     d="m 74.3,74.6 0,1.3 -2.6,0 0,-1.3 2.6,0 z" />
  <path
     style="fill:#f2f2f7;fill-opacity:1"
     inkscape:connector-curvature="0"
     id="path40"
     d="m 77.7,78.4 0,-7.2 1.6,0 c 0.3,0 2.7,-0.2 2.7,2.1 0,1.4 -1,2.1 -2.4,2.1 l -0.3,0 0,3 -1.6,0 z m 1.6,-4.1 c 0.8,0 1.2,-0.2 1.2,-1 0,-0.5 -0.2,-0.9 -0.9,-0.9 l -0.3,0 0,1.9 z" />
  <path
     style="fill:#f2f2f7;fill-opacity:1"
     inkscape:connector-curvature="0"
     id="path42"
     d="m 82.8,78.4 0,-7.2 1.6,0 c 1,0 2.8,0.1 2.8,2.1 0,0.8 -0.3,1.5 -1.1,1.9 l 1.4,3.3 -1.7,0 -1.4,-3.3 0,0 0,3.3 -1.6,0 z m 1.5,-4.1 0.3,0 c 0.7,0 1,-0.4 1,-1 0,-0.5 -0.3,-0.9 -1.1,-0.9 l -0.2,0 0,1.9 z" />
  <path
     style="fill:#f2f2f7;fill-opacity:1"
     inkscape:connector-curvature="0"
     id="path44"
     d="m 93.6,74.8 c 0,2.7 -1.4,3.7 -2.8,3.7 -1.4,0 -2.8,-1 -2.8,-3.7 0,-2.7 1.4,-3.7 2.8,-3.7 1.4,0 2.8,1 2.8,3.7 z m -2.8,2.4 c 1,0 1.1,-1.8 1.1,-2.4 0,-0.6 -0.1,-2.4 -1.1,-2.4 -1,0 -1.1,1.8 -1.1,2.4 0,0.6 0.1,2.4 1.1,2.4 z" />
  <path
     style="fill:#f2f2f7;fill-opacity:1"
     inkscape:connector-curvature="0"
     id="path46"
     d="m 100,71.2 1.9,7.2 -1.7,0 -0.3,-1.2 -1.6,0 -0.3,1.2 -1.6,0 1.8,-7.2 1.8,0 z m -0.7,2.9 -0.2,-1.1 0,0 -0.2,1.1 -0.3,1.9 1.1,0 -0.4,-1.9 z" />
  <path
     style="fill:#f2f2f7;fill-opacity:1"
     inkscape:connector-curvature="0"
     id="path48"
     d="m 104,71.2 0,4.7 c 0,0.5 -0.1,1.4 0.8,1.4 0.8,0 0.8,-0.5 0.8,-1.1 l 0,-5 1.6,0 0,5.3 c 0,0.8 -0.1,2.1 -2.4,2.1 -1.5,0 -2.3,-0.6 -2.3,-2 l 0,-5.4 1.5,0 z" />
  <path
     style="fill:#f2f2f7;fill-opacity:1"
     inkscape:connector-curvature="0"
     id="path50"
     d="m 108.1,78.4 0,-7.2 1.2,0 c 0.3,0 3.6,-0.4 3.6,3.7 0,2.1 -0.9,3.6 -3.4,3.6 l -1.4,0 z m 3.2,-3.6 c 0,-0.9 -0.3,-2.4 -1.6,-2.4 l 0,4.7 c 1.3,0.1 1.6,-1.4 1.6,-2.3 z" />
  <path
     style="fill:#f2f2f7;fill-opacity:1"
     inkscape:connector-curvature="0"
     id="path52"
     d="m 115.2,71.2 0,7.2 -1.6,0 0,-7.2 1.6,0 z" />
  <path
     style="fill:#f2f2f7;fill-opacity:1"
     inkscape:connector-curvature="0"
     id="path54"
     d="m 121.6,74.8 c 0,2.7 -1.4,3.7 -2.8,3.7 -1.4,0 -2.8,-1 -2.8,-3.7 0,-2.7 1.4,-3.7 2.8,-3.7 1.4,0 2.8,1 2.8,3.7 z m -2.8,2.4 c 1,0 1.1,-1.8 1.1,-2.4 0,-0.6 -0.1,-2.4 -1.1,-2.4 -1,0 -1.1,1.8 -1.1,2.4 0,0.6 0.1,2.4 1.1,2.4 z" />
  <path
     d="m 70.5,48.1 c -3.3,2.3 -7.3,4.5 -12,4.5 -5.7,0 -11,-3.3 -11,-7.8 0,-4.8 4.5,-7 9.2,-9.4 l 0.5,-0.2 c -1.7,-1.8 -3.7,-3.7 -3.7,-6.1 0,-3.6 3.5,-6.1 8.2,-6.1 4.2,0 8,2.3 8,5.6 0,3.4 -3.4,5.3 -6.6,7.1 l 7.9,7.7 4.2,-3.7 3,1.9 -4.8,4.2 6.4,6.2 -5.3,0 -4,-3.9 z M 60.9,32.5 c 2.1,-1.2 4.7,-2.3 4.7,-4.6 0,-1.7 -1.9,-2.9 -4.1,-2.9 -2.3,0 -4.1,1.4 -4.1,3.1 0,1.4 1.2,2.5 2.3,3.6 l 0.9,0.9 0.3,-0.1 z m -3.5,5.7 c -2.8,1.5 -6.2,3.2 -6.2,6.1 0,2.7 3.1,5.1 6.6,5.1 3.8,0 7.1,-2.2 9.8,-4 l -8.4,-8.2 -1.8,1 z"
     id="path66"
     inkscape:connector-curvature="0"
     style="fill:#f2f2f7;stroke:#0d102b;stroke-opacity:1;fill-opacity:1" />
  <path
     style="fill:#0d102b;fill-opacity:0"
     inkscape:connector-curvature="0"
     id="path58"
     d="m 52.8,29.1 c 0,2.3 1.8,4.2 3.4,5.9 -4.6,2.3 -9.3,4.7 -9.3,9.8 0,4.6 5.2,8.4 11.6,8.4 4.7,0 8.7,-2.2 12,-4.3 0.5,0.5 3.9,3.9 3.9,3.9 l 6.9,0 c 0,0 -6.2,-6.1 -6.9,-6.8 0.7,-0.7 4.9,-4.3 4.9,-4.3 l -4,-2.5 c 0,0 -3.5,3.1 -4.2,3.7 -0.6,-0.6 -6.1,-5.9 -7,-6.8 3.2,-1.8 6.3,-3.7 6.3,-7.2 0,-3.5 -3.8,-6.2 -8.6,-6.2 -5.3,-0.2 -9,2.6 -9,6.4 z M 48,44.8 c 0,-4.4 4.3,-6.6 8.9,-8.9 0,0 1.1,-0.6 1.1,-0.6 l -0.9,-1 c -1.6,-1.6 -3.2,-3.3 -3.2,-5.2 0,-3.2 3.2,-5.5 7.7,-5.5 4.2,0 7.4,2.2 7.4,5 0,3 -3,4.7 -6.1,6.5 l -0.9,0.5 8.9,8.6 c 0,0 3.8,-3.3 4.3,-3.8 0.4,0.3 1.4,0.8 2,1.3 -0.9,0.8 -4.7,4.1 -4.7,4.1 0,0 4.4,4.3 5.8,5.7 -1.4,0 -3.4,0 -3.7,0 -0.3,-0.3 -4.2,-4.2 -4.2,-4.2 L 70,47.6 C 67,49.8 63,52 58.4,52 52.7,52 48,48.8 48,44.8 Z" />
  <path
     style="fill:#0d102b;fill-opacity:1"
     inkscape:connector-curvature="0"
     id="path60"
     d="m 56.8,28.1 c 0,1.5 1,2.5 2,3.5 l 1.7,1.7 0.7,-0.4 0.8,-0.5 c 1.9,-1.1 4.2,-2.3 4.2,-4.6 0,-2 -2,-3.5 -4.7,-3.5 -2.6,0.1 -4.7,1.7 -4.7,3.8 z m 2.8,2.8 C 58.8,30 58,29.1 58,28.1 c 0,-1.4 1.6,-2.6 3.6,-2.6 1.7,0 3.5,0.9 3.5,2.4 0,1.7 -1.7,2.6 -3.6,3.7 0,0 -0.7,0.4 -0.8,0.4 -0.3,-0.3 -1.1,-1.1 -1.1,-1.1 z" />
  <path
     style="fill:#0d102b;fill-opacity:0"
     inkscape:connector-curvature="0"
     id="path62"
     d="m 57.1,37.8 c -2.9,1.5 -6.5,3.4 -6.5,6.6 0,3 3.4,5.7 7.2,5.7 3.9,0 7.2,-2.2 9.9,-4 l 0.8,-0.5 -9.2,-8.9 -2.2,1.1 z m 2,0.2 c 0.5,0.5 6.7,6.6 7.6,7.4 -2.5,1.6 -5.5,3.5 -8.9,3.5 -3.2,0 -6.1,-2.2 -6.1,-4.6 0,-2.6 3.1,-4.2 5.9,-5.6 0,0.1 1,-0.5 1.5,-0.7 z" />
</svg>
