<svg viewBox="0 0 166 22" fill="none" xmlns="http://www.w3.org/2000/svg">
    <path
        d="M123.2 17.3c.9 0 1.6-.7 1.6-1.7 0-.9-.7-1.7-1.6-1.7-1 0-1.6.8-1.6 1.7 0 1 .7 1.7 1.6 1.7ZM29 16.9c-.7-.3-1.3-.8-1.8-1.4a6.7 6.7 0 0 1-1.7-4.5c0-.9.2-1.7.4-2.5.3-.7.7-1.5 1.2-2a5.4 5.4 0 0 1 4.2-1.8A5.7 5.7 0 0 1 35 5.9c.5.3.9.8 1.1 1.4.3.5.5 1.1.6 1.8h-3c-.1-.6-.4-1-.8-1.4a2 2 0 0 0-1.4-.5c-1 0-1.6.3-2.1 1s-.7 1.6-.7 2.8c0 1.1.2 2 .7 2.8.4.7 1.2 1 2.1 1 .7 0 1.2-.2 1.6-.5.3-.4.6-.9.7-1.6h3a5 5 0 0 1-1.5 3.3c-.4.4-1 .8-1.6 1-.6.2-1.3.3-2.1.3-1 0-1.7 0-2.5-.4ZM41.6 6.5c.4-.6.9-1.1 1.4-1.4.5-.4 1.2-.5 2-.5a3.8 3.8 0 0 1 2.9 1.3 5.1 5.1 0 0 1 1 3.2v8h-3V9.5c0-.7-.2-1.2-.5-1.6a2 2 0 0 0-1.5-.7c-.7 0-1.3.3-1.7.8a3 3 0 0 0-.7 2v7h-3.1V0h3v6.4h.2ZM54 16.9a5.3 5.3 0 0 1-3-3.4 8 8 0 0 1 0-5c.3-.8.7-1.5 1.2-2a5.4 5.4 0 0 1 4.1-1.9 5.3 5.3 0 0 1 4.3 2c.5.7.9 1.5 1.1 2.3.3 1 .4 1.9.4 3h-8.4c.1 1 .4 1.7.9 2.2.5.6 1.1.8 2 .8.6 0 1.1-.1 1.5-.4.4-.3.7-.6.8-1h3c0 .5-.3 1-.5 1.5a4.6 4.6 0 0 1-2.7 2.1 6.9 6.9 0 0 1-4.7-.2Zm.5-9.1a4 4 0 0 0-.8 1.8h5.1a3 3 0 0 0-.7-1.8c-.4-.5-1-.8-1.7-.8-.8 0-1.4.3-1.9.8ZM66.7 16.9c-.7-.3-1.4-.8-1.8-1.4a6.7 6.7 0 0 1-1.7-4.5c0-.9.2-1.7.4-2.5.3-.7.7-1.5 1.2-2A5.4 5.4 0 0 1 69 4.7a5.7 5.7 0 0 1 3.6 1.2c.5.3.8.8 1.1 1.4.3.5.5 1.1.6 1.8h-3c-.1-.6-.4-1-.8-1.4a2 2 0 0 0-1.4-.5c-1 0-1.6.3-2.1 1s-.7 1.6-.7 2.8c0 1.1.2 2 .7 2.8.4.7 1.1 1 2 1 .7 0 1.3-.2 1.6-.5.4-.4.7-.9.8-1.6h3a5 5 0 0 1-1.6 3.3c-.4.4-1 .8-1.6 1-.6.2-1.3.3-2 .3-1 0-1.7 0-2.5-.4ZM79.2 13v4h-3V.1h3v9.4l4.1-4.6H87l-4.3 4.6 4.8 7.5h-3.7l-3.3-5.5-1.3 1.4ZM91 16.9a5.9 5.9 0 0 1-3.3-3.4c-.3-.7-.4-1.6-.4-2.5A6.3 6.3 0 0 1 89 6.5c.5-.6 1.2-1 2-1.3a6.2 6.2 0 0 1 4.8 0A5.9 5.9 0 0 1 99 8.5a6.8 6.8 0 0 1 0 5c-.3.8-.7 1.5-1.2 2a6.2 6.2 0 0 1-6.8 1.3Zm4.6-3c.5-.8.8-1.7.8-3 0-1.1-.3-2-.8-2.8A2.6 2.6 0 0 0 93.4 7c-1 0-1.7.3-2.2 1.1-.5.7-.8 1.7-.8 2.9 0 1.1.3 2.1.8 2.8.5.8 1.2 1.1 2.2 1.1 1 0 1.7-.3 2.2-1ZM108.5 15.6l-1.4 1.3c-.5.3-1.2.4-2 .4a4 4 0 0 1-3-1.1c-.7-.8-1-1.9-1-3.2V5h3v7.5c0 .7.2 1.2.5 1.6.3.3.8.6 1.4.6.8 0 1.3-.3 1.8-.8a3 3 0 0 0 .6-2V5h3.1V17h-3v-1.4ZM114.5 5V1h3V5h2V7h-2v6.4c0 .5 0 .8.3 1 .2.2.5.3.9.3H119.6V17h-.5l-.6.1h-.9l-1-.1c-.5-.1-.8-.2-1-.5-.4-.2-.6-.5-.8-.9-.2-.3-.3-.8-.3-1.4V7h-1.6V5h1.6ZM129.3 16.8a5 5 0 0 1-1.7-1.3c-.4-.6-.8-1.3-1-2a9.4 9.4 0 0 1 0-5.1c.3-.8.6-1.5 1-2a5 5 0 0 1 4-1.9c1.3 0 2.4.4 3.2 1 .8.7 1.3 1.7 1.5 3H135c-.1-1-.5-1.6-1-2-.6-.5-1.4-.8-2.3-.8-.7 0-1.2.2-1.7.4-.5.3-1 .7-1.2 1.2-.3.4-.6 1-.7 1.6-.2.6-.2 1.3-.2 2s0 1.4.2 2l.7 1.7c.3.5.8.9 1.3 1.1.4.3 1 .4 1.7.4 1 0 1.8-.3 2.4-.9.6-.5 1-1.4 1-2.3h1.4a5.1 5.1 0 0 1-1.5 3.3c-.8.8-2 1.2-3.3 1.2a6 6 0 0 1-2.4-.6ZM140.8 16.8c-.7-.3-1.2-.7-1.7-1.3a7.9 7.9 0 0 1-1.5-4.6c0-1 .1-1.7.4-2.5a6 6 0 0 1 1-2c.6-.6 1.1-1 1.8-1.4.7-.3 1.4-.5 2.3-.5a5 5 0 0 1 4 1.8c.5.6.8 1.3 1 2a9.6 9.6 0 0 1 0 5.1 6 6 0 0 1-1 2.1 5.2 5.2 0 0 1-4 1.8c-.8 0-1.6-.1-2.3-.5Zm4-1a4.4 4.4 0 0 0 2-2.8 7.6 7.6 0 0 0-.7-5.7c-.4-.5-.8-.9-1.3-1.2-.5-.2-1-.4-1.7-.4a3.5 3.5 0 0 0-3 1.6l-.8 1.6a7.6 7.6 0 0 0 0 4c.2.7.5 1.2.8 1.7.4.5.8.9 1.3 1.1.4.3 1 .4 1.7.4.6 0 1.2-.1 1.7-.4ZM152 4.8v1.8c.3-.6.8-1 1.4-1.5.5-.4 1.3-.6 2.1-.6s1.4.2 2 .6c.5.3 1 .9 1.2 1.6.4-.7 1-1.2 1.6-1.6a4 4 0 0 1 3.5-.4 3.3 3.3 0 0 1 1.9 2c.2.5.3 1 .3 1.6V17h-1.4V8.5c0-1-.2-1.6-.7-2-.5-.5-1-.7-1.8-.7L161 6l-1 .7-.7 1.1-.2 1.4V17h-1.4V8.5c0-1-.3-1.6-.7-2-.5-.5-1-.7-1.7-.7l-1.2.3-1 .7c-.4.3-.7.7-.8 1.1-.2.4-.3 1-.3 1.4V17h-1.4V4.8h1.4ZM14 11l5.4-10c.2-.2.2-.5 0-.7A.7.7 0 0 0 19 0H7.5l-.6.3-5.8 10.4v.6l5.8 10.4.6.3h11.4c.2 0 .4-.1.5-.3.2-.2.2-.5 0-.7L14 11Zm-.8-1.3L8.6 1.3h9.2l-4.6 8.4ZM7.5 2l5 9-5 9-5.1-9 5-9Zm1.1 18.7 4.6-8.4 4.6 8.4H8.6Z"
        fill="#0D102B" />
</svg>