<svg width="185" height="24" xmlns="http://www.w3.org/2000/svg" fill="none">
    <path stroke="null" fill="#00122C"
        d="M128.478 23.894c1.186 0 2.146-1.058 2.146-2.36 0-1.304-.96-2.361-2.146-2.361s-2.146 1.057-2.146 2.36.961 2.36 2.146 2.36zm-123.465-.62c-.96-.435-1.807-1.055-2.428-1.863-.677-.809-1.187-1.74-1.582-2.796C.608 17.56.44 16.38.44 15.137s.17-2.422.508-3.478c.339-1.056.847-2.05 1.525-2.795A7.04 7.608 0 014.844 7a7.976 8.62 0 013.163-.684c1.016 0 1.864.125 2.654.435a8.185 8.844 0 012.09 1.243c.622.495 1.074 1.179 1.412 1.925.395.746.621 1.614.734 2.484h-3.953a2.926 3.161 0 00-.96-1.863c-.508-.497-1.129-.746-1.864-.746-1.243 0-2.146.497-2.767 1.429-.622.932-.904 2.236-.904 3.851 0 1.614.282 2.856.904 3.85.565.995 1.524 1.43 2.767 1.43.847 0 1.525-.25 2.033-.684.508-.496.847-1.18 1.016-2.173h3.955a6.364 6.877 0 01-2.034 4.534A6.326 6.326 0 0111 23.398a8.479 9.162 0 01-2.767.496 7.324 7.914 0 01-3.22-.62zM21.45 8.863c.565-.87 1.186-1.554 1.864-1.989.678-.434 1.524-.682 2.598-.682a5.127 5.54 0 012.146.495 4.884 5.277 0 011.638 1.305c.452.56.79 1.243 1.072 1.988.283.746.397 1.615.397 2.546V23.46h-4.068v-10.31c0-.932-.226-1.678-.677-2.237-.452-.559-1.129-.869-1.976-.869-.905 0-1.639.372-2.203 1.056-.565.684-.904 1.614-.904 2.796v9.564H17.27V.043h4.067v8.82h.113zM37.828 23.27a6.945 7.505 0 01-2.485-1.863 7.185 7.764 0 01-1.525-2.858 10.105 10.919 0 01-.508-3.478c0-1.242.17-2.421.564-3.477A9.703 10.484 0 0135.4 8.799a7.038 7.605 0 012.372-1.863 7.427 8.026 0 013.05-.683c1.244 0 2.317.249 3.22.745.96.496 1.694 1.18 2.372 2.05.621.87 1.13 1.987 1.469 3.168.339 1.241.508 2.609.508 4.1H37.32c.17 1.303.564 2.359 1.186 3.105.621.744 1.525 1.118 2.71 1.118.792 0 1.412-.187 1.921-.56.452-.373.847-.87 1.017-1.49h4.01c-.113.745-.395 1.429-.735 2.11a6.757 6.757 0 01-1.41 1.74 6.06 6.55 0 01-2.09 1.181c-.792.31-1.695.435-2.656.435a9.22 9.963 0 01-3.445-.684zm.622-12.67c-.565.621-.904 1.553-1.129 2.609h6.777c-.057-1.056-.396-1.927-.96-2.61-.565-.683-1.356-.993-2.26-.993-1.073.062-1.864.373-2.428.994zm15.983 12.672c-.96-.434-1.807-1.054-2.43-1.862-.677-.809-1.185-1.74-1.58-2.796-.396-1.055-.564-2.236-.564-3.478s.168-2.422.508-3.478c.338-1.056.846-2.05 1.524-2.795A7.04 7.606 0 0154.264 7a7.976 8.62 0 013.163-.684c1.016 0 1.863.125 2.654.435a8.187 8.847 0 012.09 1.243c.62.495 1.072 1.179 1.411 1.925.396.746.622 1.614.735 2.484h-3.954a2.926 3.161 0 00-.96-1.863c-.508-.497-1.13-.746-1.864-.746-1.242 0-2.146.497-2.767 1.429s-.904 2.236-.904 3.851c0 1.614.282 2.856.904 3.85.564.995 1.525 1.43 2.767 1.43.847 0 1.525-.25 2.034-.684.508-.496.847-1.18 1.016-2.173h3.897a6.367 6.88 0 01-2.033 4.534 6.338 6.338 0 01-2.09 1.366 8.479 9.162 0 01-2.768.496 7.223 7.805 0 01-3.163-.62h.001zm16.323-5.466v5.652h-4.01V.043h4.01v12.981l5.421-6.334h4.858l-5.648 6.396 6.327 10.373h-4.916l-4.292-7.64-1.75 1.988zm15.418 5.466a7.707 8.328 0 01-2.54-1.862 8.708 9.41 0 01-1.64-2.796c-.394-1.055-.564-2.236-.564-3.478s.17-2.422.565-3.478c.396-1.056.96-2.05 1.638-2.795A6.714 6.714 0 0186.174 7a8.26 8.927 0 013.22-.684c1.186 0 2.259.248 3.22.684a7.705 8.326 0 012.54 1.863 8.711 9.413 0 011.639 2.795c.395 1.055.564 2.237.564 3.478 0 1.243-.17 2.422-.564 3.478-.395 1.056-.961 2.05-1.638 2.796a6.705 6.705 0 01-2.542 1.862 8.26 8.925 0 01-3.22.684 8.26 8.925 0 01-3.219-.684zm6.1-4.223c.678-.994 1.017-2.298 1.017-3.975s-.339-2.981-1.016-3.975c-.679-.993-1.638-1.553-2.881-1.553-1.243 0-2.203.496-2.88 1.553-.679.994-1.017 2.36-1.017 3.975 0 1.614.338 2.981 1.017 3.975.677.993 1.637 1.49 2.88 1.49s2.202-.495 2.88-1.49zm16.944 2.422h-.113a6.836 7.386 0 01-1.751 1.801c-.677.435-1.524.622-2.598.622-1.694 0-2.994-.56-3.953-1.615-.905-1.118-1.356-2.547-1.356-4.41V6.688h4.01v10.437c0 .993.226 1.738.622 2.236.395.496 1.072.807 1.92.807.96 0 1.695-.372 2.26-1.056s.846-1.615.846-2.732V6.688h4.066v16.77h-3.897V21.47h-.056v.002zm7.85-14.785V1.41h3.954v5.278h2.599v2.92h-2.6v8.882c0 .62.114 1.055.397 1.304.282.25.62.372 1.129.372h.791c.113 0 .283 0 .395-.062v3.355c-.225 0-.395.062-.678.062-.226 0-.508.062-.79.062h-1.074a5.99 5.99 0 01-1.467-.187 3.337 3.606 0 01-1.3-.62 3.152 3.405 0 01-.96-1.242 4.196 4.534 0 01-.396-1.988V9.607h-2.09v-2.92h2.09zm19.43 16.523a6.428 6.946 0 01-2.203-1.864 7.067 7.637 0 01-1.356-2.796c-.283-1.054-.452-2.236-.452-3.54s.17-2.422.452-3.54c.338-1.055.791-2.05 1.356-2.795a6.426 6.944 0 012.202-1.863c.847-.435 1.864-.683 2.994-.683 1.693 0 3.106.496 4.18 1.429 1.072.931 1.75 2.297 2.032 4.037h-1.807c-.226-1.243-.678-2.237-1.469-2.858-.733-.62-1.694-.932-2.88-.932-.904 0-1.638.187-2.316.56-.621.372-1.185.869-1.58 1.552a6.004 6.488 0 00-.905 2.299c-.226.87-.282 1.8-.282 2.795 0 .993.113 1.926.339 2.795.225.869.508 1.613.96 2.297.395.684.96 1.182 1.58 1.553.623.373 1.413.559 2.26.559 1.3 0 2.373-.435 3.163-1.241.791-.809 1.243-1.927 1.412-3.292h1.751c-.17 1.924-.791 3.416-1.92 4.595-1.074 1.118-2.541 1.678-4.405 1.678-1.243-.063-2.26-.31-3.107-.746h0zm15.08 0a6.12 6.613 0 01-2.26-1.864c-.622-.807-1.073-1.74-1.412-2.796-.339-1.054-.508-2.236-.508-3.54a10.207 11.03 0 01.508-3.54c.339-1.055.79-2.05 1.412-2.795a6.118 6.611 0 012.26-1.863 7.158 7.735 0 012.992-.683c1.13 0 2.09.248 2.994.683a6.7 6.7 0 012.259 1.864c.62.807 1.074 1.738 1.412 2.795.339 1.055.452 2.235.452 3.54 0 1.304-.17 2.422-.452 3.54-.338 1.055-.791 2.049-1.412 2.796a6.129 6.623 0 01-2.259 1.862c-.848.435-1.864.683-2.994.683a7.354 7.947 0 01-2.993-.683h0zm5.252-1.554c.678-.372 1.186-.87 1.637-1.553a5.574 6.023 0 00.96-2.297 9.538 10.307 0 00.34-2.796c0-.994-.113-1.925-.34-2.795a8.055 8.704 0 00-.96-2.298c-.451-.683-.96-1.18-1.637-1.553-.678-.372-1.412-.559-2.26-.559-.847 0-1.638.187-2.259.56a4.9 5.295 0 00-1.638 1.552 6.71 7.25 0 00-1.016 2.299 9.538 10.307 0 00-.339 2.795c0 .993.113 1.926.339 2.795a7.52 7.52 0 001.016 2.297 5.017 5.017 0 001.638 1.553c.62.373 1.412.559 2.259.559.848 0 1.638-.186 2.26-.56zm9.32-15.152v2.547h.056a6.787 7.334 0 011.864-2.112c.734-.56 1.694-.807 2.823-.807.96 0 1.808.248 2.543.745.733.496 1.241 1.304 1.58 2.298h.058a5.607 6.059 0 012.033-2.298c.846-.56 1.807-.807 2.88-.807.677 0 1.243.123 1.807.372.565.248 1.074.559 1.469.994.395.434.734.993.96 1.677.225.682.338 1.428.338 2.236V23.46h-1.807V11.597c0-1.243-.283-2.173-.903-2.795-.621-.62-1.413-.87-2.316-.87-.564 0-1.13.125-1.582.31-.508.25-.96.56-1.299.933a4.826 5.215 0 00-.903 1.49 4.843 5.233 0 00-.339 1.988V23.46h-1.864V11.597c0-1.243-.282-2.173-.904-2.795-.564-.62-1.298-.87-2.202-.87-.565 0-1.073.125-1.582.373-.508.249-.96.559-1.411.993a4.235 4.576 0 00-.96 1.553c-.227.56-.34 1.243-.34 1.927V23.46h-1.863V6.504h1.863z" />
</svg>