<svg viewBox="0 0 166 22" fill="none" xmlns="http://www.w3.org/2000/svg">
<path d="M123.189 17.3401C124.093 17.3401 124.825 16.5778 124.825 15.6375C124.825 14.6971 124.093 13.9348 123.189 13.9348C122.285 13.9348 121.552 14.6971 121.552 15.6375C121.552 16.5778 122.285 17.3401 123.189 17.3401Z" fill="#0D102B"/>
<path d="M29.0385 16.8919C28.3063 16.5782 27.6602 16.1302 27.1865 15.5477C26.6696 14.9652 26.282 14.2931 25.9805 13.5314C25.679 12.7697 25.5498 11.9183 25.5498 11.0222C25.5498 10.1261 25.679 9.27474 25.9374 8.51303C26.1959 7.75132 26.5835 7.03442 27.1003 6.49674C27.6172 5.91425 28.2201 5.46619 28.9093 5.15254C29.6414 4.8389 30.4167 4.65967 31.3212 4.65967C32.0964 4.65967 32.7425 4.74928 33.3454 4.97332C33.9484 5.19735 34.4652 5.51099 34.939 5.86945C35.4128 6.2279 35.7573 6.72077 36.0158 7.25845C36.3172 7.79613 36.4895 8.42342 36.5757 9.05071H33.5608C33.4746 8.51303 33.2162 8.06497 32.8286 7.70651C32.441 7.34806 31.9672 7.16884 31.4073 7.16884C30.4598 7.16884 29.7707 7.52729 29.2969 8.19939C28.8231 8.87148 28.6078 9.81242 28.6078 10.9774C28.6078 12.1424 28.8231 13.0385 29.2969 13.7554C29.7276 14.4723 30.4598 14.786 31.4073 14.786C32.0533 14.786 32.5702 14.6067 32.9578 14.2931C33.3454 13.9346 33.6039 13.4418 33.7331 12.7249H36.7479C36.7049 13.3522 36.5326 13.9794 36.2742 14.5171C36.0158 15.0548 35.6712 15.5477 35.1974 15.9957C34.7667 16.399 34.2068 16.7575 33.6039 16.9815C32.9578 17.2055 32.2687 17.3399 31.4934 17.3399C30.589 17.3847 29.7707 17.2055 29.0385 16.8919Z" fill="#0D102B"/>
<path d="M41.572 6.4968C42.0027 5.86951 42.4764 5.37664 42.9933 5.063C43.5101 4.74935 44.1561 4.57012 44.9745 4.57012C45.5774 4.57012 46.1373 4.70454 46.6111 4.92858C47.0849 5.15261 47.5156 5.46625 47.8601 5.86951C48.2047 6.27277 48.4631 6.76564 48.6785 7.30332C48.8938 7.841 48.98 8.46829 48.98 9.14039V17.0264H45.8789V9.58845C45.8789 8.91636 45.7067 8.37868 45.3621 7.97542C45.0175 7.57216 44.5007 7.34813 43.8547 7.34813C43.1655 7.34813 42.6056 7.61697 42.1749 8.10984C41.7442 8.60271 41.4858 9.27481 41.4858 10.1262V17.0264H38.3848V0.134277H41.4858V6.4968H41.572Z" fill="#0D102B"/>
<path d="M54.0617 16.892C53.3295 16.5784 52.6835 16.1303 52.1667 15.5478C51.6498 14.9653 51.2622 14.2932 51.0038 13.4867C50.7454 12.6802 50.6162 11.8737 50.6162 10.9775C50.6162 10.0814 50.7454 9.23006 51.0469 8.46835C51.3483 7.70664 51.736 7.03454 52.2097 6.45206C52.7266 5.86957 53.3295 5.42151 54.0187 5.10786C54.7078 4.79422 55.483 4.61499 56.3444 4.61499C57.292 4.61499 58.1103 4.79422 58.7994 5.15267C59.5316 5.51112 60.0915 6.00399 60.6083 6.63129C61.0821 7.25858 61.4697 8.06509 61.7281 8.91642C61.9866 9.81255 62.1158 10.7983 62.1158 11.8737H53.6741C53.8033 12.8146 54.1048 13.5763 54.5786 14.114C55.0523 14.6517 55.7415 14.9205 56.6459 14.9205C57.2489 14.9205 57.7227 14.7861 58.1103 14.5173C58.4548 14.2484 58.7563 13.89 58.8855 13.4419H61.9435C61.8573 13.9796 61.642 14.4724 61.3836 14.9653C61.0821 15.4582 60.7375 15.8614 60.3068 16.2199C59.8761 16.5784 59.3162 16.892 58.7133 17.0712C58.1103 17.2953 57.4212 17.3849 56.689 17.3849C55.6984 17.3849 54.837 17.2056 54.0617 16.892ZM54.5355 7.75145C54.1048 8.19951 53.8464 8.87161 53.6741 9.63332H58.8425C58.7994 8.87161 58.541 8.24432 58.1103 7.75145C57.6796 7.25858 57.0766 7.03454 56.3875 7.03454C55.5692 7.07935 54.9662 7.30338 54.5355 7.75145Z" fill="#0D102B"/>
<path d="M66.7239 16.8919C65.9918 16.5782 65.3458 16.1302 64.8721 15.5477C64.3552 14.9652 63.9676 14.2931 63.6661 13.5314C63.3646 12.7697 63.2354 11.9183 63.2354 11.0222C63.2354 10.1261 63.3646 9.27474 63.623 8.51303C63.8814 7.75132 64.2691 7.03442 64.7859 6.49674C65.3027 5.91425 65.9057 5.46619 66.5948 5.15254C67.327 4.8389 68.1023 4.65967 69.0067 4.65967C69.782 4.65967 70.428 4.74928 71.031 4.97332C71.634 5.19735 72.1508 5.51099 72.6246 5.86945C73.0984 6.2279 73.4429 6.72077 73.7013 7.25845C74.0028 7.79613 74.1751 8.42342 74.2612 9.05071H71.2463C71.1601 8.51303 70.9018 8.06497 70.5142 7.70651C70.1265 7.34806 69.6528 7.16884 69.0929 7.16884C68.1453 7.16884 67.4562 7.52729 66.9825 8.19939C66.5087 8.87148 66.2934 9.81242 66.2934 10.9774C66.2934 12.1424 66.5087 13.0385 66.9825 13.7554C67.4132 14.4723 68.1453 14.786 69.0929 14.786C69.7389 14.786 70.2558 14.6067 70.6434 14.2931C71.031 13.9346 71.2894 13.4418 71.4186 12.7249H74.3904C74.3474 13.3522 74.1751 13.9794 73.9167 14.5171C73.6583 15.0548 73.3137 15.5477 72.8399 15.9957C72.4092 16.399 71.8492 16.7575 71.2463 16.9815C70.6002 17.2055 69.9112 17.3399 69.1359 17.3399C68.2746 17.3847 67.4561 17.2055 66.7239 16.8919Z" fill="#0D102B"/>
<path d="M79.1713 12.949V17.0264H76.1133V0.134277H79.1713V9.49884L83.306 4.92858H87.01L82.703 9.54365L87.5268 17.0264H83.7797L80.5064 11.5152L79.1713 12.949Z" fill="#0D102B"/>
<path d="M90.9293 16.8919C90.1971 16.5782 89.5511 16.1302 88.9912 15.5477C88.4743 14.9652 88.0436 14.2931 87.7422 13.5314C87.4407 12.7697 87.3115 11.9183 87.3115 11.0222C87.3115 10.1261 87.4407 9.27474 87.7422 8.51303C88.0436 7.75132 88.4743 7.03442 88.9912 6.49674C89.508 5.91425 90.1541 5.46619 90.9293 5.15254C91.6615 4.8389 92.4798 4.65967 93.3843 4.65967C94.2888 4.65967 95.1071 4.8389 95.8393 5.15254C96.5715 5.46619 97.2175 5.91425 97.7774 6.49674C98.2942 7.07922 98.7249 7.75132 99.0264 8.51303C99.3279 9.27474 99.4571 10.1261 99.4571 11.0222C99.4571 11.9183 99.3279 12.7697 99.0264 13.5314C98.7249 14.2931 98.2942 15.01 97.7774 15.5477C97.2606 16.1302 96.6145 16.5782 95.8393 16.8919C95.1071 17.2055 94.2888 17.3847 93.3843 17.3847C92.4798 17.3847 91.6615 17.2055 90.9293 16.8919ZM95.5809 13.845C96.0977 13.1281 96.3561 12.1872 96.3561 10.9774C96.3561 9.76761 96.0977 8.82668 95.5809 8.10977C95.064 7.39287 94.3318 6.98961 93.3843 6.98961C92.4368 6.98961 91.7046 7.34806 91.1877 8.10977C90.6709 8.82668 90.4125 9.81242 90.4125 10.9774C90.4125 12.1424 90.6709 13.1281 91.1877 13.845C91.7046 14.5619 92.4368 14.9204 93.3843 14.9204C94.3318 14.9204 95.064 14.5619 95.5809 13.845Z" fill="#0D102B"/>
<path d="M108.502 15.5927H108.416C108.028 16.1303 107.554 16.5784 107.081 16.892C106.564 17.2057 105.918 17.3401 105.099 17.3401C103.807 17.3401 102.817 16.9369 102.085 16.1751C101.395 15.3686 101.051 14.3381 101.051 12.9939V4.92871H104.109V12.4562C104.109 13.1731 104.281 13.7108 104.583 14.0692C104.884 14.4277 105.401 14.6517 106.047 14.6517C106.779 14.6517 107.339 14.3829 107.77 13.89C108.2 13.3971 108.416 12.725 108.416 11.9185V4.92871H111.517V17.0265H108.545V15.5927H108.502Z" fill="#0D102B"/>
<path d="M114.489 4.92867V1.12012H117.504V4.92867H119.485V7.03458H117.504V13.4419C117.504 13.89 117.59 14.2036 117.805 14.3828C118.02 14.5621 118.279 14.6517 118.666 14.6517H119.269C119.355 14.6517 119.485 14.6517 119.571 14.6069V17.0264C119.399 17.0264 119.269 17.0712 119.054 17.0712C118.882 17.0712 118.666 17.116 118.451 17.116H117.633C117.245 17.116 116.901 17.0712 116.513 16.9816C116.125 16.892 115.824 16.7576 115.522 16.5336C115.221 16.3095 114.962 15.9959 114.79 15.6374C114.618 15.279 114.489 14.7861 114.489 14.2036V7.03458H112.895V4.92867H114.489Z" fill="#0D102B"/>
<path d="M129.305 16.8472C128.659 16.5335 128.099 16.0855 127.625 15.503C127.151 14.9205 126.807 14.2484 126.591 13.4867C126.376 12.725 126.247 11.8737 126.247 10.9327C126.247 9.99179 126.376 9.18527 126.591 8.37875C126.85 7.61704 127.194 6.90014 127.625 6.36246C128.099 5.77997 128.659 5.33191 129.305 5.01826C129.951 4.70462 130.726 4.52539 131.587 4.52539C132.879 4.52539 133.956 4.88384 134.774 5.55594C135.593 6.22804 136.11 7.21378 136.325 8.46836H134.947C134.774 7.57223 134.43 6.85533 133.827 6.40726C133.267 5.9592 132.535 5.73517 131.63 5.73517C130.941 5.73517 130.381 5.86959 129.865 6.13843C129.391 6.40726 128.96 6.76572 128.659 7.25859C128.357 7.70665 128.099 8.28914 127.969 8.91643C127.797 9.54372 127.754 10.2158 127.754 10.9327C127.754 11.6496 127.84 12.3217 128.013 12.949C128.185 13.5763 128.4 14.114 128.745 14.6069C129.046 15.0997 129.477 15.4582 129.951 15.727C130.424 15.9959 131.027 16.1303 131.673 16.1303C132.664 16.1303 133.482 15.8166 134.085 15.2341C134.688 14.6517 135.033 13.8451 135.162 12.8594H136.497C136.368 14.2484 135.894 15.3238 135.033 16.1751C134.215 16.9816 133.095 17.3849 131.673 17.3849C130.726 17.3401 129.951 17.1608 129.305 16.8472Z" fill="#0D102B"/>
<path d="M140.804 16.8472C140.115 16.5335 139.555 16.0855 139.081 15.503C138.608 14.9205 138.263 14.2484 138.005 13.4867C137.746 12.725 137.617 11.8737 137.617 10.9327C137.617 9.99179 137.746 9.18527 138.005 8.37875C138.263 7.61704 138.608 6.90014 139.081 6.36246C139.555 5.77997 140.115 5.33191 140.804 5.01826C141.493 4.70462 142.226 4.52539 143.087 4.52539C143.948 4.52539 144.68 4.70462 145.37 5.01826C146.016 5.33191 146.619 5.77997 147.092 6.36246C147.566 6.94494 147.911 7.61704 148.169 8.37875C148.428 9.14046 148.514 9.99179 148.514 10.9327C148.514 11.8737 148.384 12.6802 148.169 13.4867C147.911 14.2484 147.566 14.9653 147.092 15.503C146.619 16.0855 146.059 16.5335 145.37 16.8472C144.724 17.1608 143.948 17.3401 143.087 17.3401C142.269 17.3401 141.493 17.1608 140.804 16.8472ZM144.81 15.727C145.327 15.4582 145.714 15.0997 146.059 14.6069C146.403 14.114 146.662 13.5763 146.791 12.949C146.963 12.3217 147.049 11.6496 147.049 10.9327C147.049 10.2158 146.963 9.54372 146.791 8.91643C146.619 8.28914 146.36 7.75146 146.059 7.25859C145.714 6.76572 145.327 6.40726 144.81 6.13843C144.293 5.86959 143.733 5.73517 143.087 5.73517C142.441 5.73517 141.838 5.86959 141.364 6.13843C140.89 6.40726 140.46 6.76572 140.115 7.25859C139.771 7.75146 139.512 8.28914 139.34 8.91643C139.168 9.54372 139.081 10.2158 139.081 10.9327C139.081 11.6496 139.168 12.3217 139.34 12.949C139.512 13.5763 139.771 14.114 140.115 14.6069C140.46 15.0997 140.89 15.4582 141.364 15.727C141.838 15.9959 142.441 16.1303 143.087 16.1303C143.733 16.1303 144.336 15.9959 144.81 15.727Z" fill="#0D102B"/>
<path d="M151.916 4.79412V6.63118H151.959C152.347 6.00389 152.821 5.51102 153.381 5.10776C153.94 4.7045 154.673 4.52528 155.534 4.52528C156.266 4.52528 156.912 4.7045 157.472 5.06296C158.032 5.42141 158.42 6.00389 158.678 6.7208H158.721C159.109 6.00389 159.626 5.46621 160.272 5.06296C160.918 4.6597 161.65 4.48047 162.468 4.48047C162.985 4.48047 163.416 4.57008 163.847 4.74931C164.277 4.92854 164.665 5.15257 164.966 5.46621C165.268 5.77986 165.526 6.18312 165.699 6.67599C165.871 7.16886 165.957 7.70654 165.957 8.28902V17.0263H164.579V8.46825C164.579 7.57212 164.363 6.90002 163.89 6.45196C163.416 6.00389 162.813 5.82467 162.124 5.82467C161.693 5.82467 161.262 5.91428 160.918 6.0487C160.53 6.22793 160.186 6.45196 159.927 6.7208C159.669 6.98964 159.41 7.39289 159.238 7.79615C159.066 8.24422 158.98 8.69228 158.98 9.22996V17.0263H157.558V8.46825C157.558 7.57212 157.343 6.90002 156.869 6.45196C156.439 6.00389 155.879 5.82467 155.19 5.82467C154.759 5.82467 154.371 5.91428 153.984 6.09351C153.596 6.27273 153.251 6.49676 152.907 6.81041C152.605 7.12406 152.347 7.48251 152.175 7.93057C152.002 8.33383 151.916 8.8267 151.916 9.31957V17.0263H150.495V4.79412H151.916Z" fill="#0D102B"/>
<path d="M13.9209 11.0224L19.4338 0.985743C19.563 0.761711 19.563 0.537678 19.4338 0.313646C19.3046 0.13442 19.0893 0 18.8739 0H7.50355C7.2882 0 7.07285 0.13442 6.94364 0.313646L1.08616 10.664C0.956957 10.888 0.956957 11.1568 1.08616 11.336L6.94364 21.6864C7.07285 21.9104 7.2882 22 7.50355 22H18.8739C19.0893 22 19.3046 21.8656 19.4338 21.6864C19.563 21.4623 19.563 21.2383 19.4338 21.0143L13.9209 11.0224ZM13.1887 9.67821L8.62336 1.3442H17.7972L13.1887 9.67821ZM7.46048 2.01629L12.4135 11.0224L7.46048 20.0285L2.37825 11.0224L7.46048 2.01629ZM8.62336 20.6558L13.1887 12.3218L17.7541 20.6558H8.62336Z" fill="#0D102B"/>
</svg>
