<svg xmlns="http://www.w3.org/2000/svg" viewBox="0 0 1200 275">
  <path d="M1107.82 264.378c-25.73-3.985-48.61-20.974-59.454-44.15-5.036-10.76-5.94-15.077-6.69-31.954-1.02-22.931 1.397-36.131 9.389-51.27 7.676-14.542 19.881-26.376 34.745-33.69 11.972-5.89 13.31-6.126 34.912-6.126 22.263 0 22.57.06 34.612 6.696 22.227 12.25 31.86 30.766 33.228 63.865l.83 20.094h-57.215c-57.168 0-57.217.003-57.217 3.988 0 14.22 10.508 29.364 26.361 37.992 18 9.797 46.38 8.693 70.565-2.745l11.635-5.503-.542 15.2-.542 15.2-6.542 3.367c-15.635 8.05-47.302 12.252-68.075 9.036zm47.796-105.507c-1.347-15.42-7.815-25.511-19.908-31.064-21.81-10.015-48.05 1.937-57.047 25.985-2.063 5.515-3.26 10.823-2.658 11.795.647 1.048 17.223 1.563 40.68 1.264l39.586-.504-.653-7.476zM953.541 266.16c-19.279-3.237-27.672-5.61-37.115-10.493l-3.857-1.994V236.98c0-15.806.122-16.582 2.313-14.62 4.36 3.907 20.818 11.21 30.49 13.529 11.383 2.73 27.694 2.182 34.059-1.144 7.43-3.883 9.135-6.88 9.135-16.063 0-13.308-4.751-16.978-32.526-25.116-35.173-10.308-45.771-21.46-46.012-48.418-.137-15.216 3.252-24.376 12.409-33.542 7.773-7.78 15.693-11.802 28.591-14.515 17.562-3.694 39.48-1.298 54.74 5.984l8.571 4.091V138.7l-4.295-2.577c-13.382-8.03-26.474-11.908-40.207-11.908-14.363 0-20.071 2.652-24.238 11.26-6.79 14.027 2.1 23.975 27.107 30.328 26.952 6.847 40.548 15.59 47.14 30.314 4.286 9.573 4.398 31.546.208 40.675-6.385 13.912-20.703 24.166-38.096 27.283-9.925 1.778-24.066 2.816-28.417 2.086zM801.546 263.66c-18.085-3.11-31.438-9.8-38.75-19.411-12.939-17.011-11.564-43.25 3.04-58 12.525-12.65 31.976-18.419 62.11-18.419h19.625l.448-7.6c.929-15.769.199-18.547-6.682-25.428-5.712-5.712-7.191-6.462-15.781-7.997-14.113-2.522-36.247 1.303-50.653 8.752-1.994 1.03-3.951 1.874-4.351 1.874-.4 0-.726-6.709-.726-14.91v-14.91l4.295-1.733c18.977-7.662 32.53-10.74 47.28-10.74 12.08 0 27.273 3.047 36.166 7.254 9.127 4.318 17.85 13.837 22.02 24.03 3.144 7.682 3.155 7.893 3.62 70.068l.468 62.362-5.048 1.454c-16.586 4.775-58.269 6.59-77.08 3.354zm42.13-25.284l4.13-.826v-47.516l-16.852.593c-19.605.69-28.52 3.053-35.166 9.32-11 10.376-8.23 28.393 5.357 34.84 2.604 1.236 6.882 2.667 9.507 3.18 6.184 1.207 27.7 1.474 33.023.409zM636.334 266.152c-20.258-2.027-44.548-6.816-50.555-9.969-2.177-1.143-2.312-8.377-2.312-123.424V10.549h35.685v46.259c0 25.443.317 46.26.704 46.26.386 0 2.798-.876 5.359-1.946 6.6-2.758 24.612-5.985 33.404-5.985 19.113.001 42.798 8.38 55.93 19.786 27.781 24.127 34.137 76.14 13.511 110.567-14.801 24.705-40.486 38.182-77.187 40.498-5.452.345-11.994.418-14.539.164zm23.13-31.437c21.991-4.052 35.763-15.484 42.363-35.164 3.444-10.27 3.44-30.066-.007-38.99-5.488-14.205-13.897-23.372-26.87-29.294-6.764-3.088-9.149-3.447-22.755-3.42-12.654.023-16.639.553-23.791 3.164l-8.591 3.136v99.107l9.252 1.496c12.406 2.005 19.368 1.997 30.399-.035zM408 186.01l.342-76.984 5.287-1.752c14.456-4.79 30.609-8.454 44.937-10.191 49.729-6.029 76.4 3.732 88.583 32.418 2.347 5.526 2.557 10.471 2.97 69.72l.445 63.771H516.06l-.029-55.841c-.028-53.287-.152-56.113-2.716-61.766-3.54-7.805-5.876-10.228-13.67-14.18-6.283-3.186-7.178-3.276-26.434-2.666-11.119.352-22.123 1.387-24.888 2.34l-4.956 1.71v130.403H407.66l.34-76.983zM338.953 181.047V99.102h34.364v163.89h-34.364v-81.945zM344.717 66.254c-6.181-4.478-8.99-8.501-10.18-14.581-3.869-19.763 21.018-32.818 36.278-19.032 8.943 8.08 9.835 20.239 2.13 29.015-8.265 9.413-19.136 11.184-28.228 4.598zM221.322 266.167c-21.547-3.664-30.49-6.8-42.053-14.745-20.445-14.047-32.372-36.305-34.096-63.626-1.918-30.397 7.927-55.832 28.33-73.188 36.767-31.279 99.252-23.226 125.568 16.183 19.997 29.946 19.085 74.333-2.118 103.124-13.813 18.756-36.516 30.114-64.396 32.216-4.362.329-9.418.345-11.235.036zm17.448-31.095c9.813-2.082 18.008-6.578 24.189-13.271 10.837-11.736 14.004-20.867 14.027-40.444.021-17.333-1.859-24.52-9.39-35.902-15.904-24.038-51.99-26.912-72.393-5.765-9.765 10.12-14.893 24.282-14.806 40.887.142 27.34 13.799 47.838 35.863 53.829 8.842 2.4 13.665 2.543 22.51.666zM88.492 266.12c-45.25-6.594-70.023-29.529-76.796-71.095-2.157-13.24-2.157-14.719.012-28.027 3.226-19.8 9.369-32.68 21.857-45.827 7.774-8.184 11.74-11.12 21.675-16.051 12.969-6.437 27.89-9.978 42.057-9.981 13.476-.003 35.653 5.441 40.568 9.96 1.488 1.368.599 3.693-5.247 13.715-5.249 9-7.553 11.852-9.061 11.217-1.113-.47-6.939-1.492-12.947-2.273-20.754-2.7-37.386 1.937-49.15 13.701-11.158 11.159-15.498 25.05-14.11 45.165 2.287 33.147 28.59 52.69 64.058 47.596 5.57-.8 11.423-1.85 13.007-2.331 2.497-.76 3.864.63 10.244 10.417 4.049 6.213 7.361 11.87 7.361 12.571 0 1.583-15.547 7.457-24.45 9.239-8.42 1.684-23.934 2.753-29.078 2.004z" fill="#0d102b"/>
</svg>
