<?xml version="1.0" encoding="UTF-8" standalone="no"?>
<!-- Created with Inkscape (http://www.inkscape.org/) -->

<svg
   xmlns:dc="http://purl.org/dc/elements/1.1/"
   xmlns:cc="http://creativecommons.org/ns#"
   xmlns:rdf="http://www.w3.org/1999/02/22-rdf-syntax-ns#"
   xmlns:svg="http://www.w3.org/2000/svg"
   xmlns="http://www.w3.org/2000/svg"
   xmlns:sodipodi="http://sodipodi.sourceforge.net/DTD/sodipodi-0.dtd"
   xmlns:inkscape="http://www.inkscape.org/namespaces/inkscape"
   id="svg6689"
   version="1.1"
   inkscape:version="0.91 r13725"
   width="1200"
   height="275"
   viewBox="0 0 1200 275"
   sodipodi:docname="1200px-Coinbase.svg">
  <metadata
     id="metadata6695">
    <rdf:RDF>
      <cc:Work
         rdf:about="">
        <dc:format>image/svg+xml</dc:format>
        <dc:type
           rdf:resource="http://purl.org/dc/dcmitype/StillImage" />
        <dc:title></dc:title>
      </cc:Work>
    </rdf:RDF>
  </metadata>
  <defs
     id="defs6693" />
  <sodipodi:namedview
     pagecolor="#ffffff"
     bordercolor="#666666"
     borderopacity="1"
     objecttolerance="10"
     gridtolerance="10"
     guidetolerance="10"
     inkscape:pageopacity="0"
     inkscape:pageshadow="2"
     inkscape:window-width="1920"
     inkscape:window-height="1017"
     id="namedview6691"
     showgrid="false"
     inkscape:zoom="0.75660426"
     inkscape:cx="758.45892"
     inkscape:cy="69.10482"
     inkscape:window-x="-8"
     inkscape:window-y="-8"
     inkscape:window-maximized="1"
     inkscape:current-layer="svg6689" />
  <path
     style="opacity:1;fill:#0d102b;fill-opacity:1;fill-rule:nonzero;stroke:none;stroke-width:75;stroke-linecap:round;stroke-linejoin:miter;stroke-miterlimit:4;stroke-dasharray:none;stroke-opacity:1"
     d="m 1107.8204,264.37765 c -25.7305,-3.98447 -48.6095,-20.97406 -59.4549,-44.15022 -5.0353,-10.7601 -5.9389,-15.07627 -6.6895,-31.95384 -1.0198,-22.93098 1.3974,-36.13102 9.389,-51.2701 7.6758,-14.5411 19.8814,-26.3759 34.7449,-33.68942 11.9722,-5.890913 13.3097,-6.125578 34.912,-6.125578 22.263,0 22.5709,0.05956 34.6124,6.695938 22.2264,12.24957 31.8602,30.76593 33.228,63.86481 l 0.8304,20.09346 -57.2162,0 c -57.1674,0 -57.2161,0.003 -57.2161,3.98875 0,14.21976 10.5073,29.36316 26.3606,37.99159 17.9996,9.79661 46.3803,8.69268 70.5648,-2.74478 l 11.6356,-5.50279 -0.5422,15.19944 -0.5421,15.19943 -6.5421,3.36792 c -15.6349,8.04904 -47.302,12.25213 -68.0746,9.03539 z m 47.7952,-105.50691 c -1.3471,-15.41894 -7.8146,-25.51096 -19.9075,-31.06406 -21.8095,-10.01496 -48.0492,1.93746 -57.0466,25.98529 -2.0634,5.5148 -3.2598,10.82265 -2.6587,11.79523 0.6475,1.04777 17.2236,1.56292 40.6795,1.26425 l 39.5865,-0.50408 -0.6532,-7.47663 z"
     id="path7239"
     inkscape:connector-curvature="0" />
  <path
     style="opacity:1;fill:#0d102b;fill-opacity:1;fill-rule:nonzero;stroke:none;stroke-width:75;stroke-linecap:round;stroke-linejoin:miter;stroke-miterlimit:4;stroke-dasharray:none;stroke-opacity:1"
     d="m 953.54109,266.15967 c -19.27909,-3.23641 -27.67201,-5.60905 -37.11511,-10.49226 l -3.85743,-1.99476 0,-16.69209 c 0,-15.80558 0.12284,-16.58203 2.31296,-14.61971 4.36107,3.90744 20.81843,11.21001 30.48958,13.52905 11.38425,2.72981 27.69453,2.18198 34.05974,-1.14401 7.4308,-3.88278 9.13518,-6.87962 9.13518,-16.06255 0,-13.30878 -4.75138,-16.97786 -32.52577,-25.11682 -35.1732,-10.30709 -45.77141,-21.45928 -46.01265,-48.41778 -0.13616,-15.216 3.2527,-24.37591 12.4092,-33.54143 7.77354,-7.7812 15.69335,-11.801882 28.59124,-14.515036 17.5617,-3.69422 39.48071,-1.298006 54.73907,5.984146 l 8.572,4.09101 0,15.76597 0,15.76598 -4.2956,-2.57762 c -13.38176,-8.03005 -26.47372,-11.90733 -40.20606,-11.90733 -14.36339,0 -20.07166,2.65162 -24.2386,11.25936 -6.79041,14.02712 2.10107,23.97524 27.10683,30.3281 26.95257,6.84747 40.54843,15.59047 47.14023,30.31431 4.2856,9.57239 4.3982,31.54554 0.2084,40.67448 -6.3853,13.91251 -20.7038,24.16681 -38.09677,27.28324 -9.92431,1.77821 -24.06543,2.81616 -28.41644,2.08575 z"
     id="path7241"
     inkscape:connector-curvature="0" />
  <path
     style="opacity:1;fill:#0d102b;fill-opacity:1;fill-rule:nonzero;stroke:none;stroke-width:75;stroke-linecap:round;stroke-linejoin:miter;stroke-miterlimit:4;stroke-dasharray:none;stroke-opacity:1"
     d="m 801.54617,263.65999 c -18.08475,-3.11023 -31.43828,-9.79962 -38.74952,-19.41138 -12.9393,-17.01071 -11.56438,-43.24902 3.0392,-57.9989 12.52559,-12.65107 31.97636,-18.41934 62.11055,-18.41934 l 19.62431,0 0.44782,-7.59975 c 0.92922,-15.76957 0.1992,-18.5478 -6.68186,-25.42885 -5.712,-5.71201 -7.19066,-6.46127 -15.78068,-7.99639 -14.11271,-2.52209 -36.24748,1.30231 -50.65304,8.75171 -1.99347,1.03086 -3.9514,1.87429 -4.35097,1.87429 -0.39957,0 -0.72648,-6.70937 -0.72648,-14.90972 l 0,-14.90973 4.29551,-1.73422 c 18.97734,-7.661695 32.53063,-10.740564 47.28033,-10.740564 12.07923,0 27.27216,3.047755 36.1653,7.254884 9.12698,4.31775 17.85062,13.83683 22.02112,24.02905 3.14372,7.68288 3.15461,7.89372 3.62,70.06872 l 0.46678,62.36266 -5.04799,1.45349 c -16.58545,4.77552 -58.26857,6.58931 -77.08038,3.35404 z m 42.12903,-25.28416 4.1303,-0.82606 0,-23.75802 0,-23.75803 -16.85161,0.59318 c -19.6044,0.69008 -28.52052,3.05331 -35.16601,9.32082 -11.00081,10.3751 -8.23055,28.39227 5.35687,34.83992 2.60418,1.23577 6.88236,2.66613 9.50705,3.17856 6.18443,1.20743 27.69999,1.47431 33.0234,0.40963 z"
     id="path7243"
     inkscape:connector-curvature="0" />
  <path
     style="opacity:1;fill:#0d102b;fill-opacity:1;fill-rule:nonzero;stroke:none;stroke-width:75;stroke-linecap:round;stroke-linejoin:miter;stroke-miterlimit:4;stroke-dasharray:none;stroke-opacity:1"
     d="m 636.33431,266.15156 c -20.25826,-2.02636 -44.54878,-6.81593 -50.55483,-9.96832 -2.1774,-1.14286 -2.31297,-8.37715 -2.31297,-123.42429 l 0,-122.210279 17.84288,0 17.84289,0 0,46.259322 c 0,25.442627 0.31648,46.259327 0.7033,46.259327 0.38681,0 2.79844,-0.87541 5.35918,-1.94536 6.60094,-2.758048 24.61188,-5.984855 33.40394,-5.984588 19.1128,5.81e-4 42.79799,8.379098 55.93124,19.785398 27.78036,24.1274 34.13595,76.14068 13.51034,110.56696 -14.80165,24.70552 -40.48649,38.18188 -77.18733,40.49875 -5.45199,0.34419 -11.99438,0.41757 -14.53864,0.16308 z m 23.12966,-31.43676 c 21.99105,-4.0518 35.76307,-15.48349 42.36256,-35.16376 3.44418,-10.27087 3.44071,-30.06626 -0.007,-38.99 -5.48768,-14.20455 -13.89654,-23.37228 -26.86937,-29.29425 -6.76431,-3.08784 -9.14897,-3.44631 -22.75564,-3.4207 -12.6539,0.0238 -16.6383,0.55389 -23.79051,3.16499 l -8.59102,3.13638 0,49.55341 0,49.55339 9.25187,1.49549 c 12.4066,2.00542 19.36841,1.99741 30.39898,-0.0349 l 0,-6e-5 z"
     id="path7245"
     inkscape:connector-curvature="0" />
  <path
     style="opacity:1;fill:#0d102b;fill-opacity:1;fill-rule:nonzero;stroke:none;stroke-width:75;stroke-linecap:round;stroke-linejoin:miter;stroke-miterlimit:4;stroke-dasharray:none;stroke-opacity:1"
     d="m 408.00086,186.00929 0.34108,-76.98311 5.28678,-1.75211 c 14.45616,-4.79096 30.60887,-8.454168 44.93762,-10.191225 49.72868,-6.028546 76.39988,3.732255 88.58259,32.418365 2.34673,5.52578 2.55744,10.47077 2.97061,69.71941 l 0.44471,63.77178 -17.25209,0 -17.25209,0 -0.029,-55.84161 c -0.0277,-53.28651 -0.15198,-56.11266 -2.71607,-61.76547 -3.54037,-7.80513 -5.87624,-10.22819 -13.67022,-14.18047 -6.28231,-3.18573 -7.17779,-3.27605 -26.43389,-2.66623 -11.11847,0.35211 -22.12281,1.38693 -24.88766,2.34035 l -4.95636,1.70914 0,65.20215 0,65.20214 -17.85353,0 -17.85353,0 0.34107,-76.98311 z"
     id="path7247"
     inkscape:connector-curvature="0" />
  <path
     style="opacity:1;fill:#0d102b;fill-opacity:1;fill-rule:nonzero;stroke:none;stroke-width:75;stroke-linecap:round;stroke-linejoin:miter;stroke-miterlimit:4;stroke-dasharray:none;stroke-opacity:1"
     d="m 338.95295,181.04732 0,-81.945089 17.18204,0 17.18203,0 0,81.945089 0,81.94508 -17.18203,0 -17.18204,0 0,-81.94508 z"
     id="path7249"
     inkscape:connector-curvature="0" />
  <path
     style="opacity:1;fill:#0d102b;fill-opacity:1;fill-rule:nonzero;stroke:none;stroke-width:75;stroke-linecap:round;stroke-linejoin:miter;stroke-miterlimit:4;stroke-dasharray:none;stroke-opacity:1"
     d="m 344.71704,66.253676 c -6.18143,-4.477807 -8.99044,-8.500985 -10.18054,-14.581009 -3.86832,-19.762585 21.01803,-32.817999 36.27802,-19.031507 8.94303,8.079488 9.83574,20.23874 2.13022,29.014846 -8.2648,9.413077 -19.13589,11.18374 -28.2277,4.59767 z"
     id="path7251"
     inkscape:connector-curvature="0" />
  <path
     style="opacity:1;fill:#0d102b;fill-opacity:1;fill-rule:nonzero;stroke:none;stroke-width:75;stroke-linecap:round;stroke-linejoin:miter;stroke-miterlimit:4;stroke-dasharray:none;stroke-opacity:1"
     d="m 221.32211,266.1669 c -21.54721,-3.66431 -30.48947,-6.79971 -42.0535,-14.74511 -20.4446,-14.04702 -32.37211,-36.30491 -34.09581,-63.62607 -1.91774,-30.39665 7.9276,-55.83147 28.32969,-73.18797 36.76718,-31.278636 99.25213,-23.22564 125.56828,16.18311 19.99702,29.94577 19.08531,74.33287 -2.11815,103.12425 -13.81289,18.756 -36.5156,30.11362 -64.39611,32.21577 -4.36159,0.32887 -9.41707,0.34507 -11.2344,0.036 l 0,7e-5 z m 17.4474,-31.09449 c 9.81301,-2.0821 18.00848,-6.57867 24.18911,-13.27171 10.83705,-11.73552 14.00396,-20.86622 14.02754,-40.44357 0.0209,-17.33291 -1.85885,-24.52036 -9.38929,-35.90183 -15.90481,-24.03844 -51.99088,-26.91204 -72.39405,-5.76487 -9.76437,10.12042 -14.89246,24.28148 -14.80618,40.88682 0.14206,27.33961 13.79926,47.83812 35.86342,53.82848 8.84164,2.40047 13.66479,2.54333 22.50945,0.66668 z"
     id="path7253"
     inkscape:connector-curvature="0" />
  <path
     style="opacity:1;fill:#0d102b;fill-opacity:1;fill-rule:nonzero;stroke:none;stroke-width:75;stroke-linecap:round;stroke-linejoin:miter;stroke-miterlimit:4;stroke-dasharray:none;stroke-opacity:1"
     d="M 88.491766,266.11987 C 43.242573,259.52589 18.468715,236.59098 11.695961,195.02457 9.5386182,181.78432 9.5392407,180.3065 11.707767,166.9976 14.933996,147.19728 21.0767,134.31846 33.5651,121.17142 c 7.773984,-8.18398 11.740304,-11.12133 21.67454,-16.05156 12.969195,-6.436447 27.890345,-9.977487 42.0573,-9.980907 13.47607,-0.0033 35.65314,5.441307 40.56808,9.959627 1.48839,1.36829 0.59887,3.69357 -5.24693,13.71588 -5.24903,8.99918 -7.55347,11.85156 -9.06155,11.21615 -1.11232,-0.46867 -6.93809,-1.49143 -12.94615,-2.27281 -20.754052,-2.69917 -37.386174,1.93735 -49.150432,13.70161 -11.15812,11.15812 -15.49757,25.04878 -14.109585,45.16506 2.287065,33.14681 28.588913,52.68917 64.057777,47.59513 5.5693,-0.79986 11.42258,-1.84882 13.00731,-2.33104 2.4967,-0.75973 3.86402,0.63092 10.24313,10.41791 4.049,6.21208 7.36182,11.86881 7.36182,12.57051 0,1.58289 -15.54725,7.4573 -24.45136,9.23874 -8.41887,1.68438 -23.933546,2.75373 -29.077284,2.00415 z"
     id="path7255"
     inkscape:connector-curvature="0" />
</svg>
