<svg xmlns="http://www.w3.org/2000/svg" fill="none" viewBox="0 0 116 24">
  <g fill="#0D102B" clip-path="url(#dropbox-a)">
    <path
      d="M14.23 4.65 7.57 8.9l6.66 4.25-6.66 4.25L.9 13.13l6.67-4.26L.9 4.65 7.57.39l6.66 4.26Zm-6.7 14.12 6.67-4.25 6.67 4.25-6.67 4.25-6.67-4.25Zm6.7-5.64 6.67-4.26-6.67-4.22L20.87.39l6.66 4.26-6.66 4.25 6.66 4.25-6.66 4.25-6.64-4.27ZM32.76 4.65h5.4c3.43 0 6.27 1.98 6.27 6.52v.96c0 4.57-2.66 6.63-6.18 6.63h-5.49V4.65Zm3.01 2.56v8.97h2.31c1.96 0 3.27-1.27 3.27-4.11v-.75c0-2.84-1.38-4.11-3.37-4.11h-2.2Zm10.25.14h2.42l.39 2.65c.46-1.8 1.63-2.77 3.76-2.77h.74v3.05H52.1c-2.45 0-3.04.85-3.04 3.26v5.25h-2.98V7.35h-.05Zm7.91 5.95v-.32c0-3.83 2.45-5.92 5.78-5.92 3.4 0 5.78 2.1 5.78 5.92v.32c0 3.76-2.3 5.78-5.78 5.78-3.69-.03-5.78-2.01-5.78-5.78Zm8.52-.03v-.3c0-2.12-1.07-3.4-2.77-3.4-1.67 0-2.77 1.18-2.77 3.4v.3c0 2.05 1.07 3.23 2.77 3.23 1.7-.04 2.77-1.18 2.77-3.23Zm4.6-5.92h2.49l.29 2.16a3.85 3.85 0 0 1 3.75-2.45c2.91 0 4.83 2.1 4.83 5.96v.33c0 3.75-2.13 5.74-4.83 5.74-1.8 0-3.04-.81-3.65-2.12v5.78h-2.9l.03-15.4Zm8.34 5.92V13c0-2.27-1.17-3.4-2.74-3.4-1.66 0-2.77 1.28-2.77 3.4v.22c0 2.02 1.07 3.3 2.74 3.3 1.71-.04 2.77-1.13 2.77-3.26Zm7.42 3.4-.25 2.1h-2.55V3.52h2.9v5.85c.65-1.5 1.93-2.31 3.73-2.31 2.74.03 4.76 1.92 4.76 5.71v.36c0 3.79-1.92 5.96-4.83 5.96-1.92-.04-3.16-.93-3.76-2.41Zm5.53-3.54v-.29c0-2.1-1.14-3.26-2.73-3.26-1.64 0-2.77 1.3-2.77 3.3v.25c0 2.12 1.1 3.37 2.73 3.37 1.75 0 2.77-1.1 2.77-3.37Zm4.33.17v-.32c0-3.83 2.45-5.92 5.78-5.92 3.4 0 5.79 2.1 5.79 5.92v.32c0 3.76-2.35 5.78-5.79 5.78-3.68-.03-5.78-2.01-5.78-5.78Zm8.54-.03v-.3c0-2.12-1.07-3.4-2.77-3.4-1.66 0-2.77 1.18-2.77 3.4v.3c0 2.05 1.07 3.23 2.77 3.23 1.72-.04 2.77-1.18 2.77-3.23Zm6.92-.43-4-5.5h3.43l2.3 3.44 2.35-3.43h3.4l-4.06 5.46 4.28 5.96h-3.36l-2.63-3.8-2.55 3.8h-3.51l4.35-5.93Z" />
  </g>
  <defs>
    <clipPath id="dropbox-a">
      <path fill="#fff" d="M0 0h114.93v22.63H0z" transform="translate(.9 .4)" />
    </clipPath>
  </defs>
</svg>