<svg fill="none" xmlns="http://www.w3.org/2000/svg" viewBox="0 0 93 36">
  <g fill="#0D102B">
    <path
      d="M64.4 15.2C64.4 9.8 60.1 8 55 8c-4.3 0-9.1 1-9.6 5.7h4.5c.1-1.8 2-3 4.6-3 3.4 0 5.5 1.3 5.5 4.5v.5h-5.6c-6.7.1-10.6 1.8-10.6 6.5 0 3.3 3 6 8.2 6 3.5 0 6-.7 8.3-3.4v2.7h4.1l-.1-3.6.1-8.7ZM60 19c0 4-2.4 6.5-7 6.5-3.3 0-4.6-1.8-4.6-3.5 0-2.5 2.4-3.3 6.3-3.4l5.3-.1v.5ZM21.7 18c0-7-4.4-10.1-10.5-10.1C3.6 8 0 12 0 18.4c0 5.6 3.5 9.9 11.2 9.9 4.2 0 9.1-1.6 10-6.3h-4.4c-.8 2.2-3 3.3-5.6 3.3a6.3 6.3 0 0 1-6.6-6.2l17 .1v-1Zm-17-1.8c.5-3.8 3.2-5.5 6.5-5.5 3 0 6 1.5 6.2 5.5H4.7Z" />
    <path
      d="M34.1 7.9c-3 0-5.8.7-8 3.3V.2h-4.3v23l-.1 4.4h4.2c.2-.8.2-1.8.2-2.6 1.8 2.2 4.7 3.3 7.9 3.3 6 0 10.3-4.3 10.3-10.2C44.3 11.1 38.9 8 34 8ZM33 25.3c-3.9 0-6.7-2.9-6.7-7.2 0-4.3 2.7-7.2 6.7-7.2s6.7 3 6.7 7.2c0 4.3-2.7 7.2-6.7 7.2ZM86.2 8.6 72.8 34.7H68l3.7-7.3L62 8.6h5l7.3 14.8 7.3-14.8h4.7Zm2 0h.3v.5h.5v.2h-.5v1.1c0 .3 0 .3.2.3h.3v.2h-.4c-.4 0-.6-.1-.6-.5v-1h-.5V9h.6v-.5Zm1.4.9V9h.3v.4c.3-.3.5-.4.8-.4.3 0 .6.1.7.5.1-.3.4-.5.7-.5.5 0 .9.2.9.8V11h-.4v-1c0-.4 0-.7-.5-.7-.3 0-.6.3-.6.9v.8h-.3v-1c0-.5-.2-.8-.5-.8-.4 0-.6.3-.6.7v.9h-.4l-.1-1.3Z" />
  </g>
  <defs>
    <clipPath id="a">
      <path fill="#fff" transform="translate(.2 .3)" d="M0 0h92.8v35.4H0z" />
    </clipPath>
  </defs>
</svg>