<svg width="115" height="20" viewBox="0 0 115 20" fill="none" xmlns="http://www.w3.org/2000/svg">
    <path fill-rule="evenodd" clip-rule="evenodd"
        d="M3.164 1.53857C4.96567 0.626747 7.18414 0 9.5699 0C11.8338 0 14.1298 0.598085 15.9372 1.5128C16.2564 1.67435 16.3842 2.06407 16.2226 2.38327C16.0611 2.70247 15.6714 2.83028 15.3522 2.66873C13.7186 1.84196 11.6222 1.29554 9.5699 1.29554C7.40769 1.29554 5.38835 1.86483 3.74902 2.6945C3.42982 2.85605 3.04009 2.72824 2.87854 2.40904C2.717 2.08984 2.8448 1.70012 3.164 1.53857ZM4.29053 3.51369C5.85416 2.78379 7.86261 2.39641 9.56246 2.39641C11.265 2.39641 13.2234 2.7848 14.7849 3.51369C16.5235 4.32527 17.9801 5.50409 18.9791 6.8916C19.1881 7.18193 19.1222 7.58674 18.8319 7.79578C18.5415 8.00482 18.1367 7.93892 17.9277 7.64859C17.0714 6.45931 15.7966 5.41567 14.2369 4.68762C12.8653 4.04734 11.0968 3.69194 9.56246 3.69194C8.02538 3.69194 6.208 4.04835 4.83852 4.68762C3.34612 5.38427 2.00875 6.50514 1.17491 7.67239C0.966959 7.9635 0.562391 8.03091 0.271286 7.82295C-0.0198195 7.615 -0.0872276 7.21043 0.120726 6.91933C1.09064 5.56159 2.60618 4.29994 4.29053 3.51369ZM9.47995 4.7413C12.8164 4.70922 15.7279 6.42736 17.2054 8.89575C17.981 10.1913 18.2508 11.4938 18.2508 12.604C18.2508 14.4947 16.5246 15.674 14.9747 15.674C14.1985 15.674 13.3738 15.4663 12.7202 14.968C12.0467 14.4544 11.6017 13.6654 11.5701 12.6236C11.5512 11.9998 11.2658 11.5867 10.8742 11.31C10.4611 11.0181 9.92653 10.8812 9.48617 10.8812C8.28825 10.8812 7.45409 11.7625 7.45409 12.604C7.45409 13.3057 7.67437 14.2908 7.96491 14.943C8.25938 15.6039 8.78761 16.3734 9.30239 16.8392L9.30854 16.8448L9.31455 16.8505C10.1573 17.6534 11.2111 18.3685 12.7564 18.7205C13.1053 18.7999 13.3236 19.1471 13.2442 19.4959C13.1647 19.8448 12.8175 20.0631 12.4687 19.9837C10.6509 19.5697 9.39765 18.7176 8.42683 17.7941C7.75983 17.1883 7.13589 16.2656 6.78152 15.4702C6.42211 14.6635 6.15855 13.4994 6.15855 12.604C6.15855 10.9203 7.70639 9.58562 9.48617 9.58562C10.1538 9.58562 10.9592 9.78369 11.6219 10.2519C12.3061 10.7354 12.8324 11.5076 12.865 12.5844C12.885 13.2433 13.1485 13.6654 13.5058 13.9378C13.8829 14.2253 14.411 14.3784 14.9747 14.3784C16.0034 14.3784 16.9553 13.5993 16.9553 12.604C16.9553 11.7044 16.7373 10.6362 16.0938 9.56114C14.859 7.49831 12.3817 6.009 9.4924 6.03678C6.98523 6.06089 4.31918 7.24496 2.95665 9.534C2.37587 10.5097 2.08453 11.6247 2.11986 12.7905C2.16848 14.395 2.40238 15.0684 2.82562 16.1887C2.95205 16.5234 2.78324 16.8972 2.44858 17.0236C2.11391 17.1501 1.74012 16.9813 1.61369 16.6466C1.16082 15.4478 0.879369 14.6267 0.824917 12.8298C0.782161 11.4188 1.1358 10.0601 1.84341 8.87135C3.48712 6.10991 6.62741 4.76873 9.47995 4.7413ZM3.50447 12.4949C3.50836 9.50835 6.38245 7.16345 9.48617 7.16345C12.5727 7.16345 15.5709 9.28883 15.5709 12.6813C15.5709 13.0391 15.2809 13.3291 14.9232 13.3291C14.5654 13.3291 14.2754 13.0391 14.2754 12.6813C14.2754 10.1988 12.0685 8.45899 9.48617 8.45899C6.92309 8.45899 4.80001 10.3884 4.80001 12.501V12.5069L4.7999 12.5128C4.77833 13.6918 4.96602 14.8167 5.57968 16.0204C6.20581 17.2486 6.95852 18.0829 7.64662 18.6886C7.91515 18.925 7.94121 19.3343 7.70483 19.6028C7.46844 19.8714 7.05913 19.8974 6.7906 19.661C6.00405 18.9687 5.13928 18.0089 4.42548 16.6088C3.70024 15.1862 3.48045 13.846 3.50447 12.4949ZM9.48617 11.9563C9.84393 11.9563 10.1339 12.2463 10.1339 12.604C10.1339 13.3036 10.3258 13.9664 10.6913 14.5991C11.043 15.208 11.5005 15.6471 12.1283 16.0276C13.042 16.5261 13.6692 16.6964 14.6232 16.672L14.6276 16.6719L14.6321 16.6718C15.0088 16.6674 15.4508 16.6362 15.7996 16.5754C16.152 16.5139 16.4875 16.7498 16.549 17.1022C16.6105 17.4547 16.3746 17.7902 16.0222 17.8517C15.5859 17.9278 15.0727 17.962 14.6518 17.9672C13.4345 17.9977 12.5827 17.753 11.4943 17.1576L11.4824 17.151L11.4708 17.144C10.6785 16.6662 10.0485 16.0765 9.56945 15.2471C9.10203 14.4379 8.83841 13.5536 8.83841 12.604C8.83841 12.2463 9.12842 11.9563 9.48617 11.9563Z"
        fill="#F04405" />
    <path d="M25.6084 9.42006H29.5246V10.7455H25.6084V15.1739H23.8612V4.78087H30.2476L30.0669 6.10635H25.6084V9.42006Z"
        fill="white" />
    <path
        d="M34.896 3.31982C35.2173 3.31982 35.4784 3.42526 35.6792 3.63613C35.8901 3.83696 35.9955 4.088 35.9955 4.38925C35.9955 4.69049 35.8901 4.94153 35.6792 5.14236C35.4784 5.34319 35.2173 5.44361 34.896 5.44361C34.5646 5.44361 34.2985 5.34319 34.0977 5.14236C33.8969 4.94153 33.7964 4.69049 33.7964 4.38925C33.7964 4.07796 33.8969 3.8219 34.0977 3.62107C34.3086 3.42024 34.5747 3.31982 34.896 3.31982ZM36.0558 13.9387H38.2248V15.1739H32.004V13.9387H34.3688V8.45607H32.0793V7.22096H36.0558V13.9387Z"
        fill="white" />
    <path
        d="M40.1469 7.22096H41.6079L41.7284 8.26026C42.0598 7.8586 42.4464 7.55233 42.8882 7.34146C43.3401 7.12055 43.812 7.01009 44.304 7.01009C45.0371 7.01009 45.5894 7.21594 45.9609 7.62764C46.3324 8.03935 46.5182 8.62176 46.5182 9.37487V15.1739H44.8312V10.2184C44.8312 9.72632 44.8011 9.34977 44.7409 9.08869C44.6906 8.81757 44.5852 8.62176 44.4245 8.50126C44.2639 8.37072 44.0229 8.30545 43.7016 8.30545C43.3401 8.30545 42.9936 8.4159 42.6623 8.63682C42.3409 8.85773 42.0648 9.13387 41.8338 9.46524V15.1739H40.1469V7.22096Z"
        fill="white" />
    <path
        d="M55.7154 7.61258C55.4242 7.713 55.0928 7.78329 54.7213 7.82345C54.3598 7.85358 53.923 7.86864 53.4109 7.86864C53.8928 8.08955 54.2543 8.3657 54.4953 8.69707C54.7363 9.02844 54.8568 9.4301 54.8568 9.90205C54.8568 10.4242 54.7263 10.8861 54.4652 11.2878C54.2142 11.6894 53.8527 12.0058 53.3807 12.2367C52.9088 12.4677 52.3515 12.5831 51.7088 12.5831C51.2569 12.5831 50.8954 12.538 50.6243 12.4476C50.5139 12.5279 50.4285 12.6283 50.3683 12.7488C50.308 12.8593 50.2779 12.9798 50.2779 13.1103C50.2779 13.512 50.6042 13.7128 51.2569 13.7128H52.6427C53.205 13.7128 53.7071 13.8082 54.1489 13.999C54.5907 14.1898 54.9321 14.4559 55.1731 14.7973C55.4242 15.1287 55.5497 15.5052 55.5497 15.927C55.5497 16.7203 55.2083 17.3328 54.5255 17.7646C53.8426 18.2064 52.8586 18.4273 51.5733 18.4273C50.6796 18.4273 49.9716 18.3319 49.4495 18.1411C48.9374 17.9604 48.5708 17.6893 48.3499 17.3278C48.139 16.9763 48.0336 16.5194 48.0336 15.9571H49.5398C49.5398 16.2583 49.5951 16.4943 49.7055 16.665C49.826 16.8458 50.0319 16.9763 50.3231 17.0566C50.6143 17.147 51.036 17.1922 51.5883 17.1922C52.3916 17.1922 52.969 17.0918 53.3205 16.891C53.6719 16.7002 53.8477 16.414 53.8477 16.0324C53.8477 15.7111 53.7071 15.46 53.4259 15.2793C53.1548 15.1086 52.7833 15.0232 52.3113 15.0232H50.9406C50.2277 15.0232 49.6854 14.8776 49.3139 14.5864C48.9524 14.2952 48.7717 13.9287 48.7717 13.4869C48.7717 13.2158 48.847 12.9547 48.9976 12.7036C49.1482 12.4526 49.3641 12.2367 49.6453 12.056C49.1733 11.8049 48.8269 11.5037 48.606 11.1522C48.3951 10.7907 48.2897 10.3489 48.2897 9.82674C48.2897 9.27446 48.4303 8.78744 48.7114 8.3657C48.9926 7.93391 49.3842 7.60254 49.8863 7.37158C50.3884 7.13059 50.9607 7.01009 51.6034 7.01009C52.4669 7.02013 53.1498 6.95988 53.6519 6.82934C54.164 6.6988 54.7062 6.49295 55.2786 6.21179L55.7154 7.61258ZM51.6184 8.18495C51.0862 8.18495 50.6846 8.33557 50.4135 8.63682C50.1423 8.92802 50.0068 9.32466 50.0068 9.82674C50.0068 10.3389 50.1423 10.7455 50.4135 11.0468C50.6946 11.338 51.1013 11.4836 51.6335 11.4836C52.1356 11.4836 52.5172 11.338 52.7782 11.0468C53.0393 10.7556 53.1699 10.3389 53.1699 9.79662C53.1699 8.72217 52.6527 8.18495 51.6184 8.18495Z"
        fill="white" />
    <path
        d="M58.4057 11.7397C58.4559 12.5129 58.6768 13.0953 59.0684 13.4869C59.4701 13.8685 59.9721 14.0592 60.5746 14.0592C60.9462 14.0592 61.2976 14.004 61.629 13.8936C61.9704 13.7731 62.3168 13.5973 62.6683 13.3664L63.3913 14.3906C63.0197 14.7019 62.5829 14.9429 62.0809 15.1136C61.5788 15.2843 61.0516 15.3697 60.4993 15.3697C59.2843 15.3697 58.3404 14.9931 57.6676 14.24C56.9948 13.4768 56.6584 12.4626 56.6584 11.1974C56.6584 10.4041 56.804 9.69118 57.0952 9.05856C57.3864 8.4159 57.8082 7.91383 58.3605 7.55233C58.9128 7.19084 59.5554 7.01009 60.2884 7.01009C61.3428 7.01009 62.1763 7.36656 62.7888 8.07951C63.4114 8.78242 63.7226 9.75143 63.7226 10.9865C63.7226 11.2878 63.7076 11.5388 63.6775 11.7397H58.4057ZM60.3035 8.26026C59.7613 8.26026 59.3194 8.45607 58.978 8.84769C58.6366 9.23931 58.4408 9.82172 58.3906 10.5949H62.0809C62.0608 9.8418 61.9001 9.26441 61.5989 8.86275C61.2976 8.46109 60.8658 8.26026 60.3035 8.26026Z"
        fill="white" />
    <path
        d="M71.0672 7.02515C71.4789 7.02515 71.8805 7.09042 72.2722 7.22096L71.986 10.1581H70.781V8.53138C70.2287 8.54142 69.7467 8.76234 69.335 9.19412C68.9333 9.62591 68.612 10.2334 68.371 11.0167V13.9689H69.9676V15.1739H65.5092V13.9689H66.684V8.42595H65.5092V7.22096H67.9643L68.2656 9.05856C68.5769 8.37574 68.9534 7.86864 69.3953 7.53727C69.8471 7.19586 70.4044 7.02515 71.0672 7.02515Z"
        fill="white" />
    <path
        d="M77.749 7.01009C79.6769 7.01009 80.6409 8.40084 80.6409 11.1823C80.6409 12.4375 80.3748 13.4517 79.8426 14.2249C79.3104 14.9881 78.5523 15.3697 77.5682 15.3697C76.7348 15.3697 76.062 15.0785 75.5499 14.4961V18.2315L73.8629 18.4273V7.22096H75.3239L75.4294 8.2452C75.7306 7.84354 76.077 7.53727 76.4687 7.3264C76.8703 7.11552 77.2971 7.01009 77.749 7.01009ZM77.282 8.30545C76.9306 8.30545 76.6092 8.41088 76.318 8.62176C76.0268 8.83263 75.7708 9.10877 75.5499 9.45018V13.1706C75.9415 13.763 76.4636 14.0592 77.1163 14.0592C77.6987 14.0592 78.1356 13.8283 78.4268 13.3664C78.718 12.9045 78.8636 12.1815 78.8636 11.1974C78.8636 10.1832 78.733 9.45018 78.4719 8.99831C78.2109 8.5364 77.8142 8.30545 77.282 8.30545Z"
        fill="white" />
    <path
        d="M87.9252 7.02515C88.3369 7.02515 88.7385 7.09042 89.1302 7.22096L88.844 10.1581H87.639V8.53138C87.0867 8.54142 86.6047 8.76234 86.193 9.19412C85.7914 9.62591 85.47 10.2334 85.229 11.0167V13.9689H86.8256V15.1739H82.3672V13.9689H83.542V8.42595H82.3672V7.22096H84.8223L85.1236 9.05856C85.4349 8.37574 85.8114 7.86864 86.2533 7.53727C86.7051 7.19586 87.2624 7.02515 87.9252 7.02515Z"
        fill="white" />
    <path
        d="M93.899 3.31982C94.2204 3.31982 94.4814 3.42526 94.6823 3.63613C94.8932 3.83696 94.9986 4.088 94.9986 4.38925C94.9986 4.69049 94.8932 4.94153 94.6823 5.14236C94.4814 5.34319 94.2204 5.44361 93.899 5.44361C93.5677 5.44361 93.3016 5.34319 93.1007 5.14236C92.8999 4.94153 92.7995 4.69049 92.7995 4.38925C92.7995 4.07796 92.8999 3.8219 93.1007 3.62107C93.3116 3.42024 93.5777 3.31982 93.899 3.31982ZM95.0588 13.9387H97.2278V15.1739H91.0071V13.9387H93.3718V8.45607H91.0824V7.22096H95.0588V13.9387Z"
        fill="white" />
    <path
        d="M99.1499 7.22096H100.611L100.731 8.26026C101.063 7.8586 101.449 7.55233 101.891 7.34146C102.343 7.12055 102.815 7.01009 103.307 7.01009C104.04 7.01009 104.592 7.21594 104.964 7.62764C105.335 8.03935 105.521 8.62176 105.521 9.37487V15.1739H103.834V10.2184C103.834 9.72632 103.804 9.34977 103.744 9.08869C103.694 8.81757 103.588 8.62176 103.428 8.50126C103.267 8.37072 103.026 8.30545 102.705 8.30545C102.343 8.30545 101.997 8.4159 101.665 8.63682C101.344 8.85773 101.068 9.13387 100.837 9.46524V15.1739H99.1499V7.22096Z"
        fill="white" />
    <path
        d="M114.221 14.7521C113.92 14.9429 113.569 15.0935 113.167 15.204C112.765 15.3144 112.344 15.3697 111.902 15.3697C110.998 15.3697 110.3 15.1387 109.808 14.6768C109.316 14.2049 109.07 13.5672 109.07 12.7639V8.45607H107.308V7.22096H109.07V5.44361L110.757 5.2478V7.22096H113.453L113.257 8.45607H110.757V12.7488C110.757 13.1806 110.868 13.5019 111.088 13.7128C111.309 13.9136 111.661 14.0141 112.143 14.0141C112.675 14.0141 113.167 13.8885 113.619 13.6375L114.221 14.7521Z"
        fill="white" />
</svg>