<svg viewBox="0 0 183 32" fill="none" xmlns="http://www.w3.org/2000/svg">
    <path fill-rule="evenodd" clip-rule="evenodd"
        d="M5.0624 2.46171C7.94506 1.0028 11.4946 0 15.3118 0C18.934 0 22.6077 0.956936 25.4995 2.42048C26.0102 2.67896 26.2147 3.30252 25.9562 3.81324C25.6978 4.32396 25.0742 4.52844 24.5635 4.26997C21.9497 2.94714 18.5955 2.07286 15.3118 2.07286C11.8523 2.07286 8.62136 2.98373 5.99843 4.3112C5.48771 4.56967 4.86415 4.36519 4.60567 3.85447C4.34719 3.34374 4.55168 2.72019 5.0624 2.46171ZM6.86485 5.6219C9.36665 4.45406 12.5802 3.83425 15.2999 3.83425C18.024 3.83425 21.1575 4.45568 23.6558 5.6219C26.4376 6.92043 28.7681 8.80655 30.3665 11.0266C30.7009 11.4911 30.5955 12.1388 30.131 12.4732C29.6665 12.8077 29.0188 12.7023 28.6843 12.2377C27.3142 10.3349 25.2745 8.66508 22.779 7.50019C20.5844 6.47574 17.755 5.90711 15.2999 5.90711C12.8406 5.90711 9.9328 6.47736 7.74163 7.50019C5.3538 8.61483 3.214 10.4082 1.87986 12.2758C1.54713 12.7416 0.899826 12.8495 0.434058 12.5167C-0.0317113 12.184 -0.139564 11.5367 0.193161 11.0709C1.74502 8.89855 4.16989 6.8799 6.86485 5.6219ZM15.1679 7.58609C20.5063 7.53476 25.1646 10.2838 27.5287 14.2332C28.7695 16.3062 29.2013 18.3901 29.2013 20.1664C29.2013 23.1916 26.4394 25.0783 23.9595 25.0783C22.7176 25.0783 21.3981 24.7462 20.3524 23.9488C19.2748 23.1271 18.5627 21.8646 18.5121 20.1978C18.4819 19.1997 18.0254 18.5387 17.3988 18.096C16.7378 17.6289 15.8824 17.4099 15.1779 17.4099C13.2612 17.4099 11.9265 18.82 11.9265 20.1664C11.9265 21.2891 12.279 22.8653 12.7439 23.9087C13.215 24.9662 14.0602 26.1974 14.8838 26.9428L14.8937 26.9517L14.9033 26.9608C16.2517 28.2454 17.9377 29.3896 20.4103 29.9528C20.9684 30.0799 21.3178 30.6354 21.1907 31.1935C21.0636 31.7516 20.5081 32.101 19.95 31.9739C17.0415 31.3115 15.0362 29.9482 13.4829 28.4706C12.4157 27.5013 11.4174 26.0249 10.8504 24.7523C10.2754 23.4616 9.85369 21.599 9.85369 20.1664C9.85369 17.4725 12.3302 15.337 15.1779 15.337C16.2461 15.337 17.5347 15.6539 18.595 16.4031C19.6897 17.1766 20.5318 18.4121 20.5841 20.135C20.616 21.1893 21.0377 21.8646 21.6092 22.3004C22.2126 22.7605 23.0577 23.0055 23.9595 23.0055C25.6054 23.0055 27.1284 21.7589 27.1284 20.1664C27.1284 18.727 26.7797 17.0179 25.7501 15.2978C23.7745 11.9973 19.8108 9.6144 15.1878 9.65885C11.1764 9.69742 6.91069 11.5919 4.73064 15.2544C3.8014 16.8155 3.33525 18.5995 3.39178 20.4649C3.46957 23.032 3.84381 24.1094 4.521 25.902C4.72329 26.4375 4.45319 27.0355 3.91772 27.2378C3.38225 27.4401 2.78418 27.17 2.5819 26.6345C1.85732 24.7165 1.40699 23.4027 1.31987 20.5277C1.25146 18.2701 1.81727 16.0962 2.94945 14.1942C5.5794 9.77586 10.6039 7.62997 15.1679 7.58609ZM5.60716 19.9918C5.61338 15.2134 10.2119 11.4615 15.1779 11.4615C20.1164 11.4615 24.9135 14.8621 24.9135 20.2901C24.9135 20.8625 24.4495 21.3266 23.8771 21.3266C23.3047 21.3266 22.8407 20.8625 22.8407 20.2901C22.8407 16.318 19.3097 13.5344 15.1779 13.5344C11.0769 13.5344 7.68001 16.6214 7.68001 20.0015V20.011L7.67984 20.0205C7.64532 21.9069 7.94563 23.7067 8.92748 25.6326C9.92929 27.5977 11.1336 28.9326 12.2346 29.9017C12.6642 30.28 12.7059 30.9349 12.3277 31.3645C11.9495 31.7942 11.2946 31.8359 10.865 31.4577C9.60648 30.3498 8.22284 28.8143 7.08076 26.5741C5.92039 24.298 5.56871 22.1536 5.60716 19.9918ZM15.1779 19.13C15.7503 19.13 16.2143 19.594 16.2143 20.1664C16.2143 21.2857 16.5213 22.3463 17.1061 23.3586C17.6687 24.3327 18.4008 25.0354 19.4053 25.6442C20.8672 26.4417 21.8707 26.7142 23.3971 26.6752L23.4042 26.675L23.4113 26.6749C24.0142 26.6678 24.7213 26.618 25.2793 26.5206C25.8432 26.4223 26.38 26.7997 26.4784 27.3636C26.5767 27.9275 26.1993 28.4643 25.6354 28.5627C24.9374 28.6844 24.1162 28.7393 23.4429 28.7475C21.4951 28.7963 20.1323 28.4049 18.391 27.4521L18.3719 27.4417L18.3532 27.4304C17.0856 26.666 16.0776 25.7224 15.3111 24.3954C14.5632 23.1006 14.1414 21.6858 14.1414 20.1664C14.1414 19.594 14.6055 19.13 15.1779 19.13Z"
        fill="white" />
    <path d="M40.9735 15.0721H47.2394V17.1929H40.9735V24.2782H38.1779V7.64944H48.3962L48.107 9.77021H40.9735V15.0721Z"
        fill="white" />
    <path
        d="M55.8336 5.31177C56.3477 5.31177 56.7654 5.48047 57.0868 5.81786C57.4241 6.13919 57.5928 6.54085 57.5928 7.02285C57.5928 7.50484 57.4241 7.9065 57.0868 8.22783C56.7654 8.54916 56.3477 8.70982 55.8336 8.70982C55.3034 8.70982 54.8776 8.54916 54.5563 8.22783C54.235 7.9065 54.0743 7.50484 54.0743 7.02285C54.0743 6.52479 54.235 6.11509 54.5563 5.79376C54.8937 5.47243 55.3194 5.31177 55.8336 5.31177ZM57.6892 22.302H61.1596V24.2782H51.2064V22.302H54.9901V13.5298H51.3269V11.5536H57.6892V22.302Z"
        fill="white" />
    <path
        d="M64.2349 11.5536H66.5726L66.7654 13.2165C67.2956 12.5738 67.9142 12.0838 68.6211 11.7464C69.3441 11.3929 70.0992 11.2162 70.8865 11.2162C72.0593 11.2162 72.943 11.5456 73.5374 12.2043C74.1319 12.863 74.4291 13.7949 74.4291 14.9998V24.2782H71.7299V16.3494C71.7299 15.5622 71.6818 14.9597 71.5854 14.5419C71.505 14.1082 71.3363 13.7949 71.0793 13.6021C70.8222 13.3932 70.4366 13.2888 69.9225 13.2888C69.3441 13.2888 68.7898 13.4655 68.2596 13.819C67.7455 14.1724 67.3036 14.6142 66.9341 15.1444V24.2782H64.2349V11.5536Z"
        fill="white" />
    <path
        d="M89.1446 12.1802C88.6787 12.3408 88.1485 12.4533 87.554 12.5176C86.9756 12.5658 86.2767 12.5899 85.4574 12.5899C86.2285 12.9433 86.8069 13.3852 87.1925 13.9154C87.5781 14.4455 87.7709 15.0882 87.7709 15.8433C87.7709 16.6788 87.5621 17.4178 87.1443 18.0605C86.7427 18.7032 86.1643 19.2093 85.4092 19.5788C84.654 19.9483 83.7623 20.1331 82.7341 20.1331C82.0111 20.1331 81.4327 20.0608 80.9989 19.9162C80.8222 20.0447 80.6856 20.2054 80.5892 20.3982C80.4928 20.5749 80.4446 20.7677 80.4446 20.9766C80.4446 21.6192 80.9668 21.9406 82.0111 21.9406H84.2283C85.128 21.9406 85.9313 22.0932 86.6382 22.3984C87.3452 22.7037 87.8914 23.1295 88.277 23.6757C88.6787 24.2059 88.8795 24.8084 88.8795 25.4832C88.8795 26.7525 88.3333 27.7325 87.2407 28.4234C86.1482 29.1303 84.5737 29.4838 82.5172 29.4838C81.0873 29.4838 79.9546 29.3311 79.1191 29.0259C78.2997 28.7367 77.7133 28.3029 77.3599 27.7245C77.0225 27.1622 76.8538 26.4311 76.8538 25.5314H79.2637C79.2637 26.0134 79.3521 26.391 79.5288 26.6641C79.7216 26.9533 80.051 27.1622 80.5169 27.2907C80.9828 27.4353 81.6576 27.5076 82.5413 27.5076C83.8266 27.5076 84.7504 27.3469 85.3128 27.0256C85.8751 26.7203 86.1562 26.2624 86.1562 25.6519C86.1562 25.1378 85.9313 24.7361 85.4815 24.4469C85.0477 24.1738 84.4532 24.0372 83.6981 24.0372H81.505C80.3643 24.0372 79.4967 23.8043 78.9022 23.3383C78.3238 22.8724 78.0346 22.286 78.0346 21.5791C78.0346 21.1453 78.1551 20.7275 78.3961 20.3259C78.6371 19.9242 78.9826 19.5788 79.4324 19.2896C78.6773 18.8879 78.123 18.4059 77.7696 17.8436C77.4322 17.2652 77.2635 16.5583 77.2635 15.7228C77.2635 14.8392 77.4884 14.06 77.9383 13.3852C78.3881 12.6943 79.0147 12.1641 79.818 11.7946C80.6213 11.409 81.5371 11.2162 82.5654 11.2162C83.9471 11.2323 85.0396 11.1359 85.8429 10.927C86.6623 10.7181 87.5299 10.3888 88.4457 9.93891L89.1446 12.1802ZM82.5895 13.096C81.738 13.096 81.0953 13.337 80.6615 13.819C80.2277 14.2849 80.0108 14.9195 80.0108 15.7228C80.0108 16.5422 80.2277 17.1929 80.6615 17.6749C81.1114 18.1408 81.7621 18.3738 82.6136 18.3738C83.4169 18.3738 84.0274 18.1408 84.4452 17.6749C84.8629 17.209 85.0718 16.5422 85.0718 15.6746C85.0718 13.9555 84.2443 13.096 82.5895 13.096Z"
        fill="white" />
    <path
        d="M93.449 18.7835C93.5294 20.0206 93.8828 20.9525 94.5094 21.5791C95.1521 22.1896 95.9554 22.4948 96.9194 22.4948C97.5139 22.4948 98.0762 22.4065 98.6064 22.2297C99.1526 22.037 99.7069 21.7558 100.269 21.3863L101.426 23.025C100.832 23.5231 100.133 23.9087 99.3294 24.1818C98.526 24.455 97.6825 24.5915 96.7989 24.5915C94.8549 24.5915 93.3446 23.989 92.2682 22.784C91.1917 21.563 90.6535 19.9403 90.6535 17.9159C90.6535 16.6467 90.8864 15.5059 91.3524 14.4937C91.8183 13.4655 92.4931 12.6622 93.3767 12.0838C94.2604 11.5054 95.2886 11.2162 96.4615 11.2162C98.1485 11.2162 99.482 11.7866 100.462 12.9273C101.458 14.0519 101.956 15.6023 101.956 17.5785C101.956 18.0605 101.932 18.4622 101.884 18.7835H93.449ZM96.4856 13.2165C95.618 13.2165 94.9111 13.5298 94.3648 14.1564C93.8186 14.7829 93.5053 15.7148 93.4249 16.9519H99.3294C99.2972 15.7469 99.0402 14.8231 98.5582 14.1805C98.0762 13.5378 97.3853 13.2165 96.4856 13.2165Z"
        fill="white" />
    <path
        d="M113.707 11.2403C114.366 11.2403 115.009 11.3447 115.635 11.5536L115.178 16.253H113.25V13.6503C112.366 13.6663 111.595 14.0198 110.936 14.7106C110.293 15.4015 109.779 16.3735 109.394 17.6267V22.3502H111.948V24.2782H104.815V22.3502H106.694V13.4816H104.815V11.5536H108.743L109.225 14.4937C109.723 13.4012 110.325 12.5899 111.032 12.0597C111.755 11.5134 112.647 11.2403 113.707 11.2403Z"
        fill="white" />
    <path
        d="M124.398 11.2162C127.483 11.2162 129.025 13.4414 129.025 17.8918C129.025 19.9001 128.6 21.5228 127.748 22.7599C126.897 23.981 125.684 24.5915 124.109 24.5915C122.776 24.5915 121.699 24.1256 120.88 23.1937V29.1705L118.181 29.4838V11.5536H120.518L120.687 13.1924C121.169 12.5497 121.723 12.0597 122.35 11.7223C122.992 11.3849 123.675 11.2162 124.398 11.2162ZM123.651 13.2888C123.089 13.2888 122.575 13.4575 122.109 13.7949C121.643 14.1323 121.233 14.5741 120.88 15.1203V21.073C121.506 22.0209 122.342 22.4948 123.386 22.4948C124.318 22.4948 125.017 22.1253 125.483 21.3863C125.949 20.6472 126.182 19.4904 126.182 17.9159C126.182 16.2932 125.973 15.1203 125.555 14.3974C125.137 13.6583 124.503 13.2888 123.651 13.2888Z"
        fill="white" />
    <path
        d="M140.68 11.2403C141.339 11.2403 141.982 11.3447 142.608 11.5536L142.15 16.253H140.222V13.6503C139.339 13.6663 138.568 14.0198 137.909 14.7106C137.266 15.4015 136.752 16.3735 136.366 17.6267V22.3502H138.921V24.2782H131.787V22.3502H133.667V13.4816H131.787V11.5536H135.716L136.198 14.4937C136.696 13.4012 137.298 12.5899 138.005 12.0597C138.728 11.5134 139.62 11.2403 140.68 11.2403Z"
        fill="white" />
    <path
        d="M150.238 5.31177C150.753 5.31177 151.17 5.48047 151.492 5.81786C151.829 6.13919 151.998 6.54085 151.998 7.02285C151.998 7.50484 151.829 7.9065 151.492 8.22783C151.17 8.54916 150.753 8.70982 150.238 8.70982C149.708 8.70982 149.282 8.54916 148.961 8.22783C148.64 7.9065 148.479 7.50484 148.479 7.02285C148.479 6.52479 148.64 6.11509 148.961 5.79376C149.299 5.47243 149.724 5.31177 150.238 5.31177ZM152.094 22.302H155.564V24.2782H145.611V22.302H149.395V13.5298H145.732V11.5536H152.094V22.302Z"
        fill="white" />
    <path
        d="M158.64 11.5536H160.977L161.17 13.2165C161.7 12.5738 162.319 12.0838 163.026 11.7464C163.749 11.3929 164.504 11.2162 165.291 11.2162C166.464 11.2162 167.348 11.5456 167.942 12.2043C168.537 12.863 168.834 13.7949 168.834 14.9998V24.2782H166.135V16.3494C166.135 15.5622 166.087 14.9597 165.99 14.5419C165.91 14.1082 165.741 13.7949 165.484 13.6021C165.227 13.3932 164.841 13.2888 164.327 13.2888C163.749 13.2888 163.195 13.4655 162.664 13.819C162.15 14.1724 161.709 14.6142 161.339 15.1444V24.2782H158.64V11.5536Z"
        fill="white" />
    <path
        d="M182.754 23.6034C182.272 23.9087 181.71 24.1497 181.067 24.3264C180.425 24.5032 179.75 24.5915 179.043 24.5915C177.597 24.5915 176.48 24.222 175.693 23.4829C174.906 22.7278 174.512 21.7076 174.512 20.4223V13.5298H171.692V11.5536H174.512V8.70982L177.211 8.39653V11.5536H181.525L181.212 13.5298H177.211V20.3982C177.211 21.089 177.388 21.6032 177.741 21.9406C178.095 22.2619 178.657 22.4225 179.428 22.4225C180.28 22.4225 181.067 22.2217 181.79 21.8201L182.754 23.6034Z"
        fill="white" />
</svg>