<svg viewBox="0 0 183 32" fill="none" xmlns="http://www.w3.org/2000/svg">
    <path fill-rule="evenodd" clip-rule="evenodd"
        d="M5 2.5a22.9 22.9 0 0 1 20.5 0 1 1 0 0 1-1 1.8A20.8 20.8 0 0 0 6 4.3a1 1 0 0 1-.8-1.8ZM7 5.6a21 21 0 0 1 16.8 0c2.7 1.3 5 3.2 6.7 5.4a1 1 0 1 1-1.7 1.2 15.1 15.1 0 0 0-6-4.7 18.7 18.7 0 0 0-15 0c-2.3 1.1-4.5 3-5.8 4.8A1 1 0 1 1 .2 11c1.5-2.2 4-4.2 6.7-5.5Zm8.3 2c5.3 0 10 2.7 12.3 6.6 1.3 2.1 1.7 4.2 1.7 6 0 3-2.8 4.9-5.2 4.9a6 6 0 0 1-3.6-1.2c-1.1-.8-1.8-2-1.9-3.7 0-1-.5-1.7-1.1-2.1a4 4 0 0 0-2.2-.7c-2 0-3.3 1.4-3.3 2.8 0 1 .4 2.7.8 3.7a11.3 11.3 0 0 0 7.7 6 1 1 0 0 1-.4 2 13.4 13.4 0 0 1-9.1-7.1c-.6-1.3-1-3.2-1-4.6 0-2.7 2.4-4.9 5.3-4.9 1 0 2.3.4 3.4 1.1 1 .8 2 2 2 3.7 0 1 .4 1.8 1 2.2.6.5 1.5.7 2.4.7 1.6 0 3.1-1.2 3.1-2.8 0-1.5-.3-3.2-1.3-4.9-2-3.3-6-5.7-10.6-5.6-4 0-8.3 1.9-10.5 5.6a9.6 9.6 0 0 0-1.3 5.2c0 2.5.4 3.6 1.1 5.4a1 1 0 1 1-2 .7c-.6-1.9-1-3.2-1.2-6 0-2.3.5-4.5 1.6-6.4 2.7-4.4 7.7-6.6 12.3-6.6ZM5.6 20c0-4.8 4.6-8.5 9.6-8.5s9.7 3.4 9.7 8.8a1 1 0 1 1-2 0c0-4-3.6-6.8-7.7-6.8S7.7 16.6 7.7 20c0 2 .2 3.7 1.2 5.6 1 2 2.2 3.3 3.3 4.3a1 1 0 0 1-1.3 1.6 16.2 16.2 0 0 1-3.8-5A13.4 13.4 0 0 1 5.6 20Zm9.6-.9c.6 0 1 .5 1 1 0 1.2.3 2.2 1 3.3.5 1 1.2 1.6 2.2 2.2a7 7 0 0 0 4 1h1.9a1 1 0 0 1 .3 2l-2.2.1a9 9 0 0 1-5-1.2 8.4 8.4 0 0 1-4.2-7.3c0-.6.4-1 1-1Z"
        fill="#fff" />
    <path
        d="M41 15h6.2v2.2H41v7h-2.8V7.7h10.2l-.3 2.2H41V15ZM55.8 5.3c.5 0 1 .2 1.3.5.3.3.5.7.5 1.2s-.2 1-.5 1.2c-.3.3-.8.5-1.3.5s-1-.2-1.2-.5C54.2 8 54 7.5 54 7s.1-.9.5-1.2c.3-.3.7-.5 1.2-.5Zm1.9 17h3.5v2h-10v-2H55v-8.8h-3.7v-2h6.4v10.8ZM64.2 11.6h2.4l.2 1.6a5.4 5.4 0 0 1 4-2c1.3 0 2.1.3 2.7 1 .6.7 1 1.6 1 2.8v9.3h-2.8v-8l-.1-1.8c0-.4-.3-.7-.5-.9-.3-.2-.7-.3-1.2-.3a3 3 0 0 0-1.6.5c-.6.4-1 .8-1.4 1.3v9.2h-2.7V11.6ZM89.1 12.2l-1.5.3h-2.1c.7.4 1.3.9 1.7 1.4.4.5.6 1.2.6 2A4 4 0 0 1 87 18c-.4.6-1 1.1-1.7 1.5a6 6 0 0 1-2.7.5c-.7 0-1.3 0-1.7-.2l-.4.5-.2.6c0 .6.6 1 1.6 1h2.2a6 6 0 0 1 2.4.4c.7.3 1.3.7 1.7 1.3.4.5.6 1.1.6 1.8 0 1.3-.6 2.2-1.7 3-1 .6-2.6 1-4.7 1-1.4 0-2.5-.2-3.4-.5-.8-.3-1.4-.7-1.7-1.3-.4-.5-.5-1.3-.5-2.2h2.4c0 .5 0 .9.2 1.2.2.3.6.5 1 .6l2 .2c1.3 0 2.3-.2 2.8-.5.6-.3.9-.7.9-1.3 0-.6-.3-1-.7-1.3-.5-.2-1-.4-1.8-.4h-2.2c-1.1 0-2-.2-2.6-.7-.6-.4-.9-1-.9-1.7 0-.5.2-.9.4-1.3s.6-.7 1-1c-.7-.4-1.3-.9-1.6-1.5-.4-.5-.5-1.2-.5-2 0-1 .2-1.7.6-2.4.5-.7 1.1-1.2 2-1.6.7-.4 1.6-.6 2.7-.6 1.3 0 2.4 0 3.2-.3.9-.2 1.7-.5 2.6-1l.7 2.3Zm-6.5.9c-.9 0-1.5.2-2 .7-.4.5-.6 1.1-.6 2 0 .7.2 1.4.7 1.9.4.4 1 .7 2 .7.7 0 1.3-.3 1.7-.7.5-.5.7-1.2.7-2 0-1.7-.9-2.6-2.5-2.6ZM93.4 18.8c.1 1.2.5 2.2 1.1 2.8.7.6 1.5.9 2.4.9.6 0 1.2 0 1.7-.3.6-.2 1.1-.4 1.7-.8l1.1 1.6c-.6.5-1.3 1-2 1.2-.9.3-1.7.4-2.6.4-2 0-3.5-.6-4.5-1.8a7 7 0 0 1-1.6-4.9 8 8 0 0 1 .7-3.4c.4-1 1-1.8 2-2.4.9-.6 1.9-.9 3-.9a5 5 0 0 1 4 1.7c1 1.2 1.6 2.7 1.6 4.7l-.1 1.2h-8.5Zm3-5.6c-.8 0-1.5.3-2 1-.6.6-.9 1.5-1 2.8h6c-.1-1.3-.4-2.2-.8-2.8-.5-.7-1.2-1-2.1-1ZM113.7 11.2a6 6 0 0 1 2 .4l-.5 4.7h-2v-2.6c-.8 0-1.6.3-2.3 1-.6.7-1.1 1.7-1.5 3v4.7h2.5v1.9h-7v-2h1.8v-8.8h-1.9v-2h4l.4 3c.5-1.1 1.1-2 1.8-2.4.8-.6 1.6-.9 2.7-.9ZM124.4 11.2c3 0 4.6 2.2 4.6 6.7 0 2-.4 3.6-1.3 4.9-.8 1.2-2 1.8-3.6 1.8a4 4 0 0 1-3.2-1.4v6l-2.7.3v-18h2.3l.2 1.7c.5-.7 1-1.1 1.6-1.5.7-.3 1.4-.5 2.1-.5Zm-.7 2c-.6 0-1.1.3-1.6.6s-.9.8-1.2 1.3v6c.6 1 1.4 1.4 2.5 1.4 1 0 1.6-.4 2-1.1.5-.8.8-2 .8-3.5 0-1.6-.2-2.8-.6-3.5a2 2 0 0 0-2-1.1ZM140.7 11.2a6 6 0 0 1 2 .4l-.5 4.7h-2v-2.6c-.9 0-1.6.3-2.3 1-.6.7-1.1 1.7-1.5 3v4.7h2.5v1.9h-7.1v-2h1.9v-8.8h-2v-2h4l.5 3c.5-1.1 1.1-2 1.8-2.4.7-.6 1.6-.9 2.7-.9ZM150.2 5.3c.6 0 1 .2 1.3.5.3.3.5.7.5 1.2s-.2 1-.5 1.2c-.3.3-.7.5-1.3.5-.5 0-1-.2-1.2-.5-.4-.3-.5-.7-.5-1.2s.1-.9.5-1.2c.3-.3.7-.5 1.2-.5Zm1.9 17h3.5v2h-10v-2h3.8v-8.8h-3.7v-2h6.4v10.8ZM158.6 11.6h2.4l.2 1.6a5.4 5.4 0 0 1 4-2c1.3 0 2.1.3 2.7 1 .6.7 1 1.6 1 2.8v9.3H166v-8l-.1-1.8c0-.4-.3-.7-.5-.9-.3-.2-.7-.3-1.2-.3a3 3 0 0 0-1.6.5l-1.4 1.3v9.2h-2.7V11.6ZM182.8 23.6l-1.7.7c-.7.2-1.3.3-2 .3-1.5 0-2.6-.4-3.4-1.1a4 4 0 0 1-1.2-3v-7h-2.8v-2h2.8V8.8l2.7-.3v3.2h4.3l-.3 2h-4v6.8c0 .7.2 1.2.5 1.5.4.4 1 .5 1.7.5.9 0 1.7-.2 2.4-.6l1 1.8Z"
        fill="#fff" />
</svg>