<svg viewBox="0 0 260 36" fill="none" xmlns="http://www.w3.org/2000/svg">
    <path
        d="M28.5851 4.49311C28.428 4.49314 28.2735 4.45351 28.1358 4.37791C24.8066 2.69299 21.1276 1.81504 17.3963 1.81504C13.6649 1.81504 9.98598 2.69299 6.65675 4.37791C6.43214 4.49272 6.17265 4.51914 5.92951 4.45195C5.68638 4.38477 5.47727 4.22887 5.34347 4.01503C5.28493 3.91016 5.2483 3.7945 5.2358 3.67506C5.22329 3.55561 5.23517 3.43487 5.27072 3.32015C5.30626 3.20544 5.36474 3.09913 5.44259 3.00768C5.52044 2.91624 5.61605 2.84155 5.72363 2.78815C9.33394 0.960022 13.323 0.00502195 17.3698 1.97527e-05C21.4166 -0.00498244 25.408 0.940152 29.0228 2.75935C29.1341 2.80861 29.2339 2.88069 29.3156 2.97092C29.3973 3.06115 29.4591 3.16753 29.4971 3.28317C29.5351 3.39881 29.5485 3.52114 29.5362 3.64225C29.524 3.76336 29.4864 3.88054 29.426 3.98623C29.3438 4.13806 29.2225 4.26513 29.0746 4.35426C28.9267 4.44339 28.7577 4.49133 28.5851 4.49311ZM0.983147 14.0374C0.77916 14.0377 0.57933 13.9798 0.407147 13.8704C0.304892 13.8056 0.217172 13.7204 0.149525 13.62C0.0818775 13.5197 0.0357731 13.4064 0.0141225 13.2873C-0.00752801 13.1682 -0.0042553 13.046 0.0237356 12.9282C0.0517265 12.8105 0.103828 12.6998 0.176748 12.6032C2.07921 10.0681 4.56479 8.02909 7.42283 6.65887C10.5354 5.20481 13.9291 4.45122 17.3646 4.45122C20.8001 4.45122 24.1937 5.20481 27.3063 6.65887C30.1534 8.01523 32.6341 10.0338 34.5409 12.5456C34.6137 12.643 34.6655 12.7545 34.6931 12.8729C34.7207 12.9913 34.7235 13.1142 34.7014 13.2337C34.6792 13.3533 34.6325 13.467 34.5642 13.5676C34.496 13.6683 34.4076 13.7537 34.3047 13.8186C34.0906 13.9561 33.8322 14.0071 33.5819 13.9611C33.3316 13.9151 33.1081 13.7756 32.9569 13.5709C31.2348 11.2951 28.9932 9.46427 26.4193 8.23135C23.5815 6.90665 20.4877 6.22014 17.3559 6.22014C14.2242 6.22014 11.1304 6.90665 8.29259 8.23135C5.70822 9.48944 3.46259 11.348 1.74347 13.6515C1.66227 13.7761 1.54991 13.8772 1.41754 13.9449C1.28518 14.0126 1.13741 14.0445 0.988908 14.0374H0.983147ZM13.0388 35.9773C12.9129 35.9785 12.7879 35.9547 12.6712 35.9073C12.5545 35.8598 12.4485 35.7896 12.3591 35.7008C10.806 34.3327 9.49703 32.7101 8.48843 30.9027C7.11485 28.5048 6.41435 25.7804 6.46091 23.0173C6.46091 17.6202 11.3569 13.2253 17.4049 13.2253C23.4529 13.2253 28.2913 17.6029 28.2913 23.0173C28.2913 23.2739 28.1894 23.52 28.0079 23.7015C27.8264 23.883 27.5803 23.985 27.3236 23.985C27.067 23.985 26.8208 23.883 26.6394 23.7015C26.4579 23.52 26.3559 23.2739 26.3559 23.0173C26.3559 18.6109 22.3239 15.0282 17.3819 15.0282C12.4398 15.0282 8.39051 18.6109 8.39051 23.0173C8.34568 25.4671 8.96468 27.8834 10.1819 30.0099C11.1193 31.6635 12.3263 33.1488 13.7531 34.4048C13.8404 34.4886 13.9098 34.5893 13.9572 34.7006C14.0047 34.812 14.0291 34.9318 14.0291 35.0528C14.0291 35.1738 14.0047 35.2936 13.9572 35.405C13.9098 35.5163 13.8404 35.6169 13.7531 35.7008C13.5535 35.8717 13.3015 35.9693 13.0388 35.9773ZM26.8628 32.6077C24.7556 32.6615 22.6782 32.1012 20.8839 30.9949C19.5043 30.1629 18.3581 28.9948 17.5522 27.5997C16.7464 26.2046 16.3073 24.6281 16.2759 23.0173C16.2759 22.7622 16.3773 22.5175 16.5577 22.3371C16.7381 22.1567 16.9827 22.0554 17.2379 22.0554C17.493 22.0554 17.7377 22.1567 17.918 22.3371C18.0984 22.5175 18.1998 22.7622 18.1998 23.0173C18.2263 24.3261 18.5854 25.6066 19.2435 26.7382C19.9015 27.8698 20.8367 28.8154 21.9611 29.4858C23.4343 30.3844 25.1381 30.8328 26.8628 30.776C27.5344 30.7654 28.2044 30.7057 28.8673 30.5974C28.9918 30.5696 29.1206 30.5667 29.2462 30.5891C29.3718 30.6115 29.4917 30.6586 29.5989 30.7278C29.7061 30.7969 29.7985 30.8867 29.8706 30.9919C29.9428 31.0971 29.9934 31.2156 30.0193 31.3405C30.0388 31.4622 30.0335 31.5866 30.0038 31.7062C29.974 31.8259 29.9204 31.9383 29.8462 32.0367C29.772 32.1351 29.6787 32.2175 29.5718 32.279C29.465 32.3405 29.3468 32.3798 29.2244 32.3946C28.4634 32.5273 27.6929 32.5985 26.9204 32.6077H26.8628ZM22.9921 36.3574C22.9061 36.3567 22.8207 36.3431 22.7387 36.3171C20.0486 35.7181 17.5706 34.4025 15.5675 32.5098C14.2506 31.3031 13.1981 29.8366 12.4764 28.2028C11.7546 26.569 11.3793 24.8034 11.3742 23.0173C11.3742 20.0739 14.0411 17.6662 17.3185 17.6662C20.5959 17.6662 23.2571 20.0739 23.2571 23.0173C23.2571 24.9526 25.0484 26.5424 27.2891 26.5424C29.5297 26.5424 31.3211 24.9526 31.3211 23.0173C31.3211 16.1571 25.0484 10.5987 17.3415 10.5987C11.8638 10.5987 6.84683 13.4787 4.58891 17.9254C3.80763 19.5077 3.41283 21.2528 3.43691 23.0173C3.43113 25.2683 3.87161 27.4982 4.73291 29.5779C4.77497 29.6911 4.79332 29.8118 4.78681 29.9324C4.7803 30.053 4.74906 30.171 4.69505 30.279C4.64104 30.387 4.5654 30.4828 4.47282 30.5604C4.38025 30.6379 4.27272 30.6956 4.15691 30.7299C3.92051 30.8245 3.65659 30.8232 3.4211 30.7264C3.18561 30.6296 2.99708 30.445 2.89547 30.2115C1.97903 27.9237 1.50787 25.4819 1.50731 23.0173C1.47267 20.9775 1.92069 18.9585 2.81483 17.1248C5.37803 12.056 11.0689 8.76703 17.2955 8.76703C26.0679 8.76703 33.1988 15.1434 33.1988 23C33.1988 25.9434 30.5435 28.3395 27.2603 28.3395C23.9771 28.3395 21.3275 25.9434 21.3275 23C21.3275 21.0531 19.5303 19.4749 17.2955 19.4749C15.0606 19.4749 13.2635 21.0531 13.2635 23C13.2681 24.5451 13.5953 26.0723 14.2242 27.4837C14.853 28.8951 15.7696 30.1597 16.9153 31.1965C18.6708 32.8688 20.8496 34.03 23.2167 34.5546C23.3349 34.5809 23.4466 34.6307 23.5451 34.7009C23.6437 34.7712 23.7272 34.8606 23.7905 34.9637C23.8539 35.0669 23.896 35.1817 23.9141 35.3014C23.9323 35.421 23.9263 35.5432 23.8964 35.6605C23.8424 35.8594 23.7248 36.0352 23.5615 36.161C23.3982 36.2869 23.1982 36.3558 22.9921 36.3574Z"
        fill="white" />
    <path
        d="M52.2146 26.1734V18.6854H58.8213V15.4598H52.2146V10.4659H59.7026L60.1461 7.28061H47.7161V26.1734H52.2146ZM69.5695 8.96254C69.9041 8.9762 70.2382 8.92371 70.5525 8.80807C70.8668 8.69242 71.1552 8.5159 71.4012 8.28861C71.8489 7.82476 72.099 7.20527 72.099 6.56061C72.099 5.91596 71.8489 5.29647 71.4012 4.83261C71.1607 4.59464 70.8743 4.40808 70.5594 4.2843C70.2445 4.16052 69.9077 4.10211 69.5695 4.11261C69.2322 4.09995 68.8958 4.15512 68.5801 4.27483C68.2645 4.39455 67.9761 4.57639 67.7321 4.80957C67.505 5.0364 67.3248 5.30576 67.2019 5.60227C67.0789 5.89877 67.0157 6.2166 67.0157 6.53757C67.0157 6.85855 67.0789 7.17638 67.2019 7.47288C67.3248 7.76939 67.505 8.03875 67.7321 8.26557C67.9761 8.49876 68.2645 8.6806 68.5801 8.80032C68.8958 8.92003 69.2322 8.9752 69.5695 8.96254ZM75.8709 26.1734V23.2301H72.1673V11.7101H63.8671V14.6534H67.8415V23.2301H63.7577V26.1734H75.8709ZM84.2518 26.1734V16.0589C84.6112 15.5842 85.0404 15.1667 85.5247 14.8205C85.8893 14.548 86.3311 14.3987 86.7861 14.3942C86.9987 14.3705 87.2137 14.4065 87.407 14.498C87.6003 14.5896 87.7642 14.7331 87.8805 14.9126C88.1247 15.5068 88.2272 16.1497 88.1801 16.7904V26.1734H92.4885V15.5347C92.5568 14.3783 92.1819 13.2393 91.4402 12.3494C91.0625 11.957 90.6045 11.6509 90.0974 11.4521C89.5904 11.2533 89.0464 11.1664 88.5026 11.1974C87.661 11.1828 86.8273 11.3622 86.0661 11.7216C85.2696 12.1286 84.558 12.6838 83.9695 13.3574L83.67 11.6928H79.9375V26.1734H84.2518ZM102.499 32.2214C105.034 32.2214 106.952 31.8067 108.259 30.96C108.864 30.5975 109.363 30.0828 109.707 29.4673C110.05 28.8518 110.227 28.157 110.218 27.4521C110.227 26.679 109.987 25.9236 109.532 25.2979C109.041 24.615 108.366 24.0856 107.586 23.7715C106.672 23.3978 105.692 23.2136 104.706 23.2301H102.309C101.871 23.2746 101.429 23.1927 101.036 22.9939C100.936 22.921 100.854 22.8247 100.799 22.7133C100.744 22.602 100.717 22.4788 100.72 22.3545C100.718 22.1877 100.764 22.0238 100.852 21.8822C100.922 21.7318 101.039 21.6084 101.186 21.5309C101.743 21.6471 102.311 21.7031 102.88 21.6979C103.983 21.7224 105.079 21.5103 106.094 21.0758C106.957 20.7085 107.702 20.1106 108.248 19.3478C108.753 18.6148 109.021 17.744 109.014 16.8537C109.045 16.0518 108.801 15.2632 108.323 14.6189C107.747 13.959 107.022 13.4456 106.209 13.1213C107.622 13.1824 109.035 12.9872 110.379 12.5453L109.394 9.38302C108.418 9.98256 107.374 10.464 106.284 10.8173C105.078 11.1557 103.825 11.2976 102.574 11.2377C101.425 11.2258 100.286 11.4513 99.2278 11.9001C98.2993 12.2815 97.4997 12.9212 96.9238 13.7433C96.3855 14.5637 96.1066 15.5271 96.1231 16.5081C96.0891 17.3467 96.2885 18.1782 96.6991 18.9101C97.1852 19.6534 97.8641 20.2506 98.6633 20.6381C98.1746 20.9404 97.7673 21.3576 97.4767 21.8534C97.1969 22.3172 97.0513 22.8497 97.0562 23.3913C97.0539 23.8005 97.1551 24.2037 97.3505 24.5632C97.5458 24.9228 97.829 25.227 98.1737 25.4477C98.9109 25.9891 100.034 26.2541 101.526 26.2541H103.83C104.383 26.2157 104.934 26.355 105.402 26.6515C105.57 26.7686 105.706 26.9259 105.798 27.109C105.889 27.2921 105.934 27.4952 105.927 27.6998C105.932 27.9503 105.868 28.1974 105.742 28.4139C105.616 28.6304 105.433 28.8079 105.212 28.9267C104.381 29.2838 103.476 29.434 102.574 29.3645C101.878 29.3857 101.182 29.3219 100.501 29.1744C100.118 29.1042 99.7715 28.9025 99.5215 28.6041C99.331 28.2826 99.2407 27.9116 99.2623 27.5385H95.4895C95.4387 28.4299 95.6382 29.3178 96.0655 30.1017C96.5836 30.8534 97.3441 31.4044 98.2198 31.6627C99.5879 32.0941 101.02 32.2889 102.453 32.2387L102.499 32.2214ZM102.724 18.9446C102.424 18.959 102.125 18.9082 101.846 18.7959C101.568 18.6835 101.317 18.5122 101.111 18.2937C100.728 17.7718 100.521 17.1412 100.521 16.4937C100.521 15.8462 100.728 15.2156 101.111 14.6937C101.32 14.4732 101.573 14.3003 101.854 14.1869C102.136 14.0736 102.438 14.0225 102.741 14.0371C104.216 14.0371 104.947 14.8262 104.947 16.416C104.999 17.0957 104.793 17.77 104.371 18.3053C104.163 18.5246 103.909 18.6955 103.627 18.806C103.346 18.9165 103.043 18.9638 102.741 18.9446H102.724ZM120.05 26.64C121.152 26.6507 122.248 26.4694 123.287 26.1043C124.219 25.7819 125.081 25.2855 125.827 24.6413L124.099 22.2969C123.008 23.0544 121.718 23.4732 120.39 23.5008C118.336 23.5008 117.17 22.4006 116.894 20.2003H126.277C126.337 19.6842 126.366 19.1648 126.363 18.6451C126.396 17.2679 126.111 15.9017 125.528 14.6534C125.015 13.5816 124.193 12.6886 123.166 12.0902C122.021 11.4898 120.744 11.1872 119.451 11.2104C118.159 11.2335 116.893 11.5817 115.77 12.2227C114.712 12.9002 113.87 13.8679 113.346 15.0105C112.779 16.2436 112.496 17.5878 112.516 18.9446C112.482 20.3373 112.776 21.7184 113.374 22.9766C113.931 24.1135 114.821 25.0538 115.926 25.6723C117.189 26.3532 118.61 26.689 120.044 26.6457L120.05 26.64ZM122.17 17.5795H116.802C116.81 16.6374 117.108 15.7207 117.654 14.9529C117.879 14.6737 118.165 14.4507 118.491 14.3017C118.817 14.1527 119.174 14.0818 119.532 14.0947C121.219 14.0947 122.083 15.2467 122.118 17.5507L122.17 17.5795ZM138.978 26.1734V23.2934H136.098V19.1462C136.387 18.1371 136.876 17.1967 137.538 16.3814C138.072 15.711 138.824 15.2485 139.663 15.0739V17.7465H142.393L143.182 11.6928C142.419 11.3952 141.605 11.2485 140.786 11.2608C139.727 11.2254 138.687 11.5458 137.831 12.1709C136.941 12.9075 136.256 13.862 135.844 14.9414L135.084 11.6928H129.9V14.5728H131.806V23.2819H129.9V26.1619L138.978 26.1734ZM146.379 32.2214L150.688 31.7606V25.1481C151.116 25.6393 151.649 26.0291 152.246 26.2891C152.844 26.5491 153.492 26.6729 154.144 26.6515C155.223 26.6721 156.276 26.3156 157.122 25.6435C158 24.9167 158.665 23.9651 159.045 22.8902C159.506 21.6088 159.731 20.2544 159.708 18.8928C159.708 16.439 159.282 14.544 158.429 13.2077C157.577 11.8713 156.234 11.2089 154.397 11.2089C153.663 11.2163 152.939 11.3917 152.283 11.7216C151.542 12.1007 150.896 12.6421 150.394 13.3056L150.204 11.6928H146.385L146.379 32.2214ZM152.813 23.472C152.407 23.4817 152.007 23.3737 151.661 23.1609C151.274 22.9077 150.944 22.5761 150.693 22.1875V16.0819C151.362 14.9299 152.151 14.3942 153.066 14.3942C153.405 14.3811 153.741 14.4681 154.031 14.6443C154.32 14.8204 154.552 15.078 154.697 15.3849C155.065 16.0473 155.273 17.2397 155.273 18.9446C155.273 20.5344 155.065 21.6749 154.656 22.4006C154.487 22.7337 154.227 23.0119 153.905 23.2026C153.584 23.3933 153.215 23.4887 152.842 23.4777L152.813 23.472ZM172.207 26.1734V23.2934H169.327V19.1462C169.619 18.1407 170.111 17.2043 170.773 16.3929C171.304 15.7192 172.057 15.2558 172.898 15.0854V17.7581H175.623L176.412 11.7043C175.649 11.4055 174.835 11.2587 174.016 11.2723C172.96 11.2359 171.923 11.5565 171.072 12.1824C170.18 12.9174 169.495 13.8723 169.085 14.9529L168.319 11.7043H163.135V14.5843H165.042V23.2819H163.135V26.1619L172.207 26.1734ZM185.852 8.96254C186.186 8.97607 186.519 8.92349 186.833 8.80784C187.146 8.69218 187.433 8.51573 187.678 8.28861C188.126 7.82476 188.376 7.20527 188.376 6.56061C188.376 5.91596 188.126 5.29647 187.678 4.83261C187.437 4.59894 187.151 4.41669 186.837 4.29689C186.523 4.17709 186.188 4.12224 185.852 4.13566C185.515 4.123 185.179 4.17816 184.863 4.29787C184.547 4.41759 184.259 4.59943 184.015 4.83261C183.784 5.05746 183.601 5.32618 183.476 5.62295C183.351 5.91973 183.286 6.23854 183.286 6.56061C183.286 6.88269 183.351 7.2015 183.476 7.49828C183.601 7.79505 183.784 8.06377 184.015 8.28861C184.259 8.52077 184.548 8.70155 184.864 8.82027C185.179 8.93899 185.515 8.99324 185.852 8.97982V8.96254ZM192.154 26.1734V23.2301H188.444V11.7101H180.162V14.6534H184.119V23.2301H180.029V26.1734H192.154ZM200.529 26.1734V16.0589C200.891 15.5869 201.32 15.1698 201.802 14.8205C202.167 14.5491 202.608 14.3999 203.063 14.3942C203.277 14.3694 203.493 14.4048 203.687 14.4964C203.882 14.588 204.047 14.7322 204.163 14.9126C204.408 15.5068 204.51 16.1497 204.463 16.7904V26.1734H208.766V15.5347C208.834 14.3783 208.459 13.2393 207.717 12.3494C207.341 11.9572 206.884 11.6511 206.378 11.4523C205.872 11.2534 205.328 11.1665 204.786 11.1974C203.944 11.1816 203.11 11.361 202.349 11.7216C201.567 12.1306 200.868 12.6814 200.287 13.3459L199.987 11.6813H196.226V26.1734H200.529ZM221.121 26.64C222.799 26.673 224.45 26.2167 225.873 25.3267L224.456 22.5734C223.681 23.0055 222.809 23.2316 221.922 23.2301C221.353 23.2807 220.787 23.114 220.338 22.7635C220.157 22.5553 220.021 22.3128 219.936 22.0504C219.852 21.7881 219.822 21.5114 219.848 21.2371V14.6707H224.076L224.508 11.6928H219.848V8.04093L215.539 8.55357V11.6928H212.51V14.6707H215.539V21.2371C215.493 21.961 215.593 22.6869 215.835 23.3709C216.077 24.055 216.454 24.683 216.945 25.2173C217.884 26.1677 219.249 26.64 221.121 26.64ZM234.306 26.5824C236.706 26.5824 238.574 25.9353 239.91 24.6413C241.252 23.3568 241.914 21.6057 241.914 19.3824V7.29214H231.662V10.5638H237.422V19.3881C237.462 19.9063 237.4 20.4275 237.239 20.9217C237.078 21.4159 236.821 21.8734 236.483 22.2681C236.166 22.5888 235.785 22.8399 235.366 23.0056C234.946 23.1712 234.497 23.2476 234.046 23.2301C233.391 23.241 232.739 23.1517 232.111 22.9651C231.461 22.7432 230.844 22.4372 230.274 22.055L228.592 24.8083C229.399 25.375 230.281 25.8267 231.212 26.1504C232.208 26.451 233.243 26.5967 234.282 26.5824H234.306ZM251.954 26.64C253.362 26.6728 254.762 26.416 256.067 25.8854C257.137 25.4485 258.06 24.7151 258.728 23.7715C259.347 22.8433 259.669 21.7481 259.65 20.6323C259.691 19.9324 259.587 19.2317 259.345 18.5736C259.103 17.9156 258.728 17.3144 258.244 16.8077C257.011 15.7306 255.541 14.9607 253.953 14.5613C253.149 14.3214 252.359 14.0388 251.586 13.7145C251.148 13.5511 250.754 13.2889 250.434 12.9485C250.2 12.6652 250.075 12.3076 250.082 11.9405C250.074 11.6638 250.14 11.39 250.272 11.1471C250.405 10.9042 250.6 10.7009 250.837 10.5581C251.464 10.2109 252.177 10.0473 252.893 10.0857C254.479 10.0849 256.015 10.6438 257.23 11.664L259.333 9.23902C257.605 7.60318 255.351 6.78525 252.57 6.78525C251.335 6.7681 250.109 6.99112 248.959 7.44189C247.947 7.83152 247.062 8.49331 246.402 9.35422C245.772 10.2048 245.442 11.2397 245.463 12.2976C245.439 12.9478 245.551 13.5959 245.791 14.2007C246.031 14.8055 246.394 15.3539 246.857 15.8112C247.786 16.7213 249.358 17.5104 251.574 18.1785C252.532 18.4226 253.441 18.8319 254.258 19.3881C254.497 19.5987 254.686 19.86 254.812 20.1529C254.937 20.4459 254.996 20.7631 254.983 21.0814C254.97 21.3998 254.887 21.7113 254.738 21.9933C254.59 22.2754 254.381 22.5208 254.126 22.7117C253.443 23.157 252.636 23.373 251.822 23.328C249.941 23.3542 248.119 22.6715 246.718 21.4157L244.455 23.927C246.309 25.7472 248.805 26.6573 251.943 26.6573L251.954 26.64Z"
        fill="white" />
</svg>