<svg width="138" height="24" viewBox="0 0 138 24" fill="none" xmlns="http://www.w3.org/2000/svg">
    <path fill-rule="evenodd" clip-rule="evenodd"
        d="M3.7968 1.84628C5.9588 0.752096 8.62096 0 11.4839 0C14.2005 0 16.9558 0.717702 19.1246 1.81536C19.5077 2.00922 19.661 2.47689 19.4672 2.85993C19.2733 3.24297 18.8056 3.39633 18.4226 3.20248C16.4623 2.21035 13.9466 1.55464 11.4839 1.55464C8.88923 1.55464 6.46602 2.2378 4.49882 3.2334C4.11578 3.42725 3.64811 3.27389 3.45425 2.89085C3.2604 2.50781 3.41376 2.04014 3.7968 1.84628ZM5.14863 4.21642C7.02499 3.34054 9.43514 2.87569 11.475 2.87569C13.518 2.87569 15.8681 3.34176 17.7419 4.21642C19.8282 5.19032 21.5761 6.60491 22.7749 8.26992C23.0257 8.61831 22.9466 9.10409 22.5982 9.35493C22.2498 9.60578 21.7641 9.5267 21.5132 9.1783C20.4857 7.75117 18.9559 6.49881 17.0843 5.62515C15.4383 4.8568 13.3162 4.43033 11.475 4.43033C9.63045 4.43033 7.4496 4.85802 5.80622 5.62515C4.01535 6.46112 2.4105 7.80617 1.40989 9.20687C1.16035 9.5562 0.67487 9.63709 0.325543 9.38754C-0.0237834 9.138 -0.104673 8.65252 0.144871 8.30319C1.30876 6.67391 3.12742 5.15992 5.14863 4.21642ZM11.3759 5.68957C15.3797 5.65107 18.8735 7.71283 20.6465 10.6749C21.5771 12.2296 21.901 13.7926 21.901 15.1248C21.901 17.3937 19.8295 18.8088 17.9697 18.8088C17.0382 18.8088 16.0486 18.5596 15.2643 17.9616C14.4561 17.3453 13.922 16.3985 13.8841 15.1484C13.8614 14.3998 13.519 13.904 13.0491 13.572C12.5533 13.2217 11.9118 13.0574 11.3834 13.0574C9.94589 13.0574 8.94491 14.115 8.94491 15.1248C8.94491 15.9668 9.20925 17.149 9.55789 17.9315C9.91125 18.7246 10.5451 19.6481 11.1629 20.2071L11.1703 20.2138L11.1775 20.2206C12.1888 21.1841 13.4533 22.0422 15.3077 22.4646C15.7263 22.5599 15.9883 22.9765 15.893 23.3951C15.7977 23.8137 15.3811 24.0758 14.9625 23.9804C12.7811 23.4836 11.2772 22.4611 10.1122 21.353C9.31179 20.626 8.56306 19.5187 8.13782 18.5642C7.70653 17.5962 7.39026 16.1993 7.39026 15.1248C7.39026 13.1044 9.24766 11.5027 11.3834 11.5027C12.1846 11.5027 13.151 11.7404 13.9462 12.3023C14.7673 12.8824 15.3989 13.8091 15.438 15.1013C15.462 15.892 15.7782 16.3985 16.2069 16.7253C16.6594 17.0704 17.2932 17.2541 17.9697 17.2541C19.204 17.2541 20.3463 16.3192 20.3463 15.1248C20.3463 14.0452 20.0848 12.7634 19.3126 11.4734C17.8308 8.99798 14.8581 7.2108 11.3909 7.24414C8.38228 7.27307 5.18301 8.69395 3.54798 11.4408C2.85105 12.6117 2.50144 13.9497 2.54383 15.3487C2.60218 17.274 2.88286 18.0821 3.39075 19.4265C3.54246 19.8281 3.33989 20.2766 2.93829 20.4284C2.53669 20.5801 2.08814 20.3775 1.93642 19.9759C1.39299 18.5374 1.05524 17.552 0.9899 15.3957C0.938593 13.7026 1.36296 12.0722 2.21209 10.6456C4.18455 7.33189 7.95289 5.72248 11.3759 5.68957ZM4.20537 14.9939C4.21003 11.41 7.65893 8.59614 11.3834 8.59614C15.0873 8.59614 18.6851 11.1466 18.6851 15.2176C18.6851 15.6469 18.3371 15.9949 17.9078 15.9949C17.4785 15.9949 17.1305 15.6469 17.1305 15.2176C17.1305 12.2385 14.4822 10.1508 11.3834 10.1508C8.3077 10.1508 5.76001 12.466 5.76001 15.0011V15.0083L5.75988 15.0154C5.73399 16.4301 5.95922 17.78 6.69561 19.2245C7.44697 20.6983 8.35022 21.6994 9.17594 22.4263C9.49818 22.71 9.52945 23.2012 9.24579 23.5234C8.96213 23.8456 8.47095 23.8769 8.14872 23.5932C7.20486 22.7624 6.16713 21.6107 5.31057 19.9306C4.44029 18.2235 4.17653 16.6152 4.20537 14.9939ZM11.3834 14.3475C11.8127 14.3475 12.1607 14.6955 12.1607 15.1248C12.1607 15.9643 12.391 16.7597 12.8295 17.519C13.2515 18.2495 13.8006 18.7765 14.554 19.2332C15.6504 19.8313 16.403 20.0356 17.5478 20.0064L17.5532 20.0062L17.5585 20.0062C18.0106 20.0008 18.541 19.9635 18.9595 19.8905C19.3824 19.8167 19.785 20.0998 19.8588 20.5227C19.9325 20.9456 19.6495 21.3482 19.2266 21.422C18.703 21.5133 18.0872 21.5544 17.5822 21.5606C16.1214 21.5972 15.0992 21.3036 13.7932 20.5891L13.7789 20.5812L13.7649 20.5728C12.8142 19.9995 12.0582 19.2918 11.4833 18.2966C10.9224 17.3255 10.6061 16.2643 10.6061 15.1248C10.6061 14.6955 10.9541 14.3475 11.3834 14.3475Z"
        fill="#F04405" />
    <path d="M30.7303 11.3038H35.4297V12.8944H30.7303V18.2084H28.6336V5.73677H36.2973L36.0804 7.32735H30.7303V11.3038Z"
        fill="#0D102B" />
    <path
        d="M41.8753 3.98352C42.2609 3.98352 42.5742 4.11004 42.8152 4.36309C43.0683 4.60409 43.1948 4.90533 43.1948 5.26683C43.1948 5.62832 43.0683 5.92957 42.8152 6.17057C42.5742 6.41156 42.2609 6.53206 41.8753 6.53206C41.4777 6.53206 41.1584 6.41156 40.9174 6.17057C40.6764 5.92957 40.5559 5.62832 40.5559 5.26683C40.5559 4.89328 40.6764 4.58601 40.9174 4.34502C41.1704 4.10402 41.4898 3.98352 41.8753 3.98352ZM43.2671 16.7262H45.8699V18.2084H38.405V16.7262H41.2427V10.147H38.4954V8.66489H43.2671V16.7262Z"
        fill="#0D102B" />
    <path
        d="M48.1764 8.66489H49.9296L50.0742 9.91204C50.4719 9.43005 50.9358 9.06253 51.466 8.80948C52.0082 8.54439 52.5746 8.41184 53.165 8.41184C54.0447 8.41184 54.7074 8.65886 55.1532 9.1529C55.5991 9.64695 55.822 10.3458 55.822 11.2496V18.2084H53.7976V12.2618C53.7976 11.6713 53.7615 11.2195 53.6892 10.9062C53.6289 10.5808 53.5024 10.3458 53.3096 10.2012C53.1168 10.0446 52.8276 9.96627 52.442 9.96627C52.0082 9.96627 51.5925 10.0988 51.1949 10.3639C50.8093 10.629 50.4779 10.9604 50.2008 11.358V18.2084H48.1764V8.66489Z"
        fill="#0D102B" />
    <path
        d="M66.8586 9.13483C66.5092 9.25533 66.1115 9.33967 65.6657 9.38787C65.2319 9.42402 64.7077 9.4421 64.0932 9.4421C64.6716 9.7072 65.1054 10.0386 65.3946 10.4362C65.6838 10.8339 65.8284 11.3158 65.8284 11.8822C65.8284 12.5088 65.6717 13.0631 65.3584 13.5451C65.0572 14.0271 64.6234 14.4066 64.057 14.6838C63.4907 14.9609 62.8219 15.0995 62.0507 15.0995C61.5085 15.0995 61.0747 15.0453 60.7494 14.9368C60.6168 15.0332 60.5144 15.1537 60.4421 15.2983C60.3698 15.4309 60.3336 15.5755 60.3336 15.7321C60.3336 16.2141 60.7253 16.4551 61.5085 16.4551H63.1714C63.8462 16.4551 64.4487 16.5696 64.9788 16.7985C65.509 17.0275 65.9187 17.3468 66.2079 17.7565C66.5092 18.1541 66.6598 18.606 66.6598 19.1121C66.6598 20.064 66.2501 20.7991 65.4307 21.3172C64.6113 21.8474 63.4304 22.1125 61.8881 22.1125C60.8156 22.1125 59.9661 21.998 59.3395 21.7691C58.725 21.5522 58.2852 21.2268 58.0201 20.793C57.767 20.3713 57.6405 19.823 57.6405 19.1482H59.448C59.448 19.5097 59.5142 19.7929 59.6468 19.9978C59.7914 20.2147 60.0384 20.3713 60.3879 20.4677C60.7373 20.5762 61.2434 20.6304 61.9061 20.6304C62.8701 20.6304 63.563 20.5099 63.9847 20.2689C64.4065 20.0399 64.6174 19.6965 64.6174 19.2386C64.6174 18.853 64.4487 18.5518 64.1113 18.3349C63.7859 18.13 63.3401 18.0276 62.7737 18.0276H61.1289C60.2734 18.0276 59.6227 17.8529 59.1768 17.5034C58.7431 17.154 58.5262 16.7142 58.5262 16.184C58.5262 15.8586 58.6165 15.5453 58.7973 15.2441C58.978 14.9429 59.2371 14.6838 59.5745 14.4669C59.0082 14.1656 58.5924 13.8041 58.3273 13.3824C58.0743 12.9486 57.9478 12.4184 57.9478 11.7918C57.9478 11.1291 58.1165 10.5447 58.4539 10.0386C58.7913 9.52042 59.2612 9.12278 59.8637 8.84563C60.4662 8.55644 61.153 8.41184 61.9242 8.41184C62.9605 8.42389 63.7799 8.35159 64.3824 8.19494C64.9969 8.03829 65.6476 7.79127 66.3345 7.45388L66.8586 9.13483ZM61.9423 9.82167C61.3036 9.82167 60.8217 10.0024 60.4963 10.3639C60.171 10.7134 60.0083 11.1893 60.0083 11.7918C60.0083 12.4064 60.171 12.8944 60.4963 13.2559C60.8337 13.6053 61.3217 13.78 61.9604 13.78C62.5629 13.78 63.0207 13.6053 63.334 13.2559C63.6473 12.9064 63.804 12.4064 63.804 11.7557C63.804 10.4663 63.1834 9.82167 61.9423 9.82167Z"
        fill="#0D102B" />
    <path
        d="M70.0869 14.0873C70.1472 15.0152 70.4123 15.714 70.8822 16.184C71.3642 16.6419 71.9667 16.8708 72.6897 16.8708C73.1356 16.8708 73.5573 16.8046 73.9549 16.672C74.3646 16.5274 74.7804 16.3165 75.2021 16.0394L76.0697 17.2685C75.6238 17.642 75.0997 17.9312 74.4972 18.1361C73.8947 18.3409 73.2621 18.4433 72.5993 18.4433C71.1413 18.4433 70.0086 17.9915 69.2013 17.0877C68.3939 16.1719 67.9903 14.9549 67.9903 13.4366C67.9903 12.4847 68.165 11.6291 68.5144 10.87C68.8639 10.0988 69.37 9.49632 70.0327 9.06253C70.6955 8.62873 71.4667 8.41184 72.3463 8.41184C73.6115 8.41184 74.6117 8.83961 75.3467 9.69515C76.0938 10.5386 76.4673 11.7014 76.4673 13.1836C76.4673 13.5451 76.4493 13.8463 76.4131 14.0873H70.0869ZM72.3644 9.91204C71.7137 9.91204 71.1835 10.147 70.7738 10.617C70.3641 11.0869 70.1291 11.7858 70.0689 12.7136H74.4972C74.4731 11.8099 74.2803 11.117 73.9188 10.635C73.5573 10.153 73.0392 9.91204 72.3644 9.91204Z"
        fill="#0D102B" />
    <path
        d="M85.2808 8.42991C85.7748 8.42991 86.2568 8.50824 86.7267 8.66489L86.3833 12.1895H84.9373V10.2374C84.2746 10.2494 83.6962 10.5145 83.2022 11.0327C82.7202 11.5508 82.3346 12.2798 82.0454 13.2197V16.7624H83.9613V18.2084H78.6112V16.7624H80.021V10.1109H78.6112V8.66489H81.5574L81.9189 10.87C82.2924 10.0506 82.7443 9.4421 83.2745 9.04445C83.8167 8.63476 84.4855 8.42991 85.2808 8.42991Z"
        fill="#0D102B" />
    <path
        d="M93.2989 8.41184C95.6125 8.41184 96.7692 10.0807 96.7692 13.4185C96.7692 14.9248 96.4499 16.1418 95.8113 17.0696C95.1726 17.9854 94.2629 18.4433 93.082 18.4433C92.0819 18.4433 91.2745 18.0939 90.66 17.395V21.8775L88.6356 22.1125V8.66489H90.3889L90.5154 9.89397C90.8769 9.41197 91.2926 9.04445 91.7625 8.79141C92.2445 8.53836 92.7567 8.41184 93.2989 8.41184ZM92.7386 9.96627C92.3168 9.96627 91.9312 10.0928 91.5818 10.3458C91.2323 10.5989 90.9251 10.9303 90.66 11.3399V15.8044C91.1299 16.5154 91.7565 16.8708 92.5398 16.8708C93.2386 16.8708 93.7628 16.5937 94.1123 16.0394C94.4617 15.4851 94.6364 14.6175 94.6364 13.4366C94.6364 12.2196 94.4798 11.3399 94.1665 10.7977C93.8532 10.2434 93.3772 9.96627 92.7386 9.96627Z"
        fill="#0D102B" />
    <path
        d="M105.51 8.42991C106.004 8.42991 106.486 8.50824 106.956 8.66489L106.613 12.1895H105.167V10.2374C104.504 10.2494 103.926 10.5145 103.432 11.0327C102.95 11.5508 102.564 12.2798 102.275 13.2197V16.7624H104.191V18.2084H98.8408V16.7624H100.251V10.1109H98.8408V8.66489H101.787L102.148 10.87C102.522 10.0506 102.974 9.4421 103.504 9.04445C104.046 8.63476 104.715 8.42991 105.51 8.42991Z"
        fill="#0D102B" />
    <path
        d="M112.679 3.98352C113.065 3.98352 113.378 4.11004 113.619 4.36309C113.872 4.60409 113.998 4.90533 113.998 5.26683C113.998 5.62832 113.872 5.92957 113.619 6.17057C113.378 6.41156 113.065 6.53206 112.679 6.53206C112.281 6.53206 111.962 6.41156 111.721 6.17057C111.48 5.92957 111.36 5.62832 111.36 5.26683C111.36 4.89328 111.48 4.58601 111.721 4.34502C111.974 4.10402 112.293 3.98352 112.679 3.98352ZM114.071 16.7262H116.674V18.2084H109.209V16.7262H112.046V10.147H109.299V8.66489H114.071V16.7262Z"
        fill="#0D102B" />
    <path
        d="M118.98 8.66489H120.733L120.878 9.91204C121.276 9.43005 121.739 9.06253 122.27 8.80948C122.812 8.54439 123.378 8.41184 123.969 8.41184C124.848 8.41184 125.511 8.65886 125.957 9.1529C126.403 9.64695 126.626 10.3458 126.626 11.2496V18.2084H124.601V12.2618C124.601 11.6713 124.565 11.2195 124.493 10.9062C124.433 10.5808 124.306 10.3458 124.113 10.2012C123.92 10.0446 123.631 9.96627 123.246 9.96627C122.812 9.96627 122.396 10.0988 121.999 10.3639C121.613 10.629 121.282 10.9604 121.004 11.358V18.2084H118.98V8.66489Z"
        fill="#0D102B" />
    <path
        d="M137.066 17.7023C136.704 17.9312 136.283 18.112 135.801 18.2445C135.319 18.3771 134.812 18.4433 134.282 18.4433C133.198 18.4433 132.36 18.1662 131.77 17.6119C131.179 17.0455 130.884 16.2804 130.884 15.3164V10.147H128.769V8.66489H130.884V6.53206L132.909 6.29709V8.66489H136.144L135.909 10.147H132.909V15.2983C132.909 15.8165 133.041 16.2021 133.306 16.4551C133.571 16.6961 133.993 16.8166 134.571 16.8166C135.21 16.8166 135.801 16.666 136.343 16.3647L137.066 17.7023Z"
        fill="#0D102B" />
</svg>