<svg fill="none" xmlns="http://www.w3.org/2000/svg" viewBox="0 0 70 47">
    <path
        d="M27 10.7h-5.3c.4 1 1.4 1.7 2.6 1.7 1.2 0 2.3-.7 2.6-1.7ZM13 14.2V0H9.6v5.7H4.1V0H.8v14.2H4V8.9h5.5v5.3H13ZM46.4 14.2h3.2V0h-2.4l-4.6 7.6L38.1 0h-2.4v14.2h3.2V7l2.9 5h1.7l3-5v7.2ZM54.8 5.7V3h7V0H51.5v14.2h10.5v-3h-7V8.6h6v-3h-6Z"
        fill="#0D102B" />
    <path
        d="M34 9.3C34 4.2 29.5 0 24.2 0a9.4 9.4 0 0 0-9.6 9.3 9 9 0 0 0 1.5 4.9h4.6a6 6 0 0 1-2-6.6 6 6 0 0 1 2.1-3 5.8 5.8 0 0 1 9 3 6 6 0 0 1-2 6.6h4.6a9 9 0 0 0 1.4-5ZM23.5 30.9l-2.4-4h-2.5v4h-3.2V17h5.7c3.2 0 5.3 1.9 5.3 4.9 0 1.8-.8 3.2-2.2 4l3 4.9h-3.7Zm-4.9-7H21c1.2 0 2.2-.8 2.2-2 0-1-1-1.8-2.2-1.8h-2.4v3.7ZM32.3 20v2.5h5.9v3h-6v2.3H39v3H29V17h10v3h-6.7ZM52.5 24c0 4-2.8 6.9-6.7 6.9h-5V17h5c3.9 0 6.7 2.8 6.7 6.9Zm-3.1 0c0-2.2-1.6-3.8-3.6-3.8h-2v7.6h2c2 0 3.6-1.7 3.6-3.8Zm8.2-6.9V31h-3.4V17h3.4Zm11.8 3h-3.6V31h-3V20.2h-3.5v-3h10v3ZM10.3 26h3.5c-.7 3-3.2 5-6.5 5-4 0-7-3-7-6.9 0-4 3-6.9 7-6.9 3.3 0 5.8 2 6.5 5h-3.5c-.5-1.2-1.6-1.9-3-1.9-2.2 0-3.7 1.6-3.7 3.8 0 2.2 1.5 3.8 3.7 3.8 1.4 0 2.5-.7 3-2Z"
        fill="#0D102B" />
    <path fill-rule="evenodd" clip-rule="evenodd"
        d="M2.7 34.2c-.2.1-.2.2-.2.5v.3l-.1.3-.1.3v.3l-.2.3v.4c-.1 0-.2.1-.2.3v.3l-.1.4v.4l-.1.4-.1.3v.3l-.2.2c0 .2-.3.6-.5.6l-.2.4v.3l.1.5v.5l-.1.2-.1.2v.3l-.1.3-.1.3v.3c-.1 0-.2.4-.2 1l.1 1.1v.1c0 .3.6.6 1 .6h.4v-.2l-.1-.3V43.8l.1-.3.1-.3V43l.1-.3c0-.3 0-.4.2-.5l.1-.2c0-.2.1-.2.2 0l.3.2.2.1h.2v.1l.4.3.3.2.2.1.2.2s.2 0 .3.2l.3.2.5.5.6.5.3.3.6.6c0 .1.8.1.8 0H8.5A3.7 3.7 0 0 0 9.9 44l.1-.2v-.2l.1.3.1.2v.2l.2.3.2.2c0 .5 1.4.8 1.7.4.2-.2.3-.2.5.1.4.3.6.3 1-.2l.5-.5.1-.3.1-.2.2-.3.3-.3s0-.2.2-.3l.2-.3.5-.6V43.2c0 .2-.1.3-.2.3v.6c0 .7.2 1.1.6 1.1v.1h.8c.2 0 .8-.7.8-.8l.4-.4.3-.5.1-.1v-.1l.2-.2.2-.1v-.2l.1.2v.3c.1 0 .2.1.2.3V44.3l.2.2v.2l.2.1h.1l.2.1.1.1h.3l.3.2h.4l.1-.1.2-.1.3.2c.4.5 1.2.4 1.2-.1 0 0 0-.2.2-.2l.1-.2c0-.1 0-.2.2-.3l.1-.2.3-.3h.1c0-.2.2-.4.3-.4v.4l.1.2.1.1v.2l.2.1v.2l.1.1v.1c0 .2.3.3.5.3l.1.1c0 .2 1.1 0 1.2 0l.2-.2c.2 0 .5-.3.5-.5l.1-.2v-.2c.1 0 .2-.1.2-.3v-.3l.1-.1-.2-.1h-.2l-.2.1H27l-.1.1-.2.1h-.2l-.2.2h-.6v-.8l.2-.3v-.3l.1-.2v-.1l.1-.2.1-.2v-.2l.2-.1v-.7l-.1-.2-.2-.1-.1-.1h-.2l-.2-.1c0-.2-.4-.1-.5 0v.2l-.2.1v.2l-.1.1v.2h-.1l-.1.2s0 .2-.2.3l-.1.2-.2.3-.2.2-.4.6-.5.5s-.3.4-.4.3l.1-.4.1-.2v-.2l.2-.1v-.2l.1-.1v-.2l.1-.1.1-.2v-.2c.1 0 .2 0 .2-.2v-.1l.1-.2v-.1l.1-.1.1-.2v-.1l.2-.2v-.4l.2-.2-.1-.2v-.2c0-.3-.9-.4-1.2-.1l-.2.3v.2l-.2.3-.2.2v.1l-.1.3c0 .2 0 .3-.2.4l-.1.4-.1.4-.2.3v.2l-.1.3-.1.3v.4c0 .4-.2.6-.4.6s-.4-.1-.4-.3v-.1l-.1-.5v-.5l.1-.8v-.8l-.1-.1c0-.2-.3-.5-.5-.5l-.4-.1h-.4l-.3.6-.4.4-.4.4-.3.4c0 .2-.4.5-.4.4l.1-.5v-.4l.2-.6c0-.7-.3-1.2-.6-1.2h-.2l-.2-.1h-.2l-.2-.1c-.2 0-.3.1-.3.2l-.4.5-.4.4-.1.2-.1.2-.3.3V41.3l.1-.1V41c.1 0 .2-.1.2-.3v-.2l.1-.4v-.4l.1-.2v-.1l-.1-.1c0-.2-.5-.7-.6-.7-.2 0-.5.4-.5.5l-.1.1v.2l-.1.3-.1.2v.3l-.2.2v.3l-.1.3v.2l-.1.3-.1.3v.2l-.1.1-.1.2v.2c-.1 0-.2.1-.2.3v.2l-.1.3v.2l-.1.2c0 .2-.2.4-.4.4l-.2.2h-.2l-.2.1h-.2v-1.4c.1 0 .2-.2.2-.5V42l.1-.4v-.4l.1-.2.1-.3v-.3l.2-.2V40L12 40c0-.3-.2-.4-.5-.4l-.2-.1h-.5l-.2.2c0-.1-.5-.2-.5 0l-.4.3-.4.3-.6.6-.2.3-.2.3-.1.2-.2.2v.1l-.1.2v.1l-.2.1v.2l-.1.1v.2l-.1.1-.1.2v.1l-.2.2v.2l-.1.2v.1c0 .2 0 .2-.7-.4l-.6-.6s-.2 0-.3-.2l-.3-.2H5l-.2-.2-.2-.1-.2-.1-.3-.3-.3-.2s-.2 0-.3-.2l-.3-.2L3 41l-.3-.2-.2-.2.2-.2.4-.2.2-.1.3-.2.2-.1.2-.1.3-.2.2-.1.2-.1h.1l.2-.1v-.1h.2l.2-.2h.1l.2-.1h.1l.1-.2h.2l.1-.1.2-.1.3-.2.2-.1.2-.1h.1l.2-.1.2-.1h.2l.1-.2h.2l.1-.1c.3 0 .2-.6-.1-1-.2-.2-1.3-.3-1.3 0H6.6l-.2.1c-.1 0-.2 0-.3.2L6 37h-.1l-.2.2-.2.1-.3.2H4.8l-.2.2h-.1l-.2.1c-.2 0-.3.1-.3.2l-.2.2-.2.1c-.2.2-.2.2-.2 0v-.6l.2-.2V37l.1-.4v-.3l.1-.4.1-.7v-.7l-.1-.2c0-.2 0-.3-.2-.3h-.1c0-.2-.7-.1-.8 0Zm48.4.4-.1.1c-.1 0-.2 0-.3.2l-.2.3-.1.2-.2.3-.1.2-.1.1v.2l-.1.1-.1.1v.2c-.1 0-.2 0-.2.2v.2l-.1.3v.3l-.1.3-.1.3v.2l-.2.2v.6c-.1 0-.2 0-.2.2v.2l-.1.3v.3l-.1.3-.1.4v.2l-.2.2v.3l.1.2h.2l.2.1c.3 0 .3 0 .3-.2s0-.2.2-.2.2 0 .2-.2l.1-.1V41l.2-.2v-.2l.1-.1v-.2l.1-.1.1-.2V40l.2-.2v-.4l.2-.1v-.3l.1-.3v-.2l.1-.2.1-.2c0-.1 0-.3.2-.3l.1-.3.1-.2.1-.2v-.2l.2-.2v-.2l.1-.2V36l.1-.1.1-.5c0-.5-.2-.8-.4-.8l-.2-.1h-.2Zm-18.7 0-.2.1h-.3v.2h-.2l-.1.1c-.4 0-.5.4-.2.7.1 0 .1.1 0 .1v.4c-.1 0-.2.1-.2.3v.4l-.1.3v.4l-.1.4-.1.3v.4c0 .2-.1.3-.2.3v.3l-.1.3v.4l-.1.3-.1.4v.4l-.1.3-.1.4v.4l-.2.4c-.2 0 0 1.4.2 1.6l.2.3v.2l.1.1.1.1v.1c0 .2.5.7.7.7l.6.1h.5l.1-.1.2-.2.2-.1.5-.5.2-.2.2-.4V44l.1-.3.1-.3V42l-.1-.2-.1-.2c0-.2-.3-.5-.4-.5l-.5-.5-.4-.4h-.1l.7-.7.1-.1h.1l.5-.4.4-.4.6-.6.4-.4.3-.3v-.1l.1-.2.1-.1v-.2l.1-.3c.2 0 .1-.8 0-.9l-.2-.2c0-.1-.2-.3-.4-.3h-.1l-.2-.1-.3-.1h-.2l-.2-.2h-1.8Zm2.1 1.2-.4.4-.5.5-1.2 1.3V36.7l.1-.3c0-.3 0-.4.2-.4h.1l.3-.1.3-.1h1.1Zm2.5 1h-.2l-.3.1-.2.1-.1.3v.3l.1.2.1.2v.1c0 .3.4.5.9.5h.5V38l-.1-.5v-.2l-.3-.4c-.1-.2-.4-.2-.4-.1Zm2.9 1.5v.2c-.1 0-.2 0-.2.2v.2l-.1 1v.9l-.1 1.3a5 5 0 0 1-.1 1.3v.3l-.2.4v.1l-.1.2v.1l-.2.2-.2-.2v-.1l-.1-.2-.1-.1c-.1 0-.2 0-.2-.2v-.1l-.1-.4v-.5l-.2-.1v-.2c-.2 0-.4.2-.4.4l-.1.2-.6.6h-.1l-.2.1-.1-.2v-.2l.1-.2V43l.2-.3v-.3l.1-.2V42l.1-.4.1-.4c.2 0 0-.9-.2-1.2-.3-.3-1.1-.3-1.1 0h-.1v.3l-.1.2-.1.2v.3c-.1 0-.2 0-.2.2v.6c0 .2-.1.3-.2.3v.2l-.1.2v1.6l.1.2.1.1v.2h.1c0 .2.5.7.7.7h.2l.2.1h.2l.2-.1c.2 0 .5-.3.5-.5l.2-.1h.1c0-.2.4.2.4.3l.8.7.2.1.2.1h.7c.2 0 .4-.2.4-.4l.1-.2.1-.2V45l.2-.2v-.5l.1-.4v-1.5l.1-1.5h.1c0 .1.6.1.8 0 0-.1.1-1.6 0-1.6V39c0-.2-.1-.3-.2-.3l-.2-.1-.3-.1v-.1h-.2l-.2-.2h-.4l-.4.1Zm5.4 1.2-.2.1H45c0-.2-.4-.1-.5 0l-.2.2-.4.2c-.1.2-.3.3-.4.3v.1l-.4.4-.3.4v.2c-.2 0-.2.2-.2.2l-.1.2v.1l-.1.2-.1.1v.1l-.2.2v.1l-.1.2-.1.2-.2.4v.2l-.1.3-.1.3v.5c0 .2.5.7.7.7l.4.1h.2l.2-.1c.2 0 1-.7 1-1l.1-.1.2-.2.1-.2.1-.3.1-.1v.4c0 .3.1.5.2.5l.2.4.3.3.1.1.1.1h1.3l.2-.2.3-.2.4-.5c.3-.3.4-.6.1-.6h-.1l-.2.1-.3.1h-.1l-.1.1-.2.1h-.1l-.2.2h-.3l-.2.1h-.2v-1.1c.1 0 .2-.2.2-.5v-.4l.1-.4v-.5l.1-.3.1-.2v-.3c0-.2.1-.3.2-.3V40c0-.4-.2-.6-.6-.6l-.2-.1h-.4Zm-13 1.7.4.5.1.7v.7l-.1.2-.2.3-.1.2-.1.1-.4.3c-.4.4-.4.4-.4-.1v-.5l-.1-.2c0-.1 0-.2-.2-.2h-.1V43l.1-.4.1-.4v-.2c0-.2.1-.3.2-.3v-.2l.1-.3v-.2c0-.4.2-.4.7 0Zm16 3H48l-.2.1v.8l.2.2c.3.3 1 .2 1-.1v-.1l.1-.4v-.3l-.1-.2-.4-.1h-.5Z"
        fill="#0D102B" />
</svg>