<svg viewBox="0 0 140 15" fill="none" xmlns="http://www.w3.org/2000/svg">
    <path
        d="M21.4015 11.2434H26.6113C26.2466 12.2784 25.1948 12.98 24.0064 12.98C22.818 12.98 21.7662 12.2784 21.4015 11.2434ZM92.2379 14.7166L89.7216 10.6906H87.2105V14.7166H83.9185V0.823914H89.7054C92.9974 0.823914 95.1988 2.70406 95.1988 5.70661C95.1988 7.52424 94.3606 8.98991 92.9592 9.84663L96.0746 14.7108L92.2379 14.7166ZM87.2105 7.58502H89.6475C90.9129 7.58502 91.9051 6.84986 91.9051 5.70661C91.9051 4.56278 90.9129 3.86757 89.6475 3.86757H87.2105V7.58559V7.58502ZM101.236 3.82878V6.36246H107.357V9.30481H101.236V11.7175H108.231V14.7166H97.8112V0.823914H108.231V3.82299L101.236 3.82878ZM122.123 7.72973C122.123 11.8553 119.216 14.7166 115.153 14.7166H109.967V0.823914H115.153C119.219 0.823914 122.123 3.66207 122.123 7.72973ZM118.874 7.72973C118.874 5.58794 117.259 3.92893 115.157 3.92893H113.179V11.6116H115.157C117.259 11.6116 118.873 9.93693 118.873 7.72973H118.874ZM127.333 0.823914V14.7166H123.86V0.823914H127.333ZM139.489 3.90925H135.848V14.7166H132.706V3.90925H129.07V0.823914H139.489V3.90925ZM78.6063 9.64924L82.182 9.64576C81.4815 12.7022 78.9282 14.7172 75.4903 14.7172C71.3879 14.7172 68.2893 11.8072 68.2893 7.77315C68.2893 3.7379 71.3879 0.823914 75.4903 0.823914C78.9253 0.823914 81.4827 2.84125 82.182 5.89821H78.6023C78.079 4.66292 76.993 3.93414 75.4701 3.93414C73.249 3.93414 71.7138 5.55263 71.7138 7.77662C71.7138 9.99945 73.2536 11.6127 75.4741 11.6127C76.9965 11.6127 78.0836 10.8868 78.6063 9.64924ZM12.7186 0.823914V14.7166H9.39708V9.50568H3.9089V14.7166H0.5625V0.823914H3.90832V6.40182H9.39477V0.823914H12.7186ZM49.1869 14.7166H45.9863V7.75115L43.1285 12.5117V12.532H41.3526V12.5117L38.475 7.70947L38.4924 14.7166H35.2942V0.823914H37.6745L42.2347 8.24087L46.8037 0.823914H49.184L49.1869 14.7166ZM54.3468 3.82763V6.3613H60.4712V9.30481H54.3468V11.7175H61.343V14.7166H50.9234V0.823914H61.343V3.82299L54.3468 3.82763ZM24.0099 0.823914C29.2833 0.823914 33.5576 4.88636 33.5576 9.90336C33.5585 11.6153 33.0545 13.2896 32.1087 14.7166H27.501C28.4709 13.9874 29.1867 12.9714 29.5467 11.8126C29.9067 10.6537 29.8927 9.41098 29.5067 8.26055C29.1192 7.10935 28.3799 6.10892 27.3932 5.40048C26.4065 4.69203 25.2222 4.31134 24.0075 4.31213C22.7929 4.3113 21.6087 4.69191 20.622 5.40024C19.6354 6.10858 18.896 7.10888 18.5084 8.25997C18.1224 9.41065 18.1086 10.6537 18.469 11.8126C18.8293 12.9716 19.5455 13.9876 20.5159 14.7166H15.9081C14.9605 13.2902 14.455 11.6158 14.4552 9.90336C14.4552 4.88636 18.7312 0.823914 24.0099 0.823914Z"
        fill="#0D102B" />
</svg>