<svg viewBox="0 0 91 61" fill="none" xmlns="http://www.w3.org/2000/svg">
    <path
        d="M35.638 14.139H28.82c.477 1.377 1.853 2.311 3.408 2.311s2.932-.934 3.409-2.311ZM17.46 18.761V.271h-4.349v7.423H5.932V.27H1.555v18.491h4.378v-6.935h7.181v6.935h4.346ZM60.989 18.761h4.187L65.173.271h-3.115l-5.978 9.871L50.113.27H47v18.491h4.184l-.022-9.326 3.765 6.392v.027h2.323v-.027l3.74-6.337v9.271ZM71.928 7.64V4.269l9.154-.006V.27H67.449v18.491h13.633V14.77h-9.154v-3.212h8.013V7.641h-8.013Z"
        fill="#0D102B" />
    <path
        d="M44.727 12.355C44.727 5.677 39.133.27 32.233.27c-6.907 0-12.502 5.407-12.502 12.085 0 2.28.662 4.508 1.901 6.406h6.03a7.69 7.69 0 0 1-2.679-3.865 7.816 7.816 0 0 1 .052-4.728A7.71 7.71 0 0 1 27.8 6.36a7.5 7.5 0 0 1 8.86 0 7.71 7.71 0 0 1 2.765 3.807 7.816 7.816 0 0 1 .052 4.728 7.689 7.689 0 0 1-2.676 3.865h6.029a11.73 11.73 0 0 0 1.895-6.406ZM31.18 40.44 28 35.266h-3.172v5.174H20.67V22.587h7.31c4.159 0 6.94 2.416 6.94 6.275 0 2.335-1.06 4.219-2.83 5.32l3.936 6.25-4.847.008Zm-6.352-9.164h3.079c1.598 0 2.852-.945 2.852-2.414 0-1.47-1.254-2.364-2.852-2.364h-3.079v4.778Zm17.719-4.827v3.255h7.731v3.782h-7.731v3.1h8.835v3.854H38.22V22.587h13.162v3.854l-8.835.008Zm26.385 5.012c0 5.302-3.672 8.979-8.805 8.979h-6.551V22.587h6.55c5.137 0 8.806 3.647 8.806 8.875Zm-4.105 0c0-2.752-2.04-4.884-4.695-4.884h-2.499v9.873h2.499c2.656 0 4.695-2.152 4.695-4.989Zm10.687-8.874V40.44h-4.388V22.587h4.388Zm15.356 3.965h-4.6V40.44h-3.969V26.552h-4.594v-3.965H90.87v3.965Zm-76.911 7.376 4.517-.004c-.885 3.927-4.11 6.517-8.453 6.517-5.183 0-9.097-3.74-9.097-8.924 0-5.185 3.914-8.93 9.097-8.93 4.339 0 7.57 2.593 8.453 6.52h-4.522c-.661-1.587-2.033-2.523-3.957-2.523-2.806 0-4.745 2.08-4.745 4.938 0 2.856 1.945 4.93 4.75 4.93 1.923 0 3.297-.933 3.957-2.524Z"
        fill="#0D102B" />
    <path fill-rule="evenodd" clip-rule="evenodd"
        d="M4.027 44.76c-.152.165-.207.339-.207.65 0 .235-.042.426-.093.426-.05 0-.092.168-.092.375 0 .206-.041.375-.092.375-.05 0-.092.168-.092.375 0 .206-.041.374-.092.374-.05 0-.092.127-.092.282 0 .154-.042.28-.092.28-.051 0-.092.17-.092.376s-.042.375-.093.375c-.05 0-.092.25-.092.562 0 .312-.04.562-.092.562-.05 0-.092.211-.092.469s-.042.469-.092.469c-.05 0-.092.126-.092.28 0 .156-.042.282-.092.282-.051 0-.093.065-.093.145 0 .167-.402.605-.555.605-.2 0-.366.272-.366.602 0 .185.041.335.092.335.053 0 .092.281.092.656s-.04.657-.092.657c-.05 0-.092.126-.092.28 0 .155-.042.282-.092.282-.05 0-.092.169-.092.375s-.042.375-.092.375c-.051 0-.093.168-.093.375 0 .206-.041.375-.092.375-.057 0-.092.53-.092 1.405s.035 1.407.092 1.407c.05 0 .092.064.092.143 0 .37.615.794 1.15.794h.509v-.375c0-.206-.042-.375-.092-.375-.055 0-.092-.344-.092-.844s.037-.843.092-.843c.05 0 .092-.169.092-.375s.041-.375.092-.375c.05 0 .092-.169.092-.375s.042-.375.092-.375c.051 0 .092-.201.092-.448 0-.34.045-.48.185-.583.101-.074.184-.21.184-.302 0-.22.112-.211.276.02.074.104.207.188.297.188s.164.042.164.094.083.094.184.094c.102 0 .185.042.185.093 0 .052.066.094.147.094.081 0 .263.127.406.282.142.154.315.28.385.28s.187.085.26.188c.073.103.19.188.26.188s.242.126.385.28c.142.155.305.282.364.282.058 0 .391.295.741.656.35.36.683.656.74.656.132 0 .366.237.366.372 0 .156.618.753.78.753.078 0 .141.042.141.094 0 .139.896.117.96-.024.043-.093.065-.093.108 0 .063.139.775.16.775.024 0-.052.105-.094.232-.094.248 0 1.611-1.29 1.611-1.524 0-.067.083-.183.184-.257.102-.074.185-.21.185-.302s.041-.167.092-.167c.05 0 .092.127.092.282 0 .154.041.28.092.28.05 0 .092.118.092.261 0 .153.076.316.184.396.102.074.185.19.185.258 0 .642 1.918 1.13 2.303.585.184-.258.343-.235.645.094.409.445.727.39 1.338-.232.32-.325.505-.593.505-.73 0-.118.083-.276.184-.35.102-.074.185-.193.185-.264 0-.071.124-.247.276-.392.152-.145.277-.313.277-.375s.124-.23.276-.375c.152-.145.276-.31.276-.369 0-.105.593-.756.689-.756.026 0 .049.169.049.375s-.042.375-.093.375c-.05 0-.092.169-.092.375s-.041.375-.092.375c-.054 0-.092.329-.092.8 0 .833.332 1.45.78 1.45.078 0 .141.042.141.093 0 .052.208.094.461.094s.46-.042.46-.094c0-.051.064-.093.142-.093.16 0 .965-.785.965-.941 0-.057.207-.308.46-.56.254-.25.46-.522.46-.602 0-.081.042-.147.093-.147.05 0 .092-.084.092-.188 0-.124.062-.187.184-.187.123 0 .185-.063.185-.187 0-.104.041-.188.092-.188.05 0 .092.127.092.281 0 .155.041.282.092.282.05 0 .092.21.092.468s.042.469.093.469c.05 0 .092.126.092.281 0 .155.041.281.092.281.05 0 .092.084.092.188 0 .124.061.187.184.187.102 0 .184.042.184.094 0 .051.083.094.185.094.101 0 .184.042.184.093 0 .052.166.094.369.094.202 0 .368.042.368.094 0 .051.125.093.277.093.152 0 .276-.042.276-.093 0-.052.08-.094.177-.094.097 0 .194-.053.215-.117.023-.071.187.04.415.281.557.59 1.589.468 1.589-.186 0-.068.083-.185.184-.26.101-.073.184-.2.184-.28 0-.08.083-.207.185-.282.1-.074.184-.192.184-.261 0-.172.23-.395.408-.395.08 0 .145-.066.145-.147 0-.142.207-.415.316-.415.029 0 .052.127.052.281 0 .155.042.281.092.281.051 0 .093.085.093.188s.041.187.092.187c.05 0 .092.085.092.188s.041.187.092.187c.05 0 .092.084.092.188 0 .103.042.187.092.187.051 0 .092.066.092.148 0 .22.234.414.5.414.13 0 .238.043.238.094 0 .198 1.42.113 1.566-.093.073-.104.188-.188.255-.188.168 0 .574-.428.574-.605 0-.08.042-.145.092-.145.051 0 .093-.084.093-.187s.041-.188.092-.188c.05 0 .092-.169.092-.375s.041-.375.092-.375c.05 0 .092-.084.092-.187 0-.146-.061-.188-.276-.188-.152 0-.277.043-.277.094 0 .052-.083.094-.184.094-.101 0-.184.042-.184.094 0 .051-.083.093-.185.093-.101 0-.184.043-.184.094 0 .052-.124.094-.276.094-.152 0-.277.042-.277.094 0 .051-.166.093-.368.093h-.369v-.562c0-.312.041-.562.092-.562.05 0 .092-.17.092-.375 0-.207.042-.375.093-.375.05 0 .092-.085.092-.188s.041-.187.092-.187c.05 0 .092-.127.092-.281 0-.155.041-.282.092-.282.05 0 .092-.084.092-.187s.042-.188.092-.188c.051 0 .093-.21.093-.468s-.042-.469-.093-.469c-.05 0-.092-.084-.092-.187 0-.125-.061-.188-.184-.188-.101 0-.184-.042-.184-.094 0-.051-.125-.093-.277-.093-.152 0-.276-.042-.276-.094 0-.142-.456-.112-.606.04a.48.48 0 0 0-.131.281c0 .081-.042.148-.092.148-.051 0-.093.084-.093.187s-.041.188-.092.188c-.05 0-.092.084-.092.187s-.041.188-.092.188c-.05 0-.092.075-.092.166 0 .092-.083.228-.184.302-.102.075-.185.194-.185.264 0 .072-.124.248-.276.392-.152.145-.277.312-.277.371 0 .06-.248.357-.552.66-.305.304-.553.599-.553.656 0 .152-.462.594-.536.513-.035-.038-.011-.088.052-.111.065-.024.115-.2.115-.41 0-.201.042-.366.092-.366.051 0 .092-.085.092-.188s.042-.187.093-.187c.05 0 .092-.085.092-.188s.041-.187.092-.187c.05 0 .092-.085.092-.188s.041-.187.092-.187c.05 0 .092-.127.092-.281 0-.155.042-.282.092-.282.051 0 .093-.084.093-.187s.041-.188.092-.188c.05 0 .092-.084.092-.187s.041-.187.092-.187c.05 0 .092-.085.092-.188s.042-.187.092-.187c.051 0 .092-.085.092-.188s.042-.187.093-.187c.05 0 .092-.127.092-.282 0-.154.041-.28.092-.28.05 0 .092-.127.092-.282 0-.154-.041-.281-.092-.281-.05 0-.092-.066-.092-.148 0-.465-1.026-.598-1.433-.184-.124.126-.226.295-.226.375 0 .08-.041.144-.092.144-.05 0-.092.075-.092.167 0 .092-.083.228-.184.302-.102.074-.185.21-.185.302s-.041.167-.092.167c-.05 0-.092.159-.092.354 0 .247-.056.395-.184.49-.138.1-.184.242-.184.562 0 .32-.047.46-.185.562a.515.515 0 0 0-.184.396c0 .143-.042.26-.092.26-.05 0-.092.169-.092.375s-.042.375-.092.375c-.051 0-.093.235-.093.522 0 .566-.13.79-.46.79-.232 0-.461-.206-.461-.415 0-.08-.042-.147-.092-.147-.053 0-.092-.281-.092-.656s.039-.656.092-.656c.056 0 .092-.406.092-1.031 0-.625-.037-1.031-.092-1.031-.05 0-.092-.066-.092-.145 0-.188-.41-.605-.595-.605-.079 0-.143-.042-.143-.094s-.207-.094-.46-.094c-.357 0-.46.033-.46.147 0 .08-.208.352-.462.603-.253.251-.46.504-.46.563 0 .058-.208.31-.461.562-.253.25-.46.503-.46.56 0 .153-.462.596-.536.515-.035-.038-.012-.089.051-.112.075-.027.116-.237.116-.596 0-.307.04-.555.092-.555.054 0 .092-.329.092-.8 0-.833-.332-1.45-.78-1.45-.078 0-.142-.041-.142-.093 0-.051-.124-.094-.276-.094-.152 0-.276-.042-.276-.093 0-.052-.107-.094-.237-.094-.247 0-.5.19-.5.374 0 .059-.208.312-.461.563-.253.251-.46.513-.46.583 0 .069-.084.186-.185.26-.102.075-.184.193-.184.263 0 .125-.216.394-.316.394-.03 0-.053-.084-.053-.188 0-.103.041-.187.092-.187.05 0 .092-.084.092-.187s.042-.188.092-.188c.051 0 .093-.126.093-.281 0-.155.041-.281.092-.281.05 0 .092-.25.092-.563 0-.312.04-.562.092-.562.05 0 .092-.084.092-.188 0-.103-.041-.187-.092-.187-.05 0-.092-.065-.092-.144 0-.212-.608-.793-.83-.793-.224 0-.644.395-.644.605 0 .08-.042.145-.093.145-.05 0-.092.126-.092.28 0 .155-.041.282-.092.282-.05 0-.092.169-.092.375s-.041.375-.092.375c-.05 0-.092.126-.092.281 0 .155-.042.281-.092.281-.051 0-.093.169-.093.375s-.041.375-.092.375c-.05 0-.092.169-.092.375s-.041.375-.092.375c-.05 0-.092.084-.092.187s-.042.188-.092.188c-.05 0-.092.126-.092.281 0 .155-.042.281-.093.281-.05 0-.092.127-.092.281 0 .155-.041.282-.092.282-.05 0-.092.168-.092.374 0 .207-.041.375-.092.375-.05 0-.092.109-.092.242 0 .27-.19.508-.408.508-.08 0-.145.042-.145.094 0 .051-.083.094-.184.094-.102 0-.185.042-.185.093 0 .052-.124.094-.276.094h-.276v-.937c0-.563.036-.937.092-.937.052 0 .092-.282.092-.657 0-.374.04-.656.092-.656.05 0 .092-.21.092-.468s.041-.469.092-.469c.05 0 .092-.169.092-.375s.042-.375.093-.375c.05 0 .092-.126.092-.281 0-.155.041-.281.092-.281.05 0 .092-.085.092-.188s-.042-.187-.092-.187c-.05 0-.092-.109-.092-.241 0-.334-.205-.509-.593-.509-.18 0-.329-.042-.329-.094 0-.178-.485-.093-.67.117-.124.143-.197.174-.225.094-.049-.138-.58-.16-.58-.023 0 .051-.064.093-.144.093-.08 0-.305.17-.5.375-.195.207-.4.375-.457.375-.134 0-.74.62-.74.756 0 .059-.125.224-.277.37-.152.144-.277.32-.277.39 0 .072-.083.19-.184.265-.101.075-.184.21-.184.302s-.042.167-.092.167c-.051 0-.093.084-.093.187s-.041.188-.092.188c-.05 0-.092.084-.092.187s-.041.188-.092.188c-.05 0-.092.084-.092.187s-.042.188-.092.188c-.051 0-.092.084-.092.187s-.042.188-.093.188c-.05 0-.092.084-.092.187s-.041.188-.092.188c-.05 0-.092.126-.092.28 0 .155-.041.282-.092.282-.05 0-.092.084-.092.187 0 .278-.036.254-.83-.562-.4-.413-.776-.75-.834-.75-.058 0-.221-.126-.363-.281-.143-.155-.325-.281-.406-.281-.08 0-.147-.043-.147-.094 0-.052-.074-.094-.164-.094-.09 0-.224-.084-.297-.187-.073-.103-.19-.188-.26-.188s-.243-.126-.385-.28c-.142-.155-.308-.282-.369-.282-.06 0-.226-.127-.368-.281-.142-.155-.325-.281-.406-.281-.08 0-.147-.043-.147-.094 0-.052-.064-.094-.142-.094-.079 0-.246-.105-.373-.234l-.23-.235.23-.234c.127-.129.327-.234.445-.234a.484.484 0 0 0 .346-.188c.073-.103.207-.187.297-.187s.164-.042.164-.094c0-.051.074-.094.164-.094.09 0 .224-.084.297-.187.073-.103.207-.188.297-.188s.164-.042.164-.093c0-.052.083-.094.184-.094.101 0 .184-.042.184-.094 0-.051.083-.093.184-.093.102 0 .185-.043.185-.094 0-.052.083-.094.184-.094.101 0 .184-.042.184-.094 0-.051.083-.093.185-.093.1 0 .184-.043.184-.094 0-.052.083-.094.184-.094.102 0 .184-.042.184-.094 0-.051.083-.093.185-.093.101 0 .184-.043.184-.094 0-.052.074-.094.164-.094.09 0 .224-.084.297-.187.073-.103.206-.188.296-.188s.164-.042.164-.093c0-.052.083-.094.185-.094.101 0 .184-.042.184-.094 0-.051.083-.094.184-.094.102 0 .185-.042.185-.093 0-.052.124-.094.276-.094.152 0 .276-.042.276-.094 0-.051.083-.093.185-.093.101 0 .184-.043.184-.094 0-.052.083-.094.184-.094.346 0 .256-.777-.135-1.175-.324-.329-1.708-.516-1.708-.231 0 .052-.083.094-.184.094-.101 0-.184.042-.184.093 0 .052-.115.094-.256.094a.5.5 0 0 0-.39.188c-.072.103-.206.187-.296.187s-.164.042-.164.094c0 .051-.074.094-.164.094-.09 0-.224.084-.297.187a.5.5 0 0 1-.388.188c-.141 0-.257.042-.257.093 0 .052-.082.094-.184.094-.101 0-.184.042-.184.094 0 .051-.083.093-.184.093-.102 0-.185.043-.185.094 0 .052-.073.094-.164.094-.09 0-.223.084-.296.187-.073.104-.198.188-.277.188-.079 0-.203.084-.276.187-.187.264-.277.234-.277-.093 0-.155.042-.282.092-.282.051 0 .093-.168.093-.374 0-.207.041-.376.092-.376.05 0 .092-.21.092-.468s.041-.469.092-.469c.05 0 .092-.21.092-.468s.042-.47.092-.47c.056 0 .092-.374.092-.936 0-.563-.036-.938-.092-.938-.05 0-.092-.126-.092-.28 0-.22-.04-.282-.184-.282-.101 0-.184-.042-.184-.094 0-.206-.867-.091-1.083.143Zm63.002.513c0 .107-.062.188-.142.188-.079 0-.245.103-.37.23-.123.126-.225.295-.225.375 0 .08-.042.145-.092.145-.051 0-.093.075-.093.166 0 .092-.082.228-.184.302-.101.075-.184.21-.184.302s-.042.167-.092.167c-.05 0-.092.084-.092.187s-.042.188-.093.188c-.05 0-.092.084-.092.187s-.041.188-.092.188c-.05 0-.092.126-.092.281 0 .155-.041.281-.092.281-.05 0-.092.169-.092.375s-.042.375-.092.375c-.051 0-.093.169-.093.375s-.041.375-.092.375c-.05 0-.092.126-.092.281 0 .155-.041.281-.092.281-.05 0-.092.169-.092.375s-.042.375-.092.375c-.05 0-.092.127-.092.281 0 .155-.042.282-.093.282-.05 0-.092.168-.092.374 0 .207-.041.375-.092.375-.05 0-.092.211-.092.469s-.041.469-.092.469c-.05 0-.092.126-.092.28 0 .156-.042.282-.092.282-.051 0-.092.127-.092.281 0 .219.04.281.184.281.101 0 .184.043.184.094 0 .052.166.094.369.094.348 0 .368-.016.368-.281 0-.25.03-.281.277-.281.215 0 .276-.042.276-.188 0-.103.041-.187.092-.187.05 0 .092-.127.092-.282 0-.154.042-.28.092-.28.051 0 .093-.085.093-.188s.041-.188.092-.188c.05 0 .092-.084.092-.187s.041-.188.092-.188c.05 0 .092-.084.092-.187s.042-.188.092-.188c.051 0 .092-.126.092-.28 0-.155.042-.282.093-.282.05 0 .092-.084.092-.187 0-.104.041-.188.092-.188.05 0 .092-.169.092-.375s.041-.375.092-.375c.05 0 .092-.126.092-.281 0-.155.042-.281.092-.281.051 0 .093-.117.093-.26 0-.154.076-.317.184-.396.101-.075.184-.21.184-.302s.042-.167.092-.167c.051 0 .092-.084.092-.187 0-.104.042-.188.093-.188.05 0 .092-.126.092-.281 0-.155.041-.281.092-.281.05 0 .092-.127.092-.281 0-.155.041-.282.092-.282.05 0 .092-.084.092-.187s.042-.188.092-.188c.052 0 .093-.267.093-.613 0-.642-.24-1.074-.595-1.074-.079 0-.143-.042-.143-.093 0-.052-.083-.094-.184-.094-.123 0-.184.062-.184.187Zm-24.326.094c0 .052-.124.094-.276.094-.152 0-.276.042-.276.093 0 .052-.083.094-.185.094-.101 0-.184.042-.184.094s-.065.094-.145.094c-.406 0-.537.564-.2.868.14.128.17.201.092.23-.064.023-.116.123-.116.222s-.041.18-.092.18c-.05 0-.092.21-.092.468s-.041.469-.092.469c-.05 0-.092.21-.092.468s-.042.469-.092.469c-.05 0-.092.21-.092.469 0 .257-.042.468-.092.468-.051 0-.093.211-.093.469s-.041.469-.092.469c-.05 0-.092.168-.092.375 0 .206-.041.374-.092.374-.05 0-.092.211-.092.47 0 .257-.042.468-.092.468-.051 0-.093.21-.093.468s-.041.47-.092.47c-.05 0-.092.21-.092.468s-.041.468-.092.468-.092.25-.092.563c0 .312-.041.562-.092.562-.262 0-.102 1.79.184 2.062.152.145.276.33.276.413 0 .082.042.15.093.15.05 0 .092.084.092.187s.041.188.092.188c.05 0 .092.064.092.143 0 .187.597.794.78.794.078 0 .142.042.142.094 0 .053.276.093.645.093.368 0 .644-.04.644-.093 0-.052.074-.094.164-.094.09 0 .224-.084.297-.188.073-.103.188-.187.255-.187.15 0 .574-.42.574-.567 0-.06.125-.226.277-.37.17-.162.276-.357.276-.507 0-.134.042-.243.092-.243.051 0 .093-.169.093-.375s.041-.375.092-.375c.054 0 .092-.344.092-.844s-.038-.843-.092-.843c-.051 0-.092-.127-.092-.281 0-.155-.042-.282-.093-.282-.05 0-.092-.107-.092-.238 0-.24-.364-.699-.553-.699-.13 0-.552-.43-.552-.562 0-.154-.433-.563-.595-.563-.078 0-.143-.022-.143-.05 0-.116.838-.887.965-.887.078 0 .141-.042.141-.094 0-.051.065-.093.144-.093.08 0 .347-.211.593-.47.247-.257.495-.468.55-.468.13 0 .74-.618.74-.75 0-.134.424-.562.555-.562.15 0 .367-.245.367-.415 0-.081.041-.147.092-.147.05 0 .092-.085.092-.188s.041-.187.092-.187c.05 0 .092-.127.092-.282 0-.154.042-.28.092-.28.19 0 .108-1.073-.092-1.22-.101-.074-.184-.191-.184-.26 0-.203-.243-.395-.5-.395-.13 0-.237-.042-.237-.094s-.125-.094-.277-.094c-.152 0-.276-.042-.276-.094 0-.051-.124-.093-.276-.093-.152 0-.277-.042-.277-.094 0-.058-.46-.094-1.198-.094-.737 0-1.198.036-1.198.094Zm2.765 1.458c0 .029-.25.3-.553.604-.304.304-.553.597-.553.652 0 .098-1.518 1.691-1.611 1.691-.026 0-.048-.38-.048-.843 0-.5.038-.844.093-.844.05 0 .092-.21.092-.468 0-.406.024-.47.184-.47.101 0 .184-.041.184-.093 0-.051.166-.093.369-.093.203 0 .368-.043.368-.094 0-.055.307-.094.738-.094.405 0 .737.023.737.052Zm3.317 1.354c0 .051-.166.094-.369.094-.202 0-.368.042-.368.093 0 .052-.083.094-.185.094-.153 0-.184.063-.184.375 0 .206.042.375.092.375.05 0 .092.127.092.281 0 .155.042.281.093.281.05 0 .092.066.092.145 0 .362.424.605 1.055.605h.603v-.75c0-.437-.038-.75-.092-.75-.05 0-.092-.107-.092-.238s-.102-.342-.226-.469c-.23-.233-.511-.308-.511-.136Zm3.686 1.968c0 .103-.042.188-.093.188-.05 0-.092.126-.092.281 0 .155-.041.281-.092.281-.057 0-.092.469-.092 1.219 0 .75-.036 1.218-.092 1.218-.058 0-.092.625-.092 1.687 0 1.063-.035 1.688-.093 1.688-.05 0-.092.21-.092.468s-.041.469-.092.469c-.05 0-.092.084-.092.187s-.041.188-.092.188c-.05 0-.092.084-.092.187 0 .125-.062.188-.184.188-.123 0-.185-.063-.185-.188 0-.103-.041-.187-.092-.187-.05 0-.092-.085-.092-.188 0-.125-.062-.187-.184-.187-.123 0-.185-.063-.185-.188 0-.103-.041-.187-.092-.187-.05 0-.092-.25-.092-.563 0-.312-.04-.562-.092-.562-.05 0-.092-.084-.092-.187 0-.108-.062-.188-.145-.188-.186 0-.408.226-.408.415 0 .081-.041.148-.092.148-.05 0-.092.064-.092.143 0 .187-.597.794-.78.794-.078 0-.142.042-.142.094 0 .051-.083.093-.184.093-.143 0-.184-.062-.184-.28 0-.155.041-.282.092-.282.05 0 .092-.127.092-.281 0-.155.041-.281.092-.281.05 0 .092-.17.092-.375 0-.207.042-.375.092-.375.051 0 .092-.127.092-.282 0-.154.042-.28.093-.28.05 0 .092-.212.092-.47 0-.257.041-.468.092-.468.274 0 .095-1.222-.227-1.55-.399-.405-1.524-.506-1.524-.137 0 .103-.041.187-.092.187-.05 0-.092.127-.092.281 0 .155-.041.282-.092.282-.05 0-.092.126-.092.28 0 .156-.042.282-.093.282-.05 0-.092.169-.092.375s-.041.375-.092.375c-.05 0-.092.169-.092.375s-.041.375-.092.375c-.05 0-.092.126-.092.281 0 .155-.042.281-.092.281-.056 0-.093.375-.093.938 0 .562.037.937.093.937.05 0 .092.084.092.187s.041.188.092.188c.05 0 .092.084.092.187s.042.188.092.188c.05 0 .092.064.092.143 0 .236.613.794.873.794.128 0 .233.042.233.094 0 .051.124.093.276.093.153 0 .277-.042.277-.093 0-.052.105-.094.234-.094.26 0 .687-.377.687-.605 0-.08.08-.145.177-.145.097 0 .194-.051.214-.114.042-.13.53.32.53.487 0 .155.807.94.966.94.077 0 .14.041.14.093s.083.094.185.094c.101 0 .184.042.184.093 0 .052.207.094.46.094.254 0 .462-.042.462-.094 0-.051.065-.093.144-.093.186 0 .408-.226.408-.415 0-.081.042-.148.092-.148.051 0 .093-.084.093-.187s.041-.188.092-.188c.05 0 .092-.168.092-.374 0-.207.041-.375.092-.375s.092-.25.092-.563c0-.312.041-.562.092-.562.059 0 .093-.719.093-1.968 0-1.25.033-1.969.092-1.969.05 0 .092.042.092.094 0 .146.824.112.974-.04.157-.16.194-2.116.04-2.116-.051 0-.093-.126-.093-.281 0-.207-.043-.281-.164-.281-.09 0-.224-.085-.297-.188-.073-.103-.206-.187-.296-.187s-.164-.042-.164-.094c0-.051-.083-.094-.184-.094-.102 0-.185-.042-.185-.093 0-.052-.246-.094-.553-.094-.491 0-.553.02-.553.187Zm7.002 1.5c0 .125-.061.188-.184.188-.101 0-.184-.043-.184-.094 0-.173-.508-.1-.645.093-.073.104-.19.188-.258.188-.069 0-.285.169-.48.375-.194.206-.419.375-.5.375a.147.147 0 0 0-.144.148c0 .081-.166.31-.369.508-.203.198-.369.418-.369.487 0 .07-.083.188-.184.263-.101.074-.184.21-.184.302 0 .091-.042.166-.092.166-.051 0-.092.085-.092.188s-.042.187-.093.187c-.05 0-.092.085-.092.188s-.041.187-.092.187c-.05 0-.092.085-.092.188s-.041.187-.092.187c-.05 0-.092.075-.092.167 0 .092-.083.228-.185.302-.128.094-.184.242-.184.49 0 .194-.041.353-.092.353-.05 0-.092.17-.092.375 0 .206-.042.375-.092.375-.051 0-.092.085-.092.188s.041.187.092.187c.05 0 .092.107.092.238 0 .264.548.887.78.887.078 0 .141.042.141.094 0 .051.166.093.369.093.203 0 .368-.042.368-.093 0-.052.105-.094.233-.094.248 0 1.242-.92 1.242-1.149 0-.067.083-.183.184-.257.101-.074.184-.2.184-.281 0-.08.083-.207.184-.281.102-.075.185-.21.185-.302s.041-.167.092-.167.092.25.092.562c0 .313.041.563.092.563.05 0 .092.067.092.15 0 .082.125.267.277.412.152.145.276.33.276.413 0 .087.077.15.184.15.102 0 .185.042.185.093 0 .055.307.094.737.094s.737-.04.737-.094c0-.051.074-.093.164-.093.09 0 .224-.085.297-.188.073-.103.206-.187.297-.187.09 0 .163-.067.163-.148 0-.082.166-.31.37-.508.415-.407.51-.844.183-.844-.101 0-.184.042-.184.094 0 .051-.124.093-.276.093-.152 0-.277.043-.277.094 0 .052-.083.094-.184.094-.101 0-.184.042-.184.093 0 .052-.083.094-.185.094-.101 0-.184.042-.184.094 0 .051-.124.094-.276.094-.152 0-.277.042-.277.093 0 .052-.124.094-.276.094h-.277v-.75c0-.437.039-.75.093-.75.05 0 .092-.25.092-.562 0-.312.04-.562.092-.562.05 0 .092-.25.092-.563 0-.312.04-.562.092-.562.05 0 .092-.169.092-.375s.042-.375.092-.375c.051 0 .093-.169.093-.375s.041-.375.092-.375c.05 0 .092-.191.092-.426 0-.549-.297-.886-.78-.886-.179 0-.326-.042-.326-.094 0-.051-.124-.093-.276-.093-.215 0-.277.041-.277.187Zm-16.906 2.2c.278.283.505.578.505.657 0 .078.041.142.092.142.055 0 .092.344.092.844s-.037.844-.092.844c-.05 0-.092.117-.092.26a.515.515 0 0 1-.184.396c-.102.074-.185.21-.185.301 0 .092-.065.167-.145.167-.08 0-.305.17-.5.375-.454.482-.46.48-.46-.187 0-.313-.041-.563-.092-.563s-.093-.126-.093-.28c0-.22-.04-.282-.184-.282-.101 0-.184-.042-.184-.094 0-.051.041-.093.092-.093.05 0 .092-.211.092-.47 0-.257.042-.468.092-.468.051 0 .093-.169.093-.375s.04-.375.092-.375c.05 0 .092-.126.092-.28 0-.155.041-.282.092-.282.05 0 .092-.169.092-.375 0-.518.17-.488.785.139Zm20.776 3.892c0 .052-.065.094-.145.094-.08 0-.204.06-.276.134-.149.152-.181.804-.04.804.051 0 .093.065.093.144 0 .08.101.249.226.375.39.398 1.248.27 1.248-.185 0-.08.041-.147.092-.147.05 0 .092-.21.092-.469 0-.257-.041-.468-.092-.468-.05 0-.092-.085-.092-.188 0-.166-.062-.187-.553-.187-.307 0-.553.041-.553.093Z"
        fill="#0D102B" />
</svg>