<svg viewBox="0 0 45 45" xmlns="http://www.w3.org/2000/svg" xmlns:xlink="http://www.w3.org/1999/xlink">
  <defs>
    <path id="a" d="M43.527.005H0v43.531h43.527V.006z"/>
  </defs>
  <g fill="none" fill-rule="evenodd">
    <g transform="translate(0 .13)">
      <mask id="b" fill="#0d102b">
      <use xlink:href="#a"/>
      </mask>
      <path d="M21.765.005c12.02 0 21.762 9.742 21.762 21.765 0 12.02-9.742 21.766-21.762 21.766C9.743 43.536 0 33.79 0 21.77 0 9.747 9.743.005 21.765.005" fill="#0d102b" mask="url(#b)"/>
    </g>
    <path fill="#0d102b" d="M14.786 27.734V16.847h-2.228v4.173h-6.72v-4.173H3.611v10.887h2.225V23.11h6.721v4.623zM27.336 24.629c.181-3.105-3.692-3.469-5.76-3.627-2.168-.165-3.05-.514-2.972-1.363.088-.93 1.778-1.34 2.98-1.279 1.527.077 2.536.202 4.2 1.303 0 0 .561-.73 1.159-1.455-2.05-1.526-4.151-1.698-5.375-1.718-.916-.01-5.133.159-5.179 3.292-.043 2.861 3.778 3.17 5.164 3.35 1.01.13 3.53.195 3.53 1.353 0 1.072-2.03 1.546-3.497 1.447-2.236-.151-3.107-.866-4.216-1.985-.564.6-1.396 1.44-1.396 1.44 1.246 1.426 3.458 2.533 5.579 2.613 1.208.043 5.604-.225 5.783-3.371M38.014 27.697h1.926V16.868h-2.206v7.242c-.72-.798-6.553-7.242-6.553-7.242h-2.43v10.829h2.158v-7.92c.733.814 7.105 7.92 7.105 7.92"/>
  </g>
</svg>