<svg fill="none" xmlns="http://www.w3.org/2000/svg" viewBox="0 0 49 48">
  <mask id="b" style="mask-type:alpha" maskUnits="userSpaceOnUse" x="0" y="0" width="48" height="47">
    <path d="M47.2.1H.8v46.5h46.4V0Z" fill="#E3E3EA" />
  </mask>
  <g mask="url(#b)">
    <path fill-rule="evenodd" clip-rule="evenodd" d="M24 .1a23.2 23.2 0 1 1 0 46.5A23.2 23.2 0 0 1 24 0Z"
      fill="#E3E3EA" />
  </g>
  <path fill-rule="evenodd" clip-rule="evenodd"
    d="M16.5 29.6V18h-2.3v4.4H7V18H4.6v11.6H7v-5h7.2v5h2.3ZM30 26.3c.2-3.3-4-3.7-6.1-3.9-2.3-.2-3.3-.5-3.2-1.5.1-1 2-1.4 3.2-1.3 1.6 0 2.7.2 4.5 1.4l1.2-1.6a9.6 9.6 0 0 0-5.7-1.8c-1 0-5.5.2-5.5 3.5 0 3 4 3.4 5.5 3.6 1 .1 3.7.2 3.7 1.4s-2.1 1.7-3.7 1.6a6 6 0 0 1-4.5-2.2l-1.5 1.6a8.8 8.8 0 0 0 6 2.8c1.3 0 6-.3 6.1-3.6Zm11.4 3.2h2V18H41v7.7L34 18h-2.6v11.5h2.3v-8.4l7.6 8.4"
    fill="#0D102B" />
  <defs>
    <clipPath id="a">
      <path fill="#fff" transform="translate(.8)" d="M0 0h48v48H0z" />
    </clipPath>
  </defs>
</svg>