<svg xmlns="http://www.w3.org/2000/svg" viewBox="0 0 292.924 105.247">
  <path d="M5.176 102.497c-.083-.095-.28-.172-.44-.172-.158 0-.287-.052-.287-.117 0-.064-.08-.117-.176-.117a.176.176 0 01-.175-.175c0-.097-.053-.176-.118-.176-.064 0-.117-.107-.117-.238 0-.13-.079-.268-.175-.305-.097-.037-.176-.164-.176-.282 0-.118-.053-.247-.117-.287-.064-.04-.117-.197-.117-.35a.733.733 0 00-.176-.453c-.096-.097-.175-.312-.175-.478 0-.167-.046-.394-.1-.506-.204-.41-.486-1.415-.49-1.741a1.11 1.11 0 00-.175-.563c-.094-.125-.172-.451-.172-.725 0-.274-.053-.53-.117-.57-.064-.04-.117-.308-.117-.596 0-.357-.056-.545-.176-.59-.128-.05-.175-.252-.175-.751 0-.376-.053-.716-.117-.756-.065-.04-.117-.355-.117-.7 0-.403-.063-.692-.176-.805-.11-.11-.176-.397-.176-.762 0-.323-.052-.62-.117-.66-.064-.04-.119-.293-.12-.563-.003-.27-.08-.622-.172-.783-.092-.16-.17-.566-.172-.9-.002-.335-.057-.64-.121-.68-.064-.04-.117-.373-.117-.74 0-.867.334-1.31.99-1.31.555 0 1.117.384 1.117.763 0 .153.053.31.117.35.065.04.117.296.117.57 0 .274.078.6.172.725.095.125.174.448.176.718.002.27.056.523.12.563.065.04.118.217.118.394 0 .177.077.424.172.55.094.124.173.365.175.535.002.17.083.46.179.644.096.184.175.427.176.54 0 .113.053.205.117.205.065 0 .117.132.117.293 0 .182.067.292.176.292.097 0 .176.06.176.134 0 .196.37.444.671.448.288.004.734-.32.734-.535 0-.074.079-.2.175-.28.097-.08.176-.272.176-.425 0-.153.052-.278.117-.278.064 0 .117-.178.117-.396 0-.217.079-.46.176-.54.107-.09.175-.346.175-.659 0-.282.053-.513.117-.513.065 0 .117-.2.117-.445 0-.246.078-.549.172-.674.095-.125.174-.448.176-.718.002-.27.053-.521.114-.558.06-.038.142-.318.181-.622.04-.304.122-.645.183-.757.061-.112.111-.408.111-.66 0-.25.079-.607.175-.791.096-.185.175-.557.175-.826 0-.27.054-.524.118-.563.065-.04.117-.381.117-.759 0-.431.053-.703.142-.732.086-.03.16-.373.188-.888.027-.463.095-.841.152-.841.057 0 .104-.332.104-.739 0-.468.063-.821.172-.966.113-.15.173-.516.175-1.076.002-.466.053-.848.113-.848.06 0 .146-.423.19-.94.046-.516.129-.967.185-1.002.056-.034.101-.47.101-.969 0-.55.056-.961.141-1.047.082-.082.162-.606.19-1.253.027-.611.095-1.112.152-1.112.056 0 .103-.496.103-1.102 0-.778.043-1.117.146-1.151.101-.034.159-.426.186-1.269.021-.67.087-1.27.146-1.33.059-.062.107-.684.107-1.384 0-.976.041-1.314.176-1.449.137-.137.175-.493.175-1.63 0-.8.046-1.456.102-1.456.056 0 .126-.712.156-1.584.033-.985.105-1.635.19-1.72.093-.093.138-.71.138-1.906 0-1.146.046-1.813.13-1.898.082-.082.155-.912.193-2.193.034-1.134.107-2.09.162-2.124.055-.034.1-1.107.1-2.383 0-1.832.037-2.392.175-2.657.141-.27.175-.891.176-3.233 0-1.853.043-2.898.117-2.898.076 0 .118-1.503.118-4.277 0-3.657.026-4.317.18-4.553.155-.236.176-.784.146-3.82-.026-2.708-.068-3.557-.18-3.594-.108-.036-.146-.489-.146-1.73 0-.994-.048-1.71-.118-1.753-.07-.043-.117-.833-.117-1.975 0-1.491-.037-1.951-.172-2.13-.142-.188-.172-.839-.175-3.759-.002-1.942.038-3.55.09-3.57.05-.022.2-.25.33-.508.13-.257.352-.52.492-.584.14-.063.255-.156.255-.205 0-.049.48-.089 1.067-.089h1.068l.438.439c.24.242.475.558.52.703.046.144.133.263.193.263s.11.34.11.754c0 .415.045.782.1.817.057.034.127.628.158 1.318.036.8.105 1.271.191 1.3.091.03.136.46.136 1.316 0 .7.047 1.301.105 1.337.059.036.144.619.19 1.295.046.676.13 1.23.187 1.23.057 0 .103.52.103 1.156 0 .885.041 1.19.176 1.302.131.11.175.403.175 1.178 0 .568.053 1.065.117 1.105.065.04.117.54.117 1.11 0 .767.046 1.085.176 1.215.129.128.176.443.176 1.179 0 .59.048 1.003.117 1.003.067 0 .117.381.117.908 0 .575.065 1.03.176 1.242.105.202.175.654.175 1.135 0 .44.045.827.1.86.054.034.132.495.173 1.024.04.53.128 1.016.193 1.081.066.066.12.471.12.901 0 .552.05.825.175.928.125.103.176.377.176.944 0 .439.052.83.117.87.064.04.117.408.117.818 0 .507.056.802.175.922.118.117.176.41.176.886 0 .391.047.71.104.71.057 0 .125.38.151.842.03.515.102.859.189.887.089.03.141.302.141.733 0 .378.045.714.1.748.056.034.131.392.168.795.036.402.123.75.192.774.07.023.126.338.126.71 0 .369.055.726.123.794.069.068.155.421.192.784.038.364.114.661.17.661.055 0 .1.265.1.59 0 .415.052.608.176.656.128.049.175.25.175.75 0 .376.053.716.117.755.065.04.117.297.117.57 0 .274.078.6.172.725.095.125.174.474.176.777.002.302.056.581.12.621.065.04.118.296.118.57 0 .274.077.6.172.725.094.125.173.469.175.764.002.295.043.575.09.622.123.123.391 1.307.462 2.04.037.38.124.647.224.685.11.042.165.252.165.636 0 .315.052.573.117.573.064 0 .117.283.117.63 0 .416.06.678.175.775.113.093.176.352.176.717 0 .314.053.57.117.57.065 0 .117.228.117.505 0 .278.078.607.172.732.095.125.174.474.176.776.002.302.056.582.12.622.065.04.118.27.118.511 0 .242.077.542.171.667.095.125.174.467.176.76.002.293.058.586.124.652.066.067.152.393.192.726.04.333.117.606.172.606.056 0 .101.233.101.519 0 .304.073.59.176.694.098.097.175.384.175.645 0 .258.053.502.118.542.064.04.117.308.117.596 0 .358.055.545.175.591.123.047.176.238.176.633 0 .312.053.599.117.639.064.04.117.27.117.511 0 .242.077.541.172.666.094.125.173.426.175.668.002.243.054.532.115.644.06.112.142.401.18.643.04.241.121.439.183.439.061 0 .112.257.112.572 0 .402.052.593.175.64.112.044.176.224.176.5 0 .575.345 1.35.58 1.305.16-.031.184-.941.21-8.105.02-5.247.072-8.096.149-8.143.073-.046.146-1.916.194-5.017.042-2.719.12-4.97.174-5.004.054-.033.098-1.395.098-3.026 0-2.402.033-3.029.175-3.3.136-.262.175-.805.175-2.465 0-1.293.047-2.159.118-2.202.07-.044.119-.835.12-1.968.004-1.481.042-1.946.177-2.123.13-.174.171-.597.171-1.786 0-.96.045-1.558.117-1.558.072 0 .118-.581.118-1.51 0-1.233.032-1.521.175-1.576.142-.055.176-.32.176-1.36 0-.71.047-1.29.104-1.29.057 0 .142-.58.189-1.29.046-.708.13-1.317.188-1.353.057-.035.104-.53.104-1.101 0-.658.048-1.053.13-1.08.077-.026.156-.488.193-1.126.033-.595.107-1.11.162-1.144.055-.034.1-.476.1-.982 0-.615.047-.936.142-.967.087-.03.159-.378.187-.917.026-.479.094-.92.152-.982.058-.06.107-.456.109-.878.002-.487.066-.85.175-.994.105-.138.172-.49.172-.9 0-.37.053-.706.117-.746.065-.04.117-.432.117-.872 0-.603.044-.817.176-.868.13-.05.176-.253.176-.773 0-.389.048-.706.107-.706.06 0 .145-.343.19-.763.045-.42.128-.791.185-.826.056-.035.105-.338.107-.672.002-.348.077-.705.175-.835.095-.126.172-.476.172-.783 0-.306.053-.589.117-.629.065-.04.117-.31.117-.6 0-.314.072-.6.176-.704.102-.103.176-.389.176-.688 0-.28.052-.544.117-.583.064-.04.117-.219.117-.398 0-.218.141-.466.429-.754.362-.362.509-.429.936-.429.526 0 1.093.347 1.093.669 0 .087.08.188.176.225.231.09.231.823 0 1.054-.097.097-.176.38-.176.63 0 .248-.052.485-.117.525-.064.04-.117.308-.117.596 0 .357-.056.545-.175.59-.123.048-.176.24-.176.64 0 .316-.05.574-.11.574s-.142.25-.182.556c-.039.306-.121.647-.182.76-.061.111-.111.444-.111.74 0 .32-.071.607-.176.712-.113.113-.176.402-.176.81 0 .35-.052.636-.117.636s-.117.308-.117.689c0 .468-.056.734-.175.833-.116.097-.176.358-.176.769 0 .342-.053.655-.117.695-.065.04-.117.459-.117.93 0 .656-.042.875-.176.927-.13.05-.175.26-.175.825 0 .417-.048.787-.105.823-.058.035-.142.486-.188 1.002-.046.515-.13.937-.188.937-.058 0-.105.415-.105.923 0 .591-.063 1.044-.175 1.259-.104.2-.175.653-.175 1.118 0 .431-.054.816-.118.856-.065.04-.117.583-.117 1.224 0 .915-.036 1.165-.176 1.219-.139.053-.175.298-.175 1.176 0 .613-.053 1.141-.118 1.181-.066.041-.118.64-.12 1.383-.003.966-.05 1.37-.176 1.537-.13.172-.172.583-.172 1.669 0 .882-.045 1.44-.117 1.44-.072 0-.118.618-.12 1.61-.004 1.23-.045 1.664-.176 1.838-.135.178-.172.638-.172 2.127 0 1.272-.043 1.913-.128 1.942-.085.028-.15.87-.194 2.472-.035 1.337-.11 2.458-.164 2.491-.055.034-.1 1.459-.1 3.166 0 2.603-.028 3.132-.175 3.28-.15.15-.176.882-.176 5.136 0 3.18-.042 4.986-.117 5.032-.077.048-.117 4.448-.117 12.82 0 8.373.04 12.773.117 12.82.064.04.117.218.117.395 0 .177.078.424.172.549.095.125.174.395.176.6.002.206.05.403.105.437.056.035.136.275.177.534.041.259.127.47.191.47s.117.198.12.44c.001.241.08.541.175.666.25.33.247 2.588-.004 2.684-.097.037-.176.172-.176.3 0 .206-.556.853-1.089 1.267-.225.174-2.891.209-2.891.037 0-.06-.093-.138-.208-.175-.314-.1-.963-.732-.963-.938 0-.1-.047-.182-.104-.182-.058 0-.138-.132-.178-.293-.04-.161-.125-.293-.188-.293-.064 0-.115-.125-.115-.28 0-.153-.079-.43-.175-.614-.096-.184-.175-.424-.176-.533 0-.109-.053-.23-.118-.27-.064-.04-.117-.248-.117-.461 0-.214-.079-.454-.175-.535-.097-.08-.176-.323-.176-.54 0-.218-.053-.396-.117-.396s-.117-.186-.117-.414c0-.26-.065-.438-.176-.48-.118-.046-.175-.232-.175-.575 0-.28-.053-.54-.117-.58-.065-.04-.117-.224-.117-.408 0-.185-.08-.415-.176-.512-.097-.097-.176-.36-.176-.587 0-.226-.046-.44-.103-.475-.057-.035-.14-.302-.183-.592-.044-.29-.129-.529-.19-.529-.06 0-.11-.204-.11-.454 0-.26-.074-.516-.175-.6-.096-.08-.175-.32-.175-.534 0-.213-.053-.42-.117-.46-.065-.04-.117-.277-.117-.526s-.08-.532-.176-.628c-.097-.097-.176-.364-.176-.594 0-.23-.052-.418-.117-.418-.064 0-.117-.207-.117-.46s-.079-.54-.175-.636c-.098-.098-.176-.384-.176-.645 0-.259-.053-.503-.117-.542-.065-.04-.118-.214-.118-.388 0-.173-.08-.466-.176-.65a1.88 1.88 0 01-.174-.732c0-.218-.046-.396-.102-.396-.057 0-.137-.262-.18-.58-.042-.32-.128-.613-.19-.652-.063-.038-.114-.274-.114-.523 0-.25-.079-.532-.175-.629-.105-.105-.176-.39-.176-.71 0-.295-.053-.536-.117-.536-.065 0-.117-.238-.117-.53 0-.364-.056-.552-.176-.598-.122-.047-.175-.238-.175-.633 0-.312-.053-.599-.118-.639-.064-.04-.117-.276-.117-.525 0-.25-.079-.532-.175-.629-.099-.099-.176-.385-.176-.654 0-.263-.05-.57-.11-.681-.062-.112-.144-.453-.183-.757-.04-.304-.121-.584-.182-.621-.06-.038-.11-.304-.11-.592 0-.358-.056-.545-.176-.591-.123-.047-.175-.24-.175-.64 0-.316-.053-.573-.118-.573-.064 0-.117-.286-.117-.636 0-.409-.062-.698-.175-.811-.105-.105-.176-.391-.176-.71 0-.295-.046-.536-.103-.536-.056 0-.126-.326-.155-.725-.03-.407-.113-.745-.19-.77-.08-.028-.137-.286-.137-.622 0-.317-.047-.576-.103-.576-.057 0-.126-.32-.155-.712-.028-.391-.108-.747-.177-.79-.07-.043-.153-.368-.186-.722-.082-.875-.319-2.025-.446-2.16-.057-.062-.104-.366-.104-.677 0-.395-.053-.586-.176-.633-.13-.05-.175-.259-.175-.816 0-.421-.051-.749-.117-.749-.065 0-.117-.313-.117-.706 0-.52-.047-.724-.176-.773-.13-.05-.176-.258-.176-.81 0-.407-.052-.773-.117-.813-.064-.04-.117-.35-.117-.687 0-.36-.071-.71-.172-.842-.103-.136-.173-.494-.175-.894-.002-.366-.05-.694-.105-.728-.055-.034-.13-.386-.165-.782-.036-.395-.123-.776-.192-.846-.07-.07-.13-.446-.131-.835-.002-.436-.07-.796-.176-.936-.109-.144-.172-.497-.172-.966 0-.414-.051-.738-.117-.738-.065 0-.117-.323-.117-.735 0-.449-.065-.828-.168-.975-.092-.132-.184-.473-.205-.758-.025-.358-.089-.518-.207-.518-.26 0-.332.445-.345 2.13-.007.89-.061 1.575-.128 1.617-.074.045-.118 1.233-.118 3.176 0 2.603-.028 3.132-.175 3.28-.146.145-.176.616-.176 2.736 0 1.58-.045 2.588-.117 2.633-.071.044-.117.96-.117 2.356 0 1.875-.031 2.316-.176 2.46-.142.143-.175.552-.175 2.158 0 1.243-.044 1.982-.117 1.982-.073 0-.117.679-.117 1.802 0 1.494-.03 1.814-.176 1.87-.144.055-.176.35-.176 1.644 0 .868-.046 1.606-.102 1.641-.057.035-.141.723-.188 1.53-.046.806-.132 1.495-.19 1.53-.058.036-.105.631-.105 1.323 0 .8-.05 1.307-.136 1.394-.078.078-.16.661-.191 1.37-.03.678-.1 1.233-.157 1.233-.055 0-.103.487-.105 1.083-.003.766-.054 1.15-.176 1.31-.116.155-.172.518-.172 1.135 0 .499-.052.94-.117.98-.064.04-.117.511-.117 1.048 0 .759-.039.99-.175 1.043-.135.051-.176.273-.176.949 0 .51-.05.882-.117.882-.068 0-.117.366-.117.865 0 .662-.041.882-.176.933-.13.05-.175.259-.175.819 0 .439-.073.89-.175 1.086-.096.185-.175.557-.176.826 0 .27-.053.524-.118.564-.064.04-.117.38-.117.758 0 .42-.053.703-.137.731-.077.026-.16.364-.19.771-.028.399-.098.725-.155.725-.057 0-.103.283-.103.63 0 .416-.06.678-.176.775-.112.093-.175.352-.175.717 0 .314-.053.57-.117.57-.065 0-.117.259-.117.574 0 .4-.053.593-.176.64-.12.046-.176.234-.176.598 0 .292-.046.53-.102.53-.056 0-.136.211-.177.469-.041.257-.127.468-.19.468-.064 0-.116.106-.116.236s-.132.445-.293.7c-.16.256-.292.506-.292.558 0 .246-.821.778-1.398.904-.197.044-.359.128-.359.187 0 .168-.393.118-.56-.072zM45.953 84.53c-.04-.065-.163-.117-.274-.117-.33 0-1.519-.67-1.973-1.111-.233-.226-.468-.411-.523-.411-.054 0-.099-.057-.099-.126 0-.148-.292-.46-.431-.46-.053 0-.164-.152-.246-.337a3.329 3.329 0 00-.438-.673c-.16-.185-.291-.389-.293-.453-.007-.192-.431-.644-.604-.644-.202 0-.563.414-.563.645 0 .096-.043.174-.095.174-.115 0-.842 1.015-.842 1.175 0 .062-.04.113-.09.113-.05 0-.19.185-.312.41-.12.225-.285.41-.363.41-.079 0-.209.079-.289.175-.33.399-1.133.13-1.492-.501-.175-.306-.195-.962-.03-.962.065 0 .117-.108.117-.24s.132-.362.293-.51c.161-.15.293-.334.293-.41 0-.077.131-.261.292-.41.161-.15.293-.315.293-.368 0-.053.21-.346.468-.651.258-.306.469-.615.469-.687 0-.072.118-.247.263-.389.482-.473.756-1.252.44-1.252-.065 0-.118-.182-.118-.403 0-.222-.053-.436-.117-.475-.064-.04-.117-.277-.117-.526s-.079-.532-.176-.628c-.117-.118-.175-.411-.175-.887 0-.39-.046-.71-.101-.71-.056 0-.128-.505-.16-1.12-.032-.616-.118-1.18-.192-1.253-.173-.174-.188-7.243-.016-7.415.106-.106.263-1.777.425-4.518.04-.678.116-1.063.228-1.156.115-.096.167-.388.167-.944 0-.459.05-.805.117-.805.066 0 .117-.328.117-.749 0-.557.045-.765.176-.815.12-.046.175-.234.175-.591 0-.288.053-.557.118-.596.064-.04.117-.301.117-.58 0-.343.056-.53.175-.575.1-.039.176-.213.176-.409 0-.188.079-.492.175-.677.096-.184.175-.424.175-.533 0-.109.054-.23.118-.27.065-.04.119-.215.12-.388.003-.173.082-.417.177-.542a.97.97 0 00.171-.498c0-.148.053-.27.118-.27.064 0 .117-.125.117-.278 0-.153.079-.344.175-.424a.535.535 0 00.176-.36c0-.116.053-.245.117-.284.064-.04.117-.169.117-.286 0-.117.079-.278.176-.358.096-.08.175-.227.175-.326 0-.098.132-.352.293-.563.16-.21.293-.466.293-.567 0-.1.04-.183.09-.183.05 0 .19-.185.311-.41.121-.226.257-.41.3-.41.044 0 .312-.341.596-.758.285-.417.583-.76.664-.761.08-.002.146-.082.146-.179 0-.096.066-.175.147-.175.082 0 .29-.132.464-.293.173-.16.37-.293.438-.293.067 0 .122-.047.122-.104 0-.057.131-.137.292-.178.161-.04.293-.125.293-.188s.132-.115.293-.115c.16 0 .292-.045.292-.1 0-.056.284-.13.63-.166.346-.036.734-.13.862-.21.19-.12.281-.11.509.048.152.107.475.194.718.194.244 0 .443.053.443.117s.068.117.151.117c.19 0 1.02.838 1.02 1.03 0 .077.052.14.116.14.065 0 .117.108.117.239 0 .13.08.268.176.305.115.044.176.226.176.523 0 .25.052.456.117.456.066 0 .117.344.117.797 0 .52.06.876.172 1.024.252.334.256 3.505.004 3.757-.133.132-.176.46-.176 1.33 0 .645-.052 1.188-.117 1.229-.064.04-.117.389-.117.776 0 .47-.059.762-.176.88-.113.112-.175.402-.175.81 0 .35-.053.636-.117.636-.065 0-.117.258-.117.573 0 .401-.053.593-.176.64-.12.047-.176.235-.176.598 0 .292-.04.53-.09.53-.086 0-.267.583-.484 1.561-.055.247-.16.508-.231.58-.072.072-.131.305-.131.517 0 .213-.053.387-.117.387-.065 0-.117.151-.117.337 0 .185-.08.402-.176.482-.097.08-.176.295-.176.476 0 .182-.052.363-.117.402-.064.04-.117.179-.117.308 0 .13-.079.315-.175.412-.097.096-.176.33-.176.518 0 .189-.053.343-.117.343-.065 0-.117.125-.117.278 0 .153-.08.344-.176.424-.096.08-.175.298-.175.483s-.052.337-.115.337c-.064 0-.148.132-.189.293-.04.16-.12.292-.177.292-.058 0-.105.098-.105.217 0 .12-.132.464-.293.767-.16.303-.292.68-.292.837 0 .177-.068.287-.176.287-.11 0-.175.11-.175.292 0 .161-.053.293-.118.293-.064 0-.117.126-.117.28 0 .154-.079.31-.175.348-.097.037-.176.174-.176.305 0 .13-.053.238-.117.238s-.117.099-.117.22c0 .12-.079.285-.176.365-.096.08-.175.214-.175.298 0 .184-.375.916-.498.97-.048.022-.088.161-.088.31s-.079.3-.175.338c-.097.037-.176.174-.176.305 0 .13-.046.238-.103.238-.057 0-.135.092-.172.205a2.48 2.48 0 01-.172.38c-.056.097-.163.294-.237.438-.167.323-.183 2.372-.018 2.372.064 0 .117.286.117.636 0 .409.062.698.175.81.097.097.176.335.176.53 0 .193.053.384.117.424.064.04.117.196.117.346 0 .15.08.303.176.34a.296.296 0 01.175.256c0 .308.995 1.224 1.33 1.224.16 0 .372.08.468.176.222.221.651.22.947-.004a.905.905 0 01.455-.172c.125 0 .35-.132.499-.293.149-.16.306-.293.349-.293.101 0 .987-.885.987-.987 0-.042.131-.2.292-.349.161-.149.293-.324.293-.39 0-.065.074-.18.165-.255.09-.075.251-.319.357-.541.105-.223.242-.404.303-.404.062 0 .112-.08.112-.176 0-.097.052-.176.117-.176.064 0 .117-.099.117-.22 0-.12.079-.285.175-.365a.543.543 0 00.176-.366c0-.12.049-.22.109-.22.12 0 .476-.658.476-.881 0-.079.08-.21.176-.29.097-.08.176-.27.176-.423 0-.153.052-.279.117-.279.064 0 .117-.126.117-.28 0-.154.079-.31.175-.347a.29.29 0 00.176-.249c0-.182.033-.266.39-.977.108-.215.195-.457.195-.538 0-.14.227-.687.476-1.149.06-.112.11-.34.11-.506 0-.166.079-.381.175-.478.097-.097.176-.33.176-.518 0-.189.053-.343.117-.343.065 0 .117-.205.117-.456 0-.297.061-.48.176-.523.12-.046.175-.235.175-.598 0-.292.053-.53.118-.53.064 0 .117-.258.117-.574 0-.383.054-.593.164-.635.1-.039.188-.306.226-.686.089-.897.356-2.287.458-2.39.049-.047.088-.568.088-1.156 0-.65.053-1.122.135-1.204.075-.075.16-.658.191-1.314.031-.649.103-1.208.158-1.242.056-.034.102-.607.102-1.272 0-.968.035-1.224.175-1.278.14-.053.176-.298.176-1.176 0-.613.052-1.141.117-1.181.065-.04.117-.583.117-1.224 0-.916.036-1.165.176-1.219.139-.053.175-.298.175-1.176 0-.613.053-1.142.117-1.182.065-.04.12-.424.121-.855.002-.503.066-.865.176-1.01.109-.145.172-.499.172-.967 0-.406.05-.738.11-.738s.145-.238.189-.529c.043-.29.125-.557.182-.592.057-.035.104-.155.104-.266 0-.244.977-1.306 1.2-1.306a.507.507 0 00.3-.142c.097-.097.64-.144 1.7-.147 1.932-.005 1.951.008 1.951 1.266 0 .558-.049.893-.135.922-.08.027-.157.43-.19 1.007-.031.53-.102.99-.158 1.025-.056.035-.102.477-.102.983 0 .626-.046.936-.145.968-.094.032-.159.389-.186 1.034-.023.543-.09 1.037-.148 1.098-.059.06-.106.511-.106 1 0 .557-.055.945-.147 1.036-.139.14-.252 1.083-.394 3.29-.036.566-.134 1.09-.23 1.226-.114.163-.166.571-.166 1.3 0 .619-.054 1.117-.13 1.192-.07.071-.157.69-.192 1.374-.035.684-.108 1.272-.163 1.306-.055.034-.1.686-.1 1.45 0 1.006-.04 1.402-.147 1.437-.106.035-.157.542-.185 1.854-.021.992-.087 1.855-.146 1.916-.15.156-.142 7.874.01 7.967.064.04.117.166.117.282 0 .354.404.713.804.713.202 0 .367-.053.367-.117s.063-.117.14-.117c.192 0 .796-.594.796-.783 0-.084.047-.154.105-.154.057 0 .137-.131.178-.292.04-.161.125-.293.188-.293s.115-.099.115-.22c0-.12.079-.285.175-.365a.543.543 0 00.176-.366c0-.12.053-.22.117-.22s.117-.125.117-.278c0-.153.08-.344.176-.424.096-.08.175-.298.175-.483s.053-.337.117-.337c.065 0 .117-.125.117-.278 0-.153.08-.344.176-.424.097-.08.176-.295.176-.476 0-.182.052-.363.117-.402.064-.04.117-.191.117-.336 0-.145.077-.366.172-.49.094-.126.175-.386.18-.58.003-.193.084-.453.178-.578.095-.125.172-.372.172-.549 0-.177.053-.355.117-.394.065-.04.12-.24.121-.446.002-.206.081-.476.176-.601.094-.125.172-.372.172-.55 0-.176.052-.354.117-.394.064-.04.119-.266.12-.504.003-.238.082-.535.176-.66.095-.125.172-.427.172-.673 0-.245.053-.446.117-.446.065 0 .117-.238.117-.53 0-.364.056-.552.176-.598.123-.047.175-.24.175-.64 0-.315.051-.573.114-.573.062 0 .148-.265.19-.588.043-.324.124-.616.18-.651.056-.035.102-.29.102-.568 0-.307.069-.563.175-.652.108-.089.176-.345.176-.658 0-.282.053-.513.117-.513.065 0 .119-.25.121-.556.002-.306.081-.658.176-.783.094-.125.171-.425.171-.666 0-.242.053-.472.118-.512.064-.04.117-.353.117-.697 0-.447.05-.643.175-.691.124-.048.176-.241.176-.657 0-.324.046-.589.102-.589.056 0 .137-.314.18-.699.044-.384.13-.73.192-.768.061-.038.111-.325.111-.638 0-.312.055-.587.123-.61.067-.022.154-.344.192-.715.039-.37.115-.702.17-.737.055-.034.102-.309.104-.61.002-.303.081-.652.176-.777.096-.127.172-.477.172-.79 0-.31.053-.564.117-.564.065 0 .117-.308.117-.69 0-.484.049-.708.164-.752.1-.038.192-.311.233-.686l.139-1.29c.039-.368.145-.73.236-.805.104-.087.165-.368.165-.767 0-.346.05-.63.11-.63s.145-.237.189-.528c.043-.29.125-.557.182-.592.057-.035.105-.153.106-.262.002-.268.626-.959.866-.959a.3.3 0 00.26-.175c.094-.244 1.245-.244 1.448 0 .08.096.195.175.257.175.268 0 .796.776.796 1.17 0 .114.08.272.176.352.14.116.176.456.176 1.647 0 .874.049 1.53.117 1.573.074.046.117 1.563.117 4.167 0 3.531.024 4.103.175 4.162.141.054.176.315.176 1.33 0 1.014-.034 1.276-.176 1.33-.148.057-.175.434-.175 2.398 0 1.755.037 2.362.15 2.456.083.068.201.088.263.043.211-.15.523-.818.523-1.116 0-.164.053-.33.117-.37.065-.04.118-.23.118-.425 0-.194.079-.431.175-.528.097-.097.176-.33.176-.518 0-.19.052-.343.117-.343.064 0 .117-.189.117-.418 0-.23.079-.498.176-.594a.734.734 0 00.175-.453c0-.153.053-.31.117-.35.065-.04.118-.162.118-.27 0-.11.08-.35.176-.534.096-.184.175-.43.175-.546 0-.117.087-.387.195-.602.359-.715.39-.795.394-1.003.002-.113.08-.308.175-.433a.97.97 0 00.172-.498c0-.149.053-.27.117-.27.065 0 .117-.126.117-.279 0-.153.08-.344.176-.424.097-.08.176-.297.176-.482 0-.186.052-.337.117-.337.064 0 .117-.132.117-.293 0-.161.051-.293.115-.293.063 0 .15-.145.193-.322.043-.177.149-.426.236-.553a.946.946 0 00.158-.439c0-.114.053-.208.117-.208.065 0 .117-.106.117-.236s.132-.445.293-.7c.161-.255.293-.564.293-.686 0-.122.079-.288.175-.368.097-.08.176-.271.176-.424 0-.153.053-.278.117-.278s.117-.127.117-.28c0-.155.08-.311.176-.348a.292.292 0 00.175-.252c0-.101.193-.393.429-.648.351-.38.507-.463.865-.463.603 0 .814.345.814 1.334 0 .517.055.813.175.933.145.144.176.605.176 2.642 0 1.567.043 2.467.117 2.467.077 0 .117 3.004.117 8.778v8.778l.307.201c.293.192.314.191.468-.02.093-.126.162-.506.162-.893 0-.37.052-.706.117-.746.064-.04.117-.415.117-.835 0-.521.055-.818.175-.938.113-.112.176-.401.176-.804 0-.346.053-.661.117-.701.065-.04.119-.346.121-.68.002-.348.077-.705.176-.835.095-.126.171-.476.171-.783 0-.306.053-.59.118-.629.064-.04.117-.24.117-.446 0-.205.08-.524.176-.709.096-.184.177-.553.179-.82.002-.266.08-.586.175-.71.095-.126.172-.4.172-.609 0-.209.053-.413.117-.452.065-.04.119-.267.121-.505.002-.238.081-.534.176-.66.094-.124.171-.398.171-.607 0-.21.053-.413.118-.453.064-.04.117-.23.117-.425 0-.194.079-.432.175-.528.097-.097.176-.327.176-.512s.053-.368.117-.408c.064-.04.117-.247.117-.461 0-.214.079-.454.176-.534a.528.528 0 00.175-.352c0-.114.079-.358.175-.542.096-.185.175-.425.176-.534 0-.108.053-.23.118-.27.064-.04.117-.197.117-.349 0-.151.088-.451.195-.666.363-.725.39-.796.39-1.04 0-.135.079-.324.176-.42a.744.744 0 00.175-.46c0-.157.053-.284.117-.284.065 0 .117-.126.117-.279 0-.153.08-.344.176-.424a.535.535 0 00.176-.359c0-.117.052-.245.117-.285.064-.04.117-.202.117-.362 0-.159.079-.32.175-.357.097-.037.176-.193.176-.347 0-.154.052-.28.115-.28s.148-.132.188-.293c.04-.16.12-.293.178-.293.057 0 .105-.092.105-.205 0-.112.27-.507.598-.878.922-1.039 1.35-.911 1.568.468.043.273.126.527.185.563.157.097.138 3.067-.02 3.12-.084.027-.149 1.05-.193 3.053-.037 1.656-.112 3.011-.166 3.011-.055 0-.1 3.53-.1 7.845 0 4.455.045 7.844.104 7.844.057 0 .125.878.15 1.952.034 1.393.088 1.967.19 2 .1.034.142.413.142 1.26 0 .667.045 1.24.1 1.275.055.034.135.444.179.912.043.467.13.9.193.963.062.063.113.334.113.603 0 .292.071.548.176.635.097.08.176.294.176.476 0 .181.052.362.117.402.064.04.118.162.119.27.003.337.519.725.962.725.391 0 .792-.279.792-.55 0-.068.079-.19.176-.27.096-.08.175-.267.175-.416 0-.15.053-.304.117-.344.065-.04.117-.353.117-.695 0-.411.06-.673.176-.769.13-.108.176-.396.176-1.117 0-.597.049-.987.127-1.013.148-.05.332-2.53.414-5.591.036-1.335.103-2.102.194-2.212.084-.1.157-.694.182-1.469.023-.715.09-1.35.148-1.412.058-.061.105-.569.105-1.129 0-.796.038-1.032.176-1.085.133-.05.176-.266.176-.884 0-.449.052-.849.117-.888.064-.04.117-.38.117-.756 0-.478.049-.702.164-.746.101-.039.186-.302.222-.685.076-.82.29-1.755.434-1.9.064-.064.116-.317.116-.561 0-.245.052-.445.116-.445s.15-.212.191-.471c.041-.26.121-.5.177-.534.056-.034.103-.204.105-.378.002-.173.082-.417.176-.542a.969.969 0 00.172-.498c0-.148.053-.27.117-.27s.117-.125.117-.278c0-.153.08-.344.176-.424.096-.08.175-.298.175-.483s.053-.337.117-.337c.065 0 .117-.107.117-.238 0-.13.08-.268.176-.305.097-.037.176-.193.176-.348 0-.154.04-.28.09-.28.05 0 .195-.197.322-.439.127-.241.297-.508.378-.593.08-.086.146-.207.146-.27 0-.062.132-.245.293-.406.161-.161.293-.33.294-.375 0-.046.185-.277.41-.514.224-.237.408-.487.408-.556 0-.069.075-.125.166-.125.091 0 .183-.04.205-.089.078-.176 1.023-.855 1.426-1.023.226-.095.445-.226.485-.291.04-.065.229-.119.418-.119.19 0 .344-.053.344-.117 0-.155 2.07-.155 2.166 0 .04.064.195.117.346.117.15 0 .303.08.34.176.038.096.175.175.306.175.13 0 .237.053.237.117 0 .065.106.117.235.117.169 0 .234-.078.234-.28 0-.154.079-.31.175-.347.097-.037.176-.161.177-.276 0-.286.517-.501 1.201-.501.573 0 .905.18.905.492 0 .087.078.27.174.406.153.218.153.264 0 .391-.14.117-.174.51-.174 2.055 0 1.147-.046 1.94-.117 1.983-.073.045-.117 1.194-.117 3.059 0 2.499-.028 3.015-.175 3.162-.153.153-.176 1.106-.176 7.137 0 6.08.022 6.97.176 7.03.144.055.175.355.175 1.686 0 .954.048 1.65.117 1.692.065.04.117.414.117.83 0 .566.045.775.176.826.104.04.177.218.178.435.001.202.103.498.225.657.177.23.317.284.698.27.486-.02.994-.3 1.116-.618.038-.096.252-.516.477-.932.225-.417.41-.865.412-.996a.945.945 0 01.176-.465c.094-.125.172-.398.172-.608 0-.209.052-.413.117-.452.064-.04.119-.24.12-.446.003-.206.082-.476.176-.601.095-.125.172-.399.172-.608 0-.21.053-.413.117-.453.065-.04.117-.3.117-.578 0-.306.07-.563.176-.651.1-.083.176-.338.176-.593 0-.246.052-.48.117-.52.064-.04.117-.266.117-.504s.08-.583.176-.767a2 2 0 00.175-.777 2 2 0 01.175-.777c.096-.185.175-.556.175-.826 0-.27.054-.523.118-.563.065-.04.117-.353.117-.696 0-.343.079-.775.175-.96.096-.184.175-.637.176-1.008 0-.37.053-.673.118-.673.068 0 .117-.393.117-.945 0-.684.048-.993.175-1.12.132-.132.176-.455.176-1.28 0-.658.047-1.104.117-1.104.072 0 .117-.561.117-1.45 0-1.182.033-1.464.176-1.52.147-.056.175-.422.175-2.295 0-1.407.043-2.228.117-2.228.075 0 .122-.973.13-2.663.005-1.465.045-2.777.087-2.915.124-.409.621-.978.855-.978.119 0 .216-.053.216-.117 0-.167 1.008-.145 1.314.03.637.361.91.829.91 1.553 0 .327.064.658.142.736.107.107.153 1.988.188 7.663.025 4.224.092 7.57.15 7.632.06.063.106 2.809.106 6.337 0 5.342.025 6.246.173 6.37.134.111.18.519.205 1.856.028 1.524.055 1.718.237 1.753.156.03.205-.04.205-.291 0-.182.08-.482.176-.666.096-.184.175-.562.175-.84 0-.276.058-.522.128-.546.071-.023.157-.292.192-.597.034-.306.108-.584.164-.618.055-.035.101-.3.101-.591 0-.314.072-.6.176-.704.096-.097.175-.383.175-.636s.053-.46.118-.46c.064 0 .117-.257.117-.573 0-.4.052-.593.175-.64.116-.044.176-.227.176-.532 0-.256.053-.498.117-.538.064-.04.117-.217.117-.394 0-.177.077-.424.172-.55.094-.124.175-.41.18-.636.003-.226.084-.512.179-.637.094-.125.171-.372.171-.55 0-.177.053-.354.118-.394.064-.04.117-.253.117-.475 0-.222.05-.403.111-.403.062 0 .144-.197.182-.439.039-.241.12-.53.181-.642.061-.112.111-.364.111-.56 0-.209.073-.384.176-.424.107-.041.175-.219.175-.458 0-.214.053-.422.117-.462.065-.04.117-.248.117-.463 0-.239.069-.416.176-.458.11-.042.176-.221.176-.48 0-.228.052-.414.117-.414.064 0 .117-.092.118-.205 0-.113.079-.356.175-.54.096-.185.175-.465.175-.623a.75.75 0 01.176-.463c.096-.097.175-.33.175-.519 0-.188.053-.343.117-.343.065 0 .117-.151.117-.337 0-.185.08-.402.176-.482.097-.08.176-.268.176-.418 0-.149.052-.304.117-.343.064-.04.117-.222.117-.404 0-.187.076-.362.175-.4.097-.037.177-.16.178-.276.002-.24.232-.91.44-1.283.08-.141.143-.391.143-.557 0-.165.043-.3.095-.3.128 0 .49-.84.49-1.137 0-.132.08-.305.176-.385a.535.535 0 00.176-.359c0-.117.053-.245.117-.285.064-.04.117-.222.117-.404 0-.187.077-.361.176-.4.096-.036.175-.17.175-.298 0-.127.053-.263.117-.303.065-.04.118-.178.118-.308s.079-.314.175-.411a.73.73 0 00.176-.45c0-.151.04-.292.088-.314.145-.064.497-.803.497-1.043 0-.124.05-.225.11-.225s.146-.119.192-.264c.13-.413.646-.79 1.082-.79.685 0 .724.122.724 2.266 0 1.562.033 1.966.175 2.108.154.154.176 1.588.176 11.482 0 6.395.044 11.306.102 11.306.057 0 .126.8.153 1.778.035 1.233.094 1.792.19 1.824.09.03.141.33.144.828.002.5.065.862.175 1.007.095.125.172.324.172.44 0 .225.182.6.458.943.448.558 1.533-.155 1.533-1.009 0-.154.079-.345.175-.425.116-.096.176-.358.176-.769 0-.342.053-.655.117-.695.064-.04.117-.459.117-.93 0-.656.042-.875.176-.927.118-.045.175-.232.175-.574 0-.571.219-1.137.44-1.139.08 0 .146-.053.146-.118 0-.226.995-.13 1.265.122.236.22.257.35.257 1.632 0 .803-.05 1.424-.117 1.466-.065.04-.118.293-.118.563 0 .27-.08.641-.176.826-.096.184-.175.566-.175.849 0 .282-.05.513-.113.513-.062 0-.148.265-.19.588-.044.324-.125.616-.18.651-.056.035-.104.231-.106.436-.002.206-.08.476-.175.601-.095.125-.172.402-.172.615 0 .213-.053.387-.117.387-.065 0-.117.18-.117.398 0 .245-.068.423-.176.464-.102.04-.176.214-.176.416 0 .191-.052.38-.117.42-.064.04-.117.195-.117.346 0 .15-.079.303-.175.34-.097.037-.176.201-.176.364 0 .163-.049.296-.108.296-.06 0-.142.158-.184.35-.043.193-.126.38-.185.417-.06.037-.108.146-.108.243s-.132.35-.293.56c-.161.212-.293.466-.293.566a.29.29 0 01-.175.248c-.097.037-.176.14-.176.229 0 .21-1.14 1.368-1.605 1.631-.2.113-.447.205-.55.205-.103 0-.187.053-.187.117 0 .175-.289.143-.785-.087-.551-.256-.96-.666-1.263-1.264-.13-.255-.274-.48-.322-.502-.049-.022-.088-.168-.088-.326s-.08-.317-.176-.354c-.108-.042-.175-.22-.175-.465 0-.218-.053-.397-.118-.397-.064 0-.117-.207-.117-.46s-.079-.539-.175-.635c-.104-.105-.176-.39-.176-.704 0-.29-.053-.561-.117-.6-.064-.04-.117-.35-.117-.688 0-.36-.071-.709-.172-.842-.113-.15-.173-.515-.176-1.069-.002-.463-.048-.87-.102-.903-.054-.034-.135-.945-.179-2.026-.044-1.09-.13-1.983-.194-2.005-.072-.025-.114-3.007-.114-8.152 0-6.588-.029-8.137-.155-8.241-.214-.178-.43.056-.43.468 0 .176-.053.353-.117.393-.065.04-.119.214-.12.387a1.071 1.071 0 01-.177.543.959.959 0 00-.171.49c0 .145-.049.293-.107.33-.06.036-.143.276-.186.533-.044.257-.127.497-.186.533-.059.036-.108.208-.11.381a1.072 1.072 0 01-.176.542c-.095.125-.172.402-.172.615 0 .213-.053.387-.117.387-.065 0-.117.189-.117.419 0 .23-.08.497-.176.593-.096.097-.175.327-.175.512s-.053.368-.117.408c-.065.04-.118.274-.118.52 0 .254-.075.51-.175.592-.107.09-.176.346-.176.659 0 .282-.053.512-.117.512s-.117.145-.118.322c0 .177-.08.473-.175.658a1.995 1.995 0 00-.179.76c-.002.235-.081.528-.176.653-.094.125-.171.399-.171.608 0 .21-.053.413-.117.453-.065.04-.118.353-.118.697 0 .447-.05.644-.175.692-.12.046-.176.233-.176.59 0 .289-.053.557-.117.597-.064.04-.117.326-.117.636 0 .359-.064.617-.176.71-.112.093-.175.352-.175.717 0 .314-.053.571-.117.571-.066 0-.117.328-.117.748 0 .558-.045.766-.176.816-.126.049-.176.245-.176.692 0 .343-.055.68-.123.748-.068.068-.155.423-.193.788-.037.365-.113.692-.169.726-.055.034-.102.362-.104.728-.002.4-.072.757-.175.894-.1.132-.172.482-.172.842 0 .338-.053.647-.117.687-.065.04-.117.389-.117.776 0 .47-.059.762-.176.88-.097.096-.176.326-.176.51 0 .186-.052.37-.117.41-.064.039-.117.166-.117.282 0 .135-.215.322-.596.52-.614.319-1.043.398-1.043.192 0-.064-.092-.118-.205-.12-.226-.004-.966-.627-.966-.815a.118.118 0 00-.117-.118c-.064 0-.117-.128-.117-.285a.744.744 0 00-.175-.46c-.097-.096-.176-.363-.176-.593 0-.23-.053-.418-.117-.418s-.117-.198-.118-.44c0-.241-.08-.59-.175-.774-.097-.184-.175-.616-.175-.959 0-.343-.045-.651-.1-.685-.056-.035-.138-.657-.184-1.383-.045-.726-.132-1.37-.192-1.432-.065-.066-.11-2.337-.11-5.58 0-3.009-.032-5.554-.07-5.656-.119-.307-.4-.208-.475.169-.039.194-.116.382-.172.417-.056.034-.102.316-.102.627 0 .358-.064.617-.176.71-.105.087-.176.343-.176.634 0 .27-.052.542-.116.606-.12.12-.326.942-.435 1.739-.034.254-.135.534-.224.623-.089.088-.161.338-.161.555 0 .217-.053.427-.117.467-.065.04-.117.275-.117.521 0 .291-.062.473-.176.517-.11.042-.176.221-.176.48 0 .228-.052.414-.117.414-.064 0-.117.188-.117.418 0 .23-.079.497-.175.594-.097.096-.176.327-.176.511 0 .185-.053.369-.117.409-.064.04-.117.161-.118.27 0 .109-.08.349-.175.533-.097.185-.175.481-.175.66 0 .177-.08.388-.176.469-.097.08-.176.294-.176.475 0 .182-.052.363-.117.403-.064.04-.118.187-.12.328a.972.972 0 01-.176.484.97.97 0 00-.172.498c0 .148-.053.27-.117.27s-.117.153-.117.339c0 .193-.076.368-.176.406-.096.037-.175.198-.175.357 0 .159-.053.322-.117.362-.065.04-.117.172-.117.293 0 .122-.067.264-.148.315-.081.052-.251.292-.378.533-.127.242-.27.44-.32.44-.05 0-.092.065-.093.145-.002.19-.554.798-.96 1.057-.562.358-1.048.268-1.547-.288-.243-.27-.487-.613-.544-.761-.056-.15-.156-.27-.222-.27s-.12-.106-.12-.235-.053-.234-.117-.234c-.065 0-.117-.1-.117-.22a.543.543 0 00-.176-.366c-.097-.08-.176-.27-.176-.424 0-.153-.052-.278-.117-.278-.064 0-.117-.122-.117-.27a.969.969 0 00-.172-.498c-.094-.125-.173-.398-.175-.608-.002-.209-.057-.38-.121-.38-.065 0-.117-.188-.117-.416 0-.518-.416-1.457-.644-1.457-.094 0-.278.223-.41.497-.13.274-.282.577-.335.673-.053.097-.148.281-.211.41-.249.508-.573 1.057-.713 1.206a.57.57 0 00-.146.324c0 .092-.04.168-.09.168-.089 0-.3.347-.445.731-.043.113-.124.205-.181.205-.057 0-.103.05-.103.111s-.132.254-.293.427c-.161.174-.293.362-.293.418 0 .23-1.645 1.703-2.123 1.9-.28.117-.614.267-.74.333-.163.086-.241.083-.273-.012-.024-.073-.166-.133-.314-.133-.341 0-1.655-.957-1.757-1.28-.042-.133-.126-.242-.186-.242s-.11-.079-.11-.175c0-.097-.051-.176-.114-.176s-.148-.132-.189-.293c-.04-.16-.12-.292-.177-.292-.058 0-.105-.073-.105-.162 0-.088-.079-.226-.175-.307-.097-.08-.176-.27-.176-.424 0-.153-.053-.278-.117-.278s-.117-.132-.117-.293c0-.182-.066-.292-.176-.292-.122 0-.175-.123-.175-.403 0-.222-.053-.436-.117-.476-.065-.04-.118-.22-.118-.402 0-.181-.079-.395-.175-.476-.105-.087-.176-.343-.176-.636 0-.335-.077-.573-.244-.753-.325-.348-.509-.266-.553.248-.02.232-.111.484-.204.561-.1.084-.17.35-.17.653 0 .282-.052.513-.117.513-.064 0-.117.204-.117.454 0 .26-.075.516-.175.6-.097.08-.176.294-.176.475 0 .182-.053.363-.117.403-.064.04-.119.187-.12.328a.972.972 0 01-.176.484.97.97 0 00-.172.498c0 .148-.041.27-.09.27-.05 0-.194.198-.32.44-.448.857-1.814 1.923-2.03 1.584-.043-.067-.249-.158-.458-.204-.21-.045-.38-.13-.38-.19a.11.11 0 00-.114-.108c-.148 0-.823-.662-.823-.807 0-.062-.068-.182-.15-.268-.084-.085-.244-.352-.358-.593-.113-.242-.256-.44-.317-.44-.062 0-.112-.105-.112-.235s-.045-.327-.1-.44c-.348-.708-.724-1.72-.805-2.165-.032-.178-.105-.352-.162-.387-.057-.035-.104-.268-.104-.517 0-.25-.079-.532-.175-.629-.105-.105-.176-.391-.176-.71 0-.295-.053-.536-.117-.536s-.117-.286-.117-.636c0-.408-.063-.698-.176-.81-.12-.12-.175-.417-.175-.939 0-.42-.046-.79-.102-.825-.057-.035-.127-.523-.156-1.084-.033-.63-.106-1.037-.19-1.065-.095-.032-.138-.493-.138-1.493 0-.796-.044-1.474-.099-1.508-.054-.034-.137-1.789-.183-3.9-.046-2.11-.133-3.888-.193-3.95-.06-.06-.11-.99-.11-2.063 0-1.55-.034-1.981-.167-2.092-.236-.195-.418.18-.418.857 0 .29-.053.56-.117.6-.065.04-.117.323-.117.628 0 .308-.077.658-.172.784-.103.136-.174.494-.176.89-.002.366-.06.683-.13.706-.069.023-.155.371-.192.774-.036.403-.111.76-.167.794-.055.034-.1.406-.1.825 0 .521-.056.818-.176.938-.112.112-.175.402-.175.804 0 .346-.053.661-.117.701-.065.04-.12.425-.121.856-.002.502-.066.865-.176 1.01-.112.148-.172.504-.172 1.018 0 .435-.052.823-.117.863-.064.04-.117.458-.117.929 0 .619-.049.897-.175 1.002-.13.107-.176.39-.176 1.062 0 .503-.048.944-.106.98-.059.037-.144.567-.19 1.18-.046.613-.13 1.143-.186 1.178-.057.035-.103.576-.103 1.204 0 .717-.052 1.191-.138 1.278-.082.082-.158.669-.188 1.457-.028.726-.098 1.37-.156 1.432-.057.06-.104.594-.104 1.185 0 .813-.043 1.11-.175 1.22a.524.524 0 00-.176.349c0 .277-.654.94-.928.94-.123 0-.245.065-.272.146-.039.114-.11.116-.332.007a4.09 4.09 0 00-.57-.22c-.314-.09-.59-.322-.59-.497 0-.06-.08-.176-.176-.257-.097-.08-.176-.27-.176-.424 0-.153-.053-.278-.117-.278-.065 0-.117-.313-.117-.706 0-.52-.047-.724-.176-.774-.134-.051-.175-.271-.175-.933 0-.499-.05-.865-.118-.865-.066 0-.117-.347-.117-.805 0-.573-.05-.848-.175-.951-.13-.109-.176-.397-.176-1.12 0-.536-.044-1.002-.1-1.035-.054-.034-.132-.577-.173-1.207-.042-.63-.129-1.163-.194-1.184-.07-.024-.118-.595-.118-1.42 0-1.085-.038-1.413-.176-1.527-.143-.119-.176-.502-.176-2.063 0-1.2-.043-1.918-.117-1.918-.076 0-.117-2.317-.117-6.718 0-5.43-.03-6.742-.155-6.846-.204-.17-.43.05-.43.416 0 .148-.052.27-.116.27-.063 0-.15.212-.19.47-.042.26-.122.5-.178.534-.056.035-.103.231-.105.437-.002.205-.081.476-.176.6-.094.126-.172.402-.172.615 0 .213-.052.388-.117.388-.064 0-.117.257-.117.572 0 .402-.052.594-.175.64-.11.043-.176.222-.176.482 0 .227-.053.413-.117.413-.065 0-.117.24-.117.535 0 .32-.07.606-.176.711-.096.097-.175.38-.175.629s-.05.483-.11.52c-.06.037-.144.357-.189.71-.044.355-.127.673-.183.708-.057.036-.104.32-.104.633 0 .33-.057.588-.137.615-.077.025-.16.363-.19.77-.029.4-.099.725-.155.725-.057 0-.105.277-.107.615-.002.354-.077.711-.176.842-.1.133-.171.483-.171.842 0 .338-.053.647-.118.687-.064.04-.117.405-.117.812 0 .515-.053.784-.175.885-.127.106-.176.385-.176 1.01 0 .498-.05.864-.117.864-.065 0-.117.322-.118.731 0 .42-.075.875-.175 1.067-.1.192-.175.645-.175 1.06 0 .398-.056.78-.125.85-.069.068-.156.528-.193 1.021-.037.494-.113.926-.168.96-.055.033-.1.396-.1.806 0 .444-.052.761-.13.788-.073.024-.159.42-.192.887-.033.465-.106.845-.162.845-.055 0-.101.32-.101.71 0 .476-.058.77-.176.887a.744.744 0 00-.175.46c0 .156-.053.284-.117.284a.115.115 0 00-.117.113c0 .33-1.208 1.175-1.68 1.175-.099 0-.212.053-.252.117-.125.202-2.017.144-2.346-.072-.257-.168-.288-.271-.288-.937 0-.41.046-.747.103-.747.057 0 .14-.342.185-.76.045-.418.13-.79.19-.826.058-.037.107-.428.107-.87 0-.496.05-.82.133-.847.077-.026.158-.425.191-.947.032-.496.104-.902.16-.902.056 0 .103-.381.105-.848.002-.56.062-.926.176-1.076.114-.152.172-.512.172-1.083 0-.493.05-.856.117-.856.07 0 .117-.432.117-1.062 0-.788.045-1.107.175-1.238.133-.132.176-.46.176-1.338 0-.697.047-1.162.117-1.162.071 0 .117-.503.117-1.274 0-.989.04-1.306.176-1.419.14-.116.175-.462.175-1.702 0-1.01.045-1.571.127-1.599.08-.027.15-.795.193-2.121.037-1.144.112-2.107.167-2.14.054-.034.099-1.793.099-3.909 0-2.92.034-3.858.142-3.894.16-.053.289-2.33.161-2.838-.174-.695-.889.019-.889.887 0 .308-.052.593-.117.633-.064.04-.117.336-.117.659 0 .365-.066.653-.175.762-.109.109-.176.396-.176.753 0 .317-.053.577-.117.577-.065 0-.117.253-.117.563 0 .314-.076.663-.172.79-.095.125-.174.478-.176.783-.002.306-.053.557-.113.557-.06 0-.143.25-.182.556-.04.306-.122.647-.183.76-.06.111-.11.444-.11.74 0 .32-.071.607-.176.712-.097.096-.176.38-.176.628 0 .25-.053.486-.117.526-.065.04-.117.283-.117.542 0 .261-.078.547-.176.645-.102.103-.175.389-.175.687 0 .282-.053.545-.118.584-.064.04-.117.301-.117.58 0 .343-.056.53-.175.575-.12.046-.176.234-.176.598 0 .292-.048.53-.106.53-.058 0-.142.264-.187.586-.044.321-.128.614-.186.65-.059.037-.106.215-.106.397 0 .182-.079.482-.175.666a1.703 1.703 0 00-.176.65c0 .174-.053.348-.118.388-.064.04-.117.231-.117.425 0 .194-.079.432-.175.528-.097.097-.176.353-.176.57 0 .217-.053.428-.117.467-.064.04-.117.275-.117.522 0 .29-.062.472-.176.516-.101.039-.175.214-.175.415 0 .192-.053.38-.117.42-.065.04-.117.221-.117.403 0 .181-.08.395-.176.476-.097.08-.176.3-.176.49s-.079.425-.175.522a.653.653 0 00-.176.394c0 .12-.053.251-.117.291-.064.04-.117.205-.117.367s-.079.373-.176.47a.734.734 0 00-.175.453c0 .152-.053.31-.117.35-.065.04-.117.178-.117.307 0 .13-.08.315-.176.412a.744.744 0 00-.176.46c0 .156-.052.284-.117.284-.064 0-.117.109-.117.242a.683.683 0 01-.175.418.661.661 0 00-.176.402c0 .124-.053.226-.117.226s-.117.095-.117.211c0 .117-.078.314-.172.44a.983.983 0 00-.176.49c-.002.145-.055.264-.118.264s-.148.131-.189.292c-.04.161-.12.293-.177.293-.058 0-.105.132-.105.293 0 .16-.05.292-.111.292-.062 0-.205.198-.318.44-.113.24-.274.508-.357.593a.553.553 0 00-.15.322c0 .092-.053.167-.117.167a.117.117 0 00-.118.117c0 .116-.106.257-.657.87-.153.172-.28.349-.282.394-.004.119-1.436 1.078-1.608 1.078-.08 0-.145.053-.145.117 0 .145-.782.157-.87.013-.036-.057-.2-.138-.367-.18-.166-.042-.443-.22-.615-.398-.413-.425-.958-1.52-.958-1.924 0-.177-.045-.32-.1-.32-.055 0-.132-.382-.171-.848-.04-.466-.126-.866-.193-.888-.077-.026-.122-.736-.122-1.956 0-1.15-.046-1.944-.117-1.987-.07-.043-.117-.777-.117-1.807 0-2.06-.06-2.466-.366-2.466-.153 0-.22.084-.22.28 0 .154-.078.31-.175.347-.096.037-.175.201-.175.364 0 .163-.053.297-.117.297-.065 0-.117.127-.117.284a.744.744 0 01-.176.46c-.097.096-.176.244-.176.328 0 .142-.474 1.215-.716 1.62a2.856 2.856 0 00-.173.352c-.164.42-.35.772-.486.915a.56.56 0 00-.147.322c0 .092-.052.167-.117.167-.064 0-.117.132-.117.293 0 .161-.067.293-.15.293-.082 0-.212.145-.288.322-.213.493-.53 1.002-.821 1.313-.145.155-.263.353-.263.44 0 .086-.079.187-.175.224-.097.037-.176.116-.176.175 0 .3-2.853 3.146-3.154 3.146-.059 0-.177.067-.262.15-.085.083-.366.244-.623.357-.258.114-.56.256-.672.318-.27.148-1.695.143-1.787-.006zm66.627-6.582c.22-.208.4-.432.4-.5 0-.066.124-.256.277-.421.154-.165.315-.415.36-.555.044-.14.13-.255.19-.255s.109-.126.109-.28c0-.154.079-.31.176-.348.096-.037.175-.17.175-.298 0-.127.053-.263.117-.303.065-.04.117-.195.117-.346 0-.15.08-.303.176-.34.096-.037.176-.198.176-.357 0-.16.052-.322.117-.362.065-.04.117-.587.117-1.236 0-.698-.047-1.164-.117-1.164-.146 0-.164-13.656-.019-13.745.055-.034.135-.813.179-1.731.044-.919.131-1.721.194-1.784.063-.063.114-.626.114-1.252 0-.71.047-1.153.126-1.18.07-.023.156-.477.193-1.008.036-.532.111-.994.166-1.028.055-.034.1-.432.1-.883 0-.574.053-.874.176-.997.115-.115.176-.406.176-.846 0-.37.054-.726.121-.793.072-.071.108-.548.088-1.155l-.034-1.032-.468-.269c-.542-.31-1.136-.355-1.388-.103-.097.097-.262.176-.367.176-.226 0-1.46 1.244-1.704 1.719-.094.181-.236.372-.317.423-.08.052-.146.197-.146.322 0 .126-.053.228-.117.228-.065 0-.117.127-.117.28 0 .155-.08.311-.176.348-.097.037-.176.2-.176.364 0 .163-.05.296-.111.296-.062 0-.147.185-.189.41-.042.225-.124.41-.181.41-.057 0-.106.145-.108.322a1.085 1.085 0 01-.175.549.959.959 0 00-.172.49c0 .146-.053.297-.117.336-.065.04-.117.274-.117.52 0 .254-.076.51-.176.593-.107.089-.176.345-.176.658 0 .282-.052.512-.117.512-.064 0-.117.241-.117.536 0 .32-.07.606-.175.71-.117.117-.176.409-.176.863 0 .378-.047.717-.105.752-.058.036-.142.487-.188 1.003-.045.516-.13.967-.188 1.003-.057.035-.104.683-.104 1.44 0 .943-.046 1.42-.147 1.52-.11.111-.146 1.061-.146 3.94 0 2.878.035 3.828.146 3.94.104.103.147.635.147 1.813 0 .917.044 1.695.099 1.729.055.034.133.494.174 1.023.04.53.127 1.016.193 1.081.065.066.119.395.119.732 0 .388.064.676.176.787.096.097.175.364.175.594 0 .23.053.418.117.418.065 0 .117.128.117.285 0 .156.08.363.176.46.097.096.176.246.176.333 0 .087.169.354.375.594.327.38.442.436.888.436.417 0 .588-.071.913-.377zm-67.434-8.736a1.9 1.9 0 01.266-.404c.072-.072.13-.252.13-.4 0-.148.05-.27.109-.27s.142-.157.185-.35c.042-.194.125-.352.184-.352.06 0 .108-.109.108-.242s.08-.322.176-.418a.734.734 0 00.175-.453c0-.153.053-.31.118-.35.064-.04.117-.178.117-.308s.079-.315.175-.411a.744.744 0 00.176-.46c0-.157.053-.285.117-.285s.117-.151.117-.336c0-.186.079-.403.176-.483.096-.08.175-.268.175-.417 0-.15.053-.304.117-.344.065-.04.117-.191.117-.336 0-.145.078-.366.172-.49.095-.125.174-.399.176-.608.002-.21.052-.38.111-.38.112 0 .339-.795.442-1.548.033-.239.133-.495.224-.57.09-.075.163-.31.163-.524 0-.214.053-.422.117-.461.065-.04.12-.267.121-.505.002-.237.081-.534.176-.66.094-.124.172-.45.172-.724 0-.274.052-.53.117-.57.064-.04.117-.327.117-.638 0-.395.053-.587.175-.634.129-.049.176-.25.176-.75 0-.375.06-.742.132-.815.073-.072.159-.506.192-.962.032-.457.105-.86.16-.894.133-.082.132-6.02 0-6.02-.056 0-.131-.178-.167-.397-.106-.655-.394-.89-1.087-.89-.569 0-.627.03-1.086.549-.267.302-.486.638-.486.747a.519.519 0 01-.175.343c-.097.08-.176.297-.176.482 0 .186-.052.337-.117.337-.064 0-.117.136-.117.301 0 .166-.079.38-.176.477-.096.097-.175.356-.175.577 0 .22-.046.401-.102.401-.056 0-.137.262-.18.581-.042.32-.127.612-.19.65-.062.04-.114.327-.114.64 0 .325-.057.588-.134.613-.074.025-.16.347-.19.715-.031.368-.102.698-.159.733-.056.034-.102.344-.102.687 0 .343-.079.774-.175.958-.096.185-.175.636-.175 1.002 0 .367-.054.699-.118.739-.065.04-.117.494-.117 1.01 0 .678-.049.987-.176 1.114-.131.131-.176.453-.176 1.272 0 .605-.052 1.13-.117 1.17-.069.042-.117.738-.117 1.69 0 1.295-.035 1.647-.175 1.764-.148.122-.176.63-.176 3.214 0 1.688.037 3.106.083 3.152.16.16.557.011.69-.259zM63.13 33.288c-.643-.554-.657-.617-.643-2.989.013-2.201.074-2.534.674-3.637.932-1.712 2.112-2.038 3.582-.988 1.25.893 1.631 3.434.788 5.252-.508 1.095-1.736 2.325-2.673 2.679-.903.34-.98.326-1.728-.317z" fill="#0d102b"/>
  <path d="M150.452 105.114c-.381-.154-1.166-1.737-1.606-3.239-.188-.644-.437-1.382-.553-1.64-.116-.257-.428-1.31-.694-2.34a313.78 313.78 0 00-.963-3.63c-1.09-3.993-1.175-4.443-.919-4.922.36-.673 1.58-.632 1.854.063 1.021 2.596 1.328 3.2 1.96 3.864.399.418.918.76 1.155.76.573 0 1.585-.677 1.585-1.06 0-.168.111-.342.247-.387.136-.046.421-1.187.634-2.537.213-1.35.458-2.507.545-2.571.088-.065.291-1.119.453-2.342.163-1.223.377-2.386.477-2.583.1-.197.355-1.62.568-3.161.212-1.541.477-3.013.588-3.27.111-.259.317-1.365.457-2.46.14-1.094.362-2.411.494-2.926.229-.897.668-3.774 1.628-10.655.242-1.738.544-3.582.671-4.097.127-.515.358-2.254.513-3.864.155-1.61.36-3.032.455-3.16.095-.13.354-2.184.577-4.567.222-2.382.493-4.542.601-4.8.109-.258.319-2.154.467-4.215.148-2.06.359-3.957.469-4.215.232-.543.934-11.44.93-14.445-.001-1.119.103-2.1.231-2.18.305-.188.305-1.685 0-1.873-.128-.08-.238-.744-.243-1.477-.005-.733-.152-3.071-.326-5.196-.383-4.675-.25-5.387 1.065-5.712.93-.23 1.728-.085 2.405.436.386.297.482.922.747 4.894.168 2.504.41 5.169.538 5.921.13.753.352 2.896.495 4.764.144 1.867.35 3.606.458 3.863.109.258.371 2.284.584 4.503.213 2.219.48 4.326.593 4.683.114.357.328 1.913.475 3.459.148 1.545.334 2.967.415 3.16.172.414 1.067 7.776 1.64 13.505.222 2.21.483 4.099.58 4.195.096.096.176.71.177 1.365.003 1.648.262 3.649.472 3.649.204 0 .279-.316.99-4.215.294-1.61.6-3.033.681-3.161.08-.13.275-1.077.433-2.108.157-1.03.417-2.294.58-2.81.16-.515.426-1.832.589-2.926.162-1.095.375-2.096.472-2.225.097-.129.303-1.024.459-1.99.155-.966.47-2.494.7-3.395.23-.902.496-2.22.59-2.927.095-.709.253-1.394.351-1.522.099-.13.366-1.34.595-2.693.23-1.352.494-2.564.588-2.693.094-.129.301-1.024.46-1.99.158-.966.375-1.922.48-2.123.106-.202.36-1.361.564-2.576.205-1.215.471-2.42.593-2.677.122-.258.382-1.259.579-2.225 1.277-6.27 1.802-8.07 2.422-8.308.632-.242 1.278.752 1.134 1.744-.728 5.03-.776 38.155-.066 46.254.192 2.189.477 6.272.634 9.073.156 2.801.374 5.093.484 5.093.11 0 .2.47.2 1.044 0 3.78 1.095 8.82 1.952 8.984.587.113 1.488-.784 1.818-1.809.15-.464.354-.949.454-1.077.162-.207.57-1.921 1.177-4.952.107-.533.304-3.471.438-6.529.134-3.057.333-5.676.442-5.82.109-.143.324-1.117.479-2.164.154-1.047.478-2.47.72-3.161.242-.692.514-1.653.604-2.136.09-.483.24-.878.334-.878.094 0 .303-.448.465-.995.743-2.518 3.47-6.132 5.09-6.748.874-.332 3.155-.258 3.893.127 1.122.585 1.362.535 1.65-.346.248-.754.344-.82 1.204-.82h.934l.026 14.167c.018 9.131.118 14.666.283 15.572.498 2.724.712 3.75.869 4.147.192.486.888.736 1.504.54 1.115-.353 2.441-4.961 2.845-9.88.146-1.78.352-3.448.457-3.705.23-.565.935-12.404 1.225-20.56.072-2.016.236-2.26 1.524-2.267.916-.004 1.224.58 1.224 2.325 0 2.066 1.03 3.76 2.287 3.76.695 0 2.488-.76 3.098-1.313 1.902-1.724 2.267-1.963 3-1.964.81-.001 1.518.28 2.203.878.358.312.365.404.058.841-.189.27-.344.631-.344.803 0 .172-.199.754-.442 1.294-.244.54-.577 1.615-.742 2.388-.164.772-.383 1.517-.487 1.655-.104.137-.307.822-.451 1.522-.144.7-.397 1.693-.562 2.208-.164.515-.426 1.832-.58 2.927-.156 1.095-.38 2.201-.5 2.459-.297.64-.962 7.097-1.087 10.564-.147 4.057.547 6.179 2.02 6.177 2.444-.004 4.663-4.404 5.194-10.3.146-1.611.345-3.14.443-3.397.098-.258.347-1.628.552-3.044.362-2.505 1.124-5.843 1.55-6.79.116-.258.385-1.026.6-1.706.705-2.24 2.297-5.017 3.878-6.765 1.461-1.616 2.802-2.429 4.252-2.579 2.63-.271 4.1.54 4.638 2.559.147.548.362 1.18.479 1.404.289.554.27 4.798-.022 4.979-.13.08-.235.538-.235 1.018 0 2.332-1.454 5.458-2.949 6.34-1.142.674-1.59.613-2.545-.341-.632-.632-.828-1.021-.828-1.648 0-.994.387-1.633 2.191-3.613 1.512-1.66 2.492-3.543 2.492-4.787 0-.95-.793-2.896-1.354-3.323-.664-.504-1.817-.38-2.602.282-.852.716-1.91 2.243-2.343 3.379a44.21 44.21 0 01-.616 1.522c-.168.386-.38 1.124-.472 1.64-.091.514-.259 1.053-.372 1.196-.113.143-.373 1.513-.577 3.044-.205 1.531-.464 2.994-.577 3.252-.266.604-.687 7.664-.687 11.504 0 2.89.349 5.94.68 5.94.09 0 .293.362.453.804.16.442.659 1.127 1.109 1.522 1.67 1.467 4.45.702 6.171-1.698.386-.538.799-1.093.917-1.232.384-.452 1.91-3.766 1.91-4.148 0-.204.098-.432.218-.506.12-.075.388-.74.595-1.478.206-.738.474-1.553.594-1.81.264-.564.801-2.686 1.483-5.854.278-1.288.574-2.448.66-2.578.084-.13.28-1.13.432-2.224.154-1.094.422-2.515.596-3.16.174-.643.437-2.276.583-3.629.146-1.352.356-2.669.466-2.927.11-.257.322-1.627.47-3.044.394-3.776.835-4.331 3.437-4.331h1.774l-.156 2.03c-.086 1.116-.25 2.144-.364 2.283-.114.139-.338 1.517-.498 3.062-.16 1.546-.37 2.916-.469 3.044-.098.13-.355 2.184-.57 4.566-.216 2.383-.478 4.497-.582 4.698-.282.545-.774 10.019-.676 13.023.07 2.19.163 2.723.565 3.26.77 1.03 1.119 1.158 2.012.734 1.647-.781 3.11-3.64 4.16-8.134.227-.965.48-1.914.563-2.107.22-.507 1.069-5.72 1.489-9.132.198-1.61.447-3.138.554-3.395.2-.482.553-3.839.837-7.95.09-1.283.277-2.476.419-2.652.856-1.066 1.116-1.223 2.024-1.223.733 0 1.083.146 1.545.644.678.731.68 0-.021 8.605-.22 2.705-.491 5.128-.602 5.386-.694 1.615-1.137 18.17-.515 19.259.457.8 1.782.733 2.323-.117.225-.354.476-.697.557-.761.082-.065.29-.512.463-.995.172-.483.381-.878.464-.878.082 0 .282-.44.443-.979.161-.538.494-1.353.74-1.811.245-.458.447-.993.447-1.188.001-.195.155-.647.342-1.006.186-.358.518-1.306.737-2.107.219-.8.473-1.561.565-1.69.092-.13.3-.814.462-1.522.163-.709.387-1.403.497-1.544.111-.14.375-1.037.587-1.99.211-.954.464-1.84.56-1.969.098-.129.312-.866.476-1.639.165-.773.379-1.51.476-1.64.097-.13.348-1.131.557-2.225.21-1.094.468-2.15.574-2.348.107-.197.32-1.146.475-2.107.154-.962.381-2.075.505-2.474.123-.4.322-1.333.443-2.074.269-1.652.538-2 1.544-2 1.228 0 1.313.406.88 4.249-.5 4.447-.5 13.114 0 15.887.902 4.997 1.16 6.224 1.36 6.473.117.147 1.132.568 2.255.935 1.122.367 2.094.733 2.158.812.064.079.617.363 1.228.631 1.282.563 1.782 1.343 1.364 2.125-.379.707-1.208.626-2.496-.243-1.21-.817-2.496-1.34-3.33-1.356-.513-.01-.533.048-.38 1.102.088.612.266 1.244.395 1.405.128.162.247 1.795.263 3.63.027 3.128-.011 3.44-.62 4.993-.584 1.493-1.393 2.595-2.65 3.61-.264.213-1.087.382-2.12.434-1.414.071-1.87-.005-2.795-.466-2.149-1.072-3.857-3.506-4.354-6.205-.282-1.531-.724-1.945-1.026-.962-.365 1.187-2.463 5.155-3.076 5.817-.707.764-2.244 1.618-2.912 1.618-.783 0-2.059-.976-2.642-2.02-.836-1.495-1.074-3.157-1.074-7.493 0-2.094-.093-3.864-.207-3.935-.232-.143-.576.635-.976 2.208-.147.58-.352 1.16-.455 1.288-.103.129-.347.761-.541 1.405-.89 2.948-2.525 6.159-3.86 7.581l-1.182 1.259-1.386-.1c-1.221-.089-1.473-.197-2.12-.908-.403-.444-.856-1.176-1.005-1.627-.149-.45-.348-.925-.442-1.054-.381-.523-.544-2.101-.68-6.616-.085-2.848-.235-4.766-.376-4.8-.129-.032-.452.575-.717 1.348-.49 1.423-.857 2.3-1.878 4.493-.311.668-.566 1.326-.566 1.463s-.105.249-.234.249-.234.116-.234.257c0 .241-1.596 3-1.884 3.255-.072.064-.438.526-.814 1.025-.375.5-1.265 1.34-1.978 1.866-1.118.826-1.492.97-2.728 1.049-1.016.065-1.676-.024-2.264-.303-1.73-.821-3.738-3.449-4.4-5.76-.164-.57-.39-1.16-.503-1.31-.113-.15-.268-1.02-.344-1.932-.114-1.362-.212-1.66-.543-1.66-.284 0-.493.331-.703 1.113-.434 1.612-2.326 5.766-3.04 6.672-.193.246-.918 1.039-1.612 1.762-1.2 1.253-1.325 1.32-2.6 1.413-1.233.09-1.39.044-1.96-.57-1.128-1.217-1.37-2.064-1.5-5.253-.116-2.875.285-9.438.608-9.931.086-.132.335-1.294.553-2.581.388-2.294 1.37-6.681 1.651-7.376.078-.193.303-.984.5-1.756.545-2.137 1.342-4.862 1.576-5.386.24-.537.904-2.722.908-2.985.005-.337-.502-.172-1.264.41-.422.321-.89.585-1.038.585-.15 0-.27.097-.27.215s-.484.318-1.074.444c-1.197.255-2.666-.025-2.978-.567-.369-.643-.632-.307-.632.805 0 .623-.079 1.21-.176 1.306-.096.095-.349 2.458-.561 5.249-.485 6.366-1.335 14.797-1.539 15.26-.085.194-.335 1.3-.555 2.46-.473 2.484-1.201 4.99-1.853 6.376-.257.547-.467 1.084-.467 1.194 0 .11-.264.507-.585.881-.322.374-.586.74-.586.813 0 .24-1.81 1.155-2.282 1.155-.535 0-2.635-1.766-2.635-2.216 0-.166-.144-.422-.32-.568-.176-.146-.499-.87-.717-1.609-.218-.739-.495-1.527-.616-1.75a2.187 2.187 0 01-.22-.878c0-.263-.156-.472-.352-.472-.193 0-.351.091-.351.202 0 .554-2.544 4.671-3.438 5.566-.911.91-1.141 1.023-2.098 1.023-.97 0-1.183-.108-2.185-1.113-1.261-1.263-2.138-2.879-2.577-4.748-.489-2.084-1.022-2.454-1.273-.883-.087.541-.245 1.094-.353 1.23-.108.135-.376.877-.597 1.65-.221.773-.484 1.51-.585 1.64-.101.128-.263.497-.359.819-.193.645-1.51 3.408-2.22 4.66-.248.44-.904 1.307-1.457 1.93-.79.89-1.16 1.132-1.73 1.134-.979.003-1.668-.651-2.123-2.02-.209-.626-.46-1.244-.56-1.372-.099-.13-.314-1.13-.478-2.225-.165-1.095-.373-2.043-.464-2.107-.09-.065-.286-1.645-.435-3.513-.148-1.867-.37-4.554-.494-5.97-.34-3.887-.897-14.858-.912-17.958-.008-1.557-.115-2.8-.248-2.882-.137-.085-.234-1.434-.234-3.255 0-4.583-.279-10.21-.505-10.21-.109 0-.198.219-.198.485s-.102.675-.227.908c-.126.234-.397 1.57-.604 2.97-.206 1.4-.469 2.756-.583 3.014-.115.257-.328 1.364-.473 2.458-.146 1.095-.406 2.57-.577 3.279-.172.708-.445 2.341-.606 3.629-.161 1.288-.364 2.394-.451 2.459-.087.064-.342 1.592-.567 3.395-.224 1.803-.49 3.436-.592 3.63-.1.192-.31 1.51-.464 2.926-.154 1.417-.37 2.787-.48 3.044-.11.258-.368 1.944-.573 3.747-.204 1.803-.476 3.647-.605 4.097-.128.451-.384 2.032-.568 3.513-.615 4.95-.838 5.62-1.868 5.62-.757 0-1.02-.734-1.301-3.63-.138-1.417-.34-3.158-.448-3.87-.109-.713-.324-3.4-.478-5.971-.154-2.572-.368-4.887-.476-5.145-.108-.258-.368-3.787-.578-7.844-.21-4.057-.475-8.008-.587-8.78-.113-.774-.332-4.303-.487-7.845-.155-3.542-.374-6.54-.486-6.662-.113-.122-.205-1.123-.207-2.224-.003-2.215-.197-3.758-.473-3.758-.216 0-.287.51-1.005 7.258-.309 2.898-.59 5.269-.624 5.269-.035 0-.258 1.633-.496 3.63-.767 6.418-1.524 12.049-1.67 12.41-.077.193-.263 1.562-.412 3.043-.15 1.481-.36 2.974-.468 3.317-.108.344-.371 2.082-.584 3.864-.213 1.782-.48 3.45-.593 3.708-.113.257-.321 1.469-.463 2.692-.141 1.224-.403 2.857-.58 3.63-.178.772-.451 2.406-.607 3.63-.156 1.223-.36 2.329-.453 2.458-.093.129-.355 1.498-.581 3.044-.227 1.545-.491 2.915-.588 3.044-.096.129-.304 1.13-.46 2.224-.157 1.095-.365 2.096-.463 2.225-.099.128-.355 1.141-.57 2.25-.43 2.208-1.305 4.278-1.908 4.51-.442.17-1.264.165-1.697-.01zm130.476-26.91c.996-.997 1.131-1.687 1.005-5.12-.067-1.808-.198-3.473-.29-3.698-.177-.429-1.165-.566-1.395-.194-.074.12-.432.282-.796.362-.915.201-2.283 1.69-2.588 2.818-.59 2.179-.189 4.42 1.007 5.617.707.707 2.443.828 3.057.214zm-77.524-.662c.336-.44.926-1.376 1.311-2.078l.7-1.276-.144-4.42c-.154-4.713.284-17.684.618-18.322.269-.512.783-6.21.61-6.749-.19-.586-1.43-1.245-2.323-1.235-.414.005-1.016.238-1.36.527-.62.52-2.075 3.022-2.075 3.568 0 .16-.149.579-.33.93-.183.35-.456 1.548-.608 2.66-.152 1.113-.371 2.235-.486 2.492-.856 1.918-.854 19.028.003 20.677.113.218.332.866.485 1.438.682 2.54 2.38 3.384 3.598 1.788zm75.38-10.088c.489-.228 1.226-.484 1.639-.568l.75-.154-.084-4.673c-.077-4.304-.24-5.448-.73-5.145-.097.06-.3.74-.453 1.513-.152.772-.429 1.697-.615 2.055-.187.357-.34.775-.34.927-.003.39-1.377 4.716-1.791 5.638-.395.879-.247 1.326.34 1.024.217-.112.795-.39 1.284-.617zM63.163 33.377c-.688-.688-.519-5.462.244-6.887 1.408-2.631 4.613-.853 4.613 2.56 0 2.58-3.492 5.692-4.857 4.327z" fill="#0d102b"/>
</svg>
