<svg xmlns="http://www.w3.org/2000/svg" xmlns:xlink="http://www.w3.org/1999/xlink" viewBox="0 0 197 40">
  <defs>
    <path id="a" d="M.048.062h24.357v25.109H.048z"/>
    <path id="c" d="M.177.215h4.72v4.712H.176z"/>
  </defs>
  <g fill="#0d102b" fill-rule="evenodd">
    <g transform="translate(172.776 7.643)">
      <mask id="b" fill="#fff">
        <use xlink:href="#a" width="100%" height="100%"/>
      </mask>
      <path d="M8.288 16.364a3.997 3.997 0 011.999.53l-4.924 5.192a.304.304 0 01-.43.012l-1.792-1.69a.302.302 0 01-.012-.427l2.264-2.385a4.02 4.02 0 012.895-1.232M5.393 7.637L3.129 5.252a.302.302 0 01.012-.427l1.793-1.69a.304.304 0 01.429.012l4.924 5.192v.002c-.6.344-1.283.527-1.999.528a4.02 4.02 0 01-2.895-1.232M19.089 22.08l-5.032-5.308v-.001l2.113-2.228h.001l5.152 5.432a.3.3 0 01-.012.427l-1.793 1.69a.303.303 0 01-.429-.012m.429-18.94l1.793 1.69a.3.3 0 01.012.428l-5.152 5.432h-.001l-2.113-2.228v-.001l5.032-5.308a.302.302 0 01.429-.012M24.4 20.269c0-.038.005-.076.004-.113a2.129 2.129 0 00-.02-.23c-.002-.009-.002-.018-.003-.028a2.1 2.1 0 00-.557-1.137l-5.827-6.144v-.001l5.827-6.144a2.1 2.1 0 00.557-1.137l.002-.024c.01-.077.018-.155.02-.234.002-.038-.002-.075-.003-.113-.001-.05 0-.1-.005-.15-.004-.045-.014-.09-.02-.135-.008-.043-.012-.087-.021-.13v-.001c-.008-.037-.019-.074-.03-.11-.004-.016-.007-.032-.012-.047-.015-.05-.033-.1-.052-.148l-.002-.004c-.121-.3-.317-.57-.555-.795L20.736.647a2.109 2.109 0 00-1.491-.578h-.028a2.16 2.16 0 00-.809.183c-.251.112-.48.274-.676.479l-.082.087-5.42 5.716h-.002L6.719.725A2.112 2.112 0 005.235.063h-.061l-.072.002a2.318 2.318 0 00-.115.006l-.06.007c-.05.005-.101.012-.15.021l-.021.005c-.257.05-.5.147-.72.288l-.021.015a2.12 2.12 0 00-.3.234L.748 3.44a.064.064 0 00-.004.004l-.032.03c-.012.011-.022.024-.034.036a2.343 2.343 0 00-.24.282c-.004.008-.01.014-.014.021a2.185 2.185 0 00-.166.277l-.007.017c-.068.139-.12.285-.154.438l-.004.03c-.004.017-.005.034-.008.05a2.18 2.18 0 00-.03.203c-.002.03 0 .06-.002.09-.003.057-.006.115-.004.172.002.036.007.073.01.11.004.048.007.096.014.144l.003.024c.01.07.028.139.047.207l.005.018c.019.065.041.13.067.193.014.036.031.073.048.109.015.03.029.062.045.092a2.109 2.109 0 00.296.428c.015.018.028.036.044.053L3.44 9.434l.05.049.005.006a6.545 6.545 0 004.792 2.056 6.542 6.542 0 003.863-1.24l2.192 2.31v.002l-2.192 2.312h-.002a6.543 6.543 0 00-3.86-1.241h-.001c-1.832 0-3.533.73-4.792 2.056l-.006.006-.05.05-2.813 2.967c-.016.016-.03.035-.044.052a2.118 2.118 0 00-.296.428c-.016.03-.03.061-.045.092a2.171 2.171 0 00-.115.302l-.005.018a1.77 1.77 0 00-.047.208l-.003.023c-.007.048-.01.097-.014.145-.003.037-.008.073-.01.11-.002.056.001.114.004.172.001.03 0 .06.003.09.006.066.017.134.03.202.002.016.003.033.007.05l.004.03c.033.153.086.299.154.438l.007.016a2.185 2.185 0 00.166.278l.015.02a2.116 2.116 0 00.24.283c.011.012.021.025.033.036l.032.03.004.005 2.969 2.797a2.11 2.11 0 00.299.235l.02.014c.22.141.464.238.721.289a2.017 2.017 0 00.17.026l.06.006.116.006.072.003.06-.001a2.114 2.114 0 001.485-.662l5.509-5.809h.001l5.42 5.716.083.087a2.126 2.126 0 001.485.662h.028a2.108 2.108 0 001.491-.578l2.968-2.797c.239-.225.434-.494.555-.795l.002-.004a1.93 1.93 0 00.053-.148l.012-.047.029-.11c.01-.045.013-.088.02-.131.007-.045.017-.09.021-.135.005-.05.004-.1.005-.15" mask="url(#b)"/>
    </g>
    <path d="M9.48 29.767c-3.634 0-5.476-2.172-5.476-6.455V17.19c0-4.37 1.74-6.406 5.476-6.406 3.702 0 5.426 2.036 5.426 6.406v6.122c0 4.404-1.724 6.455-5.426 6.455m0-22.067C3.52 7.7.372 10.845.372 16.795v22.66c0 .46.243.702.704.702H3.3c.46 0 .704-.242.704-.702v-9.072h.451l.07.093c1.197 1.576 3.08 2.375 5.598 2.375 5.505 0 8.415-3.145 8.415-9.095v-6.96c0-5.951-3.132-9.096-9.058-9.096M35.64 18.512h-9.195a.787.787 0 01-.788-.787v-.486c0-4.404 1.709-6.455 5.377-6.455 3.668 0 5.377 2.051 5.377 6.455v.502c0 .426-.345.77-.772.77m-4.704-10.81c-5.829 0-8.91 3.144-8.91 9.094v6.714c0 6.199 3.264 9.342 9.701 9.342 2.831 0 5.339-.984 7.251-2.846.402-.401.19-.811.028-1.02l-.987-1.231c-.11-.137-.284-.303-.495-.315-.16-.008-.324.07-.489.235-1.629 1.47-3.169 2.093-5.16 2.093-4.3 0-6.217-2.052-6.217-6.653v-1.602c0-.036.03-.065.065-.065h12.837c.71 0 1.287-.575 1.287-1.284v-3.368c0-5.95-3.082-9.095-8.91-9.095M51.324 7.7c-5.289 0-7.97 2.927-7.97 8.7l-.021 15.097c0 .46.243.702.703.702h2.225c.46 0 .703-.243.703-.702l.021-15.047c0-3.813 1.549-5.666 4.735-5.666 1.136 0 2.258.327 3.334.971.46.292.752.242 1.015-.171l.836-1.424c.264-.415.192-.727-.228-1.021-1.433-.954-3.235-1.439-5.353-1.439"/>
    <g transform="translate(59.402 .391)">
      <mask id="d" fill="#fff">
        <use xlink:href="#c" width="100%" height="100%"/>
      </mask>
      <path d="M2.512.214C1.159.214.177 1.216.177 2.596c0 1.351.982 2.331 2.335 2.331 1.381 0 2.384-.98 2.384-2.331 0-1.402-.98-2.382-2.384-2.382" mask="url(#d)"/>
    </g>
    <path d="M60.826 8.342c-.46 0-.704.243-.704.702v22.453c0 .46.244.702.704.702h2.224c.46 0 .704-.243.704-.702V9.044c0-.46-.243-.702-.704-.702h-2.224zM89.303 10.784c3.398 0 4.981 1.957 4.981 6.16v14.553c0 .46.243.702.704.702h2.224c.46 0 .704-.243.704-.702V16.548c0-5.788-2.893-8.848-8.366-8.848-3.19 0-5.467 1.075-6.77 3.196l-.07.112h-.362l-.069-.112C80.977 8.776 78.7 7.7 75.51 7.7c-5.33 0-8.267 3.142-8.267 8.848v14.949c0 .46.244.702.704.702h2.224c.461 0 .704-.243.704-.702V16.943c0-4.144 1.597-6.159 4.883-6.159 3.352 0 4.981 2.015 4.981 6.16v14.553c0 .46.244.702.704.702h2.224c.461 0 .704-.243.704-.702V16.943c0-4.202 1.568-6.159 4.933-6.159M115.017 18.512h-9.21a.771.771 0 01-.772-.771v-.502c0-4.404 1.709-6.455 5.377-6.455 3.668 0 5.377 2.051 5.377 6.455v.502c0 .426-.346.77-.772.77m-4.704-10.81c-5.829 0-8.91 3.144-8.91 9.094v6.714c0 6.199 3.264 9.342 9.701 9.342 2.832 0 5.34-.984 7.25-2.846.403-.401.192-.811.029-1.02l-.987-1.231c-.11-.137-.284-.303-.495-.315-.157-.008-.324.07-.489.235-1.629 1.47-3.17 2.093-5.16 2.093-4.3 0-6.217-2.052-6.217-6.653v-1.667h12.902c.71 0 1.286-.575 1.286-1.284v-3.368c0-5.95-3.08-9.095-8.91-9.095M122.738 10.784v14.502c0 5.02 2.483 7.565 7.378 7.565 1.704 0 3.13-.306 4.237-.91.4-.239.49-.475.337-.897l-.593-1.63c-.072-.213-.172-.345-.3-.396-.198-.078-.464.027-.653.129-.795.423-1.616.62-2.583.62-2.702 0-4.19-1.626-4.19-4.58V10.785h6.958c.46 0 .704-.243.704-.702V8.403c0-.46-.243-.703-.704-.703h-6.959V1.343c0-.46-.243-.703-.703-.703h-2.225c-.46 0-.704.243-.704.703v9.441zM149.04 18.512h-9.21a.771.771 0 01-.772-.771v-.502c0-4.404 1.708-6.455 5.377-6.455 3.668 0 5.376 2.051 5.376 6.455v.502c0 .426-.345.77-.771.77m-4.704-10.81c-5.83 0-8.91 3.144-8.91 9.094v6.714c0 6.199 3.263 9.342 9.7 9.342 2.832 0 5.34-.984 7.252-2.846.402-.401.19-.811.028-1.02l-.987-1.231c-.11-.137-.285-.303-.495-.315-.155-.01-.324.07-.49.235-1.628 1.47-3.168 2.093-5.16 2.093-4.299 0-6.216-2.052-6.216-6.653v-1.667h12.915c.703 0 1.273-.57 1.273-1.271v-3.38c0-5.95-3.081-9.096-8.91-9.096M164.704 7.7c-5.29 0-7.971 2.927-7.971 8.7v15.097c0 .46.243.702.704.702h2.224c.46 0 .704-.243.704-.702V16.45c0-3.813 1.548-5.666 4.734-5.666 1.136 0 2.258.327 3.335.971.23.147.425.206.581.18.158-.026.3-.141.433-.351l.836-1.424c.264-.415.192-.728-.228-1.021-1.433-.954-3.235-1.439-5.352-1.439M177.374 32.726a3.934 3.934 0 01-.48-.2c-.29-.15-3.575-3.257-3.757-3.552-.21-.338-.273-.604-.272-1.146 0-.767.143-1.003 1.43-2.364 2.53-2.677 2.844-2.96 3.802-3.427 2.1-1.024 4.567-.916 6.438.282l.388.25.958-1.002a40.969 40.969 0 001.08-1.158c.145-.184.212-.095-1.205-1.59l-.831-.876-.3.203c-.493.332-1.228.651-1.926.836-.557.147-.797.174-1.577.176-1.336.004-2.364-.257-3.377-.858-.697-.413-1.086-.769-2.818-2.582-1.948-2.04-2.063-2.21-2.064-3.061-.001-.548.092-.869.356-1.229.08-.107.898-.907 1.82-1.777 1.94-1.83 2.073-1.918 2.926-1.92.736-.002 1.086.178 1.81.933.918.96 1.599 1.675 3.445 3.621.97 1.024 1.782 1.852 1.805 1.841.023-.01.588-.596 1.256-1.301s1.485-1.564 1.815-1.907c.33-.344 1.039-1.09 1.575-1.66.536-.568 1.088-1.109 1.227-1.2.359-.238.974-.383 1.391-.329.415.054.93.284 1.194.533 3.344 3.149 3.247 3.051 3.465 3.493.186.377.21.49.203.93-.013.823-.108.975-1.567 2.507-.57.6-1.403 1.476-2.4 2.529l-1.218 1.282a68.94 68.94 0 00-.88.94c-.332.367-.393.233.558 1.233l1.186 1.249c.811.857 1.598 1.685 2.34 2.466 1.966 2.065 1.987 2.096 1.977 3.033-.009.829-.128.995-1.953 2.722-1.877 1.775-1.907 1.801-2.313 1.988-.244.111-.44.145-.844.145-.925 0-.93-.005-3.525-2.745-1.241-1.31-2.54-2.673-2.888-3.03l-.632-.648-2.293 2.424c-3.326 3.514-3.434 3.621-3.83 3.816-.418.204-1.095.263-1.495.13zm.918-3.143c.096-.114 1.2-1.287 2.455-2.607 1.255-1.32 2.28-2.418 2.277-2.44-.002-.022-.196-.12-.43-.217-1.08-.45-2.229-.403-3.346.134-.43.207-.62.365-1.472 1.225a65.781 65.781 0 00-1.474 1.534c-.435.478-.489.565-.436.698.034.084.474.54.978 1.016 1.028.968 1.142 1.02 1.448.657zm14.297-.135c1.194-1.108 1.585-1.51 1.585-1.626 0-.079-.998-1.18-2.578-2.845-1.418-1.494-2.599-2.725-2.624-2.736-.042-.018-.34.282-1.661 1.675-.334.352-.434.497-.391.573.03.055.338.39.682.744.344.354 1.17 1.221 1.835 1.926 2.024 2.146 2.513 2.63 2.653 2.63.072 0 .297-.153.5-.341zm-.89-14.01c1.433-1.514 2.475-2.666 2.475-2.737 0-.112-.352-.477-1.518-1.573-.243-.229-.493-.407-.57-.407-.09 0-.543.428-1.374 1.3-2.283 2.394-3.42 3.596-3.64 3.849l-.217.25.29.307c.159.168.56.588.892.933.332.345.67.71.75.813l.145.187.146-.154 2.621-2.768zm-9.673.942c.274-.07.622-.19.772-.267l.273-.14-1.235-1.294-1.893-1.986c-1.74-1.826-1.901-1.979-2.053-1.959-.185.024-1.972 1.676-2.032 1.878-.057.192.092.37 1.627 1.932.943.96 1.298 1.278 1.639 1.464.878.48 1.945.616 2.902.372zM60.293 4.66c-.463-.463-.643-.927-.637-1.643.014-1.645 1.187-2.625 2.783-2.325 1.097.205 1.733 1.097 1.733 2.43 0 1.962-2.474 2.943-3.879 1.539z"/>
  </g>
</svg>
