<?xml version="1.0" encoding="UTF-8" standalone="no"?>
<svg
   xmlns:dc="http://purl.org/dc/elements/1.1/"
   xmlns:cc="http://creativecommons.org/ns#"
   xmlns:rdf="http://www.w3.org/1999/02/22-rdf-syntax-ns#"
   xmlns:svg="http://www.w3.org/2000/svg"
   xmlns="http://www.w3.org/2000/svg"
   xmlns:xlink="http://www.w3.org/1999/xlink"
   xmlns:sodipodi="http://sodipodi.sourceforge.net/DTD/sodipodi-0.dtd"
   xmlns:inkscape="http://www.inkscape.org/namespaces/inkscape"
   width="197px"
   height="40px"
   viewBox="0 0 197 40"
   version="1.1"
   id="svg4136"
   inkscape:version="0.91 r13725"
   sodipodi:docname="perimeterx.svg">
  <metadata
     id="metadata4174">
    <rdf:RDF>
      <cc:Work
         rdf:about="">
        <dc:format>image/svg+xml</dc:format>
        <dc:type
           rdf:resource="http://purl.org/dc/dcmitype/StillImage" />
      </cc:Work>
    </rdf:RDF>
  </metadata>
  <sodipodi:namedview
     pagecolor="#ffffff"
     bordercolor="#666666"
     borderopacity="1"
     objecttolerance="10"
     gridtolerance="10"
     guidetolerance="10"
     inkscape:pageopacity="0"
     inkscape:pageshadow="2"
     inkscape:window-width="1920"
     inkscape:window-height="1017"
     id="namedview4172"
     showgrid="false"
     inkscape:zoom="2.6884415"
     inkscape:cx="91.585064"
     inkscape:cy="29.503274"
     inkscape:window-x="-8"
     inkscape:window-y="-8"
     inkscape:window-maximized="1"
     inkscape:current-layer="Group-26" />
  <!-- Generator: Sketch 60.1 (88133) - https://sketch.com -->
  <title
     id="title4138">PerimeterX</title>
  <desc
     id="desc4140">Perimeterx Logo</desc>
  <defs
     id="defs4142">
    <polygon
       id="path-1"
       points="0.0475337795 0.0621754386 24.4050263 0.0621754386 24.4050263 25.1709474 0.0475337795 25.1709474" />
    <polygon
       id="path-3"
       points="0.176573712 0.214502924 4.89637171 0.214502924 4.89637171 4.9274386 0.176573712 4.9274386" />
  </defs>
  <g
     style="fill:none;fill-rule:evenodd;stroke:none;stroke-width:1"
     id="Group-26">
    <g
       style="fill:#0d102b;fill-opacity:1;fill-rule:evenodd"
       id="Group-3"
       transform="translate(172.77612,7.6428397)">
      <mask
         id="mask-2"
         fill="white">
        <use
           xlink:href="#path-1"
           id="use4153"
           x="0"
           y="0"
           width="100%"
           height="100%" />
      </mask>
      <g
         style="fill:#0d102b;fill-opacity:1;fill-rule:evenodd"
         id="Clip-2" />
      <path
         d="m 8.2883766,16.364398 0,0 c 0.7156178,2.34e-4 1.3986756,0.183391 1.9985764,0.527953 4.69e-4,2.34e-4 4.69e-4,9.35e-4 0,0.0014 l -4.9242936,5.192281 c -0.1150142,0.121404 -0.3073292,0.126784 -0.4289022,0.01193 L 3.1408477,20.408608 C 3.0192746,20.293754 3.0136527,20.102175 3.1291354,19.981006 L 5.3928769,17.595743 C 6.1497218,16.810012 7.1946878,16.364398 8.2883766,16.364398 M 5.3928769,7.6371462 3.1291354,5.252117 C 3.0136527,5.1307134 3.0192746,4.9393684 3.1408477,4.8245146 L 4.9337572,3.1351579 c 0.121573,-0.1148538 0.313888,-0.1094737 0.4289022,0.01193 l 4.9242936,5.1920468 c 4.69e-4,4.678e-4 4.69e-4,0.00117 0,0.00164 C 9.6870522,8.6853361 9.0039944,8.868494 8.2883766,8.868728 7.1946878,8.868728 6.1497218,8.42288 5.3928769,7.637149 m 13.6962921,14.443275 -5.031812,-5.308304 0,-0.0014 2.112419,-2.227368 0.0014,0 5.151979,5.432047 c 0.05739,0.06035 0.0848,0.138479 0.08245,0.215906 -0.0021,0.07719 -0.03373,0.153918 -0.09463,0.211228 l -1.793144,1.689591 c -0.06067,0.05731 -0.139141,0.08491 -0.216676,0.08281 -0.07754,-0.0023 -0.154602,-0.03415 -0.211992,-0.0945 m 0.428668,-18.9396493 1.793144,1.6898246 c 0.0609,0.05731 0.09253,0.1338012 0.09463,0.2112281 0.0023,0.077193 -0.02506,0.1553216 -0.08245,0.2161403 l -5.151979,5.4315793 -0.0014,0 -2.112419,-2.2273688 0,-0.0014 5.031812,-5.3078362 c 0.05739,-0.060819 0.134456,-0.092632 0.211992,-0.094737 0.07754,-0.00211 0.156007,0.025263 0.216676,0.082573 m 4.883067,17.128187 c 9.36e-4,-0.03766 0.0049,-0.07556 0.0041,-0.112749 -0.0023,-0.07743 -0.01,-0.153918 -0.02052,-0.229707 -0.0012,-0.0094 -0.0012,-0.01895 -0.0026,-0.02807 -0.06348,-0.424562 -0.255327,-0.819416 -0.557269,-1.137778 l -5.826838,-6.143626 c -2.35e-4,-2.34e-4 -2.35e-4,-7.01e-4 0,-0.0012 l 5.826838,-6.1433921 c 0.301942,-0.3185965 0.493788,-0.7132163 0.557269,-1.1377777 0.0014,-0.00795 0.0012,-0.015907 0.0023,-0.023392 0.01054,-0.077427 0.01827,-0.1555555 0.02076,-0.2343859 7.96e-4,-0.037427 -0.0032,-0.075322 -0.0041,-0.1127486 -0.0012,-0.050058 -2.35e-4,-0.099649 -0.0049,-0.1499415 -0.0042,-0.044912 -0.01382,-0.090058 -0.02085,-0.1349707 -0.0068,-0.043509 -0.01078,-0.086784 -0.02014,-0.1302924 0,-2.34e-4 0,-2.34e-4 -2.35e-4,-4.679e-4 l 0,-4.678e-4 c -0.008,-0.037427 -0.01874,-0.073918 -0.02905,-0.1104094 -0.0045,-0.015439 -0.0075,-0.031111 -0.01218,-0.046316 -0.01569,-0.050292 -0.03326,-0.099883 -0.05294,-0.1487719 l -0.0014,-0.00374 C 24.137612,3.9381988 23.942486,3.6684912 23.70426,3.4441637 L 20.736144,0.64697076 C 20.634482,0.55106433 20.524855,0.4668538 20.409138,0.39387135 20.062456,0.17515789 19.659321,0.06217544 19.244707,0.0694269 c -0.0094,0 -0.0185,-9.3567e-4 -0.02787,-7.0175e-4 -0.141718,0.0042105 -0.281093,0.02175438 -0.416487,0.05263158 -0.135159,0.0306433 -0.26657,0.074386 -0.39236,0.13052631 -0.251344,0.11204679 -0.48067,0.27368421 -0.675562,0.47906433 l -0.08222,0.0867836 -5.421126,5.71578953 c -2.35e-4,4.678e-4 -7.03e-4,2.339e-4 -0.0012,0 L 6.7191709,0.72533333 C 6.3296218,0.31410526 5.8023368,0.07878363 5.2345275,0.06311111 c -0.020379,-4.6784e-4 -0.040524,-9.3567e-4 -0.060904,-9.3567e-4 -0.023893,0 -0.047786,0.0025731 -0.071913,0.0032748 -0.038416,0.0011696 -0.076598,0.0023392 -0.1145457,0.0053801 -0.020379,0.0018713 -0.04029,0.0046784 -0.060435,0.0070175 -0.050363,0.005614 -0.1007252,0.01216375 -0.1503851,0.02128655 -0.00679,0.0014035 -0.013821,0.0032749 -0.020614,0.0046784 -0.2569665,0.0505263 -0.5003468,0.14736842 -0.7205369,0.28842105 -0.00703,0.004444 -0.01382,0.009825 -0.020614,0.0145029 -0.048489,0.0318129 -0.096509,0.0645614 -0.1426551,0.1005848 -0.053876,0.0418713 -0.1063471,0.0865497 -0.1562413,0.13380117 L 0.74733453,3.4385497 c -0.001405,0.00117 -0.002811,0.00257 -0.004216,0.00398 l -0.0320915,0.030409 c -0.0121807,0.011228 -0.0222533,0.024328 -0.0339655,0.036023 -0.0264697,0.027134 -0.0524708,0.054269 -0.077535,0.082573 -0.0580927,0.063626 -0.11220325,0.1302924 -0.16162889,0.1997661 -0.004919,0.00725 -0.0103068,0.014035 -0.0152259,0.021053 -0.0252984,0.036491 -0.0496599,0.073216 -0.0723816,0.1111111 -0.0332628,0.054269 -0.0648858,0.1094737 -0.0932294,0.1663158 -0.002577,0.00538 -0.004685,0.01076 -0.007027,0.01614 -0.067931,0.1389474 -0.12063606,0.2853801 -0.15366457,0.4378948 -0.0021082,0.010292 -0.0025767,0.020585 -0.0046849,0.030877 -0.0035137,0.01614 -0.0046849,0.032982 -0.0074958,0.049357 -0.01218073,0.067836 -0.02365872,0.1354386 -0.02928059,0.202807 -0.0025767,0.029474 -0.0016397,0.059649 -0.0030452,0.089591 -0.0025767,0.057544 -0.0056219,0.1150878 -0.0037479,0.1721638 0.0014055,0.036257 0.0067931,0.072982 0.0098383,0.1094737 0.0042164,0.048421 0.0070273,0.097076 0.01452317,0.1445614 0.0011712,0.00819 0.0011712,0.015906 0.0023424,0.02386 0.01100951,0.070409 0.02787513,0.1391813 0.0470832,0.2072515 0.00164,0.00608 0.003514,0.012164 0.005153,0.018246 0.0189738,0.065263 0.0409928,0.1295906 0.0665255,0.1925146 0.0147574,0.036959 0.0313888,0.072983 0.0480202,0.1092398 0.0149917,0.031111 0.0290464,0.062222 0.0454435,0.092632 0.0683995,0.1309941 0.15132212,0.2545029 0.24736248,0.3702924 0.0159286,0.019415 0.0320915,0.038596 0.0482544,0.057544 0.0154602,0.01731 0.0283436,0.035789 0.0442723,0.052398 L 3.4409152,9.4336374 c 0.015929,0.016842 0.033028,0.032515 0.049426,0.049357 l 0.00562,0.00608 c 1.2585972,1.3260816 2.9601513,2.0563736 4.7917112,2.0563736 l 9.37e-4,0 c 1.4120275,-2.34e-4 2.7469886,-0.434386 3.8608226,-1.241169 4.69e-4,-2.34e-4 9.37e-4,-2.34e-4 0.0014,0 l 2.192531,2.311579 c 2.34e-4,4.68e-4 2.34e-4,9.35e-4 0,0.0012 l -2.192531,2.311579 c -4.69e-4,2.34e-4 -9.37e-4,4.68e-4 -0.0014,0 -1.113834,-0.806549 -2.4487951,-1.240702 -3.8608226,-1.240935 l -9.37e-4,0 c -1.8315599,0 -3.533114,0.730292 -4.7917112,2.056374 l -0.00586,0.0063 c -0.016397,0.01661 -0.033263,0.03228 -0.049191,0.04912 l -2.81398248,2.967018 c -0.0159286,0.01661 -0.0290464,0.03532 -0.0442723,0.0524 -0.0163971,0.01895 -0.0323258,0.03789 -0.0482544,0.05731 -0.0960404,0.11579 -0.17896301,0.239533 -0.24736248,0.370293 -0.0163971,0.03041 -0.0304518,0.06175 -0.0454435,0.09286 -0.0166314,0.03602 -0.0332628,0.07205 -0.0480202,0.10924 -0.0255327,0.06292 -0.0475517,0.127252 -0.0665255,0.192515 -0.00164,0.0061 -0.003514,0.01216 -0.005153,0.01825 -0.0192081,0.06807 -0.03607369,0.136842 -0.0470832,0.207252 -0.0011712,0.008 -0.0011712,0.01567 -0.0023424,0.02363 -0.0074958,0.04772 -0.01030677,0.09637 -0.01452317,0.144795 -0.0030452,0.03649 -0.0084328,0.07322 -0.0098383,0.10924 -0.001874,0.05708 0.0011712,0.11462 0.0037479,0.172397 0.0014055,0.02971 4.6849e-4,0.05988 0.0030452,0.08959 0.0056219,0.06713 0.01709986,0.134737 0.02928059,0.202573 0.0028109,0.01637 0.0039822,0.03322 0.0074958,0.04936 0.0021082,0.01029 0.0025767,0.02059 0.0046849,0.03088 0.03302851,0.152749 0.08573359,0.298947 0.15343033,0.437895 0.002577,0.0054 0.004685,0.01076 0.007262,0.01637 0.0283436,0.05684 0.0599667,0.112047 0.0932294,0.166316 0.0227217,0.0379 0.0470832,0.07462 0.0723816,0.110877 0.004919,0.0073 0.0103068,0.01403 0.0152259,0.02082 0.0494256,0.06971 0.10330194,0.136374 0.16162889,0.200468 0.0250642,0.02807 0.0512996,0.05544 0.077535,0.08234 0.0119465,0.0117 0.022019,0.0248 0.0339655,0.03602 l 0.0318573,0.03018 c 0.00164,0.0014 0.002811,0.0028 0.004451,0.0042 L 3.7156843,24.592 c 0.049894,0.04725 0.102365,0.0917 0.1562413,0.133567 0.046146,0.03602 0.094401,0.06924 0.1428893,0.101053 0.00679,0.0044 0.013352,0.0098 0.020379,0.01427 0.2204244,0.141286 0.4640389,0.238128 0.7212397,0.288655 0.00656,0.0014 0.013118,0.0028 0.019677,0.0042 0.049894,0.0094 0.100491,0.01591 0.1510879,0.02152 0.019911,0.0023 0.039587,0.0054 0.059732,0.0068 0.038182,0.0033 0.076598,0.0044 0.1152485,0.0056 0.023893,7.02e-4 0.047552,0.0033 0.071445,0.0033 0.020379,0 0.040524,-4.68e-4 0.060904,-9.35e-4 0.5678093,-0.01591 1.0950943,-0.251228 1.4846434,-0.662223 l 5.5087346,-5.808421 c 4.69e-4,-2.34e-4 9.37e-4,-2.34e-4 0.0012,0 l 5.420658,5.715556 0.08269,0.08725 c 0.194892,0.205381 0.424218,0.366784 0.675561,0.479065 0.188802,0.08398 0.389784,0.140585 0.598262,0.166783 0.06934,0.0087 0.139844,0.01403 0.210586,0.01614 0.0094,2.34e-4 0.01851,-7.02e-4 0.02787,-4.68e-4 0.414614,0.0073 0.817748,-0.105731 1.164431,-0.324445 0.115717,-0.07298 0.225344,-0.157193 0.327006,-0.253099 l 2.968116,-2.797193 c 0.238226,-0.224561 0.433352,-0.494269 0.554925,-0.79462 4.69e-4,-0.0014 9.37e-4,-0.0026 0.0014,-0.004 0.01968,-0.04866 0.03724,-0.09825 0.05294,-0.148538 0.0047,-0.01521 0.0077,-0.03088 0.01218,-0.04632 0.01031,-0.03673 0.02108,-0.07322 0.02905,-0.11041 l 0,-4.67e-4 c 2.35e-4,-2.34e-4 2.35e-4,-4.68e-4 2.35e-4,-4.68e-4 0.0094,-0.04374 0.01335,-0.08678 0.02014,-0.130293 0.007,-0.04491 0.01663,-0.09029 0.02085,-0.13497 0.0047,-0.05029 0.0037,-0.100117 0.0049,-0.149942"
         id="Fill-1"
         mask="url(#mask-2)"
         inkscape:connector-curvature="0"
         style="fill:#0d102b;fill-opacity:1;fill-rule:evenodd" />
    </g>
    <path
       d="m 9.4797514,29.767238 c -3.6333711,0 -5.4759405,-2.17193 -5.4759405,-6.455673 l 0,-6.121403 c 0,-4.370527 1.7399702,-6.406082 5.4759405,-6.406082 3.7020036,0 5.4265136,2.035555 5.4265136,6.406082 l 0,6.121403 c 0,4.404211 -1.72451,6.455673 -5.4265136,6.455673 m 0,-22.067135 c -5.9584847,0 -9.10767146,3.144796 -9.10767146,9.094971 l 0,22.659883 c 0,0.459649 0.2431461,0.702456 0.70343706,0.702456 l 2.2248569,0 c 0.4600567,0 0.703437,-0.242807 0.703437,-0.702456 l 0,-9.07228 0.451624,0 0.070508,0.0931 c 1.1955854,1.57614 3.0784449,2.375438 5.5965761,2.375438 5.505454,0 8.415477,-3.145029 8.415477,-9.09497 l 0,-6.96117 c 0,-5.950175 -3.132321,-9.094971 -9.0582446,-9.094971"
       id="Fill-4"
       inkscape:connector-curvature="0"
       style="fill:#0d102b;fill-opacity:1;fill-rule:evenodd" />
    <path
       d="m 35.639457,18.511542 -9.194576,0 c -0.434992,0 -0.787531,-0.352047 -0.787531,-0.786433 l 0,-0.485848 c 0,-4.403976 1.708348,-6.455204 5.376621,-6.455204 3.668507,0 5.377089,2.051228 5.377089,6.455204 l 0,0.501755 c 0,0.425497 -0.345277,0.770526 -0.771603,0.770526 M 30.935354,7.7000797 c -5.828947,0 -8.910203,3.1450293 -8.910203,9.0949713 l 0,6.714152 c 0,6.19883 3.263967,9.341988 9.701013,9.341988 2.831082,0 5.338673,-0.98386 7.251281,-2.845848 0.401964,-0.401637 0.190207,-0.811696 0.02788,-1.020117 l -0.986873,-1.231579 c -0.109626,-0.136842 -0.284607,-0.30269 -0.494959,-0.314386 -0.160458,-0.0084 -0.324195,0.07018 -0.489103,0.235088 -1.629173,1.469474 -3.169332,2.092865 -5.15971,2.092865 -4.299797,0 -6.217325,-2.051929 -6.217325,-6.653099 l 0,-1.602573 c 0,-0.03556 0.02881,-0.06433 0.06442,-0.06433 l 12.83755,0 c 0.710465,0 1.286238,-0.57497 1.286238,-1.284444 l 0,-3.367719 c 0,-5.949942 -3.081255,-9.0949713 -8.910202,-9.0949713"
       id="Fill-6"
       inkscape:connector-curvature="0"
       style="fill:#0d102b;fill-opacity:1;fill-rule:evenodd" />
    <path
       d="m 51.324347,7.7000095 c -5.289013,0 -7.970881,2.9272515 -7.970881,8.7001175 l -0.02085,15.096608 c 0,0.459649 0.243146,0.702456 0.703671,0.702456 l 2.224623,0 c 0.460291,0 0.703437,-0.242807 0.703437,-0.702456 l 0.02108,-15.047018 c 0,-3.812397 1.548592,-5.665731 4.734321,-5.665731 1.136556,0 2.258588,0.327018 3.334709,0.971462 0.459588,0.291462 0.751925,0.241638 1.014748,-0.171462 L 56.90476,10.159893 C 57.168988,9.7451557 57.097309,9.4326407 56.676606,9.1386057 55.243965,8.1849217 53.442154,7.7000095 51.324347,7.7000095"
       id="Fill-8"
       inkscape:connector-curvature="0"
       style="fill:#0d102b;fill-opacity:1;fill-rule:evenodd" />
    <g
       style="fill:#0d102b;fill-opacity:1;fill-rule:evenodd"
       id="Group-12"
       transform="translate(59.401646,0.39137773)">
      <mask
         id="mask-4"
         fill="white">
        <use
           xlink:href="#path-3"
           id="use4162"
           x="0"
           y="0"
           width="100%"
           height="100%" />
      </mask>
      <g
         style="fill:#0d102b;fill-opacity:1;fill-rule:evenodd"
         id="Clip-11" />
      <path
         d="m 2.5117599,0.21445614 c -1.3532321,0 -2.33518619,1.00140346 -2.33518619,2.38152046 0,1.3511111 0.98195409,2.331462 2.33518619,2.331462 1.3815757,0 2.3846118,-0.9803509 2.3846118,-2.331462 0,-1.4021053 -0.9805486,-2.38152046 -2.3846118,-2.38152046"
         id="Fill-10"
         mask="url(#mask-4)"
         inkscape:connector-curvature="0"
         style="fill:#0d102b;fill-opacity:1;fill-rule:evenodd" />
    </g>
    <path
       d="m 60.825573,8.3416937 c -0.460057,0 -0.703437,0.243041 -0.703437,0.70269 l 0,22.4523983 c 0,0.459649 0.24338,0.702456 0.703437,0.702456 l 2.224622,0 c 0.460526,0 0.703672,-0.242807 0.703672,-0.702456 l 0,-22.4523983 c 0,-0.459649 -0.243146,-0.70269 -0.703672,-0.70269 l -2.224622,0 z"
       id="Fill-13"
       inkscape:connector-curvature="0"
       style="fill:#0d102b;fill-opacity:1;fill-rule:evenodd" />
    <path
       d="m 89.302663,10.78401 c 3.398424,0 4.98145,1.957193 4.98145,6.159298 l 0,14.55345 c 0,0.459649 0.243146,0.702456 0.703437,0.702456 l 2.224857,0 c 0.460291,0 0.703437,-0.242807 0.703437,-0.702456 l 0,-14.948304 c 0,-5.788772 -2.893157,-8.8484211 -8.366287,-8.8484211 -3.189242,0 -5.467039,1.0750878 -6.769908,3.1955561 l -0.06887,0.112047 -0.362611,0 -0.0691,-0.112047 C 80.976667,8.7751207 78.698637,7.7000329 75.509862,7.7000329 c -5.331411,0 -8.267435,3.1424561 -8.267435,8.8484211 l 0,14.948304 c 0,0.459649 0.243146,0.702456 0.703437,0.702456 l 2.224623,0 c 0.460525,0 0.703906,-0.242807 0.703906,-0.702456 l 0,-14.55345 c 0,-4.144561 1.596846,-6.159298 4.882363,-6.159298 3.352043,0 4.981684,2.014737 4.981684,6.159298 l 0,14.55345 c 0,0.459649 0.24338,0.702456 0.703437,0.702456 l 2.224623,0 c 0.460525,0 0.703905,-0.242807 0.703905,-0.702456 l 0,-14.55345 c 0,-4.202105 1.567332,-6.159298 4.932258,-6.159298"
       id="Fill-15"
       inkscape:connector-curvature="0"
       style="fill:#0d102b;fill-opacity:1;fill-rule:evenodd" />
    <path
       d="m 115.01731,18.511542 -9.2105,0 c -0.42633,0 -0.7716,-0.345029 -0.7716,-0.770526 l 0,-0.501755 c 0,-4.403976 1.70834,-6.455204 5.37662,-6.455204 3.6685,0 5.37709,2.051228 5.37709,6.455204 l 0,0.501755 c 0,0.425497 -0.34552,0.770526 -0.77161,0.770526 m -4.7041,-10.8114623 c -5.82918,0 -8.9102,3.1450293 -8.9102,9.0949713 l 0,6.714152 c 0,6.19883 3.26396,9.341988 9.70101,9.341988 2.83178,0 5.33914,-0.98386 7.25081,-2.845848 0.40244,-0.401637 0.19068,-0.811696 0.0281,-1.020117 l -0.98687,-1.231579 c -0.10939,-0.136842 -0.28437,-0.30269 -0.49473,-0.314386 -0.15741,-0.0084 -0.32419,0.07018 -0.48933,0.235088 -1.62894,1.469474 -3.1691,2.092865 -5.15948,2.092865 -4.2998,0 -6.21732,-2.051929 -6.21732,-6.653099 l 0,-1.666901 12.90196,0 c 0.71024,0 1.28601,-0.57497 1.28601,-1.284444 l 0,-3.367719 c 0,-5.949942 -3.08102,-9.0949713 -8.90997,-9.0949713"
       id="Fill-17"
       inkscape:connector-curvature="0"
       style="fill:#0d102b;fill-opacity:1;fill-rule:evenodd" />
    <path
       d="m 122.73826,10.78401 0,14.502222 c 0,5.019883 2.48229,7.564912 7.37753,7.564912 1.7046,0 3.13022,-0.306198 4.23749,-0.90924 0.40009,-0.239766 0.49028,-0.476023 0.33638,-0.897543 l 0,-4.68e-4 -0.59311,-1.62924 c -0.0714,-0.214035 -0.1717,-0.345263 -0.3003,-0.396257 -0.197,-0.07836 -0.4631,0.02667 -0.65191,0.128421 -0.79549,0.423392 -1.61628,0.620351 -2.58348,0.620351 -2.70225,0 -4.1904,-1.626433 -4.1904,-4.579649 l 0,-14.403509 6.95894,0 c 0.46052,0 0.70367,-0.243041 0.70367,-0.702456 l 0,-1.6783633 c 0,-0.459883 -0.24315,-0.7029239 -0.70367,-0.7029239 l -6.95894,0 0,-6.3576608 c 0,-0.45988307 -0.24362,-0.70269007 -0.70391,-0.70269007 l -2.22439,0 c -0.46052,0 -0.7039,0.242807 -0.7039,0.70269007 l 0,6.3576608 0,3.0837432 z"
       id="Fill-19"
       inkscape:connector-curvature="0"
       style="fill:#0d102b;fill-opacity:1;fill-rule:evenodd" />
    <path
       d="m 149.03954,18.511542 -9.21004,0 c -0.42632,0 -0.7716,-0.345029 -0.7716,-0.770526 l 0,-0.501755 c 0,-4.403976 1.70835,-6.455204 5.37662,-6.455204 3.66851,0 5.37686,2.051228 5.37686,6.455204 l 0,0.501755 c 0,0.425497 -0.34552,0.770526 -0.77184,0.770526 M 144.33567,7.7000797 c -5.82895,0 -8.90997,3.1450293 -8.90997,9.0949713 l 0,6.714152 c 0,6.19883 3.26373,9.341988 9.70102,9.341988 2.83108,0 5.33867,-0.98386 7.25104,-2.845848 0.4022,-0.401637 0.19021,-0.811696 0.0279,-1.020117 l -0.98688,-1.231579 c -0.10962,-0.136842 -0.28437,-0.30269 -0.49472,-0.314386 -0.15554,-0.0094 -0.32443,0.07018 -0.48957,0.235088 -1.62871,1.469474 -3.16887,2.092865 -5.15971,2.092865 -4.2998,0 -6.21686,-2.051929 -6.21686,-6.653099 l 0,-1.666901 12.91462,0 c 0.70297,0 1.27312,-0.569356 1.27312,-1.271579 l 0,-3.380584 c 0,-5.949942 -3.08079,-9.0949713 -8.90997,-9.0949713"
       id="Fill-21"
       inkscape:connector-curvature="0"
       style="fill:#0d102b;fill-opacity:1;fill-rule:evenodd" />
    <path
       d="m 164.70351,7.7000095 c -5.28901,0 -7.97065,2.9272515 -7.97065,8.7001175 l 0,15.096608 c 0,0.459649 0.24315,0.702456 0.70368,0.702456 l 2.22462,0 c 0.46005,0 0.70344,-0.242807 0.70344,-0.702456 l 0,-15.047018 c 0,-3.812397 1.54859,-5.665731 4.73432,-5.665731 1.13655,0 2.25858,0.327018 3.3347,0.971462 0.23074,0.146667 0.42539,0.205147 0.58163,0.179416 0.15765,-0.02596 0.29914,-0.140819 0.43289,-0.350878 l 0.83578,-1.424093 c 0.264,-0.4147373 0.19232,-0.7274863 -0.22792,-1.0212873 -1.43287,-0.953684 -3.23492,-1.4385962 -5.35249,-1.4385962"
       id="Fill-23"
       inkscape:connector-curvature="0"
       style="fill:#0d102b;fill-opacity:1;fill-rule:evenodd" />
    <path
       style="opacity:1;fill:#0d102b;fill-opacity:1;fill-rule:evenodd;stroke:none;stroke-width:4.9315753;stroke-linecap:round;stroke-linejoin:miter;stroke-miterlimit:4;stroke-dasharray:none;stroke-opacity:1"
       d="m 177.37363,32.726099 c -0.14466,-0.04793 -0.36048,-0.137938 -0.4796,-0.200014 -0.28924,-0.150724 -3.5751,-3.256919 -3.7575,-3.552049 -0.20909,-0.338316 -0.27225,-0.604508 -0.27196,-1.146282 4.1e-4,-0.766781 0.14302,-1.002549 1.42973,-2.363588 2.53081,-2.677015 2.84479,-2.959993 3.80263,-3.427113 2.09973,-1.023998 4.56697,-0.915815 6.43791,0.282287 l 0.38851,0.248791 0.9572,-1.001325 c 0.52646,-0.55073 1.01274,-1.071943 1.08064,-1.158254 0.1444,-0.183579 0.21183,-0.0947 -1.20537,-1.588886 l -0.83129,-0.876453 -0.29982,0.202346 c -0.49236,0.332293 -1.22745,0.651521 -1.92553,0.836211 -0.55709,0.147387 -0.79696,0.174189 -1.57755,0.176273 -1.33599,0.0036 -2.36367,-0.257456 -3.3768,-0.857683 -0.69722,-0.413068 -1.08547,-0.768886 -2.81808,-2.582701 -1.94798,-2.039284 -2.06241,-2.209002 -2.06391,-3.061149 -9.7e-4,-0.547737 0.092,-0.868224 0.35642,-1.228243 0.0789,-0.107366 0.89789,-0.907205 1.8201,-1.7774183 1.93946,-1.8301263 2.0724,-1.9173499 2.92606,-1.9198631 0.73525,-0.00216 1.08529,0.1784374 1.80868,0.9331778 0.91928,0.9591172 1.59983,1.6743496 3.44549,3.6210976 0.97014,1.023276 1.78266,1.851781 1.8056,1.841121 0.0229,-0.01066 0.58816,-0.596376 1.25606,-1.301591 0.6679,-0.705215 1.48448,-1.563309 1.81462,-1.906876 0.33014,-0.343566 1.0389,-1.0901165 1.57501,-1.6590005 0.53611,-0.5688842 1.08852,-1.1096255 1.22757,-1.2016474 0.35838,-0.2371624 0.97342,-0.3821757 1.391,-0.3279668 0.41437,0.053793 0.92921,0.2835794 1.194,0.5329083 3.34361,3.1484574 3.247,3.0510534 3.46452,3.4928954 0.18561,0.377021 0.21019,0.489651 0.20307,0.93015 -0.0133,0.822955 -0.10839,0.97508 -1.56663,2.506693 -0.57068,0.599392 -1.4031,1.476177 -2.40085,2.528815 -0.34137,0.360149 -0.88935,0.937143 -1.21773,1.28221 -0.32838,0.345066 -0.72462,0.768391 -0.88054,0.940721 -0.33127,0.366154 -0.39211,0.232103 0.55914,1.231899 0.32689,0.343567 0.86047,0.905766 1.18574,1.249333 0.81115,0.856789 1.5974,1.685101 2.34057,2.465787 1.96565,2.064877 1.98623,2.09645 1.97652,3.032971 -0.009,0.829249 -0.12798,0.995641 -1.95356,2.722617 -1.87645,1.775091 -1.90655,1.800948 -2.3131,1.987319 -0.24398,0.111847 -0.43979,0.145593 -0.84375,0.145411 -0.92438,-3.94e-4 -0.92986,-0.0047 -3.52503,-2.74469 -1.24081,-1.31007 -2.54036,-2.673528 -2.88789,-3.029906 l -0.63186,-0.64796 -2.29337,2.423327 c -3.32538,3.513816 -3.4335,3.621515 -3.83048,3.815738 -0.41736,0.204199 -1.09396,0.263304 -1.49459,0.13056 z m 0.91843,-3.14341 c 0.0957,-0.113697 1.20051,-1.286703 2.4552,-2.60668 1.25469,-1.319977 2.27923,-2.417927 2.27676,-2.43989 -0.002,-0.02196 -0.19637,-0.119718 -0.43088,-0.217233 -1.07967,-0.448954 -2.22798,-0.40287 -3.34551,0.134265 -0.42932,0.206353 -0.61974,0.364909 -1.47116,1.224981 -0.5379,0.543371 -1.20139,1.233708 -1.47443,1.534083 -0.43467,0.478178 -0.48889,0.565036 -0.43572,0.698031 0.0334,0.08354 0.47322,0.540532 0.97739,1.015531 1.02814,0.968649 1.14243,1.020483 1.44835,0.656912 z m 14.29735,-0.134951 c 1.19363,-1.108226 1.58446,-1.509258 1.58446,-1.625815 0,-0.07846 -0.99781,-1.179444 -2.5781,-2.844691 -1.41796,-1.494181 -2.59876,-2.725631 -2.62401,-2.736556 -0.0418,-0.01808 -0.33975,0.282411 -1.6611,1.675228 -0.33399,0.352062 -0.43321,0.497454 -0.39098,0.572926 0.0311,0.05562 0.33808,0.390726 0.68211,0.744668 0.34402,0.353941 1.16979,1.220524 1.83504,1.925739 2.02404,2.145656 2.51281,2.630174 2.65325,2.630174 0.0722,0 0.29693,-0.153753 0.49933,-0.341673 z m -0.89039,-14.009843 c 1.43284,-1.513618 2.47485,-2.665888 2.47485,-2.736734 0,-0.112278 -0.35225,-0.477395 -1.51794,-1.573403 -0.243,-0.228476 -0.49272,-0.407106 -0.56913,-0.407106 -0.0913,0 -0.54419,0.428054 -1.37526,1.299864 -2.28292,2.39485 -3.4193,3.596927 -3.63874,3.849113 l -0.21778,0.250278 0.28951,0.306809 c 0.15924,0.168745 0.56106,0.588729 0.89295,0.9333 0.33189,0.34457 0.66894,0.710424 0.74899,0.813008 l 0.14555,0.186518 0.14608,-0.153641 c 0.0803,-0.0845 1.25976,-1.330105 2.62092,-2.768006 z m -9.67267,0.941682 c 0.2741,-0.0701 0.62119,-0.190121 0.77131,-0.266709 l 0.27296,-0.139252 -1.23459,-1.294956 c -0.67903,-0.712226 -1.53081,-1.605646 -1.89286,-1.985377 -1.74095,-1.825985 -1.90163,-1.979324 -2.05304,-1.959297 -0.18498,0.02446 -1.97193,1.675784 -2.03208,1.877844 -0.0572,0.192223 0.0921,0.369639 1.6266,1.932289 0.94328,0.960594 1.29829,1.27763 1.6391,1.463766 0.87867,0.479892 1.94543,0.616496 2.9026,0.371692 z"
       id="path4263"
       inkscape:connector-curvature="0" />
    <path
       style="opacity:1;fill:#0d102b;fill-opacity:1;fill-rule:evenodd;stroke:none;stroke-width:75;stroke-linecap:round;stroke-linejoin:miter;stroke-miterlimit:4;stroke-dasharray:none;stroke-opacity:1"
       d="M 60.293245,4.6606172 C 59.8298,4.1971727 59.650017,3.733381 59.656021,3.0167587 c 0.01378,-1.6445764 1.186782,-2.62459457 2.783003,-2.32514165 1.096804,0.20576164 1.732531,1.09727705 1.732531,2.42962395 0,1.9623094 -2.47357,2.9441169 -3.87831,1.5393762 z"
       id="path4265"
       inkscape:connector-curvature="0" />
  </g>
</svg>
