<svg viewBox="0 0 109 20" fill="none" xmlns="http://www.w3.org/2000/svg">
  <g clip-path="url(#clip0_6108_51343)">
    <path
      d="M7.78587 10.2255C7.1182 10.2255 6.73926 9.93679 6.54076 9.39544C6.34227 8.89018 6.3964 8.6556 5.89115 8.6556C5.38589 8.6556 4.19492 10.0451 4.03252 11.9578C3.99643 12.1744 3.97838 13.4556 3.97838 14.1593V15.8916C3.97838 16.6495 3.92425 17.6059 4.06861 18.1653C4.21297 18.9232 4.41146 19.0134 4.9889 19.266C5.18739 19.3562 5.27762 19.3743 5.40393 19.4104V19.4645H0.170898V19.4104C0.279168 19.3743 0.387438 19.3562 0.585932 19.266C1.18142 19.0134 1.34382 18.9232 1.48818 18.1653C1.63254 17.6059 1.5784 16.6495 1.5784 15.8916V11.0014C1.5784 10.5323 1.61449 9.1789 1.54231 8.74582C1.45209 8.20447 1.32577 8.04207 1.0551 7.84357C0.766382 7.62703 0.495707 7.62703 0.315258 7.59094V7.53681H3.83402C3.99643 7.53681 3.99643 7.59094 3.99643 7.69921L3.96034 10.9112H3.99643C4.33928 9.50371 5.06108 8.60146 5.45807 8.20447C5.85506 7.78944 6.57685 7.28418 7.4791 7.28418C7.89414 7.28418 8.38135 7.39245 8.68811 7.7353C8.90465 7.95184 9.0851 8.33079 9.0851 8.92627C9.10315 9.57589 8.68811 10.2255 7.78587 10.2255Z"
      fill="#0D102B" />
    <path
      d="M60.5681 10.2255C59.9004 10.2255 59.5214 9.93679 59.3229 9.39544C59.1245 8.89018 59.1786 8.6556 58.6733 8.6556C58.1681 8.6556 56.9771 10.0451 56.8147 11.9578C56.7786 12.1744 56.7606 13.4556 56.7606 14.1593V15.8916C56.7606 16.6495 56.7064 17.6059 56.8508 18.1653C56.9952 18.9232 57.1936 19.0134 57.7711 19.266C57.9696 19.3562 58.0598 19.3743 58.1861 19.4104V19.4645H52.917V19.4104C53.0253 19.3743 53.1335 19.3562 53.332 19.266C53.9275 19.0134 54.0899 18.9232 54.2343 18.1653C54.3786 17.6059 54.3245 16.6495 54.3245 15.8916V11.0014C54.3245 10.5323 54.3606 9.1789 54.2884 8.74582C54.1982 8.20447 54.0719 8.04207 53.8192 7.84357C53.5305 7.62703 53.2599 7.62703 53.0794 7.59094V7.53681H56.6343C56.7967 7.53681 56.7967 7.59094 56.7967 7.69921L56.7606 10.9112H56.7967C57.1395 9.50371 57.8613 8.60146 58.2583 8.20447C58.6553 7.78944 59.3771 7.28418 60.2793 7.28418C60.6944 7.28418 61.1816 7.39245 61.4883 7.7353C61.7049 7.95184 61.8853 8.33079 61.8853 8.92627C61.8853 9.57589 61.4703 10.2255 60.5681 10.2255"
      fill="#0D102B" />
    <path
      d="M15.4014 8.33141C14.9503 7.95246 14.4991 7.82615 13.8315 7.82615C13.236 7.82615 12.7849 7.97051 12.3698 8.3675C11.7563 8.92689 11.4135 10.19 11.3232 12.0306H15.3653C16.1773 12.0306 16.2676 12.0126 16.2676 10.984C16.2856 9.55846 15.8525 8.71035 15.4014 8.33141V8.33141ZM18.7578 12.59H11.3232C11.3232 15.8742 11.7383 16.8847 12.5683 17.805C13.218 18.5448 13.8134 18.7253 14.6255 18.7253C16.8811 18.7253 18.1081 17.5885 18.5412 15.6035L18.6495 15.6396C18.1442 18.0937 16.5924 19.6817 14.1743 19.6817C12.7668 19.6817 11.2511 19.3388 10.2045 18.2561C9.08567 17.0471 8.65259 15.5855 8.65259 13.5644C8.65259 9.79305 10.818 7.26676 13.7954 7.26676C17.26 7.26676 18.7758 9.59455 18.7758 11.796C18.7938 11.9945 18.7938 12.2832 18.7578 12.59V12.59ZM23.5216 13.9073C22.7276 14.3223 22.4028 14.611 22.1502 15.008C21.8615 15.4592 21.6991 15.9644 21.6991 16.7584C21.6991 18.3644 22.3126 18.7073 23.4494 18.7073C23.666 18.7073 23.9186 18.6712 24.1532 18.5629C24.7487 18.2561 25.5968 17.3539 25.5968 16.4516L25.6329 12.5178C25.2359 13.1133 24.2795 13.5103 23.5216 13.9073ZM27.7081 19.6997C27.0404 19.6997 26.499 19.6636 26.1562 19.4832C25.7953 19.2847 25.5427 18.7253 25.5968 17.6787H25.5607C25.272 18.6351 24.0088 19.6997 22.2043 19.6997C20.5442 19.6997 19.0826 18.7433 19.0826 16.7223C19.0826 15.9644 19.2991 15.3689 19.7863 14.9178C20.6525 14.1058 21.8434 14.0517 23.0525 13.5644C24.6585 12.9509 25.687 12.193 25.687 11.3449C25.687 10.9299 25.7231 9.95545 25.7231 9.54042C25.7231 8.02464 25.0374 7.77201 23.8284 7.77201C23.2329 7.77201 22.872 7.88028 22.5833 8.169C22.2946 8.45772 22.1863 8.71035 22.1863 9.54042C22.1863 10.3705 21.7171 10.7855 20.9232 10.7855C20.3096 10.7855 19.8044 10.4427 19.8044 9.72087C19.8044 9.2517 19.9668 8.90885 20.2555 8.56599C20.869 7.77201 22.5833 7.30285 23.7923 7.30285C25.8675 7.30285 28.1953 8.06073 28.1953 10.0637C28.1953 10.984 28.1411 15.405 28.1411 17.0832C28.1411 17.4621 28.1411 17.823 28.1592 18.202C28.1953 18.6531 28.3216 19.1764 28.8449 19.3027C29.0795 19.3569 29.3862 19.3027 29.5847 19.1584V19.1945C29.296 19.4471 28.6103 19.6997 27.7081 19.6997ZM29.6208 19.4471V19.393C29.7652 19.3569 29.9637 19.3027 30.09 19.2486C30.5772 19.0501 30.7937 18.8877 30.9381 18.1479C31.0464 17.6065 31.0464 16.6862 31.0464 15.8922V3.65777C31.0464 3.1886 31.0825 1.83523 30.9922 1.40215C30.902 0.8608 30.7757 0.662305 30.5231 0.499901C30.2163 0.265316 29.9817 0.265316 29.7832 0.247272V0.211182H33.32C33.4283 0.211182 33.4824 0.277346 33.4824 0.409676C33.4824 0.82471 33.4463 1.42019 33.4463 2.17808V15.9103C33.4463 16.7043 33.4103 17.6065 33.5366 18.1659C33.699 18.9238 33.8975 19.0681 34.4929 19.2847C34.6554 19.3388 34.7095 19.3749 34.8538 19.393V19.4471H29.6208Z"
      fill="#0D102B" />
    <path
      d="M42.5766 17.9128C42.1616 18.8331 40.9165 19.7173 39.7075 19.7173C38.6067 19.7173 37.885 19.5549 37.2534 18.9774C36.7481 18.5263 36.5135 17.9669 36.5135 16.9203C36.5135 16.3609 36.6038 9.07076 36.6218 7.69934C36.2068 7.66325 35.3767 7.66325 34.9617 7.60912V7.55498C36.712 7.15799 37.7947 6.25575 38.9857 2.46631H39.0759V7.1219H41.8548V7.66325H39.0759L38.9676 17.1188C38.9676 18.1835 39.2744 19.1037 40.3932 19.1037C41.3857 19.1037 42.1436 18.5263 42.4684 17.8406L42.5766 17.9128"
      fill="#0D102B" />
    <path
      d="M49.1992 8.63775C48.6398 7.97009 47.9902 7.82573 47.3405 7.82573C46.727 7.82573 46.0413 8.06031 45.518 8.61971C44.6699 9.48586 44.2007 11.3264 44.2007 13.4738C44.2007 15.6211 44.706 17.3896 45.5 18.3098C46.0594 18.9775 46.7451 19.158 47.3586 19.158C48.0082 19.158 48.6217 19.0136 49.2172 18.3459C49.9751 17.4256 50.5165 15.6753 50.5165 13.4738C50.4804 11.2904 49.9751 9.57609 49.1992 8.63775V8.63775ZM47.3405 19.6993C44.5616 19.6993 41.5662 17.3174 41.5662 13.4558C41.5662 9.59413 44.5436 7.26634 47.3405 7.26634C50.1375 7.26634 53.133 9.63022 53.133 13.4558C53.133 17.2813 50.1195 19.6993 47.3405 19.6993ZM81.8605 8.63775C81.3011 7.97009 80.6515 7.82573 80.0019 7.82573C79.3884 7.82573 78.7027 8.06031 78.1794 8.61971C77.3312 9.48586 76.8621 11.3264 76.8621 13.4738C76.8621 15.6211 77.3673 17.3896 78.1613 18.3098C78.7207 18.9775 79.4064 19.158 80.0199 19.158C80.6696 19.158 81.2831 19.0136 81.8786 18.3459C82.6365 17.4256 83.1778 15.6753 83.1778 13.4738C83.1417 11.2904 82.6365 9.57609 81.8605 8.63775V8.63775ZM80.0019 19.6993C77.223 19.6993 74.2275 17.3174 74.2275 13.4558C74.2275 9.59413 77.2049 7.26634 80.0019 7.26634C82.7989 7.26634 85.7943 9.63022 85.7943 13.4558C85.7943 17.2813 82.7808 19.6993 80.0019 19.6993ZM61.993 19.8798C61.181 19.8798 60.4953 19.2301 60.4953 18.3279C60.4953 17.4256 61.163 16.776 61.993 16.776C62.8231 16.776 63.4908 17.3354 63.4908 18.3279C63.4908 19.3204 62.8051 19.8798 61.993 19.8798ZM69.8065 19.6993C68.2546 19.6993 66.8832 19.1038 65.981 18.2016C64.8261 17.0287 64.375 15.3685 64.375 13.3294C64.375 9.50391 67.2983 7.24829 69.8245 7.24829C71.5749 7.24829 72.8561 7.89791 73.3614 8.51144C73.7583 8.99865 73.9568 9.41368 73.9568 9.81067C73.9568 10.6768 73.3072 11.0197 72.802 11.0197C71.8456 11.0197 71.5027 10.4242 71.3945 9.52195C71.1779 7.91595 70.9072 7.71746 69.6982 7.71746C69.2291 7.71746 68.4531 7.91595 68.002 8.42121C67.3524 9.16106 67.0095 10.6588 67.0095 12.8422C67.0095 15.6031 67.3524 16.6858 68.0742 17.7504C68.6155 18.5444 69.2832 18.7429 69.9328 18.7429C72.4591 18.7429 73.5959 17.2632 73.9749 15.6031L74.0832 15.6392C73.632 17.8768 72.1704 19.6993 69.8065 19.6993"
      fill="#0D102B" />
    <path
      d="M100.195 19.4649V19.4107C100.339 19.3746 100.411 19.3566 100.61 19.2664C101.169 19.0498 101.368 18.9055 101.512 18.1476C101.656 17.5882 101.62 16.686 101.62 15.892V11.0018C101.62 9.70256 101.512 9.10708 101.205 8.674C100.844 8.18678 100.393 7.93415 99.6534 7.93415C98.3903 7.93415 96.9828 10.0995 96.7843 12.2649C96.7482 12.68 96.7302 13.0409 96.7302 13.5642V15.892C96.7302 16.686 96.676 17.5882 96.8204 18.1476C96.9647 18.9055 97.1813 19.0498 97.7407 19.2664C97.9392 19.3566 98.0294 19.3746 98.1557 19.4107V19.4649H92.9046V19.4107C93.049 19.3746 93.1212 19.3566 93.3197 19.2664C93.8791 19.0498 94.0776 18.9055 94.2219 18.1476C94.3663 17.5882 94.3302 16.686 94.3302 15.892V11.0018C94.3302 9.70256 94.1858 9.10708 93.8791 8.674C93.5182 8.18678 93.067 7.93415 92.3272 7.93415C90.9197 7.93415 89.6565 10.1537 89.4581 12.3191C89.4039 12.9867 89.4039 12.7341 89.4039 13.5822V15.892C89.4039 16.686 89.3498 17.6062 89.4941 18.1656C89.6385 18.9235 89.855 19.0137 90.4505 19.2664L90.8475 19.4107V19.4649H85.5964V19.4107C85.7047 19.3746 85.813 19.3566 86.0115 19.2664C86.607 19.0498 86.7513 18.9235 86.9137 18.1656C87.0581 17.6062 87.022 16.6679 87.022 15.892V11.0198C87.022 10.5146 87.022 9.16121 86.9679 8.74618C86.8776 8.20483 86.7694 8.07851 86.4806 7.84393C86.1919 7.62739 85.9393 7.62739 85.7408 7.5913V7.53717H89.2776C89.44 7.53717 89.44 7.57326 89.44 7.69957L89.3859 10.4604H89.422C89.7648 9.21535 90.3783 8.51159 90.9919 8.07851C91.443 7.73566 92.3452 7.28454 93.3197 7.28454C94.5648 7.28454 95.4309 7.64544 95.9362 8.27701C96.2249 8.61986 96.676 9.39579 96.676 10.5507H96.7121C97.073 9.23339 97.7587 8.49355 98.3362 8.07851C98.9497 7.62739 99.9061 7.28454 100.646 7.28454C102.198 7.28454 102.902 7.77175 103.317 8.29505C103.677 8.71009 103.984 9.46797 103.984 10.9116V15.892C103.984 16.686 103.948 17.5882 104.093 18.1476C104.237 18.9055 104.435 19.0137 105.013 19.2664L105.41 19.4107V19.4649H100.195M106.908 7.64544C107.016 7.64544 107.106 7.62739 107.16 7.57326C107.214 7.51912 107.25 7.46499 107.25 7.37476V7.35672C107.25 7.26649 107.214 7.19431 107.16 7.15822C107.106 7.10409 107.016 7.08604 106.908 7.08604H106.474V7.62739H106.908V7.64544ZM106.15 6.79732H106.926C107.142 6.79732 107.323 6.85146 107.449 6.97777C107.539 7.068 107.593 7.19431 107.593 7.33867C107.593 7.48303 107.557 7.5913 107.485 7.68153C107.413 7.77175 107.323 7.82588 107.196 7.86197L107.665 8.51159H107.268L106.853 7.91611H106.492V8.51159H106.168L106.15 6.79732V6.79732ZM106.817 9.10708C107.016 9.10708 107.196 9.07099 107.377 8.99881C107.539 8.92663 107.701 8.81836 107.828 8.69204C107.954 8.56573 108.044 8.42137 108.117 8.24092C108.189 8.07851 108.225 7.88002 108.225 7.69957C108.225 7.50108 108.189 7.32063 108.117 7.15822C108.044 6.99582 107.954 6.83341 107.828 6.7071C107.701 6.58078 107.557 6.47251 107.377 6.40033C107.214 6.32815 107.016 6.29206 106.817 6.29206C106.619 6.29206 106.438 6.32815 106.258 6.40033C106.096 6.47251 105.933 6.58078 105.807 6.7071C105.68 6.83341 105.59 6.97777 105.518 7.15822C105.446 7.32063 105.41 7.51912 105.41 7.69957C105.41 7.89806 105.446 8.07851 105.518 8.24092C105.59 8.40332 105.68 8.56573 105.807 8.69204C105.933 8.81836 106.077 8.92663 106.258 8.99881C106.438 9.07099 106.619 9.10708 106.817 9.10708ZM106.817 9.32361C106.583 9.32361 106.384 9.28752 106.186 9.1973C105.987 9.10708 105.825 8.99881 105.68 8.85445C105.536 8.71009 105.428 8.54768 105.338 8.34919C105.247 8.15069 105.211 7.9522 105.211 7.73566C105.211 7.51912 105.247 7.30258 105.338 7.12213C105.428 6.92364 105.536 6.76123 105.68 6.61687C105.825 6.47251 106.005 6.3462 106.186 6.27402C106.384 6.18379 106.601 6.14771 106.817 6.14771C107.052 6.14771 107.25 6.18379 107.449 6.27402C107.647 6.36424 107.81 6.47251 107.954 6.61687C108.098 6.76123 108.207 6.92364 108.297 7.12213C108.387 7.32063 108.423 7.51912 108.423 7.73566C108.423 7.9522 108.387 8.16874 108.297 8.34919C108.207 8.54768 108.098 8.71009 107.954 8.85445C107.81 8.99881 107.629 9.12512 107.449 9.1973C107.25 9.26948 107.052 9.32361 106.817 9.32361Z"
      fill="#0D102B" />
  </g>
  <defs>
    <clipPath id="clip0_6108_51343">
      <rect width="108.252" height="19.669" fill="white" transform="translate(0.170898 0.211182)" />
    </clipPath>
  </defs>
</svg>