<svg xmlns="http://www.w3.org/2000/svg" viewBox="0 0 825.625 396.25">
  <path d="M709.743 374.576c-19.461-2.845-30.034-12.36-32.336-29.099-1.605-11.67-.426-20.009 9.383-66.363 9.505-44.92 24.266-115.932 24.266-116.741 0-.311-17.848-.566-39.661-.566h-39.662l-9.472 45.013c-5.21 24.758-15.133 71.897-22.05 104.755-6.918 32.857-12.934 60.097-13.369 60.531-.435.435-10.145.56-21.58.277l-20.788-.515 11.392-54.561 21.455-102.758c5.534-26.507 10.063-49.219 10.063-50.469 0-1.666-4.852-2.273-18.187-2.273-20.967 0-19.864 1.485-14.867-20.005l3.172-13.64 19.377-.516 19.377-.515 2.99-14.034c10.385-48.758 20.71-70.158 41.054-85.092 13.077-9.6 27.295-13.513 49.093-13.513 20.547 0 19.49-1.224 15.213 17.62-4.473 19.698-3.853 18.753-12.314 18.764-18.49.025-31.087 7.334-38.354 22.254-3.868 7.941-13.812 45.519-13.812 52.195 0 1.298 12.937 1.927 39.627 1.927h39.626l6.133-29.554c3.373-16.255 6.859-32.214 7.746-35.465l1.612-5.91h20.83c15.456 0 20.827.586 20.82 2.273-.006 1.25-2.866 15.777-6.356 32.282-3.49 16.505-6.35 31.44-6.356 33.191-.009 2.875 2.368 3.183 24.543 3.183 28.229 0 26.306-1.812 21.23 20.006l-3.172 13.64-25.83.505c-25.006.488-25.86.633-26.764 4.546-1.042 4.51-19.803 94.417-27.508 131.831-7.799 37.865-5.05 42.8 23.318 41.87 15.04-.493 15.791-.336 14.96 3.119-6.649 27.654-7.122 28.87-11.699 30.063-8.207 2.14-33.454 3.16-43.143 1.744zM425.84 365.048c.965-4.251 6.145-28.6 11.511-54.107 22.113-105.109 34.259-162.168 38.229-179.597.9-3.952 1.647-4.092 21.812-4.092 17.021 0 20.88.487 20.88 2.635 0 1.45-4.11 22.115-9.134 45.923a168953.98 168953.98 0 00-18.127 86.026c-9.96 47.35-21.296 100.532-22.774 106.85-.926 3.96-1.653 4.092-22.554 4.092h-21.596l1.754-7.73zM296.3 376.305c-23.473-3.458-51.563-19.465-67.261-38.329-14.643-17.595-14.82-16.082 3.238-27.564 15.744-10.01 15.819-10.034 18.403-6.124 4.895 7.406 19.343 21.383 27.584 26.685 10.956 7.048 29.079 11.604 40.691 10.228 12.156-1.44 27.316-9.13 33.196-16.837 3.156-4.138 5.1-9.356 5.66-15.202 1.525-15.86-6.258-23.961-43.036-44.801-24.78-14.042-41.593-29.529-48.314-44.504-4.527-10.089-4.974-12.829-4.271-26.216.975-18.57 7.098-32.219 20.454-45.591 14.903-14.922 42.974-26.125 65.7-26.223 21.138-.09 49.983 10.96 66.862 25.612l8.785 7.625-13.26 13.348-13.258 13.348-4.62-4.292c-13.552-12.597-35.363-20.65-49.76-18.371-17.3 2.738-30.307 12.745-33.898 26.082-4.14 15.372 4.034 26.1 31.754 41.677 35.865 20.153 50.077 31.895 58.748 48.538 4.11 7.888 4.789 11.473 4.835 25.545.048 14.703-.54 17.621-5.774 28.69-13.088 27.673-41.802 44.541-80.543 47.316-6.502.466-16.363.178-21.914-.64zM502.496 75.493c-20.047-8.72-13.437-39.176 8.502-39.176 12.448 0 20.006 8.124 20.006 21.505 0 8.42-4.09 14.484-12.001 17.789-7.403 3.093-9.154 3.08-16.507-.118zM278.89 126.571c-2.907-1.384-3.623-2.105-4.976-5.013-4.388-9.424 1.498-19.128 11.612-19.146 2.75-.005 7.297 2.483 9.391 5.14 8.601 10.911-3.327 25.067-16.026 19.02zM282.036 71.932c-1.71-.947-3.228-3.313-3.263-5.082-.038-1.924 1.707-4.654 3.496-5.47 2.443-1.112 4.44-.946 6.312.526 3.26 2.566 2.77 8.099-.887 9.99-2.208 1.141-3.648 1.15-5.658.036z" fill="#0d102b"/>
  <path d="M280.358 279.313c-3.06-1.405-4.43-2.84-5.763-6.028-1.312-3.14-1.228-6.642.236-9.866 3.6-7.927 15.25-8.354 19.88-.729 3.705 6.103 1.3 13.615-5.325 16.623-3.288 1.494-5.775 1.494-9.028 0zM279.882 322.278c-4.297-2.27-6.33-9.006-4.049-13.419 1.351-2.612 4.518-5.069 7.178-5.568 6.766-1.27 13.678 5.824 11.91 12.224-1.91 6.92-8.84 10.035-15.039 6.763zM325.048 318.623c-5.901-2.958-4.08-11.095 2.484-11.095 5.039 0 7.725 6.174 4.297 9.873-.867.936-1.856 1.702-2.198 1.702-.341 0-1.006.145-1.477.324-.471.178-1.87-.184-3.106-.804zM229.995 377.214c-6.83-3.483-7.185-14.234-.602-18.248 2.974-1.814 7.993-1.73 10.827.18 3.724 2.509 5.251 5.397 4.935 9.334-.288 3.585-1.57 5.877-4.516 8.077-2.34 1.747-7.84 2.087-10.644.657zM180.858 380.585c-5.836-2.144-8.941-6.097-9.362-11.918-.317-4.383 1.119-7.759 4.6-10.816 8.601-7.551 21.914-1.39 21.806 10.092-.019 2.027-.475 4.527-1.013 5.555-1.077 2.059-4.545 5.525-6.553 6.55-2.351 1.2-6.961 1.462-9.478.537zM180.365 333.33c-7.382-2.422-11.85-8.275-11.844-15.513.006-7.413 4.596-13.718 11.483-15.773 5.993-1.787 10.399-.856 14.964 3.162 9.153 8.056 7.54 21.615-3.233 27.186-2.265 1.172-8.971 1.725-11.37.938zM179.788 283.032c-4.878-1.49-8.413-4.973-10.426-10.27-1.457-3.836-1.509-5.792-.264-9.967 2.064-6.918 8.105-11.202 15.773-11.188 8.842.017 15.198 5.78 15.935 14.452.54 6.354-2.707 12.66-8.036 15.608-3.075 1.7-9.629 2.39-12.982 1.365zM230.52 283.176c-5.582-1.836-9.725-6-11.275-11.332-3.077-10.584 4.466-20.258 15.78-20.237 4.83.009 8.25 1.337 11.473 4.455 7.527 7.282 5.467 21.04-3.864 25.8-2.765 1.412-9.574 2.15-12.114 1.314zM227.45 231.925c-5.853-2.917-9.115-8.192-9.115-14.74 0-7.96 5.597-14.559 13.574-16.005 5.458-.99 12.573 2.113 16.058 7.003 9.426 13.225-5.94 31.006-20.516 23.742zM229.597 182.468c-10.281-3.662-14.305-16.45-7.844-24.921 6.233-8.172 16.542-9.092 24.102-2.151 3.675 3.374 5.213 6.754 5.232 11.495.025 6.626-3.06 11.544-9.153 14.588-4.367 2.182-8.139 2.485-12.337.99zM229.888 129.855c-1.234-.393-3.41-1.883-4.836-3.31-4.185-4.192-5.24-9.826-2.833-15.135 2.513-5.541 6.767-8.445 12.452-8.496 4.284-.038 7.437 1.47 10.615 5.08 9.417 10.699-1.551 26.27-15.398 21.86zM229.79 75.944c-3.526-2.045-5.26-5.6-4.934-10.113.417-5.766 3.645-9.124 9.216-9.586 6.037-.501 10.618 3.526 11.059 9.719.589 8.286-8.295 14.065-15.34 9.98zM180.85 79.628c-11.404-4.07-12.907-19.34-2.425-24.642 5.222-2.641 11.802-1.736 15.698 2.16 6.983 6.983 3.602 20.09-5.859 22.718-3.115.865-4.448.823-7.414-.236zM180.245 132.404c-3.096-.865-4-1.4-7.168-4.243-8.007-7.185-5.294-21.36 5.006-26.155 10.743-5.003 22.949 3.075 22.835 15.112-.1 10.583-10.36 18.17-20.673 15.286zM179.564 182.51c-3.452-1.232-6.763-3.949-8.88-7.288-7.633-12.035 4.561-27.786 18.512-23.911 3.984 1.107 9.834 6.785 10.971 10.65 1.93 6.562.625 11.562-4.265 16.34-5.054 4.937-10.422 6.32-16.338 4.21zM179.088 232.736c-3.684-1.173-8.709-6.59-9.91-10.684-1.264-4.306-1.274-5.41-.08-9.412 1.237-4.144 3.895-7.273 8.15-9.592 2.817-1.536 4.203-1.874 7.623-1.862 5.135.017 8.434 1.566 12.025 5.646 7.342 8.342 4.452 20.823-5.917 25.55-2.888 1.316-8.356 1.48-11.89.354zM127.964 232.047c-6.35-3.007-9.323-7.778-9.323-14.96 0-9.343 6.62-15.887 16.075-15.887 8.628 0 15.204 6.102 15.942 14.793 1.05 12.361-11.598 21.309-22.694 16.054zM129.41 182.51c-3.324-1.186-6.633-3.833-8.705-6.964-1.432-2.164-1.783-3.51-1.966-7.536-.248-5.444.518-8.012 3.408-11.44 9.376-11.12 27.274-5.3 28.511 9.268.978 11.517-10.487 20.513-21.248 16.672zM128.29 128.979c-2.306-1.185-4.204-2.783-5.466-4.603-1.72-2.48-1.933-3.31-1.933-7.5 0-4.207.209-5.009 1.949-7.485 2.84-4.04 7.045-6.44 11.328-6.464 8.537-.05 14.076 5.551 14.033 14.188-.038 7.521-5.16 12.926-12.731 13.434-3.035.203-4.241-.06-7.18-1.57zM130.536 76.459c-4.144-1.919-7.177-7.245-6.428-11.289 1.385-7.476 9.35-11.293 15.891-7.617 8.697 4.888 5.55 18.777-4.432 19.557-1.802.14-3.91-.133-5.03-.651zM80.663 71.052c-2.99-2.672-3.02-5.963-.079-8.592 2.757-2.463 5.4-2.452 7.885.032 3.605 3.605 1.724 9.302-3.337 10.108-1.956.31-2.663.066-4.47-1.548zM79.827 127.187c-3.654-1.303-6.096-3.977-7.247-7.936-1.868-6.426.742-12.645 6.416-15.287 3.858-1.796 6.592-1.95 9.926-.557 6.985 2.918 10.283 10.767 7.29 17.354-2.753 6.061-9.731 8.798-16.385 6.426zM78.691 178.28c-7.184-3.796-9.127-13.191-3.991-19.295 2.392-2.843 6.014-4.493 9.861-4.493 13.508 0 17.696 17.677 5.652 23.854-3.125 1.603-8.421 1.572-11.522-.066zM79.905 231.381c-3.717-1.326-5.55-2.77-7.575-5.961-6.284-9.91.5-22.64 12.09-22.688 8.241-.034 14.93 6.374 14.93 14.302 0 10.176-10.15 17.665-19.445 14.347zM80.381 279.67c-3.56-1.394-4.773-2.372-6.338-5.108-2.19-3.829-2.601-6.966-1.44-10.963 3.21-11.042 18.728-11.964 23.603-1.403 4.577 9.917-5.814 21.39-15.825 17.473zM129.147 282.853c-3.975-1.3-6.466-3.345-8.592-7.051-1.627-2.838-1.903-3.994-1.908-8-.004-2.792.397-5.648.992-7.073 3.999-9.573 18.433-12.358 26.196-5.056 2.565 2.414 4.942 7.884 4.95 11.392.013 6.183-3.49 12.263-8.557 14.847-3.298 1.683-9.46 2.126-13.08.941zM128.607 330.1c-10.485-4.854-10.702-19.427-.367-24.661 10.228-5.18 20.697 2.014 19.856 13.645-.348 4.808-2.752 8.555-6.89 10.74-3.549 1.873-8.897 1.99-12.599.277zM81.667 331.375c-5.223-1.309-8.065-4.116-9.355-9.239-2.229-8.85 5.035-16.88 14.14-15.633 8.504 1.166 13.536 10.882 9.523 18.387-2.578 4.821-9.119 7.786-14.308 6.485zM81.237 372.775c-2.463-1.338-3.484-4.779-2.172-7.317 2.867-5.544 11.314-3.803 11.263 2.322-.042 4.926-4.603 7.432-9.09 4.995zM129.893 376.977c-5.296-2.64-7.313-8.43-4.702-13.501 2.092-4.064 4.934-5.793 9.523-5.793 6.822 0 10.815 4.601 10.135 11.68-.672 6.988-8.359 10.901-14.956 7.614zM30.197 322.025c-1.928-1.928-2.155-5.937-.453-8.004 2.432-2.952 8.066-2.671 9.756.486 1.39 2.6.54 6.458-1.823 8.273-1.812 1.39-5.73.996-7.48-.755zM29.256 276.503c-3.738-2.544-4.816-4.595-4.816-9.163 0-4.415.972-6.382 4.427-8.962 2.503-1.869 8.584-1.858 11.118.02 6.549 4.851 6.364 13.542-.384 18.09-2.937 1.979-7.45 1.986-10.345.015zM31.09 230.417c-10.123-3.254-13.342-15.617-5.904-22.682 6.708-6.371 17.568-4.197 21.504 4.306 2.633 5.687.264 13.211-5.21 16.546-3.132 1.908-7.663 2.706-10.39 1.83zM30.774 176.97c-2.655-.811-5.839-4.5-6.381-7.39-.572-3.046.058-6.64 1.514-8.643 1.432-1.969 6.225-4.516 8.5-4.516 2.587 0 7.236 2.672 8.835 5.078 1.728 2.6 1.96 7.509.489 10.353-2.208 4.268-8.112 6.601-12.957 5.119zM30.499 121.105c-3.883-3.883-1.495-9.987 3.907-9.987 3.422 0 5.787 2.388 5.787 5.843 0 3.009-2.896 6.024-5.787 6.024-1.384 0-2.625-.597-3.907-1.88z" fill="#0d102b"/>
</svg>
