<?xml version="1.0" encoding="UTF-8" standalone="no"?>
<!-- Created with Inkscape (http://www.inkscape.org/) -->

<svg
   xmlns:dc="http://purl.org/dc/elements/1.1/"
   xmlns:cc="http://creativecommons.org/ns#"
   xmlns:rdf="http://www.w3.org/1999/02/22-rdf-syntax-ns#"
   xmlns:svg="http://www.w3.org/2000/svg"
   xmlns="http://www.w3.org/2000/svg"
   xmlns:sodipodi="http://sodipodi.sourceforge.net/DTD/sodipodi-0.dtd"
   xmlns:inkscape="http://www.inkscape.org/namespaces/inkscape"
   id="svg6057"
   version="1.1"
   inkscape:version="0.91 r13725"
   width="825.625"
   height="396.25"
   viewBox="0 0 825.625 396.25"
   sodipodi:docname="SIft_logo_2xblack.svg">
  <metadata
     id="metadata6063">
    <rdf:RDF>
      <cc:Work
         rdf:about="">
        <dc:format>image/svg+xml</dc:format>
        <dc:type
           rdf:resource="http://purl.org/dc/dcmitype/StillImage" />
        <dc:title></dc:title>
      </cc:Work>
    </rdf:RDF>
  </metadata>
  <defs
     id="defs6061" />
  <sodipodi:namedview
     pagecolor="#ffffff"
     bordercolor="#666666"
     borderopacity="1"
     objecttolerance="10"
     gridtolerance="10"
     guidetolerance="10"
     inkscape:pageopacity="0"
     inkscape:pageshadow="2"
     inkscape:window-width="1920"
     inkscape:window-height="1017"
     id="namedview6059"
     showgrid="false"
     inkscape:zoom="0.54984109"
     inkscape:cx="447.66593"
     inkscape:cy="-89.368787"
     inkscape:window-x="-8"
     inkscape:window-y="-8"
     inkscape:window-maximized="1"
     inkscape:current-layer="svg6057" />
  <path
     style="opacity:1;fill:#0d102b;fill-opacity:1;fill-rule:nonzero;stroke:none;stroke-width:136.40304565;stroke-linecap:round;stroke-linejoin:miter;stroke-miterlimit:4;stroke-dasharray:none;stroke-opacity:1"
     d="m 709.74302,374.57574 c -19.46119,-2.84522 -30.03376,-12.3593 -32.336,-29.09859 -1.60503,-11.66993 -0.42599,-20.00907 9.38282,-66.36308 9.50555,-44.92083 24.26598,-115.93199 24.26598,-116.74151 0,-0.31081 -17.84755,-0.56511 -39.66121,-0.56511 l -39.66121,0 -9.47251,45.01301 c -5.20988,24.75715 -15.1325,71.89653 -22.05025,104.75419 -6.91776,32.85766 -12.93353,60.09698 -13.36839,60.53183 -0.43485,0.43488 -10.14555,0.55913 -21.57932,0.27616 l -20.78868,-0.5145 11.39185,-54.56122 21.45474,-102.75745 c 5.53458,-26.50794 10.06288,-49.21905 10.06288,-50.46913 0,-1.66652 -4.85202,-2.27289 -18.18707,-2.27289 -20.96646,0 -19.86325,1.4846 -14.86636,-20.00578 l 3.17162,-13.6403 19.37706,-0.51509 19.37706,-0.51508 2.98938,-14.03458 c 10.3855,-48.757927 20.71037,-70.157677 41.05485,-85.091897 13.0769,-9.59932 27.29424,-13.51256 49.0931,-13.51256 20.5471,0 19.49044,-1.22387 15.21218,17.61954 -4.47245,19.69866 -3.85218,18.75347 -12.31403,18.76475 -18.48975,0.0246 -31.08665,7.33369 -38.35399,22.25392 -3.86786,7.94092 -13.81129,45.518417 -13.81129,52.194657 0,1.29788 12.93686,1.92698 39.62651,1.92698 l 39.62651,0 6.13289,-29.553987 c 3.37308,-16.25469 6.85849,-32.21385 7.74536,-35.46479 l 1.61249,-5.9108 20.82963,0 c 15.45649,0 20.82713,0.58644 20.81987,2.27339 -0.005,1.25036 -2.86544,15.77728 -6.35569,32.28205 -3.49024,16.504767 -6.3503,31.440897 -6.35569,33.191407 -0.009,2.87449 2.36812,3.18273 24.54277,3.18273 28.22897,0 26.30563,-1.81236 21.23066,20.00578 l -3.17279,13.64031 -25.82983,0.50447 c -25.00562,0.48839 -25.85963,0.63347 -26.76402,4.54677 -1.04216,4.5094 -19.80251,94.41642 -27.50831,131.83076 -7.7986,37.86483 -5.05029,42.79966 23.31839,41.87015 15.03947,-0.49276 15.79136,-0.33604 14.96068,3.11858 -6.64959,27.65446 -7.12247,28.86954 -11.69958,30.06294 -8.20711,2.13989 -33.45439,3.16045 -43.14306,1.74397 z"
     id="path6607"
     inkscape:connector-curvature="0" />
  <path
     style="opacity:1;fill:#0d102b;fill-opacity:1;fill-rule:nonzero;stroke:none;stroke-width:75;stroke-linecap:round;stroke-linejoin:miter;stroke-miterlimit:4;stroke-dasharray:none;stroke-opacity:1"
     d="m 425.84051,365.04799 c 0.96459,-4.25123 6.14438,-28.59917 11.51064,-54.10654 22.11299,-105.10941 34.25843,-162.16852 38.22858,-179.59735 0.90021,-3.9519 1.64746,-4.09209 21.81263,-4.09209 17.02082,0 20.88048,0.4871 20.88048,2.63517 0,1.44934 -4.11076,22.1144 -9.13503,45.92236 -5.02427,23.80795 -13.18113,62.52002 -18.12636,86.02681 -9.96106,47.34923 -21.29674,100.53188 -22.77448,106.84905 -0.92637,3.96017 -1.65345,4.0921 -22.55374,4.0921 l -21.59652,0 1.7538,-7.72951 z"
     id="path6609"
     inkscape:connector-curvature="0" />
  <path
     style="opacity:1;fill:#0d102b;fill-opacity:1;fill-rule:nonzero;stroke:none;stroke-width:75;stroke-linecap:round;stroke-linejoin:miter;stroke-miterlimit:4;stroke-dasharray:none;stroke-opacity:1"
     d="m 296.30072,376.30499 c -23.47336,-3.45802 -51.56335,-19.46488 -67.26203,-38.32875 -14.64275,-17.59505 -14.82046,-16.08241 3.23827,-27.56376 15.74379,-10.00957 15.81898,-10.03459 18.40301,-6.12486 4.89477,7.40596 19.34309,21.38338 27.58401,26.685 10.95637,7.04853 29.07892,11.60417 40.69106,10.22888 12.15556,-1.43965 27.31636,-9.12956 33.19554,-16.83757 3.15635,-4.1382 5.09955,-9.35609 5.66123,-15.20154 1.52391,-15.85965 -6.25898,-23.96175 -43.03635,-44.80144 -24.78117,-14.04211 -41.59365,-29.5288 -48.31427,-44.50433 -4.5274,-10.0884 -4.9738,-12.8283 -4.27115,-26.21551 0.97471,-18.57057 7.09778,-32.21873 20.45404,-45.5915 14.90318,-14.9216 42.97385,-26.1251 65.70029,-26.22214 21.13732,-0.0903 49.98309,10.95898 66.8621,25.61122 l 8.78412,7.62528 -13.25903,13.34812 -13.25905,13.34812 -4.61862,-4.29269 c -13.55302,-12.59663 -35.36436,-20.64909 -49.76029,-18.37085 -17.30096,2.73798 -30.30773,12.74557 -33.89894,26.0823 -4.13936,15.37241 4.03465,26.1006 31.75422,41.67669 35.86505,20.15317 50.07759,31.89562 58.74823,48.53798 4.11001,7.88873 4.7885,11.47367 4.83469,25.54492 0.0482,14.70343 -0.53905,17.62173 -5.77396,28.69058 -13.08747,27.67248 -41.80138,44.54083 -80.5428,47.31589 -6.50187,0.46573 -16.36332,0.17769 -21.91432,-0.64004 z"
     id="path6611"
     inkscape:connector-curvature="0" />
  <path
     style="opacity:1;fill:#0d102b;fill-opacity:1;fill-rule:nonzero;stroke:none;stroke-width:75;stroke-linecap:round;stroke-linejoin:miter;stroke-miterlimit:4;stroke-dasharray:none;stroke-opacity:1"
     d="m 502.49643,75.493183 c -20.04705,-8.72003 -13.43777,-39.17653 8.50159,-39.17653 12.44812,0 20.00578,8.12417 20.00578,21.50539 0,8.42033 -4.09058,14.4838 -12.00088,17.78893 -7.40242,3.09293 -9.15389,3.08043 -16.50649,-0.11779 z"
     id="path6613"
     inkscape:connector-curvature="0" />
  <path
     style="opacity:1;fill:#0d102b;fill-opacity:1;fill-rule:nonzero;stroke:none;stroke-width:75;stroke-linecap:round;stroke-linejoin:miter;stroke-miterlimit:4;stroke-dasharray:none;stroke-opacity:1"
     d="m 278.89059,126.57127 c -2.90774,-1.38472 -3.62334,-2.10553 -4.97705,-5.01327 -4.38724,-9.42372 1.49841,-19.12761 11.61262,-19.14618 2.75035,-0.005 7.29672,2.48354 9.39109,5.14049 8.60081,10.91113 -3.3275,25.06655 -16.02666,19.01896 z"
     id="path6615"
     inkscape:connector-curvature="0" />
  <path
     style="opacity:1;fill:#0d102b;fill-opacity:1;fill-rule:nonzero;stroke:none;stroke-width:75;stroke-linecap:round;stroke-linejoin:miter;stroke-miterlimit:4;stroke-dasharray:none;stroke-opacity:1"
     d="m 282.03588,71.932443 c -1.70939,-0.94744 -3.2282,-3.31312 -3.26304,-5.08245 -0.0379,-1.92436 1.70693,-4.65416 3.4958,-5.46922 2.44316,-1.11317 4.43995,-0.94688 6.31199,0.52566 3.26113,2.56521 2.76979,8.09811 -0.88707,9.98915 -2.20786,1.14172 -3.64735,1.1511 -5.65768,0.0369 z"
     id="path6617"
     inkscape:connector-curvature="0" />
  <path
     style="opacity:1;fill:#0d102b;fill-opacity:1;fill-rule:nonzero;stroke:none;stroke-width:75;stroke-linecap:round;stroke-linejoin:miter;stroke-miterlimit:4;stroke-dasharray:none;stroke-opacity:1"
     d="m 280.35758,279.31271 c -3.05932,-1.40485 -4.43029,-2.83882 -5.76257,-6.02742 -1.31215,-3.14042 -1.22834,-6.64187 0.23618,-9.86663 3.60004,-7.92709 15.24905,-8.35406 19.87942,-0.72865 3.70561,6.1025 1.29957,13.61458 -5.32429,16.62338 -3.28829,1.49367 -5.77492,1.49348 -9.02874,-6.8e-4 z"
     id="path6619"
     inkscape:connector-curvature="0" />
  <path
     style="opacity:1;fill:#0d102b;fill-opacity:1;fill-rule:nonzero;stroke:none;stroke-width:75;stroke-linecap:round;stroke-linejoin:miter;stroke-miterlimit:4;stroke-dasharray:none;stroke-opacity:1"
     d="m 279.88241,322.27755 c -4.29786,-2.26911 -6.33072,-9.00603 -4.049,-13.41841 1.35075,-2.61205 4.51778,-5.06895 7.17716,-5.56785 6.76646,-1.2694 13.67799,5.82382 11.91084,12.22394 -1.91039,6.91884 -8.84041,10.03494 -15.039,6.76232 z"
     id="path6621"
     inkscape:connector-curvature="0" />
  <path
     style="opacity:1;fill:#0d102b;fill-opacity:1;fill-rule:nonzero;stroke:none;stroke-width:75;stroke-linecap:round;stroke-linejoin:miter;stroke-miterlimit:4;stroke-dasharray:none;stroke-opacity:1"
     d="m 325.04752,318.62301 c -5.90102,-2.95835 -4.0787,-11.09455 2.48492,-11.09455 5.03833,0 7.72504,6.17347 4.29665,9.87277 -0.86725,0.93578 -1.85633,1.70142 -2.19794,1.70142 -0.34162,0 -1.00649,0.14585 -1.47748,0.32412 -0.47099,0.17827 -1.86876,-0.18343 -3.10615,-0.80376 z"
     id="path6623"
     inkscape:connector-curvature="0" />
  <path
     style="opacity:1;fill:#0d102b;fill-opacity:1;fill-rule:nonzero;stroke:none;stroke-width:75;stroke-linecap:round;stroke-linejoin:miter;stroke-miterlimit:4;stroke-dasharray:none;stroke-opacity:1"
     d="m 229.99524,377.2139 c -6.83057,-3.48249 -7.18533,-14.23425 -0.60209,-18.2481 2.97425,-1.81342 7.9928,-1.73021 10.82666,0.17953 3.72411,2.50968 5.25116,5.39817 4.93513,9.33501 -0.28774,3.58427 -1.56971,5.87692 -4.5163,8.07687 -2.34022,1.74722 -7.83897,2.0865 -10.6434,0.65669 z"
     id="path6625"
     inkscape:connector-curvature="0" />
  <path
     style="opacity:1;fill:#0d102b;fill-opacity:1;fill-rule:nonzero;stroke:none;stroke-width:75;stroke-linecap:round;stroke-linejoin:miter;stroke-miterlimit:4;stroke-dasharray:none;stroke-opacity:1"
     d="m 180.85761,380.58488 c -5.836,-2.14406 -8.94087,-6.09676 -9.36197,-11.91836 -0.31698,-4.38217 1.11927,-7.75809 4.60127,-10.81533 8.60034,-7.55119 21.91336,-1.38983 21.80521,10.09161 -0.0191,2.0275 -0.4748,4.52716 -1.01268,5.5548 -1.07769,2.05897 -4.54523,5.52498 -6.55327,6.55039 -2.35118,1.20063 -6.96115,1.46175 -9.47856,0.53689 z"
     id="path6627"
     inkscape:connector-curvature="0" />
  <path
     style="opacity:1;fill:#0d102b;fill-opacity:1;fill-rule:nonzero;stroke:none;stroke-width:75;stroke-linecap:round;stroke-linejoin:miter;stroke-miterlimit:4;stroke-dasharray:none;stroke-opacity:1"
     d="m 180.36535,333.32965 c -7.38192,-2.42209 -11.85068,-8.27479 -11.84479,-15.51303 0.006,-7.4129 4.59627,-13.71749 11.4834,-15.77221 5.99255,-1.78784 10.39897,-0.85689 14.96404,3.16145 9.15261,8.05646 7.54015,21.6154 -3.23308,27.18646 -2.26525,1.1714 -8.9712,1.72425 -11.36957,0.93733 z"
     id="path6629"
     inkscape:connector-curvature="0" />
  <path
     style="opacity:1;fill:#0d102b;fill-opacity:1;fill-rule:nonzero;stroke:none;stroke-width:75;stroke-linecap:round;stroke-linejoin:miter;stroke-miterlimit:4;stroke-dasharray:none;stroke-opacity:1"
     d="m 179.78838,283.0319 c -4.87822,-1.49077 -8.41316,-4.97285 -10.42593,-10.27003 -1.45765,-3.83623 -1.50948,-5.79226 -0.26408,-9.96666 2.06389,-6.91785 8.10418,-11.20261 15.77222,-11.18822 8.84255,0.0166 15.19796,5.78069 15.93498,14.45237 0.54002,6.35382 -2.70656,12.6594 -8.0358,15.60725 -3.07428,1.70054 -9.62865,2.38988 -12.98139,1.36529 z"
     id="path6631"
     inkscape:connector-curvature="0" />
  <path
     style="opacity:1;fill:#0d102b;fill-opacity:1;fill-rule:nonzero;stroke:none;stroke-width:75;stroke-linecap:round;stroke-linejoin:miter;stroke-miterlimit:4;stroke-dasharray:none;stroke-opacity:1"
     d="m 230.52013,283.17621 c -5.5826,-1.8364 -9.72527,-5.99986 -11.27534,-11.33192 -3.07699,-10.58448 4.46661,-20.25853 15.78057,-20.2373 4.83029,0.009 8.24879,1.33659 11.47276,4.45532 7.52715,7.28142 5.46642,21.0405 -3.86421,25.80063 -2.76502,1.41061 -9.5739,2.14877 -12.11378,1.31327 z"
     id="path6633"
     inkscape:connector-curvature="0" />
  <path
     style="opacity:1;fill:#0d102b;fill-opacity:1;fill-rule:nonzero;stroke:none;stroke-width:75;stroke-linecap:round;stroke-linejoin:miter;stroke-miterlimit:4;stroke-dasharray:none;stroke-opacity:1"
     d="m 227.45059,231.92478 c -5.85329,-2.91682 -9.11524,-8.19136 -9.11524,-14.73924 0,-7.96038 5.59634,-14.55945 13.57374,-16.00583 5.45803,-0.98959 12.57273,2.11343 16.05826,7.00369 9.42586,13.22461 -5.93986,31.00535 -20.51676,23.74138 z"
     id="path6635"
     inkscape:connector-curvature="0" />
  <path
     style="opacity:1;fill:#0d102b;fill-opacity:1;fill-rule:nonzero;stroke:none;stroke-width:75;stroke-linecap:round;stroke-linejoin:miter;stroke-miterlimit:4;stroke-dasharray:none;stroke-opacity:1"
     d="m 229.59696,182.46806 c -10.28096,-3.66243 -14.30535,-16.44928 -7.84347,-24.92137 6.23273,-8.17166 16.54137,-9.09155 24.10164,-2.1507 3.67492,3.37382 5.21336,6.75417 5.23137,11.49466 0.0252,6.62628 -3.06009,11.5441 -9.15219,14.58836 -4.36692,2.18217 -8.13917,2.48458 -12.33735,0.98905 z"
     id="path6637"
     inkscape:connector-curvature="0" />
  <path
     style="opacity:1;fill:#0d102b;fill-opacity:1;fill-rule:nonzero;stroke:none;stroke-width:75;stroke-linecap:round;stroke-linejoin:miter;stroke-miterlimit:4;stroke-dasharray:none;stroke-opacity:1"
     d="m 229.88789,129.8548 c -1.23416,-0.39303 -3.41016,-1.8826 -4.83554,-3.31016 -4.18537,-4.19176 -5.23999,-9.82535 -2.83316,-15.13427 2.51243,-5.54183 6.76729,-8.44513 12.45142,-8.4962 4.28431,-0.0385 7.43745,1.47066 10.61504,5.0806 9.41698,10.69825 -1.55115,26.26957 -15.39776,21.86003 z"
     id="path6639"
     inkscape:connector-curvature="0" />
  <path
     style="opacity:1;fill:#0d102b;fill-opacity:1;fill-rule:nonzero;stroke:none;stroke-width:75;stroke-linecap:round;stroke-linejoin:miter;stroke-miterlimit:4;stroke-dasharray:none;stroke-opacity:1"
     d="m 229.79032,75.943543 c -3.5265,-2.04489 -5.26049,-5.59873 -4.93401,-10.11232 0.41712,-5.76662 3.6451,-9.12465 9.21529,-9.58658 6.03708,-0.50064 10.61868,3.52587 11.05904,9.71915 0.58919,8.28645 -8.29417,14.06557 -15.34032,9.97975 z"
     id="path6641"
     inkscape:connector-curvature="0" />
  <path
     style="opacity:1;fill:#0d102b;fill-opacity:1;fill-rule:nonzero;stroke:none;stroke-width:75;stroke-linecap:round;stroke-linejoin:miter;stroke-miterlimit:4;stroke-dasharray:none;stroke-opacity:1"
     d="m 180.85047,79.628473 c -11.40428,-4.06978 -12.90761,-19.34072 -2.42589,-24.64223 5.22236,-2.6414 11.80259,-1.73582 15.69892,2.16051 6.98224,6.98226 3.60132,20.09017 -5.85954,22.71747 -3.11486,0.865 -4.44777,0.82262 -7.41349,-0.23575 z"
     id="path6643"
     inkscape:connector-curvature="0" />
  <path
     style="opacity:1;fill:#0d102b;fill-opacity:1;fill-rule:nonzero;stroke:none;stroke-width:75;stroke-linecap:round;stroke-linejoin:miter;stroke-miterlimit:4;stroke-dasharray:none;stroke-opacity:1"
     d="m 180.24464,132.40438 c -3.09558,-0.86524 -3.99973,-1.40051 -7.16788,-4.24358 -8.0066,-7.18506 -5.29351,-21.35906 5.00646,-26.15528 10.74291,-5.002477 22.94863,3.0754 22.83438,15.11204 -0.10045,10.58367 -10.35916,18.16958 -20.67296,15.28682 z"
     id="path6645"
     inkscape:connector-curvature="0" />
  <path
     style="opacity:1;fill:#0d102b;fill-opacity:1;fill-rule:nonzero;stroke:none;stroke-width:75;stroke-linecap:round;stroke-linejoin:miter;stroke-miterlimit:4;stroke-dasharray:none;stroke-opacity:1"
     d="m 179.56445,182.51009 c -3.45284,-1.23219 -6.76317,-3.9488 -8.88084,-7.28802 -7.63272,-12.03556 4.56169,-27.78627 18.51224,-23.91102 3.98459,1.10686 9.83435,6.78539 10.97136,10.65022 1.93036,6.56158 0.62525,11.56158 -4.26483,16.33893 -5.05421,4.93769 -10.42239,6.32094 -16.33793,4.20989 z"
     id="path6647"
     inkscape:connector-curvature="0" />
  <path
     style="opacity:1;fill:#0d102b;fill-opacity:1;fill-rule:nonzero;stroke:none;stroke-width:75;stroke-linecap:round;stroke-linejoin:miter;stroke-miterlimit:4;stroke-dasharray:none;stroke-opacity:1"
     d="m 179.08841,232.73593 c -3.68482,-1.17336 -8.7094,-6.5897 -9.91103,-10.68377 -1.26373,-4.30569 -1.273,-5.40968 -0.079,-9.41174 1.23653,-4.14468 3.89446,-7.27336 8.14897,-9.59228 2.81783,-1.53585 4.20327,-1.87435 7.62325,-1.86254 5.13573,0.0177 8.43404,1.5665 12.0257,5.64685 7.34214,8.34113 4.45148,20.82256 -5.91711,25.54913 -2.8886,1.31678 -8.35665,1.47973 -11.89077,0.35435 z"
     id="path6649"
     inkscape:connector-curvature="0" />
  <path
     style="opacity:1;fill:#0d102b;fill-opacity:1;fill-rule:nonzero;stroke:none;stroke-width:75;stroke-linecap:round;stroke-linejoin:miter;stroke-miterlimit:4;stroke-dasharray:none;stroke-opacity:1"
     d="m 127.96419,232.04723 c -6.35024,-3.00718 -9.32365,-7.77793 -9.32365,-14.95953 0,-9.34371 6.62122,-15.88767 16.07526,-15.88767 8.62815,0 15.20413,6.10187 15.94232,14.79291 1.0499,12.36105 -11.59826,21.3087 -22.69393,16.05429 z"
     id="path6651"
     inkscape:connector-curvature="0" />
  <path
     style="opacity:1;fill:#0d102b;fill-opacity:1;fill-rule:nonzero;stroke:none;stroke-width:75;stroke-linecap:round;stroke-linejoin:miter;stroke-miterlimit:4;stroke-dasharray:none;stroke-opacity:1"
     d="m 129.40966,182.51009 c -3.32401,-1.18622 -6.63247,-3.83328 -8.70464,-6.96446 -1.43171,-2.16342 -1.7828,-3.50915 -1.96598,-7.53575 -0.24766,-5.44388 0.51747,-8.01215 3.40839,-11.44066 9.37537,-11.11881 27.27325,-5.30014 28.51069,9.26893 0.97818,11.51666 -10.48689,20.51237 -21.24846,16.67194 z"
     id="path6653"
     inkscape:connector-curvature="0" />
  <path
     style="opacity:1;fill:#0d102b;fill-opacity:1;fill-rule:nonzero;stroke:none;stroke-width:75;stroke-linecap:round;stroke-linejoin:miter;stroke-miterlimit:4;stroke-dasharray:none;stroke-opacity:1"
     d="m 128.28967,128.97876 c -2.30591,-1.18452 -4.2038,-2.78281 -5.46558,-4.60282 -1.71915,-2.4797 -1.93301,-3.30949 -1.93301,-7.49998 0,-4.20741 0.20862,-5.00863 1.94891,-7.48477 2.83942,-4.03999 7.04454,-6.43952 11.32832,-6.46417 8.53676,-0.0491 14.07582,5.55136 14.03258,14.18822 -0.0376,7.52071 -5.16032,12.92605 -12.73112,13.43361 -3.03492,0.20347 -4.24081,-0.0602 -7.1801,-1.57009 z"
     id="path6655"
     inkscape:connector-curvature="0" />
  <path
     style="opacity:1;fill:#0d102b;fill-opacity:1;fill-rule:nonzero;stroke:none;stroke-width:75;stroke-linecap:round;stroke-linejoin:miter;stroke-miterlimit:4;stroke-dasharray:none;stroke-opacity:1"
     d="m 130.53623,76.458743 c -4.14457,-1.91856 -7.17749,-7.24455 -6.42817,-11.28829 1.38531,-7.476 9.34997,-11.2937 15.89139,-7.61722 8.69692,4.88794 5.54924,18.77721 -4.43199,19.55632 -1.80215,0.14067 -3.91061,-0.13207 -5.03123,-0.65081 z"
     id="path6657"
     inkscape:connector-curvature="0" />
  <path
     style="opacity:1;fill:#0d102b;fill-opacity:1;fill-rule:nonzero;stroke:none;stroke-width:75;stroke-linecap:round;stroke-linejoin:miter;stroke-miterlimit:4;stroke-dasharray:none;stroke-opacity:1"
     d="m 80.662613,71.052023 c -2.99003,-2.67159 -3.019963,-5.96336 -0.07813,-8.59189 2.756285,-2.46274 5.400026,-2.452 7.884042,0.032 3.605192,3.6052 1.724299,9.30236 -3.336993,10.10764 -1.955507,0.31113 -2.662502,0.0663 -4.46892,-1.54776 z"
     id="path6659"
     inkscape:connector-curvature="0" />
  <path
     style="opacity:1;fill:#0d102b;fill-opacity:1;fill-rule:nonzero;stroke:none;stroke-width:75;stroke-linecap:round;stroke-linejoin:miter;stroke-miterlimit:4;stroke-dasharray:none;stroke-opacity:1"
     d="m 79.826687,127.18675 c -3.653382,-1.30239 -6.095404,-3.97679 -7.246338,-7.93586 -1.868051,-6.42587 0.741968,-12.64513 6.41532,-15.2867 3.858313,-1.79646 6.592425,-1.94997 9.926305,-0.55733 6.985115,2.91785 10.282605,10.76685 7.290588,17.35376 -2.753342,6.06147 -9.73179,8.79824 -16.385875,6.42613 z"
     id="path6661"
     inkscape:connector-curvature="0" />
  <path
     style="opacity:1;fill:#0d102b;fill-opacity:1;fill-rule:nonzero;stroke:none;stroke-width:75;stroke-linecap:round;stroke-linejoin:miter;stroke-miterlimit:4;stroke-dasharray:none;stroke-opacity:1"
     d="m 78.690993,178.27958 c -7.183774,-3.79601 -9.127073,-13.19087 -3.991052,-19.29468 2.391871,-2.84258 6.013938,-4.49285 9.861062,-4.49285 13.507529,0 17.696017,17.6774 5.651954,23.85395 -3.125235,1.60272 -8.420975,1.57219 -11.521964,-0.0664 z"
     id="path6663"
     inkscape:connector-curvature="0" />
  <path
     style="opacity:1;fill:#0d102b;fill-opacity:1;fill-rule:nonzero;stroke:none;stroke-width:75;stroke-linecap:round;stroke-linejoin:miter;stroke-miterlimit:4;stroke-dasharray:none;stroke-opacity:1"
     d="m 79.905018,231.38132 c -3.717108,-1.32665 -5.550395,-2.76948 -7.574646,-5.9614 -6.284647,-9.90986 0.499192,-22.63979 12.090531,-22.68799 8.24005,-0.0343 14.929332,6.37382 14.929332,14.30174 0,10.17603 -10.149947,17.66516 -19.445217,14.34765 z"
     id="path6665"
     inkscape:connector-curvature="0" />
  <path
     style="opacity:1;fill:#0d102b;fill-opacity:1;fill-rule:nonzero;stroke:none;stroke-width:75;stroke-linecap:round;stroke-linejoin:miter;stroke-miterlimit:4;stroke-dasharray:none;stroke-opacity:1"
     d="m 80.381437,279.66936 c -3.559972,-1.39305 -4.773607,-2.37095 -6.338068,-5.10699 -2.1895,-3.82916 -2.601524,-6.96667 -1.439704,-10.9632 3.210006,-11.04203 18.727781,-11.96441 23.602223,-1.40292 4.576782,9.91654 -5.814266,21.39017 -15.824451,17.47311 z"
     id="path6667"
     inkscape:connector-curvature="0" />
  <path
     style="opacity:1;fill:#0d102b;fill-opacity:1;fill-rule:nonzero;stroke:none;stroke-width:75;stroke-linecap:round;stroke-linejoin:miter;stroke-miterlimit:4;stroke-dasharray:none;stroke-opacity:1"
     d="m 129.14717,282.85331 c -3.97497,-1.30092 -6.46653,-3.34574 -8.59179,-7.05128 -1.62784,-2.83826 -1.90364,-3.99419 -1.9088,-8.0001 -0.004,-2.79163 0.39722,-5.64784 0.99259,-7.07311 3.99861,-9.57237 18.43331,-12.35819 26.19546,-5.05558 2.56551,2.41363 4.94264,7.88414 4.95014,11.39179 0.0132,6.1829 -3.49069,12.26254 -8.55689,14.84712 -3.29792,1.68248 -9.46074,2.12589 -13.08071,0.94116 z"
     id="path6669"
     inkscape:connector-curvature="0" />
  <path
     style="opacity:1;fill:#0d102b;fill-opacity:1;fill-rule:nonzero;stroke:none;stroke-width:75;stroke-linecap:round;stroke-linejoin:miter;stroke-miterlimit:4;stroke-dasharray:none;stroke-opacity:1"
     d="m 128.6072,330.10078 c -10.4852,-4.85449 -10.70203,-19.42729 -0.36696,-24.6621 10.22787,-5.18051 20.69695,2.01402 19.85563,13.64512 -0.34778,4.80805 -2.75164,8.55491 -6.89036,10.7399 -3.54846,1.87337 -8.89644,1.99099 -12.59831,0.27708 z"
     id="path6671"
     inkscape:connector-curvature="0" />
  <path
     style="opacity:1;fill:#0d102b;fill-opacity:1;fill-rule:nonzero;stroke:none;stroke-width:75;stroke-linecap:round;stroke-linejoin:miter;stroke-miterlimit:4;stroke-dasharray:none;stroke-opacity:1"
     d="m 81.667457,331.37542 c -5.223142,-1.30901 -8.065417,-4.11596 -9.355456,-9.23917 -2.228502,-8.85018 5.035042,-16.88112 14.139395,-15.63323 8.50425,1.16563 13.536982,10.88191 9.523754,18.38672 -2.578188,4.82125 -9.118787,7.78611 -14.307693,6.48568 z"
     id="path6673"
     inkscape:connector-curvature="0" />
  <path
     style="opacity:1;fill:#0d102b;fill-opacity:1;fill-rule:nonzero;stroke:none;stroke-width:75;stroke-linecap:round;stroke-linejoin:miter;stroke-miterlimit:4;stroke-dasharray:none;stroke-opacity:1"
     d="m 81.237297,372.77501 c -2.463149,-1.33767 -3.484684,-4.77894 -2.172098,-7.3172 2.866995,-5.54416 11.313735,-3.80256 11.262445,2.32215 -0.04125,4.92568 -4.602715,7.43216 -9.090347,4.99505 z"
     id="path6675"
     inkscape:connector-curvature="0" />
  <path
     style="opacity:1;fill:#0d102b;fill-opacity:1;fill-rule:nonzero;stroke:none;stroke-width:75;stroke-linecap:round;stroke-linejoin:miter;stroke-miterlimit:4;stroke-dasharray:none;stroke-opacity:1"
     d="m 129.89322,376.97671 c -5.29627,-2.63954 -7.31274,-8.42964 -4.70195,-13.50118 2.09187,-4.06353 4.93412,-5.79228 9.52314,-5.79228 6.82207,0 10.81429,4.60087 10.13415,11.67921 -0.67149,6.98831 -8.35846,10.902 -14.95534,7.61425 z"
     id="path6677"
     inkscape:connector-curvature="0" />
  <path
     style="opacity:1;fill:#0d102b;fill-opacity:1;fill-rule:nonzero;stroke:none;stroke-width:75;stroke-linecap:round;stroke-linejoin:miter;stroke-miterlimit:4;stroke-dasharray:none;stroke-opacity:1"
     d="m 30.197419,322.02542 c -1.928887,-1.92889 -2.155752,-5.93731 -0.45303,-8.00449 2.431281,-2.95167 8.065707,-2.67095 9.755276,0.48604 1.391115,2.59933 0.540988,6.45777 -1.82268,8.27253 -1.811813,1.39107 -5.729382,0.9961 -7.479566,-0.75408 z"
     id="path6679"
     inkscape:connector-curvature="0" />
  <path
     style="opacity:1;fill:#0d102b;fill-opacity:1;fill-rule:nonzero;stroke:none;stroke-width:75;stroke-linecap:round;stroke-linejoin:miter;stroke-miterlimit:4;stroke-dasharray:none;stroke-opacity:1"
     d="m 29.255593,276.50322 c -3.737535,-2.54374 -4.816037,-4.59568 -4.816037,-9.16289 0,-4.41509 0.971945,-6.38269 4.427201,-8.96241 2.503259,-1.86895 8.584412,-1.85835 11.118642,0.0194 6.548288,4.85196 6.363449,13.54301 -0.384745,18.09061 -2.936496,1.97891 -7.450121,1.98558 -10.345061,0.0153 z"
     id="path6681"
     inkscape:connector-curvature="0" />
  <path
     style="opacity:1;fill:#0d102b;fill-opacity:1;fill-rule:nonzero;stroke:none;stroke-width:75;stroke-linecap:round;stroke-linejoin:miter;stroke-miterlimit:4;stroke-dasharray:none;stroke-opacity:1"
     d="m 31.089977,230.4165 c -10.123441,-3.25366 -13.341576,-15.61656 -5.904064,-22.68125 6.707886,-6.37164 17.56759,-4.19701 21.504453,4.30621 2.632878,5.68675 0.263265,13.21064 -5.211042,16.54587 -3.131383,1.90781 -7.662517,2.70556 -10.389347,1.82917 z"
     id="path6683"
     inkscape:connector-curvature="0" />
  <path
     style="opacity:1;fill:#0d102b;fill-opacity:1;fill-rule:nonzero;stroke:none;stroke-width:75;stroke-linecap:round;stroke-linejoin:miter;stroke-miterlimit:4;stroke-dasharray:none;stroke-opacity:1"
     d="m 30.774238,176.97084 c -2.654743,-0.81218 -5.839054,-4.49998 -6.381268,-7.39023 -0.571485,-3.04628 0.05822,-6.64075 1.514215,-8.64338 1.431511,-1.96895 6.225122,-4.51615 8.499028,-4.51615 2.587938,0 7.236958,2.67193 8.836199,5.07842 1.727622,2.59968 1.959053,7.50805 0.488123,10.35252 -2.207143,4.26814 -8.111748,6.60096 -12.956297,5.11882 z"
     id="path6685"
     inkscape:connector-curvature="0" />
  <path
     style="opacity:1;fill:#0d102b;fill-opacity:1;fill-rule:nonzero;stroke:none;stroke-width:75;stroke-linecap:round;stroke-linejoin:miter;stroke-miterlimit:4;stroke-dasharray:none;stroke-opacity:1"
     d="m 30.49869,121.10499 c -3.88289,-3.88289 -1.494606,-9.98689 3.907523,-9.98689 3.422249,0 5.787091,2.38776 5.787091,5.84318 0,3.00865 -2.896415,6.02328 -5.787091,6.02328 -1.384077,0 -2.62472,-0.59677 -3.907523,-1.87957 z"
     id="path6687"
     inkscape:connector-curvature="0" />
</svg>
