<svg viewBox="0 0 118 40" fill="none" xmlns="http://www.w3.org/2000/svg">
    <g clip-path="url(#a)">
        <path
            d="m28 10.29 3.96-3.95-.86-.86a17.78 17.78 0 0 0-25.12 0 17.78 17.78 0 0 0-.83 24.23L1.2 33.66l.86.86a17.79 17.79 0 0 0 25.12 0 17.78 17.78 0 0 0 .83-24.23ZM7.7 7.19a15.36 15.36 0 0 1 20.8-.82l-2.25 2.25A12.2 12.2 0 0 0 9.08 25.8l-2.21 2.2a15.36 15.36 0 0 1 .82-20.8ZM25.46 32.8a15.36 15.36 0 0 1-20.8.83l2.26-2.25a12.2 12.2 0 0 0 17.16-17.16l2.2-2.21a15.36 15.36 0 0 1-.82 20.8Zm41.58-18.22h3.6v2.76c1.83-3.67 7.9-4.5 9.26-.03h.06a5.96 5.96 0 0 1 6.93-2.84c2.4.73 3.11 3.19 3.11 5.46v9.66h-3.74v-8.95c0-1.57-.4-3.12-2.28-3-1.84.12-3 1.74-3.4 3.41a8.1 8.1 0 0 0-.17 1.94v6.6h-3.74v-8.95c0-1.66-.48-3.23-2.47-2.98-1.76.23-2.85 1.8-3.24 3.42a7.86 7.86 0 0 0-.18 1.92v6.59h-3.74V14.58ZM116.9 26.4c-.97 0-1.53-.41-1.53-2.06V8.69l-3.71 3.71v12.5c0 4.3 2.56 4.83 4.62 4.83.62 0 1.18-.08 1.18-.08v-3.27s-.27.03-.56.03Zm-9.63-9.22a6.33 6.33 0 0 0-6.16-2.93c-1.6.17-3.26 1-4.07 2.44v-2.12H93.6v22.1l3.74-3.74v-5.06c1.25 1.83 3.74 2.35 5.8 1.9 5.37-1.16 6.7-8.38 4.11-12.6Zm-6.29 9.6c-2.3 0-3.58-2.1-3.72-4.18-.12-1.74.35-3.81 1.98-4.73a3.57 3.57 0 0 1 4.22.56c2.39 2.42 1.53 8.35-2.48 8.35ZM59.7 14.57h3.74v15.02H59.7V14.57Zm-2.72 7.98c-.58-2.61-3.06-3.86-5.32-4.81-1.5-.63-4.46-1.41-4.37-3.5.08-2.06 2.5-2.6 4.15-2.31a7.5 7.5 0 0 1 2.67 1.05l2.5-2.5c-2.25-2.14-6.16-2.69-8.99-1.67-3.05 1.1-5.15 4.52-3.74 7.69 1.04 2.32 3.68 3.3 5.86 4.25 1.67.72 4.6 2 3.28 4.36-.94 1.68-3.36 1.48-4.9.94a8.67 8.67 0 0 1-2.46-1.33l-2.5 2.5c2.18 2.2 5.77 3.13 8.75 2.57 3.4-.64 5.84-3.74 5.07-7.24"
            fill="#0D102B" />
    </g>
    <defs>
        <clipPath id="a">
            <path fill="#fff" transform="translate(.5)" d="M0 0h117.24v40H0z" />
        </clipPath>
    </defs>
</svg>