<svg xmlns="http://www.w3.org/2000/svg" viewBox="0 0 540.695 76.684">
  <defs>
    <clipPath clipPathUnits="userSpaceOnUse" id="a">
      <path d="M17.395 77.18L0 0h2288.45l16.06 77.18H17.394z"/>
    </clipPath>
  </defs>
  <g fill="#0d102b">
    <path d="M338.314 66.827c10.07 0 13.183-6.938 15.29-15.294h-4.724c-6.537 0-17.397 1.113-17.397 9.858 0 3.623 3.411 5.436 6.831 5.436m13.183.702h-.204c-4.624 5.835-9.25 9.155-16.699 9.155-9.348 0-15.986-5.232-15.986-14.782 0-17.1 19.109-18.41 31.78-18.41h4.725c.408-1.412.408-2.92.408-4.422 0-5.233-5.634-6.74-10.365-6.74-5.931 0-11.665 1.507-16.994 4.022l1.914-10.763c5.727-2.01 11.564-3.117 17.6-3.117 10.354 0 20.114 3.825 20.114 15.99 0 6.943-5.13 27.256-6.34 37.017h-11.361l1.408-7.95M2.112 23.632h9.755l2.313-10.657 14.485-4.732-3.32 15.39h12.067l-2.11 9.856h-12.07l-4.929 22.632a21.471 21.471 0 00-.6 5.025c0 3.116 2.111 5.03 5.125 5.03 2.419 0 4.83-.502 6.538-1.205l-2.31 10.46c-2.313.5-4.926 1.21-7.242 1.21-9.152 0-15.591-3.625-15.591-13.588 0-4.019.805-7.94 1.708-12.06L9.755 33.49H0l2.112-9.857M47.877 1.3h13.478L58.54 14.18H45.06L47.877 1.3zm-4.93 22.332h13.48l-11.065 51.8H31.88l11.067-51.8M97.124 35.5c-2.613-1.71-6.133-2.613-9.857-2.613-10.76 0-16.794 10.056-16.794 19.813 0 6.735 2.21 13.475 11.465 13.475 3.322 0 7.446-.904 10.964-2.616L91.39 74.226c-4.124 2.01-8.55 2.414-12.975 2.414-13.375 0-22.023-8.952-22.023-22.331 0-18.102 11.967-31.88 30.571-31.88 5.034 0 9.86.905 13.48 2.007L97.124 35.5M111.906 0h13.479l-8.955 42.442h.208l18.807-18.81h17.498L128.105 47.27l15.583 28.162h-15.186l-13.38-27.458h-.197l-5.835 27.458H95.915L111.906 0M201.526 23.632h9.755l2.312-10.657 14.485-4.732-3.319 15.39h12.07l-2.115 9.856h-12.067l-4.93 22.632a21.448 21.448 0 00-.6 5.025c0 3.116 2.11 5.03 5.129 5.03 2.413 0 4.825-.502 6.533-1.205l-2.308 10.46c-2.316.5-4.93 1.21-7.244 1.21-9.152 0-15.59-3.625-15.59-13.588 0-4.019.803-7.94 1.712-12.06l3.818-17.504h-9.754l2.113-9.857"/>
    <path d="M197.017 42.138c0-13.171-8.447-19.71-21.22-19.71-16.997 0-29.473 15.49-29.473 31.578 0 15.388 10.06 22.634 24.949 22.634 5.529 0 11.263-1.31 16.493-2.92l1.708-10.667c-5.028 2.322-10.362 3.73-15.893 3.73-8.619 0-13.656-3.065-14.301-11.206h-.01c-.024-.472-.07-.936-.07-1.431 0-.097.004-.194.004-.29 0-.054-.005-.095-.005-.15h.01c.06-3.545.838-7.043 2.192-10.276 2.59-6.59 6.249-11.144 14.194-11.144 5.629 0 8.55 3.112 8.55 8.648 0 1.204-.104 2.312-.301 3.517H165.4c-1.196 4.071-1.404 6.798-1.428 9.255h31.735c.806-3.825 1.31-7.646 1.31-11.568M242.644 29.366c.398-2.01.804-4.12 1.103-5.734h12.576l-1.208 6.939h.201c3.621-5.324 9.552-8.143 15.889-8.143 6.136 0 12.472 3.619 13.177 9.858h.202c3.422-6.741 10.967-9.858 18.202-9.858 7.742 0 14.387 6.335 14.387 14.179 0 4.625-1.215 9.857-2.316 14.078l-5.432 24.746h-13.48l5.434-25.247c.705-3.117 1.71-7.95 1.71-11.062 0-3.825-2.914-6.235-6.334-6.235-9.358 0-11.67 10.865-13.382 17.904l-5.327 24.64H264.57L270 50.184c.708-3.117 1.71-7.95 1.71-11.062 0-3.825-2.92-6.235-6.34-6.235-9.15 0-11.665 10.962-13.373 17.904l-5.333 24.64H233.19l9.454-46.065M407.818 34.18c-1.445-.791-5.165-1.894-8.986-1.894-4.026 0-9.053 1.103-9.053 5.222 0 6.542 17.5 8.956 17.5 21.629 0 13.482-11.766 17.503-23.328 17.503-5.436 0-10.87-.804-15.794-3.122l2.92-10.76c3.814 2.108 7.642 4.025 12.874 4.025 4.517 0 9.25-1.512 9.25-5.734 0-8.349-17.502-9.16-17.502-22.13 0-12.164 11.768-16.49 22.426-16.49 4.933 0 9.964.905 12.614 1.594l-2.92 10.156M416.435 23.632h9.756l2.312-10.657 14.478-4.732-3.317 15.39h12.07l-2.108 9.856H437.55l-4.928 22.632a21.636 21.636 0 00-.602 5.025c0 3.116 2.117 5.03 5.132 5.03 2.413 0 4.828-.502 6.538-1.205l-2.317 10.46c-2.314.5-4.924 1.21-7.236 1.21-9.156 0-15.593-3.625-15.593-13.588 0-4.019.81-7.94 1.713-12.06l3.82-17.504h-9.758l2.117-9.857M507.808 30.571c.398-2.208.804-4.524 1.209-6.939h12.873l-1.813 9.757h.204c2.42-5.632 9.049-10.96 15.286-10.96 1.712 0 3.519.095 5.128.5l-2.814 13.173c-1.506-.502-3.426-.805-5.131-.805-9.56 0-14.183 8.552-15.889 16.9l-4.83 23.234h-13.475l9.252-44.86M498.455 42.138c0-13.171-8.449-19.71-21.222-19.71-16.994 0-29.471 15.49-29.471 31.578 0 15.388 10.058 22.634 24.946 22.634 5.526 0 11.264-1.31 16.497-2.92l1.705-10.667c-5.029 2.322-10.358 3.73-15.89 3.73-8.624 0-13.657-3.065-14.308-11.206h-.01c-.02-.472-.066-.936-.066-1.431 0-.097.006-.194.006-.29 0-.054-.006-.095-.006-.15h.006c.06-3.545.84-7.043 2.194-10.276 2.587-6.59 6.248-11.144 14.194-11.144 5.63 0 8.551 3.112 8.551 8.648 0 1.204-.105 2.312-.3 3.517H466.84c-1.205 4.071-1.408 6.798-1.437 9.255h31.743c.805-3.825 1.309-7.646 1.309-11.568"/>
  </g>
</svg>
