<svg fill="none" xmlns="http://www.w3.org/2000/svg" viewBox="0 0 151 22">
    <g clip-path="url(#clip0_1684_35592)" fill-rule="evenodd" clip-rule="evenodd" fill="#89898A">
        <path
            d="M33.464 3.11h-4.78V.85h12.15v2.26h-4.78v13.245h-2.59V3.11ZM46.477 7.273c-1.637 0-3.076 1.463-3.076 4.918v4.164H40.99V5.191H43.4v2.127C44 5.988 45.46 5.014 46.81 5.014c.421 0 .908.067 1.24.2l-.133 2.325c-.398-.177-.93-.266-1.438-.266ZM49.31 16.355h2.413V5.191H49.31v11.164ZM48.956 1.78c0-.886.665-1.572 1.55-1.572.907 0 1.593.686 1.593 1.572 0 .864-.686 1.55-1.593 1.55-.885 0-1.55-.686-1.55-1.55ZM62.855 10.773c0-2.215-1.284-3.655-3.231-3.655-1.948 0-3.231 1.44-3.231 3.655 0 2.193 1.283 3.655 3.231 3.655 1.947 0 3.231-1.462 3.231-3.655Zm-8.72-5.582h2.413V6.61c.62-.908 1.925-1.595 3.474-1.595 3.298 0 5.245 2.392 5.245 5.76 0 3.366-2.036 5.758-5.377 5.758-1.35 0-2.656-.575-3.342-1.462v5.317h-2.413V5.19ZM67.06 16.355h2.412V.672H67.06v15.683ZM79.652 9.511c-.154-1.506-1.15-2.591-2.921-2.591-1.527 0-2.611.93-2.965 2.591h5.886Zm2.523 1.839h-8.52c.221 1.927 1.46 3.123 3.23 3.123 1.462 0 2.502-.687 2.79-1.905l2.279.576c-.598 2.148-2.5 3.389-5.112 3.389-3.541 0-5.555-2.747-5.555-5.76 0-3.012 1.903-5.758 5.444-5.758 3.585 0 5.488 2.613 5.488 5.338 0 .332-.021.797-.044.997ZM87.82.85h2.677L93.772 13.3 97.114.85h2.855l3.32 12.449L106.586.85h2.678l-4.559 15.505h-2.744L98.553 4.527l-3.43 11.828h-2.7L87.819.85ZM110.593.673h2.412v6.446c.775-1.396 2.08-2.104 3.651-2.104 2.523 0 4.184 1.572 4.184 4.009v7.331h-2.413V9.578c0-1.484-.929-2.393-2.434-2.393-1.859 0-2.988 1.617-2.988 4.342v4.828h-2.412V.673ZM129.891 11.549v-.465l-2.124.243c-1.815.2-2.745.864-2.745 1.839 0 .886.731 1.506 1.86 1.506 1.881 0 2.987-1.307 3.009-3.123ZM132.26 9.4v6.955h-2.369V14.65c-.642 1.13-2.014 1.883-3.496 1.883-2.213 0-3.74-1.396-3.74-3.3 0-2.194 1.704-3.368 5.134-3.722l2.102-.222v-.155c0-1.373-.951-2.215-2.412-2.215-1.35 0-2.301.798-2.457 2.127l-2.168-.399c.354-2.193 2.257-3.632 4.625-3.632 2.833 0 4.781 1.594 4.781 4.385ZM134.65 16.355h2.412V.672h-2.412v15.683ZM147.242 9.511c-.155-1.506-1.151-2.591-2.921-2.591-1.527 0-2.611.93-2.965 2.591h5.886Zm2.523 1.839h-8.52c.221 1.927 1.461 3.123 3.231 3.123 1.461 0 2.501-.687 2.788-1.905l2.28.576c-.598 2.148-2.501 3.389-5.112 3.389-3.541 0-5.555-2.747-5.555-5.76 0-3.012 1.903-5.758 5.444-5.758 3.585 0 5.488 2.613 5.488 5.338 0 .332-.022.797-.044.997ZM17.968.674c-2.222 0-3.96.641-5.333 1.659 1.353 1.16 2.367 2.417 3.06 5.05 1.914-.355 5.79-1.306 7.45-6.71h-5.177ZM14.239 7.006C12.983 3.45 9.878.87 5.748.69 5.678.68.144.674.144.674 2.001 6.93 8.336 7.398 8.336 7.398v9.995h7.548s-.402-6.86-1.646-10.387Z" />
    </g>
    <defs>
        <clipPath id="clip0_1684_35592">
            <path fill="#fff" d="M.144.208h150v21h-150z" />
        </clipPath>
    </defs>
</svg>