<svg xmlns="http://www.w3.org/2000/svg" fill="none" viewBox="0 0 110 21">
    <g fill="#0D102B" clip-path="url(#upstar-a)">
        <path
            d="M43.56 10.12c0 4.8-2.72 7.23-6.93 7.23-4.21 0-6.85-2.42-6.85-7.08V.98h2.83v9.16c0 3 1.54 4.6 4.07 4.6 2.53 0 4.05-1.52 4.05-4.49V.98h2.83v9.14ZM48.88 15.22a4.95 4.95 0 0 0 4.11 2.14c2.9 0 5.66-2.29 5.66-6.33 0-4.05-2.78-6.33-5.66-6.33a4.82 4.82 0 0 0-4.11 2.28V4.94H46.1v15.84h2.78v-5.56Zm-.07-4.2c0-2.36 1.66-3.9 3.55-3.9 1.88 0 3.47 1.51 3.47 3.9 0 2.4-1.56 3.92-3.47 3.92-1.92 0-3.55-1.55-3.55-3.93v.02ZM65.18 17.32a8.54 8.54 0 0 1-5.15-1.82l1.24-1.9a6.84 6.84 0 0 0 3.98 1.5c1.2 0 1.89-.5 1.89-1.3v-.06c0-.94-1.3-1.26-2.72-1.7-1.8-.5-3.8-1.24-3.8-3.57v-.04c0-2.3 1.92-3.7 4.33-3.7 1.59.02 3.13.5 4.46 1.36l-1.1 1.98a7.06 7.06 0 0 0-3.43-1.14c-1.08 0-1.7.5-1.7 1.22v.04c0 .88 1.32 1.25 2.74 1.7 1.78.56 3.78 1.36 3.78 3.55v.05c0 2.57-1.98 3.83-4.52 3.83ZM75.31 13.3c0 1.07.56 1.51 1.5 1.51.6 0 1.2-.14 1.72-.41v2.28c-.76.43-1.63.65-2.5.62-2.06 0-3.5-.9-3.5-3.57v-6.4h-1.55V4.95h1.55V1.6h2.78v3.34h3.27v2.4H75.3v5.95ZM88.54 15.6v1.5h2.77V9.88c0-3.25-1.75-5.13-5.34-5.13-1.6-.03-3.18.32-4.63 1L82.1 8c1.1-.5 2.28-.76 3.48-.76 1.93 0 2.99.91 2.99 2.6v.3a10.17 10.17 0 0 0-3.36-.5c-2.83 0-4.93 1.28-4.93 3.9v.06c0 2.43 2.03 3.75 4.33 3.75a4.9 4.9 0 0 0 3.93-1.75Zm-2.7-4.15c.94 0 1.88.16 2.78.49v.77c0 1.52-1.37 2.55-3.23 2.55-1.3 0-2.34-.64-2.34-1.8v-.04c0-1.25 1.03-1.97 2.78-1.97ZM96.15 17.1h-2.79V4.93h2.79v2.74c.76-1.83 2.16-3.06 4.3-2.97v2.95h-.16c-2.44 0-4.14 1.6-4.14 4.81v4.62ZM106.39 13.3c0 1.07.55 1.51 1.5 1.51.6 0 1.19-.14 1.72-.41v2.28c-.76.43-1.63.65-2.5.62-2.06 0-3.5-.9-3.5-3.57v-6.4h-1.55V4.95h1.54V1.6h2.79v3.34h3.27v2.4h-3.27v5.95ZM3.7 8.14l-1.88 1.88a4.25 4.25 0 0 0 3 7.23c1.12 0 2.2-.45 3-1.24l4.2-4.2a.96.96 0 0 1 1.2 0l-3.6-3.6a4.24 4.24 0 0 0-5.92-.07Z" />
        <path fill-opacity=".9"
            d="m23.4 10.01-7.79-7.79c-.1-.1-.2-.2-.32-.29a4.25 4.25 0 0 0-5.68.29l-.08.08-.22.23-5.61 5.6a4.24 4.24 0 0 1 5.91.1l3.62 3.6 4.18 4.19a4.24 4.24 0 0 0 6-6Z" />
    </g>
    <defs>
        <clipPath id="upstar-a">
            <path fill="#fff" d="M0 0h109.08v19.8H0z" transform="translate(.58 .98)" />
        </clipPath>
    </defs>
</svg>