<svg viewBox="0 0 111 30" fill="none" xmlns="http://www.w3.org/2000/svg">
  <g clip-path="url(#clip0_6108_51327)">
    <path
      d="M36.1873 0.726167V22.0714L18.1159 28.2262L0.0444336 22.0714V0.595215L36.1873 0.726167ZM8.16348 6.35712H2.53253V16.7024C2.53253 20.1071 5.02062 21.8095 7.63967 21.8095C9.86586 21.8095 11.4373 21.0238 12.4849 19.5833V21.5476H17.9849V6.35712H12.354V14.3452C12.354 16.7024 11.0444 17.2262 10.1278 17.2262C8.42539 17.2262 8.29443 16.0476 8.29443 14.2143L8.16348 6.35712ZM26.7587 5.96426C23.7468 5.96426 19.6873 7.01188 19.6873 10.6785C19.6873 13.2976 21.3897 14.6071 25.8421 15.3928C28.4611 15.9166 28.9849 16.1785 28.9849 16.9643C28.9849 17.8809 27.8063 18.1428 27.0206 18.1428C26.3659 18.1428 25.7111 18.0119 25.4492 17.75C25.0563 17.3571 24.7944 16.9643 24.7944 16.4405H19.2944C19.4254 20.369 23.223 21.6785 26.7587 21.6785C30.4254 21.6785 34.354 20.5 34.354 16.4405C34.354 13.9524 32.6516 12.9047 30.8182 12.25C28.854 11.5952 26.7587 11.4643 25.8421 11.0714C25.5801 10.9405 25.1873 10.6785 25.1873 10.2857C25.1873 9.23807 26.104 9.10712 26.8897 9.10712C27.4135 9.10712 27.8063 9.23807 28.1992 9.49998C28.4611 9.76188 28.723 10.1547 28.854 10.6785H34.0921C33.8301 6.88093 29.9016 5.96426 26.7587 5.96426ZM46.2706 10.1547C44.1754 10.1547 43.7825 12.119 43.7825 13.8214C43.7825 15.6547 44.3063 17.619 46.2706 17.619C48.3659 17.619 48.7587 15.6547 48.7587 13.8214C48.8897 11.9881 48.3659 10.1547 46.2706 10.1547ZM38.2825 0.726167H44.0444V8.0595C44.9611 6.74998 46.4016 6.09521 48.104 6.09521C53.0802 6.09521 54.5206 10.4166 54.5206 13.9524C54.5206 17.75 52.4254 21.9405 48.2349 21.9405C45.4849 21.9405 44.5682 20.8928 43.7825 19.9762V21.6785H38.2825V0.726167ZM64.9968 14.6071C64.342 15 63.5563 15.1309 62.7706 15.3928C61.4611 15.6547 60.8063 16.0476 60.8063 16.9643C60.8063 17.619 61.5921 18.4047 62.6397 18.4047C63.9492 18.4047 64.9968 17.619 64.9968 16.0476V14.6071ZM70.4968 18.0119C70.4968 19.1905 70.4968 20.369 71.1516 21.4166H65.2587C65.1278 21.0238 64.9968 20.5 64.9968 19.9762C63.8182 21.4166 61.9849 21.8095 60.1516 21.8095C57.2706 21.8095 54.9135 20.369 54.9135 17.2262C54.9135 12.5119 60.4135 12.6428 63.4254 12.119C64.2111 11.9881 64.9968 11.7262 64.9968 10.8095C64.9968 9.76188 64.0801 9.36902 63.1635 9.36902C61.4611 9.36902 61.0682 10.2857 61.0682 10.9405H55.6992C55.8301 6.74998 59.8897 5.96426 63.4254 5.96426C70.6278 5.96426 70.4968 8.97617 70.4968 11.8571V18.0119ZM72.5921 6.35712H78.092V8.32141C79.1397 6.74998 80.7111 6.09521 82.9373 6.09521C85.6873 6.09521 88.0444 7.7976 88.0444 11.2024V21.5476H82.5444V13.6905C82.5444 11.9881 82.2825 10.6785 80.7111 10.6785C79.6635 10.6785 78.4849 11.2024 78.4849 13.5595V21.5476H72.723L72.5921 6.35712ZM90.2706 0.726167H96.0325V10.6785L99.6992 6.35712H106.116L100.747 11.9881L106.902 21.2857H99.9611L96.9492 15.9166L95.9016 16.9643V21.2857H90.1397V0.726167H90.2706ZM108.211 20.7619H108.473V20.2381H108.997C109.128 20.2381 109.128 20.369 109.128 20.5V20.6309H109.39V20.2381C109.39 20.1071 109.39 20.1071 109.259 19.9762C109.259 19.8452 109.128 19.8452 108.997 19.8452C109.128 19.8452 109.128 19.8452 109.259 19.7143C109.39 19.7143 109.39 19.5833 109.39 19.4524C109.39 19.3214 109.259 19.1905 109.128 19.0595H108.211V20.7619ZM108.866 19.9762H108.342V19.4524H108.866C108.866 19.4524 108.997 19.5833 108.997 19.7143C108.997 19.9762 108.997 19.9762 108.866 19.9762ZM109.652 19.1905C109.537 19.0619 109.395 18.9602 109.237 18.8923C109.078 18.8244 108.907 18.7921 108.735 18.7976C108.342 18.7976 108.08 18.9285 107.818 19.1905C107.556 19.4524 107.425 19.7143 107.425 20.1071C107.425 20.5 107.556 20.7619 107.818 21.0238C108.08 21.2857 108.342 21.4166 108.735 21.4166C109.128 21.4166 109.39 21.2857 109.652 21.0238C109.913 20.7619 110.044 20.5 110.044 20.1071C110.044 19.7143 109.913 19.4524 109.652 19.1905ZM109.521 19.3214C109.783 19.5833 109.913 19.8452 109.783 20.1071C109.783 20.369 109.652 20.6309 109.521 20.8928C109.259 21.1547 108.997 21.1547 108.735 21.1547C108.473 21.1547 108.211 21.0238 107.949 20.8928C107.687 20.6309 107.556 20.369 107.687 20.1071C107.687 19.8452 107.818 19.5833 107.949 19.3214C108.211 19.0595 108.473 18.9285 108.735 18.9285C108.997 18.9285 109.259 19.0595 109.521 19.3214Z"
      fill="#0D102B" />
  </g>
  <defs>
    <clipPath id="clip0_6108_51327">
      <rect width="110" height="28.8095" fill="white" transform="translate(0.0444336 0.595215)" />
    </clipPath>
  </defs>
</svg>