<svg viewBox="0 0 92 28" fill="none" xmlns="http://www.w3.org/2000/svg">
  <path
    d="M89.1632 2.86978V25.1372H89.8848V2.86978H89.1632ZM13.3073 2.84277L12.4429 7.96775L11.536 2.84277H7.29086L6.41869 7.96775L5.42302 2.84277H1.91504L4.11863 12.7801H8.40616L9.39411 7.16118L10.3936 12.7801H14.7352L16.877 2.84277H13.3073ZM27.0961 5.20458V2.84277H18.741V12.7801H27.0961V10.2987H22.7777V8.99043H27.0923V6.50898H22.7777V5.20458H27.0961ZM60.231 5.20458V2.84277H51.8874V12.7801H60.231V10.2987H55.9164V8.99043H60.231V6.50898H55.9164V5.20458H60.231ZM40.4103 2.84277V5.27019H43.0654V12.7801H47.2757V5.27019H49.9386V2.84277H40.4103ZM73.0473 11.6726V10.0015C73.0473 9.04832 72.453 8.1144 71.1949 7.84425C72.7231 7.26152 73.1283 6.37777 73.1013 5.32808C73.055 3.52198 71.8857 2.84663 70.7549 2.84663H63.2025V12.784H67.2855V9.35705H68.2658C68.6864 9.35705 68.9334 9.93207 68.9295 10.4453V11.6494C68.9295 12.0469 69.0106 12.4868 69.2691 12.784H73.3251C73.0936 12.4097 73.0473 12.0508 73.0473 11.6726ZM68.2194 7.07628H67.301V4.919H68.2194C68.8408 4.919 69.1379 5.45929 69.1379 5.99957C69.1341 6.536 68.8215 7.07628 68.2194 7.07628ZM82.7145 2.84277V7.5278L80.9238 2.84277H75.7448V12.7801H79.0714V7.40045L81.1207 12.7763H86.0565V2.84277H82.7145ZM49.6028 15.4738V20.1589L47.8122 15.4738H42.6486V25.4112H45.9559V20.0354L48.0051 25.4112H52.9526V15.4738H49.6028ZM82.6527 15.4738V20.1589L80.8621 15.4738H75.6908V25.4112H79.0097V20.0354L81.0705 25.4112H86.0064V15.4738H82.6527ZM55.6926 15.4738V25.4112H59.9377V15.4738H55.6926ZM35.648 15.4738V21.8955C35.648 22.4474 35.2004 22.8912 34.6485 22.895C34.1082 22.895 33.6606 22.4435 33.6606 21.8955V15.4738H29.4888V21.8029C29.4888 23.9177 31.2139 25.6427 33.321 25.6427H35.9838C38.0986 25.6427 39.8237 23.9177 39.8237 21.8029V15.4738H35.648ZM68.7482 14.9181H66.9305C64.3294 14.9181 62.2107 17.0407 62.2069 19.6379V20.95C62.2069 23.5511 64.3294 25.6736 66.9305 25.6736H68.7482C71.3454 25.6736 73.4756 23.5511 73.4756 20.95V19.6379C73.4795 17.0407 71.3454 14.9181 68.7482 14.9181ZM67.8412 23.308C66.78 23.308 66.6102 21.9572 66.6102 20.2939C66.6102 18.6384 66.78 17.2799 67.8412 17.2799C68.9102 17.2799 69.0723 18.6384 69.0723 20.2939C69.0723 21.9611 68.9102 23.308 67.8412 23.308ZM34.9611 6.4125C34.1623 6.18095 33.4599 5.85292 33.4869 5.27019C33.5139 4.88427 33.9269 4.43275 34.3051 4.45204C34.9418 4.47906 35.2235 4.83024 35.2235 5.23546V5.89151H39.1522C39.0518 3.32903 36.3929 2.41054 34.4401 2.41826C32.4527 2.43756 29.566 2.92381 29.3962 5.62909C29.2804 7.48921 30.9167 8.56206 33.7223 9.02902C34.2703 9.12936 35.1425 9.40722 35.1 10.1443C35.073 10.5765 34.7759 11.0435 34.1468 11.0242C33.7609 11.0165 33.2669 10.7116 33.3017 10.2138C33.3094 10.0247 33.3017 9.83559 33.3017 9.65807H29.2341C29.2804 12.8149 32.2018 13.085 34.278 13.0927C37.3345 13.1004 39.1676 11.9234 39.2139 10.044C39.268 7.78637 37.7243 7.21135 34.9611 6.4125Z"
    fill="#0D102B" />
</svg>