<svg xmlns="http://www.w3.org/2000/svg" viewBox="0 0 2340 702" fill="#0d102b">
  <path d="M2291.1 61.4v577h18.7v-577h-18.7zm-1965.6-.7l-22.4 132.8-23.5-132.8h-110L147 193.5 121.2 60.7H30.3l57.1 257.5h111.1l25.6-145.6L250 318.2h112.5L418 60.7h-92.5zm357.3 61.2V60.7H466.3v257.5h216.5v-64.3H570.9V220h111.8v-64.3H570.9v-33.8h111.9zm858.6 0V60.7h-216.2v257.5h216.2v-64.3h-111.8V220h111.8v-64.3h-111.8v-33.8h111.8zm-513.6-61.2v62.9h68.8v194.6h109.1V123.6h69V60.7h-246.9zm845.7 228.8v-43.3c0-24.7-15.4-48.9-48-55.9 39.6-15.1 50.1-38 49.4-65.2-1.2-46.8-31.5-64.3-60.8-64.3h-195.7v257.5h105.8v-88.8h25.4c10.9 0 17.3 14.9 17.2 28.2v31.2c0 10.3 2.1 21.7 8.8 29.4h105.1c-6-9.7-7.2-19-7.2-28.8zm-125.1-119.1h-23.8v-55.9h23.8c16.1 0 23.8 14 23.8 28-.1 13.9-8.2 27.9-23.8 27.9zM2124 60.7v121.4l-46.4-121.4h-134.2v257.5h86.2V178.8l53.1 139.3h127.9V60.7H2124zM1266 388v121.4L1219.6 388h-133.8v257.5h85.7V506.2l53.1 139.3h128.2V388H1266zm856.4 0v121.4L2076 388h-134v257.5h86V506.2l53.4 139.3h127.9V388h-86.9zm-698.6 0v257.5h110V388h-110zm-519.4 0v166.4c0 14.3-11.6 25.8-25.9 25.9-14 0-25.6-11.7-25.6-25.9V388H744.8v164c0 54.8 44.7 99.5 99.3 99.5h69c54.8 0 99.5-44.7 99.5-99.5V388H904.4zm857.7-14.4H1715c-67.4 0-122.3 55-122.4 122.3v34c0 67.4 55 122.4 122.4 122.4h47.1c67.3 0 122.5-55 122.5-122.4v-34c.1-67.3-55.2-122.3-122.5-122.3zM1738.6 591c-27.5 0-31.9-35-31.9-78.1 0-42.9 4.4-78.1 31.9-78.1 27.7 0 31.9 35.2 31.9 78.1 0 43.2-4.2 78.1-31.9 78.1zm-852-437.8c-20.7-6-38.9-14.5-38.2-29.6.7-10 11.4-21.7 21.2-21.2 16.5.7 23.8 9.8 23.8 20.3v17h101.8c-2.6-66.4-71.5-90.2-122.1-90-51.5.5-126.3 13.1-130.7 83.2-3 48.2 39.4 76 112.1 88.1 14.2 2.6 36.8 9.8 35.7 28.9-.7 11.2-8.4 23.3-24.7 22.8-10-.2-22.8-8.1-21.9-21 .2-4.9 0-9.8 0-14.4H738.2c1.2 81.8 76.9 88.8 130.7 89 79.2.2 126.7-30.3 127.9-79 1.4-58.5-38.6-73.4-110.2-94.1z"/>
</svg>