<svg viewBox="0 0 92 26" fill="none" xmlns="http://www.w3.org/2000/svg">
  <g clip-path="url(#clip0_6108_51364)">
    <path
      d="M0.866211 6.62063H6.23841L9.36685 14.6243L12.5359 6.62063H17.7668L9.89008 25.5681H4.62607L6.78212 20.5474L0.866211 6.62063ZM23.2165 6.30219C19.1798 6.30219 16.6279 9.92246 16.6279 13.5277C16.6279 17.5845 19.4256 20.801 23.14 20.801C25.9104 20.801 26.9548 19.1129 26.9548 19.1129V20.4273H31.641V6.62132H26.9548V7.87631C26.9548 7.87631 25.7896 6.30253 23.2165 6.30253V6.30219ZM24.2131 10.7392C26.0756 10.7392 27.0368 12.213 27.0368 13.5427C27.0368 14.9749 26.007 16.38 24.2131 16.38C22.7264 16.38 21.3826 15.165 21.3826 13.6038C21.3826 12.0201 22.4632 10.7392 24.2131 10.7392ZM33.2547 20.4276V0.52417H38.1559V7.92375C38.1559 7.92375 39.3198 6.3039 41.7581 6.3039C44.7405 6.3039 46.4876 8.52582 46.4876 11.7014V20.4273H41.6226V12.8966C41.6226 11.8222 41.1106 10.7839 39.9512 10.7839C38.771 10.7839 38.1559 11.8379 38.1559 12.8966V20.4276H33.2547ZM54.8442 6.3039C50.2212 6.3039 47.4685 9.81904 47.4685 13.585C47.4685 17.8709 50.8014 20.801 54.8613 20.801C58.7966 20.801 62.2404 18.004 62.2404 13.6571C62.2404 8.90058 58.6348 6.3039 54.8442 6.3039ZM54.8883 10.7798C56.5211 10.7798 57.6508 12.1399 57.6508 13.5902C57.6508 14.8271 56.5982 16.3527 54.8883 16.3527C53.3217 16.3527 52.1455 15.096 52.1455 13.5765C52.1455 12.113 53.123 10.7798 54.8883 10.7798ZM70.4052 6.3039C65.7825 6.3039 63.0299 9.81904 63.0299 13.585C63.0299 17.8709 66.3627 20.801 70.4226 20.801C74.3579 20.801 77.8014 18.004 77.8014 13.6571C77.8014 8.90058 74.1961 6.3039 70.4052 6.3039ZM70.4496 10.7798C72.0824 10.7798 73.2121 12.1399 73.2121 13.5902C73.2121 14.8271 72.1592 16.3527 70.4492 16.3527C68.8826 16.3527 67.7068 15.096 67.7068 13.5765C67.7068 12.113 68.6843 10.7798 70.4492 10.7798H70.4496Z"
      fill="#0D102B" />
    <path
      d="M81.6684 20.7204C83.4658 20.7204 84.9228 19.2634 84.9228 17.4661C84.9228 15.6687 83.4658 14.2117 81.6684 14.2117C79.8711 14.2117 78.4141 15.6687 78.4141 17.4661C78.4141 19.2634 79.8711 20.7204 81.6684 20.7204Z"
      fill="#0D102B" />
    <path d="M85.993 13.0158H80.1338L85.334 0.523926H91.171L85.993 13.0158Z" fill="#0D102B" />
  </g>
  <defs>
    <clipPath id="clip0_6108_51364">
      <rect width="90.3046" height="25.0436" fill="white" transform="translate(0.866211 0.523926)" />
    </clipPath>
  </defs>
</svg>