<svg viewBox="0 0 87 32" fill="none" xmlns="http://www.w3.org/2000/svg">
    <g clip-path="url(#clip0_3856_50747)">
        <path
            d="M2.46023 25.5182L3.20802 31.6106H29.3885L28.5318 24.6334H16.3247L16.218 23.7689L27.4607 15.9126L26.7095 9.80902H0.53125L1.38795 16.785H13.6153L13.722 17.6574L2.46023 25.5182Z"
            fill="#0D102B" />
        <path d="M29.75 9.80902L32.4279 31.6106H58.6275L55.9496 9.80902H29.75Z" fill="#0D102B" />
        <path
            d="M86.1007 17.6574C85.4966 12.7575 81.6477 9.7877 76.4154 9.80903H58.9883L61.6651 31.6117H69.5056L68.9689 27.2507H77.2653C83.7945 27.2496 86.7822 23.1816 86.1007 17.6574ZM76.4176 21.1381L68.2211 21.1471L67.5789 15.9148L75.8214 15.9216C77.7594 15.9452 78.7508 17.0365 78.9114 18.5299C79.0102 19.491 78.57 21.137 76.4176 21.137V21.1381Z"
            fill="#0D102B" />
        <path
            d="M37.5796 6.91214C38.9585 5.43188 38.7181 2.96675 37.0428 1.40614C35.3674 -0.154478 32.8914 -0.219616 31.5126 1.26065C30.1337 2.74091 30.3741 5.20602 32.0494 6.76665C33.7248 8.32726 36.2008 8.3924 37.5796 6.91214Z"
            fill="#0D102B" />
    </g>
    <defs>
        <clipPath id="clip0_3856_50747">
            <rect width="86.2316" height="32" fill="white" transform="translate(0.265625)" />
        </clipPath>
    </defs>
</svg>