<svg viewBox="0 0 209 30" fill="none" xmlns="http://www.w3.org/2000/svg">
    <path
        d="M142.65 7.1719L142.738 7.17399L142.742 6.89395L142.738 7.17399H142.746L142.817 11.2618C142.817 11.684 143.034 12.0372 143.471 12.0372L155.952 12.1062C156.169 12.1062 156.316 12.2483 156.316 12.4593V17.3915C156.316 17.5984 156.176 17.7384 155.967 17.7447C155.91 17.7781 155.839 17.797 155.76 17.797H143.302C143.26 17.797 143.22 17.8011 143.183 17.8053C142.94 17.9265 142.817 18.2024 142.817 18.5201L142.746 23.1701C142.746 23.2411 142.729 23.3059 142.698 23.3582C142.809 23.6173 143.105 23.7469 143.448 23.7469L148.228 23.8159C148.445 23.8159 148.589 23.9559 148.589 24.167V29.0657C148.589 29.2768 148.445 29.4168 148.228 29.4168H131.713C131.496 29.4168 131.352 29.2768 131.352 29.0657V24.167C131.352 23.9559 131.496 23.8159 131.713 23.8159L135.987 23.7469C136.349 23.7469 136.712 23.6069 136.783 23.2558V6.87723C136.783 6.45716 136.422 6.24817 135.987 6.24817L131.642 6.17711C131.425 6.17711 131.279 6.03709 131.279 5.8281V0.927281C131.279 0.718291 131.425 0.578267 131.642 0.578267H168.579C168.797 0.578267 168.941 0.787258 168.941 0.927281V9.46661C168.941 9.67769 168.797 9.81771 168.579 9.81771H163.509C163.292 9.81771 163.148 9.67769 163.148 9.46661L163.074 7.01725C163.074 6.59718 162.857 6.31713 162.495 6.24817H143.302C142.867 6.24817 142.65 6.59718 142.65 7.01725V7.1719ZM14.3759 0.473772H28.7439H14.3759ZM80.122 23.5776C80.2663 23.5776 80.4836 23.7197 80.5567 23.9308V28.8546C80.5567 29.0657 80.4105 29.2057 80.1952 29.2057H73.3968H70.5043H63.708C63.4906 29.2057 63.3464 29.0657 63.3464 28.8546V23.9308C63.3464 23.7197 63.4906 23.5776 63.708 23.5776L66.7446 23.5086C67.1793 23.5086 67.3235 23.2265 67.1061 22.8754C66.6004 22.1711 65.01 19.8513 64.5753 19.3581C64.2137 18.867 63.708 18.7959 63.2733 18.7959C62.8407 18.7959 55.898 18.7959 55.898 18.7959L50.9805 18.867C50.7631 18.867 50.6189 19.007 50.6189 19.2181V22.8754C50.6189 23.2976 50.9805 23.5086 51.4152 23.5086L56.3327 23.5776C56.548 23.5776 56.6943 23.7197 56.6943 23.9308V28.8546C56.6943 29.0657 56.548 29.2057 56.3327 29.2057H39.8455C39.6281 29.2057 39.4839 29.0657 39.4839 28.8546V23.9308C39.4839 23.7197 39.6281 23.5776 39.8455 23.5776L43.9668 23.5086C44.4015 23.5086 44.763 23.2976 44.763 22.8754V6.90857C44.763 6.48641 44.4015 6.27534 43.9668 6.27534L39.7723 6.20637C39.555 6.20637 39.4108 6.06425 39.4108 5.85318V0.720381C39.4108 0.509301 39.555 0.367188 39.7723 0.367188H67.2504C72.4563 0.367188 76.6507 4.51773 76.6507 9.58156C76.6507 12.9588 74.843 15.8408 72.0947 17.4584C71.3006 17.7405 71.2274 18.2337 71.5179 18.7249C71.7332 19.0781 73.8314 22.3132 74.2641 23.0154C74.5546 23.4376 74.7719 23.5086 75.2045 23.5086L80.122 23.5776ZM67.1061 13.0278C69.0581 13.0278 70.6485 11.4813 70.6485 9.58156C70.6485 7.68184 69.0581 6.13531 67.1061 6.13531H66.6004L50.9094 6.20637C50.6921 6.20637 50.5479 6.34639 50.5479 6.55747V12.6056C50.5479 12.8167 50.6921 12.9588 50.9094 12.9588L66.6004 13.0278H67.1061ZM28.5851 29.4168H10.4782C6.48023 29.4168 2.55331 25.9768 0.881391 21.7678C0.298309 20.2254 0.0078125 18.6099 0.0078125 16.9965V13.1386C0.0078125 11.5231 0.298309 9.90967 0.881391 8.36733C2.55331 4.15618 6.26079 0.718291 10.4782 0.718291L35.1286 0.578267C35.348 0.578267 35.4922 0.718291 35.4922 0.929371V9.4896C35.4922 9.70068 35.348 9.8407 35.1286 9.8407H29.8202C29.6029 9.8407 29.4566 9.70068 29.4566 9.4896L29.3855 7.17399C29.3855 6.75183 29.1661 6.40282 28.7293 6.40282L11.2786 6.47179C9.38729 6.47179 7.42487 8.22521 6.48023 10.4719C6.11659 11.3831 5.9703 12.2253 5.9703 13.1386V17.0676C5.9703 17.9098 6.11659 18.821 6.48023 19.7322C7.35172 21.9788 9.31623 23.8723 11.2786 23.8723L28.5851 23.8033C29.0219 23.8033 29.3855 23.4522 29.3855 23.0301L29.4566 20.5744C29.4566 20.3654 29.6029 20.2254 29.8202 20.2254H35.1286C35.348 20.2254 35.4922 20.3654 35.4922 20.5744V28.9946C35.4922 29.2057 35.348 29.3457 35.1286 29.3457H29.8934L28.5851 29.4168ZM128.142 23.8159C128.359 23.8159 128.503 23.9559 128.43 24.167V29.0657C128.43 29.2768 128.286 29.4168 128.069 29.4168H111.558C111.341 29.4168 111.195 29.2768 111.195 29.0657V24.167C111.195 23.9559 111.341 23.8159 111.558 23.8159L115.613 23.7469C116.047 23.7469 116.409 23.5358 116.409 23.1157V19.4772V19.4062C116.409 18.9861 116.192 18.6371 115.757 18.6371H96.7117C96.277 18.6371 96.0596 18.9861 96.0596 19.4062V23.1157C96.0596 23.5358 96.4233 23.7469 96.858 23.7469L100.912 23.8159C101.13 23.8159 101.274 23.9559 101.274 24.167V29.0657C101.274 29.2768 101.13 29.4168 100.912 29.4168H84.4022C84.1848 29.4168 84.0385 29.2768 84.0385 29.0657V24.167C84.0385 23.9559 84.1848 23.8159 84.4022 23.8159L89.4702 23.7469C89.9049 23.7469 90.2664 23.5358 90.2664 23.1157V12.9672C90.2664 12.9672 90.2664 11.4269 90.5569 10.1667C91.4974 5.47699 95.9886 0.578267 100.768 0.578267H111.776C116.482 0.578267 120.971 5.47699 121.985 10.1667C122.275 11.4269 122.275 12.9672 122.275 12.9672V23.1157C122.275 23.5358 122.637 23.7469 123.072 23.7469L128.142 23.8159ZM115.613 12.8982C116.192 12.8982 116.482 12.6871 116.482 12.0581C116.409 11.498 116.265 10.7979 115.686 9.60664C114.526 7.15727 112.281 6.17711 110.545 6.17711H102.07C100.333 6.17711 98.0889 7.15727 96.929 9.60664C96.3501 10.7979 96.2059 11.567 96.1328 12.0581C96.0596 12.6871 96.3501 12.8982 96.929 12.8982H115.613ZM208.488 0.578267C208.707 0.578267 208.852 0.787258 208.998 0.927281V9.46661C208.998 9.67769 208.852 9.81771 208.634 9.81771H203.545C203.326 9.81771 203.182 9.67769 203.182 9.46661L203.108 7.01725C203.108 6.59718 202.891 6.31713 202.528 6.24817H194.31C193.875 6.24817 193.656 6.59718 193.656 7.01725V23.1157C193.656 23.5358 194.02 23.7469 194.456 23.7469L199.255 23.8159C199.472 23.8159 199.618 23.9559 199.618 24.167V29.0657C199.618 29.2768 199.472 29.4168 199.255 29.4168H182.314C182.095 29.4168 181.95 29.2768 181.95 29.0657V24.167C181.95 23.9559 182.095 23.8159 182.314 23.8159L186.895 23.7469C187.259 23.7469 187.62 23.6069 187.693 23.2558V6.87723C187.693 6.45716 187.33 6.24817 186.895 6.24817H178.678C178.314 6.31713 178.097 6.59718 178.097 7.01725L178.023 9.46661C178.023 9.67769 177.879 9.81771 177.66 9.81771H172.571C172.351 9.81771 172.207 9.67769 172.207 9.46661V0.927281C172.207 0.718291 172.351 0.578267 172.571 0.578267H208.488Z"
        fill="#0D102B" />
</svg>