<svg viewBox="0 0 159 58" fill="none" xmlns="http://www.w3.org/2000/svg">
    <g clip-path="url(#clip0_4079_49019)">
        <path
            d="M27.4737 13.3005V33.2716H22.4483V13.8879C22.4483 11.3642 21.7304 9.31929 20.2945 7.75291C18.9023 6.18655 16.9878 5.40337 14.5513 5.40337C12.1147 5.40337 10.1132 6.20831 8.54685 7.81817C6.98047 9.38454 6.1973 11.4078 6.1973 13.8879V33.2716H1.17188V1.48745H5.87097V4.88124C8.35105 2.1401 11.6143 0.769531 15.6608 0.769531C19.3156 0.769531 22.1873 1.92255 24.2758 4.22859C26.4077 6.49112 27.4737 9.51507 27.4737 13.3005Z"
            fill="#0D102B" />
        <path
            d="M64.1061 18.9133H38.979C39.2836 22.046 40.5237 24.5696 42.6991 26.4841C44.8746 28.3985 47.5289 29.3558 50.6616 29.3558C54.2728 29.3558 57.5143 27.92 60.386 25.0483L63.323 28.442C59.7551 32.1404 55.5129 33.9896 50.5961 33.9896C45.8537 33.9896 41.8506 32.4014 38.5873 29.2251C35.3676 26.0054 33.7578 22.0676 33.7578 17.4122C33.7578 12.8001 35.324 8.88418 38.457 5.66442C41.6332 2.40116 45.4838 0.769531 50.0089 0.769531C54.1424 0.769531 57.5797 2.11834 60.3207 4.81597C63.1053 7.51359 64.4976 10.9509 64.4976 15.1279C64.4976 16.3462 64.3672 17.608 64.1061 18.9133ZM39.1749 14.4752H59.3418C59.2982 11.6906 58.3845 9.47156 56.6005 7.81817C54.8168 6.16478 52.5759 5.33809 49.8782 5.33809C47.2243 5.33809 44.9182 6.18655 42.9601 7.88345C41.0022 9.53683 39.7405 11.7341 39.1749 14.4752Z"
            fill="#0D102B" />
        <path
            d="M103.945 20.61V1.4873H108.906V20.9363C108.906 23.46 109.667 25.5048 111.19 27.0713C112.756 28.5942 114.736 29.3557 117.129 29.3557C119.478 29.3557 121.415 28.5723 122.937 27.006C124.46 25.4397 125.222 23.4164 125.222 20.9363V1.4873H130.247V20.61C130.247 24.5695 128.985 27.7892 126.462 30.2692C123.982 32.7493 120.871 33.9894 117.129 33.9894C113.343 33.9894 110.189 32.7493 107.666 30.2692C105.185 27.7892 103.945 24.5695 103.945 20.61Z"
            fill="#0D102B" />
        <path
            d="M134.855 27.7893L138.053 24.4607C139.707 26.1577 141.208 27.3977 142.557 28.181C143.949 28.9641 145.494 29.3558 147.191 29.3558C148.974 29.3558 150.432 28.9641 151.563 28.181C152.695 27.3544 153.26 26.2448 153.26 24.8524C153.26 23.6341 152.847 22.6987 152.02 22.046C151.237 21.3499 149.801 20.5883 147.713 19.7617L144.645 18.4564C141.904 17.3252 139.903 16.0851 138.641 14.7363C137.379 13.3875 136.748 11.6906 136.748 9.6456C136.748 6.94797 137.749 4.79422 139.751 3.18434C141.795 1.57447 144.362 0.769531 147.452 0.769531C151.759 0.769531 155.305 2.44467 158.09 5.79496L155.022 8.92769C152.673 6.57814 150.062 5.40337 147.191 5.40337C145.581 5.40337 144.297 5.75144 143.34 6.44759C142.383 7.14377 141.904 8.12275 141.904 9.38454C141.904 10.3853 142.252 11.212 142.948 11.8646C143.688 12.4738 145.059 13.1917 147.06 14.0184L149.997 15.2584C153.043 16.5637 155.196 17.9342 156.458 19.3701C157.764 20.7625 158.416 22.5245 158.416 24.6566C158.416 27.6154 157.328 29.9214 155.153 31.5748C153.021 33.1846 150.389 33.9896 147.256 33.9896C142.165 33.9896 138.032 31.9229 134.855 27.7893Z"
            fill="#0D102B" />
        <path fill-rule="evenodd" clip-rule="evenodd"
            d="M80.1823 10.4612C76.7166 8.0262 72.505 6.01752 69.6986 4.92623L71.315 0.769531C74.3524 1.9507 78.907 4.11461 82.7462 6.81187C83.0517 7.02649 83.3548 7.24597 83.654 7.47013C83.9532 7.24597 84.2564 7.02649 84.5618 6.81187C88.401 4.11461 92.9555 1.9507 95.9932 0.769531L97.6095 4.9262C94.8029 6.01752 90.5914 8.0262 87.1257 10.4612C87.1102 10.472 87.0948 10.4828 87.0794 10.4937C87.3507 10.7851 87.6095 11.0815 87.8534 11.3824C89.2041 13.0485 90.2688 15.0601 90.2688 17.3041H90.265C90.265 19.5566 89.2073 21.5814 87.8569 23.2645C87.6052 23.5784 87.3381 23.887 87.0575 24.1905C87.0831 24.2088 87.1087 24.2271 87.1344 24.2453C90.6001 26.7062 94.8109 28.7359 97.6164 29.8384L95.9853 33.9892C92.9468 32.7952 88.3919 30.608 84.5524 27.8818C84.2495 27.6668 83.9488 27.4469 83.6521 27.2224C83.3553 27.4469 83.0546 27.6668 82.7517 27.8818C78.9123 30.608 74.3573 32.7952 71.3188 33.9892L69.6875 29.8384C72.493 28.7359 76.7039 26.7062 80.1697 24.2453C80.1954 24.2271 80.2212 24.2088 80.2466 24.1905C79.966 23.887 79.6987 23.5784 79.4472 23.2645C78.0968 21.5814 77.0389 19.5564 77.0389 17.3039H77.0394C77.0394 15.06 78.1041 13.0484 79.4547 11.3824C79.6987 11.0815 79.9573 10.7851 80.2284 10.4937C80.2131 10.4828 80.1978 10.472 80.1823 10.4612ZM83.654 13.362C83.3881 13.6389 83.1424 13.9156 82.919 14.1911C81.8956 15.4535 81.4992 16.4925 81.4992 17.3041H81.499C81.499 18.1394 81.9022 19.1976 82.926 20.4739C83.1469 20.7493 83.3895 21.0257 83.6521 21.3026C83.9145 21.0257 84.1572 20.7493 84.3783 20.4739C85.402 19.1975 85.8052 18.1392 85.8052 17.3039H85.8087C85.8087 16.4923 85.4123 15.4533 84.389 14.1911C84.1656 13.9156 83.9201 13.6389 83.654 13.362Z"
            fill="#0D102B" />
        <path
            d="M9.77415 42.9795H11.5158L6.65184 53.319H6.05713L1.17188 42.9795H2.91357L6.35449 50.5993L9.77415 42.9795Z"
            fill="#0D102B" />
        <path
            d="M22.3805 48.5231H14.2031C14.3022 49.5194 14.7058 50.3223 15.4138 50.9315C16.1218 51.5404 16.9856 51.8448 18.0051 51.8448C19.1804 51.8448 20.2353 51.3881 21.1698 50.4746L22.1257 51.5541C20.9646 52.7309 19.5839 53.3191 17.9839 53.3191C16.4404 53.3191 15.1377 52.8138 14.0757 51.8033C13.0278 50.7792 12.5039 49.5263 12.5039 48.0455C12.5039 46.5782 13.0137 45.3324 14.0332 44.3081C15.0669 43.2701 16.32 42.751 17.7928 42.751C19.1379 42.751 20.2565 43.1799 21.1487 44.0381C22.0549 44.8964 22.508 45.9898 22.508 47.3187C22.508 47.7062 22.4657 48.1075 22.3805 48.5231ZM14.2668 47.1109H20.83C20.8159 46.2252 20.5186 45.5193 19.938 44.9932C19.3574 44.4672 18.6282 44.2043 17.7503 44.2043C16.8865 44.2043 16.136 44.4742 15.4988 45.0141C14.8616 45.5402 14.4509 46.2391 14.2668 47.1109Z"
            fill="#0D102B" />
        <path
            d="M33.7277 46.7373V53.0906H32.0921V46.9242C32.0921 46.1213 31.8586 45.4708 31.3913 44.9727C30.9382 44.4742 30.315 44.225 29.5222 44.225C28.7293 44.225 28.0779 44.4811 27.5682 44.9932C27.0583 45.4917 26.8035 46.1352 26.8035 46.9242V53.0906H25.168V42.9794H26.6973V44.059C27.5044 43.1869 28.5664 42.751 29.8832 42.751C31.0726 42.751 32.0073 43.1178 32.6868 43.8512C33.3807 44.571 33.7277 45.5332 33.7277 46.7373Z"
            fill="#0D102B" />
        <path
            d="M42.6371 51.7419V53.0915C41.9432 53.2438 41.3696 53.3199 40.9165 53.3199C39.8122 53.3199 38.9554 53.0431 38.3466 52.4895C37.7376 51.9356 37.4331 51.1191 37.4331 50.0394V44.4127H35.6914V42.9803H37.4331V40.2188H39.0686V42.9803H42.2972V44.4127H39.0686V49.9357C39.0686 50.6278 39.2456 51.1261 39.5998 51.4305C39.9678 51.7212 40.5201 51.8666 41.2564 51.8666C41.6528 51.8666 42.1132 51.825 42.6371 51.7419Z"
            fill="#0D102B" />
        <path
            d="M44.7383 49.0627V42.9795H46.3525V49.1666C46.3525 49.9694 46.6004 50.6198 47.096 51.1183C47.6058 51.6025 48.25 51.8449 49.0287 51.8449C49.7934 51.8449 50.4235 51.5959 50.9192 51.0975C51.4149 50.5993 51.6626 49.9555 51.6626 49.1666V42.9795H53.2981V49.0627C53.2981 50.3222 52.8874 51.3466 52.0663 52.1356C51.2589 52.9245 50.2465 53.319 49.0287 53.319C47.7968 53.319 46.7702 52.9245 45.949 52.1356C45.142 51.3466 44.7383 50.3222 44.7383 49.0627Z"
            fill="#0D102B" />
        <path
            d="M62.0364 42.9797V44.3916H61.4204C60.5142 44.3916 59.7424 44.6614 59.1054 45.2013C58.4823 45.741 58.1707 46.4608 58.1707 47.3605V53.0909H56.5352V42.9797H58.0645V44.4121C58.8292 43.4019 59.8983 42.8965 61.2718 42.8965C61.5408 42.8965 61.7957 42.9243 62.0364 42.9797Z"
            fill="#0D102B" />
        <path
            d="M72.947 48.5231H64.7695C64.8687 49.5194 65.2724 50.3223 65.9804 50.9315C66.6883 51.5404 67.5521 51.8448 68.5716 51.8448C69.7469 51.8448 70.8018 51.3881 71.7363 50.4746L72.692 51.5541C71.531 52.7309 70.1506 53.3191 68.5504 53.3191C67.0068 53.3191 65.7042 52.8138 64.642 51.8033C63.5942 50.7792 63.0703 49.5263 63.0703 48.0455C63.0703 46.5782 63.5802 45.3324 64.5997 44.3081C65.6334 43.2701 66.8866 42.751 68.3591 42.751C69.7044 42.751 70.8231 43.1799 71.715 44.0381C72.6213 44.8964 73.0744 45.9898 73.0744 47.3187C73.0744 47.7062 73.032 48.1075 72.947 48.5231ZM64.8333 47.1109H71.3965C71.3824 46.2252 71.0849 45.5193 70.5045 44.9932C69.9239 44.4672 69.1946 44.2043 68.3168 44.2043C67.4529 44.2043 66.7026 44.4742 66.0652 45.0141C65.428 45.5402 65.0174 46.2391 64.8333 47.1109Z"
            fill="#0D102B" />
        <path
            d="M90.5635 44.2668C91.5405 45.277 92.0291 46.5298 92.0291 48.0246C92.0291 49.5194 91.5336 50.7792 90.5424 51.8033C89.5653 52.8138 88.3546 53.3191 86.9101 53.3191C85.2819 53.3191 84.0144 52.7585 83.1082 51.6374V56.8279H81.4727V42.9794H83.002V44.5987C83.3986 44.0174 83.9437 43.5675 84.6376 43.2493C85.3315 42.917 86.089 42.751 86.9101 42.751C88.3829 42.751 89.6007 43.2562 90.5635 44.2668ZM89.2892 50.7653C89.9971 50.0455 90.3512 49.1388 90.3512 48.0455C90.3512 46.952 89.9971 46.0453 89.2892 45.3255C88.5954 44.5919 87.7246 44.225 86.6766 44.225C85.6854 44.225 84.8358 44.5571 84.1279 45.2217C83.434 45.886 83.087 46.8205 83.087 48.0246C83.087 49.2565 83.427 50.2047 84.1065 50.8691C84.8004 51.5195 85.6572 51.8448 86.6766 51.8448C87.7246 51.8448 88.5954 51.4851 89.2892 50.7653Z"
            fill="#0D102B" />
        <path
            d="M102.436 46.8619V53.0906H100.907V51.7828C100.114 52.8069 98.9528 53.3191 97.4234 53.3191C96.3472 53.3191 95.4763 53.0631 94.8109 52.5508C94.1454 52.0248 93.8125 51.3328 93.8125 50.4746C93.8125 49.6164 94.1523 48.9313 94.8322 48.4191C95.5117 47.907 96.411 47.6509 97.5296 47.6509H100.801V46.7788C100.801 45.9623 100.574 45.3324 100.121 44.8894C99.6819 44.4465 99.073 44.225 98.2943 44.225C97.1332 44.225 96.1279 44.7649 95.278 45.8445L94.1948 44.9727C95.1153 43.4915 96.5172 42.751 98.4004 42.751C99.6465 42.751 100.631 43.1109 101.353 43.8307C102.075 44.5366 102.436 45.5468 102.436 46.8619ZM100.801 49.2081V48.9588H97.7209C96.2341 48.9588 95.4907 49.4364 95.4907 50.3915C95.4907 50.8898 95.6888 51.2843 96.0854 51.575C96.4958 51.8518 97.0128 51.9902 97.6358 51.9902C98.4997 51.9902 99.243 51.7204 99.866 51.1805C100.489 50.6408 100.801 49.9832 100.801 49.2081Z"
            fill="#0D102B" />
        <path
            d="M111.196 42.9797V44.3916H110.58C109.674 44.3916 108.903 44.6614 108.265 45.2013C107.642 45.741 107.331 46.4608 107.331 47.3605V53.0909H105.695V42.9797H107.224V44.4121C107.989 43.4019 109.058 42.8965 110.432 42.8965C110.701 42.8965 110.956 42.9243 111.196 42.9797Z"
            fill="#0D102B" />
        <path
            d="M118.825 51.7419V53.0915C118.131 53.2438 117.557 53.3199 117.104 53.3199C115.999 53.3199 115.143 53.0431 114.534 52.4895C113.925 51.9356 113.62 51.1191 113.62 50.0394V44.4127H111.879V42.9803H113.62V40.2188H115.256V42.9803H118.485V44.4127H115.256V49.9357C115.256 50.6278 115.433 51.1261 115.787 51.4305C116.155 51.7212 116.707 51.8666 117.444 51.8666C117.84 51.8666 118.3 51.825 118.825 51.7419Z"
            fill="#0D102B" />
        <path
            d="M129.611 46.7373V53.0906H127.975V46.9242C127.975 46.1213 127.741 45.4708 127.274 44.9727C126.821 44.4742 126.198 44.225 125.405 44.225C124.612 44.225 123.961 44.4811 123.451 44.9932C122.941 45.4917 122.686 46.1352 122.686 46.9242V53.0906H121.051V42.9794H122.58V44.059C123.387 43.1869 124.449 42.751 125.766 42.751C126.956 42.751 127.89 43.1178 128.57 43.8512C129.264 44.571 129.611 45.5332 129.611 46.7373Z"
            fill="#0D102B" />
        <path
            d="M142.005 48.5231H133.828C133.927 49.5194 134.331 50.3223 135.039 50.9315C135.747 51.5404 136.611 51.8448 137.63 51.8448C138.805 51.8448 139.86 51.3881 140.795 50.4746L141.751 51.5541C140.59 52.7309 139.209 53.3191 137.609 53.3191C136.065 53.3191 134.763 52.8138 133.701 51.8033C132.653 50.7792 132.129 49.5263 132.129 48.0455C132.129 46.5782 132.639 45.3324 133.658 44.3081C134.692 43.2701 135.945 42.751 137.418 42.751C138.763 42.751 139.881 43.1799 140.774 44.0381C141.68 44.8964 142.133 45.9898 142.133 47.3187C142.133 47.7062 142.091 48.1075 142.005 48.5231ZM133.892 47.1109H140.455C140.441 46.2252 140.144 45.5193 139.563 44.9932C138.982 44.4672 138.253 44.2043 137.375 44.2043C136.511 44.2043 135.761 44.4742 135.124 45.0141C134.487 45.5402 134.076 46.2391 133.892 47.1109Z"
            fill="#0D102B" />
        <path
            d="M150.294 42.9797V44.3916H149.678C148.772 44.3916 148 44.6614 147.363 45.2013C146.74 45.741 146.429 46.4608 146.429 47.3605V53.0909H144.793V42.9797H146.322V44.4121C147.087 43.4019 148.156 42.8965 149.53 42.8965C149.799 42.8965 150.053 42.9243 150.294 42.9797Z"
            fill="#0D102B" />
        <path
            d="M151.301 51.3467L152.342 50.2877C152.88 50.8275 153.368 51.2219 153.807 51.4712C154.26 51.7204 154.763 51.8448 155.315 51.8448C155.896 51.8448 156.37 51.7204 156.738 51.4712C157.106 51.2083 157.291 50.8552 157.291 50.4123C157.291 50.0248 157.156 49.7271 156.887 49.5194C156.632 49.298 156.165 49.0558 155.485 48.7929L154.487 48.3777C153.595 48.0176 152.943 47.6233 152.533 47.1942C152.122 46.7651 151.917 46.2252 151.917 45.5746C151.917 44.7164 152.242 44.0312 152.894 43.5191C153.559 43.0069 154.395 42.751 155.4 42.751C156.802 42.751 157.956 43.2837 158.862 44.3497L157.864 45.3463C157.099 44.5987 156.25 44.225 155.315 44.225C154.791 44.225 154.374 44.3358 154.062 44.5571C153.75 44.7788 153.595 45.0902 153.595 45.4917C153.595 45.81 153.708 46.0729 153.935 46.2805C154.175 46.4744 154.621 46.7027 155.273 46.9656L156.229 47.3602C157.22 47.7754 157.921 48.2115 158.331 48.6681C158.756 49.1111 158.968 49.6717 158.968 50.3501C158.968 51.2912 158.615 52.0248 157.906 52.5508C157.213 53.0631 156.356 53.3191 155.337 53.3191C153.68 53.3191 152.334 52.6615 151.301 51.3467Z"
            fill="#0D102B" />
    </g>
    <defs>
        <clipPath id="clip0_4079_49019">
            <rect width="157.992" height="56.2452" fill="white" transform="translate(0.996094 0.769531)" />
        </clipPath>
    </defs>
</svg>