<svg viewBox="0 0 258 66" fill="none" xmlns="http://www.w3.org/2000/svg">
    <g clip-path="url(#clip0_4079_48999)">
        <path
            d="M27.3328 49.0276C21.9607 49.0276 17.3697 44.234 17.3697 38.8158V26.3841L1.06641 22.3779V39.2749C1.06641 53.7845 12.8235 65.3307 27.3328 65.3307V49.0276Z"
            fill="#0D102B" />
        <path
            d="M27.3359 49.0274C32.754 49.0274 37.0215 44.4078 37.0215 38.9898V24.5723H53.5513V31.2394C53.5513 45.7488 41.8453 57.1787 27.3359 57.1787V49.0274Z"
            fill="#C2C2C9" />
        <path
            d="M27.3329 49.0278C21.9148 49.0278 17.3697 45.3883 17.3697 39.9703V23.667H1.06641V31.2399C1.06641 45.7492 12.8235 57.1795 27.3329 57.1795V49.0278Z"
            fill="#494A5B" />
        <path
            d="M27.3359 31.8182C32.754 31.8182 37.2991 28.1789 37.2991 22.7608V7.36328H53.689V22.7608C53.689 37.2702 41.8277 49.0274 27.3359 49.0274V31.8182Z"
            fill="#494A5B" />
        <path
            d="M27.3359 49.028C32.7704 49.028 37.2991 44.3451 37.2991 39.0648C37.2991 39.0648 37.2991 29.1208 37.2991 22.7614C37.2991 11.7963 37.2991 0.453131 37.2991 0.453131L53.689 0.453125V22.7614C53.689 39.0457 41.5698 49.028 27.3359 49.028Z"
            fill="#0D102B" />
        <path
            d="M27.3329 31.8182C21.9148 31.8182 17.3697 28.1789 17.3697 22.7608V7.36328H1.06641V22.7608C1.06641 37.2702 12.841 48.5745 27.3329 49.0274V31.8182Z"
            fill="#C2C2C9" />
        <path
            d="M27.4193 49.0274C21.9849 49.0274 17.3697 44.3445 17.3697 39.0641C17.3697 39.0641 17.3697 29.1202 17.3697 22.7608C17.3697 11.7957 17.3697 7.36328 17.3697 7.36328H1.06641V22.7608C1.06641 39.0451 13.1855 49.0274 27.4193 49.0274Z"
            fill="#C2C2C9" />
        <path
            d="M90.1112 22.6006V38.1567H86.1519V36.1911C85.6464 36.8651 84.9819 37.3986 84.1583 37.7917C83.3531 38.1661 82.4735 38.3533 81.5186 38.3533C80.302 38.3533 79.2257 38.1006 78.2896 37.5951C77.3536 37.071 76.6142 36.3128 76.0711 35.3207C75.5473 34.3098 75.2852 33.1118 75.2852 31.7265V22.6006H79.2163V31.1649C79.2163 32.4004 79.525 33.3551 80.1429 34.029C80.7604 34.6842 81.6028 35.0118 82.6702 35.0118C83.7559 35.0118 84.6073 34.6842 85.2252 34.029C85.8431 33.3551 86.1519 32.4004 86.1519 31.1649V22.6006H90.1112Z"
            fill="#0D102B" />
        <path
            d="M102.609 22.376C104.462 22.376 105.96 22.9656 107.102 24.145C108.243 25.3056 108.814 26.9342 108.814 29.0309V38.1568H104.883V29.5644C104.883 28.3288 104.574 27.3835 103.957 26.7283C103.339 26.0544 102.497 25.7174 101.429 25.7174C100.344 25.7174 99.4828 26.0544 98.8461 26.7283C98.2286 27.3835 97.9194 28.3288 97.9194 29.5644V38.1568H93.9883V22.6006H97.9194V24.5381C98.4437 23.8642 99.1082 23.34 99.9134 22.9656C100.737 22.5725 101.635 22.376 102.609 22.376Z"
            fill="#0D102B" />
        <path
            d="M111.543 30.3785C111.543 28.7685 111.871 27.3645 112.526 26.1665C113.181 24.9497 114.089 24.0137 115.249 23.3585C116.41 22.6846 117.739 22.3477 119.237 22.3477C121.165 22.3477 122.756 22.8344 124.01 23.8078C125.283 24.7625 126.135 26.1103 126.565 27.8513H122.325C122.101 27.1774 121.717 26.6532 121.174 26.2788C120.65 25.8857 119.995 25.6891 119.208 25.6891C118.086 25.6891 117.196 26.101 116.541 26.9247C115.886 27.7296 115.558 28.8808 115.558 30.3785C115.558 31.8573 115.886 33.0086 116.541 33.8323C117.196 34.6372 118.086 35.0397 119.208 35.0397C120.8 35.0397 121.839 34.3283 122.325 32.9056H126.565C126.135 34.5904 125.283 35.9289 124.01 36.921C122.737 37.9132 121.146 38.4093 119.237 38.4093C117.739 38.4093 116.41 38.0817 115.249 37.4265C114.089 36.7525 113.181 35.8166 112.526 34.6185C111.871 33.4017 111.543 31.9884 111.543 30.3785Z"
            fill="#0D102B" />
        <path
            d="M136.351 38.4093C134.854 38.4093 133.506 38.0817 132.308 37.4265C131.11 36.7525 130.165 35.8072 129.472 34.5904C128.798 33.3736 128.461 31.9696 128.461 30.3785C128.461 28.7873 128.807 27.3833 129.5 26.1665C130.211 24.9497 131.175 24.0137 132.392 23.3585C133.609 22.6846 134.966 22.3477 136.463 22.3477C137.961 22.3477 139.318 22.6846 140.535 23.3585C141.752 24.0137 142.707 24.9497 143.399 26.1665C144.111 27.3833 144.466 28.7873 144.466 30.3785C144.466 31.9696 144.101 33.3736 143.371 34.5904C142.66 35.8072 141.686 36.7525 140.451 37.4265C139.234 38.0817 137.868 38.4093 136.351 38.4093ZM136.351 34.9835C137.063 34.9835 137.727 34.815 138.345 34.4781C138.981 34.1224 139.487 33.5983 139.861 32.9056C140.235 32.213 140.423 31.3706 140.423 30.3785C140.423 28.8996 140.03 27.767 139.243 26.9808C138.476 26.1758 137.531 25.7734 136.407 25.7734C135.284 25.7734 134.339 26.1758 133.571 26.9808C132.823 27.767 132.448 28.8996 132.448 30.3785C132.448 31.8573 132.813 32.9992 133.543 33.8042C134.292 34.5904 135.228 34.9835 136.351 34.9835Z"
            fill="#0D102B" />
        <path
            d="M151.283 25.0155C151.788 24.1918 152.444 23.5459 153.248 23.078C154.072 22.61 155.008 22.376 156.057 22.376V26.5037H155.018C153.782 26.5037 152.846 26.7939 152.209 27.3741C151.592 27.9545 151.283 28.9653 151.283 30.4067V38.1568H147.352V22.6006H151.283V25.0155Z"
            fill="#0D102B" />
        <path
            d="M162.634 25.0155C163.14 24.1918 163.795 23.5459 164.6 23.078C165.423 22.61 166.359 22.376 167.408 22.376V26.5037H166.369C165.133 26.5037 164.197 26.7939 163.561 27.3741C162.943 27.9545 162.634 28.9653 162.634 30.4067V38.1568H158.703V22.6006H162.634V25.0155Z"
            fill="#0D102B" />
        <path
            d="M184.519 30.0415C184.519 30.6031 184.481 31.1085 184.406 31.5578H173.034C173.128 32.681 173.521 33.5608 174.213 34.1973C174.906 34.8338 175.758 35.152 176.769 35.152C178.229 35.152 179.268 34.5249 179.885 33.2707H184.126C183.676 34.7682 182.815 36.0038 181.542 36.9772C180.269 37.9319 178.706 38.4093 176.853 38.4093C175.355 38.4093 174.008 38.0817 172.81 37.4265C171.63 36.7525 170.703 35.8072 170.03 34.5904C169.374 33.3736 169.047 31.9696 169.047 30.3785C169.047 28.7685 169.374 27.3552 170.03 26.1384C170.685 24.9216 171.602 23.9857 172.781 23.3305C173.961 22.6753 175.318 22.3477 176.853 22.3477C178.332 22.3477 179.651 22.6659 180.812 23.3024C181.991 23.9388 182.899 24.8468 183.536 26.0261C184.191 27.1867 184.519 28.5252 184.519 30.0415ZM180.447 28.9183C180.428 27.9075 180.063 27.1025 179.352 26.5034C178.641 25.8857 177.77 25.5768 176.741 25.5768C175.767 25.5768 174.943 25.8763 174.269 26.4753C173.614 27.0557 173.212 27.87 173.062 28.9183H180.447Z"
            fill="#0D102B" />
        <path d="M191.318 17.3779V38.1569H187.387V17.3779H191.318Z" fill="#0D102B" />
        <path
            d="M194.191 30.3223C194.191 28.7498 194.501 27.3552 195.118 26.1384C195.755 24.9216 196.606 23.9857 197.674 23.3305C198.759 22.6753 199.966 22.3477 201.296 22.3477C202.456 22.3477 203.467 22.5816 204.328 23.0496C205.208 23.5176 205.91 24.1073 206.434 24.8187V22.6004H210.394V38.1565H206.434V35.8821C205.929 36.6121 205.227 37.2206 204.328 37.7072C203.449 38.1753 202.428 38.4093 201.268 38.4093C199.957 38.4093 198.759 38.0723 197.674 37.3984C196.606 36.7245 195.755 35.7791 195.118 34.5623C194.501 33.3268 194.191 31.9135 194.191 30.3223ZM206.434 30.3785C206.434 29.4238 206.247 28.6094 205.873 27.9355C205.498 27.2429 204.993 26.7187 204.356 26.3631C203.72 25.9887 203.037 25.8015 202.306 25.8015C201.576 25.8015 200.902 25.9793 200.285 26.335C199.667 26.6907 199.162 27.2148 198.769 27.9075C198.394 28.5813 198.207 29.3863 198.207 30.3223C198.207 31.2583 198.394 32.082 198.769 32.7933C199.162 33.4859 199.667 34.0194 200.285 34.3939C200.921 34.7682 201.595 34.9555 202.306 34.9555C203.037 34.9555 203.72 34.7776 204.356 34.4219C204.993 34.0475 205.498 33.5234 205.873 32.8495C206.247 32.1568 206.434 31.3332 206.434 30.3785Z"
            fill="#0D102B" />
        <path
            d="M218.809 25.83V33.3554C218.809 33.8795 218.931 34.2632 219.174 34.5066C219.436 34.7313 219.866 34.8436 220.465 34.8436H222.29V38.157H219.82C216.506 38.157 214.849 36.5471 214.849 33.3273V25.83H212.996V22.6008H214.849V18.7539H218.809V22.6008H222.29V25.83H218.809Z"
            fill="#0D102B" />
        <path
            d="M239.581 30.0415C239.581 30.6031 239.544 31.1085 239.469 31.5578H228.096C228.19 32.681 228.583 33.5608 229.276 34.1973C229.969 34.8338 230.82 35.152 231.831 35.152C233.291 35.152 234.33 34.5249 234.948 33.2707H239.188C238.739 34.7682 237.877 36.0038 236.605 36.9772C235.332 37.9319 233.768 38.4093 231.916 38.4093C230.418 38.4093 229.07 38.0817 227.872 37.4265C226.693 36.7525 225.766 35.8072 225.092 34.5904C224.437 33.3736 224.109 31.9696 224.109 30.3785C224.109 28.7685 224.437 27.3552 225.092 26.1384C225.747 24.9216 226.664 23.9857 227.844 23.3305C229.023 22.6753 230.38 22.3477 231.916 22.3477C233.394 22.3477 234.714 22.6659 235.875 23.3024C237.054 23.9388 237.962 24.8468 238.598 26.0261C239.254 27.1867 239.581 28.5252 239.581 30.0415ZM235.51 28.9183C235.491 27.9075 235.126 27.1025 234.415 26.5034C233.703 25.8857 232.833 25.5768 231.803 25.5768C230.83 25.5768 230.006 25.8763 229.332 26.4753C228.677 27.0557 228.274 27.87 228.125 28.9183H235.51Z"
            fill="#0D102B" />
        <path
            d="M241.438 30.3227C241.438 28.7502 241.747 27.3556 242.364 26.1388C243.001 24.922 243.862 23.986 244.947 23.3308C246.033 22.6756 247.241 22.348 248.57 22.348C249.581 22.348 250.545 22.5727 251.462 23.022C252.379 23.4525 253.109 24.0328 253.652 24.7629V17.3779H257.64V38.1569H253.652V35.8544C253.165 36.6219 252.483 37.2396 251.602 37.7076C250.723 38.1756 249.703 38.4096 248.542 38.4096C247.231 38.4096 246.033 38.0727 244.947 37.3987C243.862 36.7249 243.001 35.7795 242.364 34.5627C241.747 33.3272 241.438 31.9139 241.438 30.3227ZM253.68 30.3788C253.68 29.4241 253.493 28.6098 253.119 27.9359C252.744 27.2433 252.239 26.7191 251.602 26.3634C250.966 25.9891 250.283 25.8018 249.552 25.8018C248.823 25.8018 248.149 25.9797 247.531 26.3353C246.913 26.691 246.408 27.2152 246.015 27.9078C245.64 28.5817 245.453 29.3867 245.453 30.3227C245.453 31.2587 245.64 32.0823 246.015 32.7937C246.408 33.4863 246.913 34.0198 247.531 34.3942C248.167 34.7686 248.841 34.9558 249.552 34.9558C250.283 34.9558 250.966 34.778 251.602 34.4223C252.239 34.0479 252.744 33.5238 253.119 32.8498C253.493 32.1572 253.68 31.3335 253.68 30.3788Z"
            fill="#0D102B" />
    </g>
    <defs>
        <clipPath id="clip0_4079_48999">
            <rect width="257" height="64.9983" fill="white" transform="translate(0.996094 0.392578)" />
        </clipPath>
    </defs>
</svg>