<svg viewBox="0 0 662 580" fill="none" xmlns="http://www.w3.org/2000/svg">
    <path
        d="M50 0v580M130 0v580M210 0v580M290 0v580M370 0v580M450 0v580M530 0v580M610 0v580M661 50H0M661 130H0M661 210H0M661 290H0M661 370H0M661 450H0M661 530H0"
        stroke="#F2F2F7" stroke-width="1.2" />
    <path fill="url(#paint0_linear)" d="M0 0h262v580H0z" />
    <path fill-rule="evenodd" clip-rule="evenodd"
        d="M630 17c0-6.627-5.373-12-12-12h-23.824c-6.627 0-12 5.373-12 12v23.824c0 6.627-5.372 12-12 12h-21.432c-6.628 0-12 5.372-12 12V101.4c0 6.627-5.373 12-12 12h-19.042c-6.627 0-12-5.373-12-12V77.577c0-6.628-5.372-12-12-12h-23.823c-6.628 0-12 5.372-12 12V101.4c0 6.627-5.373 12-12 12h-23.027c-6.628 0-12 5.372-12 12v133.818c0 6.627-5.373 12-12 12h-19.839c-6.627 0-12-5.373-12-12v-47.736c0-6.627-5.372-12-12-12H319.19c-6.628 0-12 5.373-12 12v44.548c0 6.627-5.373 12-12 12h-21.433c-6.627 0-12 5.372-12 12v52.518c0 6.627-5.373 12-12 12h-22.23c-6.627 0-12-5.373-12-12V213.875c0-6.628-5.372-12-12-12h-23.823c-6.628 0-12 5.372-12 11.999v118.675c0 6.627-5.373 12-12 12h-23.027c-6.628 0-12 5.372-12 12v46.938c0 6.628-5.373 12-12 12H45c-6.627 0-12 5.373-12 12v23.824c0 6.627 5.373 12 12 12h23.824c6.627 0 12 5.373 12 12v86.792c0 6.627 5.372 12 12 12h23.824c6.627 0 12-5.373 12-12V428.284c0-6.627 5.372-12 12-12h15.853c6.627 0 12-5.372 12-12V358.94c0-6.627 5.372-12 12-12h22.229c6.628 0 12 5.373 12 12v45.344c0 6.628 5.373 12 12 12h23.824c6.627 0 12-5.372 12-12v-47.735c0-6.628 5.373-12 12-12h23.027c6.627 0 12-5.373 12-12v-49.33c0-6.627 5.372-12 12-12h18.244c6.628 0 12 5.373 12 12v133.818c0 6.628-5.372 12-12 12h-23.027c-6.627 0-12 5.373-12 12v23.824c0 6.628 5.373 12 12 12h23.824c6.628 0 12-5.372 12-12v-22.23c0-6.627 5.373-12 12-12h23.027c6.627 0 12-5.372 12-12V284.813c0-6.627 5.372-12 12-12h23.027c6.627 0 12-5.373 12-12V125.401c0-6.628 5.372-12 12-12h18.244c6.627 0 12 5.372 12 12v23.823c0 6.628 5.372 12 12 12h23.824c6.627 0 12-5.372 12-12v-20.635c0-6.628 5.372-12 12-12h23.823c6.628 0 12-5.373 12-12V64.824c0-6.628 5.373-12 12-12H618c6.627 0 12-5.373 12-12V17zM350.231 77.577c0-6.628 5.373-12 12-12h23.824c6.627 0 12 5.372 12 12V101.4c0 6.627-5.373 12-12 12h-23.824c-6.627 0-12-5.373-12-12V77.577z"
        fill="#fff" />
    <path
        d="M339.825 271.219v1-1zm-18.244 0v-1 1zm-24 73.33v-1 1zm-23.027 0v1-1zm-47.027 0v-1 1zm22.23 0v-1 1zm117.256-73.33v-1 1zm19.839 0v-1 1zm24-157.818v1-1zm23.027 0v-1 1zm90.865 0v1-1zM594.176 6H618V4h-23.824v2zm-11 34.824V17h-2v23.824h2zm-34.432 13h21.432v-2h-21.432v2zm-11 47.577V64.824h-2V101.4h2zm-32.042 13h19.042v-2h-19.042v2zm-13-36.824V101.4h2V77.577h-2zm-34.823-11h23.823v-2h-23.823v2zm-11 34.824V77.577h-2V101.4h2zm-36.027 13h23.027v-2h-23.027v2zm-11 144.818V125.401h-2v133.818h2zm-32.839 13h19.839v-2h-19.839v2zm-13-60.736v47.736h2v-47.736h-2zm-34.823-11h23.823v-2H319.19v2zm-11 55.548v-44.548h-2v44.548h2zm-34.433 13h21.433v-2h-21.433v2zm-11 63.518v-52.518h-2v52.518h2zm-35.23 13h22.23v-2h-22.23v2zm-13-131.674v118.674h2V213.875h-2zm-34.823-11h23.823v-2h-23.823v2zm-11 129.674V213.874h-2v118.675h2zm-36.027 13h23.027v-2h-23.027v2zm-11 57.938v-46.938h-2v46.938h2zm-40.853 13h27.853v-2H80.824v2zm-35.824 0h35.824v-2H45v2zm-11 34.824v-23.824h-2v23.824h2zm34.824 11H45v2h23.824v-2zm13 99.792v-86.792h-2v86.792h2zm34.824 11H92.824v2h23.824v-2zm11-144.819v133.819h2V428.284h-2zm28.853-13h-15.853v2h15.853v-2zm11-56.344v45.344h2V358.94h-2zm35.229-13h-22.229v2h22.229v-2zm13 58.344V358.94h-2v45.344h2zm34.824 11H226.73v2h23.824v-2zm11-58.735v47.735h2v-47.735h-2zm36.027-13h-23.027v2h23.027v-2zm11-60.33v49.33h2v-49.33h-2zm31.244-13h-18.244v2h18.244v-2zm13 146.818V283.219h-2v133.818h2zm-36.027 13h23.027v-2h-23.027v2zm-11 34.824v-23.824h-2v23.824h2zm34.824 11h-23.824v2h23.824v-2zm11-33.23v22.23h2v-22.23h-2zm36.027-13h-23.027v2h23.027v-2zm11-144.818v133.818h2V284.813h-2zm36.027-13h-23.027v2h23.027v-2zm11-146.412v135.412h2V125.401h-2zm31.244-13h-18.244v2h18.244v-2zm13 36.823v-23.823h-2v23.823h2zm34.824 11H500.92v2h23.824v-2zm11-31.635v20.635h2v-20.635h-2zm36.823-13h-23.823v2h23.823v-2zm11-50.765v39.765h2V64.824h-2zm34.433-13h-21.433v2H618v-2zM629 17v23.824h2V17h-2zM386.055 64.577h-23.824v2h23.824v-2zm13 36.824V77.577h-2V101.4h2zm-36.824 13h23.824v-2h-23.824v2zm-13-36.824V101.4h2V77.577h-2zm13 34.824c-6.075 0-11-4.925-11-11h-2c0 7.179 5.82 13 13 13v-2zm34.824-11c0 6.075-4.925 11-11 11v2c7.179 0 13-5.821 13-13h-2zm-34.824-36.824c-7.18 0-13 5.82-13 13h2c0-6.075 4.925-11 11-11v-2zm23.824 2c6.075 0 11 4.925 11 11h2c0-7.18-5.821-13-13-13v2zM618 53.824c7.18 0 13-5.82 13-13h-2c0 6.075-4.925 11-11 11v2zm-32.433 11c0-6.075 4.925-11 11-11v-2c-7.179 0-13 5.82-13 13h2zm-13 52.765c7.18 0 13-5.821 13-13h-2c0 6.075-4.924 11-11 11v2zm-34.823 11c0-6.075 4.925-11 11-11v-2c-7.18 0-13 5.82-13 13h2zm-13 33.635c7.179 0 13-5.82 13-13h-2c0 6.075-4.925 11-11 11v2zm-36.824-13c0 7.18 5.82 13 13 13v-2c-6.075 0-11-4.925-11-11h-2zm-11-34.823c6.075 0 11 4.924 11 11h2c0-7.18-5.82-13-13-13v2zm-42.244 159.412c7.179 0 13-5.82 13-13h-2c0 6.075-4.925 11-11 11v2zm-34.027 11c0-6.075 4.925-11 11-11v-2c-7.18 0-13 5.82-13 13h2zm-13 146.818c7.18 0 13-5.82 13-13h-2c0 6.076-4.925 11-11 11v2zm-34.027 11c0-6.075 4.925-11 11-11v-2c-7.18 0-13 5.821-13 13h2zm-13 35.23c7.18 0 13-5.82 13-13h-2c0 6.075-4.925 11-11 11v2zm-36.824-13c0 7.18 5.821 13 13 13v-2c-6.075 0-11-4.925-11-11h-2zm13-36.824c-7.179 0-13 5.821-13 13h2c0-6.075 4.925-11 11-11v-2zm34.027-11c0 6.076-4.925 11-11 11v2c7.18 0 13-5.82 13-13h-2zm-11-144.818c6.075 0 11 4.925 11 11h2c0-7.18-5.82-13-13-13v2zm-29.244 11c0-6.075 4.925-11 11-11v-2c-7.18 0-13 5.82-13 13h2zm-13 62.33c7.179 0 13-5.821 13-13h-2c0 6.075-4.925 11-11 11v2zm-34.027 11c0-6.075 4.925-11 11-11v-2c-7.18 0-13 5.82-13 13h2zm-13 60.735c7.18 0 13-5.82 13-13h-2c0 6.076-4.925 11-11 11v2zm-36.824-13c0 7.18 5.821 13 13 13v-2c-6.075 0-11-4.924-11-11h-2zm-11-56.344c6.075 0 11 4.925 11 11h2c0-7.18-5.82-13-13-13v2zm-33.229 11c0-6.075 4.925-11 11-11v-2c-7.18 0-13 5.82-13 13h2zm-13 58.344c7.179 0 13-5.82 13-13h-2c0 6.076-4.925 11-11 11v2zm-26.853 11c0-6.075 4.924-11 11-11v-2c-7.18 0-13 5.821-13 13h2zm-13 146.819c7.179 0 13-5.821 13-13h-2c0 6.075-4.925 11-11 11v2zm-36.824-13c0 7.179 5.82 13 13 13v-2c-6.075 0-11-4.925-11-11h-2zm-11-97.792c6.075 0 11 4.925 11 11h2c0-7.18-5.82-13-13-13v2zm-36.824-13c0 7.18 5.82 13 13 13v-2c-6.075 0-11-4.925-11-11h-2zm13-36.824c-7.18 0-13 5.821-13 13h2c0-6.075 4.925-11 11-11v-2zm74.677-11c0 6.075-4.925 11-11 11v2c7.18 0 13-5.82 13-13h-2zm13-59.938c-7.18 0-13 5.82-13 13h2c0-6.075 4.925-11 11-11v-2zm34.027-11c0 6.075-4.925 11-11 11v2c7.179 0 13-5.821 13-13h-2zm13-131.674c-7.18 0-13 5.82-13 12.999h2c0-6.075 4.924-10.999 11-10.999v-2zm36.823 13c0-7.18-5.82-13-13-13v2c6.075 0 11 4.924 11 11h2zm11 129.674c-6.075 0-11-4.925-11-11h-2c0 7.179 5.821 13 13 13v-2zm33.23-11c0 6.075-4.925 11-11 11v2c7.18 0 13-5.821 13-13h-2zm13-65.518c-7.18 0-13 5.82-13 13h2c0-6.075 4.925-11 11-11v-2zm32.433-11c0 6.075-4.925 11-11 11v2c7.179 0 13-5.821 13-13h-2zm13-57.548c-7.18 0-13 5.821-13 13h2c0-6.075 4.924-11 11-11v-2zm36.823 13c0-7.179-5.82-13-13-13v2c6.075 0 11 4.925 11 11h2zm11 58.736c-6.075 0-11-4.925-11-11h-2c0 7.18 5.821 13 13 13v-2zm30.839-11c0 6.075-4.925 11-11 11v2c7.18 0 13-5.82 13-13h-2zm13-146.818c-7.18 0-13 5.82-13 13h2c0-6.076 4.925-11 11-11v-2zm34.027-11c0 6.075-4.925 11-11 11v2c7.179 0 13-5.821 13-13h-2zm13-36.824c-7.18 0-13 5.82-13 13h2c0-6.075 4.924-11 11-11v-2zm36.823 13c0-7.18-5.82-13-13-13v2c6.075 0 11 4.925 11 11h2zm11 34.824c-6.075 0-11-4.925-11-11h-2c0 7.179 5.821 13 13 13v-2zm30.042-11c0 6.075-4.925 11-11 11v2c7.179 0 13-5.821 13-13h-2zm13-49.577c-7.18 0-13 5.82-13 13h2c0-6.075 4.925-11 11-11v-2zm32.432-11c0 6.075-4.925 11-11 11v2c7.18 0 13-5.82 13-13h-2zM618 6c6.075 0 11 4.925 11 11h2c0-7.18-5.82-13-13-13v2zM447.676 125.401c0-6.076 4.924-11 11-11v-2c-7.18 0-13 5.82-13 13h2zM594.176 4c-7.179 0-13 5.82-13 13h2c0-6.075 4.925-11 11-11V4z"
        fill="#F04405" />
    <defs>
        <linearGradient id="paint0_linear" x1="0" y1="290" x2="228.388" y2="290" gradientUnits="userSpaceOnUse">
            <stop stop-color="#fff" />
            <stop offset="1" stop-color="#fff" stop-opacity="0" />
        </linearGradient>
    </defs>
</svg>