<svg viewBox="0 0 320 227" fill="none" xmlns="http://www.w3.org/2000/svg">
    <g clip-path="url(#clip0)">
        <path
            d="M40.413-11v348.804M89.757-11v348.804M139.101-11v348.804M188.445-11v348.804M237.789-11v348.804M287.133-11v348.804M358.517 19.07H-39M358.517 68.413H-39M358.517 117.757H-39M358.517 167.101H-39M358.517 216.445H-39"
            stroke="#F2F2F7" stroke-width="1.2" />
        <mask id="a" fill="#fff">
            <path fill-rule="evenodd" clip-rule="evenodd"
                d="M244.489 21.035A9.036 9.036 0 01253.525 12h18.425a9.035 9.035 0 019.035 9.035v17.938a9.035 9.035 0 01-9.035 9.035h-16.137a9.035 9.035 0 00-9.035 9.035v29.941a9.035 9.035 0 01-9.035 9.035h-16.38a9.035 9.035 0 00-9.035 9.035v15.538a9.036 9.036 0 01-9.036 9.035h-18.425a9.035 9.035 0 01-9.035-9.035v-16.019a9.035 9.035 0 00-9.035-9.035h-13.513a9.035 9.035 0 00-9.035 9.035v64.745a9.036 9.036 0 01-9.036 9.035h-18.425a9.035 9.035 0 01-9.035-9.035v-66.804a9.035 9.035 0 019.035-9.035h17.601a9.035 9.035 0 009.035-9.035v-15.88a9.035 9.035 0 019.035-9.035h18.426a9.035 9.035 0 019.035 9.036v16.019a9.035 9.035 0 009.035 9.035h12.292a9.035 9.035 0 009.035-9.035v-27.54a9.035 9.035 0 019.035-9.036h16.137a9.035 9.035 0 009.035-9.035V21.035zm-174.64 47.53a9.035 9.035 0 019.036-9.036H97.31a9.035 9.035 0 019.035 9.036v17.937a9.035 9.035 0 01-9.035 9.036H78.885a9.035 9.035 0 01-9.035-9.036V68.565zm5.647 117.974a9.035 9.035 0 00-9.035-9.035H48.035A9.035 9.035 0 0039 186.539v18.426A9.035 9.035 0 0048.035 214h18.426a9.035 9.035 0 009.035-9.035v-18.426z" />
        </mask>
        <path fill-rule="evenodd" clip-rule="evenodd"
            d="M244.489 21.035A9.036 9.036 0 01253.525 12h18.425a9.035 9.035 0 019.035 9.035v17.938a9.035 9.035 0 01-9.035 9.035h-16.137a9.035 9.035 0 00-9.035 9.035v29.941a9.035 9.035 0 01-9.035 9.035h-16.38a9.035 9.035 0 00-9.035 9.035v15.538a9.036 9.036 0 01-9.036 9.035h-18.425a9.035 9.035 0 01-9.035-9.035v-16.019a9.035 9.035 0 00-9.035-9.035h-13.513a9.035 9.035 0 00-9.035 9.035v64.745a9.036 9.036 0 01-9.036 9.035h-18.425a9.035 9.035 0 01-9.035-9.035v-66.804a9.035 9.035 0 019.035-9.035h17.601a9.035 9.035 0 009.035-9.035v-15.88a9.035 9.035 0 019.035-9.035h18.426a9.035 9.035 0 019.035 9.036v16.019a9.035 9.035 0 009.035 9.035h12.292a9.035 9.035 0 009.035-9.035v-27.54a9.035 9.035 0 019.035-9.036h16.137a9.035 9.035 0 009.035-9.035V21.035zm-174.64 47.53a9.035 9.035 0 019.036-9.036H97.31a9.035 9.035 0 019.035 9.036v17.937a9.035 9.035 0 01-9.035 9.036H78.885a9.035 9.035 0 01-9.035-9.036V68.565zm5.647 117.974a9.035 9.035 0 00-9.035-9.035H48.035A9.035 9.035 0 0039 186.539v18.426A9.035 9.035 0 0048.035 214h18.426a9.035 9.035 0 009.035-9.035v-18.426z"
            fill="#fff" />
        <path
            d="M235.454 48.008v1.6-1.6zm36.496 0v1.6-1.6zm0-37.608h-18.425v3.2h18.425v-3.2zm10.635 28.573V21.035h-3.2v17.938h3.2zm-26.772 10.635h16.137v-3.2h-16.137v3.2zm-7.435 37.376v-29.94h-3.2v29.94h3.2zm-27.015 10.635h16.38v-3.2h-16.38v3.2zm-10.635 7.435v15.538h3.2v-15.538h-3.2zm-7.436 22.973h-18.425v3.2h18.425v-3.2zm-25.86-7.435v-16.019h-3.2v16.019h3.2zm-10.635-26.654h-13.513v3.2h13.513v-3.2zm-24.148 10.635v64.745h3.2v-64.745h-3.2zm-7.436 72.18h-18.425v3.2h18.425v-3.2zm-25.86-7.435v-66.804h-3.2v66.804h3.2zm7.435-74.239h17.601v-3.2h-17.601v3.2zm28.236-10.635v-15.88h-3.2v15.88h3.2zm7.435-23.315h18.426v-3.2h-18.426v3.2zm25.861 7.436v16.019h3.2v-16.02h-3.2zm10.635 26.654h12.292v-3.2h-12.292v3.2zm19.727-38.175v27.54h3.2v-27.54h-3.2zm26.772-10.636h-16.137v3.2h16.137v-3.2zm7.435-25.373v17.938h3.2V21.035h-3.2zM97.31 57.93H78.885v3.2H97.31v-3.2zm10.635 28.573V68.565h-3.2v17.937h3.2zm-29.06 10.636H97.31v-3.2H78.885v3.2zM68.25 68.565v17.937h3.2V68.565h-3.2zM48.035 179.104h18.426v-3.2H48.035v3.2zM40.6 204.965v-18.426h-3.2v18.426h3.2zm25.86 7.435H48.036v3.2h18.426v-3.2zm7.436-25.861v18.426h3.2v-18.426h-3.2zM66.46 215.6c5.873 0 10.635-4.762 10.635-10.635h-3.2a7.435 7.435 0 01-7.435 7.435v3.2zM37.4 204.965c0 5.873 4.762 10.635 10.635 10.635v-3.2a7.435 7.435 0 01-7.435-7.435h-3.2zm29.06-25.861a7.435 7.435 0 017.436 7.435h3.2c0-5.873-4.762-10.635-10.635-10.635v3.2zm-18.425-3.2c-5.873 0-10.635 4.762-10.635 10.635h3.2a7.435 7.435 0 017.435-7.435v-3.2zm30.85-81.966a7.435 7.435 0 01-7.435-7.436h-3.2c0 5.874 4.761 10.636 10.635 10.636v-3.2zm25.86-7.436a7.435 7.435 0 01-7.435 7.436v3.2c5.874 0 10.635-4.762 10.635-10.636h-3.2zM78.885 57.93c-5.874 0-10.635 4.762-10.635 10.636h3.2a7.435 7.435 0 017.435-7.436v-3.2zm18.425 3.2a7.435 7.435 0 017.435 7.436h3.2c0-5.874-4.761-10.636-10.635-10.636v3.2zm138.144-11.52c5.874 0 10.635-4.762 10.635-10.636h-3.2a7.435 7.435 0 01-7.435 7.435v3.2zm-23.572 7.434a7.435 7.435 0 017.435-7.435v-3.2c-5.873 0-10.635 4.762-10.635 10.636h3.2zM201.247 95.22c5.874 0 10.635-4.762 10.635-10.635h-3.2a7.435 7.435 0 01-7.435 7.435v3.2zM178.32 84.584c0 5.873 4.761 10.635 10.635 10.635v-3.2a7.435 7.435 0 01-7.435-7.435h-3.2zm-7.435-23.455a7.435 7.435 0 017.435 7.436h3.2c0-5.874-4.762-10.636-10.635-10.636v3.2zm-25.861 7.436a7.435 7.435 0 017.435-7.436v-3.2c-5.873 0-10.635 4.762-10.635 10.636h3.2zm-10.635 26.514c5.873 0 10.635-4.762 10.635-10.635h-3.2a7.435 7.435 0 01-7.435 7.435v3.2zm-25.036 7.435a7.435 7.435 0 017.435-7.435v-3.2c-5.874 0-10.635 4.761-10.635 10.635h3.2zm7.435 74.239a7.435 7.435 0 01-7.435-7.435h-3.2c0 5.873 4.761 10.635 10.635 10.635v-3.2zm25.861-7.435a7.436 7.436 0 01-7.436 7.435v3.2c5.874 0 10.636-4.762 10.636-10.635h-3.2zm10.635-75.38c-5.874 0-10.635 4.761-10.635 10.635h3.2a7.436 7.436 0 017.435-7.435v-3.2zm24.148 10.635c0-5.874-4.762-10.635-10.635-10.635v3.2a7.436 7.436 0 017.435 7.435h3.2zm7.435 23.454a7.435 7.435 0 01-7.435-7.435h-3.2c0 5.874 4.761 10.635 10.635 10.635v-3.2zm25.861-7.435a7.436 7.436 0 01-7.436 7.435v3.2c5.874 0 10.636-4.761 10.636-10.635h-3.2zm10.635-26.173c-5.874 0-10.635 4.762-10.635 10.635h3.2a7.435 7.435 0 017.435-7.435v-3.2zm23.815-7.435a7.435 7.435 0 01-7.435 7.435v3.2c5.873 0 10.635-4.761 10.635-10.635h-3.2zm10.635-40.576c-5.874 0-10.635 4.762-10.635 10.636h3.2a7.435 7.435 0 017.435-7.436v-3.2zm23.572-7.435a7.435 7.435 0 01-7.435 7.435v3.2c5.874 0 10.635-4.761 10.635-10.635h-3.2zM253.525 10.4c-5.874 0-10.636 4.762-10.636 10.635h3.2a7.435 7.435 0 017.436-7.435v-3.2zm18.425 3.2a7.435 7.435 0 017.435 7.435h3.2c0-5.873-4.761-10.635-10.635-10.635v3.2z"
            fill="#F04405" mask="url(#a)" />
    </g>
    <defs>
        <clipPath id="clip0">
            <path fill="#fff" d="M0 0h320v227H0z" />
        </clipPath>
    </defs>
</svg>