<svg xmlns="http://www.w3.org/2000/svg" fill="none" viewBox="0 0 296 201">
    <path fill="#FFF1EC" d="M0 6.415a6 6 0 0 1 6-6h284a6 6 0 0 1 6 6v194H0v-194Z" />
    <path fill="#FA7545" fill-rule="evenodd"
        d="M67.746 86.713c2.703-1.368 6.03-2.308 9.609-2.308 3.396 0 6.84.897 9.55 2.269a.972.972 0 0 1-.877 1.734c-2.45-1.24-5.595-2.06-8.673-2.06-3.243 0-6.273.854-8.731 2.099a.972.972 0 1 1-.878-1.734Zm1.69 2.962C71.78 88.581 74.794 88 77.344 88c2.553 0 5.491.583 7.833 1.676 2.608 1.218 4.793 2.986 6.292 5.067a.972.972 0 0 1-1.578 1.136c-1.284-1.784-3.196-3.35-5.536-4.442-2.057-.96-4.71-1.493-7.011-1.493-2.306 0-5.032.534-7.086 1.493-2.239 1.045-4.245 2.726-5.496 4.477a.972.972 0 0 1-1.58-1.13c1.454-2.036 3.727-3.928 6.254-5.108Zm7.784 1.842c5.005-.048 9.372 2.529 11.588 6.231 1.163 1.944 1.568 3.897 1.568 5.563 0 2.836-2.59 4.605-4.914 4.605-1.164 0-2.401-.312-3.382-1.059-1.01-.771-1.677-1.954-1.725-3.517-.028-.936-.456-1.555-1.044-1.97-.62-.438-1.421-.643-2.082-.643-1.797 0-3.048 1.322-3.048 2.584 0 1.052.33 2.53.766 3.508.442.992 1.234 2.146 2.007 2.845l.009.008.009.009c1.264 1.204 2.845 2.277 5.163 2.805a.971.971 0 1 1-.432 1.894c-2.727-.621-4.606-1.899-6.063-3.284-1-.909-1.936-2.293-2.468-3.486-.539-1.21-.934-2.956-.934-4.299 0-2.526 2.322-4.528 4.991-4.528 1.002 0 2.21.297 3.204 1 1.026.725 1.816 1.883 1.864 3.498.03.989.426 1.622.962 2.03.565.432 1.358.661 2.203.661 1.543 0 2.97-1.168 2.97-2.661 0-1.35-.326-2.952-1.291-4.565-1.852-3.094-5.568-5.328-9.902-5.286-3.761.036-7.76 1.812-9.804 5.246a8.957 8.957 0 0 0-1.255 4.885c.073 2.406.424 3.416 1.058 5.097a.971.971 0 1 1-1.817.687c-.68-1.798-1.102-3.03-1.184-5.726a10.9 10.9 0 0 1 1.528-5.937c2.466-4.142 7.176-6.154 11.455-6.195Zm-8.963 11.63c.005-4.48 4.317-7.997 8.972-7.997 4.63 0 9.127 3.188 9.127 8.277a.971.971 0 0 1-1.943 0c0-3.724-3.31-6.334-7.184-6.334-3.844 0-7.029 2.894-7.029 6.063v.018c-.032 1.768.249 3.456 1.17 5.261a13.23 13.23 0 0 0 3.1 4.003.971.971 0 1 1-1.284 1.458 15.165 15.165 0 0 1-3.548-4.578c-1.088-2.134-1.417-4.144-1.381-6.171Zm8.972-.808c.537 0 .972.435.972.972 0 1.049.288 2.043.836 2.992.527.914 1.214 1.572 2.155 2.143 1.371.748 2.312 1.003 3.743.967H84.948a11.819 11.819 0 0 0 1.751-.145.971.971 0 1 1 .334 1.914 13.7 13.7 0 0 1-2.055.174c-1.826.045-3.104-.322-4.736-1.215l-.018-.01-.018-.01c-1.188-.717-2.133-1.601-2.852-2.846-.701-1.213-1.096-2.54-1.096-3.964 0-.537.435-.972.971-.972Z"
        clip-rule="evenodd" />
    <path fill="#141415"
        d="M101.413 98.535h5.874v1.988h-5.874v6.643h-2.621v-15.59h9.579l-.271 1.988h-6.687v4.97ZM115.344 89.385c.482 0 .874.158 1.175.474.316.301.474.678.474 1.13 0 .452-.158.828-.474 1.13-.301.3-.693.451-1.175.451-.497 0-.896-.15-1.198-.452-.301-.3-.451-.677-.451-1.13 0-.466.15-.85.451-1.151.317-.302.716-.452 1.198-.452Zm1.74 15.928h3.253v1.853h-9.331v-1.853h3.547v-8.224h-3.434v-1.853h5.965v10.077ZM123.22 95.236h2.192l.181 1.56a5.073 5.073 0 0 1 1.739-1.379 4.78 4.78 0 0 1 2.124-.497c1.1 0 1.928.309 2.485.926.558.618.836 1.492.836 2.621v8.699h-2.53v-7.434c0-.738-.045-1.302-.136-1.694-.075-.407-.233-.7-.474-.881-.241-.196-.603-.294-1.085-.294-.542 0-1.062.166-1.559.497a4.863 4.863 0 0 0-1.242 1.243v8.563h-2.531v-11.93ZM146.573 95.824c-.437.15-.934.256-1.491.316-.542.045-1.198.068-1.966.068.723.331 1.265.745 1.627 1.242.361.498.542 1.1.542 1.808 0 .783-.196 1.476-.587 2.079-.377.602-.919 1.076-1.627 1.423-.708.346-1.544.52-2.508.52-.678 0-1.22-.068-1.627-.204a1.249 1.249 0 0 0-.384.452 1.12 1.12 0 0 0-.135.542c0 .603.489.904 1.468.904h2.079c.843 0 1.597.143 2.259.429.663.287 1.175.686 1.537 1.198.376.497.565 1.062.565 1.694 0 1.19-.513 2.109-1.537 2.757-1.024.662-2.5.994-4.428.994-1.341 0-2.403-.143-3.186-.429-.768-.272-1.318-.678-1.649-1.221-.316-.527-.475-1.212-.475-2.056h2.26c0 .452.083.806.248 1.062.181.272.49.467.927.588.436.135 1.069.203 1.897.203 1.205 0 2.071-.15 2.599-.452.527-.286.79-.715.79-1.288 0-.482-.21-.858-.632-1.129-.407-.256-.964-.384-1.672-.384h-2.056c-1.07 0-1.883-.219-2.44-.656-.542-.436-.814-.986-.814-1.649 0-.407.113-.798.339-1.175.226-.376.55-.7.972-.971-.708-.377-1.228-.829-1.559-1.356-.316-.542-.475-1.205-.475-1.988 0-.828.211-1.559.633-2.192.422-.647 1.009-1.144 1.762-1.49.753-.362 1.612-.543 2.576-.543 1.295.015 2.32-.075 3.073-.271a12.698 12.698 0 0 0 2.44-.927l.655 2.102Zm-6.145.858c-.799 0-1.401.226-1.808.678-.407.437-.61 1.032-.61 1.785 0 .768.203 1.378.61 1.83.422.437 1.032.655 1.83.655.753 0 1.326-.218 1.717-.655.392-.437.588-1.062.588-1.875 0-1.612-.776-2.418-2.327-2.418ZM150.608 102.014c.076 1.16.407 2.034.995 2.621.602.573 1.355.859 2.259.859.557 0 1.084-.083 1.581-.249a7.206 7.206 0 0 0 1.559-.791l1.085 1.537a6.062 6.062 0 0 1-1.966 1.084 7.32 7.32 0 0 1-2.372.384c-1.823 0-3.238-.564-4.248-1.694-1.009-1.145-1.513-2.666-1.513-4.564 0-1.19.218-2.26.655-3.208.437-.964 1.069-1.717 1.898-2.26.828-.542 1.792-.813 2.892-.813 1.581 0 2.831.535 3.75 1.604.934 1.055 1.401 2.508 1.401 4.361 0 .452-.023.828-.068 1.129h-7.908Zm2.847-5.219c-.813 0-1.476.294-1.988.881-.512.588-.806 1.461-.881 2.621h5.535c-.03-1.13-.271-1.995-.723-2.598-.452-.602-1.099-.904-1.943-.904ZM169.601 94.943c.617 0 1.22.097 1.807.293l-.429 4.406h-1.808v-2.44c-.828.015-1.551.346-2.169.994-.602.648-1.084 1.559-1.446 2.734v4.428h2.395v1.808h-6.687v-1.808h1.762v-8.314h-1.762v-1.808h3.682l.452 2.757c.467-1.024 1.032-1.785 1.695-2.282.678-.512 1.514-.768 2.508-.768ZM179.623 94.92c2.892 0 4.338 2.086 4.338 6.258 0 1.883-.399 3.404-1.197 4.564-.798 1.145-1.936 1.717-3.412 1.717-1.25 0-2.259-.436-3.027-1.31v5.603l-2.531.294v-16.81h2.192l.158 1.537c.452-.603.972-1.062 1.559-1.379a4.072 4.072 0 0 1 1.92-.474Zm-.7 1.943c-.527 0-1.009.158-1.446.475-.437.316-.821.73-1.152 1.242v5.581c.587.888 1.37 1.333 2.349 1.333.874 0 1.529-.347 1.966-1.04.437-.692.655-1.777.655-3.253 0-1.521-.196-2.62-.587-3.299-.392-.693-.987-1.039-1.785-1.039ZM194.888 94.943c.617 0 1.22.097 1.807.293l-.429 4.406h-1.808v-2.44c-.828.015-1.551.346-2.169.994-.602.648-1.084 1.559-1.445 2.734v4.428h2.394v1.808h-6.687v-1.808h1.762v-8.314h-1.762v-1.808h3.682l.452 2.757c.467-1.024 1.032-1.785 1.695-2.282.678-.512 1.514-.768 2.508-.768ZM203.849 89.385c.482 0 .873.158 1.174.474.317.301.475.678.475 1.13 0 .452-.158.828-.475 1.13-.301.3-.692.451-1.174.451-.498 0-.897-.15-1.198-.452a1.534 1.534 0 0 1-.452-1.13c0-.466.151-.85.452-1.151.316-.302.716-.452 1.198-.452Zm1.739 15.928h3.254v1.853h-9.331v-1.853h3.547v-8.224h-3.434v-1.853h5.964v10.077ZM211.725 95.236h2.191l.181 1.56a5.076 5.076 0 0 1 1.74-1.379 4.78 4.78 0 0 1 2.124-.497c1.099 0 1.928.309 2.485.926.557.618.836 1.492.836 2.621v8.699h-2.531v-7.434c0-.738-.045-1.302-.135-1.694-.076-.407-.234-.7-.475-.881-.241-.196-.602-.294-1.084-.294-.542 0-1.062.166-1.559.497a4.882 4.882 0 0 0-1.243 1.243v8.563h-2.53v-11.93ZM234.332 106.533a5.839 5.839 0 0 1-1.582.678 7.108 7.108 0 0 1-1.897.248c-1.356 0-2.403-.346-3.141-1.039-.738-.708-1.107-1.664-1.107-2.869v-6.462h-2.643v-1.853h2.643V92.57l2.531-.293v2.96h4.044l-.294 1.852h-3.75v6.439c0 .648.165 1.13.497 1.446.331.301.858.452 1.581.452a4.48 4.48 0 0 0 2.214-.565l.904 1.672Z" />
</svg>