<svg viewBox="0 0 80 80" fill="none" xmlns="http://www.w3.org/2000/svg">
    <rect width="80" height="80" rx="16" fill="#FF5D22" />
    <path
        d="M40.4978 22.9269C30.8356 22.9269 23 30.7644 23 40.4328C23 48.1657 28.0137 54.726 34.97 57.0429C35.845 57.2041 36.1644 56.6636 36.1644 56.1994C36.1644 55.7831 36.1491 54.6824 36.1403 53.2222C31.2731 54.2792 30.245 50.8748 30.245 50.8748C29.4509 48.8522 28.3025 48.3139 28.3025 48.3139C26.7122 47.2285 28.4206 47.2503 28.4206 47.2503C30.1772 47.3745 31.1003 49.0549 31.1003 49.0549C32.6622 51.7292 35.1975 50.9577 36.195 50.5087C36.3525 49.3775 36.8053 48.606 37.3063 48.1679C33.4213 47.7254 29.335 46.2237 29.335 39.5174C29.335 37.6059 30.0175 36.0432 31.1375 34.8183C30.9559 34.3759 30.3566 32.5952 31.3081 30.1869C31.3081 30.1869 32.7781 29.7161 36.1206 31.9806C37.5162 31.5926 39.0125 31.3987 40.5022 31.3921C41.9875 31.4008 43.4859 31.5926 44.8838 31.9828C48.2241 29.7183 49.6919 30.189 49.6919 30.189C50.6456 32.5996 50.0463 34.3781 49.8669 34.8205C50.9891 36.0454 51.665 37.6081 51.665 39.5195C51.665 46.2434 47.5744 47.7232 43.6763 48.157C44.3041 48.6975 44.8641 49.7655 44.8641 51.3979C44.8641 53.7387 44.8422 55.6262 44.8422 56.1994C44.8422 56.668 45.1572 57.2129 46.0453 57.0407C52.9906 54.7217 58 48.1635 58 40.4328C58 30.7644 50.1644 22.9269 40.4978 22.9269Z"
        fill="white" />
</svg>