<svg width="44" height="44" viewBox="0 0 44 44" fill="none" xmlns="http://www.w3.org/2000/svg">
    <rect width="44" height="44" rx="8" fill="#0D102B" />
    <path d="M31.5 22a9.5 9.5 0 11-19 0 9.5 9.5 0 0119 0z" stroke="#fff" />
    <path d="M26.5 22c0 5.247-2.015 9.5-4.5 9.5s-4.5-4.253-4.5-9.5 2.015-9.5 4.5-9.5 4.5 4.253 4.5 9.5z"
        stroke="#fff" />
    <path
        d="M29 15.5c-1.736.922-4.23 1.5-7 1.5-2.77 0-5.264-.578-7-1.5M29 28.5c-1.736-.922-4.23-1.5-7-1.5-2.77 0-5.264.578-7 1.5M12.5 22h19M22 12.5v19"
        stroke="#fff" />
</svg>