<svg viewBox="0 0 68 40" xmlns="http://www.w3.org/2000/svg">
    <g clip-path="url(#a)">
        <path
            d="M20.016 14.594c0 .813.088 1.472.242 1.956.177.483.397 1.01.705 1.582.11.176.154.352.154.505 0 .22-.132.44-.418.66l-1.388.923a1.058 1.058 0 0 1-.573.198c-.22 0-.44-.11-.66-.308a6.802 6.802 0 0 1-.794-1.033c-.22-.374-.44-.791-.683-1.297-1.718 2.022-3.878 3.033-6.477 3.033-1.851 0-3.327-.527-4.407-1.582-1.08-1.055-1.63-2.462-1.63-4.22 0-1.868.66-3.384 2.005-4.527C7.436 9.34 9.22 8.769 11.49 8.769c.749 0 1.52.066 2.335.176.815.11 1.652.286 2.534.484V7.824c0-1.67-.353-2.835-1.036-3.516-.705-.681-1.895-1.011-3.591-1.011-.771 0-1.564.088-2.38.286-.815.197-1.608.44-2.379.747a6.332 6.332 0 0 1-.771.286 1.355 1.355 0 0 1-.353.065c-.308 0-.462-.22-.462-.68V2.922c0-.351.044-.615.154-.769.11-.154.308-.308.617-.462.771-.395 1.696-.725 2.776-.989 1.08-.285 2.225-.417 3.437-.417 2.622 0 4.538.593 5.772 1.78 1.212 1.187 1.829 2.99 1.829 5.407v7.12h.044Zm-8.945 3.34c.727 0 1.476-.132 2.27-.395.792-.264 1.497-.748 2.092-1.407.353-.418.617-.88.75-1.407.132-.527.22-1.164.22-1.912v-.923a18.447 18.447 0 0 0-2.027-.373 16.644 16.644 0 0 0-2.071-.132c-1.476 0-2.556.286-3.283.879-.727.593-1.08 1.428-1.08 2.527 0 1.033.265 1.802.816 2.33.528.55 1.3.813 2.313.813Zm17.692 2.374c-.397 0-.661-.066-.838-.22-.176-.132-.33-.44-.462-.857L22.285 2.24c-.132-.439-.198-.724-.198-.878 0-.352.176-.55.529-.55h2.159c.418 0 .705.066.859.22.176.132.308.44.44.857l3.702 14.55 3.437-14.55c.11-.44.242-.725.419-.857.176-.132.484-.22.88-.22h1.763c.419 0 .705.066.882.22.176.132.33.44.418.857l3.481 14.726L44.868 1.89c.132-.44.286-.725.44-.857.177-.132.463-.22.86-.22h2.049c.352 0 .55.176.55.55 0 .11-.022.22-.044.351a3.12 3.12 0 0 1-.154.55l-5.31 16.989c-.132.44-.286.725-.462.857-.176.132-.463.22-.837.22h-1.895c-.419 0-.705-.066-.881-.22-.177-.154-.33-.44-.419-.88L35.35 5.056 31.957 19.21c-.11.44-.242.725-.418.879-.177.154-.485.22-.882.22h-1.894Zm28.31.593a14.61 14.61 0 0 1-3.392-.395c-1.102-.264-1.961-.55-2.534-.88-.353-.197-.595-.417-.683-.615a1.549 1.549 0 0 1-.132-.615v-1.121c0-.462.176-.681.506-.681.133 0 .265.021.397.066.132.043.33.131.55.22.75.329 1.565.593 2.424.768.882.176 1.74.264 2.622.264 1.388 0 2.468-.241 3.217-.725.749-.484 1.145-1.187 1.145-2.088 0-.615-.198-1.12-.594-1.538-.397-.418-1.146-.792-2.226-1.143l-3.194-.99c-1.609-.505-2.798-1.252-3.525-2.241-.727-.967-1.102-2.044-1.102-3.187 0-.923.198-1.736.595-2.44a5.655 5.655 0 0 1 1.586-1.802c.661-.505 1.41-.879 2.292-1.142.88-.264 1.806-.374 2.776-.374.484 0 .99.022 1.476.088.506.066.969.154 1.432.242.44.11.859.22 1.255.351.397.132.706.264.926.396.308.176.529.351.66.55.133.175.2.417.2.725v1.033c0 .461-.177.703-.508.703-.176 0-.462-.088-.837-.264-1.256-.571-2.666-.857-4.23-.857-1.256 0-2.247.198-2.93.615-.683.418-1.036 1.055-1.036 1.956 0 .616.22 1.143.661 1.56.44.418 1.256.836 2.424 1.21l3.128.989c1.587.505 2.732 1.208 3.415 2.11.683.9 1.014 1.934 1.014 3.076 0 .946-.199 1.803-.573 2.55a5.915 5.915 0 0 1-1.609 1.934c-.682.55-1.498.945-2.445 1.23a10.5 10.5 0 0 1-3.15.462Z" />
        <path fill-rule="evenodd" clip-rule="evenodd"
            d="M61.237 31.583c-7.248 5.34-17.78 8.176-26.835 8.176-12.69 0-24.124-4.682-32.76-12.462-.684-.615-.067-1.45.748-.967 9.342 5.407 20.864 8.681 32.784 8.681 8.041 0 16.876-1.67 25.006-5.099 1.211-.549 2.247.792 1.057 1.67Z" />
        <path fill-rule="evenodd" clip-rule="evenodd"
            d="M64.256 28.154c-.925-1.187-6.125-.571-8.482-.286-.705.088-.816-.527-.177-.989 4.142-2.9 10.95-2.066 11.743-1.099.793.99-.22 7.78-4.098 11.033-.594.506-1.167.242-.903-.417.881-2.176 2.842-7.077 1.917-8.242Z" />
    </g>
    <defs>
        <clipPath id="a">
            <path transform="translate(.98)" d="M0 0h66.977v40H0z" />
        </clipPath>
    </defs>
</svg>