<svg viewBox="0 0 108 40" xmlns="http://www.w3.org/2000/svg">
    <path
        d="M87.34 23.704c.295-.988.197-1.976-.297-2.568-.494-.593-1.185-.988-2.074-1.087l-17.185-.197c-.1 0-.198-.099-.297-.099-.098-.099-.098-.197 0-.296.1-.198.198-.296.395-.296l17.284-.198c2.074-.099 4.247-1.778 5.037-3.753l.988-2.568c0-.099.099-.197 0-.296-1.086-5.037-5.63-8.79-10.963-8.79-4.938 0-9.185 3.16-10.667 7.605a5.392 5.392 0 0 0-3.555-.988c-2.37.197-4.247 2.173-4.543 4.543-.1.593 0 1.185.098 1.778a7.212 7.212 0 0 0-7.012 7.21c0 .395 0 .691.099 1.086 0 .198.197.297.296.297h31.704c.197 0 .395-.1.395-.297l.296-1.086Zm5.431-11.062h-.493c-.1 0-.198.099-.297.198l-.691 2.37c-.297.988-.198 1.975.296 2.568s1.185.988 2.074 1.086l3.654.198c.1 0 .198.099.297.099.099.098.099.197 0 .296-.099.197-.198.296-.395.296l-3.753.198c-2.074.098-4.247 1.777-5.037 3.753l-.198.889c-.099.099 0 .296.198.296h13.037c.197 0 .296-.099.296-.296.197-.79.395-1.68.395-2.568 0-5.136-4.247-9.383-9.383-9.383Zm10.667 17.778a.885.885 0 0 1-.889-.889c0-.494.395-.889.889-.889s.889.395.889.889a.885.885 0 0 1-.889.889Zm0-1.58a.675.675 0 0 0-.691.691c0 .395.296.691.691.691a.675.675 0 0 0 .691-.691.675.675 0 0 0-.691-.691Zm.395 1.185h-.197l-.198-.296h-.198v.296h-.197v-.89h.494c.197 0 .296.1.296.297 0 .099-.099.198-.197.297l.197.296Zm-.296-.494c.099 0 .099 0 .099-.099 0-.098-.099-.098-.099-.098h-.297v.296l.297-.099Zm-88.593-.889h2.173v5.926h3.753v1.877h-5.926v-7.803Zm8.198 3.852c0-2.272 1.777-4.05 4.247-4.05 2.469 0 4.148 1.778 4.148 4.05s-1.778 4.05-4.247 4.05c-2.37 0-4.148-1.778-4.148-4.05Zm6.222 0c0-1.185-.79-2.173-1.975-2.173-1.186 0-1.976.988-1.976 2.074 0 1.087.79 2.074 1.976 2.074 1.185.198 1.975-.79 1.975-1.975Zm4.84.494v-4.346h2.172v4.346c0 1.086.593 1.679 1.482 1.679s1.481-.494 1.481-1.58v-4.445h2.173v4.346c0 2.568-1.481 3.654-3.654 3.654-2.272-.099-3.655-1.185-3.655-3.654Zm10.567-4.346h3.062c2.766 0 4.445 1.58 4.445 3.852s-1.68 3.95-4.445 3.95H44.87l-.099-7.802Zm3.062 5.827c1.284 0 2.173-.691 2.173-1.975 0-1.284-.889-1.975-2.173-1.975h-.889v3.95h.889Zm7.506-5.827h6.222v1.877h-4.049v1.284h3.654v1.777h-3.654v2.865H55.34v-7.803Zm9.284 0h2.173v5.926h3.753v1.877h-5.926v-7.803Zm11.556-.099h2.173l3.358 7.902h-2.37l-.593-1.383h-3.062l-.593 1.383h-2.271l3.358-7.902Zm1.975 4.84-.889-2.173-.889 2.173h1.778Zm6.321-4.74h3.654c1.185 0 1.976.295 2.568.888.494.494.692 1.086.692 1.778 0 1.185-.593 1.975-1.58 2.37l1.876 2.766h-2.47l-1.58-2.37h-.987v2.37h-2.173v-7.803Zm3.556 3.752c.69 0 1.185-.395 1.185-.889 0-.592-.494-.889-1.185-.889h-1.383v1.877h1.383v-.099Zm6.42-3.753h6.32v1.778h-4.148v1.185h3.753v1.778h-3.753v1.185h4.247v1.877h-6.42v-7.803Zm-84.248 4.84a1.951 1.951 0 0 1-1.777 1.185c-1.186 0-1.976-.988-1.976-2.074 0-1.087.79-2.074 1.976-2.074.889 0 1.58.592 1.876 1.284h2.272c-.395-1.877-1.976-3.26-4.148-3.26-2.37 0-4.247 1.778-4.247 4.05 0 2.271 1.777 4.05 4.148 4.05 2.074 0 3.654-1.384 4.148-3.161h-2.272Z" />
</svg>