<svg viewBox="0 0 93 40" xmlns="http://www.w3.org/2000/svg">
    <path
        d="M61.582 7.07V29.14h6.59v-3.372h-2.178V3.71h-4.413v3.361ZM4.356 25.767h2.24V15.12h-2.24v-2.928l2.24-.37V8.858c0-3.59.778-5.148 5.33-5.148.982 0 2.148.146 3.168.33l-.605 3.61c-.69-.11-1.034-.13-1.47-.13-1.604 0-2.01.16-2.01 1.737v2.565h3.33v3.298h-3.33v10.647h2.218v3.371l-8.87.001v-3.372ZM59.337 24.701c-.69.147-1.294.13-1.731.14-1.816.045-1.659-.555-1.659-2.277V15.12h3.456v-3.298h-3.456V3.71h-4.413v19.774c0 3.883.953 5.654 5.104 5.654.984 0 2.335-.254 3.355-.474l-.656-3.963ZM86.751 25.785c.928 0 1.679.741 1.679 1.674a1.67 1.67 0 0 1-1.679 1.674 1.667 1.667 0 0 1-1.674-1.674c0-.933.747-1.674 1.674-1.674Zm0 3.085c.77 0 1.398-.636 1.398-1.41 0-.776-.627-1.393-1.398-1.393-.77 0-1.393.617-1.393 1.392 0 .775.623 1.411 1.393 1.411Zm.31-.588-.338-.497h-.233v.497h-.376v-1.646h.685c.404 0 .656.206.656.57 0 .267-.133.45-.342.511l.409.565h-.462Zm-.571-.828h.3c.17 0 .285-.067.285-.248 0-.172-.114-.24-.276-.24h-.31v.488ZM46.025 15.114v-.59c-1.335-.245-2.66-.249-3.38-.249-2.053 0-2.304 1.096-2.304 1.69 0 .84.285 1.294 2.51 1.783 3.252.734 6.518 1.5 6.518 5.557 0 3.846-1.968 5.834-6.11 5.834-2.773 0-5.463-.599-7.515-1.123v-3.315h3.341l-.002.59c1.438.279 2.946.25 3.733.25 2.191 0 2.545-1.184 2.545-1.814 0-.874-.628-1.294-2.681-1.712-3.869-.665-6.939-1.994-6.939-5.946 0-3.742 2.488-5.21 6.63-5.21 2.807 0 4.941.438 6.995.963v3.292h-3.34ZM25.722 18.028l-.336-.338-1.706 1.495a.808.808 0 0 0-.274-.049c-.46 0-.833.386-.833.861 0 .476.373.862.833.862.46 0 .834-.386.834-.862a.889.889 0 0 0-.04-.259l1.522-1.71Z" />
    <path
        d="M32.482 24.701 32.48 10.89h-4.413v1.295a8.99 8.99 0 0 0-3-1.142h.024V9.51h.538V8.382h-4.443V9.51h.538v1.533h.031c-4.22.782-7.42 4.5-7.42 8.97 0 5.04 4.062 9.125 9.072 9.125 1.71 0 3.309-.477 4.674-1.304l.795 1.306h4.661V24.7h-1.055Zm-8.81-.01v-.521h-.53v.52c-2.368-.139-4.262-2.053-4.386-4.44h.526v-.531h-.523c.14-2.37 2.027-4.265 4.384-4.404v.523h.528v-.524c2.323.125 4.195 1.958 4.397 4.273v.152h-.53v.532h.53v.145c-.201 2.317-2.073 4.15-4.397 4.275ZM79.34 11.822h9.102v3.295h-2.175L80.685 28.93c-1.6 3.88-4.228 7.533-8.23 7.533-.983 0-2.293-.11-3.202-.33l.4-4.028c.582.11 1.346.182 1.746.182 1.856 0 3.95-1.157 4.604-3.17l-5.656-14h-2.175v-3.295h9.106v3.295h-2.175l3.204 7.93 3.204-7.93h-2.17v-3.295Z" />
</svg>