<svg viewBox="0 0 118 28" xmlns="http://www.w3.org/2000/svg">
    <path
        d="M59.165 7.456c-4.515 0-7.77 2.945-7.77 7.362s3.66 7.362 8.18 7.362c2.727 0 5.132-1.08 6.62-2.9l-3.128-1.808c-.826.904-2.082 1.432-3.492 1.432-1.96 0-3.624-1.023-4.242-2.659h11.46a7.4 7.4 0 0 0 .143-1.431c0-4.413-3.251-7.358-7.77-7.358Zm-3.865 5.93c.512-1.631 1.91-2.658 3.865-2.658 1.96 0 3.358 1.027 3.866 2.659H55.3Zm-.924-10.429L43.043 22.59 31.705 2.957h4.25l7.084 12.27 7.083-12.27h4.254ZM16.069.912l15.113 26.176H.957L16.069.912Zm67.309 13.906c0 2.454 1.603 4.09 4.09 4.09 1.685 0 2.949-.765 3.599-2.012l3.141 1.812c-1.3 2.167-3.738 3.472-6.74 3.472-4.52 0-7.77-2.945-7.77-7.362s3.255-7.362 7.77-7.362c3.002 0 5.435 1.305 6.74 3.472l-3.141 1.812c-.65-1.247-1.914-2.012-3.6-2.012-2.482 0-4.09 1.636-4.09 4.09Zm33.734-11.86V21.77h-3.681V2.957h3.681Zm-13.906 4.498c-4.515 0-7.77 2.945-7.77 7.362s3.664 7.362 8.179 7.362c2.728 0 5.133-1.08 6.622-2.9l-3.129-1.808c-.826.904-2.082 1.432-3.493 1.432-1.959 0-3.624-1.023-4.241-2.659h11.46c.09-.458.143-.932.143-1.431 0-4.413-3.251-7.358-7.771-7.358Zm-3.865 5.93c.511-1.631 1.906-2.658 3.865-2.658 1.959 0 3.358 1.027 3.865 2.659h-7.73ZM78.47 7.867v3.962a4.663 4.663 0 0 0-1.309-.2c-2.376 0-4.09 1.636-4.09 4.09v6.053h-3.68V7.865h3.68v3.763c0-2.078 2.417-3.763 5.399-3.763Z" />
    <defs>
        <clipPath id="a">
            <path transform="translate(.957 .912)" d="M0 0h116.168v26.176H0z" />
        </clipPath>
    </defs>
</svg>