<svg viewBox="0 0 319 201" fill="none" xmlns="http://www.w3.org/2000/svg">
    <mask id="mask0_1652_34261" style="mask-type:alpha" maskUnits="userSpaceOnUse" x="0" y="0" width="290" height="201">
        <path d="M0 7.99999C0 3.58171 3.58172 0 8 0H282C286.418 0 290 3.58172 290 8V200.056H0V7.99999Z"
            fill="#D9D9D9" />
    </mask>
    <g mask="url(#mask0_1652_34261)">
        <g filter="url(#filter0_dd_1652_34261)">
            <path
                d="M10.4019 112.78C11.4787 112.628 12.476 112.154 13.2494 111.429C14.0227 110.704 14.5319 109.764 14.703 108.747C18.9012 83.6751 38.1195 68.5774 60.529 68.5774C81.3397 68.5774 95.205 81.4739 100.716 95.0645C101.04 95.8711 101.584 96.5823 102.291 97.1265C102.999 97.6707 103.846 98.0285 104.747 98.1638C122.733 100.867 137.737 112.178 137.737 131.903C137.737 151.997 120.365 166.001 99.1329 166.001H15.4912C-2.20226 166.001 -16.6787 157.647 -16.6787 139.21C-16.6787 122.639 -2.55934 114.607 10.4019 112.78Z"
                fill="white" />
            <path
                d="M10.4633 113.216L10.4637 113.216C11.6276 113.051 12.7092 112.539 13.5504 111.75C14.3919 110.961 14.9494 109.935 15.1369 108.819L15.137 108.819C19.2999 83.9583 38.3359 69.0174 60.529 69.0174C81.1351 69.0174 94.8544 81.7803 100.308 95.2297C100.662 96.1108 101.255 96.8848 102.023 97.4753C102.791 98.066 103.708 98.4528 104.681 98.5989C113.607 99.9406 121.765 103.414 127.685 108.971C133.597 114.52 137.297 122.163 137.297 131.903C137.297 151.693 120.187 165.561 99.1329 165.561H15.4912C6.70595 165.561 -1.23287 163.486 -6.96403 159.168C-12.6783 154.863 -16.2387 148.298 -16.2387 139.21C-16.2387 131.066 -12.7762 125.035 -7.71658 120.803C-2.64497 116.561 4.04161 114.121 10.4633 113.216Z"
                stroke="url(#paint0_linear_1652_34261)" stroke-width="0.88" />
        </g>
        <g filter="url(#filter1_dd_1652_34261)">
            <path
                d="M162.508 51.2982C163.207 51.1989 163.855 50.8914 164.358 50.4201C164.86 49.9488 165.191 49.3383 165.302 48.6771C168.03 32.3871 180.517 22.5774 195.078 22.5774C208.599 22.5774 217.608 30.9568 221.189 39.7873C221.399 40.3114 221.753 40.7735 222.212 41.1271C222.672 41.4807 223.223 41.7132 223.808 41.8011C235.494 43.5577 245.243 50.9065 245.243 63.723C245.243 76.7788 233.956 85.8783 220.16 85.8783H165.814C154.318 85.8783 144.912 80.4502 144.912 68.4705C144.912 57.7035 154.086 52.4851 162.508 51.2982Z"
                fill="white" />
            <path
                d="M162.569 51.733L162.569 51.7329C163.356 51.6213 164.088 51.2751 164.658 50.7404C165.229 50.2053 165.608 49.5087 165.735 48.75L165.735 48.7497C168.428 32.6697 180.733 23.0165 195.078 23.0165C208.395 23.0165 217.258 31.2625 220.782 39.952C221.023 40.5505 221.425 41.0753 221.945 41.4752C222.465 41.8751 223.085 42.1365 223.743 42.2353C229.519 43.1036 234.788 45.3502 238.607 48.9347C242.418 52.5115 244.804 57.4374 244.804 63.723C244.804 76.4762 233.778 85.4392 220.16 85.4392H165.814C160.128 85.4392 155.006 84.0957 151.316 81.3161C147.644 78.5492 145.351 74.3304 145.351 68.4705C145.351 63.229 147.578 59.352 150.834 56.6286C154.101 53.8952 158.417 52.3182 162.569 51.733Z"
                stroke="url(#paint1_linear_1652_34261)" stroke-width="0.878214" />
        </g>
        <g filter="url(#filter2_dd_1652_34261)">
            <rect x="94.8496" y="64.5989" width="76.6675" height="42.5523" rx="4" fill="white" />
            <rect x="95.2887" y="65.038" width="75.7893" height="41.674" rx="3.56089"
                stroke="url(#paint2_linear_1652_34261)" stroke-width="0.878214" />
        </g>
        <path
            d="M123.614 94.5989L113.262 86.8882C112.725 86.4883 112.725 85.6841 113.262 85.2842L123.614 77.5735M140.757 94.5989L151.109 86.8882C151.646 86.4883 151.646 85.6841 151.109 85.2842L140.757 77.5735"
            fill="white" />
        <path
            d="M123.614 94.5989L113.262 86.8882C112.725 86.4883 112.725 85.6841 113.262 85.2842L123.614 77.5735M140.757 94.5989L151.109 86.8882C151.646 86.4883 151.646 85.6841 151.109 85.2842L140.757 77.5735"
            stroke="#FA7545" stroke-width="3" stroke-linecap="round" />
    </g>
    <defs>
        <filter id="filter0_dd_1652_34261" x="-39.7646" y="51.6477" width="200.587" height="143.596"
            filterUnits="userSpaceOnUse" color-interpolation-filters="sRGB">
            <feFlood flood-opacity="0" result="BackgroundImageFix" />
            <feColorMatrix in="SourceAlpha" type="matrix" values="0 0 0 0 0 0 0 0 0 0 0 0 0 0 0 0 0 0 127 0"
                result="hardAlpha" />
            <feOffset />
            <feGaussianBlur stdDeviation="0.769531" />
            <feComposite in2="hardAlpha" operator="out" />
            <feColorMatrix type="matrix" values="0 0 0 0 0.909804 0 0 0 0 0.909804 0 0 0 0 0.909804 0 0 0 0.35 0" />
            <feBlend mode="normal" in2="BackgroundImageFix" result="effect1_dropShadow_1652_34261" />
            <feColorMatrix in="SourceAlpha" type="matrix" values="0 0 0 0 0 0 0 0 0 0 0 0 0 0 0 0 0 0 127 0"
                result="hardAlpha" />
            <feOffset dy="6.15625" />
            <feGaussianBlur stdDeviation="11.543" />
            <feColorMatrix type="matrix" values="0 0 0 0 0.631373 0 0 0 0 0.631373 0 0 0 0 0.631373 0 0 0 0.15 0" />
            <feBlend mode="normal" in2="effect1_dropShadow_1652_34261" result="effect2_dropShadow_1652_34261" />
            <feBlend mode="normal" in="SourceGraphic" in2="effect2_dropShadow_1652_34261" result="shape" />
        </filter>
        <filter id="filter1_dd_1652_34261" x="129.912" y="11.5774" width="130.331" height="93.3008"
            filterUnits="userSpaceOnUse" color-interpolation-filters="sRGB">
            <feFlood flood-opacity="0" result="BackgroundImageFix" />
            <feColorMatrix in="SourceAlpha" type="matrix" values="0 0 0 0 0 0 0 0 0 0 0 0 0 0 0 0 0 0 127 0"
                result="hardAlpha" />
            <feOffset />
            <feGaussianBlur stdDeviation="0.5" />
            <feComposite in2="hardAlpha" operator="out" />
            <feColorMatrix type="matrix" values="0 0 0 0 0.909804 0 0 0 0 0.909804 0 0 0 0 0.909804 0 0 0 0.35 0" />
            <feBlend mode="normal" in2="BackgroundImageFix" result="effect1_dropShadow_1652_34261" />
            <feColorMatrix in="SourceAlpha" type="matrix" values="0 0 0 0 0 0 0 0 0 0 0 0 0 0 0 0 0 0 127 0"
                result="hardAlpha" />
            <feOffset dy="4" />
            <feGaussianBlur stdDeviation="7.5" />
            <feColorMatrix type="matrix" values="0 0 0 0 0.631373 0 0 0 0 0.631373 0 0 0 0 0.631373 0 0 0 0.15 0" />
            <feBlend mode="normal" in2="effect1_dropShadow_1652_34261" result="effect2_dropShadow_1652_34261" />
            <feBlend mode="normal" in="SourceGraphic" in2="effect2_dropShadow_1652_34261" result="shape" />
        </filter>
        <filter id="filter2_dd_1652_34261" x="79.8496" y="53.5989" width="106.668" height="72.5522"
            filterUnits="userSpaceOnUse" color-interpolation-filters="sRGB">
            <feFlood flood-opacity="0" result="BackgroundImageFix" />
            <feColorMatrix in="SourceAlpha" type="matrix" values="0 0 0 0 0 0 0 0 0 0 0 0 0 0 0 0 0 0 127 0"
                result="hardAlpha" />
            <feOffset />
            <feGaussianBlur stdDeviation="0.5" />
            <feComposite in2="hardAlpha" operator="out" />
            <feColorMatrix type="matrix" values="0 0 0 0 0.909804 0 0 0 0 0.909804 0 0 0 0 0.909804 0 0 0 0.35 0" />
            <feBlend mode="normal" in2="BackgroundImageFix" result="effect1_dropShadow_1652_34261" />
            <feColorMatrix in="SourceAlpha" type="matrix" values="0 0 0 0 0 0 0 0 0 0 0 0 0 0 0 0 0 0 127 0"
                result="hardAlpha" />
            <feOffset dy="4" />
            <feGaussianBlur stdDeviation="7.5" />
            <feColorMatrix type="matrix" values="0 0 0 0 0.631373 0 0 0 0 0.631373 0 0 0 0 0.631373 0 0 0 0.15 0" />
            <feBlend mode="normal" in2="effect1_dropShadow_1652_34261" result="effect2_dropShadow_1652_34261" />
            <feBlend mode="normal" in="SourceGraphic" in2="effect2_dropShadow_1652_34261" result="shape" />
        </filter>
        <linearGradient id="paint0_linear_1652_34261" x1="60.529" y1="68.5774" x2="60.529" y2="166.001"
            gradientUnits="userSpaceOnUse">
            <stop stop-color="#E8E8E8" />
            <stop offset="1" stop-color="#D0D0D0" />
        </linearGradient>
        <linearGradient id="paint1_linear_1652_34261" x1="195.078" y1="22.5774" x2="195.078" y2="85.8783"
            gradientUnits="userSpaceOnUse">
            <stop stop-color="#E8E8E8" />
            <stop offset="1" stop-color="#D0D0D0" />
        </linearGradient>
        <linearGradient id="paint2_linear_1652_34261" x1="133.183" y1="64.5989" x2="133.183" y2="107.151"
            gradientUnits="userSpaceOnUse">
            <stop stop-color="#E8E8E8" />
            <stop offset="1" stop-color="#D0D0D0" />
        </linearGradient>
    </defs>
</svg>