<svg xmlns="http://www.w3.org/2000/svg" fill="none" viewBox="0 0 48 48">
    <g clip-path="url(#a-apna)">
        <path fill="#5B5B5B" fill-opacity=".8"
            d="M9.57752.92578H37.7272a9.42336 9.42336 0 0 1 3.6071.717 9.42427 9.42427 0 0 1 3.058 2.04308 9.42274 9.42274 0 0 1 2.043 3.05798 9.4217 9.4217 0 0 1 .717 3.60716v28.1496a9.42148 9.42148 0 0 1-.717 3.6071 9.4225 9.4225 0 0 1-2.043 3.058 9.42336 9.42336 0 0 1-6.6651 2.7601H9.57752a9.42357 9.42357 0 0 1-6.6651-2.7601 9.4233 9.4233 0 0 1-2.04308-3.058 9.4233 9.4233 0 0 1-.717-3.6071V10.351A9.42352 9.42352 0 0 1 9.57752.92578Z"
            opacity=".8" />
        <path fill="#5B5B5B" fill-rule="evenodd"
            d="M37.7271 47.9258h-6.2417v-5.875h14.9753a9.42579 9.42579 0 0 1-3.4684 4.2685 9.42614 9.42614 0 0 1-5.2601 1.6065h-.0051ZM15.8188 42.0508v5.875H9.57623a9.4265 9.4265 0 0 1-5.26019-1.6065 9.42635 9.42635 0 0 1-3.46838-4.2685H15.8188Z"
            clip-rule="evenodd" opacity=".8" />
        <path fill="#434344" fill-rule="evenodd" d="M15.8193 42.0508h15.667v5.875h-15.667v-5.875Z" clip-rule="evenodd"
            opacity=".8" />
        <path fill="#fff"
            d="M13.0207 26.3226c-.0142.241.0266.4821.1191.705a.76341.76341 0 0 0 .4239.3475l-.679 2.1553a4.16638 4.16638 0 0 1-1.4939-.3475 2.25333 2.25333 0 0 1-.9501-.9081 3.05257 3.05257 0 0 1-1.19122 1.0263 3.05205 3.05205 0 0 1-1.54401.2972 2.96223 2.96223 0 0 1-2.16452-.8057 2.78247 2.78247 0 0 1-.62935-.9536 2.78276 2.78276 0 0 1-.19315-1.1261 2.65712 2.65712 0 0 1 .26283-1.2981 2.6575 2.6575 0 0 1 .85678-1.01 5.58495 5.58495 0 0 1 3.25894-.7973h.64457v-.2207a1.19873 1.19873 0 0 0-.04023-.4865 1.19885 1.19885 0 0 0-.23086-.43 1.6304 1.6304 0 0 0-1.03567-.2375 5.55017 5.55017 0 0 0-1.04408.1267 10.90657 10.90657 0 0 0-1.29837.3483l-.73018-2.1385a10.28744 10.28744 0 0 1 3.58207-.7126 4.75623 4.75623 0 0 1 3.10535.8225c.339.3209.6019.7135.7694 1.1492.1674.4357.2352.9034.1983 1.3687v3.1255h.0034Zm-4.28039.9165c.19998.0013.3966-.0514.56903-.1527a1.36851 1.36851 0 0 0 .43223-.3903v-1.3429h-.35585a1.7507 1.7507 0 0 0-1.05247.2518.91093.91093 0 0 0-.26668.3482.91115.91115 0 0 0-.07323.4323.8979.8979 0 0 0 .20395.6194.69037.69037 0 0 0 .24584.1754.69138.69138 0 0 0 .29718.0538v.005Zm11.47299-7.3857c.4972-.0271.9929.076 1.438.2992.4451.2231.8243.5586 1.1.9731.6301 1.078.9279 2.318.8561 3.5645a6.6763 6.6763 0 0 1-.449 2.5178 4.08855 4.08855 0 0 1-1.269 1.75 3.0085 3.0085 0 0 1-1.8926.6361 2.70729 2.70729 0 0 1-2.1041-.8997v4.0739l-3.3571.3357V20.1958h2.987l.136.8829a3.29102 3.29102 0 0 1 1.2094-.9332c.425-.1875.8841-.2855 1.3487-.2879l-.0034-.0042Zm-1.3202 7.3521c.8488 0 1.2732-.8202 1.2732-2.4608a6.9197 6.9197 0 0 0-.1359-1.5787 1.31198 1.31198 0 0 0-.3651-.7217.92752.92752 0 0 0-.5875-.178 1.37727 1.37727 0 0 0-1.1876.8486v3.4628c.1149.1933.2714.3584.4583.4835.1641.0975.3521.1475.543.1443h.0016Zm11.7249-7.3488c.3321-.0172.664.0376.973.1606.309.123.5877.3113.8172.552.4653.5597.6992 1.2761.6538 2.0025v6.6875h-3.3572v-6.0765a1.33401 1.33401 0 0 0-.1275-.6957.43373.43373 0 0 0-.1665-.1434.43328.43328 0 0 0-.2154-.043c-.3732 0-.7523.2997-1.1373.8989v6.0597H24.701v-9.0635h2.9375l.2384.9333a4.29637 4.29637 0 0 1 1.2807-.9669c.461-.2091.9626-.3134 1.4688-.3055h-.0084Zm11.6258 6.4625c-.0141.241.0264.4819.1183.705a.7646.7646 0 0 0 .4247.3475l-.679 2.1553a4.1617 4.1617 0 0 1-1.4939-.3475 2.25273 2.25273 0 0 1-.9501-.9081 3.05426 3.05426 0 0 1-1.1902 1.0255 3.0555 3.0555 0 0 1-1.5425.2981 2.96053 2.96053 0 0 1-1.1637-.1832 2.96087 2.96087 0 0 1-1-.6225 2.7841 2.7841 0 0 1-.6294-.9537 2.78379 2.78379 0 0 1-.1931-1.1261 2.65767 2.65767 0 0 1 .2628-1.2981c.1958-.4035.4905-.751.8568-1.0099a5.58314 5.58314 0 0 1 3.2581-.7973h.6454v-.2208a1.19472 1.19472 0 0 0-.0403-.4866 1.1954 1.1954 0 0 0-.2316-.4299 1.62778 1.62778 0 0 0-1.0348-.2375 5.54948 5.54948 0 0 0-1.0441.1267c-.4396.0893-.8732.2056-1.2984.3483l-.7302-2.1385a10.28078 10.28078 0 0 1 3.5813-.7125 4.75412 4.75412 0 0 1 3.1053.8225c.3391.3208.6019.7135.7694 1.1492.1674.4357.2352.9033.1983 1.3686l.0009 3.1255Zm-4.2804.9165c.1997.0013.396-.0515.5682-.1527.1707-.0975.3184-.2306.4331-.3903v-1.3428h-.3567c-.3686-.0291-.737.059-1.0525.2518a.91061.91061 0 0 0-.2645.3487.91058.91058 0 0 0-.0712.4318.89377.89377 0 0 0 .2039.6194c.068.0759.152.1358.2459.1754a.6912.6912 0 0 0 .2972.0537l-.0034.005Z" />
    </g>
    <defs>
        <clipPath id="a-apna">
            <path fill="#fff" d="M.15234.92578h47v47h-47z" />
        </clipPath>
    </defs>
</svg>