<svg xmlns="http://www.w3.org/2000/svg" fill="none" viewBox="0 0 91 19">
    <path fill="#5B5B5B"
        d="M18.0824 2.13942c-.015-.08998-.045-.17996-.045-.26994v-.015c-.105-.02999-.21-.04499-.3149-.05998h-.03c-.135-.015-.255-.03-.4049-.03-.7199 0-1.4397.26994-1.9796.80982l-.03.02999c-.0149.01499-.0149.015-.0299.02999-.6449.65985-.8998 1.54464-.7799 2.38444v.03c.015.10497.045.22494.075.32992.09.02999.18.04499.27.04499.0449.01499.0749.01499.1199.01499.12.015.24.03.3449.03.6449 0 1.2747-.20995 1.7996-.64485.075-.05999.15-.13497.225-.19496.075-.07498.1499-.14996.1949-.22495.4949-.61485.7049-1.39467.6149-2.14449-.015-.02999-.015-.07499-.03-.11997Zm-4.0041 2.92431c-.1499-1.00477.18-1.97953.8848-2.71436l.045-.04499.045-.04499c.045-.04499.075-.05999.12-.10498-.135-.19495-.27-.3899-.4499-.55486l-.045-.045-.045-.04498C13.7634.65477 12.5787.30985 11.4539.45981h-.0449c-.15.03-.27.045-.4199.08998v.015c-.03.11997-.045.23994-.075.35991-.015.045-.03.10498-.03.14997-.12 1.00476.1499 2.03952.8248 2.86432.075.10498.1649.20995.2699.29993.09.08998.195.17996.3.26994.5548.4499 1.2147.71983 1.8745.80981-.03-.07498-.045-.16496-.045-.25494-.015.02999-.03.015-.03 0Zm76.677 4.21401c-.015-.05999-.03-.13497-.03-.19495-.0299-.17996-.0449-.35992-.1049-.53988v-.01499c-.4049-1.36468-1.6646-2.36945-3.1643-2.36945-.9148 0-1.7396.35992-2.3394.95978V3.36913c0-.25494-.225-.47989-.4799-.47989h-1.8746c-.2549 0-.4799.22495-.4799.47989V15.0514c0 .2549.225.4799.4799.4799H84.6368c.2549 0 .4799-.225.4799-.4799v-4.6339h.015c0-.79484.6448-1.45469 1.4396-1.45469s1.4397.65985 1.4397 1.45469v4.6339c0 .2549.2249.4799.4799.4799h1.8745c.03 0 .045 0 .06-.015.135-.015.225-.06.285-.135.0299-.045.0449-.075.0749-.135.03-.0599.045-.1349.045-.2099v-4.7389c.03-.34491-.015-.68984-.075-1.01976ZM56.3984 7.10325h-1.1697s-.045-.95977.075-1.13973c.0449-.07498.1049-.14997.1799-.22495.075-.05999.15-.11997.255-.14996.1049-.03.1949-.04499.2999-.04499h.1499c.15 0 .285-.05999.375-.17996.0899-.11997.1499-.26994.1499-.4499V3.5041c0-.17996-.045-.31493-.1349-.4199-.09-.10498-.225-.14997-.39-.14997h-.1499c-.4649 0-.9148.08998-1.3497.25494-.4349.16496-.8098.4199-1.1397.71983-.33.29993-.5849.65985-.7798 1.06475-.195.40491-.3.8398-.3 1.2897v.02999c-.015.04499-.015.05999-.015.10498v.73483h-.7498c-.165 0-.3149.04498-.4199.13496-.105.08998-.15.23995-.15.4349v1.34968c0 .20995.045.35992.15.46489.105.10498.2549.14997.4199.14997h.7498v5.38375c0 .2549.225.4799.4799.4799h1.8746c.2549 0 .4799-.225.4799-.4799V9.66765h1.1097c.165 0 .2999-.04499.3899-.14997.09-.10497.135-.25494.135-.46489V7.70311c0-.19495-.045-.34492-.135-.4349-.105-.11997-.2249-.16496-.3899-.16496Zm24.2943 3.44915c-.2549-.2399-.5699-.4349-.9298-.59982-.3449-.14996-.7498-.31492-1.1697-.44989-.12-.04499-.2399-.05999-.3749-.08998-.135-.03-.255-.05999-.3749-.10498-.12-.04498-.225-.10497-.3-.16496-.0749-.05998-.1349-.16496-.1499-.28493-.015-.16496.045-.28493.1949-.35991.15-.07499.33-.11998.5549-.11998.18 0 .3749.03.5999.08998.2099.05999.4049.17996.5698.37491.045.04499.075.08998.135.11997.045.04499.09.045.15.05999.045.015.1049.015.1649 0 .045-.01499.12-.04499.165-.08998.1799-.17996.3449-.34492.5249-.49488.1649-.14997.3449-.29993.5398-.4499.105-.08998.15-.17995.15-.25494 0-.07498-.045-.16496-.135-.25494-.2249-.23994-.4499-.4349-.6598-.59986-.225-.16496-.4499-.29992-.6899-.4199-.2399-.10497-.4798-.17995-.7498-.23994-.2549-.04499-.5399-.07498-.8398-.07498-.4949 0-.9448.05998-1.3497.17996-.4049.13496-.7498.29992-1.0497.53987-.285.23994-.5099.50988-.6599.8248-.1499.32992-.2399.67484-.2399 1.06475 0 .34492.045.65985.135.95978.0899.29996.2399.58486.4499.85476.2099.27.5098.4949.8698.7199.3599.2099.8398.3899 1.4096.5548.18.045.3449.105.4799.15s.2549.09.3599.15c.105.045.165.1199.225.1949.045.075.075.18.075.3149 0 .15-.045.255-.15.345-.09.075-.21.1499-.3299.1649-.135.045-.255.045-.4049.06-.15.015-.255.015-.345.015-.0449 0-.1049-.015-.2099-.045-.105-.03-.225-.06-.3599-.1199-.15-.045-.27-.135-.4349-.21-.15-.09-.285-.195-.4199-.3299-.15-.135-.255-.21-.3449-.255-.09-.03-.18 0-.3.105l-.9148.9148c-.045.045-.1049.09-.1349.15s-.045.1349-.045.1949.015.15.045.225c.03.0749.06.1499.1199.2099.195.255.4349.4799.6749.6599.2549.1799.5249.3299.8098.4499.2849.1199.5699.1949.8848.2549.2999.045.5999.075.8998.075.5249 0 1.0047-.06 1.4396-.195.4499-.1349.8398-.3299 1.1548-.5698.3149-.24.5848-.5549.7648-.9298.18-.3599.2849-.7798.2849-1.2597s-.075-.8548-.2249-1.1997c-.075-.3-.285-.5699-.5399-.8099Zm-7.6032-2.24943c-.195-.31493-.4349-.61485-.7048-.86979-.27-.25495-.5699-.49489-.8998-.67485-.33-.19495-.6749-.34492-1.0498-.44989-.3599-.10498-.7498-.14997-1.1397-.14997-.4349 0-.8548.04499-1.2447.16497-.3899.11997-.7499.26993-1.0798.47988-.3299.20995-.6448.4499-.8998.74982-.2699.28494-.4949.59987-.6748.94479-.18.34491-.3299.70483-.4349 1.09474-.105.38991-.15.79483-.15 1.21473 0 .6598.135 1.2897.3749 1.8595.255.5699.5999 1.0648 1.0498 1.4847.4499.4199.9448.7498 1.5296.9898.5699.2399 1.1998.3599 1.8446.3599.5849 0 1.1397-.105 1.6496-.3299.5249-.225.9898-.5249 1.4097-.8998.06-.045.135-.12.1799-.18.045-.06.075-.15.075-.2549 0-.045-.015-.105-.03-.15s-.045-.105-.1049-.165l-.7499-.8548c-.075-.0749-.1499-.1499-.2249-.1799-.06-.045-.135-.06-.18-.06-.06 0-.1199.015-.1649.045-.045.03-.12.075-.195.15-.09.0899-.1949.1649-.3449.2549-.15.075-.2999.15-.4499.2099-.165.06-.3449.105-.5249.15-.1799.045-.3449.045-.5249.045-.1949 0-.3899-.03-.5998-.075-.21-.045-.4199-.1499-.5999-.2549-.1949-.12-.3449-.285-.5099-.4799-.1499-.21-.2399-.4499-.2849-.7498h5.1288c.2999 0 .5249-.015.6749-.045.1499-.045.2549-.105.3299-.195.06-.09.1049-.2249.1049-.3749.015-.15.015-.3599.015-.5998 0-.375-.0449-.74987-.1499-1.10979-.105-.43489-.255-.77981-.4499-1.09474Zm-5.5637 1.31969c.075-.14996.165-.32992.2999-.47989.12-.14996.255-.29993.4049-.4199.15-.11997.315-.22494.4799-.29993.165-.07498.3449-.10497.5399-.10497.2549 0 .4799.04499.6748.10497.195.05999.3599.14997.5099.26994.15.11997.2849.25494.4049.4199.12.14996.225.32992.3299.50988h-3.6441Zm-2.3545-2.24947c.15-.22495.075-.52488-.1349-.65985-.135-.08998-.27-.16496-.4199-.25494-2.4445-.76482-3.6742-.02999-4.1241.65985v-.50988c0-.13497-.0449-.25494-.1499-.35992l-.03-.02999c-.015 0-.015-.015-.03-.015-.015-.01499-.03-.01499-.045-.02999s-.045-.02999-.06-.02999c0 0-.015 0-.015-.015-.03-.015-.045-.01499-.06-.02999h-.03c-.03 0-.045-.015-.0899-.015H58.153c-.255 0-.4799.22495-.4799.47989v8.35302c0 .255.2249.4799.4799.4799h1.8745c.255 0 .4799-.2249.4799-.4799v-4.4389c.045-1.0348.9148-1.8596 1.9496-1.8596.105 0 .1949.01499.2849.02999h.015l.18.04499c.015 0 .015.015.03.015.1499.04498.3899.11997.6298.20995.4199.17995.5549.14996.7498-.17996l.5249-.8848.2999-.47988ZM50.3272 6.36849c-.045-.05999-.09-.11998-.165-.14997-.075-.04499-.1799-.04499-.3299-.04499h-1.8896c-.1499 0-.2549.03-.3449.07499-.075.04498-.1499.14996-.2099.31492L45.3484 12.487l-2.0846-5.92356c-.0449-.11997-.1049-.20995-.1799-.28493-.075-.07499-.18-.11997-.2999-.11997h-1.7996c-.255 0-.4349.05998-.5099.20995-.075.14996-.075.31492 0 .50988l3.5092 8.62293-.8548 2.2045c-.015.015-.03.03-.045.06s-.03.075-.03.15c0 .1649.045.2999.12.3749.0749.09.2399.135.4499.135h1.6946c.1349 0 .2399-.045.3299-.12.09-.075.15-.18.1799-.3299l-.03.045c.06-.18.165-.4499.3-.7949.1349-.3449.5548-1.3646.7498-1.8895.225-.5549.4499-1.1098.6748-1.6946.24-.5849.4649-1.1847.7199-1.7996.2549-.6149.4799-1.2147.7348-1.7996.2399-.58484.4649-1.1547.6898-1.70957.225-.55487.4349-1.06476.6149-1.51465.03-.07498.045-.14996.045-.22495.045-.08998.03-.14996 0-.22494Zm-30.7428-.20995c-.03 0-.06-.015-.09-.015h-1.8745c-.135 0-.255.04499-.345.13497l-.015.01499c-.1049.08998-.1499.20995-.1499.35992v.50988c-.4649-.67484-1.6796-1.36468-3.6592-.74983-.0599.03-.1349.045-.1799.045-1.7546.67484-3.0143 2.38443-3.0143 4.39393 0 2.1745 1.4846 4.0041 3.4942 4.544 1.6496.2549 2.9693-.3599 3.3742-.9148v.5848c0 .135.045.255.1499.345.105.0899.21.1349.345.1349H19.5244c.255 0 .4799-.2249.4799-.4799V6.65342c-.045-.25494-.2099-.4349-.4199-.49488Zm-4.6789 6.85336c-1.1847 0-2.1445-.9597-2.1445-2.1595 0-1.19969.9598-2.15946 2.1445-2.15946 1.1847 0 2.1445.95977 2.1445 2.15946 0 1.1998-.9598 2.1595-2.1445 2.1595ZM9.32681 9.08285c-.03-.17996-.04499-.35992-.10498-.53987v-.015c-.4049-1.36468-1.66461-2.36944-3.16425-2.36944-.91479 0-1.7396.35991-2.33946.95977V3.38419c0-.25494-.22494-.47989-.47988-.47989H1.36368c-.25494 0-.4799.22495-.4799.47989V15.0514c0 .255.22496.4799.4799.4799H3.23824c.25494 0 .47988-.2249.47988-.4799v-4.6339h.015c0-.79478.64485-1.45462 1.43966-1.45462.79482 0 1.43966.65984 1.43966 1.45462v4.6339c0 .255.22495.4799.47989.4799H8.98189c.02999 0 .04499 0 .05998-.015.13497-.015.22495-.0599.28494-.1349.02999-.045.04499-.075.07498-.135.02999-.06.04499-.135.04499-.2099V10.2976c0-.35995-.02999-.68987-.08998-1.0198 0-.07498-.015-.13496-.02999-.19495ZM37.7151 6.41347c-2.0545-.62985-3.2992.14997-3.7041.8548v-.62985c0-.11997-.045-.22494-.12-.31492v-.04499c-.0899-.07499-.2099-.13497-.3449-.13497h-1.9045c-.255 0-.4799.22495-.4799.47989V15.0215c0 .0599.015.1199.03.1649v2.7294c0 .2549.2249.4799.4799.4799h1.8595c.255 0 .4799-.225.4799-.4799v-2.9093c.6449.3449 1.3647.5248 2.1445.5248 2.5944 0 4.6939-2.0995 4.6939-4.6939.015-2.05448-1.3047-3.77908-3.1343-4.42393Zm-1.5296 6.59843c-1.1847 0-2.1445-.9597-2.1445-2.1595 0-1.19969.9598-2.15946 2.1445-2.15946 1.1847 0 2.1445.95977 2.1445 2.15946 0 1.1998-.9598 2.1595-2.1445 2.1595Zm-8.9529-6.59843c-2.0095-.61485-3.2392.10498-3.6741.79482v-.56987c0-.13497-.045-.25494-.15-.34492s-.2099-.13496-.3449-.13496H21.189c-.045 0-.06 0-.09.01499-.2249.04499-.3749.23994-.3749.46489V17.9158c0 .2549.225.4799.4799.4799h1.8746c.2549 0 .4799-.225.4799-.4799v-2.9093c.6448.3449 1.3646.5248 2.1445.5248 2.5944 0 4.6939-2.0995 4.6939-4.6939 0-2.05448-1.3197-3.77908-3.1643-4.42393ZM25.703 13.0119c-1.1848 0-2.1445-.9597-2.1445-2.1595 0-1.19969.9597-2.15946 2.1445-2.15946 1.1847 0 2.1445.95977 2.1445 2.15946 0 1.1998-.9598 2.1595-2.1445 2.1595Z" />
</svg>