<svg width="148" height="27" viewBox="0 0 148 27" fill="none" xmlns="http://www.w3.org/2000/svg">
    <g clip-path="url(#clip0_1252_23689)">
        <path
            d="M12.8042 4.40711C12.9018 4.38579 12.9451 4.53964 12.8529 4.57787C9.42322 6.00016 6.66565 8.61539 6.45091 11.6218C6.09726 16.2192 10.5767 21.5238 18.4748 23.292C6.33303 21.5238 1.97143 17.398 2.56083 11.8576C2.89319 8.4232 7.28619 5.61353 12.8042 4.40711Z"
            stroke="#5B5B5B" stroke-width="0.294703" stroke-miterlimit="10" stroke-linecap="square"
            stroke-linejoin="round" />
        <path
            d="M13.1916 2.66449C13.2762 2.66053 13.3003 2.77067 13.2247 2.80888C11.8272 3.51521 6.03673 6.74733 6.4516 11.622C6.84815 16.2816 14.4151 20.1073 16.8112 21.2061C16.8995 21.2465 16.8618 21.3829 16.7672 21.3616C13.7131 20.6719 2.56152 17.7425 2.56152 11.7399C2.56152 5.96503 10.2841 2.80059 13.1916 2.66449Z"
            fill="#5B5B5B" />
        <path
            d="M3.15027 6.51831C4.37774 6.51831 5.3728 5.52325 5.3728 4.29577C5.3728 3.0683 4.37774 2.07324 3.15027 2.07324C1.9228 2.07324 0.927734 3.0683 0.927734 4.29577C0.927734 5.52325 1.9228 6.51831 3.15027 6.51831Z"
            fill="#5B5B5B" />
        <path
            d="M18.5928 7.08171H22.7186V8.96781C23.308 8.14264 24.0153 7.67111 24.6047 7.31747C25.1941 6.96383 26.0193 6.84595 26.9623 6.84595C28.1411 6.84595 29.2021 7.19959 29.9094 7.90688C30.6166 8.61416 30.9703 9.79297 30.9703 11.3254V18.7519H26.4908V12.2685C26.4908 11.5612 26.3729 10.9718 26.1372 10.736C25.9014 10.3824 25.4299 10.2645 24.9583 10.2645C24.3689 10.2645 24.0153 10.5003 23.6617 10.8539C23.308 11.2075 23.1901 12.0327 23.1901 13.0936V18.6341H18.7107V7.08171H18.5928Z"
            fill="#5B5B5B" />
        <path
            d="M37.3349 10.7357L33.0912 10.2642C33.2091 9.55693 33.4449 8.96752 33.7985 8.496C34.1522 8.02447 34.5058 7.67083 35.0952 7.43507C35.4489 7.19931 36.0383 7.08143 36.7455 6.96355C37.4528 6.84566 38.278 6.72778 39.1032 6.72778C40.3999 6.72778 41.4608 6.84566 42.286 6.96355C43.1111 7.08143 43.8184 7.43507 44.2899 7.90659C44.6436 8.26024 44.9972 8.73176 45.233 9.32117C45.4687 9.91057 45.5866 10.5 45.5866 11.0894V16.2761C45.5866 16.8656 45.5866 17.2192 45.7045 17.5728C45.8224 17.9265 45.9403 18.2801 46.176 18.7516H42.0502C41.9323 18.398 41.8144 18.2801 41.6965 18.0444C41.6965 17.9265 41.5787 17.6907 41.5787 17.3371C40.9893 17.9265 40.3999 18.2801 39.8104 18.5159C38.9853 18.8695 38.1601 18.9874 37.0992 18.9874C35.6846 18.9874 34.6237 18.6338 33.9164 18.0444C33.2091 17.455 32.8555 16.6298 32.8555 15.6867C32.8555 14.8616 33.0912 14.0364 33.6806 13.5649C34.1522 12.9755 35.0952 12.6218 36.5098 12.2682C38.1601 11.9145 39.221 11.6788 39.8104 11.5609C40.282 11.443 40.8714 11.2073 41.3429 11.0894C41.3429 10.5 41.225 10.1463 40.9893 9.91057C40.7535 9.67481 40.3999 9.55693 39.8104 9.55693C39.1032 9.55693 38.5138 9.67481 38.1601 9.91057C37.6886 9.91057 37.4528 10.2642 37.3349 10.7357ZM41.225 13.0934C40.6356 13.3291 39.9283 13.447 39.3389 13.6828C38.3959 13.9185 37.8065 14.1543 37.5707 14.3901C37.3349 14.6258 37.2171 14.8616 37.2171 15.2152C37.2171 15.5689 37.3349 15.8046 37.5707 16.0404C37.8065 16.2761 38.1601 16.394 38.6316 16.394C39.1032 16.394 39.5747 16.2761 40.0462 16.0404C40.5177 15.8046 40.7535 15.451 40.9893 15.2152C41.225 14.8616 41.225 14.3901 41.225 13.9185V13.0934Z"
            fill="#5B5B5B" />
        <path
            d="M60.204 18.6339H56.0781V16.7478C55.4887 17.573 54.7814 18.0445 54.192 18.3981C53.6026 18.7518 52.7775 18.8696 51.8344 18.8696C50.6556 18.8696 49.5947 18.516 49.0053 17.8087C48.298 17.1014 47.9443 15.9226 47.9443 14.3902V7.08154H52.4238V13.4471C52.4238 14.1544 52.5417 14.7438 52.7775 14.9796C53.0132 15.3332 53.4847 15.4511 53.9563 15.4511C54.5457 15.4511 54.8993 15.2153 55.253 14.8617C55.6066 14.508 55.7245 13.6829 55.7245 12.622V7.08154H60.204V18.6339Z"
            fill="#5B5B5B" />
        <path
            d="M62.6794 2.60205H67.2768V10.8537L70.5774 6.96365H76L71.8741 11.0895L76.2357 18.6339H71.1668L68.8092 14.0365L67.1589 15.569V18.6339H62.5615V2.60205H62.6794Z"
            fill="#5B5B5B" />
        <path
            d="M77.416 7.08171H81.5419V8.96781C81.8955 8.14264 82.367 7.55323 82.8385 7.31747C83.3101 6.96383 83.7816 6.84595 84.371 6.84595C85.0783 6.84595 85.7856 7.08171 86.4929 7.43535L85.0783 10.6181C84.6068 10.3824 84.1352 10.2645 83.7816 10.2645C83.1922 10.2645 82.7207 10.5003 82.367 10.9718C81.8955 11.6791 81.6597 12.9758 81.6597 14.744V18.6341H77.416V7.08171Z"
            fill="#5B5B5B" />
        <path d="M87.1992 2.60205H91.6787V5.66696H87.1992V2.60205ZM87.1992 7.08153H91.6787V18.7518H87.1992V7.08153Z"
            fill="#5B5B5B" />
        <path
            d="M107.002 14.0367L111.246 14.5082C111.01 15.3334 110.657 16.1586 110.067 16.748C109.478 17.3374 108.888 17.9268 108.063 18.2804C107.238 18.6341 106.177 18.8698 104.88 18.8698C103.702 18.8698 102.641 18.7519 101.816 18.5162C100.99 18.2804 100.283 17.9268 99.6937 17.4552C99.1043 16.9837 98.6328 16.3943 98.2791 15.687C97.9255 14.9797 97.8076 14.0367 97.8076 12.9758C97.8076 11.797 98.0434 10.736 98.397 10.0287C98.7507 9.43933 99.1043 8.96781 99.5758 8.49628C100.047 8.02476 100.637 7.67111 101.226 7.43535C102.051 7.08171 103.23 6.84595 104.527 6.84595C106.413 6.84595 107.827 7.19959 108.888 7.90688C109.831 8.61416 110.539 9.55721 111.01 10.8539L106.884 11.3254C106.767 10.8539 106.531 10.5003 106.177 10.1466C105.824 9.91086 105.352 9.79297 104.763 9.79297C104.055 9.79297 103.466 10.0287 102.994 10.6181C102.523 11.2075 102.287 11.9148 102.287 12.9758C102.287 13.9188 102.523 14.6261 102.994 15.0976C103.466 15.5691 104.055 15.8049 104.763 15.8049C105.352 15.8049 105.824 15.687 106.177 15.3334C106.531 15.2155 106.884 14.744 107.002 14.0367Z"
            fill="#5B5B5B" />
        <path
            d="M112.544 12.8576C112.544 11.0894 113.133 9.67481 114.312 8.496C115.491 7.31719 117.141 6.72778 119.145 6.72778C121.503 6.72778 123.271 7.43507 124.45 8.73176C125.393 9.79269 125.865 11.2073 125.865 12.7397C125.865 14.5079 125.275 16.0404 124.096 17.1013C122.917 18.2801 121.267 18.8695 119.145 18.8695C117.259 18.8695 115.727 18.398 114.666 17.455C113.251 16.2761 112.544 14.7437 112.544 12.8576ZM117.023 12.8576C117.023 13.9185 117.259 14.6258 117.613 15.0973C118.084 15.5689 118.556 15.8046 119.145 15.8046C119.735 15.8046 120.324 15.5689 120.678 15.0973C121.031 14.6258 121.267 13.8006 121.267 12.7397C121.267 11.6788 121.031 10.9715 120.678 10.5C120.206 10.0285 119.735 9.79269 119.145 9.79269C118.438 9.79269 117.966 10.0285 117.495 10.5C117.141 11.0894 117.023 11.7967 117.023 12.8576Z"
            fill="#5B5B5B" />
        <path
            d="M127.75 7.08143H131.876V8.73176C132.465 8.02447 133.054 7.55295 133.644 7.19931C134.233 6.84566 134.94 6.72778 135.884 6.72778C136.827 6.72778 137.534 6.84566 138.123 7.19931C138.713 7.55295 139.066 8.02447 139.42 8.61388C140.127 7.90659 140.717 7.31719 141.306 7.08143C141.895 6.84566 142.603 6.72778 143.428 6.72778C144.725 6.72778 145.668 7.08143 146.375 7.78871C147.082 8.496 147.436 9.67481 147.436 11.2073V18.5159H142.956V12.0324C142.956 11.5609 142.838 11.0894 142.603 10.8536C142.249 10.5 141.895 10.2642 141.542 10.2642C141.07 10.2642 140.599 10.5 140.245 10.8536C139.891 11.2073 139.774 11.7967 139.774 12.6218V18.6338H135.294V12.2682C135.294 11.7967 135.294 11.443 135.176 11.2073C135.058 10.9715 134.94 10.7357 134.705 10.5C134.469 10.2642 134.233 10.2642 133.88 10.2642C133.408 10.2642 132.936 10.5 132.583 10.8536C132.229 11.2073 132.111 11.9145 132.111 12.7397V18.6338H127.632V7.08143H127.75Z"
            fill="#5B5B5B" />
        <path
            d="M95.2729 19.1716C96.5099 19.1716 97.5127 18.1689 97.5127 16.9319C97.5127 15.6949 96.5099 14.6921 95.2729 14.6921C94.036 14.6921 93.0332 15.6949 93.0332 16.9319C93.0332 18.1689 94.036 19.1716 95.2729 19.1716Z"
            fill="#5B5B5B" />
        <path d="M74.8916 26.6246V21.7163H75.5411V26.6246H74.8916Z" fill="#5B5B5B" />
        <path
            d="M77.1611 26.6246V23.0689H77.7035V23.5745C77.9647 23.1839 78.3419 22.9886 78.8352 22.9886C79.0494 22.9886 79.2459 23.0276 79.4244 23.1057C79.6052 23.1816 79.7403 23.2821 79.8296 23.4071C79.9188 23.5321 79.9813 23.6805 80.0171 23.8524C80.0394 23.964 80.0505 24.1593 80.0505 24.4383V26.6246H79.4479V24.4617C79.4479 24.2162 79.4244 24.0332 79.3776 23.9126C79.3307 23.7899 79.247 23.6928 79.1265 23.6214C79.0082 23.5477 78.8686 23.5109 78.7079 23.5109C78.4512 23.5109 78.2292 23.5923 78.0417 23.7553C77.8564 23.9182 77.7638 24.2274 77.7638 24.6827V26.6246H77.1611Z"
            fill="#5B5B5B" />
        <path
            d="M83.8334 26.6246V26.176C83.608 26.5287 83.2765 26.705 82.839 26.705C82.5555 26.705 82.2944 26.6269 82.0555 26.4706C81.8189 26.3144 81.6348 26.0967 81.5031 25.8177C81.3736 25.5365 81.3089 25.214 81.3089 24.8501C81.3089 24.4952 81.3681 24.1738 81.4864 23.8859C81.6047 23.5957 81.7821 23.3736 82.0187 23.2196C82.2553 23.0656 82.5198 22.9886 82.8122 22.9886C83.0265 22.9886 83.2173 23.0343 83.3847 23.1258C83.5522 23.2151 83.6883 23.3323 83.7932 23.4774V21.7163H84.3925V26.6246H83.8334ZM81.9283 24.8501C81.9283 25.3055 82.0243 25.6459 82.2162 25.8713C82.4082 26.0967 82.6348 26.2095 82.8959 26.2095C83.1593 26.2095 83.3825 26.1023 83.5655 25.888C83.7508 25.6715 83.8434 25.3423 83.8434 24.9003C83.8434 24.4138 83.7497 24.0566 83.5622 23.8289C83.3747 23.6013 83.1437 23.4874 82.8691 23.4874C82.6013 23.4874 82.377 23.5968 82.1962 23.8156C82.0176 24.0343 81.9283 24.3792 81.9283 24.8501Z"
            fill="#5B5B5B" />
        <path d="M85.8953 22.4093V21.7163H86.498V22.4093H85.8953ZM85.8953 26.6246V23.0689H86.498V26.6246H85.8953Z"
            fill="#5B5B5B" />
        <path
            d="M90.2875 26.186C90.0643 26.3758 89.8489 26.5097 89.6413 26.5878C89.436 26.6659 89.215 26.705 88.9784 26.705C88.5878 26.705 88.2876 26.6101 88.0778 26.4204C87.8679 26.2284 87.763 25.984 87.763 25.6872C87.763 25.5131 87.8021 25.3546 87.8802 25.2117C87.9606 25.0666 88.0644 24.9506 88.1916 24.8635C88.3211 24.7765 88.4661 24.7106 88.6269 24.666C88.7452 24.6347 88.9237 24.6046 89.1626 24.5756C89.6492 24.5175 90.0074 24.4483 90.2373 24.368C90.2395 24.2854 90.2407 24.233 90.2407 24.2106C90.2407 23.9651 90.1837 23.7921 90.0699 23.6917C89.9159 23.5555 89.6871 23.4874 89.3835 23.4874C89.1001 23.4874 88.8902 23.5377 88.7541 23.6381C88.6202 23.7363 88.5208 23.9115 88.4561 24.1638L87.8668 24.0834C87.9204 23.8312 88.0086 23.6281 88.1313 23.474C88.2541 23.3178 88.4315 23.1984 88.6637 23.1158C88.8958 23.031 89.1648 22.9886 89.4706 22.9886C89.7741 22.9886 90.0208 23.0243 90.2105 23.0957C90.4002 23.1671 90.5398 23.2575 90.629 23.3669C90.7183 23.474 90.7808 23.6102 90.8165 23.7754C90.8366 23.8781 90.8467 24.0633 90.8467 24.3312V25.1347C90.8467 25.695 90.8589 26.0499 90.8835 26.1994C90.9103 26.3467 90.9616 26.4885 91.0375 26.6246H90.4081C90.3456 26.4996 90.3054 26.3534 90.2875 26.186ZM90.2373 24.8401C90.0186 24.9294 89.6904 25.0053 89.253 25.0678C89.0052 25.1035 88.83 25.1436 88.7273 25.1883C88.6246 25.2329 88.5454 25.2988 88.4896 25.3858C88.4338 25.4706 88.4059 25.5655 88.4059 25.6704C88.4059 25.8311 88.4661 25.9651 88.5867 26.0722C88.7094 26.1793 88.888 26.2329 89.1224 26.2329C89.3545 26.2329 89.561 26.1827 89.7418 26.0822C89.9226 25.9796 90.0554 25.8401 90.1402 25.6637C90.2049 25.5276 90.2373 25.3267 90.2373 25.0611V24.8401Z"
            fill="#5B5B5B" />
        <path
            d="M92.2959 22.3658V21.666H92.9421V22.2185C92.9421 22.5176 92.9075 22.733 92.8383 22.8647C92.7423 23.0455 92.5927 23.1816 92.3896 23.2732L92.2423 23.0354C92.3628 22.9863 92.4521 22.9093 92.5102 22.8044C92.5704 22.6973 92.6039 22.5511 92.6106 22.3658H92.2959Z"
            fill="#5B5B5B" />
        <path
            d="M94.0397 25.5633L94.6357 25.4695C94.6692 25.7084 94.7618 25.8914 94.9136 26.0186C95.0676 26.1459 95.2819 26.2095 95.5564 26.2095C95.8332 26.2095 96.0386 26.1537 96.1725 26.0421C96.3064 25.9282 96.3734 25.7954 96.3734 25.6436C96.3734 25.5075 96.3142 25.4003 96.1959 25.3222C96.1133 25.2686 95.908 25.2006 95.5799 25.118C95.1379 25.0064 94.831 24.9104 94.6591 24.83C94.4895 24.7474 94.36 24.6347 94.2707 24.4919C94.1837 24.3468 94.1402 24.1872 94.1402 24.0131C94.1402 23.8546 94.1759 23.7084 94.2473 23.5745C94.321 23.4383 94.4203 23.3256 94.5453 23.2363C94.639 23.1671 94.7663 23.1091 94.927 23.0622C95.0899 23.0131 95.264 22.9886 95.4493 22.9886C95.7283 22.9886 95.9727 23.0287 96.1825 23.1091C96.3946 23.1895 96.5508 23.2988 96.6513 23.4372C96.7517 23.5734 96.8209 23.7564 96.8588 23.9863L96.2696 24.0667C96.2428 23.8836 96.1647 23.7408 96.0352 23.6381C95.908 23.5354 95.7272 23.4841 95.4928 23.4841C95.216 23.4841 95.0185 23.5298 94.9002 23.6214C94.7819 23.7129 94.7227 23.82 94.7227 23.9428C94.7227 24.0209 94.7473 24.0912 94.7964 24.1537C94.8455 24.2184 94.9225 24.272 95.0274 24.3144C95.0877 24.3367 95.2651 24.3881 95.5598 24.4684C95.9861 24.5823 96.283 24.676 96.4504 24.7497C96.62 24.8211 96.7528 24.926 96.8488 25.0644C96.9448 25.2028 96.9928 25.3747 96.9928 25.58C96.9928 25.7809 96.9336 25.9706 96.8153 26.1492C96.6992 26.3255 96.5307 26.4628 96.3098 26.561C96.0888 26.657 95.8388 26.705 95.5598 26.705C95.0977 26.705 94.7451 26.609 94.5018 26.4171C94.2607 26.2251 94.1067 25.9405 94.0397 25.5633Z"
            fill="#5B5B5B" />
        <path
            d="M100.785 26.6246V21.7163H101.451L104.029 25.57V21.7163H104.652V26.6246H103.986L101.408 22.7676V26.6246H100.785Z"
            fill="#5B5B5B" />
        <path
            d="M105.994 24.8468C105.994 24.1883 106.177 23.7006 106.543 23.3836C106.849 23.1203 107.222 22.9886 107.662 22.9886C108.15 22.9886 108.55 23.1493 108.86 23.4707C109.171 23.7899 109.326 24.2318 109.326 24.7966C109.326 25.2541 109.256 25.6146 109.118 25.878C108.982 26.1392 108.782 26.3423 108.519 26.4874C108.258 26.6324 107.972 26.705 107.662 26.705C107.164 26.705 106.761 26.5454 106.453 26.2262C106.147 25.907 105.994 25.4472 105.994 24.8468ZM106.614 24.8468C106.614 25.3021 106.713 25.6436 106.912 25.8713C107.11 26.0967 107.36 26.2095 107.662 26.2095C107.961 26.2095 108.21 26.0956 108.408 25.868C108.607 25.6403 108.706 25.2932 108.706 24.8267C108.706 24.387 108.606 24.0544 108.405 23.8289C108.206 23.6013 107.959 23.4874 107.662 23.4874C107.36 23.4874 107.11 23.6002 106.912 23.8256C106.713 24.051 106.614 24.3914 106.614 24.8468Z"
            fill="#5B5B5B" />
        <path
            d="M115.144 26.6246H114.541V22.7843C114.396 22.9227 114.205 23.0611 113.968 23.1995C113.734 23.3379 113.523 23.4417 113.336 23.5109V22.9283C113.673 22.7698 113.967 22.5779 114.22 22.3524C114.472 22.127 114.65 21.9082 114.755 21.6962H115.144V26.6246Z"
            fill="#5B5B5B" />
        <path
            d="M119.609 25.2318L120.195 25.1515C120.211 25.5264 120.281 25.7831 120.406 25.9215C120.531 26.0599 120.704 26.1291 120.925 26.1291C121.088 26.1291 121.228 26.0923 121.347 26.0186C121.465 25.9427 121.546 25.8412 121.591 25.7139C121.636 25.5845 121.658 25.3791 121.658 25.0979V21.7163H122.308V25.0611C122.308 25.4718 122.257 25.7898 122.157 26.0153C122.059 26.2407 121.901 26.4126 121.685 26.5309C121.471 26.6492 121.218 26.7083 120.928 26.7083C120.497 26.7083 120.167 26.5845 119.937 26.3367C119.709 26.0889 119.6 25.7206 119.609 25.2318Z"
            fill="#5B5B5B" />
        <path
            d="M123.616 24.8468C123.616 24.1883 123.799 23.7006 124.165 23.3836C124.471 23.1203 124.844 22.9886 125.284 22.9886C125.772 22.9886 126.172 23.1493 126.482 23.4707C126.792 23.7899 126.948 24.2318 126.948 24.7966C126.948 25.2541 126.878 25.6146 126.74 25.878C126.604 26.1392 126.404 26.3423 126.141 26.4874C125.88 26.6324 125.594 26.705 125.284 26.705C124.786 26.705 124.383 26.5454 124.075 26.2262C123.769 25.907 123.616 25.4472 123.616 24.8468ZM124.236 24.8468C124.236 25.3021 124.335 25.6436 124.534 25.8713C124.732 26.0967 124.982 26.2095 125.284 26.2095C125.583 26.2095 125.832 26.0956 126.03 25.868C126.229 25.6403 126.328 25.2932 126.328 24.8267C126.328 24.387 126.228 24.0544 126.027 23.8289C125.828 23.6013 125.58 23.4874 125.284 23.4874C124.982 23.4874 124.732 23.6002 124.534 23.8256C124.335 24.051 124.236 24.3914 124.236 24.8468Z"
            fill="#5B5B5B" />
        <path
            d="M128.762 26.6246H128.203V21.7163H128.805V23.4673C129.06 23.1482 129.384 22.9886 129.78 22.9886C129.998 22.9886 130.205 23.0332 130.399 23.1225C130.595 23.2095 130.756 23.3334 130.881 23.4941C131.008 23.6526 131.108 23.8446 131.179 24.07C131.251 24.2955 131.286 24.5365 131.286 24.7932C131.286 25.4026 131.136 25.8735 130.834 26.2061C130.533 26.5387 130.171 26.705 129.749 26.705C129.33 26.705 129.001 26.5298 128.762 26.1793V26.6246ZM128.755 24.82C128.755 25.2463 128.813 25.5543 128.929 25.7441C129.119 26.0543 129.376 26.2095 129.699 26.2095C129.963 26.2095 130.19 26.0956 130.382 25.868C130.574 25.6381 130.67 25.2965 130.67 24.8434C130.67 24.3792 130.578 24.0365 130.392 23.8156C130.209 23.5946 129.987 23.4841 129.726 23.4841C129.463 23.4841 129.235 23.599 129.043 23.8289C128.851 24.0566 128.755 24.387 128.755 24.82Z"
            fill="#5B5B5B" />
        <path
            d="M134.884 25.0477L135.497 24.9941C135.526 25.2396 135.593 25.4416 135.698 25.6001C135.805 25.7564 135.97 25.8836 136.194 25.9818C136.417 26.0778 136.668 26.1258 136.947 26.1258C137.195 26.1258 137.413 26.0889 137.603 26.0153C137.793 25.9416 137.933 25.8412 138.025 25.7139C138.119 25.5845 138.166 25.4439 138.166 25.2921C138.166 25.1381 138.121 25.0041 138.032 24.8903C137.942 24.7742 137.795 24.6771 137.59 24.599C137.458 24.5477 137.167 24.4684 136.716 24.3613C136.265 24.2519 135.949 24.1492 135.768 24.0533C135.534 23.9305 135.359 23.7787 135.243 23.5979C135.129 23.4149 135.072 23.2107 135.072 22.9852C135.072 22.7375 135.142 22.5064 135.283 22.2922C135.423 22.0756 135.629 21.9116 135.899 21.8C136.169 21.6884 136.469 21.6326 136.8 21.6326C137.163 21.6326 137.484 21.6917 137.76 21.81C138.039 21.9261 138.254 22.098 138.403 22.3256C138.553 22.5533 138.633 22.8111 138.644 23.0991L138.022 23.1459C137.988 22.8357 137.874 22.6013 137.68 22.4428C137.488 22.2843 137.204 22.2051 136.826 22.2051C136.433 22.2051 136.147 22.2776 135.966 22.4227C135.787 22.5656 135.698 22.7386 135.698 22.9417C135.698 23.118 135.762 23.2631 135.889 23.3769C136.014 23.4908 136.34 23.608 136.867 23.7285C137.396 23.8468 137.758 23.9506 137.955 24.0399C138.24 24.1716 138.451 24.339 138.587 24.5421C138.724 24.743 138.792 24.9751 138.792 25.2385C138.792 25.4997 138.717 25.7463 138.567 25.9784C138.418 26.2084 138.202 26.388 137.921 26.5175C137.642 26.6447 137.327 26.7083 136.977 26.7083C136.533 26.7083 136.16 26.6436 135.859 26.5141C135.56 26.3847 135.324 26.1905 135.152 25.9316C134.983 25.6704 134.893 25.3758 134.884 25.0477Z"
            fill="#5B5B5B" />
        <path d="M140.154 22.4093V21.7163H140.756V22.4093H140.154ZM140.154 26.6246V23.0689H140.756V26.6246H140.154Z"
            fill="#5B5B5B" />
        <path
            d="M143.542 26.0856L143.629 26.6179C143.459 26.6537 143.307 26.6715 143.173 26.6715C142.955 26.6715 142.785 26.6369 142.664 26.5677C142.544 26.4985 142.459 26.4081 142.41 26.2965C142.361 26.1827 142.336 25.945 142.336 25.5834V23.5377H141.894V23.0689H142.336V22.1884L142.936 21.8268V23.0689H143.542V23.5377H142.936V25.6168C142.936 25.7887 142.946 25.8992 142.966 25.9483C142.988 25.9974 143.023 26.0365 143.07 26.0655C143.119 26.0945 143.188 26.109 143.277 26.109C143.344 26.109 143.432 26.1012 143.542 26.0856Z"
            fill="#5B5B5B" />
        <path
            d="M147.117 25.4796L147.74 25.5566C147.641 25.9204 147.46 26.2028 147.194 26.4037C146.928 26.6045 146.589 26.705 146.176 26.705C145.656 26.705 145.243 26.5454 144.937 26.2262C144.634 25.9048 144.482 25.455 144.482 24.8769C144.482 24.2787 144.636 23.8144 144.944 23.4841C145.252 23.1537 145.652 22.9886 146.143 22.9886C146.618 22.9886 147.006 23.1504 147.308 23.474C147.609 23.7977 147.76 24.253 147.76 24.8401C147.76 24.8758 147.759 24.9294 147.756 25.0008H145.105C145.127 25.3914 145.237 25.6905 145.436 25.8981C145.635 26.1057 145.883 26.2095 146.179 26.2095C146.4 26.2095 146.589 26.1514 146.745 26.0354C146.901 25.9193 147.025 25.734 147.117 25.4796ZM145.138 24.5053H147.124C147.097 24.2062 147.021 23.9818 146.896 23.8323C146.704 23.6002 146.455 23.4841 146.149 23.4841C145.872 23.4841 145.639 23.5767 145.45 23.762C145.262 23.9472 145.158 24.195 145.138 24.5053Z"
            fill="#5B5B5B" />
    </g>
    <defs>
        <clipPath id="clip0_1252_23689">
            <rect width="147" height="26" fill="white" transform="translate(0.792969 0.822998)" />
        </clipPath>
    </defs>
</svg>