<svg width="59" height="36" viewBox="0 0 59 36" fill="none" xmlns="http://www.w3.org/2000/svg">
    <g clip-path="url(#clip0_1152_16463)">
        <path fill-rule="evenodd" clip-rule="evenodd"
            d="M48.4433 28.3026H42.872V10.6548H48.4433V28.3026ZM26.5405 16.2261V28.3027H20.9692V12.9752C20.9692 12.3597 21.2137 11.7695 21.6488 11.3345C22.084 10.8994 22.6741 10.6548 23.2896 10.6548H37.2085C37.8241 10.6548 38.4141 10.8994 38.8491 11.3345C39.2843 11.7695 39.5288 12.3597 39.5288 12.9752V28.3027H33.9576V16.2261H26.5405ZM12.082 22.7314V10.655H17.6533V25.9824C17.6533 26.5979 17.4087 27.188 16.9737 27.623C16.5386 28.0583 15.9484 28.3028 15.3332 28.3028H1.41398C0.798783 28.3028 0.208427 28.0583 -0.226631 27.623C-0.661804 27.188 -0.90625 26.5979 -0.90625 25.9824V10.655H4.66495V22.7314H12.082Z"
            fill="#5B5B5B" />
        <path fill-rule="evenodd" clip-rule="evenodd"
            d="M57.7393 10.6559C57.7393 12.5319 56.2162 14.055 54.3403 14.055C52.4644 14.055 50.9414 12.5319 50.9414 10.6559C50.9414 8.78005 52.4644 7.25708 54.3403 7.25708C56.2162 7.25708 57.7393 8.78005 57.7393 10.6559Z"
            fill="#5B5B5B" />
    </g>
    <defs>
        <clipPath id="clip0_1152_16463">
            <rect width="57.9746" height="34.4714" fill="white" transform="translate(0.610352 0.587402)" />
        </clipPath>
    </defs>
</svg>