<svg xmlns="http://www.w3.org/2000/svg" fill="none" viewBox="0 0 38 35">
    <g fill="#5B5B5B" fill-rule="evenodd" clip-path="url(#a-uni)" clip-rule="evenodd">
        <path
            d="M31.8811 22.7591h-3.5556v-11.263h3.5556v11.263Zm-13.9786-7.7073v7.7074h-3.5556V12.977c0-.3928.1561-.7695.4337-1.0471a1.48104 1.48104 0 0 1 1.0472-.4338h8.8832c.3928 0 .7694.1561 1.047.4338.2777.2776.4338.6543.4338 1.0471v9.7822h-3.5556v-7.7074h-4.7337Zm-9.22753 4.1517v-7.7073h3.55563v9.7822c0 .3927-.156.7694-.4337 1.047a1.4805 1.4805 0 0 1-1.047.4338H1.86654c-.39263 0-.7694-.156-1.04706-.4338a1.48039 1.48039 0 0 1-.43374-1.047v-9.7822h3.5556v7.7073h4.73363ZM37.8141 11.4968c0 1.1973-.9721 2.1693-2.1693 2.1693-1.1972 0-2.1692-.972-2.1692-2.1693 0-1.1972.972-2.16916 2.1692-2.16916s2.1693.97196 2.1693 2.16916Z" />
    </g>
    <defs>
        <clipPath id="a-uni">
            <path fill="#fff" d="M.64648.42578h37.2381v34H.64648z" />
        </clipPath>
    </defs>
</svg>