<svg xmlns="http://www.w3.org/2000/svg" fill="none" viewBox="0 0 99 29">
    <g fill="#5B5B5B" clip-path="url(#a-xen)">
        <path
            d="m18.019 21.6628 2.7708 4.7872 1.3325-.8319.4724-1.5793-2.9682-5.1397-1.6075 2.7637ZM9.06506 2.73261 7.76074 3.88887l3.52516 6.05627 1.6005-2.76375-3.22206-5.56274-.59928 1.11396ZM12.0756 17.5384l-3.89184 6.7331.48648 1.7978 1.19151.839 5.64025-9.7154 1.6005-2.7708 6.1972-10.77999-1.0364-1.41008-.3454-.50057-1.5159 1.41007-8.3264 14.39687Z" />
        <path
            d="M8.94505.36377 7.33756 3.14161 2.43051 11.6444.83008 14.4645l8.11497 14.0232 1.60045-2.7426-6.51456-11.2806L10.5455 3.18392h4.6603L16.8062.36377H8.94505ZM20.3878 3.18392l6.5286 11.28058-6.5286 11.2806h-4.6673l-1.5934 2.7708h7.8541l1.6075-2.7708 4.9352-8.5169 1.5793-2.7637-1.6004-2.8201-4.9353-8.50279L21.9812.36377l-1.5934 2.82015Z" />
        <path fill-rule="evenodd"
            d="m43.8379 9.38819-2.9682 4.32191-2.9611-4.32191h-2.369l4.1386 5.78131-4.3501 6.0845H37.69l3.2009-4.5828 3.1656 4.5828h2.3619l-4.3501-6.0845 4.1385-5.80246-2.3689.02115Zm9.0104 1.55111c.3749-.0219.75.0416 1.0968.1857a2.483 2.483 0 0 1 .9055.6462c.4892.6612.7379 1.4696.705 2.2914h-5.746a3.97594 3.97594 0 0 1 .9236-2.2632 2.73528 2.73528 0 0 1 2.1151-.8601Zm0-1.76967a4.76563 4.76563 0 0 0-2.1108.40648 4.7657 4.7657 0 0 0-1.7176 1.29269 6.91597 6.91597 0 0 0-1.41 4.5475c-.0958 1.6253.4512 3.2231 1.5228 4.4487.542.5552 1.1954.9893 1.9172 1.2737a5.49367 5.49367 0 0 0 2.2708.3761c.6834.011 1.3661-.048 2.0375-.1762a9.78366 9.78366 0 0 0 1.7908-.5852l.0917-.0423v-1.9177l-.2116.0916a9.26957 9.26957 0 0 1-3.645.7685c-.487.029-.9745-.0459-1.4304-.2197a3.44101 3.44101 0 0 1-1.2135-.7885 4.3779 4.3779 0 0 1-.987-2.8201h7.981V14.542a5.64059 5.64059 0 0 0-1.3043-3.8847 4.55404 4.55404 0 0 0-1.5997-1.12816 4.55457 4.55457 0 0 0-1.9255-.35246m13.1912 0a5.06898 5.06898 0 0 0-2.2349.48647 3.82774 3.82774 0 0 0-1.4101 1.17035L62.19 9.42344h-1.7626V21.2751h2.0587v-6.2325a4.8656 4.8656 0 0 1 .8108-3.1445c.3286-.3378.7278-.599 1.1689-.7647a3.19942 3.19942 0 0 1 1.3834-.1941 2.4886 2.4886 0 0 1 1.9106.6486c.4466.573.6628 1.2922.6063 2.0164v7.6708h2.0587v-7.706a4.45524 4.45524 0 0 0-.2108-1.7812 4.4569 4.4569 0 0 0-.8961-1.5537 4.55458 4.55458 0 0 0-3.2572-1.05047M78.2649 19.7593a2.59555 2.59555 0 0 1-1.2734-.243 2.5942 2.5942 0 0 1-.9969-.8287 5.58414 5.58414 0 0 1-.7896-3.2643 5.8237 5.8237 0 0 1 .7967-3.2996c.2365-.3771.5683-.6852.962-.8932.3936-.208.8351-.3084 1.28-.2912.4648-.0417.9329.0266 1.3665.1993.4336.1727.8204.4449 1.1293.7948.5218.6698.7897 1.826.7897 3.4194v.3737a4.8152 4.8152 0 0 1-.7756 3.0598 3.06707 3.06707 0 0 1-1.1383.7489 3.06749 3.06749 0 0 1-1.3504.1818v.0423Zm3.2643-10.32176.0423.82486.0493.5218a4.87745 4.87745 0 0 0-1.6511-1.16791 4.8788 4.8788 0 0 0-3.9568.04242 4.88033 4.88033 0 0 0-1.6258 1.20299 7.14978 7.14978 0 0 0-1.3043 4.5405 6.9869 6.9869 0 0 0 1.3043 4.5192 4.46248 4.46248 0 0 0 1.6384 1.2269c.6338.2766 1.3232.402 2.0137.3665.6911.0385 1.3812-.09 2.012-.3747a4.30839 4.30839 0 0 0 1.6119-1.261l.2186 1.4101h1.7062V4.52344h-2.0587v4.9141Zm6.5216-4.30777a1.19145 1.19145 0 0 0-.8461.31727 1.3247 1.3247 0 0 0-.2747.44002 1.32586 1.32586 0 0 0-.0849.51178c-.0137.17889.0093.3587.0674.52842.0582.16973.1505.32579.2711.45863a1.149 1.149 0 0 0 .846.33841c.31.00267.6087-.11629.8319-.33136a1.32447 1.32447 0 0 0 .2794-.46048c.0607-.171.0856-.35262.0732-.53362a1.29788 1.29788 0 0 0-.0722-.53072 1.29716 1.29716 0 0 0-.2804-.45634 1.17727 1.17727 0 0 0-.8319-.32431M86.9932 21.3033h2.0517V9.38819h-2.0517V21.3033Zm10.921-1.7414c-.22.0597-.4437.1045-.6698.1339a5.09 5.09 0 0 1-.8742.0705 1.5861 1.5861 0 0 1-1.255-.5076 2.22817 2.22817 0 0 1-.4583-1.5088v-6.6978H98.02V9.38819h-3.3631V6.70905h-1.2831l-.7474 2.51698-1.692.70504v1.09283h1.6638v6.7401c0 2.4536 1.1845 3.6944 3.5252 3.6944a6.30096 6.30096 0 0 0 1.0223-.0916c.3034-.0391.5999-.1198.8813-.2397l.0846-.0424v-1.6074l-.1903.0564-.0071.0282Z"
            clip-rule="evenodd" />
    </g>
    <defs>
        <clipPath id="a-xen">
            <path fill="#fff" d="M.83008.36377h97.295v28.1239H.83008z" />
        </clipPath>
    </defs>
</svg>