<svg xmlns="http://www.w3.org/2000/svg" fill="none" viewBox="0 0 48 48">
    <g clip-path="url(#a-zee)">
        <mask id="b-zee" width="48" height="47" x="0" y="1" maskUnits="userSpaceOnUse" style="mask-type:luminance">
            <path fill="#fff" d="M.9795 47.8306h46.7662V1.06576H.9795V47.8306Z" />
        </mask>
        <g fill="#5B5B5B" mask="url(#b-zee)">
            <path
                d="M24.3619 2.61924V1.06578C11.4481 1.06578.9795 11.5343.9795 24.4482c0 12.9138 10.4686 23.3824 23.3824 23.3824v-1.5535c-8.3835-.0076-16.37412-4.873-19.96755-13.0394-4.85443-11.0322.1538-23.91089 11.18595-28.76498 2.8602-1.25859 5.845-1.85417 8.7816-1.85348Z" />
            <path
                d="m16.2013 5.90138-.6272-1.42581C4.54191 9.32966-.46631 22.2084 4.38777 33.2405 9.2422 44.2727 22.1206 49.2809 33.1527 44.4265l-.6272-1.4258c-5.7053 2.5048-12.4851 2.3544-18.2947-.9999C4.53847 36.4049 1.21755 24.011 6.81344 14.3186c2.24193-3.8831 5.57486-6.74299 9.38786-8.41722Z" />
        </g>
        <path fill="#5B5B5B"
            d="m33.7184 8.24068.7752-1.34255C24.8009 1.30224 12.4073 4.62316 6.81106 14.3155c-5.5959 9.6927-2.27497 22.0867 7.41774 27.6825l.7772-1.3463c-1.5187-.8784-2.9369-1.9897-4.2058-3.3271-7.11154-7.4941-6.80154-19.3341.6922-26.4453 6.1533-5.83913 15.2363-6.67487 22.226-2.63862Z" />
        <path fill="#5B5B5B"
            d="m12.5561 12.0089-1.068-1.1255c-7.49411 7.1112-7.8079 18.9474-.6964 26.4412 7.1115 7.4937 18.9515 7.8041 26.4453.6926l-1.0718-1.1296c-3.9956 3.7847-9.7384 5.5821-15.516 4.3015-9.2457-2.0499-15.07904-11.2066-13.02944-20.452.76899-3.4685 2.53784-6.4564 4.93634-8.7282Z" />
        <path fill="#5B5B5B"
            d="m27.7356 9.23052.3375-1.52249C18.8274 5.65808 9.67074 11.4917 7.62113 20.7375c-2.04994 9.2454 3.78367 18.4024 13.02947 20.452l.3372-1.5215c-.0011 0-.0024-.0004-.0031-.0004-8.4052-1.8634-13.70832-10.1878-11.8452-18.5929 1.8635-8.4052 10.1878-13.70833 18.593-11.84487.001.00035.0021.00035.0031.00069Z" />
        <path fill="#727273"
            d="m41.9551 27.287.8529-.9988c.6283.5835 1.2906.9427 2.02.9427.9428 0 1.56-.5388 1.56-1.358v-.0224c0-.7968-.6733-1.3019-1.6274-1.3019-.5608 0-1.0436.1572-1.4475.3478l-.8306-.5498.2247-3.8494h4.691v1.2235h-3.5016l-.1235 1.8404c.3706-.1349.7184-.2247 1.2455-.2247 1.5263 0 2.7271.8082 2.7271 2.4694v.0224c0 1.6047-1.1671 2.6596-2.9063 2.6596-1.2008 0-2.1435-.4827-2.8843-1.2008ZM35.8105 26.8223h3.9475c.084-.5495.139-1.109.1641-1.6756l-4.1116.0199v1.6557ZM35.8105 22.0243v1.5992l4.1044-.0199a15.6319 15.6319 0 0 0-.1648-1.5793h-3.9396Z" />
        <path fill="#727273"
            d="M34.0884 28.3649v-7.8833h5.3403C37.6743 13.7937 31.5884 8.86009 24.35 8.86009c-8.6092 0-15.58828 6.97901-15.58828 15.58831 0 8.6092 6.97908 15.5882 15.58828 15.5882 7.2567 0 13.3549-4.9583 15.0921-11.6717h-5.3537Zm-9.9036-6.5659-4.3355 5.0454h4.3355v1.5205H17.619v-1.3178l4.3359-5.0454h-4.2007v-1.5201h6.4306v1.3174Zm7.8162.2254h-4.2795v1.5992h4.2795v1.5428h-4.2795v1.6557h4.2795v1.5428h-6.0026v-7.8833h6.0026v1.5428Z" />
    </g>
    <defs>
        <clipPath id="a-zee">
            <path fill="#fff" d="M.79297.92578h47v47h-47z" />
        </clipPath>
    </defs>
</svg>