<svg fill="none" xmlns="http://www.w3.org/2000/svg" viewBox="0 0 364 220">
    <g filter="url(#filter0_d_1945_34339)">
        <g filter="url(#filter1_i_1945_34339)">
            <path
                d="M20.71 102.595h321.926v8.406a4 4 0 0 1-2.162 3.553l-156.086 80.772a10 10 0 0 1-9.279-.046L22.837 114.563a4.001 4.001 0 0 1-2.126-3.535v-8.433Z"
                fill="url(#paint0_linear_1945_34339)" />
        </g>
        <path
            d="M20.71 102.595h321.926v8.406a4 4 0 0 1-2.162 3.553l-156.086 80.772a10 10 0 0 1-9.279-.046L22.837 114.563a4.001 4.001 0 0 1-2.126-3.535v-8.433Z"
            stroke="#E8E8E8" stroke-width=".5" />
        <g filter="url(#filter2_i_1945_34339)">
            <path
                d="M175.519 186.667 22.732 106.854c-2.848-1.488-2.867-5.559-.033-7.074l150.585-80.46a14.616 14.616 0 0 1 13.666-.059l153.811 80.503c2.875 1.505 2.856 5.627-.032 7.105l-156.025 79.837a9.999 9.999 0 0 1-9.185-.039Z"
                fill="url(#paint1_linear_1945_34339)" />
        </g>
        <path
            d="M175.519 186.667 22.732 106.854c-2.848-1.488-2.867-5.559-.033-7.074l150.585-80.46a14.616 14.616 0 0 1 13.666-.059l153.811 80.503c2.875 1.505 2.856 5.627-.032 7.105l-156.025 79.837a9.999 9.999 0 0 1-9.185-.039Z"
            stroke="#E8E8E8" stroke-width=".5" />
        <g style="mix-blend-mode:soft-light" filter="url(#filter3_di_1945_34339)">
            <path fill-rule="evenodd" clip-rule="evenodd"
                d="M183.002 66.093c9.227 1.575 19.062 4.86 27.562 10.222 8.065 5.088 14.403 11.872 18.024 18.417.64 1.156-.105 2.5-1.664 3.004-1.559.503-3.341-.026-3.981-1.182-3.273-5.915-9.059-12.11-16.37-16.723-7.704-4.86-16.652-7.853-25.048-9.285-1.635-.28-2.63-1.502-2.222-2.732.408-1.229 2.064-2 3.699-1.72Zm-2.071 7.893c7.819 1.533 16.168 4.996 22.224 8.816 6.066 3.827 11.846 9.283 15.164 14.77 3.694 6.111 5.252 12.584 4.537 18.596-.15 1.257-1.632 2.208-3.31 2.123-1.678-.085-2.917-1.174-2.768-2.432.613-5.152-.714-10.85-4.028-16.332-2.914-4.82-8.119-9.76-13.586-13.208-5.476-3.455-13.049-6.572-19.897-7.915-7.463-1.463-15.681-1.427-22.247-.133-1.638.323-3.287-.403-3.683-1.622-.397-1.219.609-2.468 2.247-2.791 7.638-1.505 16.924-1.523 25.347.128Zm14.706 14.996c11.986 7.411 17.066 18.618 14.726 28.639-1.228 5.259-4.279 9.401-7.699 12.414-5.824 5.132-15.607 4.453-21.129.97-2.765-1.745-5.064-4.162-5.857-6.984-.818-2.907.027-6.049 3.124-8.947 1.855-1.736 2.111-3.499 1.568-5.13-.573-1.721-2.056-3.294-3.624-4.284-4.268-2.692-9.955-2.175-12.548.109-2.161 1.905-4.411 5.074-5.385 7.497-.987 2.456-1.475 5.731-1.076 8.153l.004.029.004.029c.529 4.073 2.081 8.382 6.502 12.811.998 1 .707 2.433-.651 3.201-1.358.768-3.267.581-4.265-.419-5.201-5.209-7.041-10.339-7.655-15.027-.51-3.144.109-7.051 1.297-10.006 1.204-2.997 3.852-6.749 6.61-9.179 5.187-4.57 14.813-4.714 21.153-.714 2.379 1.501 4.638 3.848 5.557 6.609.948 2.85.444 6.128-2.757 9.124-1.958 1.834-2.319 3.572-1.886 5.114.458 1.628 1.868 3.231 3.876 4.497 3.665 2.312 9.456 2.337 12.522-.364 2.772-2.442 5.286-5.831 6.305-10.195 1.955-8.375-2.283-17.985-12.662-24.403-9.007-5.57-22.152-8.348-34.058-5.197-5.075 1.343-9.548 3.714-13.013 6.958-4.77 4.464-6.011 6.817-7.954 10.809-.581 1.193-2.334 1.828-3.916 1.419-1.581-.409-2.393-1.707-1.812-2.9 2.079-4.271 3.606-7.133 8.947-12.132 4.194-3.926 9.64-6.819 15.823-8.455 14.363-3.8 29.682-.383 39.929 5.954Zm-45.174 7.614c9.214-8.097 26.677-8.002 37.735-1.026 10.997 6.937 15.131 19.444 4.68 28.652-1.102.971-3.028 1.107-4.303.302-1.275-.804-1.414-2.243-.312-3.214 7.647-6.738 5.144-16.42-4.056-22.224-9.131-5.76-22.639-5.296-29.147.439l-.018.016-.019.015c-3.708 3.152-6.505 6.627-8.027 11.273-1.553 4.741-1.441 8.697-.855 11.888.228 1.245-.94 2.415-2.609 2.612-1.67.198-3.208-.652-3.437-1.897-.669-3.647-.794-8.195.976-13.6 1.799-5.491 5.145-9.623 9.392-13.236Zm22.971 11.982c1.274.804 1.414 2.243.312 3.214-2.155 1.899-3.513 4.13-4.16 6.668-.623 2.443-.346 4.663.719 7.107 1.719 3.407 3.429 5.278 6.903 7.356l.017.01.016.01c1.356.835 3.026 1.744 4.456 2.362 1.445.626 1.914 2.02 1.047 3.115-.867 1.094-2.741 1.475-4.186.85-1.788-.774-3.722-1.835-5.238-2.767-4.431-2.653-6.712-5.231-8.755-9.294l-.022-.044-.02-.046c-1.351-3.077-1.779-6.094-.93-9.421.827-3.247 2.612-6.24 5.537-8.817 1.102-.971 3.029-1.107 4.304-.303Z"
                fill="#fff" />
        </g>
        <g filter="url(#filter4_i_1945_34339)">
            <path fill-rule="evenodd" clip-rule="evenodd"
                d="M183.002 66.093c9.227 1.575 19.062 4.86 27.562 10.222 8.065 5.088 14.403 11.872 18.024 18.417.64 1.156-.105 2.5-1.664 3.004-1.559.503-3.341-.026-3.981-1.182-3.273-5.915-9.059-12.11-16.37-16.723-7.704-4.86-16.652-7.853-25.048-9.285-1.635-.28-2.63-1.502-2.222-2.732.408-1.229 2.064-2 3.699-1.72Zm-2.071 7.893c7.819 1.533 16.168 4.996 22.224 8.816 6.066 3.827 11.846 9.283 15.164 14.77 3.694 6.111 5.252 12.584 4.537 18.596-.15 1.257-1.632 2.208-3.31 2.123-1.678-.085-2.917-1.174-2.768-2.432.613-5.152-.714-10.85-4.028-16.332-2.914-4.82-8.119-9.76-13.586-13.208-5.476-3.455-13.049-6.572-19.897-7.915-7.463-1.463-15.681-1.427-22.247-.133-1.638.323-3.287-.403-3.683-1.622-.397-1.219.609-2.468 2.247-2.791 7.638-1.505 16.924-1.523 25.347.128Zm14.706 14.996c11.986 7.411 17.066 18.618 14.726 28.639-1.228 5.259-4.279 9.401-7.699 12.414-5.824 5.132-15.607 4.453-21.129.97-2.765-1.745-5.064-4.162-5.857-6.984-.818-2.907.027-6.049 3.124-8.947 1.855-1.736 2.111-3.499 1.568-5.13-.573-1.721-2.056-3.294-3.624-4.284-4.268-2.692-9.955-2.175-12.548.109-2.161 1.905-4.411 5.074-5.385 7.497-.987 2.456-1.475 5.731-1.076 8.153l.004.029.004.029c.529 4.073 2.081 8.382 6.502 12.811.998 1 .707 2.433-.651 3.201-1.358.768-3.267.581-4.265-.419-5.201-5.209-7.041-10.339-7.655-15.027-.51-3.144.109-7.051 1.297-10.006 1.204-2.997 3.852-6.749 6.61-9.179 5.187-4.57 14.813-4.714 21.153-.714 2.379 1.501 4.638 3.848 5.557 6.609.948 2.85.444 6.128-2.757 9.124-1.958 1.834-2.319 3.572-1.886 5.114.458 1.628 1.868 3.231 3.876 4.497 3.665 2.312 9.456 2.337 12.522-.364 2.772-2.442 5.286-5.831 6.305-10.195 1.955-8.375-2.283-17.985-12.662-24.403-9.007-5.57-22.152-8.348-34.058-5.197-5.075 1.343-9.548 3.714-13.013 6.958-4.77 4.464-6.011 6.817-7.954 10.809-.581 1.193-2.334 1.828-3.916 1.419-1.581-.409-2.393-1.707-1.812-2.9 2.079-4.271 3.606-7.133 8.947-12.132 4.194-3.926 9.64-6.819 15.823-8.455 14.363-3.8 29.682-.383 39.929 5.954Zm-45.174 7.614c9.214-8.097 26.677-8.002 37.735-1.026 10.997 6.937 15.131 19.444 4.68 28.652-1.102.971-3.028 1.107-4.303.302-1.275-.804-1.414-2.243-.312-3.214 7.647-6.738 5.144-16.42-4.056-22.224-9.131-5.76-22.639-5.296-29.147.439l-.018.016-.019.015c-3.708 3.152-6.505 6.627-8.027 11.273-1.553 4.741-1.441 8.697-.855 11.888.228 1.245-.94 2.415-2.609 2.612-1.67.198-3.208-.652-3.437-1.897-.669-3.647-.794-8.195.976-13.6 1.799-5.491 5.145-9.623 9.392-13.236Zm22.971 11.982c1.274.804 1.414 2.243.312 3.214-2.155 1.899-3.513 4.13-4.16 6.668-.623 2.443-.346 4.663.719 7.107 1.719 3.407 3.429 5.278 6.903 7.356l.017.01.016.01c1.356.835 3.026 1.744 4.456 2.362 1.445.626 1.914 2.02 1.047 3.115-.867 1.094-2.741 1.475-4.186.85-1.788-.774-3.722-1.835-5.238-2.767-4.431-2.653-6.712-5.231-8.755-9.294l-.022-.044-.02-.046c-1.351-3.077-1.779-6.094-.93-9.421.827-3.247 2.612-6.24 5.537-8.817 1.102-.971 3.029-1.107 4.304-.303Z"
                fill="#fff" />
        </g>
    </g>
    <defs>
        <filter id="filter0_d_1945_34339" x=".334" y=".593" width="362.822" height="219.35" filterUnits="userSpaceOnUse"
            color-interpolation-filters="sRGB">
            <feFlood flood-opacity="0" result="BackgroundImageFix" />
            <feColorMatrix in="SourceAlpha" values="0 0 0 0 0 0 0 0 0 0 0 0 0 0 0 0 0 0 127 0" result="hardAlpha" />
            <feOffset dy="3.248" />
            <feGaussianBlur stdDeviation="10" />
            <feComposite in2="hardAlpha" operator="out" />
            <feColorMatrix values="0 0 0 0 1 0 0 0 0 1 0 0 0 0 1 0 0 0 0.25 0" />
            <feBlend in2="BackgroundImageFix" result="effect1_dropShadow_1945_34339" />
            <feBlend in="SourceGraphic" in2="effect1_dropShadow_1945_34339" result="shape" />
        </filter>
        <filter id="filter1_i_1945_34339" x="20.461" y="102.345" width="322.425" height="94.35"
            filterUnits="userSpaceOnUse" color-interpolation-filters="sRGB">
            <feFlood flood-opacity="0" result="BackgroundImageFix" />
            <feBlend in="SourceGraphic" in2="BackgroundImageFix" result="shape" />
            <feColorMatrix in="SourceAlpha" values="0 0 0 0 0 0 0 0 0 0 0 0 0 0 0 0 0 0 127 0" result="hardAlpha" />
            <feOffset dx=".843" dy=".843" />
            <feComposite in2="hardAlpha" operator="arithmetic" k2="-1" k3="1" />
            <feColorMatrix values="0 0 0 0 0.758333 0 0 0 0 0.758333 0 0 0 0 0.758333 0 0 0 1 0" />
            <feBlend in2="shape" result="effect1_innerShadow_1945_34339" />
        </filter>
        <filter id="filter2_i_1945_34339" x="20.334" y="17.345" width="322.822" height="170.709"
            filterUnits="userSpaceOnUse" color-interpolation-filters="sRGB">
            <feFlood flood-opacity="0" result="BackgroundImageFix" />
            <feBlend in="SourceGraphic" in2="BackgroundImageFix" result="shape" />
            <feColorMatrix in="SourceAlpha" values="0 0 0 0 0 0 0 0 0 0 0 0 0 0 0 0 0 0 127 0" result="hardAlpha" />
            <feOffset dx=".843" dy=".843" />
            <feComposite in2="hardAlpha" operator="arithmetic" k2="-1" k3="1" />
            <feColorMatrix values="0 0 0 0 0.658824 0 0 0 0 0.647059 0 0 0 0 0.647059 0 0 0 1 0" />
            <feBlend in2="shape" result="effect1_innerShadow_1945_34339" />
        </filter>
        <filter id="filter3_di_1945_34339" x="113.382" y="52.142" width="132.802" height="108.269"
            filterUnits="userSpaceOnUse" color-interpolation-filters="sRGB">
            <feFlood flood-opacity="0" result="BackgroundImageFix" />
            <feColorMatrix in="SourceAlpha" values="0 0 0 0 0 0 0 0 0 0 0 0 0 0 0 0 0 0 127 0" result="hardAlpha" />
            <feOffset dy="3.473" />
            <feGaussianBlur stdDeviation="8.684" />
            <feComposite in2="hardAlpha" operator="out" />
            <feColorMatrix values="0 0 0 0 0.45 0 0 0 0 0.45 0 0 0 0 0.45 0 0 0 0.2 0" />
            <feBlend in2="BackgroundImageFix" result="effect1_dropShadow_1945_34339" />
            <feBlend in="SourceGraphic" in2="effect1_dropShadow_1945_34339" result="shape" />
            <feColorMatrix in="SourceAlpha" values="0 0 0 0 0 0 0 0 0 0 0 0 0 0 0 0 0 0 127 0" result="hardAlpha" />
            <feOffset dx="-.841" dy=".841" />
            <feGaussianBlur stdDeviation=".841" />
            <feComposite in2="hardAlpha" operator="arithmetic" k2="-1" k3="1" />
            <feColorMatrix values="0 0 0 0 0.320833 0 0 0 0 0.320833 0 0 0 0 0.320833 0 0 0 0.25 0" />
            <feBlend in2="shape" result="effect2_innerShadow_1945_34339" />
        </filter>
        <filter id="filter4_i_1945_34339" x="129.909" y="66.036" width="98.909" height="74.376"
            filterUnits="userSpaceOnUse" color-interpolation-filters="sRGB">
            <feFlood flood-opacity="0" result="BackgroundImageFix" />
            <feBlend in="SourceGraphic" in2="BackgroundImageFix" result="shape" />
            <feColorMatrix in="SourceAlpha" values="0 0 0 0 0 0 0 0 0 0 0 0 0 0 0 0 0 0 127 0" result="hardAlpha" />
            <feOffset dx="-.841" dy=".841" />
            <feGaussianBlur stdDeviation=".841" />
            <feComposite in2="hardAlpha" operator="arithmetic" k2="-1" k3="1" />
            <feColorMatrix values="0 0 0 0 0.616667 0 0 0 0 0.616667 0 0 0 0 0.616667 0 0 0 1 0" />
            <feBlend in2="shape" result="effect1_innerShadow_1945_34339" />
        </filter>
        <linearGradient id="paint0_linear_1945_34339" x1="61.616" y1="156.243" x2="294.813" y2="211.459"
            gradientUnits="userSpaceOnUse">
            <stop stop-color="#B3B3B3" />
            <stop offset=".367" stop-color="#A4A4A4" />
            <stop offset=".521" stop-color="#C1C1C1" />
            <stop offset=".654" stop-color="#A4A4A4" />
            <stop offset="1" stop-color="#A4A4A4" />
        </linearGradient>
        <linearGradient id="paint1_linear_1945_34339" x1="149.291" y1="27.378" x2="181.816" y2="189.061"
            gradientUnits="userSpaceOnUse">
            <stop stop-color="#B3B3B3" />
            <stop offset=".245" stop-color="#A8A4A4" />
            <stop offset="1" stop-color="#A4A4A4" />
        </linearGradient>
    </defs>
</svg>