<svg fill="none" xmlns="http://www.w3.org/2000/svg" viewBox="0 0 263 178">
    <g filter="url(#filter0_d_1439_34430)">
        <g filter="url(#filter1_i_1439_34430)">
            <path
                d="M14.798 83.282H248.18v6.53c0 1.02-.538 1.965-1.415 2.486L133.827 159.46a7.234 7.234 0 0 1-7.46-.039L16.187 92.303a2.893 2.893 0 0 1-1.389-2.471v-6.55Z"
                fill="url(#paint0_linear_1439_34430)" />
        </g>
        <path
            d="M14.798 83.282H248.18v6.53c0 1.02-.538 1.965-1.415 2.486L133.827 159.46a7.234 7.234 0 0 1-7.46-.039L16.187 92.303a2.893 2.893 0 0 1-1.389-2.471v-6.55Z"
            stroke="#E8E8E8" stroke-width=".362" />
        <g filter="url(#filter2_i_1439_34430)">
            <path
                d="M126.639 152.27 16.257 85.785c-1.85-1.114-1.863-3.792-.025-4.924l108.619-66.918a10.534 10.534 0 0 1 10.968-.05l110.949 66.954c1.868 1.128 1.855 3.842-.025 4.95L134.02 152.305a7.207 7.207 0 0 1-7.381-.034Z"
                fill="url(#paint1_linear_1439_34430)" />
        </g>
        <path
            d="M126.639 152.27 16.257 85.785c-1.85-1.114-1.863-3.792-.025-4.924l108.619-66.918a10.534 10.534 0 0 1 10.968-.05l110.949 66.954c1.868 1.128 1.855 3.842-.025 4.95L134.02 152.305a7.207 7.207 0 0 1-7.381-.034Z"
            stroke="#E8E8E8" stroke-width=".36" />
        <g style="mix-blend-mode:soft-light" filter="url(#filter3_di_1439_34430)">
            <path fill-rule="evenodd" clip-rule="evenodd"
                d="M131.623 51.699c6.584 1.435 13.546 4.298 19.476 8.868 5.628 4.337 9.954 10.057 12.334 15.542.421.968-.162 2.075-1.3 2.47-1.139.397-2.403-.067-2.823-1.035-2.152-4.957-6.101-10.181-11.202-14.112-5.375-4.142-11.71-6.751-17.701-8.057-1.166-.254-1.84-1.283-1.504-2.299.335-1.015 1.553-1.632 2.72-1.377Zm-1.761 6.524c5.572 1.382 11.459 4.372 15.685 7.628 4.232 3.262 8.203 7.872 10.401 12.474 2.448 5.125 3.346 10.521 2.625 15.502-.151 1.043-1.25 1.812-2.454 1.718-1.205-.094-2.059-1.015-1.908-2.058.618-4.27-.141-9.019-2.336-13.616-1.931-4.043-5.506-8.216-9.32-11.155-3.821-2.944-9.162-5.638-14.042-6.847-5.319-1.319-11.232-1.402-16-.419-1.19.245-2.351-.38-2.594-1.398-.244-1.017.523-2.04 1.712-2.286 5.547-1.144 12.228-1.03 18.231.457Zm10.064 12.655c8.368 6.32 11.637 15.695 9.609 23.983-1.064 4.35-3.401 7.747-5.965 10.201-4.367 4.181-11.381 3.482-15.234.513-1.929-1.487-3.499-3.526-3.973-5.88-.488-2.425.228-5.022 2.555-7.386 1.394-1.415 1.638-2.875 1.304-4.237-.353-1.437-1.365-2.764-2.46-3.607-2.978-2.295-7.087-1.944-9.03-.083-1.621 1.55-3.348 4.151-4.132 6.15-.794 2.025-1.258 4.738-1.055 6.754l.003.024.001.024c.241 3.389 1.209 6.989 4.238 10.727.683.844.424 2.03-.579 2.649-1.003.619-2.37.437-3.054-.407-3.562-4.397-4.71-8.682-4.99-12.583-.259-2.617.321-5.852 1.277-8.29.969-2.472 3.003-5.55 5.07-7.53 3.889-3.723 10.819-3.709 15.243-.3 1.66 1.28 3.204 3.26 3.77 5.564.584 2.38.109 5.095-2.297 7.539-1.472 1.495-1.791 2.933-1.532 4.22.273 1.357 1.232 2.708 2.633 3.787 2.557 1.971 6.723 2.071 9.021-.129 2.078-1.989 4.003-4.768 4.886-8.378 1.695-6.926-1.023-14.964-8.27-20.437-6.288-4.75-15.649-7.238-24.323-4.787-3.697 1.045-6.996 2.952-9.601 5.597-3.584 3.64-4.558 5.578-6.093 8.866-.459.982-1.742 1.485-2.865 1.123-1.124-.361-1.664-1.45-1.205-2.433 1.643-3.518 2.84-5.872 6.854-9.95 3.152-3.2 7.169-5.528 11.673-6.8 10.464-2.957 21.367.093 28.521 5.496Zm-32.76 5.697c6.907-6.596 19.467-6.275 27.182-.33 7.672 5.912 10.217 16.355 2.382 23.855-.826.791-2.217.877-3.106.192-.89-.686-.941-1.882-.115-2.673 5.734-5.49 4.266-13.563-2.153-18.51-6.371-4.91-16.105-4.71-20.984-.04l-.013.014-.014.013c-2.777 2.565-4.908 5.412-6.162 9.249-1.28 3.914-1.336 7.2-1.025 9.858.122 1.037-.758 1.992-1.966 2.133-1.208.141-2.286-.586-2.407-1.623-.356-3.037-.29-6.815 1.17-11.278 1.482-4.535 4.031-7.919 7.211-10.86Zm16.113 10.267c.889.685.941 1.882.114 2.673a11.489 11.489 0 0 0-3.222 5.478c-.532 2.02-.408 3.868.273 5.911 1.12 2.853 2.286 4.43 4.714 6.204l.011.008.011.009c.947.711 2.118 1.489 3.125 2.023 1.018.539 1.307 1.703.646 2.6-.661.897-2.022 1.187-3.04.648-1.26-.668-2.615-1.575-3.673-2.369-3.097-2.265-4.649-4.437-5.979-7.839l-.015-.037-.013-.038c-.865-2.574-1.07-5.084-.345-7.836.707-2.684 2.094-5.144 4.287-7.244.826-.79 2.217-.877 3.106-.191Z"
                fill="#fff" />
        </g>
        <g filter="url(#filter4_i_1439_34430)">
            <path fill-rule="evenodd" clip-rule="evenodd"
                d="M131.623 51.699c6.584 1.435 13.546 4.298 19.476 8.868 5.628 4.337 9.954 10.057 12.334 15.542.421.968-.162 2.075-1.3 2.47-1.139.397-2.403-.067-2.823-1.035-2.152-4.957-6.101-10.181-11.202-14.112-5.375-4.142-11.71-6.751-17.701-8.057-1.166-.254-1.84-1.283-1.504-2.299.335-1.015 1.553-1.632 2.72-1.377Zm-1.761 6.524c5.572 1.382 11.459 4.372 15.685 7.628 4.232 3.262 8.203 7.872 10.401 12.474 2.448 5.125 3.346 10.521 2.625 15.502-.151 1.043-1.25 1.812-2.454 1.718-1.205-.094-2.059-1.015-1.908-2.058.618-4.27-.141-9.019-2.336-13.616-1.931-4.043-5.506-8.216-9.32-11.155-3.821-2.944-9.162-5.638-14.042-6.847-5.319-1.319-11.232-1.402-16-.419-1.19.245-2.351-.38-2.594-1.398-.244-1.017.523-2.04 1.712-2.286 5.547-1.144 12.228-1.03 18.231.457Zm10.064 12.655c8.368 6.32 11.637 15.695 9.609 23.983-1.064 4.35-3.401 7.747-5.965 10.201-4.367 4.181-11.381 3.482-15.234.513-1.929-1.487-3.499-3.526-3.973-5.88-.488-2.425.228-5.022 2.555-7.386 1.394-1.415 1.638-2.875 1.304-4.237-.353-1.437-1.365-2.764-2.46-3.607-2.978-2.295-7.087-1.944-9.03-.083-1.621 1.55-3.348 4.151-4.132 6.15-.794 2.025-1.258 4.738-1.055 6.754l.003.024.001.024c.241 3.389 1.209 6.989 4.238 10.727.683.844.424 2.03-.579 2.649-1.003.619-2.37.437-3.054-.407-3.562-4.397-4.71-8.682-4.99-12.583-.259-2.617.321-5.852 1.277-8.29.969-2.472 3.003-5.55 5.07-7.53 3.889-3.723 10.819-3.709 15.243-.3 1.66 1.28 3.204 3.26 3.77 5.564.584 2.38.109 5.095-2.297 7.539-1.472 1.495-1.791 2.933-1.532 4.22.273 1.357 1.232 2.708 2.633 3.787 2.557 1.971 6.723 2.071 9.021-.129 2.078-1.989 4.003-4.768 4.886-8.378 1.695-6.926-1.023-14.964-8.27-20.437-6.288-4.75-15.649-7.238-24.323-4.787-3.697 1.045-6.996 2.952-9.601 5.597-3.584 3.64-4.558 5.578-6.093 8.866-.459.982-1.742 1.485-2.865 1.123-1.124-.361-1.664-1.45-1.205-2.433 1.643-3.518 2.84-5.872 6.854-9.95 3.152-3.2 7.169-5.528 11.673-6.8 10.464-2.957 21.367.093 28.521 5.496Zm-32.76 5.697c6.907-6.596 19.467-6.275 27.182-.33 7.672 5.912 10.217 16.355 2.382 23.855-.826.791-2.217.877-3.106.192-.89-.686-.941-1.882-.115-2.673 5.734-5.49 4.266-13.563-2.153-18.51-6.371-4.91-16.105-4.71-20.984-.04l-.013.014-.014.013c-2.777 2.565-4.908 5.412-6.162 9.249-1.28 3.914-1.336 7.2-1.025 9.858.122 1.037-.758 1.992-1.966 2.133-1.208.141-2.286-.586-2.407-1.623-.356-3.037-.29-6.815 1.17-11.278 1.482-4.535 4.031-7.919 7.211-10.86Zm16.113 10.267c.889.685.941 1.882.114 2.673a11.489 11.489 0 0 0-3.222 5.478c-.532 2.02-.408 3.868.273 5.911 1.12 2.853 2.286 4.43 4.714 6.204l.011.008.011.009c.947.711 2.118 1.489 3.125 2.023 1.018.539 1.307 1.703.646 2.6-.661.897-2.022 1.187-3.04.648-1.26-.668-2.615-1.575-3.673-2.369-3.097-2.265-4.649-4.437-5.979-7.839l-.015-.037-.013-.038c-.865-2.574-1.07-5.084-.345-7.836.707-2.684 2.094-5.144 4.287-7.244.826-.79 2.217-.877 3.106-.191Z"
                fill="#fff" />
        </g>
    </g>
    <defs>
        <filter id="filter0_d_1439_34430" x=".204" y=".124" width="262.571" height="177.287"
            filterUnits="userSpaceOnUse" color-interpolation-filters="sRGB">
            <feFlood flood-opacity="0" result="BackgroundImageFix" />
            <feColorMatrix in="SourceAlpha" values="0 0 0 0 0 0 0 0 0 0 0 0 0 0 0 0 0 0 127 0" result="hardAlpha" />
            <feOffset dy="2.341" />
            <feGaussianBlur stdDeviation="7.207" />
            <feComposite in2="hardAlpha" operator="out" />
            <feColorMatrix values="0 0 0 0 1 0 0 0 0 1 0 0 0 0 1 0 0 0 0.25 0" />
            <feBlend in2="BackgroundImageFix" result="effect1_dropShadow_1439_34430" />
            <feBlend in="SourceGraphic" in2="effect1_dropShadow_1439_34430" result="shape" />
        </filter>
        <filter id="filter1_i_1439_34430" x="14.618" y="83.102" width="233.743" height="77.555"
            filterUnits="userSpaceOnUse" color-interpolation-filters="sRGB">
            <feFlood flood-opacity="0" result="BackgroundImageFix" />
            <feBlend in="SourceGraphic" in2="BackgroundImageFix" result="shape" />
            <feColorMatrix in="SourceAlpha" values="0 0 0 0 0 0 0 0 0 0 0 0 0 0 0 0 0 0 127 0" result="hardAlpha" />
            <feOffset dx=".61" dy=".61" />
            <feComposite in2="hardAlpha" operator="arithmetic" k2="-1" k3="1" />
            <feColorMatrix values="0 0 0 0 0.758333 0 0 0 0 0.758333 0 0 0 0 0.758333 0 0 0 1 0" />
            <feBlend in2="shape" result="effect1_innerShadow_1439_34430" />
        </filter>
        <filter id="filter2_i_1439_34430" x="14.681" y="12.197" width="233.66" height="141.286"
            filterUnits="userSpaceOnUse" color-interpolation-filters="sRGB">
            <feFlood flood-opacity="0" result="BackgroundImageFix" />
            <feBlend in="SourceGraphic" in2="BackgroundImageFix" result="shape" />
            <feColorMatrix in="SourceAlpha" values="0 0 0 0 0 0 0 0 0 0 0 0 0 0 0 0 0 0 127 0" result="hardAlpha" />
            <feOffset dx=".607" dy=".607" />
            <feComposite in2="hardAlpha" operator="arithmetic" k2="-1" k3="1" />
            <feColorMatrix values="0 0 0 0 0.658824 0 0 0 0 0.647059 0 0 0 0 0.647059 0 0 0 1 0" />
            <feBlend in2="shape" result="effect1_innerShadow_1439_34430" />
        </filter>
        <filter id="filter3_di_1439_34430" x="80.198" y="41.628" width="95.889" height="86.058"
            filterUnits="userSpaceOnUse" color-interpolation-filters="sRGB">
            <feFlood flood-opacity="0" result="BackgroundImageFix" />
            <feColorMatrix in="SourceAlpha" values="0 0 0 0 0 0 0 0 0 0 0 0 0 0 0 0 0 0 127 0" result="hardAlpha" />
            <feOffset dy="2.503" />
            <feGaussianBlur stdDeviation="6.258" />
            <feComposite in2="hardAlpha" operator="out" />
            <feColorMatrix values="0 0 0 0 0.45 0 0 0 0 0.45 0 0 0 0 0.45 0 0 0 0.2 0" />
            <feBlend in2="BackgroundImageFix" result="effect1_dropShadow_1439_34430" />
            <feBlend in="SourceGraphic" in2="effect1_dropShadow_1439_34430" result="shape" />
            <feColorMatrix in="SourceAlpha" values="0 0 0 0 0 0 0 0 0 0 0 0 0 0 0 0 0 0 127 0" result="hardAlpha" />
            <feOffset dx="-.606" dy=".606" />
            <feGaussianBlur stdDeviation=".606" />
            <feComposite in2="hardAlpha" operator="arithmetic" k2="-1" k3="1" />
            <feColorMatrix values="0 0 0 0 0.320833 0 0 0 0 0.320833 0 0 0 0 0.320833 0 0 0 0.25 0" />
            <feBlend in2="shape" result="effect2_innerShadow_1439_34430" />
        </filter>
        <filter id="filter4_i_1439_34430" x="92.108" y="51.642" width="71.462" height="61.632"
            filterUnits="userSpaceOnUse" color-interpolation-filters="sRGB">
            <feFlood flood-opacity="0" result="BackgroundImageFix" />
            <feBlend in="SourceGraphic" in2="BackgroundImageFix" result="shape" />
            <feColorMatrix in="SourceAlpha" values="0 0 0 0 0 0 0 0 0 0 0 0 0 0 0 0 0 0 127 0" result="hardAlpha" />
            <feOffset dx="-.606" dy=".606" />
            <feGaussianBlur stdDeviation=".606" />
            <feComposite in2="hardAlpha" operator="arithmetic" k2="-1" k3="1" />
            <feColorMatrix values="0 0 0 0 0.616667 0 0 0 0 0.616667 0 0 0 0 0.616667 0 0 0 1 0" />
            <feBlend in2="shape" result="effect1_innerShadow_1439_34430" />
        </filter>
        <linearGradient id="paint0_linear_1439_34430" x1="44.453" y1="127.12" x2="215.717" y2="162.408"
            gradientUnits="userSpaceOnUse">
            <stop stop-color="#B3B3B3" />
            <stop offset=".367" stop-color="#A4A4A4" />
            <stop offset=".521" stop-color="#C1C1C1" />
            <stop offset=".654" stop-color="#A4A4A4" />
            <stop offset="1" stop-color="#A4A4A4" />
        </linearGradient>
        <linearGradient id="paint1_linear_1439_34430" x1="108.14" y1="20.286" x2="138.873" y2="152.789"
            gradientUnits="userSpaceOnUse">
            <stop stop-color="#B3B3B3" />
            <stop offset=".245" stop-color="#A8A4A4" />
            <stop offset=".49" stop-color="#A4A4A4" />
            <stop offset=".691" stop-color="#C1C1C1" />
            <stop offset="1" stop-color="#A4A4A4" />
        </linearGradient>
    </defs>
</svg>