<svg fill="none" xmlns="http://www.w3.org/2000/svg" viewBox="0 0 250 226">
    <path d="M176.7 73 247 11.7" stroke="#FF5D22" stroke-width="3" />
    <path
        d="M245.5 10.6 144.7 36.1a2 2 0 0 0-.3 3.8l24.7 9.3a2 2 0 0 1 1.2 1.6l3 21.4c.3 2 3.1 2.3 3.9.5l7.4-17.6a2 2 0 0 1 2.7-1L228 72.6a2 2 0 0 0 2.8-1.3l17.1-58.3a2 2 0 0 0-2.4-2.5Z"
        fill="#fff" />
    <path
        d="M245.5 10.6 144.7 36.1a2 2 0 0 0-.3 3.8l24.7 9.3a2 2 0 0 1 1.2 1.6l3 21.4c.3 2 3.1 2.3 3.9.5l7.4-17.6a2 2 0 0 1 2.7-1L228 72.6a2 2 0 0 0 2.8-1.3l17.1-58.3a2 2 0 0 0-2.4-2.5Z"
        stroke="#FF5D22" stroke-width="3" />
    <path d="m170.2 49.6 77.4-38.4L185 54.6" stroke="#FF5D22" stroke-width="3" />
    <path
        d="M8.6 145a8 8 0 0 1 2.3-7.2l52.6-50.3a8 8 0 0 1 8.7-1.5l67.2 29.6a8 8 0 0 1 4.7 6l12.5 72.5a8 8 0 0 1-6.5 9.3L30.4 224a8 8 0 0 1-9.3-6.5L8.6 145Z"
        fill="#fff" />
    <path
        d="M8.6 145a8 8 0 0 1 2.3-7.2l52.6-50.3a8 8 0 0 1 8.7-1.5l67.2 29.6a8 8 0 0 1 4.7 6l12.5 72.5a8 8 0 0 1-6.5 9.3L30.4 224a8 8 0 0 1-9.3-6.5L8.6 145Z"
        stroke="#FF5D22" stroke-width="3" />
    <path d="M23.8 222.6 81 173a4 4 0 0 1 4-.7l70.8 27.5" stroke="#FF5D22" />
    <path
        d="M14.9 125.9a2 2 0 0 1 1.6-2.3l113-19.6a2 2 0 0 1 2.2 1.6l4 22.9a2 2 0 0 1-.7 1.9l-51 41.1a2 2 0 0 1-2 .4l-61.9-21.7a2 2 0 0 1-1.3-1.5l-4-22.8Z"
        fill="#fff" />
    <path
        d="M14.9 125.9a2 2 0 0 1 1.6-2.3l113-19.6a2 2 0 0 1 2.2 1.6l4 22.9a2 2 0 0 1-.7 1.9l-51 41.1a2 2 0 0 1-2 .4l-61.9-21.7a2 2 0 0 1-1.3-1.5l-4-22.8Z"
        stroke="#FF5D22" stroke-width="3" />
    <mask id="a" style="mask-type:alpha" maskUnits="userSpaceOnUse" x="14" y="103" width="122" height="69">
        <path
            d="M14.9 125.9a2 2 0 0 1 1.6-2.3l113-19.6a2 2 0 0 1 2.2 1.6l4 22.9a2 2 0 0 1-.7 1.9l-51 41.1a2 2 0 0 1-2 .4l-61.9-21.7a2 2 0 0 1-1.3-1.5l-4-22.8Z"
            fill="#F9F9FB" />
        <path
            d="M14.9 125.9a2 2 0 0 1 1.6-2.3l113-19.6a2 2 0 0 1 2.2 1.6l4 22.9a2 2 0 0 1-.7 1.9l-51 41.1a2 2 0 0 1-2 .4l-61.9-21.7a2 2 0 0 1-1.3-1.5l-4-22.8Z"
            fill="#000" fill-opacity=".2" />
    </mask>
    <g mask="url(#a)" stroke="#FF5D22" stroke-width=".9">
        <path
            d="m-22.6 629 457-648.4M-18 628 439-20.1M-13.4 627.4 443.6-21M-8.8 626.6l457-648.4M-4.1 625.8l457-648.4M.5 625l457-648.4M5 624.2 462-24.2M9.7 623.4 466.6-25M14.3 622.6l457-648.4M18.9 621.8l457-648.4M23.5 621 480.5-27.4M28.1 620.2 485-28.2M32.7 619.4 489.7-29M37.3 618.6l457-648.4M42 617.8l457-648.4M46.5 617l457-648.4M51.1 616.2 508-32.2M55.7 615.4 512.7-33M60.3 614.6l457-648.4M65 613.8l457-648.4M69.6 613l457-648.4M74.2 612.2l457-648.4M78.8 611.4 535.7-37M83.4 610.6l457-648.4M88 609.8 545-38.6M92.6 609l457-648.4M97.2 608.2l457-648.4M101.8 607.4 558.8-41M106.4 606.6l457-648.3M111 605.8 568-42.5M115.6 605l457-648.3M120.2 604.2 577.2-44M124.8 603.4l457-648.3m-609 674.6 457-648.3M-31.8 630.5l457-648.3M-36.4 631.3 420.6-17M-41 632 416-16.2M-45.6 632.9l457-648.3M-50.2 633.7l457-648.3M-54.9 634.5 402.2-13.8M-59.5 635.3 397.5-13M-64 636 393-12.3M-68.6 637l457-648.4M-73.2 637.7l457-648.4M-77.8 638.5l457-648.4M-82.4 639.3 374.5-9M-87 640.1 370-8.3M-91.6 641l457-648.4M-96.3 641.7l457-648.4m-461.6 649.2L356-5.9m-461.6 649.2 457-648.4M-110 644.1l457-648.4M-114.7 645l457-648.4m-461.6 649.2 457-648.4m-461.6 649.2L333-2m-461.6 649.2 457-648.4m-461.7 649.2L323.8-.3M-137.7 649 319.2.5m-461.6 649.2 457-648.4M-147 650.5 310 2m-461.6 649.2 457-648.4M-156.1 652l457-648.4m-461.6 649.2 457-648.4m-461.6 649.2 457-648.4M-170 654.5 287 6m-461.6 649.2 457-648.4M-179.2 656l457-648.4m-461.6 649.1 457-648.3m-461.6 649.1 457-648.3M-193 658.4 264 10.1m-461.6 649.1L259.4 11M-202.2 660l457-648.3m-461.6 649.1 457-648.3m-461.7 649.1 457-648.3M-216 662.4 241 14.1m-461.6 649.1L236.3 15M-225.2 664l457-648.4m-461.6 649.2 457-648.4m-461.6 649.2 457-648.4M-239 666.4 218 18m-461.6 649.2 457-648.4M-248.2 668l457-648.4m-461.6 649.2L204 20.4m-461.6 649.2 457-648.4M-262 670.4 194.9 22m-461.6 649.2 457-648.4M-271.3 672l457-648.4m-461.6 649.2L181 24.4m-461.6 649.2 457-648.4m-461.6 649.2L171.9 26m-461.7 649.2 457-648.4M-294.3 676l457-648.4M-299 676.8 158 28.4m-461.6 649.2 457-648.4m-461.6 649.2L148.8 30m-461.6 649.2 457-648.4M-317.3 680l457-648.4M-322 680.8 135 32.4m-461.6 649.2 457-648.4m-461.6 649.2L125.8 34m-461.6 649.2 457-648.4M-340.4 684l457-648.4M-345 684.7 112 36.5m-461.6 649.1 457-648.3m-461.6 649.1L102.8 38M-358.8 687l457-648.3m-461.6 649.1 457-648.3m-461.7 649.1L89 40.4m-461.6 649.1 457-648.3m-461.6 649.1L79.7 42M-381.8 691l457-648.3m-461.6 649.1 457-648.3M-391 692.7 66 44.3m-461.6 649.2 457-648.4m-461.6 649.2L56.7 46m-461.6 649.2 457-648.4M-409.5 696l457-648.4M-414 696.7l457-648.4m-461.6 649.2 457-648.4m-461.6 649.2 457-648.4m-461.6 649.2L29 50.7M-432.5 700l457-648.4M-437 700.7l457-648.4m-461.6 649.2L15.3 53m-461.7 649.2 457-648.4M-451 703.1 6 54.7M-455.5 704 1.4 55.5" />
    </g>
</svg>