<svg viewBox="0 0 44 44" fill="none" xmlns="http://www.w3.org/2000/svg">
    <rect width="44" height="44" rx="8" fill="#0D102B" />
    <path
        d="M29 27.918v.5a.5.5 0 0 0 .498-.542l-.498.042Zm-14 0-.498-.042a.5.5 0 0 0 .498.542v-.5Zm13.045-11.46-.498.042.498-.041Zm-.58-.451.082.493-.082-.493Zm-5.547.897.082-.493-.082.493Zm.164 0L22 16.411l.082.493Zm-6.127-.445-.498-.042.498.042Zm.58-.452-.082.493.082-.493ZM12.5 27.417a.5.5 0 1 0 0 1v-1Zm19 1a.5.5 0 0 0 0-1v1ZM27.547 16.5l.955 11.46.996-.084-.955-11.459-.996.083ZM15.498 27.96l.955-11.46-.996-.083-.955 11.46.996.082Zm.955-11.46 5.383.897.164-.986-5.382-.897-.165.986Zm5.711.897 5.383-.897-.165-.986L22 16.41l.164.986Zm6.38-.98a1 1 0 0 0-1.162-.903l.165.986.996-.083Zm-6.708.98c.108.018.22.018.328 0L22 16.411l-.164.986Zm-5.383-.897.165-.986a1 1 0 0 0-1.161.903l.996.083ZM12.5 28.418h19v-1h-19v1Zm16.5-1H15v1h14v-1Z"
        fill="#fff" />
</svg>