<svg width="18" height="12" viewBox="0 0 18 12" fill="none" xmlns="http://www.w3.org/2000/svg">
    <path
        d="M14.834 10.931v.6a.6.6 0 00.598-.65l-.598.05zm-11.667 0l-.598-.05a.6.6 0 00.598.65v-.6zm10.871-9.549l-.598.05.598-.05zm-.483-.376l.098.592-.098-.592zm-4.623.747l.099-.592-.099.592zm.137 0l-.098-.592.098.592zm-5.106-.37l-.598-.05.598.05zm.484-.377l-.099.592.099-.592zM1.084 10.33a.6.6 0 100 1.2v-1.2zm15.833 1.2a.6.6 0 100-1.2v1.2zM13.44 1.432l.796 9.55 1.196-.1-.796-9.55-1.196.1zm-9.675 9.55l.796-9.55-1.196-.1-.796 9.55 1.196.1zm.583-9.384l4.486.747.197-1.184L4.545.414l-.197 1.184zm4.82.747l4.485-.747-.197-1.184-4.485.747.197 1.184zm5.468-1.013a1.017 1.017 0 00-1.18-.918l.197 1.184a.183.183 0 01-.213-.166l1.196-.1zM8.834 2.345c.11.019.223.019.334 0L8.97 1.161a.184.184 0 01.06 0l-.197 1.184zM4.56 1.432a.183.183 0 01-.213.166L4.545.414a1.017 1.017 0 00-1.18.918l1.196.1zm-3.477 10.1h15.833v-1.2H1.084v1.2zm13.75-1.2H3.167v1.2h11.667v-1.2z"
        fill="#0D102B" fill-opacity=".72" />
</svg>