<svg viewBox="0 0 22 594" fill="none" xmlns="http://www.w3.org/2000/svg">
    <path d="M1 1h12a8 8 0 018 8v573a8 8 0 01-8 8H1" stroke="#C3C3D7" stroke-linecap="round" stroke-linejoin="round" />
    <path d="M1 59h12a8 8 0 018 8v515a8 8 0 01-8 8H1" stroke="#C3C3D7" stroke-linecap="round" stroke-linejoin="round" />
    <path d="M1 114h12a8 8 0 018 8v460a8 8 0 01-8 8H1" stroke="#C3C3D7" stroke-linecap="round"
        stroke-linejoin="round" />
    <path d="M1 173h12a8 8 0 018 8v401a8 8 0 01-8 8H1" stroke="#C3C3D7" stroke-linecap="round"
        stroke-linejoin="round" />
    <path d="M1 287h12a8 8 0 018 8v287a8 8 0 01-8 8H1" stroke="#C3C3D7" stroke-linecap="round"
        stroke-linejoin="round" />
    <path d="M1 345h12a8 8 0 018 8v229a8 8 0 01-8 8H1" stroke="#C3C3D7" stroke-linecap="round"
        stroke-linejoin="round" />
    <path
        d="M1 446.5a.5.5 0 000 1v-1zM.646 589.646a.501.501 0 000 .708l3.182 3.182a.5.5 0 00.708-.708L1.707 590l2.829-2.828a.501.501 0 00-.708-.708l-3.182 3.182zM20.5 455v127h1V455h-1zm-7.5-8.5H1v1h12v-1zm0 143H1v1h12v-1zm7.5-7.5a7.5 7.5 0 01-7.5 7.5v1a8.5 8.5 0 008.5-8.5h-1zm1-127a8.5 8.5 0 00-8.5-8.5v1a7.5 7.5 0 017.5 7.5h1z"
        fill="#C3C3D7" />
</svg>