<svg viewBox="0 0 331 180" fill="none" xmlns="http://www.w3.org/2000/svg">
    <path
        d="M1 179.5a.5.5 0 010-1v1zM326.5 159V4h1v155h-1zM307 179.5H1v-1h306v1zm20.5-20.5c0 11.322-9.178 20.5-20.5 20.5v-1c10.77 0 19.5-8.73 19.5-19.5h1z"
        fill="#C3C3D7" />
    <path
        d="M326.646.646a.501.501 0 01.708 0l3.182 3.182a.5.5 0 01-.708.708L327 1.707l-2.828 2.829a.501.501 0 01-.708-.708l3.182-3.182zM1 104.5a.5.5 0 010-1v1zM326.5 84V1h1v83h-1zM307 104.5H1v-1h306v1zM327.5 84c0 11.322-9.178 20.5-20.5 20.5v-1c10.77 0 19.5-8.73 19.5-19.5h1z"
        fill="#C3C3D7" />
</svg>