<svg width="50" height="49" viewBox="0 0 50 49" fill="none" xmlns="http://www.w3.org/2000/svg">
    <path
        d="M34.4555 14.1193H21.2688C20.8573 14.1179 20.4533 13.9979 20.0967 13.7713C19.74 13.5447 19.443 13.2193 19.2351 12.8271L18.2633 10.9716C17.9496 10.3791 17.5012 9.88759 16.9623 9.54582C16.4235 9.20405 15.8131 9.02396 15.1918 9.02344H9.4087C8.46865 9.02433 7.56733 9.43723 6.90261 10.1715C6.23789 10.9057 5.86409 11.9013 5.86328 12.9397V31.2001C5.86409 32.2385 6.23789 33.2341 6.90261 33.9683C7.56733 34.7026 8.46865 35.1155 9.4087 35.1164H34.4555C35.3956 35.1155 36.2969 34.7026 36.9616 33.9683C37.6264 33.2341 38.0002 32.2385 38.001 31.2001V18.0356C38.0002 16.9972 37.6264 16.0016 36.9616 15.2673C36.2969 14.5331 35.3956 14.1202 34.4555 14.1193Z"
        stroke="#F04405" stroke-width="2.4" />
    <path
        d="M30.5923 20.0255H17.4055C16.994 20.0241 16.59 19.9042 16.2334 19.6776C15.8767 19.451 15.5798 19.1255 15.3718 18.7333L14.4 16.8779C14.0864 16.2854 13.6379 15.7938 13.099 15.4521C12.5602 15.1103 11.9498 14.9302 11.3285 14.9297H5.54542C4.60536 14.9306 3.70405 15.3435 3.03933 16.0777C2.37461 16.812 2.00081 17.8076 2 18.846V37.1063C2.00081 38.1447 2.37461 39.1403 3.03933 39.8746C3.70405 40.6088 4.60537 41.0217 5.54542 41.0226H30.5923C31.5323 41.0217 32.4336 40.6088 33.0984 39.8746C33.7631 39.1403 34.1369 38.1447 34.1377 37.1063V23.9418C34.1369 22.9034 33.7631 21.9078 33.0984 21.1736C32.4336 20.4393 31.5323 20.0264 30.5923 20.0255Z"
        fill="white" stroke="#F04405" stroke-width="2.4" />
</svg>