<svg width="50" height="49" viewBox="0 0 50 49" fill="none" xmlns="http://www.w3.org/2000/svg">
    <path
        d="M15.6444 41.7498C15.4469 41.7058 15.2508 41.6584 15.0559 41.6078C7.54509 39.6556 2 32.829 2 24.7073C2 15.4038 9.27617 7.7998 18.4483 7.27539"
        stroke="#F04405" stroke-width="2.4" stroke-linecap="round" />
    <path
        d="M22.4873 7.51876C30.6613 8.97394 36.8672 16.1165 36.8672 24.7086C36.8672 34.2064 29.2838 41.9331 19.8416 42.1641"
        stroke="#F04405" stroke-width="2.4" stroke-linecap="round" />
    <path d="M14.9378 3.72632L18.1952 6.66172C18.5557 6.98659 18.621 7.52777 18.3481 7.92903L16.0494 11.3084"
        stroke="#F04405" stroke-width="2.4" stroke-linecap="round" />
    <path d="M22.5733 45.6526L19.7308 42.3137C19.4162 41.9442 19.4228 41.3991 19.7462 41.0373L22.47 37.9902"
        stroke="#F04405" stroke-width="2.4" stroke-linecap="round" />
    <path d="M14.1406 25.0236L17.3246 28.2075C17.3696 28.2525 17.4425 28.2524 17.4874 28.2074L24.248 21.416"
        stroke="#F04405" stroke-width="2.4" stroke-linecap="round" />
</svg>