<svg id="Layer_1" enable-background="new 0 0 464.013 464.013" height="512" viewBox="0 0 464.013 464.013" width="512" xmlns="http://www.w3.org/2000/svg"><path d="m464.013 377.006c0 17.67-14.33 32-32 32h-400c-17.67 0-32-14.33-32-32v-290c0-17.67 14.33-32 32-32h400c17.67 0 32 14.33 32 32z" fill="#d6f4fc"/><path d="m432.119 105.006h-110c-150.28 0-272.107 121.826-272.107 272.107 0 31.537-47.051 34.202-49.871 2.791-.201-2.244-.128-293.909-.128-292.898 0-17.673 14.327-32 32-32h400c34.365 0 32.65 50 .106 50z" fill="#e8f8fc"/><path d="m160.013 143.006v52c0 13.25-10.75 24-24 24h-52c-13.25 0-24-10.75-24-24v-52c0-13.25 10.75-24 24-24h52c13.25 0 24 10.75 24 24z" fill="#ffec8f"/><path d="m160.013 158.546v36.46c0 13.25-10.75 24-24 24h-35.37c16.519-23.11 36.579-43.53 59.37-60.46z" fill="#ffe773"/><path d="m334.353 223.296c-13.227.032-20.071-16.123-10.61-25.6 5.899-5.878 15.361-5.859 21.22 0 9.505 9.505 2.616 25.6-10.61 25.6z" fill="#fff"/><path d="m359.817 182.844c-14.043-14.032-36.884-14.035-50.917-.001-3.125 3.123-8.189 3.123-11.314 0-3.124-3.125-3.124-8.189 0-11.314 20.27-20.27 53.261-20.271 73.542-.001 3.125 3.123 3.127 8.188.003 11.313-3.119 3.121-8.184 3.131-11.314.003z" fill="#fff"/><path d="m389.516 153.144c-30.413-30.403-79.902-30.405-110.317 0-3.125 3.124-8.19 3.124-11.313-.001-3.124-3.125-3.123-8.19.001-11.313 36.653-36.643 96.291-36.643 132.942 0 3.124 3.123 3.125 8.188.001 11.313-3.122 3.124-8.188 3.126-11.314.001z" fill="#fff"/><g fill="#4d4e59"><path d="m227.013 292.006h-167c-4.418 0-8-3.582-8-8s3.582-8 8-8h167c4.418 0 8 3.582 8 8s-3.583 8-8 8z"/><path d="m288.013 292.006h-20c-4.418 0-8-3.582-8-8s3.582-8 8-8h20c4.418 0 8 3.582 8 8s-3.583 8-8 8z"/><path d="m346.013 292.006h-19c-4.418 0-8-3.582-8-8s3.582-8 8-8h19c4.418 0 8 3.582 8 8s-3.583 8-8 8z"/><path d="m130.013 347.006h-70c-4.418 0-8-3.582-8-8s3.582-8 8-8h70c4.418 0 8 3.582 8 8s-3.583 8-8 8z"/><path d="m168.013 347.006h-5c-4.418 0-8-3.582-8-8s3.582-8 8-8h5c4.418 0 8 3.582 8 8s-3.583 8-8 8z"/></g></svg>