<svg fill="none" xmlns="http://www.w3.org/2000/svg" viewBox="0 0 82 82">
    <g clip-path="url(#a)">
        <rect x="1" y="1.248" width="80" height="80" rx="40" fill="#fff" />
        <path
            d="M79.825 50.077a39.737 39.737 0 0 0 .04-17.641l-7.953 1.791a31.587 31.587 0 0 1-.03 14.023l7.943 1.827Zm.04-17.641a39.736 39.736 0 0 0-7.602-15.92l-6.392 5.057a31.585 31.585 0 0 1 6.041 12.654l7.953-1.791Zm-7.602-15.92A39.737 39.737 0 0 0 58.52 5.455l-3.574 7.326a31.586 31.586 0 0 1 10.925 8.792l6.392-5.057ZM58.52 5.455a39.738 39.738 0 0 0-17.177-4.022l-.05 8.151c4.733.03 9.4 1.122 13.653 3.197l3.574-7.326ZM41.343 1.433a39.738 39.738 0 0 0-17.225 3.81l3.483 7.37a31.586 31.586 0 0 1 13.692-3.029l.05-8.151Zm-17.225 3.81a39.739 39.739 0 0 0-13.879 10.89l6.33 5.136a31.587 31.587 0 0 1 11.032-8.656l-3.483-7.37Zm-13.879 10.89A39.738 39.738 0 0 0 2.443 31.96l7.93 1.89a31.585 31.585 0 0 1 6.197-12.58l-6.33-5.135ZM2.443 31.96c-1.399 5.869-1.264 12.999-.018 18.736l7.965-1.729c-1.021-4.707-1.097-10.59-.018-15.118l-7.93-1.889Z"
            fill="#0D102B" />
        <path
            d="M28.82 34.301h-3.587l-.84 2.196h-1.008l3.084-7.92h1.14l3.072 7.92h-1.02l-.84-2.196Zm-.347-.9-1.068-2.808-.372-1.104h-.024l-.348 1.068-1.08 2.844h2.892ZM33.37 36.497h-.96v-7.92h.96v7.92ZM42.465 34.469a3.191 3.191 0 0 1-1.224 1.584c-.568.376-1.224.564-1.968.564s-1.392-.164-1.944-.492a3.392 3.392 0 0 1-1.284-1.416c-.296-.616-.444-1.34-.444-2.172 0-.824.148-1.544.444-2.16a3.299 3.299 0 0 1 1.284-1.416c.552-.336 1.192-.504 1.92-.504.76 0 1.396.156 1.908.468.52.312.908.772 1.164 1.38l-.948.444c-.176-.464-.432-.812-.768-1.044-.336-.232-.764-.348-1.284-.348-.544 0-1.02.128-1.428.384-.408.248-.724.612-.948 1.092-.224.48-.336 1.048-.336 1.704 0 .992.236 1.772.708 2.34.48.56 1.132.84 1.956.84.536 0 1-.136 1.392-.408.392-.272.672-.672.84-1.2l.96.36ZM47.224 28.577c.8 0 1.444.22 1.932.66.488.432.732 1.016.732 1.752s-.244 1.324-.732 1.764c-.488.432-1.132.648-1.932.648h-1.836v3.096h-.96v-7.92h2.796Zm-.144 3.924c.616 0 1.068-.124 1.356-.372.296-.256.444-.636.444-1.14 0-.504-.148-.88-.444-1.128-.288-.256-.74-.384-1.356-.384h-1.692v3.024h1.692ZM55.75 34.301h-3.588l-.84 2.196h-1.008l3.084-7.92h1.14l3.072 7.92h-1.02l-.84-2.196Zm-.348-.9-1.068-2.808-.372-1.104h-.024l-.348 1.068-1.08 2.844h2.892Z"
            fill="#434875" />
        <path
            d="M23.507 41.447c.92 0 1.71.155 2.37.465.66.3 1.24.78 1.74 1.44l-1.425 1.395c-.26-.54-.605-.94-1.035-1.2-.43-.27-.975-.405-1.635-.405-.6 0-1.065.115-1.395.345-.32.22-.48.515-.48.885 0 .34.165.61.495.81.33.2.925.375 1.785.525.9.17 1.615.38 2.145.63s.915.565 1.155.945c.25.37.375.835.375 1.395 0 .61-.175 1.14-.525 1.59-.34.44-.82.78-1.44 1.02-.61.24-1.31.36-2.1.36-1.09 0-1.985-.15-2.685-.45a4.004 4.004 0 0 1-1.68-1.395l1.23-1.47c.37.61.795 1.035 1.275 1.275.48.23 1.075.345 1.785.345.64 0 1.125-.1 1.455-.3.34-.2.51-.485.51-.855 0-.27-.16-.495-.48-.675-.31-.18-.87-.35-1.68-.51-.93-.19-1.675-.415-2.235-.675-.55-.26-.95-.58-1.2-.96s-.375-.85-.375-1.41c0-.59.16-1.12.48-1.59.32-.48.785-.855 1.395-1.125.62-.27 1.345-.405 2.175-.405ZM33.956 41.447c.97 0 1.81.205 2.52.615.72.41 1.27 1 1.65 1.77.39.76.585 1.665.585 2.715 0 1.05-.195 1.96-.585 2.73a4.06 4.06 0 0 1-1.65 1.755c-.71.41-1.55.615-2.52.615s-1.816-.205-2.536-.615a4.151 4.151 0 0 1-1.665-1.755c-.38-.77-.57-1.68-.57-2.73s.19-1.955.57-2.715c.39-.77.946-1.36 1.666-1.77.72-.41 1.565-.615 2.535-.615Zm0 1.695c-.84 0-1.49.295-1.95.885-.45.58-.675 1.42-.675 2.52s.224 1.945.674 2.535c.46.58 1.11.87 1.95.87.83 0 1.47-.29 1.92-.87.46-.59.69-1.435.69-2.535s-.23-1.94-.69-2.52c-.45-.59-1.09-.885-1.92-.885ZM49.424 48.767c-.29.95-.805 1.67-1.545 2.16-.74.48-1.625.72-2.655.72-.97 0-1.815-.205-2.535-.615a4.151 4.151 0 0 1-1.665-1.755c-.38-.77-.57-1.68-.57-2.73s.19-1.955.57-2.715c.39-.77.94-1.36 1.65-1.77.72-.41 1.56-.615 2.52-.615 1.03 0 1.9.215 2.61.645.72.43 1.215 1.07 1.485 1.92l-1.875.795c-.16-.59-.41-1.015-.75-1.275s-.8-.39-1.38-.39c-.84 0-1.5.295-1.98.885-.47.59-.705 1.43-.705 2.52s.23 1.93.69 2.52c.46.59 1.11.885 1.95.885 1.21 0 1.97-.585 2.28-1.755l1.905.57ZM55.758 50.087c1.21-.81 2.17-1.52 2.88-2.13.71-.61 1.225-1.175 1.545-1.695.32-.52.48-1.035.48-1.545 0-.47-.145-.85-.435-1.14-.28-.29-.67-.435-1.17-.435-.55 0-.985.19-1.305.57-.32.38-.495.92-.525 1.62l-1.785-.675c.07-1 .44-1.785 1.11-2.355.67-.57 1.545-.855 2.625-.855.77 0 1.42.145 1.95.435.54.29.945.675 1.215 1.155.27.47.405.99.405 1.56 0 .93-.35 1.81-1.05 2.64-.7.82-1.815 1.7-3.345 2.64v.015c.58-.04 1.185-.06 1.815-.06h2.73v1.665h-7.14v-1.41Z"
            fill="#0D102B" />
        <path d="m79.572 50.509-7.643-2.022M2.543 50.775l8.098-2.054" stroke="#0D102B" />
        <circle cx="41" cy="41.248" r="31.375" stroke="#0D102B" stroke-width="1.25" />
    </g>
    <rect x="1" y="1.248" width="80" height="80" rx="40" stroke="#0D102B" stroke-width="1.25" />
    <defs>
        <clipPath id="a">
            <rect x="1" y="1.248" width="80" height="80" rx="40" fill="#fff" />
        </clipPath>
    </defs>
</svg>