<svg fill="none" xmlns="http://www.w3.org/2000/svg" viewBox="0 0 82 82">
  <g clip-path="url(#a)">
    <rect x="1" y="1.25" width="80" height="80" rx="40" fill="#fff"/>
    <path d="M79.83 50.08a39.74 39.74 0 0 0 .04-17.64l-7.96 1.79a31.59 31.59 0 0 1-.03 14.02l7.95 1.83Zm.04-17.64a39.74 39.74 0 0 0-7.6-15.92l-6.4 5.05a31.59 31.59 0 0 1 6.04 12.66l7.96-1.8Zm-7.6-15.92A39.74 39.74 0 0 0 58.51 5.46l-3.57 7.32a31.59 31.59 0 0 1 10.92 8.8l6.4-5.06ZM58.51 5.46a39.74 39.74 0 0 0-17.18-4.03l-.05 8.15a31.6 31.6 0 0 1 13.66 3.2l3.57-7.33ZM41.34 1.42a39.74 39.74 0 0 0-17.22 3.81l3.48 7.37a31.59 31.59 0 0 1 13.7-3.03l.04-8.15ZM24.12 5.24a39.74 39.74 0 0 0-13.88 10.9l6.33 5.13A31.59 31.59 0 0 1 27.6 12.6l-3.48-7.37Zm-13.88 10.9a39.74 39.74 0 0 0-7.8 15.82l7.93 1.89a31.59 31.59 0 0 1 6.2-12.58l-6.33-5.13Zm-7.8 15.82c-1.4 5.87-1.26 13-.02 18.74l7.97-1.73c-1.02-4.71-1.1-10.6-.02-15.12l-7.93-1.89Z" fill="#0D102B"/>
    <path d="M28.82 34.3h-3.59l-.84 2.2h-1l3.08-7.92h1.14l3.07 7.92h-1.02l-.84-2.2Zm-.35-.9-1.06-2.8-.38-1.11h-.02l-.35 1.07-1.08 2.84h2.9Zm4.9 3.1h-.96v-7.92h.96v7.92Zm9.1-2.03a3.2 3.2 0 0 1-1.23 1.58c-.57.38-1.22.57-1.97.57s-1.39-.17-1.94-.5a3.4 3.4 0 0 1-1.28-1.41 4.97 4.97 0 0 1-.45-2.17c0-.83.15-1.55.45-2.16a3.3 3.3 0 0 1 1.28-1.42c.55-.33 1.2-.5 1.92-.5.76 0 1.4.15 1.9.47.53.3.92.77 1.17 1.38l-.95.44a2.15 2.15 0 0 0-.76-1.04 2.21 2.21 0 0 0-1.29-.35c-.54 0-1.02.13-1.43.38-.4.25-.72.61-.94 1.1a4 4 0 0 0-.34 1.7c0 .99.24 1.77.7 2.34.49.56 1.14.84 1.96.84.54 0 1-.14 1.4-.41.39-.27.67-.67.84-1.2l.96.36Zm4.75-5.9c.8 0 1.45.23 1.94.67.48.43.73 1.01.73 1.75s-.25 1.32-.73 1.76a2.8 2.8 0 0 1-1.94.65H45.4v3.1h-.96v-7.92h2.8Zm-.14 3.93c.62 0 1.07-.12 1.36-.37.3-.26.44-.64.44-1.14 0-.5-.15-.88-.44-1.13-.3-.25-.74-.38-1.36-.38h-1.7v3.02h1.7Zm8.67 1.8h-3.59l-.84 2.2h-1l3.08-7.92h1.14l3.07 7.92h-1.02l-.84-2.2Zm-.35-.9-1.07-2.8-.37-1.11h-.02l-.35 1.07-1.08 2.84h2.9Z" fill="#434875"/>
    <path d="M23.5 41.45c.93 0 1.72.15 2.38.46.66.3 1.24.78 1.74 1.44l-1.43 1.4c-.26-.54-.6-.94-1.03-1.2-.43-.27-.98-.4-1.64-.4-.6 0-1.06.1-1.4.34-.31.22-.47.51-.47.88 0 .34.16.61.5.81.32.2.92.38 1.78.53.9.17 1.61.38 2.14.63s.92.56 1.16.94c.25.37.37.84.37 1.4 0 .6-.17 1.14-.52 1.59-.34.44-.82.78-1.44 1.02a5.7 5.7 0 0 1-2.1.36 6.87 6.87 0 0 1-2.69-.45 4 4 0 0 1-1.68-1.4l1.23-1.47c.37.61.8 1.04 1.28 1.28.48.23 1.07.34 1.78.34.64 0 1.13-.1 1.46-.3.34-.2.5-.48.5-.85 0-.27-.15-.5-.47-.68a6.03 6.03 0 0 0-1.68-.5c-.93-.2-1.68-.42-2.24-.68-.55-.26-.95-.58-1.2-.96s-.37-.85-.37-1.41c0-.6.16-1.12.48-1.6.32-.47.78-.85 1.4-1.12.61-.27 1.34-.4 2.17-.4Zm10.46 0c.97 0 1.8.2 2.52.61s1.27 1 1.65 1.77c.39.76.58 1.67.58 2.72 0 1.05-.2 1.96-.58 2.73a4.06 4.06 0 0 1-1.65 1.75c-.71.41-1.55.62-2.52.62s-1.82-.2-2.54-.62a4.15 4.15 0 0 1-1.67-1.75c-.37-.77-.56-1.68-.56-2.73s.19-1.96.57-2.72c.39-.77.94-1.36 1.66-1.77a5.04 5.04 0 0 1 2.54-.61Zm0 1.7c-.84 0-1.5.29-1.95.88-.45.58-.68 1.42-.68 2.52s.23 1.94.68 2.53c.46.58 1.1.87 1.95.87.83 0 1.47-.29 1.92-.87.46-.59.69-1.43.69-2.53s-.23-1.94-.7-2.52a2.27 2.27 0 0 0-1.91-.89Zm15.46 5.62c-.29.95-.8 1.67-1.54 2.16-.74.48-1.63.72-2.66.72-.97 0-1.81-.2-2.53-.62a4.15 4.15 0 0 1-1.67-1.75c-.38-.77-.57-1.68-.57-2.73s.2-1.96.57-2.72c.4-.77.94-1.36 1.65-1.77a5 5 0 0 1 2.52-.61c1.03 0 1.9.21 2.61.64a3.32 3.32 0 0 1 1.49 1.92l-1.88.8c-.16-.6-.4-1.02-.75-1.28s-.8-.39-1.38-.39c-.84 0-1.5.3-1.98.89-.47.59-.7 1.43-.7 2.52s.23 1.93.69 2.52c.46.59 1.1.88 1.95.88 1.2 0 1.97-.58 2.28-1.75l1.9.57Zm6.34 1.32a30.98 30.98 0 0 0 2.88-2.13 7.66 7.66 0 0 0 1.54-1.7c.32-.52.48-1.03.48-1.54 0-.47-.14-.85-.43-1.14a1.55 1.55 0 0 0-1.17-.44c-.55 0-.99.2-1.3.57-.33.38-.5.92-.53 1.62l-1.79-.67c.07-1 .44-1.79 1.11-2.36a3.91 3.91 0 0 1 2.63-.85c.77 0 1.42.14 1.95.43a2.95 2.95 0 0 1 1.62 2.72c0 .93-.35 1.8-1.05 2.64-.7.82-1.82 1.7-3.35 2.64v.01a26.4 26.4 0 0 1 1.82-.06h2.73v1.67h-7.14v-1.41Z" fill="#0D102B"/>
    <path d="m79.57 50.5-7.64-2.01M2.54 50.77l8.1-2.05" stroke="#0D102B"/>
    <circle cx="41" cy="41.25" r="31.38" stroke="#0D102B" stroke-width="1.25"/>
  </g>
  <rect x="1" y="1.25" width="80" height="80" rx="40" stroke="#0D102B" stroke-width="1.25"/>
  <defs>
    <clipPath id="a">
      <rect x="1" y="1.25" width="80" height="80" rx="40" fill="#fff"/>
    </clipPath>
  </defs>
</svg>