<svg fill="none" xmlns="http://www.w3.org/2000/svg" viewBox="0 0 82 82">
    <rect x="1" y="1.248" width="80" height="80" rx="40" fill="#fff" />
    <path
        d="M35 18.248H20.847a1 1 0 0 0-.986.836l-1.293 7.756a1 1 0 0 0 .173.745l2.032 2.845a1 1 0 0 1 .179.706l-.395 3.153a1 1 0 0 0 .256.8l4.858 5.3a1 1 0 0 1 .249.84l-.363 2.174a1 1 0 0 0 .113.65l7.153 12.876a1 1 0 0 0 .518.449l9.881 3.764a1 1 0 0 1 .453.346l3.526 4.848a1 1 0 0 0 .808.412h7.368a1 1 0 0 0 .242-.03l3.123-.78a1 1 0 0 0 .758-.97v-2.97a.75.75 0 0 1 .75-.75.75.75 0 0 0 .75-.75v-2.947a1 1 0 0 0-.168-.555l-1.758-2.636a.997.997 0 0 0-.175-.2L36.344 34.547a1 1 0 0 1-.344-.755V19.248a1 1 0 0 0-1-1Z"
        fill="#434875" fill-opacity=".15" />
    <path
        d="M30.866 43.77c-.29.95-.805 1.67-1.544 2.16-.74.48-1.625.72-2.655.72-.97 0-1.816-.206-2.536-.616a4.151 4.151 0 0 1-1.665-1.755c-.38-.77-.57-1.68-.57-2.73s.19-1.955.57-2.715c.39-.77.94-1.36 1.65-1.77.72-.41 1.56-.615 2.52-.615 1.03 0 1.9.215 2.61.645.72.43 1.216 1.07 1.486 1.92l-1.875.795c-.16-.59-.41-1.015-.75-1.275s-.8-.39-1.38-.39c-.84 0-1.5.295-1.98.885-.47.59-.706 1.43-.706 2.52s.23 1.93.69 2.52c.46.59 1.11.885 1.95.885 1.21 0 1.97-.585 2.28-1.755l1.905.57ZM41.256 43.77c-.29.95-.805 1.67-1.545 2.16-.74.48-1.625.72-2.655.72-.97 0-1.815-.206-2.535-.616a4.151 4.151 0 0 1-1.665-1.755c-.38-.77-.57-1.68-.57-2.73s.19-1.955.57-2.715c.39-.77.94-1.36 1.65-1.77.72-.41 1.56-.615 2.52-.615 1.03 0 1.9.215 2.61.645.72.43 1.215 1.07 1.485 1.92l-1.875.795c-.16-.59-.41-1.015-.75-1.275s-.8-.39-1.38-.39c-.84 0-1.5.295-1.98.885-.47.59-.705 1.43-.705 2.52s.23 1.93.69 2.52c.46.59 1.11.885 1.95.885 1.21 0 1.97-.585 2.28-1.755l1.905.57ZM47.325 36.6c1.15 0 2.045.28 2.685.84.64.55.96 1.33.96 2.34 0 .98-.32 1.744-.96 2.294-.64.55-1.535.825-2.685.825H45.24v3.6h-2.07v-9.9h4.155Zm-.315 4.694c.64 0 1.11-.125 1.41-.375.3-.26.45-.645.45-1.155s-.15-.89-.45-1.14c-.3-.25-.77-.375-1.41-.375h-1.77v3.045h1.77ZM57.749 44.084h-3.81l-.81 2.415h-2.115l3.615-9.9h2.475l3.615 9.9h-2.145l-.825-2.415Zm-.51-1.53-.93-2.79-.45-1.5h-.03l-.42 1.47-.96 2.82h2.79Z"
        fill="#0D102B" />
    <rect x="31" y="15.248" width="18" height="18" rx="9" fill="#0D102B" />
    <path
        d="M36.75 23.748a.25.25 0 0 1 .25-.25h6a.25.25 0 0 1 .25.25v4.5a.25.25 0 0 1-.25.25h-6a.25.25 0 0 1-.25-.25v-4.5Z"
        stroke="#CECFDC" stroke-width=".7" />
    <path d="M42.25 23.748v-1.75a2.25 2.25 0 0 0-4.5 0v1.75" stroke="#CECFDC" stroke-width=".7" />
    <rect x="1" y="1.248" width="80" height="80" rx="40" stroke="#0D102B" stroke-width="1.25" />
</svg>