<svg fill="none" xmlns="http://www.w3.org/2000/svg" viewBox="0 0 65 65">
    <circle cx="32.032" cy="32.056" r="32" fill="url(#paint0_linear_1131_24236)" />
    <path
        d="M17.032 43.925a3.375 3.375 0 0 1-3.375-3.375V23.3a3.375 3.375 0 0 1 3.375-3.375h29.25a3.375 3.375 0 0 1 3.375 3.375v17.25a3.375 3.375 0 0 1-3.375 3.375h-29.25Z"
        stroke="#FAFAFA" stroke-width="1.8" />
    <path
        d="M31.668 38.297c.334 0 .63-.186.63-.631v-.594c1.997-.215 3.244-1.388 3.244-3.095 0-1.47-.883-2.36-2.716-2.76l-1.507-.342c-.942-.208-1.403-.639-1.403-1.27 0-.756.654-1.306 1.678-1.306.831 0 1.41.282 2.056 1.002.326.342.578.468.92.468.416 0 .735-.29.735-.72 0-.416-.245-.868-.66-1.277-.55-.52-1.374-.86-2.302-.98v-.615c0-.438-.297-.624-.638-.624-.334 0-.63.178-.63.624v.593c-1.923.178-3.148 1.329-3.148 2.977 0 1.44.884 2.397 2.576 2.775l1.506.35c1.099.259 1.551.645 1.551 1.298 0 .846-.66 1.38-1.84 1.38-.883 0-1.618-.333-2.286-1.053-.379-.379-.586-.46-.868-.46-.453 0-.794.289-.794.786 0 .438.252.89.705 1.284.593.542 1.521.876 2.553.972v.587c0 .445.297.63.638.63Z"
        fill="#FAFAFA" />
    <defs>
        <linearGradient id="paint0_linear_1131_24236" x1=".032" y1=".056" x2="68.628" y2="5.434"
            gradientUnits="userSpaceOnUse">
            <stop stop-color="#F5614B" />
            <stop offset="0" stop-color="#F5614B" />
            <stop offset="1" stop-color="#FA7545" stop-opacity=".99" />
        </linearGradient>
    </defs>
</svg>