<svg viewBox="0 0 64 64" fill="none" xmlns="http://www.w3.org/2000/svg">
    <rect width="64" height="64" rx="32" fill="#EDF7ED" />
    <g clip-path="url(#clip0_2836_35996)">
        <circle cx="29.6674" cy="24.9997" r="1.33337" fill="#1E4620" stroke="#1E4620" stroke-width="2.00006" />
        <path d="M41.3346 44.6671L42.3341 13.6662" stroke="#1E4620" stroke-width="0.666686" />
        <path d="M28.0701 46.0004L23.667 13.9995" stroke="#1E4620" stroke-width="0.666686" />
        <path d="M22.0001 30.6667L29.667 12.9995" stroke="#1E4620" stroke-width="0.666686" />
        <path d="M39.3344 32.6668L36.001 14.6663" stroke="#1E4620" stroke-width="0.666686" />
        <path d="M34.0008 36L28.6162 39.8009C28.4392 39.9258 28.334 40.1289 28.334 40.3456V46.3336" stroke="#1E4620"
            stroke-width="2.00006" />
        <path d="M34.5141 35.3163L36.6025 40.8297C36.6448 40.9413 36.7162 41.0396 36.8095 41.1142L41.6675 45.0003"
            stroke="#1E4620" stroke-width="2.00006" />
        <path
            d="M21.6668 29.6665L25.1107 30.9188C25.2548 30.9712 25.4126 30.9724 25.5575 30.922L32.8644 28.3804C32.9541 28.3492 33.0493 28.3376 33.1438 28.3462L36.3429 28.637C36.5475 28.6556 36.7322 28.7675 36.8433 28.9404L39.6673 33.3333"
            stroke="#1E4620" stroke-width="2.00006" />
        <rect x="28.5039" y="29.1973" width="4.95832" height="8.98362" transform="rotate(-17.6436 28.5039 29.1973)"
            fill="#1E4620" />
    </g>
    <defs>
        <clipPath id="clip0_2836_35996">
            <rect width="32.0009" height="32.0009" fill="white" transform="translate(16 15.9995)" />
        </clipPath>
    </defs>
</svg>