<svg fill="none" xmlns="http://www.w3.org/2000/svg" viewBox="0 0 64 64">
    <rect width="64" height="64" rx="32" fill="#EDF7ED" />
    <circle cx="29.7" cy="25" r="1.3" fill="#1E4620" stroke="#1E4620" stroke-width="2" />
    <path d="m41.3 44.7 1-31M28 46l-4.3-32M22 30.7 29.7 13M39.3 32.7l-3.3-18" stroke="#1E4620" stroke-width=".7" />
    <path
        d="m34 36-5.4 3.8c-.2.1-.3.3-.3.5v6M34.5 35.3l2.1 5.5.2.3 4.9 3.9M21.7 29.7l3.4 1.2h.5l7.3-2.5h.2l3.2.2c.2 0 .4.2.5.3l2.9 4.4"
        stroke="#1E4620" stroke-width="2" />
    <path fill="#1E4620" d="m28.5 29.2 4.8-1.5 2.7 8.6-4.8 1.5z" />
    <defs>
        <clipPath id="a">
            <path fill="#fff" transform="translate(16 16)" d="M0 0h32v32H0z" />
        </clipPath>
        <clipPath id="b">
            <path fill="#fff" transform="translate(16 16)" d="M0 0h32v32H0z" />
        </clipPath>
    </defs>
</svg>