<svg viewBox="0 0 64 64" fill="none" xmlns="http://www.w3.org/2000/svg">
    <rect width="64" height="64" rx="32" fill="#EDF7ED" />
    <g clip-path="url(#clip0_2785_35942)">
        <path fill-rule="evenodd" clip-rule="evenodd"
            d="M31.9998 24.8672H20.0528C19.0496 24.8672 18.2363 25.6804 18.2363 26.6836V35.8811C18.2363 36.8843 19.0496 37.6975 20.0528 37.6975H24.651V39.5762H23.9319C23.7419 39.5762 23.5878 39.7302 23.5878 39.9203C23.5878 40.1103 23.7419 40.2644 23.9319 40.2644H29.6905C29.8806 40.2644 30.0346 40.1103 30.0346 39.9203C30.0346 39.7302 29.8806 39.5762 29.6905 39.5762H28.97V37.6975H31.9998V36.3212H20.0528C19.8097 36.3212 19.6127 36.1241 19.6127 35.8811V26.6836C19.6127 26.4406 19.8097 26.2435 20.0528 26.2435H31.9998V24.8672Z"
            fill="#1E4620" />
        <path fill-rule="evenodd" clip-rule="evenodd"
            d="M31.999 44.3121C32.1327 44.3439 32.2722 44.3608 32.4157 44.3608H42.7121C43.7023 44.3608 44.505 43.5581 44.505 42.5679V21.142C44.505 20.1518 43.7023 19.3491 42.7121 19.3491H32.4157C32.2722 19.3491 32.1327 19.366 31.999 19.3978V44.3121ZM31.9992 21.142C31.9992 20.912 32.1856 20.7255 32.4157 20.7255H34.8277C34.7978 20.8026 34.7814 20.8864 34.7814 20.9741V21.2672C34.7814 21.6473 35.0895 21.9554 35.4696 21.9554H39.658C40.0381 21.9554 40.3462 21.6473 40.3462 21.2672V20.9741C40.3462 20.8864 40.3298 20.8026 40.2999 20.7255H42.7121C42.9422 20.7255 43.1286 20.9119 43.1286 21.142V42.5679C43.1286 42.798 42.9422 42.9844 42.7121 42.9844H32.4157C32.1856 42.9844 31.9992 42.798 31.9992 42.5679V21.142ZM34.7814 41.572C34.5514 41.572 34.3649 41.7585 34.3649 41.9886C34.3649 42.2186 34.5514 42.4051 34.7814 42.4051H40.3462C40.5762 42.4051 40.7627 42.2186 40.7627 41.9886C40.7627 41.7585 40.5762 41.572 40.3462 41.572H34.7814Z"
            fill="#1E4620" />
        <path d="M32 15.4839V48.8602" stroke="#1E4620" stroke-width="1.37634" />
    </g>
    <defs>
        <clipPath id="clip0_2785_35942">
            <rect width="33.0323" height="33.0323" fill="white" transform="translate(15.4834 15.4839)" />
        </clipPath>
    </defs>
</svg>