<svg viewBox="0 0 64 64" fill="none" xmlns="http://www.w3.org/2000/svg">
    <rect width="64" height="64" rx="32" fill="#EDF7ED" />
    <path
        d="M32.5187 34.3787V30.7673H44.4889C44.6059 31.3967 44.6663 32.1413 44.6663 32.9472C44.6663 35.6567 43.9378 39.0071 41.5898 41.3942C39.306 43.812 36.388 45.1015 32.5225 45.1015C25.3577 45.1015 19.333 39.1683 19.333 31.8841C19.333 24.6 25.3577 18.6667 32.5225 18.6667C36.4861 18.6667 39.3098 20.2479 41.4313 22.3088L38.9247 24.8571C37.4034 23.4064 35.3423 22.2781 32.5187 22.2781C27.2867 22.2781 23.1947 26.5649 23.1947 31.8841C23.1947 37.2033 27.2867 41.4902 32.5187 41.4902C35.9124 41.4902 37.8451 40.1047 39.0833 38.8459C40.0874 37.8251 40.748 36.3667 41.0085 34.3749L32.5187 34.3787Z"
        fill="#1E4620" />
</svg>