<svg viewBox="0 0 64 64" fill="none" xmlns="http://www.w3.org/2000/svg">
    <rect width="64" height="64" rx="32" fill="#EDF7ED" />
    <path
        d="M28.1625 33.3335H26.5525L24.1425 26.7335H25.6025L26.9925 30.9335L27.3725 32.2335L27.7425 30.9435L29.1425 26.7335H30.5625L28.1625 33.3335ZM39.1417 33.3335H37.9017V29.8935L37.9617 27.9635H37.9417L36.1117 33.3335H34.9817L33.1617 27.9635H33.1417L33.2117 29.8935V33.3335H31.9617V26.7335H33.9617L35.1517 30.3335L35.5717 31.8235H35.5917L36.0217 30.3435L37.2017 26.7335H39.1417V33.3335Z"
        fill="#1E4620" />
    <path fill-rule="evenodd" clip-rule="evenodd"
        d="M44.2403 21.333H19.7597C18.7878 21.333 18 22.1208 18 23.0927V38.24C18 39.2118 18.7878 39.9997 19.7597 39.9997H28.1628V44.3008H26.9023C26.7182 44.3008 26.569 44.45 26.569 44.6341C26.569 44.8182 26.7182 44.9674 26.9023 44.9674H36.9941C37.1782 44.9674 37.3274 44.8182 37.3274 44.6341C37.3274 44.45 37.1782 44.3008 36.9941 44.3008H35.7316V39.9997H44.2403C45.2122 39.9997 46 39.2118 46 38.24V23.0927C46 22.1208 45.2122 21.333 44.2403 21.333ZM19.3333 23.0927C19.3333 22.8572 19.5242 22.6663 19.7597 22.6663H44.2403C44.4758 22.6663 44.6667 22.8572 44.6667 23.0927V38.24C44.6667 38.4755 44.4758 38.6663 44.2403 38.6663H19.7597C19.5242 38.6663 19.3333 38.4755 19.3333 38.24V23.0927Z"
        fill="#0D102B" />
</svg>