<svg viewBox="0 0 20 12" fill="none" xmlns="http://www.w3.org/2000/svg">
    <path
        d="M19.2651 7.21103C19.2651 7.21103 18.2079 2.59366 18.1903 2.55616C17.9697 1.86818 17.0916 1.31588 15.5703 0.911488C14.075 0.513847 12.0968 0.294922 9.99997 0.294922C7.90323 0.294922 5.92493 0.513847 4.42964 0.911488C2.90772 1.31614 2.02951 1.8687 1.80943 2.55712C1.79193 2.59431 0.734939 7.21109 0.734939 7.21109C0.307383 7.35957 0 7.76506 0 8.24325C0 9.45207 1.15111 10.3711 3.42122 10.9747C5.1925 11.4456 7.52888 11.7051 9.99997 11.7051C12.471 11.7051 14.8076 11.4457 16.5787 10.9748C18.8488 10.3711 19.9999 9.45213 19.9999 8.24325C20 7.76506 19.6926 7.35957 19.2651 7.21103ZM13.6033 8.17158C13.6033 8.68541 13.1853 9.10351 12.6715 9.10351C12.1726 9.10351 11.7639 8.70953 11.7405 8.21636H8.25944C8.23596 8.70953 7.82745 9.10351 7.32861 9.10351C6.81472 9.10351 6.39668 8.68541 6.39668 8.17158C6.39668 7.92821 6.49048 7.70633 6.64385 7.54016C6.49048 7.37398 6.39668 7.1521 6.39668 6.90873C6.39668 6.3949 6.81478 5.9768 7.32861 5.9768C7.82745 5.9768 8.23596 6.37078 8.25944 6.86395H11.7405C11.7639 6.37078 12.1726 5.9768 12.6715 5.9768C13.1853 5.9768 13.6033 6.3949 13.6033 6.90873C13.6033 7.1521 13.5095 7.37398 13.3562 7.54016C13.5095 7.70633 13.6033 7.92821 13.6033 8.17158ZM15.1412 3.71988C13.7551 4.07036 11.9293 4.26343 9.99997 4.26343C8.07063 4.26343 6.24479 4.07036 4.85874 3.71988C3.52564 3.38277 3.05665 3.01234 2.94188 2.85897C3.05768 2.70297 3.52757 2.33292 4.859 1.99633C6.24499 1.64585 8.07076 1.45285 9.99997 1.45285C11.9291 1.45285 13.7549 1.64585 15.1409 1.99633C16.4696 2.33234 16.9403 2.70149 17.0573 2.85807C16.9407 3.01434 16.4707 3.38361 15.1412 3.71988Z" />
</svg>