<svg fill="none" xmlns="http://www.w3.org/2000/svg" viewBox="0 0 74 75">
    <rect x="1.026" y="1.355" width="72.163" height="72.163" rx="36.081" fill="#fff" />
    <path
        d="M31.695 16.69H18.93a.902.902 0 0 0-.89.754l-1.166 6.996a.902.902 0 0 0 .156.672l1.833 2.567c.132.184.19.411.161.636l-.355 2.845a.902.902 0 0 0 .23.721l4.382 4.78c.188.205.27.485.225.758l-.327 1.962a.902.902 0 0 0 .101.586l6.453 11.614c.103.186.268.33.467.405l8.913 3.396c.164.062.306.17.408.312l3.18 4.373c.17.233.442.371.73.371h6.646c.074 0 .147-.009.219-.026l2.817-.705a.902.902 0 0 0 .683-.875v-2.678c0-.374.303-.677.677-.677a.677.677 0 0 0 .676-.676v-2.659a.902.902 0 0 0-.151-.5l-1.586-2.378a.906.906 0 0 0-.158-.18L32.908 31.392a.902.902 0 0 1-.31-.68v-13.12a.902.902 0 0 0-.902-.902Z"
        fill="#E8E8E8" />
    <path
        d="M27.968 39.71c-.262.857-.727 1.506-1.394 1.948-.668.433-1.466.65-2.395.65-.875 0-1.637-.185-2.287-.555a3.745 3.745 0 0 1-1.502-1.583c-.342-.695-.514-1.515-.514-2.462 0-.948.172-1.764.514-2.45a3.752 3.752 0 0 1 1.489-1.596c.65-.37 1.407-.555 2.273-.555.93 0 1.714.194 2.354.582.65.388 1.096.965 1.34 1.732l-1.692.717c-.144-.532-.37-.916-.676-1.15-.307-.235-.722-.352-1.245-.352-.758 0-1.353.266-1.786.798-.424.533-.636 1.29-.636 2.274 0 .983.208 1.74.623 2.273.415.532 1 .798 1.759.798 1.091 0 1.777-.528 2.056-1.583l1.719.514ZM37.339 39.71c-.262.857-.726 1.506-1.394 1.948-.667.433-1.465.65-2.395.65-.874 0-1.637-.185-2.286-.555a3.746 3.746 0 0 1-1.502-1.583c-.343-.695-.514-1.515-.514-2.462 0-.948.171-1.764.514-2.45a3.753 3.753 0 0 1 1.488-1.596c.65-.37 1.407-.555 2.273-.555.93 0 1.714.194 2.355.582.65.388 1.096.965 1.34 1.732l-1.692.717c-.144-.532-.37-.916-.677-1.15-.306-.235-.721-.352-1.244-.352-.758 0-1.353.266-1.786.798-.424.533-.636 1.29-.636 2.274 0 .983.207 1.74.622 2.273.415.532 1.001.798 1.759.798 1.092 0 1.777-.528 2.057-1.583l1.718.514ZM42.814 33.242c1.037 0 1.844.253 2.422.758.577.496.866 1.2.866 2.11 0 .885-.29 1.575-.866 2.071-.578.496-1.385.744-2.422.744h-1.881v3.248h-1.867v-8.93h3.748Zm-.285 4.236c.578 0 1.002-.113 1.272-.339.271-.234.406-.582.406-1.042 0-.46-.135-.802-.406-1.028-.27-.225-.694-.338-1.272-.338h-1.596v2.746h1.596ZM52.216 39.994H48.78l-.73 2.179H46.14l3.26-8.93h2.233l3.261 8.93H52.96l-.744-2.179Zm-.46-1.38-.839-2.517-.406-1.353h-.027l-.379 1.326-.865 2.544h2.516Z"
        fill="#5B5B5B" />
    <rect x="28.087" y="13.984" width="16.237" height="16.237" rx="8.118" fill="#5B5B5B" />
    <path
        d="M33.275 21.65c0-.124.1-.225.226-.225h5.412c.124 0 .225.101.225.226V25.71a.226.226 0 0 1-.225.225H33.5a.225.225 0 0 1-.226-.225v-4.06Z"
        stroke="#E8E8E8" stroke-width=".631" />
    <path d="M38.236 21.65v-1.578a2.03 2.03 0 1 0-4.06 0v1.579" stroke="#E8E8E8" stroke-width=".631" />
    <rect x="1.026" y="1.355" width="72.163" height="72.163" rx="36.081" stroke="#E8E8E8" stroke-width="1.128" />
</svg>