<svg xmlns="http://www.w3.org/2000/svg" fill="none" viewBox="0 0 66 66">
    <rect width="64" height="64" x=".53" y=".61" fill="#434344" rx="32" />
    <path fill="#585858"
        d="M27.73 14.21H16.41a.8.8 0 0 0-.79.67l-1.03 6.2a.8.8 0 0 0 .13.6l1.63 2.28a.8.8 0 0 1 .14.56l-.31 2.52a.8.8 0 0 0 .2.64l3.89 4.24a.8.8 0 0 1 .2.68l-.3 1.74a.8.8 0 0 0 .1.52l5.72 10.3c.1.16.24.29.41.36l7.91 3a.8.8 0 0 1 .36.28l2.82 3.88c.15.2.4.33.65.33h5.9a.8.8 0 0 0 .19-.02l2.5-.63a.8.8 0 0 0 .6-.77V49.2c0-.33.27-.6.6-.6a.6.6 0 0 0 .6-.6v-2.36a.8.8 0 0 0-.13-.44l-1.4-2.1a.8.8 0 0 0-.15-.17L28.81 27.25a.8.8 0 0 1-.28-.6V15a.8.8 0 0 0-.8-.8Z" />
    <path fill="#fff"
        d="M24.43 34.63a3.06 3.06 0 0 1-1.24 1.73c-.6.38-1.3.57-2.12.57-.78 0-1.46-.16-2.03-.49a3.32 3.32 0 0 1-1.33-1.4 4.88 4.88 0 0 1-.46-2.19c0-.84.15-1.56.46-2.17.3-.62.75-1.09 1.32-1.42a4 4 0 0 1 2.01-.49c.83 0 1.52.17 2.09.52.58.34.97.85 1.19 1.53l-1.5.64a1.84 1.84 0 0 0-.6-1.02c-.27-.2-.64-.31-1.1-.31-.68 0-1.2.23-1.6.7a3.17 3.17 0 0 0-.55 2.02c0 .87.18 1.55.55 2.02.37.47.89.7 1.56.7.97 0 1.57-.46 1.82-1.4l1.53.46ZM32.74 34.63a3.06 3.06 0 0 1-1.24 1.73c-.6.38-1.3.57-2.12.57-.78 0-1.46-.16-2.03-.49a3.32 3.32 0 0 1-1.33-1.4 4.88 4.88 0 0 1-.46-2.19c0-.84.15-1.56.46-2.17.3-.62.75-1.09 1.32-1.42a4 4 0 0 1 2.01-.49c.83 0 1.52.17 2.1.52.57.34.96.85 1.18 1.53l-1.5.64a1.84 1.84 0 0 0-.6-1.02c-.27-.2-.64-.31-1.1-.31-.68 0-1.2.23-1.59.7a3.17 3.17 0 0 0-.56 2.02c0 .87.18 1.55.55 2.02.37.47.89.7 1.56.7.97 0 1.57-.46 1.82-1.4l1.53.46ZM37.6 28.9c.91 0 1.63.22 2.14.66.51.44.77 1.07.77 1.88 0 .78-.26 1.4-.77 1.83a3.2 3.2 0 0 1-2.15.66h-1.67v2.88h-1.65V28.9h3.32Zm-.26 3.75c.51 0 .89-.1 1.13-.3.24-.21.36-.52.36-.93 0-.4-.12-.7-.36-.9-.24-.2-.62-.3-1.13-.3h-1.42v2.43h1.42ZM45.93 34.88h-3.05l-.64 1.93h-1.7l2.9-7.92h1.98l2.89 7.92h-1.72l-.66-1.93Zm-.4-1.22-.75-2.24-.36-1.2h-.02l-.34 1.18-.77 2.26h2.23Z" />
    <rect width="14.4" height="14.4" x="24.53" y="11.81" fill="#fff" rx="7.2" />
    <path stroke="#585858" stroke-width=".56"
        d="M29.13 18.61c0-.1.09-.2.2-.2h4.8c.11 0 .2.1.2.2v3.6a.2.2 0 0 1-.2.2h-4.8a.2.2 0 0 1-.2-.2v-3.6Z" />
    <path stroke="#585858" stroke-width=".56" d="M33.53 18.61v-1.4a1.8 1.8 0 0 0-3.6 0v1.4" />
    <rect width="64" height="64" x=".53" y=".61" stroke="#fff" rx="32" />
</svg>