<svg viewBox="0 0 66 66" fill="none" xmlns="http://www.w3.org/2000/svg">
    <rect x="1" y="1.00391" width="64" height="64" rx="32" fill="#0D102B" />
    <path
        d="M28.2 14.604H16.8777C16.4866 14.604 16.1529 14.8867 16.0886 15.2725L15.0545 21.4771C15.0196 21.6864 15.0693 21.901 15.1926 22.0737L16.8184 24.3498C16.9352 24.5133 16.9862 24.7147 16.9613 24.914L16.6459 27.4369C16.6168 27.6698 16.6914 27.9037 16.85 28.0767L20.7365 32.3166C20.9028 32.498 20.9764 32.7459 20.9359 32.9886L20.646 34.7283C20.6162 34.9068 20.6479 35.0901 20.7357 35.2483L26.4582 45.5488C26.5498 45.7136 26.6966 45.8408 26.8728 45.9079L34.7777 48.9193C34.9228 48.9746 35.0486 49.0708 35.1399 49.1964L37.9604 53.0745C38.1109 53.2815 38.3514 53.404 38.6074 53.404H44.5015C44.5669 53.404 44.6321 53.396 44.6955 53.3801L47.194 52.7555C47.5502 52.6665 47.8 52.3465 47.8 51.9794V49.604C47.8 49.2726 48.0686 49.004 48.4 49.004C48.7314 49.004 49 48.7354 49 48.404V46.0462C49 45.8883 48.9533 45.7339 48.8656 45.6025L47.4596 43.4934C47.42 43.4341 47.3727 43.3803 47.3189 43.3335L29.2751 27.6432C29.1003 27.4912 29 27.2711 29 27.0395V15.404C29 14.9622 28.6418 14.604 28.2 14.604Z"
        fill="#434875" />
    <path
        d="M24.8938 35.0201C24.6618 35.7801 24.2498 36.3561 23.6578 36.7481C23.0658 37.1321 22.3578 37.3241 21.5338 37.3241C20.7578 37.3241 20.0818 37.1601 19.5058 36.8321C18.9298 36.5041 18.4858 36.0361 18.1738 35.4281C17.8698 34.8121 17.7178 34.0841 17.7178 33.2441C17.7178 32.4041 17.8698 31.6801 18.1738 31.0721C18.4858 30.4561 18.9258 29.9841 19.4938 29.6561C20.0698 29.3281 20.7418 29.1641 21.5098 29.1641C22.3338 29.1641 23.0298 29.3361 23.5978 29.6801C24.1738 30.0241 24.5698 30.5361 24.7858 31.2161L23.2858 31.8521C23.1578 31.3801 22.9578 31.0401 22.6858 30.8321C22.4138 30.6241 22.0458 30.5201 21.5818 30.5201C20.9098 30.5201 20.3818 30.7561 19.9978 31.2281C19.6218 31.7001 19.4338 32.3721 19.4338 33.2441C19.4338 34.1161 19.6178 34.7881 19.9858 35.2601C20.3538 35.7321 20.8738 35.9681 21.5458 35.9681C22.5138 35.9681 23.1218 35.5001 23.3698 34.5641L24.8938 35.0201Z"
        fill="white" />
    <path
        d="M33.2052 35.0201C32.9732 35.7801 32.5612 36.3561 31.9692 36.7481C31.3772 37.1321 30.6692 37.3241 29.8452 37.3241C29.0692 37.3241 28.3932 37.1601 27.8172 36.8321C27.2412 36.5041 26.7972 36.0361 26.4852 35.4281C26.1812 34.8121 26.0292 34.0841 26.0292 33.2441C26.0292 32.4041 26.1812 31.6801 26.4852 31.0721C26.7972 30.4561 27.2372 29.9841 27.8052 29.6561C28.3812 29.3281 29.0532 29.1641 29.8212 29.1641C30.6452 29.1641 31.3412 29.3361 31.9092 29.6801C32.4852 30.0241 32.8812 30.5361 33.0972 31.2161L31.5972 31.8521C31.4692 31.3801 31.2692 31.0401 30.9972 30.8321C30.7252 30.6241 30.3572 30.5201 29.8932 30.5201C29.2212 30.5201 28.6932 30.7561 28.3092 31.2281C27.9332 31.7001 27.7452 32.3721 27.7452 33.2441C27.7452 34.1161 27.9292 34.7881 28.2972 35.2601C28.6652 35.7321 29.1852 35.9681 29.8572 35.9681C30.8252 35.9681 31.4332 35.5001 31.6812 34.5641L33.2052 35.0201Z"
        fill="white" />
    <path
        d="M38.0606 29.2841C38.9806 29.2841 39.6966 29.5081 40.2086 29.9561C40.7206 30.3961 40.9766 31.0201 40.9766 31.8281C40.9766 32.6121 40.7206 33.2241 40.2086 33.6641C39.6966 34.1041 38.9806 34.3241 38.0606 34.3241H36.3926V37.2041H34.7366V29.2841H38.0606ZM37.8086 33.0401C38.3206 33.0401 38.6966 32.9401 38.9366 32.7401C39.1766 32.5321 39.2966 32.2241 39.2966 31.8161C39.2966 31.4081 39.1766 31.1041 38.9366 30.9041C38.6966 30.7041 38.3206 30.6041 37.8086 30.6041H36.3926V33.0401H37.8086Z"
        fill="white" />
    <path
        d="M46.3996 35.2721H43.3516L42.7036 37.2041H41.0116L43.9036 29.2841H45.8836L48.7756 37.2041H47.0596L46.3996 35.2721ZM45.9916 34.0481L45.2476 31.8161L44.8876 30.6161H44.8636L44.5276 31.7921L43.7596 34.0481H45.9916Z"
        fill="white" />
    <rect x="25" y="12.2041" width="14.4" height="14.4" rx="7.2" fill="white" />
    <path
        d="M29.5986 19.0037C29.5986 18.8933 29.6882 18.8037 29.7986 18.8037H34.5986C34.7091 18.8037 34.7986 18.8933 34.7986 19.0037V20.8037V22.6037C34.7986 22.7142 34.7091 22.8037 34.5986 22.8037H29.7986C29.6882 22.8037 29.5986 22.7142 29.5986 22.6037V19.0037Z"
        stroke="#434875" stroke-width="0.56" />
    <path
        d="M33.9984 19.0037V17.6037C33.9984 16.6096 33.1925 15.8037 32.1984 15.8037V15.8037C31.2043 15.8037 30.3984 16.6096 30.3984 17.6037V19.0037"
        stroke="#434875" stroke-width="0.56" />
    <rect x="1" y="1.00391" width="64" height="64" rx="32" stroke="white" />
</svg>