<svg viewBox="0 0 66 66" fill="none" xmlns="http://www.w3.org/2000/svg">
    <rect x="1" y="1.00391" width="64" height="64" rx="32" fill="#0D102B" />
    <path
        d="M24.3108 33.0161V37.2041H23.0988L23.0628 36.2561C22.5828 36.9681 21.8028 37.3241 20.7228 37.3241C19.9948 37.3241 19.3548 37.1641 18.8028 36.8441C18.2508 36.5241 17.8188 36.0601 17.5068 35.4521C17.2028 34.8361 17.0508 34.1041 17.0508 33.2561C17.0508 32.4161 17.2068 31.6881 17.5188 31.0721C17.8388 30.4561 18.2868 29.9841 18.8628 29.6561C19.4468 29.3281 20.1268 29.1641 20.9028 29.1641C21.7588 29.1641 22.4548 29.3201 22.9908 29.6321C23.5348 29.9441 23.9628 30.4361 24.2748 31.1081L22.7508 31.7681C22.6308 31.3601 22.4108 31.0521 22.0908 30.8441C21.7788 30.6281 21.3988 30.5201 20.9508 30.5201C20.2628 30.5201 19.7268 30.7561 19.3428 31.2281C18.9588 31.7001 18.7668 32.3721 18.7668 33.2441C18.7668 34.1481 18.9548 34.8321 19.3308 35.2961C19.7068 35.7601 20.2588 35.9921 20.9868 35.9921C21.5468 35.9921 22.0028 35.8601 22.3548 35.5961C22.7068 35.3241 22.8828 34.9321 22.8828 34.4201V34.2401H20.5668V33.0161H24.3108Z"
        fill="white" />
    <path
        d="M29.2987 29.2841C30.5387 29.2841 31.4987 29.6281 32.1787 30.3161C32.8587 31.0041 33.1987 31.9801 33.1987 33.2441C33.1987 34.5081 32.8587 35.4841 32.1787 36.1721C31.4987 36.8601 30.5387 37.2041 29.2987 37.2041H26.2387V29.2841H29.2987ZM29.2147 35.8841C29.9667 35.8841 30.5307 35.6601 30.9067 35.2121C31.2907 34.7561 31.4827 34.1001 31.4827 33.2441C31.4827 32.3881 31.2907 31.7361 30.9067 31.2881C30.5307 30.8321 29.9667 30.6041 29.2147 30.6041H27.8947V35.8841H29.2147Z"
        fill="white" />
    <path
        d="M38.3077 29.2841C39.2277 29.2841 39.9437 29.5081 40.4557 29.9561C40.9677 30.3961 41.2237 31.0201 41.2237 31.8281C41.2237 32.6121 40.9677 33.2241 40.4557 33.6641C39.9437 34.1041 39.2277 34.3241 38.3077 34.3241H36.6397V37.2041H34.9837V29.2841H38.3077ZM38.0557 33.0401C38.5677 33.0401 38.9437 32.9401 39.1837 32.7401C39.4237 32.5321 39.5437 32.2241 39.5437 31.8161C39.5437 31.4081 39.4237 31.1041 39.1837 30.9041C38.9437 30.7041 38.5677 30.6041 38.0557 30.6041H36.6397V33.0401H38.0557Z"
        fill="white" />
    <path
        d="M45.9815 34.1681H44.4935V37.2041H42.8615V29.2841H46.3535C47.2575 29.2841 47.9615 29.5001 48.4655 29.9321C48.9775 30.3561 49.2335 30.9561 49.2335 31.7321C49.2335 32.3001 49.0935 32.7761 48.8135 33.1601C48.5335 33.5441 48.1335 33.8201 47.6135 33.9881L49.7015 37.2041H47.8415L45.9815 34.1681ZM44.4935 32.9081H46.1375C46.6175 32.9081 46.9695 32.8161 47.1935 32.6321C47.4255 32.4401 47.5415 32.1481 47.5415 31.7561C47.5415 31.3641 47.4255 31.0761 47.1935 30.8921C46.9695 30.7001 46.6175 30.6041 46.1375 30.6041H44.4935V32.9081Z"
        fill="white" />
    <path
        d="M32.8939 6.50669C32.9657 6.28558 33.2786 6.28558 33.3504 6.50669L33.664 7.4718C33.6961 7.57069 33.7883 7.63764 33.8922 7.63764H34.907C35.1395 7.63764 35.2362 7.93514 35.0481 8.0718L34.2271 8.66827C34.143 8.72938 34.1078 8.83771 34.1399 8.9366L34.4535 9.90171C34.5253 10.1228 34.2723 10.3067 34.0842 10.17L33.2632 9.57356C33.1791 9.51245 33.0652 9.51245 32.9811 9.57357L32.1601 10.17C31.972 10.3067 31.7189 10.1228 31.7908 9.90171L32.1044 8.9366C32.1365 8.83771 32.1013 8.72938 32.0172 8.66827L31.1962 8.0718C31.0081 7.93514 31.1048 7.63764 31.3373 7.63764H32.3521C32.456 7.63764 32.5482 7.57069 32.5803 7.4718L32.8939 6.50669Z"
        fill="#434875" />
    <path
        d="M32.8939 56.1068C32.9657 55.8857 33.2786 55.8857 33.3504 56.1068L33.664 57.0719C33.6961 57.1708 33.7883 57.2377 33.8922 57.2377H34.907C35.1395 57.2377 35.2362 57.5352 35.0481 57.6719L34.2271 58.2684C34.143 58.3295 34.1078 58.4378 34.1399 58.5367L34.4535 59.5018C34.5253 59.7229 34.2723 59.9068 34.0842 59.7701L33.2632 59.1737C33.1791 59.1125 33.0652 59.1125 32.9811 59.1737L32.1601 59.7701C31.972 59.9068 31.7189 59.7229 31.7908 59.5018L32.1044 58.5367C32.1365 58.4378 32.1013 58.3295 32.0172 58.2684L31.1962 57.6719C31.0081 57.5352 31.1048 57.2377 31.3373 57.2377H32.3521C32.456 57.2377 32.5482 57.1708 32.5803 57.0719L32.8939 56.1068Z"
        fill="#434875" />
    <path
        d="M57.6937 31.3065C57.7655 31.0854 58.0784 31.0854 58.1502 31.3065L58.4638 32.2716C58.4959 32.3705 58.5881 32.4374 58.692 32.4374H59.7068C59.9393 32.4374 60.036 32.7349 59.8479 32.8716L59.0269 33.4681C58.9428 33.5292 58.9076 33.6375 58.9397 33.7364L59.2533 34.7015C59.3252 34.9226 59.0721 35.1065 58.884 34.9698L58.063 34.3734C57.9789 34.3123 57.865 34.3123 57.7809 34.3734L56.9599 34.9698C56.7718 35.1065 56.5187 34.9226 56.5906 34.7015L56.9042 33.7364C56.9363 33.6375 56.9011 33.5292 56.817 33.4681L55.996 32.8716C55.8079 32.7349 55.9046 32.4374 56.1371 32.4374H57.1519C57.2558 32.4374 57.348 32.3705 57.3801 32.2716L57.6937 31.3065Z"
        fill="#434875" />
    <path
        d="M8.09408 31.3065C8.16593 31.0854 8.47875 31.0854 8.55059 31.3065L8.86417 32.2716C8.8963 32.3705 8.98845 32.4374 9.09243 32.4374H10.1072C10.3397 32.4374 10.4364 32.7349 10.2483 32.8716L9.4273 33.4681C9.34318 33.5292 9.30799 33.6375 9.34012 33.7364L9.6537 34.7015C9.72554 34.9226 9.47247 35.1065 9.28438 34.9698L8.46341 34.3734C8.37929 34.3123 8.26539 34.3123 8.18127 34.3734L7.3603 34.9698C7.17221 35.1065 6.91913 34.9226 6.99098 34.7015L7.30456 33.7364C7.33669 33.6375 7.30149 33.5292 7.21737 33.4681L6.3964 32.8716C6.20831 32.7349 6.30498 32.4374 6.53747 32.4374H7.55225C7.65622 32.4374 7.74837 32.3705 7.7805 32.2716L8.09408 31.3065Z"
        fill="#434875" />
    <path
        d="M20.4945 9.82945C20.5663 9.60833 20.8791 9.60833 20.951 9.82945L21.2646 10.7946C21.2967 10.8934 21.3888 10.9604 21.4928 10.9604H22.5076C22.7401 10.9604 22.8368 11.2579 22.6487 11.3946L21.8277 11.991C21.7436 12.0521 21.7084 12.1605 21.7405 12.2594L22.0541 13.2245C22.1259 13.4456 21.8729 13.6294 21.6848 13.4928L20.8638 12.8963C20.7797 12.8352 20.6658 12.8352 20.5817 12.8963L19.7607 13.4928C19.5726 13.6294 19.3195 13.4456 19.3914 13.2245L19.7049 12.2594C19.7371 12.1605 19.7019 12.0521 19.6178 11.991L18.7968 11.3946C18.6087 11.2579 18.7054 10.9604 18.9379 10.9604H19.9526C20.0566 10.9604 20.1488 10.8934 20.1809 10.7946L20.4945 9.82945Z"
        fill="#434875" />
    <path
        d="M45.2943 52.784C45.3661 52.5629 45.6789 52.5629 45.7508 52.784L46.0644 53.7491C46.0965 53.848 46.1886 53.915 46.2926 53.915H47.3074C47.5399 53.915 47.6366 54.2125 47.4485 54.3491L46.6275 54.9456C46.5434 55.0067 46.5082 55.1151 46.5403 55.2139L46.8539 56.1791C46.9257 56.4002 46.6727 56.584 46.4846 56.4474L45.6636 55.8509C45.5795 55.7898 45.4656 55.7898 45.3815 55.8509L44.5605 56.4474C44.3724 56.584 44.1193 56.4002 44.1912 56.1791L44.5048 55.2139C44.5369 55.1151 44.5017 55.0067 44.4176 54.9456L43.5966 54.3491C43.4085 54.2125 43.5052 53.915 43.7377 53.915H44.7524C44.8564 53.915 44.9486 53.848 44.9807 53.7491L45.2943 52.784Z"
        fill="#434875" />
    <path
        d="M54.3724 18.9066C54.4442 18.6855 54.7571 18.6855 54.8289 18.9066L55.1425 19.8717C55.1746 19.9706 55.2668 20.0375 55.3707 20.0375H56.3855C56.618 20.0375 56.7147 20.335 56.5266 20.4717L55.7056 21.0682C55.6215 21.1293 55.5863 21.2376 55.6184 21.3365L55.932 22.3016C56.0039 22.5227 55.7508 22.7066 55.5627 22.5699L54.7417 21.9735C54.6576 21.9124 54.5437 21.9124 54.4596 21.9735L53.6386 22.5699C53.4505 22.7066 53.1975 22.5227 53.2693 22.3016L53.5829 21.3365C53.615 21.2376 53.5798 21.1293 53.4957 21.0682L52.6747 20.4717C52.4866 20.335 52.5833 20.0375 52.8158 20.0375H53.8306C53.9345 20.0375 54.0267 19.9706 54.0588 19.8717L54.3724 18.9066Z"
        fill="#434875" />
    <path
        d="M11.4163 43.7069C11.4882 43.4858 11.801 43.4858 11.8729 43.7069L12.1864 44.672C12.2186 44.7709 12.3107 44.8378 12.4147 44.8378H13.4295C13.662 44.8378 13.7586 45.1353 13.5705 45.272L12.7496 45.8685C12.6654 45.9296 12.6303 46.0379 12.6624 46.1368L12.976 47.1019C13.0478 47.323 12.7947 47.5069 12.6066 47.3702L11.7857 46.7738C11.7016 46.7126 11.5877 46.7126 11.5035 46.7738L10.6826 47.3702C10.4945 47.5069 10.2414 47.323 10.3132 47.1019L10.6268 46.1368C10.659 46.0379 10.6238 45.9296 10.5396 45.8685L9.71867 45.272C9.53058 45.1353 9.62724 44.8378 9.85974 44.8378H10.8745C10.9785 44.8378 11.0706 44.7709 11.1028 44.672L11.4163 43.7069Z"
        fill="#434875" />
    <path
        d="M11.4163 18.9066C11.4882 18.6855 11.801 18.6855 11.8729 18.9066L12.1864 19.8717C12.2186 19.9706 12.3107 20.0375 12.4147 20.0375H13.4295C13.662 20.0375 13.7586 20.335 13.5705 20.4717L12.7496 21.0682C12.6654 21.1293 12.6303 21.2376 12.6624 21.3365L12.976 22.3016C13.0478 22.5227 12.7947 22.7066 12.6066 22.5699L11.7857 21.9735C11.7016 21.9124 11.5877 21.9124 11.5035 21.9735L10.6826 22.5699C10.4945 22.7066 10.2414 22.5227 10.3132 22.3016L10.6268 21.3365C10.659 21.2376 10.6238 21.1293 10.5396 21.0682L9.71867 20.4717C9.53058 20.335 9.62724 20.0375 9.85974 20.0375H10.8745C10.9785 20.0375 11.0706 19.9706 11.1028 19.8717L11.4163 18.9066Z"
        fill="#434875" />
    <path
        d="M54.3724 43.7069C54.4442 43.4858 54.7571 43.4858 54.8289 43.7069L55.1425 44.672C55.1746 44.7709 55.2668 44.8378 55.3707 44.8378H56.3855C56.618 44.8378 56.7147 45.1353 56.5266 45.272L55.7056 45.8685C55.6215 45.9296 55.5863 46.0379 55.6184 46.1368L55.932 47.1019C56.0039 47.323 55.7508 47.5069 55.5627 47.3702L54.7417 46.7738C54.6576 46.7126 54.5437 46.7126 54.4596 46.7738L53.6386 47.3702C53.4505 47.5069 53.1975 47.323 53.2693 47.1019L53.5829 46.1368C53.615 46.0379 53.5798 45.9296 53.4957 45.8685L52.6747 45.272C52.4866 45.1353 52.5833 44.8378 52.8158 44.8378H53.8306C53.9345 44.8378 54.0267 44.7709 54.0588 44.672L54.3724 43.7069Z"
        fill="#434875" />
    <path
        d="M45.2943 9.82945C45.3661 9.60833 45.6789 9.60833 45.7508 9.82945L46.0644 10.7946C46.0965 10.8934 46.1886 10.9604 46.2926 10.9604H47.3074C47.5399 10.9604 47.6366 11.2579 47.4485 11.3946L46.6275 11.991C46.5434 12.0521 46.5082 12.1605 46.5403 12.2594L46.8539 13.2245C46.9257 13.4456 46.6727 13.6294 46.4846 13.4928L45.6636 12.8963C45.5795 12.8352 45.4656 12.8352 45.3815 12.8963L44.5605 13.4928C44.3724 13.6294 44.1193 13.4456 44.1912 13.2245L44.5048 12.2594C44.5369 12.1605 44.5017 12.0521 44.4176 11.991L43.5966 11.3946C43.4085 11.2579 43.5052 10.9604 43.7377 10.9604H44.7524C44.8564 10.9604 44.9486 10.8934 44.9807 10.7946L45.2943 9.82945Z"
        fill="#434875" />
    <path
        d="M20.4945 52.784C20.5663 52.5629 20.8791 52.5629 20.951 52.784L21.2646 53.7491C21.2967 53.848 21.3888 53.915 21.4928 53.915H22.5076C22.7401 53.915 22.8368 54.2125 22.6487 54.3491L21.8277 54.9456C21.7436 55.0067 21.7084 55.1151 21.7405 55.2139L22.0541 56.1791C22.1259 56.4002 21.8729 56.584 21.6848 56.4474L20.8638 55.8509C20.7797 55.7898 20.6658 55.7898 20.5817 55.8509L19.7607 56.4474C19.5726 56.584 19.3195 56.4002 19.3914 56.1791L19.7049 55.2139C19.7371 55.1151 19.7019 55.0067 19.6178 54.9456L18.7968 54.3491C18.6087 54.2125 18.7054 53.915 18.9379 53.915H19.9526C20.0566 53.915 20.1488 53.848 20.1809 53.7491L20.4945 52.784Z"
        fill="#434875" />
    <rect x="1" y="1.00391" width="64" height="64" rx="32" stroke="white" />
</svg>