<svg fill="none" xmlns="http://www.w3.org/2000/svg" viewBox="0 0 74 75">
    <rect x="1.209" y="1.355" width="72.163" height="72.163" rx="36.081" fill="#fff" />
    <path
        d="M27.493 37.45v4.723h-1.367l-.04-1.07c-.541.803-1.421 1.205-2.639 1.205-.82 0-1.542-.18-2.165-.541-.622-.361-1.11-.884-1.46-1.57-.344-.694-.515-1.52-.515-2.476 0-.947.176-1.768.528-2.462a3.813 3.813 0 0 1 1.515-1.597c.659-.37 1.425-.555 2.3-.555.965 0 1.75.176 2.355.528.613.352 1.096.906 1.447 1.664l-1.718.744c-.135-.46-.383-.807-.744-1.042-.352-.243-.78-.365-1.286-.365-.775 0-1.38.266-1.813.798-.433.533-.65 1.29-.65 2.274 0 1.019.213 1.79.637 2.313.424.523 1.046.785 1.867.785.631 0 1.145-.149 1.542-.447.397-.306.596-.748.596-1.326v-.202H23.27v-1.38h4.222ZM33.117 33.242c1.398 0 2.48.388 3.247 1.164.767.776 1.15 1.876 1.15 3.302 0 1.425-.383 2.525-1.15 3.301-.767.776-1.849 1.164-3.247 1.164h-3.45v-8.93h3.45Zm-.095 7.442c.848 0 1.484-.252 1.908-.758.433-.514.65-1.253.65-2.218 0-.966-.217-1.7-.65-2.206-.424-.514-1.06-.771-1.908-.771h-1.488v5.953h1.488ZM43.275 33.242c1.037 0 1.845.253 2.422.758.577.496.866 1.2.866 2.11 0 .885-.289 1.575-.866 2.071-.577.496-1.385.744-2.422.744h-1.88v3.248h-1.868v-8.93h3.748Zm-.284 4.236c.577 0 1.001-.113 1.272-.339.27-.234.406-.582.406-1.042 0-.46-.136-.802-.406-1.028-.271-.225-.695-.338-1.272-.338h-1.597v2.746h1.597ZM51.928 38.75H50.25v3.423h-1.84v-8.93h3.937c1.02 0 1.813.243 2.381.73.578.478.866 1.155.866 2.03 0 .64-.158 1.177-.473 1.61-.316.433-.767.744-1.353.933l2.354 3.627h-2.097l-2.097-3.424Zm-1.678-1.421h1.853c.542 0 .938-.104 1.191-.312.262-.216.392-.545.392-.987 0-.442-.13-.767-.392-.974-.252-.217-.65-.325-1.19-.325H50.25v2.598Z"
        fill="#5B5B5B" />
    <path
        d="M37.172 7.56a.27.27 0 0 1 .514 0l.354 1.088a.27.27 0 0 0 .257.187h1.145a.27.27 0 0 1 .158.49l-.925.672a.27.27 0 0 0-.098.303l.353 1.088a.27.27 0 0 1-.416.303l-.926-.673a.27.27 0 0 0-.318 0l-.926.673a.27.27 0 0 1-.416-.303l.353-1.088a.27.27 0 0 0-.098-.303l-.926-.672a.27.27 0 0 1 .16-.49h1.144a.27.27 0 0 0 .257-.187l.354-1.088ZM37.172 63.486a.27.27 0 0 1 .514 0l.354 1.088a.27.27 0 0 0 .257.187h1.145a.27.27 0 0 1 .158.49l-.925.672a.27.27 0 0 0-.098.303l.353 1.088a.27.27 0 0 1-.416.303l-.926-.673a.27.27 0 0 0-.318 0l-.926.673a.27.27 0 0 1-.416-.303l.353-1.088a.27.27 0 0 0-.098-.303l-.926-.672a.27.27 0 0 1 .16-.49h1.144a.27.27 0 0 0 .257-.187l.354-1.088ZM65.134 35.523a.27.27 0 0 1 .515 0l.354 1.088a.27.27 0 0 0 .257.187h1.144a.27.27 0 0 1 .16.49l-.926.672a.27.27 0 0 0-.099.303l.354 1.088a.27.27 0 0 1-.416.302l-.926-.672a.27.27 0 0 0-.318 0l-.926.672a.27.27 0 0 1-.416-.302l.353-1.088a.27.27 0 0 0-.098-.303l-.926-.672a.27.27 0 0 1 .16-.49h1.143a.27.27 0 0 0 .258-.187l.353-1.088ZM9.208 35.523a.27.27 0 0 1 .515 0l.354 1.088a.27.27 0 0 0 .257.187h1.144a.27.27 0 0 1 .16.49l-.926.672a.27.27 0 0 0-.099.303l.354 1.088a.27.27 0 0 1-.416.302l-.926-.672a.27.27 0 0 0-.318 0l-.926.672a.27.27 0 0 1-.416-.302l.353-1.088a.27.27 0 0 0-.098-.303l-.926-.672a.27.27 0 0 1 .16-.49h1.144a.27.27 0 0 0 .257-.187l.353-1.088ZM23.19 11.307a.27.27 0 0 1 .515 0l.353 1.088a.27.27 0 0 0 .258.187h1.144a.27.27 0 0 1 .159.49l-.926.672a.27.27 0 0 0-.098.303l.354 1.088a.27.27 0 0 1-.417.303l-.925-.673a.27.27 0 0 0-.319 0l-.925.672a.27.27 0 0 1-.417-.302l.354-1.088a.27.27 0 0 0-.098-.303l-.926-.672a.27.27 0 0 1 .159-.49h1.144a.27.27 0 0 0 .258-.187l.353-1.088ZM51.153 59.739a.27.27 0 0 1 .515 0l.353 1.088a.27.27 0 0 0 .258.187h1.144a.27.27 0 0 1 .159.49l-.926.672a.27.27 0 0 0-.098.303l.353 1.088a.27.27 0 0 1-.416.302l-.926-.672a.27.27 0 0 0-.318 0l-.925.672a.27.27 0 0 1-.417-.302l.354-1.088a.27.27 0 0 0-.099-.303l-.925-.672a.27.27 0 0 1 .159-.49h1.144a.27.27 0 0 0 .257-.187l.354-1.088ZM61.389 21.541a.27.27 0 0 1 .515 0l.353 1.089a.27.27 0 0 0 .258.187h1.144a.27.27 0 0 1 .159.49l-.926.672a.27.27 0 0 0-.098.302l.353 1.088a.27.27 0 0 1-.416.303l-.926-.673a.27.27 0 0 0-.318 0l-.925.673a.27.27 0 0 1-.417-.303l.354-1.088a.27.27 0 0 0-.099-.302l-.925-.673a.27.27 0 0 1 .159-.49h1.144a.27.27 0 0 0 .257-.186l.354-1.089ZM12.954 49.505a.27.27 0 0 1 .515 0l.353 1.088a.27.27 0 0 0 .258.187h1.144a.27.27 0 0 1 .16.49l-.927.672a.27.27 0 0 0-.098.302l.354 1.089a.27.27 0 0 1-.417.302l-.925-.672a.27.27 0 0 0-.319 0l-.925.672a.27.27 0 0 1-.417-.302l.354-1.089a.27.27 0 0 0-.098-.302l-.926-.673a.27.27 0 0 1 .159-.49h1.144a.27.27 0 0 0 .258-.186l.353-1.089ZM12.954 21.541a.27.27 0 0 1 .515 0l.353 1.089a.27.27 0 0 0 .258.187h1.144a.27.27 0 0 1 .16.49l-.927.672a.27.27 0 0 0-.098.302l.354 1.088a.27.27 0 0 1-.417.303l-.925-.673a.27.27 0 0 0-.319 0l-.925.673a.27.27 0 0 1-.417-.303l.354-1.088a.27.27 0 0 0-.098-.302l-.926-.673a.27.27 0 0 1 .159-.49h1.144a.27.27 0 0 0 .258-.186l.353-1.089ZM61.389 49.505a.27.27 0 0 1 .515 0l.353 1.088a.27.27 0 0 0 .258.187h1.144a.27.27 0 0 1 .159.49l-.926.672a.27.27 0 0 0-.098.302l.353 1.089a.27.27 0 0 1-.416.302l-.926-.672a.27.27 0 0 0-.318 0l-.925.672a.27.27 0 0 1-.417-.302l.354-1.089a.27.27 0 0 0-.099-.302l-.925-.673a.27.27 0 0 1 .159-.49h1.144a.27.27 0 0 0 .257-.186l.354-1.089ZM51.153 11.307a.27.27 0 0 1 .515 0l.353 1.088a.27.27 0 0 0 .258.187h1.144a.27.27 0 0 1 .159.49l-.926.672a.27.27 0 0 0-.098.303l.353 1.088a.27.27 0 0 1-.416.303l-.926-.673a.27.27 0 0 0-.318 0l-.925.672a.27.27 0 0 1-.417-.302l.354-1.088a.27.27 0 0 0-.099-.303l-.925-.672a.27.27 0 0 1 .159-.49h1.144a.27.27 0 0 0 .257-.187l.354-1.088ZM23.19 59.739a.27.27 0 0 1 .515 0l.353 1.088a.27.27 0 0 0 .258.187h1.144a.27.27 0 0 1 .159.49l-.926.672a.27.27 0 0 0-.098.303l.354 1.088a.27.27 0 0 1-.417.302l-.925-.672a.27.27 0 0 0-.319 0l-.925.672a.27.27 0 0 1-.417-.302l.354-1.088a.27.27 0 0 0-.098-.303l-.926-.672a.27.27 0 0 1 .159-.49h1.144a.27.27 0 0 0 .258-.187l.353-1.088Z"
        fill="#E8E8E8" />
    <rect x="1.209" y="1.355" width="72.163" height="72.163" rx="36.081" stroke="#E8E8E8" stroke-width="1.128" />
</svg>