<svg viewBox="0 0 80 80" fill="none" xmlns="http://www.w3.org/2000/svg">
    <rect x=".8" y=".8" width="78.4" height="78.4" rx="39.2" fill="#0D102B" />
    <path
        d="M28.888 40.765V46h-1.515l-.045-1.185c-.6.89-1.575 1.335-2.925 1.335-.91 0-1.71-.2-2.4-.6-.69-.4-1.23-.98-1.62-1.74-.38-.77-.57-1.685-.57-2.745 0-1.05.195-1.96.585-2.73.4-.77.96-1.36 1.68-1.77.73-.41 1.58-.615 2.55-.615 1.07 0 1.94.195 2.61.585.68.39 1.215 1.005 1.605 1.845l-1.905.825c-.15-.51-.425-.895-.825-1.155-.39-.27-.865-.405-1.425-.405-.86 0-1.53.295-2.01.885-.48.59-.72 1.43-.72 2.52 0 1.13.235 1.985.705 2.565.47.58 1.16.87 2.07.87.7 0 1.27-.165 1.71-.495.44-.34.66-.83.66-1.47v-.225h-2.895v-1.53h4.68Zm6.235-4.665c1.55 0 2.75.43 3.6 1.29.85.86 1.275 2.08 1.275 3.66s-.425 2.8-1.275 3.66c-.85.86-2.05 1.29-3.6 1.29h-3.825v-9.9h3.825Zm-.105 8.25c.94 0 1.645-.28 2.115-.84.48-.57.72-1.39.72-2.46s-.24-1.885-.72-2.445c-.47-.57-1.175-.855-2.115-.855h-1.65v6.6h1.65Zm11.366-8.25c1.15 0 2.045.28 2.685.84.64.55.96 1.33.96 2.34 0 .98-.32 1.745-.96 2.295-.64.55-1.535.825-2.685.825H44.3V46h-2.07v-9.9h4.155Zm-.315 4.695c.64 0 1.11-.125 1.41-.375.3-.26.45-.645.45-1.155s-.15-.89-.45-1.14c-.3-.25-.77-.375-1.41-.375H44.3v3.045h1.77Zm9.907 1.41h-1.86V46h-2.04v-9.9h4.365c1.13 0 2.01.27 2.64.81.64.53.96 1.28.96 2.25 0 .71-.174 1.305-.524 1.785-.35.48-.85.825-1.5 1.035l2.61 4.02H58.3l-2.325-3.795Zm-1.86-1.575h2.056c.6 0 1.04-.115 1.32-.345.29-.24.434-.605.434-1.095s-.145-.85-.434-1.08c-.28-.24-.72-.36-1.32-.36h-2.055v2.88Z"
        fill="#fff" />
    <path
        d="M39.87 6.878a.3.3 0 0 1 .57 0l.392 1.207a.3.3 0 0 0 .285.207h1.269a.3.3 0 0 1 .176.543l-1.026.745a.3.3 0 0 0-.11.335l.393 1.207a.3.3 0 0 1-.462.335l-1.026-.745a.3.3 0 0 0-.353 0l-1.026.745a.3.3 0 0 1-.462-.335l.392-1.207a.3.3 0 0 0-.109-.335l-1.026-.745a.3.3 0 0 1 .176-.543h1.269a.3.3 0 0 0 .285-.207l.392-1.207ZM39.87 68.878a.3.3 0 0 1 .57 0l.392 1.207a.3.3 0 0 0 .285.207h1.269a.3.3 0 0 1 .176.543l-1.026.745a.3.3 0 0 0-.11.335l.393 1.207a.3.3 0 0 1-.462.335l-1.026-.745a.3.3 0 0 0-.353 0l-1.026.745a.3.3 0 0 1-.462-.335l.392-1.207a.3.3 0 0 0-.109-.335l-1.026-.745a.3.3 0 0 1 .176-.543h1.269a.3.3 0 0 0 .285-.207l.392-1.207ZM70.87 37.878a.3.3 0 0 1 .57 0l.392 1.206a.3.3 0 0 0 .285.208h1.268a.3.3 0 0 1 .177.542l-1.026.746a.3.3 0 0 0-.11.336l.393 1.206a.3.3 0 0 1-.462.335l-1.026-.745a.3.3 0 0 0-.353 0l-1.026.745a.3.3 0 0 1-.462-.335l.392-1.206a.3.3 0 0 0-.109-.336l-1.026-.745a.3.3 0 0 1 .176-.543h1.269a.3.3 0 0 0 .285-.208l.392-1.206ZM8.87 37.878a.3.3 0 0 1 .57 0l.392 1.206a.3.3 0 0 0 .285.208h1.268a.3.3 0 0 1 .177.542l-1.026.746a.3.3 0 0 0-.11.336l.393 1.206a.3.3 0 0 1-.462.335l-1.026-.745a.3.3 0 0 0-.353 0l-1.026.745a.3.3 0 0 1-.462-.335l.392-1.206a.3.3 0 0 0-.109-.336l-1.026-.745a.3.3 0 0 1 .176-.543h1.269a.3.3 0 0 0 .285-.208l.392-1.206ZM24.37 11.031a.3.3 0 0 1 .57 0l.392 1.207a.3.3 0 0 0 .285.207h1.268a.3.3 0 0 1 .177.543l-1.026.745a.3.3 0 0 0-.11.336l.393 1.206a.3.3 0 0 1-.462.336l-1.026-.746a.3.3 0 0 0-.353 0l-1.026.746a.3.3 0 0 1-.462-.336l.392-1.206a.3.3 0 0 0-.109-.336l-1.026-.745a.3.3 0 0 1 .176-.543h1.269a.3.3 0 0 0 .285-.207l.392-1.207ZM55.37 64.725a.3.3 0 0 1 .57 0l.392 1.206a.3.3 0 0 0 .285.208h1.269a.3.3 0 0 1 .176.542l-1.026.746a.3.3 0 0 0-.11.335l.393 1.207a.3.3 0 0 1-.462.335l-1.026-.745a.3.3 0 0 0-.353 0l-1.026.745a.3.3 0 0 1-.462-.335l.392-1.207a.3.3 0 0 0-.109-.335l-1.026-.746a.3.3 0 0 1 .176-.542h1.269a.3.3 0 0 0 .285-.208l.392-1.206ZM66.716 22.378a.3.3 0 0 1 .57 0l.392 1.207a.3.3 0 0 0 .286.207h1.268a.3.3 0 0 1 .177.543l-1.027.745a.3.3 0 0 0-.109.336l.392 1.206a.3.3 0 0 1-.461.335l-1.027-.745a.3.3 0 0 0-.352 0l-1.026.745a.3.3 0 0 1-.462-.335l.392-1.206a.3.3 0 0 0-.11-.336l-1.025-.745a.3.3 0 0 1 .176-.543h1.269a.3.3 0 0 0 .285-.207l.392-1.207ZM13.022 53.378a.3.3 0 0 1 .571 0l.392 1.207a.3.3 0 0 0 .285.207h1.269a.3.3 0 0 1 .176.543l-1.026.745a.3.3 0 0 0-.11.336l.393 1.206a.3.3 0 0 1-.462.336l-1.026-.746a.3.3 0 0 0-.353 0l-1.026.745a.3.3 0 0 1-.462-.335l.393-1.206a.3.3 0 0 0-.11-.336l-1.026-.745a.3.3 0 0 1 .177-.543h1.268a.3.3 0 0 0 .285-.207l.392-1.207ZM13.022 22.378a.3.3 0 0 1 .571 0l.392 1.207a.3.3 0 0 0 .285.207h1.269a.3.3 0 0 1 .176.543l-1.026.745a.3.3 0 0 0-.11.336l.393 1.206a.3.3 0 0 1-.462.335l-1.026-.745a.3.3 0 0 0-.353 0l-1.026.745a.3.3 0 0 1-.462-.335l.393-1.206a.3.3 0 0 0-.11-.336l-1.026-.745a.3.3 0 0 1 .177-.543h1.268a.3.3 0 0 0 .285-.207l.392-1.207ZM66.716 53.378a.3.3 0 0 1 .57 0l.393 1.207a.3.3 0 0 0 .285.207h1.268a.3.3 0 0 1 .177.543l-1.027.745a.3.3 0 0 0-.109.336l.392 1.206a.3.3 0 0 1-.461.336l-1.026-.746a.3.3 0 0 0-.353 0l-1.026.745a.3.3 0 0 1-.462-.335l.392-1.206a.3.3 0 0 0-.109-.336l-1.026-.745a.3.3 0 0 1 .176-.543h1.269a.3.3 0 0 0 .285-.207l.392-1.207ZM55.37 11.031a.3.3 0 0 1 .57 0l.392 1.207a.3.3 0 0 0 .285.207h1.269a.3.3 0 0 1 .176.543l-1.026.745a.3.3 0 0 0-.11.336l.393 1.206a.3.3 0 0 1-.462.336l-1.026-.746a.3.3 0 0 0-.353 0l-1.026.746a.3.3 0 0 1-.462-.336l.392-1.206a.3.3 0 0 0-.109-.336l-1.026-.745a.3.3 0 0 1 .176-.543h1.269a.3.3 0 0 0 .285-.207l.392-1.207ZM24.37 64.725a.3.3 0 0 1 .57 0l.392 1.206a.3.3 0 0 0 .285.208h1.269a.3.3 0 0 1 .176.542l-1.026.746a.3.3 0 0 0-.11.335l.393 1.207a.3.3 0 0 1-.462.335l-1.026-.745a.3.3 0 0 0-.353 0l-1.026.745a.3.3 0 0 1-.462-.335l.392-1.207a.3.3 0 0 0-.109-.335l-1.026-.746a.3.3 0 0 1 .177-.542h1.268a.3.3 0 0 0 .285-.208l.392-1.206Z"
        fill="#FF5D22" />
    <rect x=".8" y=".8" width="78.4" height="78.4" rx="39.2" stroke="#fff" stroke-width="1.6" />
</svg>