<svg xmlns="http://www.w3.org/2000/svg" fill="none" viewBox="0 0 66 66">
    <rect width="64" height="64" x=".53" y=".61" fill="#434344" rx="32" />
    <path fill="#fff"
        d="M23.84 32.62v4.2h-1.21l-.04-.96c-.48.72-1.26 1.07-2.34 1.07-.72 0-1.36-.16-1.92-.48a3.31 3.31 0 0 1-1.3-1.4 4.91 4.91 0 0 1-.45-2.19c0-.84.16-1.56.47-2.18.32-.62.77-1.09 1.34-1.42a4.1 4.1 0 0 1 2.04-.49c.86 0 1.56.16 2.1.47.54.31.96.8 1.28 1.48l-1.53.66a1.6 1.6 0 0 0-.66-.93c-.31-.21-.69-.32-1.14-.32-.69 0-1.22.23-1.6.7a3.12 3.12 0 0 0-.58 2.02c0 .9.19 1.59.56 2.05.38.47.93.7 1.66.7.56 0 1.01-.13 1.37-.4.35-.27.52-.66.52-1.17v-.18H20.1v-1.23h3.74ZM28.83 28.9c1.24 0 2.2.34 2.88 1.02.68.7 1.02 1.67 1.02 2.93 0 1.27-.34 2.24-1.02 2.93a3.87 3.87 0 0 1-2.88 1.03h-3.06V28.9h3.06Zm-.08 6.6c.75 0 1.31-.23 1.69-.68.38-.46.57-1.11.57-1.97 0-.85-.19-1.5-.57-1.95-.38-.46-.94-.69-1.7-.69h-1.31v5.28h1.32ZM37.84 28.9c.92 0 1.63.22 2.15.66.5.44.76 1.07.76 1.88 0 .78-.25 1.4-.76 1.83a3.2 3.2 0 0 1-2.15.66h-1.67v2.88h-1.66V28.9h3.33Zm-.25 3.75c.5 0 .88-.1 1.12-.3.24-.21.36-.52.36-.93 0-.4-.12-.7-.36-.9-.24-.2-.61-.3-1.12-.3h-1.42v2.43h1.42ZM45.51 33.78h-1.49v3.03H42.4V28.9h3.5c.9 0 1.6.22 2.1.65.52.42.77 1.02.77 1.8 0 .57-.14 1.04-.42 1.43-.28.38-.68.66-1.2.83l2.1 3.21h-1.87l-1.86-3.03Zm-1.49-1.26h1.65c.48 0 .83-.1 1.05-.28.24-.2.35-.48.35-.88 0-.39-.11-.68-.35-.86-.22-.2-.57-.29-1.05-.29h-1.65v2.3Z" />
    <path fill="#585858"
        d="M32.43 6.11a.24.24 0 0 1 .45 0l.32.97c.03.1.12.17.22.17h1.02c.23 0 .33.3.14.43l-.82.6a.24.24 0 0 0-.09.26l.32.97c.07.22-.19.4-.37.27l-.82-.6a.24.24 0 0 0-.29 0l-.82.6a.24.24 0 0 1-.37-.27l.32-.97c.03-.1 0-.2-.1-.26l-.81-.6a.24.24 0 0 1 .14-.43h1.01c.1 0 .2-.07.23-.17l.32-.97ZM32.43 55.71a.24.24 0 0 1 .45 0l.32.97c.03.1.12.17.22.17h1.02c.23 0 .33.3.14.43l-.82.6a.24.24 0 0 0-.09.26l.32.97c.07.22-.19.4-.37.27l-.82-.6a.24.24 0 0 0-.29 0l-.82.6a.24.24 0 0 1-.37-.27l.32-.97c.03-.1 0-.2-.1-.26l-.81-.6a.24.24 0 0 1 .14-.43h1.01c.1 0 .2-.07.23-.17l.32-.97ZM57.23 30.91a.24.24 0 0 1 .45 0l.32.97c.03.1.12.16.22.16h1.02c.23 0 .33.3.14.44l-.82.6a.24.24 0 0 0-.09.26l.32.97c.07.22-.19.4-.37.27l-.82-.6a.24.24 0 0 0-.29 0l-.82.6a.24.24 0 0 1-.37-.27l.32-.97c.03-.1 0-.2-.09-.26l-.82-.6a.24.24 0 0 1 .14-.44h1.01c.1 0 .2-.06.23-.16l.32-.97ZM7.63 30.91a.24.24 0 0 1 .45 0l.32.97c.03.1.12.16.22.16h1.02c.23 0 .33.3.14.44l-.82.6a.24.24 0 0 0-.09.26l.32.97c.07.22-.19.4-.37.27l-.82-.6a.24.24 0 0 0-.29 0l-.82.6a.24.24 0 0 1-.37-.27l.32-.97c.03-.1 0-.2-.09-.26l-.82-.6a.24.24 0 0 1 .14-.44h1.01c.1 0 .2-.06.23-.16l.32-.97ZM20.03 9.44a.24.24 0 0 1 .45 0l.32.96c.03.1.12.17.22.17h1.02c.23 0 .33.3.14.43l-.82.6a.24.24 0 0 0-.09.27l.32.96c.07.22-.19.4-.37.27l-.82-.6a.24.24 0 0 0-.29 0l-.82.6a.24.24 0 0 1-.37-.27l.32-.96c.03-.1 0-.21-.09-.27l-.82-.6a.24.24 0 0 1 .14-.43h1.01c.1 0 .2-.07.23-.17l.32-.96ZM44.83 52.4a.24.24 0 0 1 .45 0l.32.96c.03.1.12.16.22.16h1.02c.23 0 .33.3.14.44l-.82.6a.24.24 0 0 0-.09.26l.32.97c.07.22-.19.4-.37.26l-.82-.6a.24.24 0 0 0-.29 0l-.82.6a.24.24 0 0 1-.37-.26l.32-.97c.03-.1 0-.2-.09-.27l-.82-.6a.24.24 0 0 1 .14-.43h1.01c.1 0 .2-.06.23-.16l.32-.97ZM53.9 18.51a.24.24 0 0 1 .46 0l.31.97c.04.1.13.16.23.16h1.02c.23 0 .33.3.14.44l-.82.6a.24.24 0 0 0-.09.26l.31.97c.08.22-.18.4-.37.27l-.82-.6a.24.24 0 0 0-.28 0l-.82.6a.24.24 0 0 1-.37-.27l.32-.97c.03-.1 0-.2-.1-.26l-.81-.6a.24.24 0 0 1 .14-.43h1.01c.1 0 .2-.07.23-.17l.31-.97ZM10.95 43.31a.24.24 0 0 1 .45 0l.32.97c.03.1.12.17.23.17h1.01c.23 0 .33.3.14.43l-.82.6a.24.24 0 0 0-.09.26l.32.97c.07.22-.18.4-.37.27l-.82-.6a.24.24 0 0 0-.28 0l-.83.6a.24.24 0 0 1-.37-.27l.32-.97c.03-.1 0-.2-.09-.26l-.82-.6a.24.24 0 0 1 .14-.43h1.02c.1 0 .2-.07.22-.17l.32-.97ZM10.95 18.51a.24.24 0 0 1 .45 0l.32.97c.03.1.12.16.23.16h1.01c.23 0 .33.3.14.44l-.82.6a.24.24 0 0 0-.09.26l.32.97c.07.22-.18.4-.37.27l-.82-.6a.24.24 0 0 0-.28 0l-.83.6a.24.24 0 0 1-.37-.27l.32-.97c.03-.1 0-.2-.09-.26l-.82-.6a.24.24 0 0 1 .14-.43h1.02c.1 0 .2-.07.22-.17l.32-.97ZM53.9 43.31a.24.24 0 0 1 .46 0l.31.97c.04.1.13.17.23.17h1.02c.23 0 .33.3.14.43l-.82.6a.24.24 0 0 0-.09.26l.31.97c.08.22-.18.4-.37.27l-.82-.6a.24.24 0 0 0-.28 0l-.82.6a.24.24 0 0 1-.37-.27l.32-.97c.03-.1 0-.2-.1-.26l-.81-.6a.24.24 0 0 1 .14-.43h1.01c.1 0 .2-.07.23-.17l.31-.97ZM44.83 9.44a.24.24 0 0 1 .45 0l.32.96c.03.1.12.17.22.17h1.02c.23 0 .33.3.14.43l-.82.6a.24.24 0 0 0-.09.27l.32.96c.07.22-.19.4-.37.27l-.82-.6a.24.24 0 0 0-.29 0l-.82.6a.24.24 0 0 1-.37-.27l.32-.96c.03-.1 0-.21-.09-.27l-.82-.6a.24.24 0 0 1 .14-.43h1.01c.1 0 .2-.07.23-.17l.32-.96ZM20.03 52.4a.24.24 0 0 1 .45 0l.32.96c.03.1.12.16.22.16h1.02c.23 0 .33.3.14.44l-.82.6a.24.24 0 0 0-.09.26l.32.97c.07.22-.19.4-.37.26l-.82-.6a.24.24 0 0 0-.29 0l-.82.6a.24.24 0 0 1-.37-.26l.32-.97c.03-.1 0-.2-.09-.27l-.82-.6a.24.24 0 0 1 .14-.43h1.01c.1 0 .2-.06.23-.16l.32-.97Z" />
    <rect width="64" height="64" x=".53" y=".61" stroke="#fff" rx="32" />
</svg>