<?xml version="1.0" encoding="UTF-8"?>
<svg width="48px" height="48px" viewBox="0 0 56 56" version="1.1" xmlns="http://www.w3.org/2000/svg" xmlns:xlink="http://www.w3.org/1999/xlink">
    <title>intergrations</title>
    <defs>
        <filter id="filter-1">
            <feColorMatrix in="SourceGraphic" type="matrix" values="0 0 0 0 0.050980 0 0 0 0 0.062745 0 0 0 0 0.160784 0 0 0 1.000000 0"></feColorMatrix>
        </filter>
    </defs>
    <g id="Page-1" stroke="none" stroke-width="1" fill="none" fill-rule="evenodd">
        <g id="Landing-feedback-Copy-2" transform="translate(-154.000000, -110.000000)">
            <g id="contex_assist/48/intergrations_Invert_BG" transform="translate(150.000000, 106.000000)" filter="url(#filter-1)">
                <g>
                    <path d="M25.7126529,17.1644197 C26.1544807,17.1644197 26.5126529,17.5225919 26.5126529,17.9644197 C26.5126529,18.3620647 26.2225334,18.6919487 25.8424171,18.7539491 L25.7126529,18.7644197 L23.4889348,18.7644197 C23.2149325,18.7644197 22.980758,18.9477938 22.9083957,19.2028435 L22.8876458,19.3162132 L22.5427106,23.2854553 L21.9872855,23.4227983 C20.6959889,23.7421042 19.4572622,24.2280212 18.2982169,24.8658395 L17.8064407,25.1484474 L17.3174155,25.4416399 L14.272651,22.8856516 C14.0629116,22.709506 13.7657935,22.6992573 13.5465108,22.8477278 L13.4577796,22.9210545 L10.3156889,26.0631452 C10.12194,26.2568941 10.0860187,26.5521455 10.2151234,26.7835717 L10.2805786,26.8783647 L12.8322362,29.9143808 L12.536747,30.4042968 C11.8504116,31.5422288 11.3147191,32.7646558 10.9445973,34.0441598 L10.7961542,34.5959333 L10.658198,35.1499854 L6.71294311,35.494193 C6.44008121,35.5179474 6.2227401,35.7207948 6.17266829,35.9808355 L6.16177572,36.0954277 L6.16177572,40.539015 C6.16177572,40.8130174 6.34514979,41.0471918 6.59999249,41.1195362 L6.71326016,41.1402772 L10.6583859,41.4815756 L10.7964852,42.0359899 C11.1191261,43.3312656 11.6094804,44.5733648 12.2526153,45.7348651 L12.5375549,46.2276364 L12.8329165,46.7172278 L10.2830076,49.7552988 C10.106862,49.9650382 10.0966133,50.2621564 10.2450838,50.481439 L10.3184105,50.5701702 L13.4605012,53.7122609 C13.6542501,53.9060098 13.9495015,53.9419311 14.1808928,53.8128558 L14.2756685,53.7474151 L17.3184408,51.1896367 L17.8077882,51.4829542 C18.9438743,52.1639305 20.1635422,52.6950206 21.4396608,53.0615078 L21.9899459,53.2084531 L22.5453114,53.3456753 L22.891549,57.3150067 C22.9153034,57.5878686 23.1181508,57.8052097 23.3781915,57.8552815 L23.4927837,57.8661741 L27.936371,57.8661741 C28.2103734,57.8661741 28.4445478,57.6828 28.5168963,57.4279093 L28.5376394,57.3146179 L28.8824982,53.3325104 L29.4352964,53.1935452 C30.7195356,52.8707067 31.9511914,52.3828996 33.1034757,51.7447339 L33.5923742,51.4620713 L34.0820063,51.1668214 L37.1526548,53.7449423 C37.3623942,53.9210879 37.6595124,53.9313365 37.878795,53.7828661 L37.9675262,53.7095393 L41.1096169,50.5674486 C41.3033658,50.3736997 41.3392871,50.0784483 41.2102518,49.8471046 L41.1448308,49.7523523 L38.558869,46.6767766 L38.8520519,46.1874171 C39.5275723,45.0598879 40.0554967,43.8500425 40.421417,42.5844036 L40.5682794,42.0386484 L40.7063929,41.4846025 L44.7123627,41.1364008 C44.9852246,41.1126464 45.2025657,40.9097991 45.2526375,40.6497583 L45.2635301,40.5351661 L45.2635301,38.3152969 C45.2635301,37.8734691 45.6217023,37.5152969 46.0635301,37.5152969 C46.4611751,37.5152969 46.7910591,37.8054164 46.8530595,38.1855328 L46.8635301,38.3152969 L46.8635301,40.5351661 C46.8635301,41.61083 46.089493,42.5184541 45.0490933,42.7041572 L44.8510208,42.7303814 L41.9706667,42.98 L41.9584775,43.0287524 C41.6696503,44.0277546 41.2895111,44.9952431 40.8239226,45.9204514 L40.5093333,46.5106667 L42.3694911,48.7226887 C43.0592777,49.5431368 43.053339,50.7304176 42.3837456,51.5417794 L42.2409877,51.6988195 L39.0988971,54.8409101 C38.3412589,55.5985483 37.1584572,55.6952315 36.2924987,55.0987825 L36.1237515,54.9702413 L33.92,53.1186667 L33.8785121,53.1444906 C32.7874007,53.7487637 31.6316169,54.2311097 30.4299474,54.5812568 L30.3786667,54.5933333 L30.1316788,57.4525975 C30.0389249,58.5246825 29.1889245,59.3623778 28.1360308,59.4572205 L27.936371,59.4661741 L23.4927837,59.4661741 C22.4171198,59.4661741 21.5094957,58.692137 21.3238102,57.65194 L21.2975896,57.453908 L21.0493333,54.612 L20.9980505,54.5993573 C19.9907766,54.3100827 19.0153854,53.9280303 18.0828917,53.4591885 L17.4826667,53.1413333 L15.3052611,54.9721351 C14.4848131,55.6619217 13.2975322,55.655983 12.4861704,54.9863896 L12.3291303,54.8436317 L9.18703967,51.7015411 C8.42940152,50.9439029 8.33271832,49.7611012 8.92909701,48.8952265 L9.05762308,48.7264972 L10.8786667,46.5546667 L10.8527886,46.5097751 C10.2438098,45.4099357 9.75872261,44.2444241 9.40802604,43.0324738 L9.39333333,42.9773333 L6.5753523,42.7343228 C5.50326735,42.6415689 4.66557204,41.7915685 4.57072929,40.7386748 L4.56177572,40.539015 L4.56177572,36.0954277 C4.56177572,35.0197638 5.33581284,34.1121397 6.37599806,33.9264553 L6.57402771,33.9002349 L9.392,33.6533333 L9.40759814,33.599599 C9.6997408,32.5896551 10.085205,31.6119507 10.557917,30.6776144 L10.8773333,30.0746667 L9.05581467,27.9079051 C8.36602811,27.0874571 8.3719668,25.9001762 9.04156019,25.0888144 L9.1843181,24.9317743 L12.3264088,21.7896837 C13.0840469,21.0320455 14.2668486,20.9353623 15.1327682,21.5317787 L15.3015071,21.6603128 L17.48,23.4893333 L17.5269706,23.4639909 C18.624495,22.8600408 19.7869441,22.3792719 20.9952982,22.0320272 L21.0453333,22.0186667 L21.293627,19.1779963 C21.3863809,18.1059113 22.2363813,17.268216 23.289275,17.1733733 L23.4889348,17.1644197 L25.7126529,17.1644197 Z M25.6827136,29.7959987 C26.1245414,29.7959987 26.4827136,30.1541709 26.4827136,30.5959987 C26.4827136,31.0378265 26.1245414,31.3959987 25.6827136,31.3959987 C21.8612907,31.3959987 18.7634153,34.493874 18.7634153,38.3152969 C18.7634153,42.1367198 21.8612907,45.2345952 25.6827136,45.2345952 C29.5041365,45.2345952 32.6020118,42.1367198 32.6020118,38.3152969 C32.6020118,37.8734691 32.960184,37.5152969 33.4020118,37.5152969 C33.8438396,37.5152969 34.2020118,37.8734691 34.2020118,38.3152969 C34.2020118,43.0203754 30.3877921,46.8345952 25.6827136,46.8345952 C20.9776351,46.8345952 17.1634153,43.0203754 17.1634153,38.3152969 C17.1634153,33.6102184 20.9776351,29.7959987 25.6827136,29.7959987 Z M46.8161756,4.54269206 C47.5950899,4.54269206 48.2447173,5.13822226 48.3122621,5.91409501 L48.3122621,5.91409501 L48.4986667,8.05066667 L48.9817458,8.21540536 C49.1499291,8.27702431 49.3166399,8.34236976 49.4817699,8.41138456 L49.4817699,8.41138456 L49.9653333,8.62666667 L51.5814402,7.26793427 C52.1319966,6.8050574 52.9249268,6.80186003 53.4770297,7.2374785 L53.4770297,7.2374785 L53.6097586,7.35551303 L56.6665362,10.4122907 C57.2173118,10.9630662 57.2555643,11.8435256 56.7546899,12.4399248 L56.7546899,12.4399248 L55.5133333,13.9173333 L55.6928872,14.2678919 C55.834312,14.5569482 55.9641652,14.851683 56.0820865,15.1514594 L56.0820865,15.1514594 L56.228,15.5453333 L58.1090499,15.7088788 C58.829921,15.7712467 59.3952989,16.3359685 59.4723893,17.0402142 L59.4723893,17.0402142 L59.4813601,17.2050441 L59.4813601,21.5279804 C59.4813601,22.3068947 58.8858299,22.9565222 58.1104491,23.0240239 L58.1104491,23.0240239 L56.3706667,23.176 L56.230001,23.609085 C56.1163569,23.9308019 55.9891534,24.247259 55.8487919,24.5577062 L55.8487919,24.5577062 L55.648,24.976 L56.7561179,26.2932451 C57.2189947,26.8438015 57.2221921,27.6367316 56.7865736,28.1888346 L56.7865736,28.1888346 L56.6685391,28.3215635 L53.6117615,31.3783411 C53.0609859,31.9291167 52.1805265,31.9673692 51.5840065,31.4663933 L51.5840065,31.4663933 L50.284,30.3733333 L49.8607443,30.5794251 C49.5483354,30.7228028 49.2297436,30.8528204 48.9057404,30.9690613 L48.9057404,30.9690613 L48.4626667,31.116 L48.3151733,32.8208548 C48.2528055,33.5417258 47.6880836,34.1071038 46.9838379,34.1841941 L46.9838379,34.1841941 L46.8190081,34.1931649 L42.4960717,34.1931649 C41.7171574,34.1931649 41.06753,33.5976347 40.9999818,32.8217221 L40.9999818,32.8217221 L40.84,31.0053333 L40.4287496,30.8550217 C40.1217902,30.7354166 39.8200715,30.6033176 39.5242742,30.4591084 L39.5242742,30.4591084 L39.1546667,30.2693333 L37.7308071,31.4679227 C37.1802507,31.9307996 36.3873205,31.9339969 35.8352176,31.4983785 L35.8352176,31.4983785 L35.7024887,31.3803439 L32.6457111,28.3235663 C32.0949355,27.7727907 32.056683,26.8923313 32.5575289,26.295966 L32.5575289,26.295966 L33.8706667,24.7306667 C33.7123546,24.3950643 33.5715586,24.056854 33.4463687,23.7125135 L33.4463687,23.7125135 L33.2746667,23.2066667 L31.2031974,23.0269782 C30.4823263,22.9646103 29.9169484,22.3998884 29.839858,21.6956428 L29.839858,21.6956428 L29.8308872,21.5308129 L29.8308872,17.2078765 C29.8308872,16.4289622 30.4264174,15.7793348 31.2021614,15.7118013 L31.2021614,15.7118013 L33.4186667,15.5173333 L33.59328,15.0608562 C33.6575717,14.9012293 33.7252623,14.7430533 33.7962978,14.5864252 L33.7962978,14.5864252 L34,14.1586667 L32.5561294,12.4426119 C32.0932526,11.8920555 32.0900552,11.0991254 32.5256737,10.5470224 L32.5256737,10.5470224 L32.6437082,10.4142935 L35.7004858,7.3575159 C36.2512614,6.80674031 37.1317208,6.7684878 37.7280446,7.26929891 L37.7280446,7.26929891 L39.4653333,8.72666667 L39.8867615,8.52847178 C40.0420971,8.45902912 40.1989324,8.39286837 40.3571736,8.33004118 L40.3571736,8.33004118 L40.8013333,8.164 L40.997074,5.91500222 C41.0594418,5.19413117 41.6241637,4.62875321 42.3284094,4.55166284 L42.3284094,4.55166284 L42.4932392,4.54269206 Z M46.7253333,6.14266667 L42.5826667,6.14266667 L42.3038499,9.36884862 L41.7845548,9.52539753 C41.075943,9.7390187 40.3936379,10.0271628 39.7476991,10.3843139 L39.7476991,10.3843139 L39.2669771,10.6501138 L36.768,8.55066667 L33.8386667,11.4813333 L35.9284657,13.9661969 L35.6575447,14.4489929 C35.2924189,15.099667 34.9975783,15.7878834 34.7787779,16.503234 L34.7787779,16.503234 L34.6209471,17.0192495 L31.4306667,17.2973333 L31.4306667,21.44 L34.5223825,21.7106584 L34.6655386,22.2552773 C34.8681409,23.0260524 35.1579475,23.7686803 35.528464,24.4707779 L35.528464,24.4707779 L35.7795387,24.9465433 L33.84,27.256 L36.7693333,30.184 L38.9833312,28.3247615 L39.4716591,28.6144515 C40.20877,29.0517267 40.9971162,29.3973269 41.8208966,29.6423956 L41.8208966,29.6423956 L42.3425181,29.7975742 L42.5853333,32.592 L46.728,32.592 L46.9656695,29.8728358 L47.5095134,29.7291303 C48.3782419,29.4995772 49.2108514,29.1592594 49.9894985,28.7177807 L49.9894985,28.7177807 L50.4730148,28.4436359 L52.544,30.1826667 L55.472,27.2533333 L53.7223574,25.1723501 L53.9917798,24.6900141 C54.4243842,23.9155403 54.7572971,23.0886116 54.9812662,22.2265656 L54.9812662,22.2265656 L55.1232221,21.6801849 L57.8813333,21.4373333 L57.8813333,17.2946667 L55.025477,17.0474963 L54.8684463,16.5292582 C54.6247716,15.7250746 54.2851304,14.955114 53.8578412,14.2341629 L53.8578412,14.2341629 L53.5686572,13.7462322 L55.472,11.48 L52.5413333,8.55066667 L50.1828974,10.5354462 L49.7067514,10.284514 C49.0200832,9.92263498 48.2946659,9.63791283 47.5420846,9.43644235 L47.5420846,9.43644235 L47.0006722,9.29150302 L46.7253333,6.14266667 Z M44.6666667,13.5333333 C47.8699182,13.5333333 50.4666667,16.1300818 50.4666667,19.3333333 C50.4666667,22.5365849 47.8699182,25.1333333 44.6666667,25.1333333 C41.4634151,25.1333333 38.8666667,22.5365849 38.8666667,19.3333333 C38.8666667,16.1300818 41.4634151,13.5333333 44.6666667,13.5333333 Z M44.6666667,15.1333333 C42.3470707,15.1333333 40.4666667,17.0137374 40.4666667,19.3333333 C40.4666667,21.6529293 42.3470707,23.5333333 44.6666667,23.5333333 C46.9862626,23.5333333 48.8666667,21.6529293 48.8666667,19.3333333 C48.8666667,17.0137374 46.9862626,15.1333333 44.6666667,15.1333333 Z" id="Combined-Shape" fill="#202659"></path>
                </g>
            </g>
        </g>
    </g>
</svg>
