<svg xmlns="http://www.w3.org/2000/svg" width="17" height="14" viewBox="0 0 17 14">
    <g fill="none" fill-rule="evenodd">
        <g fill="#0D1029" fill-rule="nonzero">
            <g>
                <g>
                    <path d="M13.585 14c.852 0 1.596-.305 2.232-.916.636-.61.954-1.358.954-2.243 0-.76-.29-1.477-.868-2.15-.579-.672-1.466-1.009-2.662-1.009 0-.997.147-1.84.44-2.532.292-.692.683-1.262 1.173-1.71.49-.45 1.205-.798 2.146-1.047V0c-1.552.212-2.868.757-3.95 1.636-1.08.878-1.933 1.937-2.556 3.177s-.935 2.57-.935 3.99c0 1.608.394 2.876 1.183 3.804.788.929 1.736 1.393 2.843 1.393zm-9.56 0c.84 0 1.581-.305 2.224-.916.642-.61.963-1.358.963-2.243 0-.76-.286-1.477-.858-2.15-.573-.672-1.47-1.009-2.69-1.009 0-.997.146-1.84.438-2.532.293-.692.684-1.262 1.174-1.71.49-.45 1.205-.798 2.146-1.047V0C5.87.212 4.557.757 3.482 1.636 2.407 2.514 1.558 3.573.935 4.813.312 6.053 0 7.383 0 8.803c0 1.608.397 2.876 1.192 3.804.795.929 1.74 1.393 2.834 1.393z" transform="translate(-40 -72) translate(24 56) translate(16 16)"/>
                </g>
            </g>
        </g>
    </g>
</svg>
