<svg xmlns="http://www.w3.org/2000/svg" fill="none" viewBox="0 0 31 31">
  <rect width="30.0103" height="30" x=".00586" y=".65332" fill="#202021" rx="3.75129" />
  <path fill="#A1A1A1"
    d="M10.1466 24.1695v-11.492H6.32692v11.492h3.81968Zm-1.90934-13.062c1.332 0 2.16114-.8824 2.16114-1.98519-.0249-1.12764-.82909-1.98559-2.13586-1.98559-1.30656 0-2.16098.85797-2.16098 1.98559 0 1.10279.8289 1.98519 2.11077 1.98519H8.23726Zm4.02354 13.062h3.8197v-6.4177c0-.3435.0248-.6866.1257-.9321.2761-.6862.9046-1.397 1.9598-1.397 1.3822 0 1.9351 1.0539 1.9351 2.5987v6.148h3.8195V17.58c0-3.5299-1.8845-5.1723-4.3976-5.1723-2.0606 0-2.9653 1.1518-3.4679 1.9363h.0255v-1.6667h-3.8197c.0501 1.0783 0 11.4919 0 11.4919l-.0001.0003Z" />
  <rect width="28.8103" height="28.8" x=".60586" y="1.25332" stroke="#D0D0D0" stroke-opacity=".1" stroke-width="1.2"
    rx="3.15129" />
</svg>