<svg fill="none" xmlns="http://www.w3.org/2000/svg" viewBox="0 0 31 31">
  <rect x=".5" y=".69" width="29.01" height="29" rx="3.251" fill="#EAEAEA" />
  <path
    d="M10.14 23.707V12.215H6.322v11.492h3.82ZM8.232 10.645c1.332 0 2.162-.883 2.162-1.986-.025-1.127-.83-1.985-2.136-1.985-1.307 0-2.161.858-2.161 1.985 0 1.103.829 1.986 2.11 1.986h.025Zm4.024 13.062h3.82v-6.418c0-.344.024-.687.125-.932.277-.686.905-1.397 1.96-1.397 1.382 0 1.935 1.054 1.935 2.598v6.148h3.82v-6.589c0-3.53-1.885-5.172-4.398-5.172-2.06 0-2.965 1.152-3.468 1.936h.026v-1.667h-3.82c.05 1.079 0 11.492 0 11.492Z"
    fill="#89898A" />
  <rect x=".5" y=".69" width="29.01" height="29" rx="3.251" stroke="#D0D0D0" />
</svg>