<svg viewBox="0 0 102 102" fill="none" xmlns="http://www.w3.org/2000/svg">
    <g opacity=".8">
        <path
            d="M50.934 1.563c6.666 0 13.149 1.3 19.246 3.881a49.365 49.365 0 0115.71 10.589 49.261 49.261 0 0110.588 15.71c2.581 6.097 3.882 12.56 3.882 19.246 0 5.203-.793 10.284-2.378 15.182l-10.04-5.224a38.156 38.156 0 001.301-9.958 38.13 38.13 0 00-3.008-14.917 38.3 38.3 0 00-8.21-12.174 38.308 38.308 0 00-12.174-8.21 38.133 38.133 0 00-14.917-3.008 38.134 38.134 0 00-14.918 3.007 38.304 38.304 0 00-12.174 8.211 38.305 38.305 0 00-8.21 12.174 38.134 38.134 0 00-3.008 14.917c0 3.394.447 6.747 1.3 9.979L3.885 66.19A49.22 49.22 0 011.508 50.99c0-6.666 1.3-13.15 3.882-19.246a49.365 49.365 0 0110.588-15.71 49.258 49.258 0 0115.71-10.589c6.097-2.58 12.58-3.881 19.247-3.881zm0-1.382C22.867.18.125 22.922.125 50.989a51.037 51.037 0 002.967 17.153l12.459-6.463a36.836 36.836 0 01-1.565-10.67c0-5 .975-9.836 2.906-14.368a37.11 37.11 0 017.926-11.747 37.11 37.11 0 0111.747-7.926 36.605 36.605 0 0114.369-2.906c4.979 0 9.836.975 14.368 2.906a37.11 37.11 0 0111.747 7.926 37.114 37.114 0 017.926 11.747 36.603 36.603 0 012.906 14.369c0 3.658-.528 7.235-1.565 10.67l12.459 6.462c1.931-5.365 2.967-11.137 2.967-17.153C101.742 22.923 79 .181 50.933.181z"
            fill="#fff" />
        <path
            d="M50.935 101.798c22.051 0 40.81-14.044 47.841-33.676l-12.458-6.463c-.386 1.26-.813 2.5-1.341 3.699a37.107 37.107 0 01-7.927 11.747 37.11 37.11 0 01-11.746 7.926 36.603 36.603 0 01-14.37 2.906c-4.978 0-9.835-.975-14.368-2.906a37.112 37.112 0 01-11.747-7.926 37.113 37.113 0 01-7.926-11.747 40.142 40.142 0 01-1.341-3.7L3.094 68.123c7.032 19.632 25.79 33.676 47.84 33.676zM26.526 45.136h-1.463l5.69-13.17h1.3l5.65 13.17H36.22l-1.443-3.455H27.97l-1.443 3.455zm1.93-4.695h5.813l-2.906-6.991-2.907 6.991zM40.669 45.136h-1.321v-13.17h1.34v13.17h-.02zM54.916 43.002a5.408 5.408 0 01-1.91 1.748 6.558 6.558 0 01-1.382.549 7.024 7.024 0 01-1.646.203c-.996 0-1.91-.183-2.744-.529a6.454 6.454 0 01-2.174-1.442c-.61-.61-1.077-1.342-1.423-2.196-.345-.833-.508-1.768-.508-2.764 0-.995.183-1.93.528-2.763a6.986 6.986 0 011.443-2.195 6.668 6.668 0 012.175-1.443 7.071 7.071 0 012.723-.529c.488 0 .956.04 1.423.143.467.101.894.243 1.32.426.407.183.773.407 1.118.65.326.265.61.55.834.875l-1.118.813a3.796 3.796 0 00-.549-.63 3.356 3.356 0 00-.813-.55 5.018 5.018 0 00-1.016-.385 4.361 4.361 0 00-1.178-.143c-.854 0-1.626.163-2.297.468-.67.305-1.24.731-1.728 1.26a5.512 5.512 0 00-1.077 1.829 6.55 6.55 0 00-.366 2.195c0 .772.123 1.504.386 2.195.265.69.61 1.3 1.098 1.829.467.528 1.037.935 1.728 1.26a5.49 5.49 0 002.276.467 5.2 5.2 0 002.154-.467c.691-.305 1.26-.813 1.707-1.484l1.017.61zM56.727 31.966h3.719c.67 0 1.28.082 1.829.224a4.062 4.062 0 011.402.65c.386.285.691.65.894 1.098.204.447.326.955.326 1.544 0 .59-.102 1.118-.326 1.545a3.015 3.015 0 01-.914 1.097c-.387.285-.854.508-1.423.671a7.272 7.272 0 01-1.83.224h-2.336v6.117h-1.341v-13.17zm1.34 5.914h2.277c1.057 0 1.85-.203 2.398-.61.55-.406.813-.995.813-1.788 0-.813-.285-1.422-.853-1.788-.57-.386-1.362-.57-2.378-.57h-2.277v4.756h.02zM65.627 45.136h-1.463l5.69-13.17h1.301l5.65 13.17h-1.483l-1.443-3.455H67.07l-1.443 3.455zm1.931-4.695h5.813l-2.907-6.991-2.906 6.991z"
            fill="#fff" />
        <path
            d="M31.889 60.257a2.796 2.796 0 00-1.077-.834c-.448-.203-.874-.305-1.28-.305-.204 0-.428.02-.651.061a1.48 1.48 0 00-.59.224 1.43 1.43 0 00-.447.406c-.122.163-.183.386-.183.65 0 .224.041.407.143.55.101.142.223.284.406.386.183.101.386.223.65.305.244.101.529.183.834.284.447.142.914.305 1.402.488.488.183.915.427 1.321.711.407.305.732.67.996 1.098.264.447.386.995.386 1.646 0 .752-.142 1.402-.427 1.971-.284.549-.65 1.016-1.117 1.362a4.5 4.5 0 01-1.626.792c-.61.183-1.24.264-1.87.264-.935 0-1.85-.162-2.744-.487-.874-.325-1.605-.793-2.195-1.402l2.094-2.114c.325.406.752.731 1.28.996.528.264 1.057.406 1.565.406.244 0 .467-.02.69-.081.224-.04.428-.122.59-.244.163-.101.305-.264.407-.447.101-.183.142-.406.142-.67 0-.245-.061-.468-.183-.63-.122-.184-.305-.326-.528-.468a4.246 4.246 0 00-.854-.386c-.345-.122-.732-.244-1.158-.387a13.002 13.002 0 01-1.24-.487 3.971 3.971 0 01-1.077-.712c-.325-.284-.57-.65-.772-1.056-.183-.407-.285-.915-.285-1.524 0-.732.142-1.362.447-1.87a3.755 3.755 0 011.179-1.28 5.03 5.03 0 011.646-.733 7.086 7.086 0 011.85-.223c.752 0 1.503.142 2.276.406.772.265 1.463.671 2.032 1.22l-2.032 2.114zM49.225 63.366c0 1.037-.183 1.992-.549 2.866-.366.853-.853 1.605-1.504 2.215a6.543 6.543 0 01-2.276 1.423 8.164 8.164 0 01-2.865.508c-1.037 0-1.972-.163-2.866-.508a6.738 6.738 0 01-2.276-1.423 6.783 6.783 0 01-1.504-2.215c-.366-.854-.55-1.81-.55-2.866 0-1.057.184-2.012.55-2.865a6.324 6.324 0 011.504-2.175 6.776 6.776 0 012.276-1.382c.874-.325 1.829-.488 2.866-.488 1.036 0 1.991.163 2.865.488.874.325 1.646.772 2.276 1.382a6.406 6.406 0 011.504 2.175c.366.853.549 1.808.549 2.865zm-3.415 0c0-.569-.101-1.097-.284-1.605a4.063 4.063 0 00-.772-1.28 3.623 3.623 0 00-1.2-.834 3.81 3.81 0 00-1.544-.305c-.569 0-1.057.102-1.524.305a3.849 3.849 0 00-1.2.833c-.324.346-.589.772-.772 1.28-.182.488-.264 1.037-.264 1.606 0 .59.102 1.138.285 1.646.183.509.447.935.772 1.301.325.366.732.65 1.179.853.467.204.976.306 1.524.306.549 0 1.057-.102 1.524-.305a3.593 3.593 0 001.2-.854c.324-.366.589-.792.772-1.3a4.39 4.39 0 00.304-1.647zM60.424 69.768c-.854.386-1.85.59-2.968.59-1.016 0-1.95-.163-2.825-.509a6.575 6.575 0 01-2.235-1.422 6.352 6.352 0 01-1.484-2.195c-.366-.854-.549-1.789-.549-2.825 0-1.057.183-2.012.55-2.866a6.455 6.455 0 011.523-2.195c.65-.61 1.403-1.056 2.277-1.381a7.969 7.969 0 012.804-.488c.935 0 1.85.162 2.744.488.894.324 1.626.812 2.195 1.442l-2.175 2.155a2.77 2.77 0 00-1.179-.915 3.802 3.802 0 00-1.483-.305c-.549 0-1.077.102-1.544.305a3.4 3.4 0 00-1.2.854c-.325.365-.59.792-.772 1.28a4.602 4.602 0 00-.284 1.605c0 .59.101 1.139.284 1.647.183.488.447.914.772 1.28.325.345.732.63 1.179.833.467.203.955.305 1.504.305.63 0 1.179-.122 1.646-.365.468-.245.854-.57 1.138-.976l2.216 2.093a6.187 6.187 0 01-2.134 1.565zM68.492 69.992V67.39l5.142-4.634a4.1 4.1 0 00.772-.955 1.96 1.96 0 00.305-1.077c0-.467-.143-.853-.448-1.138-.304-.285-.69-.427-1.199-.427-.528 0-.955.183-1.28.549-.325.366-.529.854-.59 1.443l-2.987-.407c.081-.67.264-1.26.549-1.788a4.42 4.42 0 011.097-1.341 4.53 4.53 0 011.545-.834c.57-.203 1.179-.284 1.83-.284.609 0 1.198.081 1.767.244a4.462 4.462 0 011.524.752c.448.325.813.752 1.078 1.26.264.508.406 1.097.406 1.788 0 .468-.06.894-.183 1.28a4.617 4.617 0 01-.508 1.058c-.223.325-.468.63-.752.894-.284.284-.569.548-.874.833l-3.049 2.723h5.386v2.724h-9.531v-.061zM76.806 50.685H25.063v.568h51.743v-.568zM10.287 49.404l-.04.508-4.43-2.337.04-.448 4.756-1.605-.04.528-1.24.407-.184 2.378 1.139.569zm-1.585-.793l.163-2.032-2.52.813 2.357 1.22zM10.793 44.506l-.081.467-4.532-.69.081-.468 4.532.691zM11.1 39.486c.102.102.183.224.264.346.082.121.143.284.183.426.041.163.061.326.082.509 0 .182-.02.365-.061.568a2.54 2.54 0 01-.386.895 2.205 2.205 0 01-.671.63 2.151 2.151 0 01-.854.305c-.305.04-.65.04-.975-.04-.325-.082-.65-.204-.894-.408a2.198 2.198 0 01-.63-.67 2.564 2.564 0 01-.326-.854c-.06-.305-.04-.63.041-.975.04-.163.102-.325.163-.468.08-.142.162-.284.243-.406.102-.122.204-.244.305-.325.122-.102.244-.163.366-.224l.183.447c-.081.02-.163.082-.264.142a2.575 2.575 0 00-.264.224c-.082.102-.143.203-.224.305a2.159 2.159 0 00-.142.386c-.061.285-.082.57-.02.813.06.264.142.488.284.69a2.091 2.091 0 001.24.814c.264.06.528.081.772.04.264-.04.488-.101.711-.223a1.87 1.87 0 00.57-.488c.162-.203.264-.447.345-.731.06-.265.06-.508.02-.773a1.522 1.522 0 00-.366-.69l.305-.265zM7.664 37.637l.427-1.24a2.64 2.64 0 01.284-.59c.102-.162.224-.304.366-.386.142-.101.305-.162.468-.182.162-.02.345 0 .548.06.204.062.366.163.488.285a1.206 1.206 0 01.325.976c-.02.203-.06.406-.142.63l-.264.772 2.032.69-.142.448-4.39-1.463zm2.114.223l.264-.752c.122-.345.142-.63.06-.874a.737.737 0 00-.507-.467c-.264-.102-.508-.061-.691.081-.183.142-.346.386-.447.732l-.265.752 1.586.528zM13.032 36.194l-.204.467-3.414-3.678.183-.427 5.02.04-.203.468-1.321-.02-.956 2.174.895.976zm-1.22-1.28l.813-1.85-2.642-.061 1.83 1.91zM13.557 26.804a1.48 1.48 0 00-.488.143c-.163.081-.284.223-.406.406a1.578 1.578 0 00-.143.325c-.04.122-.04.244-.04.346.02.122.04.223.101.345.061.102.163.204.285.285a.648.648 0 00.345.122.92.92 0 00.326-.061c.101-.04.203-.102.304-.183l.305-.244c.122-.102.264-.224.407-.325a2.28 2.28 0 01.426-.244 1.23 1.23 0 01.488-.081c.163 0 .346.081.549.203.203.122.346.264.447.427a.94.94 0 01.163.508 1.619 1.619 0 01-.264 1.037 2.055 2.055 0 01-.265.325 1.327 1.327 0 01-.325.264 1.538 1.538 0 01-.366.182c-.122.041-.264.082-.406.082l-.04-.508c.182 0 .385-.04.568-.143.183-.101.346-.243.468-.447.06-.101.101-.203.142-.325a.747.747 0 00.02-.366c-.02-.121-.04-.243-.122-.345a.948.948 0 00-.284-.285.774.774 0 00-.386-.122.798.798 0 00-.366.082 3.063 3.063 0 00-.346.203c-.101.081-.223.183-.345.285l-.366.304a1.095 1.095 0 01-.406.204c-.143.04-.305.06-.448.06a1.402 1.402 0 01-.508-.182 1.642 1.642 0 01-.426-.407 1.488 1.488 0 01-.163-.508c-.02-.183 0-.345.061-.528.04-.163.122-.326.203-.468.163-.264.346-.467.57-.59.202-.121.406-.202.589-.223l.142.447zM17.888 24.61c.02.02.04.04.082.06.02.02.06.041.08.082l-1.503 2.032c.122.081.264.142.406.183.143.04.285.04.427.02.143-.02.264-.06.407-.142.122-.081.244-.163.325-.305.142-.183.203-.366.223-.569.02-.203 0-.366-.06-.528l.406-.102c.081.284.081.549.04.772-.04.224-.142.447-.304.65a1.542 1.542 0 01-.468.427 1.475 1.475 0 01-.569.204c-.203.02-.406.02-.61-.041a1.754 1.754 0 01-.589-.285 2.409 2.409 0 01-.447-.467 1.952 1.952 0 01-.223-.569 1.44 1.44 0 01.02-.59c.04-.203.142-.386.264-.548.142-.183.305-.346.467-.427.183-.101.346-.162.529-.162.183-.02.366 0 .549.06.203.041.365.122.548.244zm-.386.284a1.121 1.121 0 00-.732-.203c-.243.02-.467.162-.67.426a1.347 1.347 0 00-.183.387.919.919 0 00-.02.406c.02.142.06.264.121.366a.9.9 0 00.244.305l1.24-1.687zM17.624 23.268a12.924 12.924 0 00-.284-.224l.264-.304c.061.04.142.101.224.162.08.061.142.122.183.163a1.084 1.084 0 01-.082-.57.993.993 0 01.264-.548.539.539 0 00.102-.122.357.357 0 01.102-.081l.284.325c-.02.02-.06.04-.101.081l-.122.122a.56.56 0 00-.163.305.655.655 0 00-.02.345c.02.122.06.244.142.387.081.142.203.264.345.406l1.18 1.016-.285.346-1.81-1.545c-.04-.122-.121-.183-.223-.264zM18.457 20.037a.326.326 0 01.102.223c0 .082-.02.163-.081.224a.387.387 0 01-.204.101.306.306 0 01-.223-.08.326.326 0 01-.102-.224c0-.082.02-.163.081-.224a.389.389 0 01.204-.102c.081 0 .162.02.223.082zm3.008 2.947l-.305.325-2.215-2.094.305-.325 2.215 2.094zM23.111 21.358l-.345.345-3.008-1.341.366-.346 2.5 1.18-1.057-2.562.345-.325 1.2 3.049zM24.554 17.029a.995.995 0 00-.427-.02 1.068 1.068 0 00-.732.59 1.69 1.69 0 00-.122.426c0 .142.02.305.061.447.061.142.143.284.244.427.102.142.224.243.366.325.142.081.285.122.427.162.142.02.305.02.447-.02a1.44 1.44 0 00.427-.224c.142-.122.264-.264.305-.406.06-.142.081-.285.081-.427l.406-.02c0 .203-.04.406-.121.61-.082.203-.224.365-.427.548a1.545 1.545 0 01-.59.326c-.203.06-.406.08-.61.06a1.44 1.44 0 01-.569-.182 1.61 1.61 0 01-.487-.427 1.721 1.721 0 01-.305-.57c-.061-.203-.081-.406-.061-.609.02-.203.081-.386.183-.59.101-.182.244-.365.447-.528.163-.122.346-.223.57-.284.223-.061.426-.082.65-.02l-.163.406zM28.092 15.403c.02.02.04.06.06.081.02.02.041.061.061.102l-2.073 1.423c.082.122.204.223.326.304.122.082.244.122.386.163.142.02.284.02.427 0a.818.818 0 00.406-.183c.183-.122.325-.284.407-.467.08-.183.101-.346.101-.529l.427.02c-.02.285-.081.55-.203.753a1.703 1.703 0 01-1.077.793c-.204.04-.407.04-.61 0a1.952 1.952 0 01-.57-.224 1.945 1.945 0 01-.467-.448 1.7 1.7 0 01-.264-.589 1.542 1.542 0 01.183-1.158 1.48 1.48 0 01.427-.448c.203-.142.386-.223.59-.264.202-.04.385-.04.568 0 .183.04.346.122.508.244.143.102.285.244.387.427zm-.447.122c-.183-.224-.387-.366-.63-.427-.244-.06-.509 0-.773.183a.816.816 0 00-.284.305.913.913 0 00-.143.366c-.02.122-.02.264 0 .386s.061.244.143.366l1.687-1.18zM34.165 11.358c.162.326.243.63.264.956.02.325-.02.63-.122.914a2.266 2.266 0 01-.468.793c-.203.244-.467.427-.772.59-.305.141-.61.243-.935.263a2.318 2.318 0 01-1.707-.589c-.244-.203-.427-.467-.59-.793a2.411 2.411 0 01-.264-.955c-.02-.325.02-.63.122-.914.102-.285.244-.55.468-.793.203-.244.467-.427.772-.59.305-.142.61-.243.935-.264a2.32 2.32 0 011.707.59c.244.223.447.487.59.792zm-.447.224a2.355 2.355 0 00-.448-.63 1.605 1.605 0 00-.63-.407 1.468 1.468 0 00-.731-.121c-.264 0-.529.08-.793.203a2.024 2.024 0 00-.65.487 1.838 1.838 0 00-.346.65c-.06.245-.081.489-.06.732.02.265.1.509.223.752.122.244.264.448.447.63.183.183.386.305.61.407.223.081.467.142.731.122.265 0 .529-.081.793-.203.264-.122.488-.305.65-.488.163-.203.285-.427.346-.65.06-.244.081-.488.06-.732 0-.264-.08-.508-.203-.752zM34.959 10.688c-.041-.122-.102-.224-.143-.325l.386-.143.123.244c.04.102.06.163.101.224h.02c.02-.203.082-.386.204-.549a1.11 1.11 0 01.487-.366c.061-.02.102-.04.143-.04.04-.02.081-.02.142-.02l.102.406c-.02 0-.061 0-.122.02l-.183.061a.853.853 0 00-.285.183.853.853 0 00-.183.285 1.22 1.22 0 00.061.914l.549 1.463-.406.163-.874-2.236a2.326 2.326 0 00-.122-.284zM38.252 12.984c.162.122.366.204.59.244.223.04.467.04.69-.04.203-.061.366-.143.508-.244.122-.102.224-.224.285-.346a.94.94 0 00.081-.427c0-.142-.02-.304-.06-.467l-.184-.549h-.02c-.06.224-.183.407-.346.57a1.734 1.734 0 01-.589.345c-.223.06-.447.101-.65.081a1.827 1.827 0 01-.57-.162 1.612 1.612 0 01-.446-.387 1.663 1.663 0 01-.285-.569c-.06-.203-.081-.406-.06-.61a1.83 1.83 0 01.162-.568c.081-.183.223-.326.386-.468.162-.142.366-.244.59-.305.202-.06.426-.081.67-.04.224.04.427.142.61.284h.02l-.142-.508.426-.122.854 2.886c.04.163.081.325.081.528 0 .183-.02.387-.101.57a1.47 1.47 0 01-.366.508c-.183.162-.427.284-.752.386a2.22 2.22 0 01-.813.081 2.183 2.183 0 01-.752-.244l.183-.427zm-.549-2.113c.04.162.122.284.203.406.082.122.204.224.326.305a.966.966 0 00.426.142c.163.02.326 0 .488-.04.163-.04.305-.122.427-.224a.932.932 0 00.285-.345c.06-.143.122-.265.122-.427.02-.163 0-.325-.062-.488a.994.994 0 00-.223-.406.929.929 0 00-.346-.285.967.967 0 00-.426-.142c-.163-.02-.305 0-.468.04a1.317 1.317 0 00-.447.224 1.047 1.047 0 00-.264.346.944.944 0 00-.102.426c0 .163.02.325.061.468zM43.148 9.082c-.06-.264-.163-.426-.325-.528-.163-.102-.366-.122-.63-.061-.183.04-.346.102-.488.203a1.76 1.76 0 00-.346.325l-.304-.244c.101-.142.244-.284.427-.406a2.01 2.01 0 01.67-.264 1.345 1.345 0 01.874.102c.122.06.224.162.326.284.08.122.142.284.182.467l.264 1.301c.02.122.061.224.082.346.04.122.06.223.101.304l-.386.082c-.02-.061-.06-.143-.081-.224l-.06-.244h-.022a1.52 1.52 0 01-.365.529 1.58 1.58 0 01-.59.264c-.121.02-.244.04-.365.02-.122 0-.244-.04-.366-.081a.848.848 0 01-.305-.224 1.076 1.076 0 01-.183-.406.94.94 0 01.061-.59c.081-.162.223-.284.406-.386.183-.101.407-.203.65-.264.245-.06.509-.142.773-.183v-.122zm-.04.468c-.184.04-.366.081-.529.122a3.758 3.758 0 00-.467.183 1.088 1.088 0 00-.326.264c-.08.101-.101.223-.08.366.02.101.06.183.121.264a.734.734 0 00.203.142c.082.04.163.04.244.04.082 0 .163 0 .264-.02.163-.04.285-.08.386-.162.102-.082.204-.163.265-.285a.994.994 0 00.122-.345.835.835 0 00-.02-.386l-.041-.224-.143.04zM44.9 7.7c.02.082.04.163.06.265.02.101.02.182.04.243h.021c.061-.182.183-.345.366-.487.183-.143.386-.204.59-.244.386-.04.69.04.894.244.223.203.345.487.386.874l.223 1.849-.447.061-.203-1.666a2.288 2.288 0 00-.081-.427 1.607 1.607 0 00-.163-.325.688.688 0 00-.285-.183c-.101-.041-.243-.041-.406-.041a.871.871 0 00-.325.102.762.762 0 00-.264.243c-.082.102-.122.244-.163.387-.04.162-.04.325-.02.528l.183 1.545-.447.06-.285-2.357c0-.081-.02-.183-.04-.325-.02-.122-.041-.244-.061-.346h.426zM48.7 6.176c0 .081-.02.163-.082.224-.06.06-.122.101-.203.101a.34.34 0 01-.224-.081.29.29 0 01-.101-.224c0-.08.02-.162.081-.223s.122-.102.203-.102c.082 0 .142.02.224.081a.326.326 0 01.102.224zm.162 4.227l-.447.02-.162-3.048.447-.02.162 3.048zM51.847 7.599l-1.789 2.377 1.89-.04v.386l-2.48.04v-.304l1.769-2.398-1.727.02v-.366l2.317-.04.02.325zM54.672 8.534c.021-.265-.04-.468-.162-.61-.122-.142-.325-.224-.59-.244-.182-.02-.345 0-.507.061-.163.061-.305.122-.407.224l-.223-.305c.142-.122.304-.204.508-.285a1.96 1.96 0 01.711-.081c.162.02.325.04.447.101.143.061.264.143.366.224a.85.85 0 01.224.366c.06.142.06.305.06.488l-.101 1.32c0 .123-.02.245-.02.367 0 .121 0 .223.02.325l-.386-.02c0-.082-.02-.163-.02-.245v-.264h-.021a1.319 1.319 0 01-.508.407c-.183.081-.386.101-.65.081-.122 0-.244-.04-.366-.081a1.033 1.033 0 01-.325-.183.667.667 0 01-.224-.305c-.06-.122-.081-.264-.06-.427.02-.244.08-.406.223-.549a.937.937 0 01.508-.264 2.39 2.39 0 01.69-.081c.265 0 .53 0 .813.02v-.04zm-.162.426c-.183-.02-.366-.02-.549-.02-.183 0-.345.02-.508.061-.162.04-.284.102-.386.163a.395.395 0 00-.163.325c0 .101 0 .203.041.284.04.082.082.143.163.183.06.04.142.082.224.122.08.04.162.04.264.04.162.021.305 0 .426-.06.122-.04.224-.122.325-.203a.801.801 0 00.204-.305.823.823 0 00.081-.386l.02-.224-.142.02zM57.661 8.188l-.853-.122-.245 1.768a.668.668 0 000 .285c.021.081.041.142.062.183.04.04.081.081.142.101.06.02.122.041.183.041h.203c.061 0 .142-.02.203-.04l-.04.386c-.082.02-.163.04-.244.04-.081 0-.183 0-.285-.02l-.244-.061a.85.85 0 01-.243-.163.838.838 0 01-.163-.264c-.04-.101-.04-.244-.02-.406l.243-1.89-.63-.082.041-.366.63.082.122-.854.447.061-.122.854.854.122-.04.345zM58.33 11.013l-.428-.081.529-3.008.427.081-.529 3.008zm.812-4.126c-.02.082-.06.163-.142.204-.081.04-.142.06-.224.04a.424.424 0 01-.203-.122c-.06-.06-.081-.142-.06-.244.02-.08.06-.162.141-.203.082-.04.143-.06.224-.04a.42.42 0 01.203.121c.061.061.081.143.061.244zM62.58 10.424c-.06.223-.142.426-.264.589a1.435 1.435 0 01-.447.406 1.843 1.843 0 01-.59.204 1.52 1.52 0 01-.67-.041 2.058 2.058 0 01-.61-.264c-.183-.122-.305-.285-.427-.447a1.473 1.473 0 01-.203-.57c-.04-.203-.02-.426.04-.65.062-.223.143-.426.265-.59.122-.162.264-.304.447-.406a1.84 1.84 0 01.59-.203c.202-.02.426-.02.67.04.223.062.426.143.61.265.182.122.304.285.426.447.102.183.183.366.204.57.04.202.02.426-.041.65zm-.447-.122c.04-.163.06-.326.04-.488a1.315 1.315 0 00-.122-.427 1.127 1.127 0 00-.284-.345 1.01 1.01 0 00-.447-.204 1.347 1.347 0 00-.488-.02.906.906 0 00-.407.163 1.237 1.237 0 00-.325.325c-.08.142-.162.284-.183.447a1.308 1.308 0 00.081.915c.062.121.164.243.285.345.122.102.265.162.447.203.183.04.346.04.488.02a.905.905 0 00.407-.162c.122-.081.223-.183.325-.325a1.48 1.48 0 00.183-.447zM64.287 9.367c-.02.081-.04.162-.06.264-.02.102-.061.183-.082.244h.02a.996.996 0 01.55-.264c.223-.041.426-.02.63.04.365.122.609.325.71.61.102.285.102.59-.02.955l-.61 1.768-.426-.142.549-1.585c.06-.142.08-.285.101-.427a.744.744 0 00-.02-.366.579.579 0 00-.163-.284 1.108 1.108 0 00-.345-.204c-.102-.04-.224-.06-.346-.04a.686.686 0 00-.345.101 1.06 1.06 0 00-.326.285 1.455 1.455 0 00-.244.467l-.508 1.484-.426-.142.772-2.256c.02-.081.06-.183.102-.305.04-.122.06-.244.101-.346l.386.143zM71.642 15.078a2.438 2.438 0 01-.407.162c-.142.041-.305.061-.467.061-.163 0-.346-.02-.508-.06a2.008 2.008 0 01-.55-.204 2.569 2.569 0 01-.771-.61 2.206 2.206 0 01-.447-.792c-.102-.285-.123-.59-.102-.915.02-.325.122-.63.284-.955.163-.305.366-.569.61-.772.244-.204.508-.366.793-.447.284-.102.59-.122.914-.102.325.02.63.122.935.264.142.082.284.163.427.264.122.102.244.224.345.346.102.122.183.244.244.386.061.142.102.264.122.406l-.488.082c0-.082-.04-.183-.06-.285a2.226 2.226 0 00-.163-.305 1.646 1.646 0 00-.244-.284c-.102-.081-.203-.163-.345-.244a1.946 1.946 0 00-.793-.223c-.264-.02-.508.02-.732.121a1.766 1.766 0 00-.63.407 2.42 2.42 0 00-.467.63 2.006 2.006 0 00-.224.752c-.04.264-.02.508.04.752.062.244.184.467.347.67.162.204.365.366.63.509.243.121.487.182.751.203.265.02.529-.061.773-.183l.183.366zM75.18 16.46a1.648 1.648 0 01-.447.467 1.63 1.63 0 01-.548.244c-.204.04-.407.04-.61 0a1.47 1.47 0 01-.61-.264 1.73 1.73 0 01-.487-.447 1.53 1.53 0 01-.244-1.179c.04-.203.122-.407.244-.61.121-.183.264-.345.447-.467.183-.122.365-.204.548-.244.204-.04.407-.04.61 0 .204.04.407.122.61.244s.365.284.488.467a1.534 1.534 0 01.244 1.179c-.041.203-.123.406-.244.61zm-.386-.265a.957.957 0 00.184-.447c.04-.162.04-.305.02-.447a1.227 1.227 0 00-.163-.427c-.081-.142-.203-.244-.345-.345a1.089 1.089 0 00-1.301.04 1.407 1.407 0 00-.325.366.952.952 0 00-.183.447c-.04.163-.04.305-.02.448.02.142.08.284.162.406.082.122.203.244.346.345a1.087 1.087 0 001.3-.04 1.33 1.33 0 00.326-.346zM77.13 16.013c-.04.06-.101.142-.163.223a3.809 3.809 0 00-.142.203h.02c.184-.08.387-.122.61-.08.224.04.427.121.59.243.304.244.467.508.467.813.02.305-.102.59-.325.894l-1.158 1.463-.346-.264 1.036-1.32c.102-.123.183-.245.244-.367a.823.823 0 00.102-.345.845.845 0 00-.06-.325 1.185 1.185 0 00-.265-.305 1.113 1.113 0 00-.305-.163.746.746 0 00-.366-.02 1.05 1.05 0 00-.386.163 1.3 1.3 0 00-.386.365l-.956 1.24-.345-.264 1.463-1.87c.04-.06.122-.142.183-.264.081-.102.142-.203.204-.285l.284.265zM80.545 19.366l-.63-.569-1.179 1.321c-.081.081-.122.163-.163.224-.04.06-.04.142-.04.183 0 .06.02.121.061.162.04.04.081.102.122.142.04.041.101.082.162.102.061.04.122.06.183.081l-.244.305a.483.483 0 01-.223-.122c-.081-.04-.142-.101-.224-.162-.06-.061-.122-.122-.162-.204a.597.597 0 01-.102-.264c-.02-.102 0-.203.02-.305a.983.983 0 01.224-.345l1.26-1.423-.468-.427.245-.284.467.427.569-.63.325.305-.569.63.63.569-.264.284zM81.094 19.854a3.13 3.13 0 01.244-.264l.285.304c-.062.061-.102.143-.184.204-.06.08-.122.142-.162.183.183-.061.386-.082.59-.041.202.04.385.142.527.305.041.04.082.081.102.122.02.04.061.08.081.122l-.345.264c-.02-.02-.04-.061-.081-.102-.04-.04-.082-.102-.122-.142a.853.853 0 00-.285-.183.948.948 0 00-.345-.061.775.775 0 00-.386.122c-.143.06-.285.183-.427.325l-1.098 1.098-.304-.305 1.666-1.687c.082-.081.142-.163.244-.264zM83.819 24.549c-.183.142-.366.264-.57.325a1.58 1.58 0 01-.61.081 1.5 1.5 0 01-.589-.163 2.035 2.035 0 01-.528-.426 1.855 1.855 0 01-.346-.57 1.578 1.578 0 01-.08-.61 1.5 1.5 0 01.161-.588 1.61 1.61 0 01.407-.509c.183-.142.366-.264.569-.325.203-.06.407-.101.61-.081.203.02.406.06.59.163.182.101.365.243.507.406.163.183.265.366.346.569.06.203.101.406.081.61a1.5 1.5 0 01-.162.59 1.09 1.09 0 01-.386.527zm-.306-.346c.123-.102.224-.244.305-.366.082-.142.122-.284.143-.427.02-.142 0-.305-.04-.447a1.155 1.155 0 00-.245-.427 1.342 1.342 0 00-.386-.304 1.093 1.093 0 00-.874-.02 1.667 1.667 0 00-.406.243 1.724 1.724 0 00-.305.366 1.175 1.175 0 00-.142.427c-.021.142 0 .305.04.447.04.142.122.284.244.427a1.072 1.072 0 00.813.406c.142 0 .305-.02.447-.081.142-.061.284-.142.406-.244zM83.39 26.54l-.265-.345 3.902-2.988.264.346-3.902 2.987zM85.22 29.142l-.243-.407 3.943-2.398.71 1.158c.123.183.204.386.265.57.06.182.081.365.081.528a.93.93 0 01-.162.488 1.645 1.645 0 01-.427.406 1.185 1.185 0 01-.894.142 1.465 1.465 0 01-.407-.183 1.392 1.392 0 01-.345-.345l-1.179 2.297-.305-.488 1.18-2.215-.408-.671-1.808 1.118zm2.195-1.321l.427.69c.204.326.407.529.63.63.224.102.448.082.691-.06a.901.901 0 00.285-.265.866.866 0 00.102-.325c0-.122-.02-.244-.062-.386-.04-.142-.121-.284-.203-.427l-.426-.711-1.444.854zM89.508 33.633c-.02.02-.061.02-.081.04-.04.021-.062.021-.102.041l-1.118-2.256a1.546 1.546 0 00-.345.265.811.811 0 00-.203.365 1.45 1.45 0 00-.062.427c0 .142.041.285.123.427.101.203.243.366.406.467.162.102.345.163.508.183l-.081.407c-.285-.061-.529-.163-.712-.325a1.55 1.55 0 01-.447-.57 1.368 1.368 0 01-.162-.61c-.02-.202.02-.406.081-.588.06-.183.162-.366.305-.529.142-.162.305-.284.528-.386.204-.102.407-.163.63-.183.204-.02.407 0 .59.061s.365.163.508.285c.162.121.285.304.386.487.102.224.162.427.162.61 0 .203-.02.386-.081.549-.06.162-.162.325-.305.467a2.745 2.745 0 01-.528.366zm-.081-.468c.244-.142.426-.325.508-.569.101-.243.06-.508-.061-.772a.7.7 0 00-.264-.325 1.188 1.188 0 00-.346-.203 1.273 1.273 0 00-.386-.061.88.88 0 00-.386.081l.935 1.85zM87.05 35.99l-.163-.406 4.308-1.646.163.406-.488.183v.02c.224.041.427.143.61.305.162.163.305.346.365.55.082.223.123.446.123.65 0 .203-.062.406-.143.589a1.405 1.405 0 01-.365.488 1.87 1.87 0 01-1.18.447c-.203 0-.406-.04-.588-.122a1.341 1.341 0 01-.488-.346 1.58 1.58 0 01-.346-.569 1.405 1.405 0 01-.081-.65c.02-.224.101-.447.223-.63v-.02l-1.95.752zm3.698 1.017c.163-.061.305-.143.427-.244.122-.102.224-.224.285-.346.06-.122.101-.284.122-.427 0-.162-.02-.325-.082-.487a1.085 1.085 0 00-.264-.407.962.962 0 00-.386-.244 1.094 1.094 0 00-.447-.08c-.163 0-.326.02-.488.1a1.164 1.164 0 00-.427.265.94.94 0 00-.264.366 1.105 1.105 0 00-.102.447c0 .162.02.305.082.467.06.163.162.305.264.427.101.102.244.183.366.244a.83.83 0 00.447.061c.142-.061.305-.081.467-.142zM91.985 41.234c-.224.061-.447.081-.65.061a1.342 1.342 0 01-.57-.183 1.767 1.767 0 01-.466-.406 1.687 1.687 0 01-.285-.61 1.812 1.812 0 01-.061-.65 1.43 1.43 0 01.183-.59c.102-.183.223-.325.406-.467.163-.122.366-.224.59-.285.223-.06.447-.081.65-.06.203.02.407.08.569.182.183.102.325.244.467.407.143.162.224.365.285.589.061.224.081.447.061.67a1.43 1.43 0 01-.183.59 1.47 1.47 0 01-.406.468 1.764 1.764 0 01-.59.284zm-.122-.447c.163-.04.305-.122.447-.203.122-.102.245-.203.305-.326.082-.122.122-.264.163-.426a1 1 0 00-.04-.488.953.953 0 00-.224-.427 1.514 1.514 0 00-.346-.284 1.618 1.618 0 00-.447-.122c-.163-.02-.325 0-.488.04-.163.041-.305.122-.447.204-.122.101-.244.203-.305.325a1.337 1.337 0 00-.162.427c-.02.162-.02.304.04.487.041.163.122.325.224.447.102.122.224.224.345.285.142.061.285.102.448.122.162 0 .325-.02.487-.061zM93.31 41.823c.121-.02.243-.06.345-.081l.081.407c-.081.02-.162.04-.264.08-.102.021-.183.041-.244.062v.02c.183.04.366.142.508.305.142.142.244.325.285.549.02.06.02.101.02.142v.142l-.427.02v-.142c0-.06-.02-.122-.02-.183a.893.893 0 00-.122-.325.617.617 0 00-.264-.244 1.077 1.077 0 00-.386-.122 1.577 1.577 0 00-.53.02l-1.523.306-.082-.427 2.338-.468c.06 0 .162-.02.284-.06zM93.959 45.868l-.122-.854-1.768.244c-.122.02-.203.04-.264.061-.062.04-.122.061-.163.122a.232.232 0 00-.061.163v.183c0 .06.02.121.06.183.021.06.062.121.102.182l-.386.081c-.04-.08-.08-.142-.101-.223-.02-.081-.04-.163-.061-.264a.577.577 0 010-.264c0-.102.04-.183.081-.264a.584.584 0 01.224-.224.962.962 0 01.386-.122l1.89-.264-.081-.63.365-.061.082.63.853-.122.061.447-.853.122.122.853-.366.021zM93.835 48.408a.735.735 0 00.284-.325.873.873 0 00.081-.468.732.732 0 00-.04-.223c-.02-.081-.061-.142-.102-.203a.544.544 0 00-.163-.142c-.06-.041-.142-.041-.223-.041-.142.02-.244.081-.305.203a1.527 1.527 0 00-.142.57c-.04.365-.142.629-.264.812-.122.183-.305.285-.55.305a.775.775 0 01-.446-.061.902.902 0 01-.305-.244 1.132 1.132 0 01-.183-.345 2.837 2.837 0 01-.081-.407c-.02-.224.02-.447.081-.67.081-.224.224-.407.407-.57l.284.325a.916.916 0 00-.305.366.884.884 0 00-.102.508c0 .102.021.183.041.265.02.081.061.162.102.223.04.061.102.102.183.143.081.04.162.04.264.04.162-.02.264-.102.346-.264.06-.163.121-.386.162-.691.02-.102.04-.183.06-.305a.712.712 0 01.123-.285.777.777 0 01.569-.345c.163-.02.284 0 .406.06a.774.774 0 01.285.225c.081.101.142.203.183.325.04.122.081.264.081.406.02.203-.02.427-.101.63a1.108 1.108 0 01-.366.488l-.264-.305z"
            fill="#fff" />
        <path
            d="M32.867 91.372c.102-.244.122-.448.06-.63-.06-.183-.223-.326-.466-.427a1.1 1.1 0 00-.509-.122c-.162 0-.325.02-.467.061l-.102-.366c.163-.061.366-.081.59-.081.223.02.447.081.69.183a1.423 1.423 0 01.65.61.942.942 0 01.082.426c0 .142-.04.305-.122.488l-.569 1.2c-.04.1-.101.223-.142.344-.04.122-.081.224-.101.305l-.366-.162a.99.99 0 01.081-.224c.02-.081.061-.162.102-.244h-.02a1.54 1.54 0 01-.61.204c-.204 0-.407-.041-.63-.143a1.318 1.318 0 01-.305-.203 1.07 1.07 0 01-.244-.285.701.701 0 01-.102-.365c0-.143.02-.285.102-.427.101-.203.223-.366.406-.427.163-.081.346-.102.57-.081.203.02.426.081.67.183l.732.305.02-.122zm-.305.366a3.742 3.742 0 00-.508-.204 2.857 2.857 0 00-.488-.122.99.99 0 00-.426.02.48.48 0 00-.285.245.701.701 0 00-.061.264c0 .081.04.162.081.223a.7.7 0 00.163.183c.06.061.142.102.223.142.143.061.285.102.407.102.142 0 .264-.02.366-.06a.81.81 0 00.305-.204c.08-.081.162-.203.223-.326l.102-.203-.102-.06zM33.946 93.973l-.407-.162 1.138-2.826.407.163-1.139 2.825zm1.666-3.882a.29.29 0 01-.183.163c-.081.02-.162.04-.223 0-.082-.02-.122-.081-.163-.163a.26.26 0 010-.244.289.289 0 01.183-.162c.081-.02.163-.041.224 0 .08.02.121.081.162.162.02.082.02.163 0 .244zM37.946 92.896a1.017 1.017 0 00-.203-.386.941.941 0 00-.406-.264 1.012 1.012 0 00-.488-.061 1.32 1.32 0 00-.427.121.988.988 0 00-.345.306 1.074 1.074 0 00-.224.426 1.366 1.366 0 00-.081.488c0 .162.04.305.101.447a.94.94 0 00.265.366c.122.101.264.183.426.244.183.06.346.08.508.06a1.01 1.01 0 00.407-.162l.244.346a1.474 1.474 0 01-.57.203c-.202.02-.446 0-.69-.082a1.648 1.648 0 01-.59-.325 1.776 1.776 0 01-.386-.487 1.478 1.478 0 01-.142-.59c-.02-.203.02-.426.102-.65.08-.224.183-.407.325-.569.142-.163.284-.284.467-.366.183-.081.386-.142.59-.163.223-.02.447.02.67.102.203.061.366.183.549.325.163.143.285.326.366.529l-.468.142zM38.536 97.144l-.427-.102 1.098-4.471.427.101-.122.508h.02c.163-.162.366-.264.59-.325.223-.04.447-.04.65 0 .223.061.427.142.61.265.162.121.304.284.406.447.102.162.163.365.183.569.02.203.02.426-.041.65-.06.224-.142.406-.264.59a2.131 2.131 0 01-.427.426 1.267 1.267 0 01-.569.203c-.203.04-.427.02-.65-.04a1.497 1.497 0 01-.59-.305 1.182 1.182 0 01-.386-.549h-.02l-.488 2.033zm2.947-2.46c.04-.162.06-.325.04-.487a1.31 1.31 0 00-.121-.427 1.128 1.128 0 00-.285-.346 1.008 1.008 0 00-.447-.203 1.313 1.313 0 00-.488-.02.99.99 0 00-.427.162.995.995 0 00-.325.325 1.127 1.127 0 00-.203.448.993.993 0 00-.02.487c.04.163.06.305.142.427.081.122.183.244.305.346.122.101.264.162.427.203.182.04.345.061.488.02a.905.905 0 00.406-.163.937.937 0 00.305-.325c.102-.142.162-.284.203-.447zM44.96 94.826c.04-.264 0-.467-.123-.61-.122-.142-.305-.243-.569-.284a1.412 1.412 0 00-.508.02c-.163.041-.305.102-.426.204l-.204-.325a1.35 1.35 0 01.549-.224 2.05 2.05 0 01.711-.02c.163.02.305.06.447.142.142.061.244.163.346.264a.786.786 0 01.203.387c.04.142.04.304.02.487l-.203 1.321c-.02.122-.04.244-.04.366a.873.873 0 000 .325l-.387-.06v-.245c0-.08.02-.162.02-.244h-.02a1.243 1.243 0 01-.528.366 1.36 1.36 0 01-.65.041c-.122-.02-.224-.061-.346-.102a1.144 1.144 0 01-.305-.203.88.88 0 01-.203-.325 1.015 1.015 0 01-.04-.447c.04-.224.121-.407.264-.529a.897.897 0 01.528-.223c.203-.04.447-.04.69-.02.265.02.53.04.793.101l-.02-.163zm-.204.427l-.549-.06c-.182-.02-.345 0-.508.02a.73.73 0 00-.386.142.595.595 0 00-.203.325c-.02.102 0 .203.02.285.02.081.081.142.142.203.062.06.143.102.224.122.081.04.163.061.244.061.163.02.305.02.427-.02.121-.041.244-.102.345-.163.102-.081.183-.183.244-.285.061-.121.102-.244.122-.365l.04-.224-.162-.04zM46.93 96.717c0 .081-.04.162-.122.244-.081.06-.163.101-.264.081a.465.465 0 01-.244-.122.388.388 0 01-.081-.244c0-.081.04-.163.122-.244a.266.266 0 01.264-.08c.102 0 .183.06.244.12a.26.26 0 01.081.245zM51.057 95.7c0 .224-.06.447-.142.63a1.412 1.412 0 01-.345.488 1.541 1.541 0 01-.529.326c-.203.08-.427.101-.67.101-.244 0-.448-.061-.65-.142a1.503 1.503 0 01-.509-.346 1.539 1.539 0 01-.325-.528c-.081-.204-.102-.407-.102-.65 0-.224.061-.448.143-.63.081-.184.203-.366.345-.488.142-.142.325-.244.529-.326.203-.08.426-.101.65-.101a1.7 1.7 0 01.65.142c.203.081.366.203.508.346.143.142.244.325.326.528.101.203.142.406.121.65zm-.467-.02c0-.163-.02-.325-.061-.488a1.14 1.14 0 00-.224-.406 1.26 1.26 0 00-.365-.285 1.72 1.72 0 00-.488-.122c-.183 0-.346.02-.488.082a1.156 1.156 0 00-.366.244 1.251 1.251 0 00-.244.386 1.21 1.21 0 00-.101.467c0 .163.02.325.06.488.041.142.123.284.224.407a1.042 1.042 0 00.813.365c.183 0 .346-.02.488-.081.142-.061.264-.142.366-.244a1.25 1.25 0 00.244-.386c.122-.102.142-.264.142-.427zM52.01 94.481c0-.122-.02-.244-.041-.346l.427-.02c.02.082.02.183.02.265 0 .101.02.182.02.243h.02c.082-.183.204-.325.366-.447a.949.949 0 01.57-.183h.162c.04 0 .102 0 .142.02l-.04.427c-.02 0-.061-.02-.122-.02h-.183a.716.716 0 00-.346.081.73.73 0 00-.284.224 1.032 1.032 0 00-.183.366c-.04.142-.06.325-.06.528l.06 1.565-.447.02-.081-2.377v-.346zM54.835 97.652c.142.142.325.264.548.345.224.081.448.122.691.081.224-.02.387-.081.55-.162.141-.081.264-.183.345-.305a.907.907 0 00.162-.407c.02-.142.041-.304.02-.467l-.06-.569h-.02a1.149 1.149 0 01-.448.488 1.47 1.47 0 01-.63.223c-.244.02-.447.02-.65-.04a1.439 1.439 0 01-.528-.264c-.143-.122-.285-.265-.366-.448a1.522 1.522 0 01-.183-.61c-.02-.223 0-.426.04-.63.061-.203.143-.365.265-.528a1.37 1.37 0 01.447-.386 1.92 1.92 0 01.63-.203c.223-.02.447 0 .67.081.224.081.407.203.55.386h.02l-.061-.528.447-.04.325 3.007c.02.163.02.345 0 .528-.02.183-.081.366-.203.55a1.412 1.412 0 01-.468.446c-.203.122-.467.204-.813.244-.284.04-.549 0-.813-.081a2.146 2.146 0 01-.711-.366l.244-.345zm-.163-2.155c.02.163.061.305.122.448.061.142.163.243.264.345.102.101.244.163.386.223.143.041.305.061.488.041.163-.02.325-.06.448-.142.142-.082.243-.163.345-.285a.957.957 0 00.203-.406c.04-.142.061-.305.041-.488a1.16 1.16 0 00-.142-.447 1.18 1.18 0 00-.285-.346 1.308 1.308 0 00-.407-.223 1.19 1.19 0 00-.467-.04c-.183.02-.345.06-.467.142a.94.94 0 00-.326.304 1.245 1.245 0 00-.183.407c-.02.142-.04.305-.02.467zM58.82 96.635l-.386-.06 1.056-5 .386.06-1.057 5zM62.196 93.404a.853.853 0 00-.366-.224.916.916 0 00-.468 0c-.08.02-.142.041-.223.082a.726.726 0 00-.183.121c-.04.062-.082.123-.102.183a.43.43 0 00.244.508c.122.041.325.061.59.061.365-.02.65.02.853.122a.724.724 0 01.386.488c.04.163.04.326 0 .447-.04.122-.102.244-.183.346a.979.979 0 01-.325.244c-.122.06-.264.122-.386.142a1.58 1.58 0 01-.691.02 1.306 1.306 0 01-.63-.305l.284-.345a.758.758 0 00.407.244.928.928 0 00.528.02c.102-.02.183-.06.265-.081a.731.731 0 00.203-.142c.06-.061.081-.122.122-.204a.58.58 0 000-.264.392.392 0 00-.305-.305 3.18 3.18 0 00-.712-.06H61.2c-.102 0-.204-.041-.305-.082a.77.77 0 01-.264-.183.551.551 0 01-.163-.325.694.694 0 010-.406.977.977 0 01.163-.326.903.903 0 01.304-.244c.122-.06.244-.121.387-.142.203-.04.426-.06.63 0 .223.04.386.142.528.285l-.284.325zM66.605 92.876c.08.223.101.426.08.65a1.51 1.51 0 01-.162.59 1.468 1.468 0 01-.386.487 1.844 1.844 0 01-.59.325 1.882 1.882 0 01-.65.102 1.414 1.414 0 01-.59-.162c-.182-.082-.345-.224-.487-.367a1.743 1.743 0 01-.325-.569 1.44 1.44 0 01-.081-.65 1.51 1.51 0 01.162-.59 1.47 1.47 0 01.386-.487c.163-.142.366-.244.59-.325a1.92 1.92 0 01.67-.102c.224.02.407.061.59.163.183.081.345.223.488.365.142.163.243.346.305.57zm-.428.142a1.418 1.418 0 00-.223-.427 1.25 1.25 0 00-.345-.305.966.966 0 00-.427-.142c-.163-.02-.325 0-.488.06a1.469 1.469 0 00-.427.245.942.942 0 00-.264.366c-.06.142-.102.284-.102.447 0 .162.021.325.082.487.06.163.122.305.223.428.102.121.203.223.346.304.122.081.264.122.426.142.163.02.305 0 .488-.06.163-.062.305-.143.427-.244a.938.938 0 00.264-.366c.061-.142.082-.285.102-.447a4.001 4.001 0 00-.082-.488zM69.287 90.843a.88.88 0 00-.406-.142.913.913 0 00-.468.081.986.986 0 00-.406.285 1.536 1.536 0 00-.244.386c-.04.142-.061.285-.061.447 0 .163.04.325.122.488.06.162.163.304.264.406a.938.938 0 00.366.264c.142.061.285.102.447.102.163 0 .325-.04.488-.102.183-.081.325-.183.406-.304a.754.754 0 00.183-.387l.407.102a1.42 1.42 0 01-.285.549 1.522 1.522 0 01-.569.406 2.026 2.026 0 01-.67.163 1.54 1.54 0 01-.61-.102 1.6 1.6 0 01-.508-.345 1.843 1.843 0 01-.366-.55 1.765 1.765 0 01-.143-.629c0-.203.021-.406.102-.59a1.41 1.41 0 01.346-.507c.142-.163.345-.285.569-.366.183-.082.386-.122.63-.122s.426.06.63.162l-.224.305z"
            fill="#0D102B" />
    </g>
</svg>