<svg xmlns="http://www.w3.org/2000/svg" viewBox="0 0 66 66" fill="none">
    <g clip-path="url(#a)">
        <rect width="64" height="64" x=".53" y=".61" fill="#434344" rx="32" />
        <path fill="#585858"
            d="M63.63 39.6c1.07-4.65 1.08-9.5.03-14.16l-6.39 1.44c.84 3.7.83 7.56-.03 11.26l6.39 1.47Zm.03-14.16a31.92 31.92 0 0 0-6.1-12.8l-5.14 4.07a25.37 25.37 0 0 1 4.85 10.17l6.39-1.44Zm-6.1-12.8A31.92 31.92 0 0 0 46.5 3.77l-2.87 5.89a25.37 25.37 0 0 1 8.78 7.06l5.13-4.06ZM46.5 3.77c-4.3-2.1-9.01-3.2-13.8-3.23l-.04 6.55c3.8.02 7.55.9 10.97 2.57l2.87-5.89ZM32.71.53A31.92 31.92 0 0 0 18.87 3.6l2.8 5.92a25.37 25.37 0 0 1 11-2.43l.04-6.55ZM18.87 3.6a31.92 31.92 0 0 0-11.14 8.75l5.08 4.13a25.38 25.38 0 0 1 8.86-6.96l-2.8-5.92ZM7.73 12.34a31.92 31.92 0 0 0-6.27 12.71l6.37 1.52c.88-3.7 2.58-7.15 4.98-10.1l-5.08-4.13ZM1.46 25.05a35.95 35.95 0 0 0-.01 15.06l6.4-1.4c-.82-3.77-.88-8.5-.02-12.14l-6.37-1.52ZM22.79 27.05h-2.87l-.67 1.76h-.81l2.47-6.34h.9l2.47 6.34h-.82l-.67-1.76Zm-.28-.72-.85-2.24-.3-.89h-.02l-.28.86-.86 2.27h2.31ZM26.43 28.81h-.77v-6.34h.77v6.34ZM33.7 27.19c-.2.54-.52.96-.98 1.27-.45.3-.97.45-1.57.45a2.71 2.71 0 0 1-2.58-1.53 3.97 3.97 0 0 1-.36-1.74c0-.66.12-1.23.36-1.73.24-.49.58-.87 1.03-1.13.44-.27.95-.4 1.53-.4.6 0 1.12.12 1.53.37.41.25.72.62.93 1.1l-.76.36a1.72 1.72 0 0 0-.61-.83 1.77 1.77 0 0 0-1.03-.28 1.96 1.96 0 0 0-1.9 1.18 3.2 3.2 0 0 0-.27 1.36c0 .8.19 1.42.57 1.87.38.45.9.68 1.56.68.43 0 .8-.11 1.11-.33.32-.22.54-.54.68-.96l.76.29ZM37.51 22.47c.64 0 1.16.18 1.55.53.39.35.58.82.58 1.4 0 .6-.2 1.06-.58 1.42-.4.34-.9.51-1.55.51h-1.47v2.48h-.77v-6.34h2.24Zm-.11 3.14c.49 0 .85-.1 1.08-.3.24-.2.36-.5.36-.9s-.12-.7-.36-.9c-.23-.21-.6-.32-1.08-.32h-1.36v2.42h1.36ZM44.33 27.05h-2.87l-.67 1.76h-.8l2.46-6.34h.91l2.46 6.34H45l-.67-1.76Zm-.28-.72-.85-2.24-.3-.89h-.02l-.28.86-.86 2.27h2.31Z" />
        <path fill="#fff"
            d="M18.54 32.77c.73 0 1.37.13 1.9.37.52.24.99.63 1.39 1.16l-1.14 1.11a2.2 2.2 0 0 0-.83-.96 2.42 2.42 0 0 0-1.31-.32c-.48 0-.85.09-1.12.27a.82.82 0 0 0-.38.71c0 .27.13.49.4.65.26.16.74.3 1.42.42.72.13 1.3.3 1.72.5.42.2.73.45.92.76.2.3.3.67.3 1.12 0 .48-.14.9-.42 1.27a2.6 2.6 0 0 1-1.15.81c-.49.2-1.05.3-1.68.3a5.5 5.5 0 0 1-2.15-.37 3.2 3.2 0 0 1-1.34-1.12l.98-1.17c.3.49.64.83 1.02 1.02.39.18.86.28 1.43.28.51 0 .9-.09 1.17-.24.27-.17.4-.4.4-.69 0-.21-.12-.4-.38-.54-.25-.14-.7-.28-1.34-.4a8.29 8.29 0 0 1-1.8-.55c-.43-.2-.75-.46-.95-.76a2 2 0 0 1-.3-1.13c0-.48.13-.9.38-1.28.26-.38.63-.68 1.12-.9.5-.21 1.07-.32 1.74-.32ZM26.9 32.77c.77 0 1.44.16 2.01.5.58.32 1.02.8 1.32 1.4.31.62.47 1.34.47 2.18 0 .84-.16 1.57-.47 2.18-.3.61-.74 1.08-1.32 1.4-.57.34-1.24.5-2.01.5-.78 0-1.46-.16-2.03-.5a3.32 3.32 0 0 1-1.33-1.4 4.88 4.88 0 0 1-.46-2.18c0-.84.15-1.56.46-2.17a3.3 3.3 0 0 1 1.33-1.42c.57-.32 1.25-.49 2.03-.49Zm0 1.36c-.68 0-1.2.23-1.56.7a3.24 3.24 0 0 0-.54 2.02c0 .88.18 1.56.54 2.03.36.46.88.7 1.56.7.66 0 1.17-.24 1.53-.7.37-.47.55-1.15.55-2.03 0-.88-.18-1.55-.55-2.02-.36-.47-.87-.7-1.53-.7ZM39.27 38.63a3.06 3.06 0 0 1-1.23 1.72c-.6.39-1.3.58-2.13.58-.77 0-1.45-.16-2.03-.5a3.32 3.32 0 0 1-1.33-1.4 4.88 4.88 0 0 1-.45-2.18c0-.84.15-1.56.45-2.17.31-.62.75-1.09 1.32-1.42a4 4 0 0 1 2.02-.49c.82 0 1.52.17 2.09.52.57.34.97.85 1.18 1.53l-1.5.64a1.84 1.84 0 0 0-.6-1.02c-.27-.2-.64-.31-1.1-.31-.67 0-1.2.23-1.58.7a3.17 3.17 0 0 0-.57 2.02c0 .87.19 1.55.55 2.02.37.47.9.7 1.56.7.97 0 1.58-.46 1.83-1.4l1.52.46ZM44.34 39.68c.97-.65 1.73-1.21 2.3-1.7.57-.49.98-.94 1.24-1.36.25-.41.38-.82.38-1.23 0-.38-.11-.68-.35-.91a1.24 1.24 0 0 0-.93-.35c-.44 0-.79.15-1.05.45-.25.3-.4.74-.42 1.3l-1.42-.54c.05-.8.35-1.43.88-1.89a3.13 3.13 0 0 1 2.1-.68c.62 0 1.14.12 1.56.35a2.36 2.36 0 0 1 1.3 2.17c0 .74-.28 1.45-.84 2.11a11.4 11.4 0 0 1-2.68 2.12c.47-.03.95-.04 1.46-.04h2.18v1.33h-5.71v-1.13Z" />
        <path stroke="#fff" stroke-width=".8" d="m63.39 40.02-6.11-1.62M1.41 40.52l6.83-1.93" />
        <circle cx="32.53" cy="32.61" r="25.1" stroke="#fff" />
    </g>
    <rect width="64" height="64" x=".53" y=".61" stroke="#fff" rx="32" />
    <defs>
        <clipPath id="a">
            <rect width="64" height="64" x=".53" y=".61" fill="#fff" rx="32" />
        </clipPath>
    </defs>
</svg>