<svg fill="none" xmlns="http://www.w3.org/2000/svg" viewBox="0 0 66 66">
    <rect x="1.2" y="1" width="64" height="64" rx="32" fill="#0D102B" />
    <path
        d="M64.3 40c1-4.7 1-9.5 0-14.2l-6.4 1.5c.8 3.7.8 7.5 0 11.2l6.4 1.5Zm0-14.2A32 32 0 0 0 58.2 13L53 17.1c2.3 3 4 6.5 4.8 10.2l6.4-1.5ZM58.2 13a32 32 0 0 0-11-8.8l-3 5.8c3.5 1.7 6.5 4.1 8.9 7.1l5-4Zm-11-8.8A32 32 0 0 0 33.3.9v6.6c3.7 0 7.5.9 10.9 2.5l2.9-5.8ZM33.3.9a32 32 0 0 0-13.9 3l2.8 6c3.4-1.6 7.2-2.5 11-2.4V.9ZM19.5 4a32 32 0 0 0-11.1 8.8l5 4.2c2.4-3 5.5-5.4 9-7l-2.9-6ZM8.4 12.8A32 32 0 0 0 2 25.4L8.5 27c.9-3.7 2.6-7.2 5-10.1l-5.1-4.2ZM2 25.4a36 36 0 0 0 0 15l6.4-1.3c-.8-3.8-.9-8.5 0-12.1L2 25.4ZM23.4 27.4h-2.8l-.7 1.8H19l2.4-6.3h1l2.4 6.3h-.8l-.7-1.8Zm-.3-.7-.8-2.2-.3-1-.3 1-.9 2.2h2.3ZM27 29.2h-.7v-6.3h.8v6.3ZM34.3 27.6c-.2.5-.5 1-1 1.2-.4.3-1 .5-1.5.5a2.7 2.7 0 0 1-2.6-1.5A4 4 0 0 1 29 26c0-.6 0-1.2.3-1.7s.6-.9 1-1.1c.5-.3 1-.4 1.6-.4.6 0 1 0 1.5.3l1 1.1-.8.4-.6-.8c-.3-.2-.7-.3-1-.3-.5 0-.9 0-1.2.3a2 2 0 0 0-.8.9c-.2.4-.2.8-.2 1.3 0 .8.1 1.4.5 1.9s1 .7 1.6.7c.4 0 .8-.1 1.1-.4.3-.2.5-.5.7-1l.7.4ZM38.1 22.9c.7 0 1.2.1 1.6.5.4.3.6.8.6 1.4 0 .6-.2 1-.6 1.4-.4.4-1 .5-1.6.5h-1.4v2.5h-.8v-6.3h2.2Zm0 3.1c.4 0 .8-.1 1-.3.3-.2.4-.5.4-1 0-.3-.1-.6-.4-.8-.2-.2-.6-.3-1-.3h-1.4V26H38ZM45 27.4H42l-.7 1.8h-.8l2.5-6.3h.9l2.5 6.3h-.9l-.6-1.8Zm-.3-.7-.9-2.2-.3-1-.3 1-.8 2.2h2.3Z"
        fill="#434875" />
    <path
        d="M19.2 33.2c.7 0 1.3 0 1.9.3.5.3 1 .7 1.4 1.2l-1.2 1.1c-.2-.4-.5-.8-.8-1-.3-.2-.8-.3-1.3-.3a2 2 0 0 0-1.1.3c-.3.2-.4.4-.4.7 0 .3.1.5.4.6.2.2.7.3 1.4.5.7.1 1.3.3 1.7.5.5.2.8.4 1 .7.2.3.3.7.3 1.1 0 .5-.2 1-.5 1.3-.2.4-.6.6-1.1.8-.5.2-1 .3-1.7.3-.9 0-1.6-.1-2.1-.3-.6-.3-1-.7-1.4-1.2l1-1.1c.3.5.6.8 1 1 .4.2.9.3 1.4.3.6 0 1-.1 1.2-.3.3-.1.4-.4.4-.7 0-.2-.1-.4-.4-.5l-1.3-.4-1.8-.5c-.4-.3-.8-.5-1-.8a2 2 0 0 1-.3-1.1c0-.5.2-1 .4-1.3.3-.4.6-.7 1.1-1l1.8-.2ZM27.5 33.2a4 4 0 0 1 2 .5c.6.3 1 .8 1.4 1.4.3.6.4 1.3.4 2.1 0 .9-.1 1.6-.4 2.2-.3.6-.8 1.1-1.3 1.4a4 4 0 0 1-2 .5 4 4 0 0 1-2-.5c-.7-.3-1.1-.8-1.4-1.4-.3-.6-.5-1.3-.5-2.2 0-.8.2-1.5.5-2.1.3-.6.7-1.1 1.3-1.4a4 4 0 0 1 2-.5Zm0 1.3c-.6 0-1.2.3-1.5.7-.4.5-.6 1.2-.6 2 0 1 .2 1.6.6 2 .3.5.9.8 1.5.8.7 0 1.2-.3 1.6-.7.3-.5.5-1.2.5-2 0-1-.2-1.6-.5-2-.4-.5-.9-.8-1.6-.8ZM40 39a3 3 0 0 1-1.3 1.7c-.6.4-1.3.6-2.1.6a4 4 0 0 1-2-.5c-.7-.3-1.1-.8-1.4-1.4-.3-.6-.5-1.3-.5-2.2 0-.8.2-1.5.5-2.1.3-.6.7-1.1 1.3-1.4a4 4 0 0 1 2-.5 4 4 0 0 1 2.1.5c.6.3 1 .8 1.2 1.5l-1.5.6c-.1-.4-.3-.8-.6-1-.3-.2-.6-.3-1.1-.3a2 2 0 0 0-1.6.7c-.4.5-.5 1.2-.5 2 0 1 .1 1.6.5 2 .4.5.9.8 1.6.8 1 0 1.5-.5 1.8-1.4l1.5.4ZM45 40l2.3-1.6c.5-.5 1-1 1.2-1.4.3-.4.4-.8.4-1.2 0-.4-.1-.7-.3-1-.3-.2-.6-.3-1-.3s-.8.2-1 .5c-.3.3-.4.7-.4 1.3l-1.5-.6c0-.8.4-1.4 1-1.9.4-.4 1.1-.6 2-.6.6 0 1.1 0 1.6.3a2.4 2.4 0 0 1 1.3 2.2c0 .7-.3 1.4-.9 2-.5.7-1.4 1.5-2.6 2.2h3.6v1.3H45v-1.1Z"
        fill="#fff" />
    <path d="m64 40.4-6-1.6M2 41 9 39" stroke="#fff" stroke-width=".8" />
    <circle cx="33.2" cy="33" r="25.1" stroke="#fff" />
    <rect x="1.2" y="1" width="64" height="64" rx="32" stroke="#fff" />
    <defs>
        <clipPath id="a">
            <rect x="1.2" y="1" width="64" height="64" rx="32" fill="#fff" />
        </clipPath>
    </defs>
</svg>