<svg viewBox="0 0 80 80" fill="none" xmlns="http://www.w3.org/2000/svg">
    <rect x=".8" y=".8" width="78.4" height="78.4" rx="39.2" fill="#0D102B" />
    <path
        d="M78.008 48.742a39.002 39.002 0 0 0 .038-17.314l-7.804 1.758a30.999 30.999 0 0 1-.03 13.763l7.796 1.793Zm.038-17.314a39 39 0 0 0-7.46-15.625l-6.274 4.964a31 31 0 0 1 5.93 12.42l7.804-1.76Zm-7.46-15.625A38.999 38.999 0 0 0 57.098 4.948l-3.507 7.19a30.999 30.999 0 0 1 10.721 8.629l6.274-4.964ZM57.098 4.948A39 39 0 0 0 40.24 1l-.05 8a31 31 0 0 1 13.4 3.137l3.508-7.19ZM40.24 1A39 39 0 0 0 23.335 4.74l3.418 7.233A31 31 0 0 1 40.191 9l.05-8ZM23.335 4.74A39 39 0 0 0 9.714 15.429l6.213 5.04a31 31 0 0 1 10.826-8.496L23.335 4.74ZM9.714 15.429A39 39 0 0 0 2.062 30.96l7.782 1.854a31.002 31.002 0 0 1 6.083-12.345l-6.213-5.04ZM2.062 30.96C.69 36.72.822 43.718 2.044 49.349l7.818-1.697c-1.003-4.62-1.077-10.394-.018-14.838L2.062 30.96ZM27.823 32.804h-3.588L23.395 35h-1.008l3.084-7.92h1.14L29.682 35h-1.02l-.84-2.196Zm-.349-.9-1.067-2.808-.372-1.104h-.024l-.348 1.068-1.08 2.844h2.892ZM32.373 35h-.96v-7.92h.96V35Zm9.095-2.028a3.191 3.191 0 0 1-1.224 1.584c-.568.376-1.224.564-1.968.564s-1.392-.164-1.944-.492a3.392 3.392 0 0 1-1.284-1.416c-.296-.616-.444-1.34-.444-2.172 0-.824.148-1.544.444-2.16a3.299 3.299 0 0 1 1.284-1.416c.552-.336 1.192-.504 1.92-.504.76 0 1.396.156 1.908.468.52.312.908.772 1.164 1.38l-.948.444c-.176-.464-.432-.812-.768-1.044-.336-.232-.764-.348-1.284-.348-.544 0-1.02.128-1.428.384-.408.248-.724.612-.948 1.092-.224.48-.336 1.048-.336 1.704 0 .992.236 1.772.708 2.34.48.56 1.132.84 1.956.84.536 0 1-.136 1.392-.408.392-.272.672-.672.84-1.2l.96.36Zm4.759-5.892c.8 0 1.444.22 1.932.66.488.432.732 1.016.732 1.752s-.244 1.324-.732 1.764c-.488.432-1.132.648-1.932.648H44.39V35h-.96v-7.92h2.796Zm-.144 3.924c.616 0 1.068-.124 1.356-.372.296-.256.444-.636.444-1.14 0-.504-.148-.88-.444-1.128-.288-.256-.74-.384-1.356-.384H44.39v3.024h1.692Zm8.67 1.8h-3.588L50.324 35h-1.008l3.084-7.92h1.14L56.612 35h-1.02l-.84-2.196Zm-.348-.9-1.068-2.808-.372-1.104h-.024l-.348 1.068-1.08 2.844h2.892Z"
        fill="#FF5D22" />
    <path
        d="M22.383 40.95c.92 0 1.71.155 2.37.465.66.3 1.24.78 1.74 1.44l-1.425 1.395c-.26-.54-.605-.94-1.035-1.2-.43-.27-.975-.405-1.635-.405-.6 0-1.065.115-1.395.345-.32.22-.48.515-.48.885 0 .34.165.61.495.81.33.2.925.375 1.785.525.9.17 1.615.38 2.145.63s.915.565 1.155.945c.25.37.375.835.375 1.395 0 .61-.175 1.14-.525 1.59-.34.44-.82.78-1.44 1.02-.61.24-1.31.36-2.1.36-1.09 0-1.985-.15-2.685-.45a4.004 4.004 0 0 1-1.68-1.395l1.23-1.47c.37.61.795 1.035 1.275 1.275.48.23 1.075.345 1.785.345.64 0 1.125-.1 1.455-.3.34-.2.51-.485.51-.855 0-.27-.16-.495-.48-.675-.31-.18-.87-.35-1.68-.51-.93-.19-1.675-.415-2.235-.675-.55-.26-.95-.58-1.2-.96s-.375-.85-.375-1.41c0-.59.16-1.12.48-1.59.32-.48.785-.855 1.395-1.125.62-.27 1.345-.405 2.175-.405Zm10.449 0c.97 0 1.81.205 2.52.615.72.41 1.27 1 1.65 1.77.39.76.585 1.665.585 2.715 0 1.05-.195 1.96-.585 2.73a4.06 4.06 0 0 1-1.65 1.755c-.71.41-1.55.615-2.52.615s-1.815-.205-2.535-.615a4.151 4.151 0 0 1-1.665-1.755c-.38-.77-.57-1.68-.57-2.73s.19-1.955.57-2.715c.39-.77.945-1.36 1.665-1.77.72-.41 1.565-.615 2.535-.615Zm0 1.695c-.84 0-1.49.295-1.95.885-.45.58-.675 1.42-.675 2.52s.225 1.945.675 2.535c.46.58 1.11.87 1.95.87.83 0 1.47-.29 1.92-.87.46-.59.69-1.435.69-2.535s-.23-1.94-.69-2.52c-.45-.59-1.09-.885-1.92-.885ZM48.3 48.27c-.29.95-.805 1.67-1.545 2.16-.74.48-1.625.72-2.655.72-.97 0-1.815-.205-2.535-.615A4.151 4.151 0 0 1 39.9 48.78c-.38-.77-.57-1.68-.57-2.73s.19-1.955.57-2.715c.39-.77.94-1.36 1.65-1.77.72-.41 1.56-.615 2.52-.615 1.03 0 1.9.215 2.61.645.72.43 1.215 1.07 1.485 1.92l-1.875.795c-.16-.59-.41-1.015-.75-1.275s-.8-.39-1.38-.39c-.84 0-1.5.295-1.98.885-.47.59-.705 1.43-.705 2.52s.23 1.93.69 2.52c.46.59 1.11.885 1.95.885 1.21 0 1.97-.585 2.28-1.755l1.905.57Zm6.334 1.32c1.21-.81 2.17-1.52 2.88-2.13.71-.61 1.225-1.175 1.545-1.695.32-.52.48-1.035.48-1.545 0-.47-.145-.85-.435-1.14-.28-.29-.67-.435-1.17-.435-.55 0-.985.19-1.305.57-.32.38-.495.92-.525 1.62l-1.785-.675c.07-1 .44-1.785 1.11-2.355.67-.57 1.545-.855 2.625-.855.77 0 1.42.145 1.95.435.54.29.945.675 1.215 1.155.27.47.405.99.405 1.56 0 .93-.35 1.81-1.05 2.64-.7.82-1.815 1.7-3.345 2.64v.015c.58-.04 1.185-.06 1.815-.06h2.73V51h-7.14v-1.41Z"
        fill="#fff" />
    <path d="m78.571 49.26-7.642-2.02M2 49.495l7.643-2.021" stroke="#fff" />
    <circle cx="40" cy="40" r="31.5" stroke="#fff" />
    <rect x=".8" y=".8" width="78.4" height="78.4" rx="39.2" stroke="#fff" stroke-width="1.6" />
</svg>