<svg fill="none" xmlns="http://www.w3.org/2000/svg" viewBox="0 0 74 75">
    <g clip-path="url(#clip0_1850_274)">
        <rect x=".844" y="1.355" width="72.163" height="72.163" rx="36.081" fill="#fff" />
        <path
            d="M71.985 45.327a35.995 35.995 0 0 0 .035-15.98l-7.202 1.623a28.612 28.612 0 0 1-.029 12.702l7.196 1.655Zm.035-15.98a35.996 35.996 0 0 0-6.885-14.42l-5.79 4.581a28.61 28.61 0 0 1 5.473 11.463l7.203-1.623Zm-6.885-14.42A35.995 35.995 0 0 0 52.687 4.908l-3.237 6.636a28.61 28.61 0 0 1 9.895 7.964l5.79-4.58ZM52.687 4.908a35.994 35.994 0 0 0-15.559-3.643l-.045 7.384a28.61 28.61 0 0 1 12.367 2.896l3.237-6.637ZM37.128 1.265a35.994 35.994 0 0 0-15.602 3.452l3.154 6.675a28.61 28.61 0 0 1 12.403-2.743l.045-7.383ZM21.526 4.718a35.994 35.994 0 0 0-12.572 9.865l5.734 4.651a28.61 28.61 0 0 1 9.992-7.841l-3.154-6.675ZM8.954 14.582a35.994 35.994 0 0 0-7.062 14.334l7.183 1.711a28.609 28.609 0 0 1 5.613-11.394l-5.734-4.652ZM1.892 28.916C.626 34.232.748 40.69 1.876 45.887l7.215-1.566c-.925-4.264-.994-9.592-.016-13.694l-7.183-1.711Z"
            fill="#E8E8E8" />
        <path
            d="M25.939 31.17h-3.237l-.758 1.982h-.909l2.782-7.144h1.028l2.771 7.144h-.92l-.757-1.981Zm-.314-.81-.964-2.534-.335-.996h-.022l-.314.964-.974 2.565h2.609ZM30.043 33.152h-.866v-7.144h.866v7.144ZM38.246 31.322a2.878 2.878 0 0 1-1.104 1.43c-.512.338-1.104.508-1.775.508-.67 0-1.255-.148-1.753-.444a3.06 3.06 0 0 1-1.158-1.277c-.268-.556-.401-1.209-.401-1.96 0-.743.133-1.392.4-1.948.275-.555.66-.981 1.159-1.277.498-.303 1.075-.455 1.732-.455.685 0 1.259.141 1.72.423.47.281.82.696 1.05 1.244l-.855.4c-.158-.418-.39-.732-.692-.94-.303-.21-.69-.315-1.159-.315-.49 0-.92.116-1.288.347a2.209 2.209 0 0 0-.855.985c-.202.433-.303.945-.303 1.537 0 .895.213 1.598.639 2.11.433.506 1.021.758 1.764.758.484 0 .902-.123 1.256-.368s.606-.606.758-1.082l.865.324ZM42.539 26.008c.721 0 1.302.198 1.743.595.44.39.66.916.66 1.58s-.22 1.195-.66 1.591c-.44.39-1.021.585-1.743.585h-1.656v2.793h-.866v-7.144h2.522Zm-.13 3.54c.556 0 .963-.113 1.223-.336.267-.231.4-.574.4-1.029 0-.454-.133-.793-.4-1.017-.26-.231-.667-.346-1.223-.346h-1.526v2.727h1.526ZM50.23 31.17h-3.237l-.758 1.982h-.909l2.782-7.144h1.028l2.771 7.144h-.92l-.757-1.981Zm-.314-.81-.964-2.534-.335-.996h-.022l-.314.964-.974 2.565h2.609ZM21.146 37.617c.83 0 1.542.14 2.138.42.595.27 1.118.703 1.57 1.298l-1.286 1.259c-.235-.487-.546-.848-.934-1.083-.388-.243-.88-.365-1.475-.365-.54 0-.96.104-1.258.311-.289.199-.433.465-.433.798 0 .307.149.55.447.731.297.18.834.338 1.61.474.812.153 1.457.342 1.935.568.478.225.825.51 1.041.852.226.334.339.753.339 1.259 0 .55-.158 1.028-.474 1.434-.306.397-.74.703-1.299.92-.55.216-1.181.325-1.894.325-.983 0-1.79-.136-2.422-.406a3.613 3.613 0 0 1-1.515-1.259l1.11-1.326c.333.55.716.934 1.15 1.15.432.208.969.312 1.61.312.577 0 1.014-.09 1.312-.27.306-.181.46-.438.46-.772 0-.244-.145-.447-.433-.609-.28-.162-.785-.316-1.516-.46-.838-.171-1.51-.374-2.016-.609-.496-.234-.857-.523-1.082-.866-.226-.343-.338-.767-.338-1.272 0-.532.144-1.01.433-1.434.288-.433.708-.771 1.258-1.015.56-.243 1.213-.365 1.962-.365ZM30.57 37.617c.876 0 1.634.185 2.274.555.65.37 1.146.902 1.488 1.596.352.686.528 1.502.528 2.45 0 .946-.176 1.767-.528 2.462a3.662 3.662 0 0 1-1.488 1.583c-.64.37-1.398.555-2.273.555-.875 0-1.637-.185-2.287-.555a3.744 3.744 0 0 1-1.502-1.583c-.342-.695-.514-1.516-.514-2.463 0-.947.172-1.763.514-2.449a3.727 3.727 0 0 1 1.502-1.596c.65-.37 1.412-.555 2.287-.555Zm0 1.529c-.757 0-1.343.266-1.758.798-.406.523-.609 1.281-.609 2.273 0 .992.203 1.755.609 2.287.415.523 1.001.785 1.759.785.749 0 1.326-.262 1.732-.785.415-.532.622-1.294.622-2.287 0-.992-.207-1.75-.622-2.273-.406-.532-.983-.798-1.732-.798ZM44.524 44.22c-.262.857-.726 1.506-1.394 1.948-.667.433-1.466.65-2.395.65-.875 0-1.637-.185-2.286-.555a3.745 3.745 0 0 1-1.502-1.583c-.343-.695-.515-1.516-.515-2.463 0-.947.172-1.763.515-2.449a3.752 3.752 0 0 1 1.488-1.596c.65-.37 1.407-.555 2.273-.555.93 0 1.714.194 2.354.582.65.388 1.096.965 1.34 1.732l-1.691.717c-.145-.532-.37-.916-.677-1.15-.307-.235-.721-.352-1.245-.352-.757 0-1.353.266-1.786.798-.424.532-.636 1.29-.636 2.273 0 .983.208 1.741.623 2.273.415.533 1.001.799 1.759.799 1.091 0 1.777-.528 2.056-1.583l1.719.514ZM50.237 45.41c1.092-.73 1.958-1.37 2.598-1.92.64-.551 1.105-1.06 1.394-1.53.288-.469.433-.933.433-1.393 0-.424-.13-.767-.392-1.029-.253-.261-.605-.392-1.056-.392-.496 0-.888.171-1.177.514-.289.343-.447.83-.474 1.461l-1.61-.608c.063-.903.397-1.61 1.002-2.125.604-.514 1.393-.771 2.367-.771.695 0 1.281.13 1.76.392.486.262.852.61 1.095 1.042.244.424.366.893.366 1.407 0 .84-.316 1.633-.947 2.382-.632.74-1.638 1.533-3.018 2.381v.014a23.802 23.802 0 0 1 1.637-.054h2.463v1.501h-6.44V45.41Z"
            fill="#5B5B5B" />
        <path d="m71.718 45.79-6.894-1.824M1.836 46.351l7.704-2.173" stroke="#fff" stroke-width=".902" />
        <circle cx="36.925" cy="37.437" r="29.429" stroke="#E8E8E8" stroke-width="1.128" />
    </g>
    <rect x=".844" y="1.355" width="72.163" height="72.163" rx="36.081" stroke="#E8E8E8" stroke-width="1.128" />
    <defs>
        <clipPath id="clip0_1850_274">
            <rect x=".844" y="1.355" width="72.163" height="72.163" rx="36.081" fill="#fff" />
        </clipPath>
    </defs>
</svg>