<svg viewBox="0 0 66 66" fill="none" xmlns="http://www.w3.org/2000/svg">
    <g clip-path="url(#a)">
        <rect x="1" y="1" width="64" height="64" rx="32" fill="#0D102B" />
        <path
            d="M63.4 40a31.2 31.2 0 0 0 .04-13.85l-6.25 1.4c.82 3.63.81 7.4-.02 11.01L63.4 40Zm.04-13.85a31.2 31.2 0 0 0-5.97-12.5l-5.02 3.97a24.8 24.8 0 0 1 4.74 9.93l6.25-1.4Zm-5.97-12.5a31.2 31.2 0 0 0-10.8-8.69l-2.8 5.75a24.8 24.8 0 0 1 8.58 6.9l5.02-3.96Zm-10.8-8.69A31.2 31.2 0 0 0 33.2 1.8l-.04 6.4c3.72.03 7.38.89 10.72 2.51l2.8-5.75ZM33.2 1.8c-4.67-.02-9.3 1-13.52 3l2.73 5.78A24.8 24.8 0 0 1 33.15 8.2l.04-6.4Zm-13.52 3a31.2 31.2 0 0 0-10.9 8.55l4.97 4.03a24.8 24.8 0 0 1 8.66-6.8L19.67 4.8Zm-10.9 8.55a31.2 31.2 0 0 0-6.12 12.42l6.22 1.49a24.8 24.8 0 0 1 4.87-9.88l-4.97-4.03ZM2.65 25.77c-1.1 4.61-1 10.2-.02 14.71l6.26-1.35c-.8-3.7-.86-8.32-.02-11.87l-6.22-1.49ZM23.26 27.45h-2.88l-.67 1.75h-.8l2.46-6.33h.92l2.45 6.33h-.81l-.67-1.75Zm-.28-.72-.86-2.25-.3-.88h-.01l-.28.85-.87 2.28h2.32ZM26.9 29.2h-.77v-6.33h.77v6.33ZM34.17 27.58c-.2.54-.52.96-.98 1.27-.45.3-.98.45-1.57.45a2.71 2.71 0 0 1-2.58-1.53 3.97 3.97 0 0 1-.36-1.73c0-.66.12-1.24.35-1.73.25-.5.59-.87 1.03-1.14.44-.26.96-.4 1.54-.4.6 0 1.11.13 1.52.38.42.25.73.61.94 1.1l-.76.36a1.72 1.72 0 0 0-.62-.84 1.77 1.77 0 0 0-1.02-.28 1.96 1.96 0 0 0-1.9 1.18 3.2 3.2 0 0 0-.27 1.37c0 .79.18 1.41.56 1.87.39.45.9.67 1.57.67a1.78 1.78 0 0 0 1.79-1.29l.76.3ZM37.98 22.87c.64 0 1.15.17 1.54.53.4.34.59.8.59 1.4 0 .59-.2 1.06-.59 1.4-.39.35-.9.53-1.54.53H36.5v2.47h-.77v-6.33h2.24ZM37.86 26c.5 0 .86-.1 1.09-.3.23-.2.35-.51.35-.91s-.12-.7-.35-.9c-.23-.21-.6-.31-1.09-.31h-1.35V26h1.35ZM44.8 27.45h-2.87l-.67 1.75h-.81l2.47-6.33h.9l2.47 6.33h-.82l-.67-1.75Zm-.28-.72-.85-2.25-.3-.88h-.02l-.28.85-.86 2.28h2.31Z"
            fill="#434875" />
        <path
            d="M19 33.16c.74 0 1.37.13 1.9.38.53.24 1 .62 1.4 1.15l-1.15 1.11a2.2 2.2 0 0 0-.82-.96 2.42 2.42 0 0 0-1.31-.32c-.48 0-.85.1-1.12.28a.82.82 0 0 0-.38.7c0 .28.13.5.4.65.26.16.73.3 1.42.42.72.14 1.3.3 1.72.5.42.2.73.46.92.76.2.3.3.67.3 1.12 0 .49-.14.91-.42 1.27a2.6 2.6 0 0 1-1.15.82c-.49.19-1.05.28-1.68.28a5.5 5.5 0 0 1-2.15-.36 3.2 3.2 0 0 1-1.34-1.11l.98-1.18c.3.49.64.83 1.02 1.02.39.19.86.28 1.43.28.51 0 .9-.08 1.16-.24.28-.16.41-.39.41-.69 0-.21-.13-.4-.38-.54s-.7-.28-1.35-.4a8.29 8.29 0 0 1-1.78-.54c-.44-.21-.76-.47-.96-.77a2 2 0 0 1-.3-1.13c0-.47.12-.9.38-1.27.26-.39.63-.69 1.12-.9.5-.22 1.07-.33 1.74-.33ZM27.36 33.16c.78 0 1.45.17 2.02.5.58.32 1.02.8 1.32 1.41.31.61.47 1.33.47 2.17 0 .84-.16 1.57-.47 2.19-.3.6-.74 1.07-1.32 1.4-.57.33-1.24.5-2.02.5-.77 0-1.45-.17-2.02-.5a3.32 3.32 0 0 1-1.34-1.4 4.88 4.88 0 0 1-.45-2.19c0-.84.15-1.56.45-2.17a3.3 3.3 0 0 1 1.34-1.41c.57-.33 1.25-.5 2.02-.5Zm0 1.36c-.67 0-1.19.24-1.56.7a3.24 3.24 0 0 0-.54 2.02c0 .88.18 1.56.54 2.03.37.47.9.7 1.56.7.67 0 1.18-.23 1.54-.7.37-.47.55-1.15.55-2.03 0-.88-.18-1.55-.55-2.01-.36-.47-.87-.71-1.54-.71ZM39.74 39.02a3.06 3.06 0 0 1-1.24 1.73c-.59.38-1.3.57-2.12.57-.78 0-1.45-.16-2.03-.49a3.32 3.32 0 0 1-1.33-1.4 4.88 4.88 0 0 1-.46-2.19c0-.84.15-1.56.46-2.17.31-.61.75-1.09 1.32-1.41a4 4 0 0 1 2.01-.5c.83 0 1.52.18 2.1.52.57.34.96.86 1.18 1.54l-1.5.63a1.84 1.84 0 0 0-.6-1.02c-.27-.2-.64-.31-1.1-.31-.68 0-1.2.24-1.59.7a3.17 3.17 0 0 0-.56 2.02c0 .88.18 1.55.55 2.02.37.47.89.7 1.56.7.97 0 1.58-.46 1.82-1.4l1.53.46ZM44.8 40.08c.97-.65 1.74-1.22 2.31-1.7.57-.5.98-.95 1.24-1.36.25-.42.38-.83.38-1.24 0-.38-.12-.68-.35-.91a1.24 1.24 0 0 0-.93-.35c-.44 0-.8.15-1.05.46-.25.3-.4.73-.42 1.3l-1.43-.55c.06-.8.36-1.43.9-1.88a3.13 3.13 0 0 1 2.1-.69c.6 0 1.13.12 1.55.35a2.36 2.36 0 0 1 1.3 2.17c0 .75-.28 1.45-.84 2.12a11.4 11.4 0 0 1-2.68 2.1v.02c.47-.03.95-.05 1.45-.05h2.19v1.33H44.8v-1.12Z"
            fill="#fff" />
        <path d="m63.86 40.41-6.12-1.61M2.6 40.6l6.11-1.62" stroke="#fff" stroke-width=".8" />
        <circle cx="33" cy="33" r="25.2" stroke="#fff" stroke-width=".8" />
    </g>
    <rect x="1" y="1" width="64" height="64" rx="32" stroke="#fff" />
    <defs>
        <clipPath id="a">
            <rect x="1" y="1" width="64" height="64" rx="32" fill="#fff" />
        </clipPath>
    </defs>
</svg>