<svg xmlns="http://www.w3.org/2000/svg" fill="none" viewBox="0 0 31 31">
  <rect width="30.0103" height="30" x=".51855" y=".65332" fill="#202021" rx="3.75129" />
  <path fill="#A1A1A1"
    d="M25.8086 9.27262c-.7566.33573-1.5692.56268-2.4236.6647.872-.52216 1.54-1.3496 1.8554-2.3344a8.42943 8.42943 0 0 1-2.6802 1.02401c-.7693-.82003-1.8663-1.33201-3.0801-1.33201-2.3296 0-4.219 1.88859-4.219 4.21958 0 .3303.0372.6525.1087.9619-3.5069-.1763-6.6161-1.8561-8.69723-4.40872-.36339.62341-.57139 1.34824-.57139 2.12162 0 1.4637.74503 2.7552 1.8771 3.5118a4.20086 4.20086 0 0 1-1.91158-.5276v.0533c0 2.0447 1.45428 3.7495 3.38476 4.1373-.35463.0971-.72679.1479-1.11181.1479-.27221 0-.53632-.0258-.79432-.0743.53697 1.6759 2.09534 2.8957 3.94127 2.9302-1.4441 1.1321-3.26383 1.8069-5.24022 1.8069-.34041 0-.67684-.0203-1.00712-.0601 1.86768 1.1976 4.08524 1.8967 6.46824 1.8967 7.7612 0 12.0058-6.4298 12.0058-12.0058 0-.183-.0041-.3647-.0129-.5458a8.59477 8.59477 0 0 0 2.1082-2.18718Z" />
  <rect width="28.8103" height="28.8" x="1.11855" y="1.25332" stroke="#D0D0D0" stroke-opacity=".1" stroke-width="1.2"
    rx="3.15129" />
</svg>