<svg fill="none" xmlns="http://www.w3.org/2000/svg" viewBox="0 0 31 31">
  <rect x="1.013" y=".69" width="29.01" height="29" rx="3.251" fill="#EAEAEA" />
  <path
    d="M25.803 8.81a8.425 8.425 0 0 1-2.424.664 4.232 4.232 0 0 0 1.856-2.334 8.431 8.431 0 0 1-2.68 1.024 4.22 4.22 0 0 0-7.19 3.85 11.981 11.981 0 0 1-8.698-4.41 4.2 4.2 0 0 0-.572 2.122c0 1.464.745 2.756 1.877 3.512a4.2 4.2 0 0 1-1.911-.527v.053A4.222 4.222 0 0 0 9.446 16.9a4.285 4.285 0 0 1-1.906.074 4.225 4.225 0 0 0 3.94 2.93 8.466 8.466 0 0 1-6.247 1.747 11.942 11.942 0 0 0 6.469 1.896c7.76 0 12.005-6.43 12.005-12.005 0-.183-.004-.365-.012-.546a8.597 8.597 0 0 0 2.108-2.187Z"
    fill="#89898A" />
  <rect x="1.013" y=".69" width="29.01" height="29" rx="3.251" stroke="#D0D0D0" />
</svg>