<svg viewBox="0 0 1181 581" fill="none" xmlns="http://www.w3.org/2000/svg">
    <path
        d="M954.445 490.775L951.757 487.751C951.074 486.982 950.995 485.85 951.566 484.994L955.829 478.599C956.103 478.189 956.235 477.7 956.205 477.208L955.12 459.312V444.468C955.12 444.191 955.171 443.916 955.271 443.657L957.763 437.177C957.884 436.863 958.074 436.579 958.318 436.348L968.214 426.972C968.523 426.679 968.909 426.48 969.326 426.396L979.616 424.338C979.866 424.288 980.105 424.196 980.325 424.066L994.148 415.875C994.835 415.468 995.257 414.728 995.257 413.93V412.324C995.257 411.651 995.557 411.012 996.075 410.583L1013.67 396.005C1014.47 395.338 1015.63 395.31 1016.47 395.937L1018.96 397.807C1019.35 398.1 1019.83 398.259 1020.32 398.259H1023.95C1024.74 398.259 1025.47 397.849 1025.88 397.177L1030.84 389.063C1031.21 388.447 1031.86 388.048 1032.58 387.988L1045 386.953H1052.07C1052.26 386.953 1052.44 386.976 1052.62 387.02L1053.73 387.297C1055.25 387.678 1055.93 389.464 1055.05 390.764L1049.56 398.805C1048.9 399.775 1049.09 401.09 1050 401.832L1063.03 412.449C1063.44 412.777 1063.94 412.957 1064.46 412.957H1066.66C1067.58 412.957 1068.41 412.402 1068.76 411.552L1073.19 400.708C1073.24 400.583 1073.28 400.454 1073.31 400.321L1077 382.95C1077.13 382.317 1077.69 381.865 1078.33 381.865C1079 381.865 1079.57 382.345 1079.68 383.001L1082.08 396.914C1082.19 397.547 1082.91 397.858 1083.45 397.502C1083.78 397.281 1084.22 397.307 1084.52 397.566L1087.18 399.843C1087.68 400.273 1087.97 400.9 1087.97 401.56V417.375C1087.97 418.145 1088.36 418.861 1089 419.277L1095.13 423.213C1095.61 423.524 1095.96 424.008 1096.1 424.567L1098.61 434.612C1098.67 434.871 1098.78 435.117 1098.93 435.337L1106.68 446.704C1107.01 447.177 1107.14 447.755 1107.05 448.321L1106.08 454.618C1106.06 454.732 1106.06 454.847 1106.06 454.962V459.833C1106.06 460.232 1105.95 460.624 1105.75 460.969L1096.03 477.712C1095.93 477.881 1095.81 478.034 1095.67 478.173C1092.02 481.818 1084.9 488.829 1084.01 489.273C1083.14 489.705 1077.72 497.418 1074.78 501.715C1074.53 502.081 1074.18 502.364 1073.77 502.532L1060.14 508.084C1059.5 508.343 1058.79 508.299 1058.19 507.967L1055.09 506.246C1054.44 505.883 1053.65 505.866 1052.98 506.2L1049.43 507.975C1048.78 508.3 1048.01 508.293 1047.37 507.956L1038.6 503.363C1037.47 502.768 1037.05 501.351 1037.69 500.238L1038.49 498.839C1038.68 498.497 1038.78 498.11 1038.78 497.717V495.501C1038.78 494.491 1038.12 493.604 1037.14 493.326L1028.14 490.753C1027.38 490.536 1026.79 489.937 1026.58 489.174L1023.84 479.134C1023.64 478.405 1023.09 477.823 1022.37 477.584L1015.65 475.343C1015.25 475.21 1014.83 475.191 1014.42 475.287L987.01 481.736C986.494 481.857 986.037 482.156 985.719 482.58L983.498 485.542C983.071 486.111 982.401 486.446 981.689 486.446H969.351C968.918 486.446 968.493 486.571 968.129 486.805L961.332 491.175C960.967 491.409 960.543 491.534 960.109 491.534H956.136C955.49 491.534 954.875 491.258 954.445 490.775Z"
        fill="#E3E3ED" />
    <path
        d="M1044.08 523.305L1046.34 518.405C1046.85 517.293 1048.16 516.791 1049.28 517.274L1050.43 517.764C1050.94 517.983 1051.51 518.006 1052.04 517.831L1055.91 516.541C1056.17 516.453 1056.45 516.428 1056.73 516.467C1058.18 516.675 1058.78 518.459 1057.74 519.501L1048.25 528.986C1047.65 529.592 1046.75 529.803 1045.94 529.533L1045.42 529.359C1044.49 529.051 1043.87 528.187 1043.87 527.214V524.253C1043.87 523.926 1043.94 523.602 1044.08 523.305Z"
        fill="#E3E3ED" />
    <path
        d="M1114.21 543.572L1112.84 542.754C1111.34 541.854 1111.39 539.661 1112.93 538.827L1136.39 526.119C1136.52 526.051 1136.64 525.972 1136.75 525.881L1147.88 516.769C1148.57 516.205 1149.53 516.098 1150.33 516.497L1151.63 517.149C1152.7 517.685 1153.17 518.962 1152.7 520.063L1152.14 521.378C1151.95 521.821 1151.62 522.192 1151.2 522.436L1132.87 533.22C1132.71 533.317 1132.55 533.435 1132.42 533.57L1125.65 540.338C1125.4 540.586 1125.1 540.773 1124.77 540.884L1116.08 543.778C1115.46 543.987 1114.77 543.911 1114.21 543.572Z"
        fill="#E3E3ED" />
    <path
        d="M1158.81 512.629L1158.74 512.557C1157.78 511.598 1157.87 510.017 1158.94 509.18L1164.03 505.178C1164.55 504.771 1164.86 504.157 1164.89 503.498L1165.32 493.697C1165.37 492.488 1166.37 491.534 1167.58 491.534H1167.67C1168.92 491.534 1169.94 492.547 1169.94 493.795V501.21C1169.94 502.184 1170.56 503.048 1171.48 503.356L1172.37 503.651C1172.98 503.855 1173.65 503.788 1174.21 503.469L1176.71 502.038C1177.07 501.83 1177.51 501.8 1177.9 501.955C1178.88 502.348 1179.07 503.656 1178.23 504.306L1157.55 520.448C1157.18 520.736 1156.67 520.755 1156.28 520.495C1155.73 520.128 1155.64 519.358 1156.08 518.867L1158.89 515.741C1159.7 514.847 1159.66 513.48 1158.81 512.629Z"
        fill="#E3E3ED" />
    <path
        d="M500.051 174.399H495.474C494.793 174.399 494.148 174.706 493.719 175.235L480.413 191.612C479.964 192.164 479.801 192.895 479.974 193.586L480.584 196.025C480.741 196.653 480.622 197.317 480.256 197.851L474.155 206.768C473.734 207.384 473.035 207.752 472.289 207.752H468.026C467.206 207.752 466.45 208.196 466.051 208.912L450.719 236.405C450.451 236.884 450.368 237.444 450.482 237.98L453.548 252.285C453.644 252.735 453.601 253.204 453.424 253.629L448.313 265.895C448.137 266.318 448.093 266.783 448.188 267.231L450.172 276.657C450.258 277.067 450.457 277.445 450.746 277.749L460.738 288.268C460.941 288.481 461.1 288.731 461.206 289.005L464.78 298.195C464.925 298.569 465.167 298.897 465.481 299.147L483.144 313.173C483.806 313.699 484.707 313.811 485.478 313.464L494.868 309.239C495.297 309.045 495.777 308.991 496.239 309.083L506.119 311.06C506.584 311.153 507.067 311.097 507.498 310.901L518.958 305.692C519.165 305.598 519.386 305.535 519.613 305.507L531.39 304.035C532.271 303.924 533.136 304.341 533.6 305.099L538.167 312.573C538.693 313.435 539.728 313.843 540.701 313.572L547.897 311.574C548.716 311.346 549.594 311.597 550.169 312.224L554.607 317.067C555.132 317.639 555.326 318.441 555.122 319.19L550.656 335.567C550.471 336.244 550.611 336.969 551.036 337.528L562.54 352.693C562.711 352.919 562.839 353.175 562.915 353.448L567.699 370.456C567.822 370.892 567.811 371.354 567.667 371.783L567.085 373.53C566.877 374.156 566.952 374.842 567.291 375.408L571.094 381.745C571.551 382.507 571.519 383.465 571.014 384.195L567.014 389.973C566.844 390.219 566.724 390.495 566.662 390.787L561.843 413.272C561.731 413.798 561.809 414.348 562.065 414.821L572.739 434.568C572.894 434.855 572.986 435.172 573.007 435.498L574.07 451.981C574.093 452.34 574.202 452.689 574.388 452.998L579.104 460.858C579.163 460.958 579.215 461.061 579.259 461.169L585.244 475.861C585.355 476.131 585.411 476.421 585.411 476.714V481.199C585.411 481.67 585.559 482.13 585.833 482.513L590.238 488.681C590.743 489.388 591.609 489.743 592.465 489.594L616.394 485.433C616.834 485.356 617.241 485.152 617.564 484.844L639.138 464.349C639.49 464.015 639.725 463.576 639.809 463.097L641.775 451.788C641.882 451.178 642.233 450.638 642.749 450.294L651.452 444.492C651.882 444.205 652.201 443.779 652.356 443.285L654.704 435.771C654.859 435.275 654.838 434.74 654.645 434.257L651.055 425.283C650.68 424.345 650.973 423.272 651.772 422.654L674.416 405.156C674.97 404.728 675.294 404.067 675.294 403.367V382.524C675.294 382.094 675.172 381.673 674.941 381.31L671.691 376.203C671.46 375.84 671.337 375.419 671.337 374.989V365.843C671.337 365.243 671.099 364.668 670.675 364.244L668.934 362.503C668.328 361.897 668.117 361.001 668.387 360.189L670.117 355C670.177 354.821 670.258 354.651 670.36 354.492L680.234 339.132C680.333 338.979 680.449 338.839 680.58 338.714L702.103 318.295C702.318 318.091 702.491 317.847 702.612 317.576L717.888 283.337C718.402 282.185 717.873 280.835 716.713 280.338L715.647 279.88C715.143 279.665 714.578 279.639 714.057 279.808L693.441 286.509C692.702 286.749 691.891 286.593 691.294 286.095L686.846 282.388C686.04 281.716 685.802 280.578 686.271 279.64L686.348 279.485C686.825 278.531 686.572 277.374 685.737 276.711C680.718 272.725 672.568 266.389 671.337 265.978C670.07 265.556 668.705 258.855 668.069 254.902C667.986 254.388 667.735 253.916 667.35 253.565L662.378 249.046C661.96 248.665 661.699 248.141 661.647 247.578L660.671 236.833C660.623 236.306 660.392 235.813 660.018 235.438L654.644 230.065C654.468 229.889 654.322 229.685 654.213 229.461L640.558 201.606C640.355 201.191 640.283 200.724 640.354 200.267L641.079 195.55C641.25 194.441 640.582 193.375 639.509 193.045L634.938 191.639C634.356 191.46 633.726 191.523 633.191 191.815L628.614 194.311C628.098 194.593 627.492 194.662 626.926 194.505L608.162 189.293C607.704 189.166 607.298 188.898 607.002 188.527L605.953 187.216C605.481 186.625 604.745 186.31 603.991 186.376L594.766 187.178C593.405 187.296 592.458 188.587 592.755 189.921L593.1 191.474C593.243 192.118 593.098 192.793 592.702 193.321L591.498 194.926C590.672 196.027 589.063 196.141 588.09 195.168L587.113 194.19C586.744 193.821 586.258 193.591 585.739 193.539L577.272 192.693C576.116 192.577 575.236 191.604 575.236 190.443V187.998C575.236 186.978 574.553 186.085 573.57 185.816L569.851 184.802C569.314 184.656 568.743 184.712 568.245 184.961L566.664 185.752C566.012 186.078 565.244 186.07 564.599 185.73L557.198 181.835C555.978 181.193 555.612 179.619 556.422 178.504L558.548 175.582C559.071 174.862 559.124 173.903 558.682 173.13L557.444 170.964C557.249 170.622 557.146 170.235 557.146 169.842V168.467C557.146 167.112 555.963 166.061 554.617 166.222L519.697 170.391C519.416 170.425 519.143 170.511 518.893 170.646L512.424 174.129C512.095 174.307 511.726 174.399 511.352 174.399H500.051Z"
        fill="#E3E3ED" />
    <path
        d="M686.758 445.863L685.064 441.627C684.957 441.359 684.902 441.074 684.902 440.787V432.204C684.902 431.816 685.002 431.434 685.193 431.096L689.532 423.381C689.825 422.86 689.9 422.244 689.74 421.667L687.373 413.145C687.237 412.657 687.269 412.138 687.464 411.67L689.509 406.763C689.808 406.045 690.456 405.531 691.224 405.403L695.976 404.611C696.492 404.525 696.962 404.263 697.306 403.869L704.405 395.756C704.592 395.543 704.737 395.295 704.833 395.028L706.991 388.984C707.305 388.105 708.137 387.519 709.07 387.519C710.134 387.519 711.047 388.278 711.241 389.324L713.622 402.185C713.695 402.576 713.663 402.979 713.53 403.354L698.774 444.886C698.579 445.437 698.178 445.891 697.655 446.152L693.619 448.17C693.103 448.428 692.509 448.479 691.958 448.314L688.208 447.189C687.548 446.991 687.014 446.502 686.758 445.863Z"
        fill="#E3E3ED" />
    <path
        d="M485.986 103.807L485.061 102.883C484.603 102.425 484.623 101.676 485.105 101.243L488.85 97.8722C489.379 97.3959 489.341 96.5547 488.772 96.1274L488.063 95.5957C487.778 95.3822 487.611 95.0471 487.611 94.6912V92.7716C487.611 92.2417 487.979 91.7829 488.496 91.6679L491.813 90.9308C492.33 90.8159 492.698 90.357 492.698 89.8271V89.1963C492.698 88.7553 492.955 88.3545 493.355 88.1697L499.26 85.4444C499.724 85.2301 500.275 85.3542 500.602 85.7472L502.271 87.7491C502.62 88.1684 502.62 88.7774 502.271 89.1967L500.309 91.5502C500.14 91.7534 500.047 92.0095 500.047 92.274V98.964C500.047 99.4507 499.736 99.8827 499.274 100.037L487.143 104.08C486.737 104.216 486.289 104.11 485.986 103.807Z"
        fill="#E3E3ED" />
    <path
        d="M507.17 72.8527L502.161 77.3607C501.901 77.5954 501.764 77.938 501.79 78.2878L502.296 84.8611C502.307 85.0069 502.347 85.1492 502.412 85.28L504.009 88.4737L504.734 89.5614C504.981 89.9315 505.422 90.1226 505.861 90.0494L507.578 89.7631C508.127 89.6717 508.661 89.993 508.837 90.5208L509.799 93.4069C510.022 94.076 509.585 94.7839 508.886 94.8836L507.611 95.0658C506.913 95.1655 506.476 95.8733 506.699 96.5425L507.072 97.6622C507.258 98.2201 506.985 98.8273 506.445 99.0589L504.129 100.051C503.713 100.23 503.444 100.638 503.444 101.091V102.606V102.879C503.444 103.071 503.395 103.26 503.301 103.428L501.031 107.514C500.786 107.955 500.863 108.505 501.22 108.862L501.27 108.912C501.564 109.206 501.996 109.315 502.395 109.196L507.401 107.694L524.814 104.429C525.229 104.351 525.567 104.048 525.688 103.643L526.992 99.296C527.112 98.8976 527.003 98.4657 526.709 98.1716L524.988 96.4507C524.946 96.4089 524.908 96.364 524.873 96.3162L520.586 90.4213C520.466 90.2566 520.304 90.1273 520.117 90.0471L516.805 88.6279C516.572 88.528 516.38 88.3527 516.258 88.1301L513.459 82.9981C513.219 82.5577 513.297 82.0119 513.652 81.6572L516.115 79.1947C516.327 78.9827 516.446 78.6951 516.446 78.3953V77.733C516.446 77.1086 515.939 76.6024 515.315 76.6024H513.145C512.197 76.6024 511.67 75.5058 512.262 74.7655L512.806 74.0855C512.966 73.8851 513.054 73.636 513.054 73.3793V72.8938C513.054 72.1803 512.401 71.6452 511.701 71.7851L507.705 72.5844C507.506 72.6242 507.321 72.7169 507.17 72.8527Z"
        fill="#E3E3ED" />
    <path
        d="M538.488 71.5477V59.8921C538.488 59.0448 538.962 58.2687 539.715 57.8812L557.848 48.5557C558.129 48.4114 558.376 48.2099 558.574 47.9643L571.915 31.4221C572.233 31.0272 572.675 30.7508 573.17 30.6375L599.126 24.6893C599.4 24.6264 599.684 24.6153 599.962 24.6565L614.804 26.8553L642.299 33.5887C642.435 33.6221 642.568 33.6682 642.696 33.7264L645.752 35.1153C647.189 35.7686 647.531 37.6563 646.415 38.7727L645.738 39.4496C645.471 39.7171 645.14 39.9132 644.777 40.02L636.513 42.4507C636.001 42.6012 635.452 42.5659 634.964 42.3511L623.146 37.151C622.223 36.7451 621.143 36.9988 620.498 37.7731L620.411 37.8779C619.537 38.9269 619.784 40.5053 620.938 41.2359L634.612 49.8961C635.297 50.3301 636.163 50.3638 636.88 49.9842L645.186 45.5865C645.282 45.5358 645.382 45.492 645.484 45.4555L661.159 39.8573L680.379 33.639L698.359 27.1007C698.798 26.9411 699.276 26.9213 699.727 27.0443L714.599 31.1002C716.904 31.729 718.482 28.8165 716.696 27.2286L715.251 25.9445C714.387 25.1766 714.242 23.8807 714.913 22.9401L718.49 17.9327C719.03 17.1768 719.977 16.828 720.879 17.0533L732.301 19.9089C732.726 20.0152 733.173 19.9957 733.587 19.8529L749.183 14.475C749.291 14.4375 749.397 14.3918 749.499 14.3383L759.792 8.92076C759.988 8.81792 760.197 8.74425 760.414 8.70211L780.438 4.80855L793.578 0.4285C793.86 0.334511 794.158 0.297033 794.454 0.318209L817.368 1.95492C817.619 1.97287 817.866 2.03272 818.098 2.132L828.248 6.48241C829.08 6.83873 829.619 7.65624 829.619 8.56079V11.0269C829.619 12.2757 830.631 13.2881 831.88 13.2881H863.537H873.929C874.16 13.2881 874.39 13.3235 874.61 13.393L895.32 19.9328C895.61 20.0245 895.915 20.0566 896.218 20.0273L912.776 18.425C913.11 18.3926 913.433 18.2861 913.721 18.1132L915.488 17.0534C915.892 16.8105 916.363 16.7004 916.834 16.7386L936.832 18.3601C936.961 18.3705 937.089 18.3921 937.215 18.4244L954.273 22.8265C954.457 22.8741 954.647 22.8982 954.838 22.8982H966.987L979.785 24.4979C980.284 24.5603 980.748 24.7872 981.103 25.1427L983.849 27.8889C984.273 28.313 984.849 28.5512 985.448 28.5512H1006.3C1006.47 28.5512 1006.64 28.5318 1006.81 28.4933L1013.66 26.9132C1013.82 26.8748 1013.99 26.8553 1014.16 26.8553H1028.91C1029.08 26.8553 1029.26 26.8751 1029.42 26.9141L1053.48 32.5084L1071.3 36.9633C1071.48 37.0081 1071.66 37.0308 1071.85 37.0308H1076.84C1077.09 37.0308 1077.34 37.0725 1077.58 37.1543L1090.89 41.744C1091.81 42.061 1091.83 43.3546 1090.92 43.696C1090.14 43.9876 1090 45.0288 1090.68 45.5114L1092.65 46.9213C1092.9 47.1001 1093.05 47.3888 1093.05 47.6963C1093.05 48.3115 1092.48 48.7653 1091.88 48.6228L1070.3 43.4844C1069.67 43.3347 1069 43.4611 1068.47 43.8317L1066.92 44.9207C1065.48 45.9276 1065.69 48.1183 1067.29 48.8365L1079.64 54.3734C1079.89 54.484 1080.05 54.7291 1080.05 54.9995C1080.05 55.3785 1079.74 55.6857 1079.36 55.6857H1073.71C1073.07 55.6857 1072.45 55.9619 1072.02 56.4447L1064.54 64.8677C1063.99 65.481 1063.16 65.7508 1062.36 65.5728L1058.88 64.801C1058.67 64.7543 1058.46 64.7378 1058.24 64.7522L1045.09 65.6292C1043.45 65.7382 1042.47 67.4954 1043.24 68.9434L1046.06 74.2681C1046.45 75.0083 1047.22 75.4713 1048.06 75.4713H1050.07C1050.79 75.4713 1051.47 75.8175 1051.89 76.4025L1059.08 86.2875C1059.72 87.1583 1059.47 88.3849 1058.54 88.9389C1057.88 89.3377 1057.54 90.1112 1057.69 90.8713L1058.57 95.2569L1060.01 99.5852C1060.17 100.077 1060.16 100.609 1059.98 101.094L1059.68 101.885C1059.14 103.343 1057.32 103.825 1056.12 102.828L1041.86 90.9444C1041.69 90.8052 1041.55 90.6426 1041.43 90.4616L1034.3 79.7708C1033.92 79.1973 1033.82 78.4808 1034.03 77.8246L1038.55 63.7401C1038.69 63.3123 1038.56 62.8437 1038.22 62.5494L1034.21 59.0737C1033.71 58.6392 1033.01 59.2935 1033.4 59.8241C1033.57 60.0445 1033.55 60.3528 1033.35 60.5476L1030.7 63.206C1029.84 64.0595 1028.47 64.0922 1027.58 63.2802L1023.6 59.6656C1023.18 59.2872 1022.64 59.0776 1022.08 59.0776H1016.17C1014.92 59.0776 1013.91 60.0899 1013.91 61.3388V63.794C1013.91 64.3937 1014.15 64.9688 1014.57 65.3929L1015.21 66.032C1016.41 67.2369 1015.9 69.2911 1014.27 69.7922L1011.11 70.767C1010.72 70.8861 1010.31 70.899 1009.91 70.8045L996.713 67.6363C996.494 67.5838 996.269 67.5642 996.044 67.5783L979.629 68.6042C978.805 68.6557 978.075 69.1516 977.724 69.8982L970.366 85.5334C969.778 86.7838 970.439 88.265 971.762 88.6621L974.902 89.6039L981.321 92.5665C981.912 92.8393 982.592 92.8441 983.186 92.5797L986.466 91.1221C987.024 90.8743 987.658 90.8623 988.224 91.0889L997.757 94.902C998.324 95.1289 998.776 95.5756 999.008 96.1405L1002.6 104.867L1007.82 114.262C1008.1 114.763 1008.18 115.352 1008.04 115.909L1006.63 121.556C1006.58 121.735 1006.56 121.92 1006.56 122.104V134.334C1006.56 135.005 1006.26 135.642 1005.74 136.071L1000.86 140.146C1000.19 140.697 999.276 140.825 998.49 140.475L995.993 139.365C995.195 139.011 994.265 139.147 993.603 139.715L991.52 141.5C991.018 141.93 990.73 142.557 990.73 143.217V148.374C990.73 149.098 990.384 149.778 989.799 150.203L985.443 153.371C984.858 153.797 984.512 154.476 984.512 155.2V155.549C984.512 156.368 984.954 157.122 985.668 157.522L997.859 164.349C998.363 164.632 998.74 165.096 998.913 165.648L1000.78 171.639C1001.16 172.845 1000.48 174.126 999.265 174.483L993.867 176.07C992.735 176.403 991.536 175.809 991.116 174.706L987.68 165.685C987.461 165.112 987.02 164.653 986.457 164.411L980.794 161.985C979.963 161.628 979.424 160.811 979.424 159.906V158.468C979.424 157.513 978.823 156.66 977.923 156.339L972.857 154.53C972.034 154.236 971.116 154.442 970.498 155.06L968.938 156.62C967.929 157.629 966.249 157.463 965.457 156.276L965.106 155.749C964.858 155.377 964.726 154.941 964.726 154.494V152.362C964.726 151.353 964.057 150.465 963.086 150.188L962.216 149.939C961.34 149.689 960.398 149.989 959.829 150.701L956.926 154.33C956.496 154.867 955.847 155.179 955.16 155.179H953.066C952.244 155.179 951.492 155.644 951.124 156.379C950.542 157.544 951.109 158.957 952.336 159.395L957.202 161.133C957.682 161.304 958.089 161.632 958.359 162.064L959.799 164.368C960.365 165.273 961.486 165.659 962.489 165.294L966.613 163.795C966.861 163.705 967.122 163.658 967.386 163.658H972.876C973.425 163.658 973.926 163.968 974.171 164.459C974.559 165.235 974.181 166.177 973.363 166.469L968.082 168.355C967.395 168.601 966.868 169.162 966.668 169.864L965.299 174.654C964.976 175.787 965.576 176.979 966.68 177.393L968.566 178.1C969.01 178.267 969.39 178.569 969.653 178.963L974.777 186.65C974.86 186.773 974.955 186.889 975.06 186.994L978.762 190.696C979.186 191.12 979.424 191.695 979.424 192.295V195.881V211.473C979.424 211.991 979.246 212.494 978.919 212.897L963.059 232.459C962.679 232.927 962.127 233.224 961.527 233.284L940.208 235.416C939.973 235.44 939.743 235.5 939.526 235.595L931.87 238.944C931.203 239.236 930.718 239.831 930.565 240.542L929.353 246.197C929.202 246.905 929.398 247.642 929.881 248.181L943.397 263.257C943.668 263.558 943.852 263.926 943.931 264.323L946.852 278.927C947.057 279.953 946.532 280.985 945.582 281.423L940.322 283.851C940.013 283.994 939.741 284.204 939.524 284.467L934.757 290.256C933.629 291.625 931.417 291.07 931.069 289.331C930.91 288.533 930.305 287.899 929.516 287.702L926.893 287.046C926.496 286.947 926.133 286.741 925.843 286.451L915.703 276.312C915.598 276.207 915.482 276.112 915.359 276.029L913.154 274.56C911.845 273.687 910.068 274.384 909.701 275.913L907.313 285.86C907.156 286.515 907.299 287.206 907.703 287.745L910.268 291.165C910.394 291.332 910.495 291.516 910.57 291.71L913.036 298.121C913.197 298.541 913.481 298.904 913.849 299.162L918.697 302.555C918.856 302.666 919 302.798 919.126 302.947L924.62 309.439C924.965 309.848 925.155 310.365 925.155 310.9V316.366C925.155 316.688 925.224 317.007 925.358 317.301L927.253 321.472C927.682 322.414 927.415 323.526 926.607 324.173L926.54 324.227C925.727 324.877 924.574 324.888 923.749 324.253L918.341 320.094C917.992 319.825 917.729 319.46 917.584 319.044L913.419 307.069C913.329 306.812 913.194 306.573 913.02 306.364L905.328 297.133C904.99 296.727 904.804 296.215 904.804 295.686V284.375C904.804 284.171 904.777 283.968 904.722 283.772L898.369 260.804C897.937 259.239 896.045 258.627 894.777 259.641L891.802 262.021L890.956 262.529C889.869 263.181 888.459 262.812 887.83 261.711L887.012 260.281C886.817 259.94 886.714 259.553 886.714 259.159V255.331C886.714 254.901 886.592 254.479 886.361 254.117L878.8 242.235L874.411 236.748C874.322 236.638 874.224 236.536 874.116 236.444L871.163 233.913C870.632 233.457 869.919 233.274 869.234 233.415L855.972 236.159C854.817 236.398 854.04 237.484 854.186 238.654L854.333 239.829C854.432 240.62 854.107 241.405 853.477 241.894L849.702 244.83C849.505 244.984 849.335 245.169 849.198 245.378L840.191 259.153C839.933 259.548 839.558 259.852 839.118 260.023L831.799 262.869C830.607 263.333 830.037 264.692 830.54 265.867L832.711 270.931C832.905 271.385 832.946 271.891 832.826 272.37L830.75 280.676L829.674 288.746C829.637 289.017 829.553 289.279 829.423 289.519L826.302 295.315C825.908 296.048 825.143 296.504 824.311 296.504H822.574C821.698 296.504 820.901 295.999 820.528 295.206L816.617 286.894L807.572 267.674L800.358 247.695C800.269 247.449 800.223 247.189 800.223 246.927V234.887C800.223 233.95 799.464 233.191 798.527 233.191C797.591 233.191 796.831 233.95 796.831 234.887V235.564C796.831 236.515 796.237 237.364 795.343 237.689L792.077 238.877C791.196 239.197 790.208 238.94 789.594 238.231L773.322 219.416C772.824 218.84 772.068 218.553 771.313 218.654L755.974 220.699C755.703 220.735 755.428 220.722 755.162 220.66L739.784 217.072C739.048 216.9 738.446 216.372 738.18 215.664L737.31 213.342C737.058 212.67 736.503 212.158 735.814 211.961L733.798 211.385C733.254 211.23 732.672 211.284 732.166 211.537L728.352 213.444C727.692 213.774 726.913 213.761 726.264 213.41L714.312 206.935C713.933 206.73 713.621 206.422 713.412 206.045L708.725 197.609C708.326 196.891 707.57 196.446 706.748 196.446H703.801C702.685 196.446 701.735 197.26 701.566 198.363L700.869 202.889C700.78 203.47 700.921 204.063 701.261 204.542L715.223 224.192C715.698 224.861 716.499 225.22 717.316 225.129L724.906 224.286C725.69 224.199 726.372 223.71 726.706 222.995L729.593 216.808C729.918 216.111 730.617 215.666 731.386 215.666C732.304 215.666 733.101 216.298 733.311 217.191L734.891 223.907C735.089 224.746 735.745 225.399 736.584 225.593L741.873 226.813C742.322 226.917 742.728 227.155 743.038 227.496L746.765 231.595C747.577 232.488 747.544 233.862 746.691 234.715L742.325 239.081C742.109 239.297 741.938 239.556 741.825 239.84L741.126 241.587C740.957 242.009 740.919 242.473 741.018 242.917L741.655 245.783C741.861 246.709 741.467 247.664 740.67 248.176L734.352 252.238C734.173 252.353 734.012 252.492 733.873 252.651L730.53 256.471C730.265 256.774 729.925 257 729.543 257.127L723.192 259.244C722.269 259.552 721.646 260.416 721.646 261.39V262.15C721.646 263.092 721.062 263.936 720.179 264.267L708.079 268.805L697.084 273.203C696.878 273.285 696.685 273.398 696.511 273.536L694.566 275.093C694.165 275.414 693.667 275.588 693.153 275.588H689.286C688.348 275.588 687.507 275.009 687.173 274.132L683.354 264.106C683.256 263.849 683.206 263.576 683.206 263.301V257.87C683.206 257.27 682.967 256.695 682.543 256.271L678.88 252.608C678.749 252.477 678.635 252.331 678.54 252.172L673.774 244.228C673.656 244.031 673.508 243.854 673.337 243.701L669.083 239.92C668.71 239.589 668.457 239.143 668.364 238.653L666.335 228.003C666.277 227.696 666.155 227.405 665.979 227.147L653.6 209.095C653.05 208.293 652.049 207.932 651.114 208.199L650.126 208.481C649.272 208.726 648.353 208.446 647.779 207.768L643.039 202.166C642.694 201.758 642.504 201.24 642.504 200.705V196.564C642.504 195.504 643.24 194.586 644.275 194.357L646.395 193.885C647.142 193.719 647.754 193.188 648.022 192.472L652.496 180.541C652.617 180.219 652.662 179.875 652.63 179.533L651.68 169.554C651.599 168.711 651.055 167.983 650.268 167.669L649.631 167.414C649.051 167.182 648.401 167.2 647.835 167.464L641.114 170.601C640.557 170.861 639.919 170.883 639.346 170.662L633.947 168.586C633.284 168.331 632.539 168.402 631.937 168.779L629.534 170.281C628.82 170.727 627.916 170.739 627.189 170.312L619.393 165.726C618.982 165.484 618.658 165.119 618.468 164.683L614.994 156.743C614.869 156.457 614.804 156.148 614.804 155.837V152.51C614.804 151.432 614.043 150.504 612.986 150.293L606.946 149.085C606.539 149.004 606.119 149.035 605.729 149.177L602.744 150.263C601.388 150.756 600.835 152.375 601.605 153.595L606.335 161.084C606.687 161.642 606.778 162.325 606.584 162.956L605.243 167.316C604.896 168.443 603.742 169.114 602.591 168.859L600.184 168.324C599.764 168.23 599.379 168.019 599.075 167.715L597.199 165.838C596.883 165.523 596.668 165.121 596.58 164.683L595.682 160.192C595.617 159.869 595.483 159.564 595.288 159.298L589.684 151.656C589.475 151.371 589.335 151.04 589.277 150.691L588.386 145.343C588.289 144.763 587.97 144.243 587.497 143.894L567.581 129.22C567.055 128.832 566.387 128.691 565.75 128.833L563.436 129.347C562.402 129.577 561.666 130.494 561.666 131.554V131.922C561.666 132.678 562.044 133.384 562.673 133.803L566.377 136.273C566.626 136.439 566.839 136.652 567.004 136.9L571.735 143.997C572.155 144.626 572.861 145.003 573.617 145.003H575.635C575.743 145.003 575.85 145.021 575.953 145.055L576.651 145.288C577.038 145.417 577.154 145.909 576.866 146.197C576.612 146.451 576.666 146.877 576.976 147.059L585.7 152.191C585.879 152.297 586.023 152.451 586.116 152.636C586.358 153.12 586.201 153.708 585.751 154.008L585.66 154.069C585.185 154.386 584.553 154.323 584.149 153.92L583.407 153.177C583.235 153.005 583.036 152.862 582.819 152.754L580.509 151.599C580.093 151.391 579.587 151.559 579.379 151.976C579.26 152.213 579.26 152.492 579.379 152.729L581.402 156.776C581.78 157.531 581.705 158.434 581.208 159.117L577.946 163.602C577.677 163.972 577.199 164.125 576.765 163.981C576.226 163.801 575.928 163.226 576.091 162.683L577.237 158.864C577.402 158.313 577.351 157.719 577.093 157.203L574.954 152.925C574.767 152.551 574.479 152.236 574.124 152.015L559.091 142.684C558.569 142.36 558.201 141.837 558.072 141.237L556.961 136.05C556.738 135.008 555.816 134.263 554.75 134.263H551.005C550.249 134.263 549.542 134.641 549.123 135.27L547.906 137.095C547.663 137.46 547.319 137.747 546.915 137.919L544.208 139.08C543.796 139.256 543.341 139.306 542.9 139.224L535.207 137.781C534.766 137.699 534.311 137.749 533.899 137.925L531.945 138.763C531.113 139.119 530.574 139.937 530.574 140.841V143.404C530.574 144.362 529.97 145.217 529.065 145.536L521.55 148.188C521.167 148.324 520.826 148.56 520.566 148.873L516.456 153.805C515.785 154.61 515.755 155.771 516.384 156.609L517.37 157.924C518.11 158.911 517.922 160.308 516.949 161.065L508.915 167.314C508.659 167.513 508.365 167.654 508.05 167.729L497.757 170.18C497.064 170.345 496.334 170.173 495.786 169.717L493.893 168.14C493.487 167.801 492.974 167.616 492.446 167.616H488.396C487.291 167.616 486.347 166.816 486.166 165.726L485.529 161.906C485.418 161.239 484.967 160.679 484.339 160.427C483.339 160.028 482.858 158.889 483.268 157.893L486.254 150.642C486.402 150.281 486.455 149.888 486.407 149.5L485.513 142.348C485.412 141.543 485.751 140.746 486.4 140.259L489.269 138.107C489.661 137.813 490.137 137.655 490.626 137.655H510.741C511.769 137.655 512.667 136.962 512.928 135.969L515.062 127.859C515.221 127.256 515.124 126.614 514.793 126.085L512.773 122.852C512.583 122.549 512.325 122.296 512.018 122.112L507.087 119.153C506.917 119.051 506.735 118.972 506.545 118.918L504.218 118.253C503.423 118.026 502.874 117.299 502.874 116.471C502.874 115.629 503.442 114.893 504.256 114.679L513.332 112.29C513.52 112.241 513.713 112.216 513.908 112.216H517.205C517.448 112.216 517.69 112.177 517.92 112.1L524.506 109.905C525.429 109.597 526.052 108.733 526.052 107.76V107.505C526.052 106.592 526.601 105.769 527.443 105.418L532.28 103.403C532.644 103.251 532.962 103.007 533.202 102.694L538.016 96.436C538.322 96.0381 538.752 95.7534 539.238 95.6267L549.152 93.0405C550.417 92.7103 551.14 91.3783 550.726 90.1374L548.119 82.3177C547.779 81.2951 548.207 80.1741 549.143 79.6393L553.56 77.1151C554.614 76.5127 555.956 76.8503 556.599 77.8799L557.207 78.8522C557.815 79.8253 557.598 81.0996 556.702 81.8164L555.795 82.542C555.566 82.7257 555.374 82.9525 555.231 83.2096L553.683 85.9961C553.091 87.0621 553.451 88.4058 554.496 89.0332L557.524 90.85C558.007 91.1394 558.58 91.2386 559.131 91.1283L562.894 90.3758C563.549 90.2448 564.228 90.4101 564.75 90.8274L565.831 91.6925C566.409 92.1548 567.176 92.305 567.886 92.0948L580.246 88.4327C581.27 88.1291 582.365 88.6043 582.843 89.5599C583.34 90.5539 584.499 91.0222 585.547 90.6524L591.276 88.6304C592.419 88.2268 593.041 86.9925 592.684 85.8332L591.462 81.8603C591.216 81.0597 591.432 80.1886 592.024 79.5964L593.232 78.3885C593.953 77.6674 595.067 77.5182 595.953 78.0241L597.197 78.7351C597.941 79.16 598.861 79.1283 599.573 78.6532L599.679 78.5827C600.808 77.8302 601.024 76.2598 600.141 75.2297L598.546 73.3688C598.456 73.2634 598.379 73.1473 598.317 73.0232C597.803 71.9962 598.436 70.7663 599.571 70.5872L617.679 67.7279C618.302 67.6295 618.761 67.0925 618.761 66.4616C618.761 66.0812 618.592 65.7204 618.3 65.4768L616.252 63.7697C615.697 63.3078 614.956 63.1381 614.256 63.3132L598.304 67.301C597.655 67.4633 596.967 67.3297 596.426 66.936L591.761 63.5436C591.311 63.2159 590.997 62.7334 590.88 62.1886L589.684 56.6064C589.491 55.7078 589.862 54.782 590.621 54.2643L600.815 47.3141C601.433 46.8929 601.802 46.1936 601.802 45.4459V44.945C601.802 43.6962 600.79 42.6838 599.541 42.6838H597.134C596.857 42.6838 596.582 42.7349 596.323 42.8345L591.006 44.8794C590.15 45.2087 589.798 46.2308 590.27 47.0174C590.702 47.7372 590.448 48.6717 589.711 49.0736L579.382 54.7077C578.894 54.9735 578.522 55.4094 578.335 55.9322L576.559 60.9052C576.139 62.0813 576.752 63.3752 577.928 63.7952L582.578 65.456C583.258 65.699 583.713 66.3434 583.713 67.0659C583.713 67.7134 583.347 68.3053 582.768 68.5949L577.048 71.4545C576.282 71.8376 575.798 72.6205 575.798 73.477V80.559C575.798 81.8079 574.786 82.8202 573.537 82.8202H570.993C570.213 82.8202 569.58 83.453 569.58 84.2335C569.58 85.014 568.947 85.6468 568.167 85.6468H567.02C566.164 85.6468 565.381 85.1628 564.998 84.3968L558.658 71.7178C558.411 71.2225 557.99 70.8353 557.476 70.6296L556.659 70.3027C555.909 70.0029 555.056 70.1255 554.422 70.6242L548.469 75.3014C547.883 75.7616 547.108 75.9039 546.397 75.6817L540.075 73.706C539.131 73.411 538.488 72.5367 538.488 71.5477Z"
        fill="#E3E3ED" />
    <path
        d="M10.149 69.7305L4.52287 68.3239C4.00152 68.1936 3.54363 67.8818 3.23127 67.4445L2.24605 66.0652C1.50358 65.0258 1.76892 63.5781 2.83178 62.8695L7.34641 59.8597C7.56206 59.716 7.80083 59.6104 8.05228 59.5475L20.9551 56.3218C21.144 56.2746 21.3259 56.2032 21.4964 56.1094L24.8319 54.2749C26.8809 53.1479 26.0806 50.0323 23.7422 50.0323H23.5008C22.2519 50.0323 21.2396 49.02 21.2396 47.7711V46.8172C21.2396 46.0084 21.6716 45.2612 22.3725 44.8576L39.6728 34.8969C39.8201 34.812 39.9766 34.7441 40.1392 34.6943L67.3492 26.3647C67.5121 26.3148 67.6801 26.2835 67.85 26.2714L91.1697 24.6057C91.2811 24.5977 91.3929 24.598 91.5043 24.6066L113.208 26.2761C113.325 26.2851 113.441 26.3033 113.556 26.3303L134.407 31.2688C134.709 31.3404 135.023 31.349 135.329 31.294L162.932 26.3254C163.064 26.3016 163.198 26.2897 163.332 26.2897H173.439C173.725 26.2897 174.007 26.3436 174.272 26.4487L202.564 37.6584C203.344 37.9675 204.231 37.8191 204.868 37.273L207.048 35.4047C207.521 34.9991 208.141 34.8068 208.76 34.8732L238.887 38.1011C239.254 38.1404 239.625 38.0893 239.968 37.9523L247.926 34.7692L257.967 29.4844C258.42 29.246 258.94 29.1683 259.443 29.2641L268.7 31.0273C269.766 31.2304 270.538 32.1629 270.538 33.2485V40.9334C270.538 41.6754 270.174 42.3701 269.564 42.7925L263.429 47.0397C263.27 47.15 263.097 47.2394 262.915 47.3056L250.965 51.6508C250.824 51.7023 250.677 51.7395 250.528 51.7619L239.872 53.3604C239.59 53.4025 239.32 53.4973 239.074 53.6396L229.021 59.46C228.812 59.5809 228.624 59.7344 228.464 59.9147L220.589 68.7734C220.02 69.4136 219.862 70.3203 220.18 71.1155L220.532 71.9959C220.701 72.4184 220.738 72.8821 220.64 73.3263L220.272 74.9804C219.958 76.3926 221.033 77.7322 222.479 77.7322H226.638C227.238 77.7322 227.813 77.9704 228.237 78.3944L235.392 85.5494C235.816 85.9735 236.391 86.2117 236.991 86.2117H244C244.351 86.2117 244.697 86.2934 245.011 86.4504L245.788 86.8386C246.949 87.4192 247.384 88.8559 246.74 89.983L243.558 95.551C243.455 95.7307 243.378 95.9237 243.328 96.1244L242.679 98.7188C242.438 99.6844 242.856 100.694 243.709 101.206L246.816 103.07C247.503 103.483 248.358 103.5 249.062 103.116L253.157 100.882C253.779 100.543 254.206 99.9329 254.311 99.2328L255.691 90.0287C255.786 89.3979 256.143 88.8364 256.673 88.4826L270.813 79.0563C271.84 78.3713 271.984 76.9174 271.111 76.0442C270.744 75.6771 270.538 75.1794 270.538 74.6603V72.8562C270.538 72.0287 270.99 71.2673 271.716 70.8711L275.854 68.6139C276.427 68.3013 276.837 67.7565 276.979 67.1193L277.887 63.0343L278.849 60.1489C278.96 59.8159 279.147 59.5133 279.395 59.265L281.553 57.1064C282.088 56.5718 282.854 56.3397 283.596 56.488L287.843 57.3374C287.989 57.3666 288.137 57.3813 288.286 57.3813H292.616C292.967 57.3813 293.313 57.463 293.627 57.62L302.807 62.21C303.767 62.6899 304.258 63.7783 303.981 64.8152L302.51 70.331C302.315 71.0631 302.525 71.8437 303.06 72.3795C303.847 73.1662 305.108 73.2122 305.95 72.485L314.272 65.2977C315.507 64.231 317.431 64.7841 317.911 66.3441L320.904 76.0709C321.205 77.0504 320.81 78.1102 319.941 78.6534L319.744 78.7766C318.382 79.6277 318.317 81.5871 319.618 82.5273L326.188 87.2723C326.741 87.6713 327.068 88.3112 327.068 88.9926C327.068 89.7243 327.445 90.4044 328.065 90.7922L330.528 92.3311C331.189 92.7443 331.59 93.4689 331.59 94.2486V98.5787C331.59 99.6163 330.884 100.521 329.878 100.772L323.153 102.454C322.756 102.553 322.393 102.759 322.103 103.048L320.016 105.135C319.82 105.331 319.589 105.49 319.335 105.602L310.242 109.644C309.789 109.845 309.282 109.892 308.8 109.777L298.224 107.259C297.862 107.173 297.484 107.177 297.124 107.272L288.26 109.605C287.477 109.811 286.932 110.519 286.932 111.328C286.932 112.4 287.871 113.229 288.934 113.096L294.722 112.372C295.485 112.277 296.231 112.641 296.627 113.299C297.196 114.248 296.857 115.481 295.883 116.006L291.818 118.194C290.932 118.671 290.468 119.676 290.679 120.659L291.636 125.126C291.86 126.169 292.781 126.913 293.847 126.913H296.854C297.383 126.913 297.895 126.728 298.301 126.389L303.879 121.741C304.252 121.431 304.722 121.26 305.207 121.26C306.353 121.26 307.282 122.19 307.282 123.336V125.284C307.282 126.257 306.66 127.121 305.736 127.429L291.27 132.251C290.667 132.452 290.176 132.897 289.918 133.478L288.484 136.705C288.216 137.308 287.699 137.763 287.067 137.953L285.32 138.477C283.869 138.912 282.409 137.826 282.409 136.311V136.005C282.409 135.267 282.769 134.576 283.374 134.153L287.653 131.157C287.909 130.978 288.062 130.684 288.062 130.371C288.062 129.757 287.494 129.301 286.894 129.434L273.442 132.424C273.022 132.517 272.638 132.728 272.333 133.032L263.851 141.514C263.427 141.938 263.189 142.514 263.189 143.113V144.384C263.189 145.414 262.492 146.314 261.495 146.573L248.547 149.93C248.141 150.035 247.772 150.251 247.482 150.554L235.552 163.002C235.149 163.423 234.924 163.984 234.924 164.567V169.907C234.924 170.601 234.605 171.257 234.058 171.686L207.084 192.842C206.468 193.325 206.146 194.093 206.232 194.871L207.758 208.597C207.779 208.786 207.776 208.978 207.749 209.166L206.295 219.343C206.179 220.152 205.486 220.754 204.669 220.754C204.143 220.754 203.649 220.502 203.34 220.077L199.742 215.13C199.461 214.743 199.31 214.278 199.31 213.8V205.943C199.31 205.644 199.251 205.349 199.136 205.073L197.063 200.098C196.712 199.256 195.889 198.707 194.976 198.707H192.08C191.634 198.707 191.197 198.575 190.826 198.327L188.656 196.881C188.234 196.599 187.728 196.468 187.222 196.508L175.854 197.418C174.734 197.507 173.871 198.442 173.871 199.566C173.871 200.68 173.021 201.611 171.911 201.711L168.835 201.991C168.095 202.058 167.369 201.758 166.893 201.187L165.594 199.629C165.114 199.052 164.379 198.752 163.632 198.826L154.264 199.763C153.781 199.811 153.326 200.014 152.968 200.34L141.824 210.471C141.352 210.899 141.084 211.507 141.084 212.144V214.806C141.084 215.36 140.88 215.895 140.512 216.308L137.013 220.245C136.718 220.577 136.528 220.988 136.465 221.427L134.917 232.265C134.883 232.504 134.887 232.746 134.929 232.983L137.449 247.095C137.598 247.929 138.201 248.61 139.01 248.859L144.716 250.615C144.931 250.681 145.155 250.715 145.381 250.715H154.38C154.919 250.715 155.441 250.522 155.851 250.17L158.761 247.676C159.032 247.444 159.244 247.151 159.38 246.82L162.679 238.809C162.962 238.123 163.564 237.618 164.289 237.461L174.762 235.184C175.602 235.002 176.472 235.31 177.008 235.981L177.212 236.235C177.896 237.09 177.869 238.313 177.148 239.137L174.648 241.993C174.508 242.154 174.391 242.333 174.301 242.526L170.479 250.715L168.928 254.852C168.832 255.107 168.692 255.342 168.512 255.547L165.977 258.444C165.306 259.211 165.264 260.343 165.875 261.158C166.283 261.701 166.922 262.021 167.601 262.021H180.77C181.416 262.021 182.031 262.297 182.46 262.78L185.611 266.325C186.053 266.822 186.254 267.488 186.159 268.147L184.176 282.033C184.093 282.613 184.238 283.202 184.581 283.677L190.474 291.836C191.028 292.603 192.001 292.944 192.912 292.691L199.689 290.809C200.635 290.546 201.571 291.257 201.571 292.239C201.571 292.778 201.279 293.275 200.807 293.536L198.062 295.062C197.155 295.566 196.753 296.658 197.117 297.63L197.175 297.784C197.661 299.08 196.703 300.461 195.32 300.461C194.637 300.461 194.002 300.109 193.64 299.53L192.06 297.002C191.647 296.34 190.922 295.939 190.142 295.939H185.152C184.455 295.939 183.796 295.617 183.368 295.066L176.132 285.763L169.237 274.625C168.945 274.153 168.489 273.805 167.957 273.647L154.284 269.596C153.79 269.449 153.36 269.139 153.067 268.715L148.762 262.497C148.546 262.184 148.254 261.932 147.914 261.762L144.604 260.106C144.154 259.882 143.642 259.813 143.149 259.912L133.309 261.88C132.85 261.971 132.375 261.919 131.947 261.729L117.341 255.237L110.369 250.946C110.12 250.793 109.903 250.593 109.73 250.358L104.312 242.969C103.967 242.498 103.817 241.912 103.894 241.333L104.798 234.556C104.867 234.038 104.754 233.513 104.48 233.069L93.1537 214.731C93.0734 214.601 93.0065 214.463 92.954 214.319L84.9785 192.52C84.7136 191.796 84.0981 191.257 83.3455 191.089L81.8238 190.751C80.5474 190.468 79.2972 191.323 79.0984 192.615L78.43 196.959C78.3679 197.363 78.4162 197.776 78.5696 198.154C81.0837 204.357 85.684 215.92 85.684 216.796C85.684 217.646 89.0103 224.217 90.9754 227.978C91.2037 228.415 91.2242 228.931 91.0301 229.384C90.4816 230.664 88.6869 230.717 88.0643 229.471L82.8575 219.058L70.5614 185.523C70.4684 185.269 70.3309 185.035 70.1552 184.83L64.0997 177.765C63.7986 177.414 63.6125 176.979 63.5665 176.518L61.4658 155.511C61.4081 154.935 61.5739 154.358 61.9289 153.9L82.4775 127.403C82.7262 127.083 82.8841 126.701 82.9344 126.298L85.6544 104.538C85.6741 104.381 85.6771 104.222 85.6635 104.064L82.99 73.051C82.9101 72.1238 82.2703 71.3403 81.3779 71.0767L58.4833 64.3124C58.1549 64.2153 57.8087 64.1942 57.4708 64.2505L34.2415 68.122L10.8585 69.7922C10.6202 69.8093 10.3807 69.7884 10.149 69.7305Z"
        fill="#E3E3ED" />
    <path
        d="M206.461 292.221L205.577 291.842C204.483 291.373 203.265 292.176 203.265 293.367C203.265 293.572 203.304 293.776 203.378 293.968L207.144 303.651C207.196 303.786 207.235 303.925 207.261 304.067L209.259 315.056C209.399 315.824 209.133 316.609 208.556 317.134L203.265 321.943L197.78 328.525C197.669 328.659 197.573 328.805 197.495 328.961L194.459 335.033C194.302 335.347 194.22 335.693 194.22 336.044V340.975C194.22 341.464 194.379 341.94 194.673 342.332L196.561 344.85C197.18 345.675 197.162 346.814 196.518 347.619L193.585 351.285C193.265 351.686 193.09 352.184 193.09 352.697V358.986C193.09 359.843 193.574 360.626 194.34 361.009L196.92 362.299C197.369 362.523 197.73 362.89 197.947 363.343L204.396 376.777L213.487 392.286C213.817 392.848 213.888 393.526 213.682 394.145L213.317 395.237C213.047 396.05 213.258 396.945 213.864 397.551L218.314 402.002C218.456 402.144 218.617 402.266 218.791 402.366L234.027 411.072C234.245 411.197 234.441 411.357 234.607 411.547L238.089 415.525C238.238 415.696 238.361 415.889 238.453 416.096L242.595 425.417C242.753 425.772 242.817 426.162 242.78 426.549L241.729 437.59C241.713 437.75 241.715 437.91 241.734 438.069L242.836 447.44V463.61C242.836 463.759 242.851 463.907 242.88 464.053L243.967 469.487L246.17 482.156C246.209 482.377 246.214 482.602 246.186 482.824L244.031 500.07C243.989 500.405 244.022 500.745 244.129 501.065L247.924 512.45L250.134 519.079C250.168 519.182 250.195 519.287 250.214 519.394L254.095 541.018C254.127 541.192 254.178 541.362 254.249 541.525L261.982 559.2C262.032 559.313 262.091 559.422 262.158 559.526L269.071 570.161C269.29 570.498 269.595 570.771 269.955 570.951L288.066 580.006C288.432 580.189 288.842 580.27 289.25 580.238L303.031 579.178C303.22 579.163 303.397 579.082 303.531 578.948C303.952 578.528 303.776 577.811 303.209 577.632L294.187 574.783C293.875 574.684 293.588 574.519 293.347 574.299L287.654 569.125C287.549 569.028 287.452 568.923 287.366 568.808L283.098 563.118C282.664 562.539 282.533 561.787 282.746 561.096L284.564 555.188C284.633 554.962 284.738 554.749 284.873 554.556L288.217 549.778C288.483 549.398 288.626 548.946 288.626 548.482V547.177C288.626 546.061 287.812 545.112 286.709 544.942L282.762 544.335C281.862 544.197 281.133 543.532 280.912 542.649L280.457 540.826C280.264 540.056 280.49 539.241 281.052 538.679L284.007 535.724C284.431 535.3 284.669 534.725 284.669 534.125V526.312C284.669 525.758 284.466 525.223 284.098 524.809L280.582 520.855C280.302 520.539 280.146 520.131 280.146 519.708C280.146 518.598 281.179 517.776 282.261 518.026L286.544 519.014C287.151 519.154 287.789 519.038 288.307 518.692L289.514 517.888C290.332 517.342 290.704 516.331 290.434 515.385L289.305 511.433C288.94 510.157 289.748 508.842 291.052 508.592L302.056 506.475C302.841 506.324 303.489 505.769 303.758 505.015L305.669 499.665C305.963 498.842 305.756 497.923 305.138 497.305L297.398 489.565C296.886 489.053 296.759 488.27 297.083 487.622C297.428 486.931 298.2 486.564 298.954 486.731L311.227 489.458C312.232 489.682 313.261 489.198 313.73 488.281L325.239 465.787C325.326 465.616 325.435 465.457 325.562 465.314L328.965 461.487C329.534 460.846 329.692 459.94 329.374 459.145L327.881 455.413C327.718 455.006 327.678 454.56 327.764 454.13L328.628 449.807C328.716 449.37 328.931 448.968 329.246 448.652L336.48 441.419C336.61 441.288 336.757 441.174 336.915 441.079L341.906 438.084C342.185 437.917 342.497 437.811 342.82 437.775L351.282 436.835C352.045 436.751 352.712 436.285 353.055 435.599L358.008 425.693C358.108 425.494 358.177 425.282 358.215 425.063L361.517 405.797C361.539 405.671 361.55 405.543 361.55 405.415V394.451C361.55 393.657 361.967 392.921 362.648 392.512L363.773 391.837C364.166 391.602 364.478 391.252 364.668 390.834L367.101 385.481C367.169 385.332 367.252 385.192 367.35 385.061C368.527 383.494 370.727 380.603 371.16 380.169C371.579 379.75 374.624 374.761 376.417 371.784C376.674 371.356 376.781 370.855 376.723 370.358L375.735 361.958C375.7 361.665 375.609 361.382 375.466 361.124L373.502 357.59C373.103 356.872 372.347 356.426 371.525 356.426H368.934C368.54 356.426 368.154 356.324 367.812 356.129L364.639 354.316C364.465 354.216 364.304 354.093 364.162 353.951L356.665 346.454C356.18 345.968 355.499 345.73 354.817 345.806L351.121 346.216C350.914 346.239 350.705 346.234 350.5 346.199L341.487 344.697C340.938 344.606 340.441 344.315 340.093 343.88L338.704 342.143C338.486 341.871 338.208 341.652 337.891 341.505L322.997 334.59C322.699 334.451 322.374 334.38 322.045 334.38H318.555C318.204 334.38 317.858 334.298 317.544 334.141L316.768 333.753C315.607 333.172 315.172 331.736 315.816 330.608L316.198 329.94C316.623 329.196 316.591 328.277 316.116 327.564L314.74 325.5C314.667 325.39 314.603 325.274 314.55 325.153L310.805 316.592C310.717 316.392 310.601 316.205 310.46 316.038L304.913 309.483C304.614 309.13 304.215 308.877 303.769 308.758L296.261 306.756C296.071 306.706 295.875 306.68 295.679 306.68H290.176C289.899 306.68 289.624 306.629 289.365 306.529L283.134 304.133C282.663 303.952 282.267 303.618 282.007 303.186L277.979 296.472C277.57 295.791 276.834 295.374 276.04 295.374H275.059C274.02 295.374 273.344 294.281 273.809 293.351L274.205 292.559C274.679 291.611 274.307 290.458 273.368 289.966L264.258 285.194C263.589 284.844 262.789 284.85 262.126 285.212L257.95 287.49C257.331 287.827 256.592 287.857 255.948 287.571L252.502 286.039C252.097 285.86 251.648 285.803 251.212 285.875L247.547 286.486C246.265 286.7 245.098 285.711 245.098 284.411C245.098 283.526 244.544 282.736 243.713 282.434L239.926 281.057C239.266 280.817 238.532 280.897 237.939 281.274L234.067 283.738C233.231 284.27 232.839 285.285 233.1 286.241L234.02 289.615C234.228 290.379 234.011 291.197 233.45 291.758L233.325 291.883C232.62 292.589 231.503 292.668 230.704 292.069C230.162 291.662 229.862 291.008 229.907 290.332L230.343 283.785C230.38 283.238 230.613 282.724 231.001 282.336L233.425 279.912C233.94 279.397 233.94 278.563 233.425 278.048C232.981 277.604 232.285 277.535 231.762 277.884L224.751 282.557C224.38 282.805 223.943 282.937 223.497 282.937H219.593C218.62 282.937 217.756 283.56 217.448 284.483L215.851 289.274C215.753 289.569 215.595 289.84 215.387 290.071L210.669 295.313C210.633 295.353 210.599 295.397 210.569 295.442C210.085 296.167 208.999 296.1 208.609 295.32L207.593 293.288C207.354 292.81 206.953 292.432 206.461 292.221Z"
        fill="#E3E3ED" />
    <path
        d="M903.649 311.599L896.55 309.571C896.399 309.528 896.244 309.506 896.087 309.506C894.558 309.506 893.821 311.382 894.942 312.423L899.715 316.855L907.84 324.98C908.073 325.213 908.253 325.495 908.366 325.806L914.825 343.568C914.926 343.846 915.081 344.102 915.28 344.32L926.434 356.536C926.706 356.834 927.053 357.054 927.439 357.173L931.826 358.522C933.099 358.914 934.433 358.126 934.705 356.822L936.805 346.742C936.944 346.074 936.774 345.378 936.341 344.849L926.99 333.421C926.897 333.306 926.792 333.201 926.678 333.107L917.239 325.334L904.661 312.209C904.383 311.919 904.034 311.709 903.649 311.599Z"
        fill="#E3E3ED" />
    <path
        d="M935.784 361.626L935.659 361.958C935.184 363.226 935.922 364.625 937.237 364.948L966.782 372.205C966.919 372.238 967.059 372.259 967.199 372.266L1017.1 374.978C1018.13 375.034 1019 374.214 1019 373.181C1019 372.6 1018.71 372.054 1018.24 371.717L1015.63 369.85C1015.24 369.576 1014.79 369.428 1014.31 369.428H972.08C971.706 369.428 971.338 369.336 971.008 369.158L964.455 365.629C964.26 365.525 964.051 365.449 963.835 365.405L938.353 360.204C937.264 359.982 936.174 360.585 935.784 361.626Z"
        fill="#E3E3ED" />
    <path
        d="M947.632 328.149L949.322 326.218C950.053 325.383 951.281 325.202 952.222 325.79L954.562 327.252C954.922 327.477 955.337 327.596 955.761 327.596H956.243C957.492 327.596 958.504 326.583 958.504 325.335V323.999C958.504 323.095 959.043 322.277 959.875 321.921L962.143 320.949C962.354 320.858 962.55 320.736 962.724 320.587L974.096 310.84C974.253 310.705 974.391 310.549 974.506 310.377L978.618 304.209C979.353 303.106 980.876 302.87 981.912 303.698L986.823 307.627C987.749 308.368 987.945 309.697 987.274 310.674L983.101 316.743C982.584 317.495 982.57 318.485 983.066 319.252L987.548 326.178C988.092 327.019 988.018 328.118 987.366 328.878L978.834 338.832C978.483 339.242 978.29 339.764 978.29 340.304V346.816C978.29 348.065 977.277 349.077 976.029 349.077H971.102C970.995 349.077 970.888 349.07 970.782 349.055L956.319 346.989C955.566 346.881 954.917 346.401 954.593 345.713L950.59 337.206L947.312 330.65C946.901 329.828 947.028 328.84 947.632 328.149Z"
        fill="#E3E3ED" />
    <path
        d="M1044.89 351.505L1041.76 347.034C1041.66 346.889 1041.54 346.757 1041.41 346.64L1037.28 342.969C1036.8 342.54 1036.52 341.925 1036.52 341.279V337.706C1036.52 336.732 1037.14 335.868 1038.07 335.56L1041.02 334.575C1041.41 334.447 1041.82 334.425 1042.21 334.509L1046.98 335.532C1048.32 335.819 1049.1 337.226 1048.63 338.516L1047.59 341.38C1047.38 341.964 1047.42 342.609 1047.7 343.164L1049.14 346.048C1049.38 346.543 1049.81 346.93 1050.32 347.136L1052.07 347.837C1053.56 348.431 1055.17 347.338 1055.17 345.738V345.642C1055.17 344.955 1055.49 344.306 1056.02 343.876L1059.8 340.856C1060.43 340.347 1061.29 340.22 1062.05 340.522L1072.13 344.555L1088.38 350.512C1088.84 350.682 1089.24 350.998 1089.5 351.412L1093.51 357.649C1093.93 358.297 1094.65 358.688 1095.41 358.688H1097.99C1098.78 358.688 1099.52 359.105 1099.93 359.786L1100.13 360.117C1100.63 360.951 1100.54 362.013 1099.9 362.752L1099.06 363.737C1098.24 364.692 1098.36 366.132 1099.32 366.94L1111.22 376.936C1111.53 377.194 1111.7 377.575 1111.7 377.976C1111.7 378.824 1110.94 379.464 1110.1 379.313L1100.01 377.478C1099.53 377.39 1099.09 377.148 1098.76 376.787L1092.94 370.49C1092.64 370.166 1092.26 369.937 1091.83 369.83L1087.59 368.77C1086.5 368.499 1085.38 369.061 1084.95 370.094L1083.71 373.068C1083.25 374.192 1081.97 374.743 1080.83 374.316L1070.24 370.344C1069.65 370.121 1069.17 369.657 1068.94 369.067L1067.24 364.822C1067.11 364.505 1066.92 364.222 1066.66 363.992L1054.69 353.061C1054.27 352.68 1053.73 352.47 1053.17 352.47H1046.74C1046 352.47 1045.31 352.11 1044.89 351.505Z"
        fill="#E3E3ED" />
</svg>