<svg viewBox="0 0 1181 581" fill="none" xmlns="http://www.w3.org/2000/svg">
  <path d="m954 491-2-3a2 2 0 0 1 0-3l4-6v-2l-1-18v-15l3-7v-1l10-9a2 2 0 0 1 1-1l11-2 14-8a2 2 0 0 0 1-2v-2l1-1 18-15h2l3 2h5l2-1 5-8a2 2 0 0 1 2-1l12-1h9c1 1 2 2 1 4l-5 8v3l13 10 1 1h3l2-1 4-11v-1l4-17a1 1 0 0 1 3 0l2 14a1 1 0 0 0 1 1 1 1 0 0 1 2 0l2 2 1 2v15l1 2 6 4 1 2 3 10 8 12v1l-1 7v6l-10 17-12 11a120 120 0 0 0-10 14l-14 5h-2l-3-2a2 2 0 0 0-2 0l-4 2a2 2 0 0 1-2 0l-8-5a2 2 0 0 1-1-3v-1l1-1v-2c0-2-1-2-2-3l-9-2a2 2 0 0 1-1-2l-3-10a2 2 0 0 0-2-1l-6-3h-2l-27 7-1 1-3 3a2 2 0 0 1-1 0h-13l-1 1-7 4a2 2 0 0 1-1 1h-4a2 2 0 0 1-2-1Zm90 32 2-5a2 2 0 0 1 3-1l1 1h2l4-1a2 2 0 0 1 2 3l-10 9-2 1-1-1a2 2 0 0 1-1-2v-4Zm70 21-1-1c-2-1-2-3 0-4l23-13h1l11-9a2 2 0 0 1 2-1l2 1a2 2 0 0 1 1 3l-1 1-1 1-18 11-1 1-6 6-1 1-9 3h-2Zm45-31v-4l5-4 1-2v-9a2 2 0 0 1 3-2l2 2v7l1 2 1 1 2-1 3-1a1 1 0 0 1 1 2l-20 16h-2a1 1 0 0 1 0-1l3-3v-3ZM500 174h-5a2 2 0 0 0-1 1l-14 17a2 2 0 0 0 0 2l1 2a2 2 0 0 1-1 2l-6 9a2 2 0 0 1-2 1h-4l-2 1-15 27a2 2 0 0 0-1 2l4 14-1 2-5 12v1l2 10 1 1 10 10v1l4 9v1l18 14a2 2 0 0 0 2 0l10-4a2 2 0 0 1 1 0l10 2h1l12-5h1l11-2a2 2 0 0 1 3 1l4 8a2 2 0 0 0 3 1l7-2a2 2 0 0 1 2 0l5 5v2l-4 17a2 2 0 0 0 0 2l12 15 5 17v2l-1 2a2 2 0 0 0 0 1l4 7v2l-4 6v1l-5 22a2 2 0 0 0 0 2l11 20 1 17v1l5 8 6 15v5l1 2 4 6a2 2 0 0 0 2 1l24-5h2l21-21 1-1 2-11 1-2 8-6 1-1 3-7a2 2 0 0 0 0-2l-4-9a2 2 0 0 1 1-2l22-18a2 2 0 0 0 1-2v-22l-3-5a2 2 0 0 1-1-1v-11l-2-1a2 2 0 0 1-1-3l2-5v-1l10-15h1l21-21h1l15-35a2 2 0 0 0-1-3h-1a2 2 0 0 0-2 0l-21 7-2-1-4-4a2 2 0 0 1-1-2v-1a2 2 0 0 0 0-2c-5-4-13-11-15-11l-3-11a2 2 0 0 0-1-1l-5-5a2 2 0 0 1 0-1l-1-11a2 2 0 0 0-1-2l-5-5a2 2 0 0 1-1-1l-13-27a2 2 0 0 1-1-2l1-4a2 2 0 0 0-1-3l-5-1a2 2 0 0 0-2 0l-4 2a2 2 0 0 1-2 1l-19-6a2 2 0 0 1-1 0l-1-2a2 2 0 0 0-2-1l-9 1a2 2 0 0 0-2 3v1a2 2 0 0 1 0 2l-2 2a2 2 0 0 1-3 0l-1-1a2 2 0 0 0-1 0l-9-1a2 2 0 0 1-2-3v-2l-1-2-4-1a2 2 0 0 0-2 0l-1 1a2 2 0 0 1-2 0l-8-4a2 2 0 0 1-1-3l3-3v-3l-2-2a2 2 0 0 1 0-1v-2a2 2 0 0 0-2-2l-35 4-1 1-7 3h-12Zm187 272-2-4a2 2 0 0 1 0-1v-10l5-8a2 2 0 0 0 0-1l-3-9a2 2 0 0 1 0-1l3-5a2 2 0 0 1 1-2h5a2 2 0 0 0 1-1l7-8 1-1 2-6a2 2 0 0 1 4 0l3 13v1l-15 42a2 2 0 0 1-1 1l-4 2a2 2 0 0 1-2 0l-4-1a2 2 0 0 1-1-1ZM486 104l-1-1a1 1 0 0 1 0-2l4-3a1 1 0 0 0 0-2h-1a1 1 0 0 1 0-1v-3l4-1a1 1 0 0 0 1-1v-2l6-3a1 1 0 0 1 2 1l1 2v1l-2 3v7l-1 1-12 4a1 1 0 0 1-1 0Z" fill="#E3E3ED"/>
  <path d="m507 73-5 4v8l2 3 1 2h3a1 1 0 0 1 1 1l1 2a1 1 0 0 1-1 2h-1a1 1 0 0 0-1 2v1a1 1 0 0 1-1 1l-2 1a1 1 0 0 0-1 1v2l-2 5a1 1 0 0 0 0 1h1l5-1 18-4a1 1 0 0 0 1 0l1-5a1 1 0 0 0 0-1l-2-2-4-6a1 1 0 0 0-1 0l-3-1a1 1 0 0 1-1-1l-3-5a1 1 0 0 1 1-1l2-3v-1l-1-1h-2l-1-2 1-1v-1l-1-1-4 1h-1Z" fill="#E3E3ED"/>
  <path d="M538 72V60l2-2 18-9 1-1 13-17h1l26-6a2 2 0 0 1 1 0l15 2 27 7h1l3 1a2 2 0 0 1 0 4 2 2 0 0 1-1 1l-8 2a2 2 0 0 1-2 0l-12-5a2 2 0 0 0-3 1 2 2 0 0 0 1 3l14 9a2 2 0 0 0 2 0l8-4v-1l16-5 19-6 18-7h2l15 4c2 1 3-2 2-4l-2-1a2 2 0 0 1 0-3l3-5a2 2 0 0 1 3-1l11 3h2l15-6 11-5 20-4 14-5 23 2h1l10 4a2 2 0 0 1 2 3v2a2 2 0 0 0 2 2h43l20 7h1l17-2a2 2 0 0 0 1 0l1-1a2 2 0 0 1 2 0l20 1 17 5h13l13 1 1 1 3 3 1 1h21l1-1 7-1h15l24 6 18 4h7l13 5v2a1 1 0 0 0 0 2l2 1v1a1 1 0 0 1-1 1l-22-6-2 1-1 1c-2 1-1 3 0 4l13 5a1 1 0 0 1-1 2h-7l-7 9-3 1-3-1a2 2 0 0 0-1 0l-13 1c-2 0-3 1-2 3l3 5 2 1h2l2 1 7 10v3l-1 2 1 4 1 5v2c-1 1-3 2-4 1l-14-12-1-1-7-10a2 2 0 0 1 0-2l5-14-1-1-4-4-1 1v1l-2 2h-3l-4-3a2 2 0 0 0-2-1h-6a2 2 0 0 0-2 2v3l1 1v1c1 1 1 3-1 4l-3 1h-1l-13-3a2 2 0 0 0-1 0l-16 1a2 2 0 0 0-2 1l-8 16a2 2 0 0 0 2 3l3 1 6 3a2 2 0 0 0 2 0l3-2a2 2 0 0 1 2 0l10 4a2 2 0 0 1 1 1l4 9 5 9v2l-1 6v12l-1 2-5 4a2 2 0 0 1-3 0l-2-1a2 2 0 0 0-2 1l-2 1a2 2 0 0 0-1 2v5a2 2 0 0 1-1 2l-5 3a2 2 0 0 0 0 2v1a2 2 0 0 0 1 2l12 6 1 2 2 6a2 2 0 0 1-2 2l-5 2a2 2 0 0 1-3-1l-3-9a2 2 0 0 0-2-2l-5-2a2 2 0 0 1-2-2v-2l-1-2-5-1a2 2 0 0 0-3 0l-1 2a2 2 0 0 1-4-1 2 2 0 0 1 0-2v-2a2 2 0 0 0-2-2h-1a2 2 0 0 0-2 1l-3 3a2 2 0 0 1-2 1h-2a2 2 0 0 0-1 4l5 2 1 1 2 2a2 2 0 0 0 2 1l5-1h6a1 1 0 0 1 0 2l-5 2a2 2 0 0 0-1 2l-2 5a2 2 0 0 0 2 2l2 1 1 1 5 8 4 4v20a2 2 0 0 1 0 2l-16 19-1 1-22 2a2 2 0 0 0 0 1l-8 3a2 2 0 0 0-1 2l-2 5a2 2 0 0 0 1 2l13 15 1 1 3 15a2 2 0 0 1-1 2l-6 3-5 6c-1 2-4 1-4-1a2 2 0 0 0-1-1l-3-1a2 2 0 0 1-1-1l-10-10a2 2 0 0 0-1 0l-2-1a2 2 0 0 0-3 1l-3 10a2 2 0 0 0 1 2l2 3 1 1 2 6 1 1 5 4 6 6v8l2 4a2 2 0 0 1 0 3 2 2 0 0 1-3 0l-6-4a2 2 0 0 1 0-1l-5-12a2 2 0 0 0 0-1l-8-9a2 2 0 0 1 0-1v-12l-7-23c0-2-2-2-3-1l-3 2-1 1a2 2 0 0 1-3-1l-1-2a2 2 0 0 1 0-1v-4l-1-1-7-12-5-5a2 2 0 0 0 0-1l-3-2a2 2 0 0 0-2-1l-13 3a2 2 0 0 0-2 3v1a2 2 0 0 1-1 2l-3 3a2 2 0 0 0-1 0l-9 14a2 2 0 0 1-1 1l-7 3a2 2 0 0 0-1 3l2 5v1l-2 9-1 8a2 2 0 0 1-1 1l-3 5a2 2 0 0 1-2 2h-1a2 2 0 0 1-2-2l-4-8-9-19-8-20a2 2 0 0 1 0-1v-12a2 2 0 1 0-3 0v1l-2 2-3 1a2 2 0 0 1-2-1l-17-19a2 2 0 0 0-2 0l-15 2a2 2 0 0 1-1 0l-15-4a2 2 0 0 1-2-1l-1-3a2 2 0 0 0-1-1l-2-1a2 2 0 0 0-2 1l-4 1h-2l-12-6a2 2 0 0 1-1-1l-4-8a2 2 0 0 0-2-2h-3a2 2 0 0 0-2 2l-1 5a2 2 0 0 0 0 2l14 19a2 2 0 0 0 2 1l8-1a2 2 0 0 0 2-1l3-6a2 2 0 0 1 3 0l2 7a2 2 0 0 0 2 2l5 1h1l4 5a2 2 0 0 1 0 3l-5 4a2 2 0 0 0 0 1l-1 2a2 2 0 0 0 0 1l1 3a2 2 0 0 1-1 2l-7 4v1l-3 3a2 2 0 0 1-1 1l-7 2a2 2 0 0 0-1 2v1a2 2 0 0 1-2 2l-12 5-11 4a2 2 0 0 0 0 1l-2 1a2 2 0 0 1-2 1h-4a2 2 0 0 1-2-2l-4-10a2 2 0 0 1 0-1v-7l-4-3a2 2 0 0 1 0-1l-5-8a2 2 0 0 0-1 0l-4-4a2 2 0 0 1-1-1l-2-11a2 2 0 0 0 0-1l-12-18a2 2 0 0 0-3-1h-1a2 2 0 0 1-2 0l-5-6a2 2 0 0 1 0-1v-4a2 2 0 0 1 1-3h2a2 2 0 0 0 2-2l4-11 1-1-1-10a2 2 0 0 0-2-2v-1a2 2 0 0 0-2 0l-7 4a2 2 0 0 1-2 0l-5-2a2 2 0 0 0-2 0l-2 1a2 2 0 0 1-3 0l-8-4a2 2 0 0 1-1-1l-3-8a2 2 0 0 1 0-1v-3a2 2 0 0 0-2-3l-6-1a2 2 0 0 0-1 0l-3 1a2 2 0 0 0-1 4l4 7 1 2-2 4a2 2 0 0 1-2 2l-3-1a2 2 0 0 1-1 0l-2-2a2 2 0 0 1 0-1l-1-5a2 2 0 0 0-1-1l-5-7a2 2 0 0 1-1-1l-1-6a2 2 0 0 0-1-1l-19-15a2 2 0 0 0-2 0h-3a2 2 0 0 0-1 3 2 2 0 0 0 1 2l3 2 1 1 5 7a2 2 0 0 0 2 1h3a1 1 0 0 1 0 1 1 1 0 0 0 0 1l9 5a1 1 0 0 1 0 2 1 1 0 0 1-2 0l-1-1-2-1a1 1 0 0 0-2 1l2 4a2 2 0 0 1 0 2l-3 5a1 1 0 0 1-2-1l1-4a2 2 0 0 0 0-2l-2-4a2 2 0 0 0-1-1l-15-9a2 2 0 0 1-1-2l-1-5a2 2 0 0 0-2-2h-4l-2 1-1 2a2 2 0 0 1-1 1l-3 1a2 2 0 0 1-1 0l-8-1a2 2 0 0 0-1 0l-2 1a2 2 0 0 0-1 2v2a2 2 0 0 1-2 3l-7 2a2 2 0 0 0-1 1l-5 5a2 2 0 0 0 0 3l1 1v3l-8 6a2 2 0 0 1-1 1l-10 2a2 2 0 0 1-2 0l-2-2a2 2 0 0 0-2 0h-4l-2-2v-4a2 2 0 0 0-2-2 2 2 0 0 1-1-2l3-7v-9a2 2 0 0 1 0-2l3-2a2 2 0 0 1 2 0h20a2 2 0 0 0 2-2l2-8a2 2 0 0 0 0-2l-2-3a2 2 0 0 0-1-1l-5-3-3-1a2 2 0 0 1 0-3l9-3a2 2 0 0 1 1 0h4l7-2a2 2 0 0 0 1-2l1-3 5-2h1l5-7a2 2 0 0 1 1 0l10-3a2 2 0 0 0 2-3l-3-8a2 2 0 0 1 1-2l5-3a2 2 0 0 1 3 1v1a2 2 0 0 1 0 3l-1 1h-1l-1 3a2 2 0 0 0 0 3l4 2h1l4-1a2 2 0 0 1 2 1l1 1a2 2 0 0 0 2 0l12-4a2 2 0 0 1 3 2 2 2 0 0 0 3 1l5-2a2 2 0 0 0 2-3l-2-4 1-2 1-2a2 2 0 0 1 3 0l1 1a2 2 0 0 0 3 0 2 2 0 0 0 0-4l-1-2a2 2 0 0 1 1-2l18-3a1 1 0 0 0 0-3l-2-1a2 2 0 0 0-2-1l-16 4a2 2 0 0 1-2 0l-4-3a2 2 0 0 1-1-2l-1-5a2 2 0 0 1 1-3l10-7a2 2 0 0 0 1-2 2 2 0 0 0-2-2h-3a2 2 0 0 0-1 0l-5 2a1 1 0 0 0-1 2v2l-11 6a2 2 0 0 0-1 1l-1 5a2 2 0 0 0 1 3l5 1a2 2 0 0 1 0 4l-6 2a2 2 0 0 0-1 2v8a2 2 0 0 1-2 2h-3l-1 1-2 2h-1a2 2 0 0 1-2-2l-6-12a2 2 0 0 0-2-1v-1a2 2 0 0 0-3 1l-6 4a2 2 0 0 1-2 1l-6-2a2 2 0 0 1-2-2ZM10 70l-5-2a2 2 0 0 1-2-1l-1-1a2 2 0 0 1 1-3l4-3h1l13-4 4-2c2-1 1-4-1-4a2 2 0 0 1-3-2v-1l1-2 18-10 27-9h1l23-1h1l21 1h1l20 5h1l28-5h11l29 12 2-1 2-2a2 2 0 0 1 2 0l30 3h1l8-3 10-6a2 2 0 0 1 1 0l10 2a2 2 0 0 1 2 2v8l-1 2-7 4-12 5-11 1a2 2 0 0 0-1 1l-10 5-1 1-7 9a2 2 0 0 0-1 2l1 1v1l-1 2a2 2 0 0 0 2 3h6l7 8a2 2 0 0 0 2 0h8l1 1a2 2 0 0 1 1 3l-3 6h-1v3a2 2 0 0 0 1 2l3 2a2 2 0 0 0 2 0l4-2a2 2 0 0 0 1-2l2-9 1-2 14-9a2 2 0 0 0 0-3 2 2 0 0 1 0-1v-2l1-2 4-2a2 2 0 0 0 1-2l1-4 1-3v-1l3-2a2 2 0 0 1 2-1l4 1h5l1 1 9 4a2 2 0 0 1 1 3l-1 5a2 2 0 0 0 3 2l8-7a2 2 0 0 1 4 1l3 10-1 3a2 2 0 0 0 0 4l6 4a2 2 0 0 1 1 2l1 2 3 1a2 2 0 0 1 1 2v5a2 2 0 0 1-2 2l-7 1-1 1-2 2a2 2 0 0 1-1 1l-9 4h-1l-11-3a2 2 0 0 0-1 0l-9 3a2 2 0 0 0 1 3l6-1a2 2 0 0 1 1 4l-4 2a2 2 0 0 0-1 3l1 4a2 2 0 0 0 2 2h3l1-1 6-4a2 2 0 0 1 3 1v2a2 2 0 0 1-1 2l-15 5a2 2 0 0 0-1 1l-2 4a2 2 0 0 1-1 1h-2a2 2 0 0 1-3-2l1-2 5-3a1 1 0 0 0-1-2l-14 3-1 1-8 9-1 1v1l-2 3-12 3a2 2 0 0 0-2 1l-11 12a2 2 0 0 0-1 2v5a2 2 0 0 1-1 2l-27 21a2 2 0 0 0-1 2l2 14-2 10a2 2 0 0 1-3 1l-3-5a2 2 0 0 1-1-1v-8a2 2 0 0 0 0-1l-2-5a2 2 0 0 0-2-1h-3l-1-1-2-1a2 2 0 0 0-2 0h-11a2 2 0 0 0-2 3l-2 2h-3a2 2 0 0 1-2-1l-1-1a2 2 0 0 0-2-1l-10 1a2 2 0 0 0-1 0l-11 10a2 2 0 0 0-1 2v4l-4 4a2 2 0 0 0-1 1l-1 11v1l2 14a2 2 0 0 0 2 2l6 2h9l2-1 3-2v-1l4-8a2 2 0 0 1 1-2l11-2a2 2 0 0 1 2 1 2 2 0 0 1 0 3l-2 3-1 1-4 8-1 4v1l-3 2a2 2 0 0 0 2 4h13a2 2 0 0 1 1 1l4 3v2l-2 14a2 2 0 0 0 1 2l5 8a2 2 0 0 0 3 1l7-2a1 1 0 0 1 1 3l-3 1a2 2 0 0 0-1 3 2 2 0 0 1-3 2l-2-3a2 2 0 0 0-2-1h-5a2 2 0 0 1-2-1l-7-9-7-11a2 2 0 0 0-1-1l-14-4a2 2 0 0 1-1-1l-4-7a2 2 0 0 0-1 0l-3-2a2 2 0 0 0-2 0l-10 2a2 2 0 0 1-1 0l-15-7-7-4a2 2 0 0 1 0-1l-6-7a2 2 0 0 1 0-2l1-6a2 2 0 0 0-1-2l-11-18a2 2 0 0 1 0-1l-8-21a2 2 0 0 0-2-2h-1a2 2 0 0 0-3 2l-1 4 1 1 7 19 5 11a2 2 0 1 1-3 1l-5-10-12-33a2 2 0 0 0-1-1l-6-7a2 2 0 0 1 0-1l-3-21a2 2 0 0 1 1-2l20-27 1-1 3-21v-1l-3-31a2 2 0 0 0-2-2l-23-7a2 2 0 0 0-1 0l-23 4-23 2a2 2 0 0 1-1 0Zm196 222a2 2 0 0 0-3 2l4 10 2 11a2 2 0 0 1 0 2l-6 5-5 7h-1l-3 6a2 2 0 0 0 0 1v5l1 1 2 3a2 2 0 0 1 0 3l-3 3-1 2v6l1 2 3 1 1 1 6 14 9 15 1 2-1 1a2 2 0 0 0 1 3l4 4h1l15 9 1 1 3 4 5 9v2l-1 11 1 9v17l1 5 2 13v1l-2 17v1l4 11 2 7 4 22v1l8 17v1l7 10 1 1 18 9h1l14-1a1 1 0 0 0 0-1l-9-3a2 2 0 0 1-1-1l-5-5a2 2 0 0 1-1 0l-4-6a2 2 0 0 1 0-2l2-6 3-5a2 2 0 0 0 1-2v-1a2 2 0 0 0-2-2l-4-1a2 2 0 0 1-2-1l-1-2a2 2 0 0 1 1-2l3-3a2 2 0 0 0 1-2v-8l-1-1-3-4a2 2 0 0 1 1-3l5 1a2 2 0 0 0 1 0l2-1a2 2 0 0 0 0-3l-1-4a2 2 0 0 1 2-2l11-3a2 2 0 0 0 2-1l2-5a2 2 0 0 0-1-3l-8-7a2 2 0 0 1 2-3l12 2a2 2 0 0 0 3-1l11-22 1-1 3-4a2 2 0 0 0 0-2l-1-4a2 2 0 0 1 0-1l1-4v-1l7-8h1l5-3h1l8-1a2 2 0 0 0 2-1l5-10v-1l4-19v-12l1-1 1-1 1-1 2-6 4-5 5-8a2 2 0 0 0 1-2l-1-8a2 2 0 0 0-1-1l-1-3a2 2 0 0 0-2-2h-4l-3-2a2 2 0 0 1-1 0l-7-8a2 2 0 0 0-2 0h-4a2 2 0 0 1-1 0l-9-1a2 2 0 0 1-1-1l-1-2a2 2 0 0 0-1 0l-15-7a2 2 0 0 0-1-1h-3a2 2 0 0 1-1 0h-1a2 2 0 0 1-1-3v-1a2 2 0 0 0 0-2l-1-3-4-8a2 2 0 0 0-1-1l-5-7a2 2 0 0 0-1 0l-8-2h-7l-6-3a2 2 0 0 1-1-1l-4-7a2 2 0 0 0-2-1h-1a1 1 0 0 1-1-2 2 2 0 0 0-1-3l-9-5a2 2 0 0 0-2 0l-4 2a2 2 0 0 1-2 1l-3-2a2 2 0 0 0-2 0h-3a2 2 0 0 1-3-2l-1-2-4-1a2 2 0 0 0-2 0l-4 3a2 2 0 0 0-1 2l1 4a2 2 0 0 1-1 2 2 2 0 0 1-3-2v-6l1-2 2-2a1 1 0 0 0-1-2l-7 5h-5l-3 1-1 5a2 2 0 0 1-1 1l-4 5a1 1 0 0 1-2 0l-1-2a2 2 0 0 0-2-1Z" fill="#E3E3ED"/>
  <path d="m904 312-7-2a2 2 0 0 0-1 0c-1 0-2 1-1 2l5 5 8 8v1l7 18 11 13h1l5 2a2 2 0 0 0 3-2l2-10a2 2 0 0 0-1-2l-9-12-10-8-12-13h-1Zm32 50a2 2 0 0 0 1 3l30 7 50 3a2 2 0 0 0 1-3l-2-2a2 2 0 0 0-2-1h-43l-7-3a2 2 0 0 0 0-1l-26-5a2 2 0 0 0-2 2Zm12-34 1-2a2 2 0 0 1 3 0l3 1 1 1a2 2 0 0 0 3-3v-1a2 2 0 0 1 1-2l2-1h1l11-10 1-1 4-6a2 2 0 0 1 3 0l5 4a2 2 0 0 1 0 3l-4 6a2 2 0 0 0 0 2l5 7-1 3-8 10-1 1v7a2 2 0 0 1-2 2h-5l-15-2a2 2 0 0 1-1-1l-4-9-4-6a2 2 0 0 1 1-3Zm97 24-3-5h-1l-4-4a2 2 0 0 1 0-2v-3l1-2 3-1h1l5 1a2 2 0 0 1 2 3l-1 2v2l1 3 1 1 2 1c2 0 3-1 3-2l1-2 4-3a2 2 0 0 1 2 0l10 4 16 6h1l5 7a2 2 0 0 0 1 1h3l2 1v3l-1 1v3l12 10 1 1-2 1-10-2h-1l-6-7h-1l-4-1a2 2 0 0 0-3 1l-1 3a2 2 0 0 1-3 1l-11-4a2 2 0 0 1-1-1l-2-4v-1l-12-11a2 2 0 0 0-2-1h-8Z" fill="#E3E3ED"/>
</svg>