<svg xmlns="http://www.w3.org/2000/svg" fill="none" viewBox="0 0 89 26">
    <path fill="#5B5B5B"
        d="M19.8545 1.11136c-.7333-.00178-1.5524.08364-2.4409.30965 0 0-4.5554 1.13056-9.57645 5.81905 0 0-2.39413 2.42738-4.08997 5.55304 0 0-1.76234 3.2587-2.02835 5.9853 0 0-.26601 3.0592 1.46308 4.622 0 0 1.9951 1.8288 6.35107 1.4631 0 0 2.72662-.3325 5.68602-2.1946 0 0 1.4299-.9311 2.3609-1.7956 0 0-.4323 1.5628.1995 2.6934 0 0 .5985 1.064 1.9619 1.2968 0 0 .9975.1995 2.4273-.3325 0 0 .8978-.3991 1.4964-.6983 0 0 1.2303-.6651 2.4273-1.5961 0 0-.2327.931.2993 1.7291 0 0 .6318.8978 1.7956.9975 0 0 3.1257.2328 7.4816-5.1207l-3.0591 4.9212 2.7931-.0332 2.4274-4.1897s2.5271-4.3228 3.0592-4.8548c0 0 1.2968-1.7291 3.2586-2.1281l1.2968.0997s.5321.2661.5321.8646l-.9643-.1663s-.5653.0665-.8646.6651c0 0-.266.5652-.133 1.1305 0 0 .1663.4656.5985.6318l.2993.0998.9643-.133s1.6959-.6318 4.0235-3.558l-.5321.9643-1.9618 3.3584-2.2944 4.0568s-.665 1.33-.3657 2.1281c0 0 .2992.7648 1.2968.9643l2.1613-.1663s1.2303-.3658 2.2279-1.2303l1.4298-1.1638s1.7291-1.4631 3.2919-3.1922l-.0997.133s-1.3633 2.4939-1.5961 3.3252c0 0-.532 1.7623.6983 2.4606l1.3966.133s1.1638-.1662 2.3276-.9975l1.8953-1.6294s1.6294-1.5295 2.4939-2.6268c0 0-.4323.9975-.532 1.7291 0 0-.3325 2.3276 1.8288 3.2586l2.0284.1663s.798-.0665 2.0283-.4988c0 0 2.8597-.931 6.8831-4.622 0 0 2.0284-1.8621 3.4582-3.5247l-5.0542 8.4792h2.4938l1.8621-3.1256 2.3942-3.8905s1.3633-2.1614 3.8572-3.5579c0 0 .9975-.5986 1.7623-.7316 0 0 .798-.1662.9643.2328 0 0-1.1306-.2328-1.3966.931 0 0-.266 1.1639.6651 1.5296 0 0 .6982.2328 1.2635-.1662 0 0 .4988-.3658.6651-1.0641 0 0 .133-.6983-.1995-1.1971 0 0-.3991-.5985-1.3301-.665 0 0-1.0308-.0332-3.0924 1.3301 0 0-1.5296.9975-2.1614 1.6293l1.6959-2.8929h-2.5272s-2.3941 4.0567-6.6171 7.5482c0 0-4.1232 3.3584-6.4508 3.4581 0 0-2.2611.1663-2.4939-1.5628 0 0-.133-1.0308.4655-2.4939 0 0 1.3966.133 3.2587-.4655 0 0 1.7623-.5653 3.2254-1.5628 0 0 1.5629-1.0641 2.1281-2.1946 0 0 .6651-1.2636-.0997-2.3277 0 0-1.3966-1.3633-4.4225-.0997 0 0-3.1257 1.2968-5.4533 4.3892l-.5985.8978-.0665.0998-1.6626 1.9286-1.6958 1.6958s-2.0616 2.0284-3.0924 1.4298c0 0-.3991-.266-.3991-.8978 0 0 0-.6318.4656-1.3965l4.8215-8.3795h-2.1614s-1.1971 1.9619-2.5936 3.824c0 0-2.7267 3.6244-5.6861 5.7193 0 0-2.0283 1.5628-3.1589 1.0308 0 0-.4988-.2328-.4655-.8646 0 0 .0332-.6983.6983-1.6626l4.7217-8.0469 2.6269-.0332.3325-.3325h-2.6601l2.8264-5.02106-2.3942.03325s-1.6625 2.82641-2.9261 4.52221c0 0-2.3276 3.0592-4.2562 3.8905 0 0 .3325-.4323.3657-1.0973l-.0332-.5321s-.133-.6982-.7981-1.0308l-.5985-.1662-1.1305.0997s-1.3301.2993-2.5604 1.3634l1.0308-1.7291h-2.3941s-2.1614 3.8572-4.9878 7.1491c0 0-3.6909 4.2562-5.7193 3.7574 0 0-.5985-.2992-.6318-1.0308 0 0 0-.7315.6318-1.7623l4.8215-8.1467-2.3941.0333-.7648 1.33-.4988.9643s.0998-.2992 0-.931c0 0-.1995-1.4963-1.6293-1.7956l-1.1306-.0998s-2.8596-.0332-6.1183 2.8264c0 0-2.2279 1.9951-3.9237 5.021 0 0-3.3917 3.159-6.9829 3.8572 0 0-3.19213.6651-4.55545-.7647 0 0-1.49632-1.5296-1.49632-4.1898 0 0 .03325-3.1589 2.29436-7.4483 0 0 2.39413-3.52473 3.85721-5.12081 0 0 3.7242-4.08996 7.5814-5.12077 0 0 3.1589-.8313 4.9212.59853 0 0 1.4964 1.23032 1.6294 3.7242l.8645-1.46308s1.0973-1.72909 2.0616-2.72664c0 0-.8978.39902-1.9951.53203 0 0-1.3633.16626-2.0283-.23277 0 0-1.4813-.93565-3.877-.94143Zm8.1207 11.75034c.9742.0049 1.4756.4634 1.4756.4634 1.1638 1.0641.2327 3.0592.2327 3.0592-1.7956 3.7242-4.4225 5.9853-4.4225 5.9853l-1.596 1.1306c-2.4939 1.2303-3.558.3657-3.558.3657-.8645-.7315-.4987-2.3941-.4987-2.3941.2327-1.1306 1.1638-2.7599 1.1638-2.7599l1.7956-2.6269c1.6293-1.7956 3.4914-2.7266 3.4914-2.7266.7658-.3772 1.4058-.4993 1.9161-.4967Zm42.7752.293a.9194.9194 0 0 1 .0988.0042s.532.0665.7647.3325c0 0 .2328.3325.1663.9975 0 0-.1663 1.7624-2.1281 3.425 0 0-2.2279 1.8953-4.8215 1.8288l.4988-1.0308s1.1305-2.1946 2.7931-3.8904c0 0 1.5913-1.6541 2.6279-1.6668Z" />
    <path fill="#5B5B5B"
        d="M60.6406 9.43466s0 .43227.3325.76484c0 0 .2993.2992.7648.2992 0 0 .4323 0 .7316-.2992 0 0 .2992-.33257.2992-.76484l-.2992-.76479s-.3325-.29926-.7316-.29926c0 0-.4655 0-.7648.29926 0 0-.3325.29927-.3325.76479Z" />
</svg>