<svg xmlns="http://www.w3.org/2000/svg" fill="none" viewBox="0 0 78 19">
    <g clip-path="url(#a)">
        <path fill="#5B5B5B" fill-rule="evenodd"
            d="M10.5163.4668h3.7774c0 3.64234-1.4213 7.03092-3.9464 9.5505l5.3318 7.2745h-4.7633L5.12047 9.38425l1.49558-1.12013C9.09759 6.40322 10.5163 3.56317 10.5163.4668Zm51.3309 11.0039c0 1.6558 1.411 2.9938 3.1524 2.9938s3.1525-1.338 3.1525-2.9938c0-1.65067-1.4111-2.99125-3.1525-2.99125-1.7414 0-3.1524 1.34058-3.1524 2.99125Zm6.3151-5.07001v-.74847h3.483V17.2893h-3.483v-.7434c-.9808.669-2.1665 1.0638-3.447 1.0638-3.388 0-6.1333-2.7478-6.1333-6.139 0-3.38854 2.7453-6.13888 6.1333-6.13888 1.2805 0 2.4662.3973 3.447 1.06887ZM.79297 17.2921h3.867V.46711h-3.867V17.2921Zm19.65283-.0052h-3.6442V.46711h3.6442V17.2869ZM52.3973 5.3405c-1.3879 0-2.7043.43318-3.5826 1.62508v-1.3098h-3.465V17.2877h3.5059v-6.1133c0-1.76863 1.1857-2.635 2.6147-2.635 1.5263 0 2.4072.91248 2.4072 2.6119v6.1364h3.4752V9.88765c0-2.70419-2.1511-4.54715-4.9554-4.54715Zm-27.2612 6.1302c0 1.6558 1.411 2.9938 3.1525 2.9938 1.7414 0 3.1525-1.338 3.1525-2.9938 0-1.65067-1.4111-2.99125-3.1525-2.99125-1.7415 0-3.1525 1.34058-3.1525 2.99125Zm6.3152-5.07001v-.74847h3.4829V17.2893h-3.4829v-.7434c-.9808.669-2.1666 1.0638-3.447 1.0638-3.3881 0-6.1334-2.7478-6.1334-6.139 0-3.38854 2.7453-6.13888 6.1334-6.13888 1.2804 0 2.4662.3973 3.447 1.06887Zm8.8644.76976V5.65559h-3.5622V17.2875h3.5699V11.856c0-1.8327 1.9847-2.817 3.3599-2.817h.0435V5.65559c-1.4136 0-2.7146.60748-3.4111 1.51486Zm32.838 8.17895c0-1.2098.9784-2.189 2.1845-2.189 1.2062 0 2.1845.9792 2.1845 2.189 0 1.2047-.9783 2.1839-2.1845 2.1839-1.2061 0-2.1845-.9792-2.1845-2.1839Z"
            clip-rule="evenodd" />
    </g>
    <defs>
        <clipPath id="a">
            <path fill="#fff" d="M.79297.03809h77.1429v18H.79297z" />
        </clipPath>
    </defs>
</svg>