<svg xmlns="http://www.w3.org/2000/svg" fill="none" viewBox="0 0 88 33">
    <g clip-path="url(#clip0_1151_16367)">
        <path fill="#5B5B5B" fill-rule="evenodd"
            d="M21.7536 27.8521c2.709 0 5.648.927 8.902 3.804.326.288.76-.07.475-.428-3.197-4.029-6.154-4.796-9.103-5.444-3.608-.794-5.463-2.82-6.756-5.044-.257-.442-.373-.364-.396.205-.029.695.02 1.616.176 2.522-.146.006-.292.005-.44.005-5.16004 0-9.34404-4.176-9.34404-9.327 0-5.15001 4.184-9.32501 9.34504-9.32501 5.16 0 9.344 4.175 9.344 9.32501 0 .367-.018.73-.06 1.085-.682-.123-2.025-.137-2.967-.056-.354.031-.304.196-.036.244 3.089.557 5.21 2.468 5.696 5.935.01.08.116.103.157.034a14.02062 14.02062 0 0 0 2.001-7.242c0-7.79001-6.329-14.10701-14.135-14.10701C6.80556.03809.47656 6.35409.47656 14.1451c0 7.792 6.329 14.109 14.13604 14.109 2.07 0 4.126-.402 7.141-.402Zm1.052-5.122c.629.53.82 1.161.488 1.606-.185.244-.485.379-.845.379a1.49995 1.49995 0 0 1-.961-.348c-.572-.499-.74-1.307-.367-1.766.146-.18.383-.279.667-.279.345 0 .707.145 1.018.408Zm2.902-1.348c.092.618-.103.874-.3.874-.215 0-.484-.25-.801-.745-.314-.488-.429-1.048-.273-1.331.102-.187.317-.269.588-.166.525.197.73.999.786 1.368Zm19.594-3.23-1.63-1.957a.31394.31394 0 0 1-.07-.1617.31512.31512 0 0 1 .0277-.174.31503.31503 0 0 1 .1169-.1318.31421.31421 0 0 1 .1694-.0485h3.409c.162-.482.254-.997.254-1.533 0-2.45-1.828-4.56301-4.336-4.56301s-4.336 2.11301-4.336 4.56301 1.828 4.534 4.336 4.534c.76 0 1.456-.194 2.06-.529l-.001.001Zm7.374 3.305c.177.196.032.51-.235.51h-3.72a.51015.51015 0 0 1-.392-.183l-.63-.757a8.17397 8.17397 0 0 1-4.456 1.316c-4.529 0-8.213-3.677-8.213-8.197 0-4.52001 3.684-8.19701 8.213-8.19701 4.529 0 8.213 3.677 8.213 8.19701 0 1.63-.48 3.148-1.305 4.426l2.525 2.885Zm34.369-15.12901h-3.037a.404.404 0 0 0-.2847.11832.40379.40379 0 0 0-.1183.28468V21.5641c0 .223.18.403.403.403h3.037c.223 0 .404-.18.404-.403V6.73009a.40395.40395 0 0 0-.1184-.28568.40382.40382 0 0 0-.2856-.11832v.002Zm-5.11 0h-3.396a.40382.40382 0 0 0-.24.07788.4035.4035 0 0 0-.147.20512l-2.688 8.76601-2.955-8.77601a.40347.40347 0 0 0-.1473-.19877.40316.40316 0 0 0-.2357-.07523h-2.37a.404.404 0 0 0-.2362.07513.40368.40368 0 0 0-.1478.19887l-2.954 8.77601-2.688-8.76601a.40401.40401 0 0 0-.1468-.20571.40364.40364 0 0 0-.2402-.07829h-3.397a.40479.40479 0 0 0-.1835.04431.4044.4044 0 0 0-.1435.12269.39636.39636 0 0 0-.0719.17317.39617.39617 0 0 0 .0159.18683l4.99 14.84101c.055.164.21.274.383.274h2.696c.174 0 .328-.11.383-.273l2.926-8.671 2.925 8.67c.055.164.21.274.383.274h2.697c.174 0 .328-.11.383-.274l4.99-14.84101a.3994.3994 0 0 0 .0161-.18666.39902.39902 0 0 0-.0711-.17334.4064.4064 0 0 0-.144-.12281.40614.40614 0 0 0-.184-.04419l-.001.001Zm-23.658.403V21.5641c0 .223-.18.403-.404.403h-3.036a.40366.40366 0 0 1-.2853-.118.40329.40329 0 0 1-.1187-.285V6.73009c0-.223.18-.404.404-.404h3.036c.223 0 .404.181.404.405Z"
            clip-rule="evenodd" />
    </g>
    <defs>
        <clipPath id="clip0_1151_16367">
            <path fill="#fff" d="M.18262.03809h87v32h-87z" />
        </clipPath>
    </defs>
</svg>