<svg xmlns="http://www.w3.org/2000/svg" fill="none" viewBox="0 0 105 23">
    <g fill="#5B5B5B" clip-path="url(#clip0_1151_16318)">
        <path
            d="M35.0013 8.38801c-.787-1.11867-1.8826-1.95689-3.1661-2.42221-.8257-.30856-1.6914-.46097-2.5721-.45159-1.5353.00937-3.1617.49093-4.7027 1.39286L10.8647 14.9226c-2.13112 1.2474-3.71637 1.0793-4.67514.7171-.7033-.2512-1.30293-.7059-1.73452-1.3148-.43161-.609-.66271-1.3255-.66708-2.0718-.00437-.7464.21736-1.466.64209-2.08.42474-.61394 1.01873-1.0755 1.72391-1.33725.95003-.37164 2.53214-.55777 4.67704.66206l1.5428.88259c-.0899.3104-.1568.6284-.1986.9475l-.08.6034 11.6826-6.74511.0238-.01499c.3123-.22111.5289-.54965.6095-.92379.0807-.37477.0182-.76265-.1754-1.09306-.1937-.33042-.5022-.57401-.8688-.68644-.3661-.11243-.7583-.08308-1.1037.08182l-.0113.005-3.782 2.19611-3.8519-2.20361-.0218-.01124c-.3492-.16303-.7434-.18801-1.1106-.07058-.3673.11742-.6734.36664-.8632.70205-.1899.33541-.2455.72642-.1568 1.10181.0887.37476.3135.70018.6333.91505l2.3504 1.33165-.3229.1905-.0069.00437a6.49162 6.49162 0 0 0-1.2461 1.02998l-1.5427-.88882c-2.48654-1.41597-5.07681-1.71953-7.29228-.85445-.92379.35665-1.77263.92379-2.45595 1.64021-.68331.71642-1.20986 1.59148-1.52341 2.53344-.53029 1.6514-.40412 3.4191.35665 4.9781.76077 1.559 2.07618 2.747 3.70265 3.3448.82636.3085 1.69393.4609 2.574.4515 1.53342-.0093 3.15984-.4916 4.70264-1.3947l.0238-.015 13.6651-8.0006c2.1298-1.24608 3.7158-1.07869 4.6764-.71704.7039.24923 1.3035.7027 1.7351 1.31224.4316.6097.6596 1.3261.6608 2.0731.0013.3935-.0587.7832-.1768 1.1536-.173.5123-.4621.9888-.8369 1.3779-.3747.3892-.8395.6971-1.3466.8901-.95.3704-2.5334.5559-4.679-.6639l-1.5427-.8826c.098-.338.1686-.6852.2098-1.0337l.0713-.599-9.1005 5.3279v3.5221l6.0648-3.5415.0101-.0062a6.50319 6.50319 0 0 0 1.2436-1.03l1.5439.8894c2.4972 1.411 5.0875 1.7145 7.2892.8551 1.2805-.4816 2.366-1.3323 3.1393-2.4603.7732-1.1274 1.1755-2.4466 1.163-3.8139h.0018c-.0043-1.3679-.4222-2.68136-1.2092-3.80069ZM44.6611 16.1949l2.9068-1.6723c.5714 1.1454 1.5398 1.7175 2.9049 1.7163 1.2822 0 2.0698-.5715 2.0698-1.4085 0-.8371-1.099-1.0991-2.9947-1.4965-2.5973-.5733-4.2695-1.6283-4.2695-3.82992 0-2.38115 2.4214-4.00763 5.1065-4.00763 2.2896 0 3.874.61726 5.2825 2.38112l-2.7732 1.58621c-.5274-.91584-1.3205-1.36458-2.4653-1.36458-1.1887 0-1.8481.52751-1.8481 1.23267 0 .87923 1.3206 1.05503 3.0808 1.49643 2.4214.6155 4.2714 1.4525 4.2714 3.8739 0 2.5094-2.4654 4.2256-5.5481 4.2256-2.5532-.0037-4.4912-.7071-5.7238-2.7328Zm13.032 2.3811V7.40307l3.2585-1.90672V18.5724l-3.2585.0036Zm5.5481 0v-6.8704c0-3.52225 2.5972-6.20925 6.2073-6.20925 3.6633 0 6.2075 2.86283 6.2075 6.20925v6.8668h-3.297v-6.647c0-2.02577-1.2327-3.21454-2.9049-3.21454-1.806 0-2.9068 1.28214-2.9068 3.21454v6.647l-3.3061.0036Zm14.1695-6.3869c0-3.91783 2.817-6.69275 6.7769-6.69275 2.4655 0 4.6652 1.28214 5.7221 3.25847L87.0926 10.429a3.23636 3.23636 0 0 0-1.2215-1.3043 3.2384 3.2384 0 0 0-1.7274-.4578c-1.9378 0-3.3903 1.4525-3.3903 3.5222 0 2.0258 1.3646 3.5662 3.3903 3.5662 1.3207 0 2.4654-.6612 2.9929-1.762l2.8171 1.6301a6.54997 6.54997 0 0 1-2.4341 2.4336 6.54998 6.54998 0 0 1-3.332.8633c-3.9086.0037-6.7769-2.8133-6.7769-6.7312Zm14.3083 6.3833V1.932L94.9838.03809v6.42719c.8949-.61369 1.9509-.95063 3.036-.96893 3.6102 0 6.1192 2.46537 6.1192 6.11945v6.9602h-3.296v-6.6506c0-2.02577-1.2331-3.21454-2.9051-3.21454-1.8057 0-2.9066 1.28214-2.9066 3.21454v6.647H91.719Z" />
    </g>
    <defs>
        <clipPath id="clip0_1151_16318">
            <path fill="#fff" d="M.2998.03809h103.84v22H.2998z" />
        </clipPath>
    </defs>
</svg>