<svg xmlns="http://www.w3.org/2000/svg" fill="none" viewBox="0 0 125 34">
    <path fill="#5B5B5B"
        d="M32.9464 11.5757h12.5241v2.3315h-4.9312v13.143h-2.7029v-13.143h-4.9106l.0206-2.3315Zm11.9876 4.271h2.3109v2.1664h.0413c.0825-.3095.2269-.5984.4333-.8872.2063-.2889.4539-.5571.7634-.7841.2888-.2476.619-.4332.9903-.5777.3508-.1444.7222-.2269 1.0936-.2269.2888 0 .4952.0206.5983.0206.1032.0206.227.0413.3302.0413v2.3727c-.1651-.0412-.3508-.0619-.5365-.0825-.1857-.0206-.3508-.0413-.5365-.0413-.4126 0-.8046.0826-1.176.2476-.3714.1651-.6809.4127-.9698.7222-.2682.3301-.4951.7221-.6602 1.1967-.1651.4745-.2476 1.0316-.2476 1.6506v5.3232h-2.4759l.0412-11.1416Zm17.9093 11.2035h-2.4347v-1.5681h-.0413c-.3095.5778-.7634 1.0111-1.3617 1.3618-.5984.3508-1.2174.5158-1.8363.5158-1.465 0-2.5379-.3507-3.1981-1.0935-.6603-.7222-.9904-1.8363-.9904-3.3012v-7.1183h2.4759v6.8707c0 .9903.1857 1.6918.5778 2.0839.3713.4126.9078.6189 1.5887.6189.5158 0 .9491-.0825 1.2998-.2475.3508-.1651.6397-.3714.846-.6397.2269-.2682.3714-.5983.4745-.9697.1032-.3714.1445-.784.1445-1.2173v-6.4993h2.4759v11.2035h-.0206Zm4.209-3.5901c.0826.7222.3508 1.2174.8254 1.5269.4745.2888 1.0522.4332 1.7125.4332.2269 0 .4952-.0206.784-.0618.2889-.0413.5777-.1032.8253-.2064.2683-.1031.4746-.2476.6396-.4539.1651-.2063.2476-.4539.227-.7634-.0206-.3095-.1238-.5777-.3508-.7841-.2269-.2063-.4951-.3507-.8253-.4951-.3301-.1238-.7221-.227-1.1554-.3095-.4333-.0826-.8666-.1857-1.3205-.2889-.4539-.1032-.9078-.2269-1.3411-.3714-.4333-.1444-.8047-.3301-1.1555-.5983-.3301-.2476-.6189-.5571-.8046-.9491-.2064-.3921-.3095-.846-.3095-1.4237 0-.619.1444-1.1142.4539-1.5268.2888-.4127.6809-.7428 1.1348-.9904.4539-.2476.9697-.4333 1.5268-.5364.5571-.1032 1.0936-.1445 1.5887-.1445.5778 0 1.1348.0619 1.6507.1857.5158.1238 1.011.3095 1.4236.5984.4333.2682.7841.6396 1.0523 1.0729.2888.4333.4539.9697.5364 1.5887h-2.5791c-.1238-.5983-.392-.9904-.8046-1.1967-.4333-.2063-.9079-.3095-1.465-.3095-.165 0-.392.0206-.6189.0413-.2476.0412-.454.0825-.6809.165-.2063.0826-.392.2064-.5365.3508-.1444.1444-.2269.3507-.2269.5983 0 .3095.1031.5365.3095.7222.2063.1857.4745.3301.8253.4745.3301.1238.7221.227 1.1554.3095.4333.0826.8872.1857 1.3411.2889.454.1032.8872.2269 1.3205.3714.4333.1444.8253.3301 1.1555.5983.3301.2476.6189.5571.8253.9285.2063.3714.3095.8459.3095 1.3824 0 .6602-.1445 1.2173-.454 1.6919-.3094.4539-.7015.8459-1.176 1.1348-.4746.2888-1.0317.4952-1.6094.6396-.5983.1238-1.176.2063-1.7538.2063-.7015 0-1.3617-.0825-1.9601-.2476-.5983-.165-1.1348-.4126-1.5681-.7221-.4333-.3301-.784-.7222-1.0316-1.2173-.2476-.4746-.392-1.0523-.4127-1.7332h2.4966v.0206h.0206Zm8.15-7.6134h1.8776v-3.3838h2.4759v3.3631h2.2283v1.8363h-2.2283v5.9835c0 .2683.0206.4746.0412.6809.0207.1857.0826.3508.1445.4746.0825.1238.2063.2269.3507.2888.1651.0619.3714.1032.6603.1032.165 0 .3507 0 .5158-.0206.1651-.0207.3508-.0413.5158-.0826v1.9189c-.2682.0412-.5364.0619-.8047.0825-.2682.0413-.5158.0413-.8046.0413-.6603 0-1.1761-.0619-1.5681-.1857-.392-.1238-.7015-.3095-.9285-.5365-.227-.2476-.3714-.5364-.4539-.8872-.0825-.3507-.1238-.784-.1444-1.238V17.683h-1.8776v-1.8776.0413Zm8.315 0h2.3315v1.5268h.0412c.3508-.6603.8253-1.1142 1.4443-1.403.619-.2889 1.2793-.4333 2.022-.4333.8872 0 1.6507.1444 2.3109.4745.6603.3095 1.1967.7222 1.63 1.2792.4333.5365.7634 1.1761.9697 1.8983.2064.7221.3302 1.5061.3302 2.3108 0 .7634-.1032 1.4856-.2889 2.1871-.2063.7015-.4952 1.3411-.8872 1.8776-.392.5364-.8872.9697-1.5062 1.2998-.619.3302-1.3205.4952-2.1458.4952-.3508 0-.7222-.0412-1.0729-.1031-.3508-.0619-.7015-.1651-1.0316-.3095-.3302-.1445-.6397-.3302-.9079-.5571-.2888-.227-.5158-.4952-.7015-.7841h-.0413v5.5915h-2.4759V15.8467h-.0206Zm8.6451 5.6121c0-.4952-.0619-.9904-.2063-1.465-.1238-.4745-.3302-.8872-.5984-1.2586-.2682-.3714-.5983-.6602-.9697-.8872-.392-.2269-.846-.3301-1.3412-.3301-1.0316 0-1.8156.3508-2.3521 1.0729-.5158.7222-.784 1.6919-.784 2.8886 0 .5777.0619 1.0935.2063 1.5681.1444.4745.3301.8872.619 1.2379.2682.3508.5983.619.9904.8254.392.2063.8253.3094 1.3411.3094.5777 0 1.0316-.1237 1.4236-.3507.3921-.227.7016-.5365.9698-.8872.2476-.3714.4333-.7841.5364-1.2586.1032-.4952.1651-.9698.1651-1.4649Zm4.3535-9.8831h2.4759v2.3315h-2.4759v-2.3315Zm0 4.271h2.4759v11.2035h-2.4759V15.8467Zm4.6841-4.271h2.475v15.4745H101.2V11.5757Zm10.027 15.784c-.887 0-1.692-.1444-2.393-.4539-.702-.3095-1.28-.7015-1.775-1.2173-.474-.5158-.846-1.1555-1.093-1.8776-.248-.7222-.392-1.5268-.392-2.3728 0-.8459.123-1.63.392-2.3521.247-.7222.619-1.3411 1.093-1.8776.475-.5158 1.073-.9285 1.775-1.2173.701-.2889 1.506-.4539 2.393-.4539.887 0 1.692.1444 2.393.4539.702.2888 1.28.7015 1.775 1.2173.474.5158.846 1.1554 1.093 1.8776.248.7221.392 1.5062.392 2.3521 0 .8666-.123 1.6506-.392 2.3728-.268.7221-.619 1.3411-1.093 1.8776-.475.5158-1.073.9284-1.775 1.2173-.701.2889-1.485.4539-2.393.4539Zm0-1.9601c.536 0 1.032-.1238 1.424-.3507.412-.227.722-.5365.99-.9079.268-.3714.454-.8047.578-1.2586.124-.4745.185-.9491.185-1.4443 0-.4745-.061-.9491-.185-1.4236-.124-.4746-.31-.8872-.578-1.2586-.268-.3714-.598-.6603-.99-.8872-.413-.227-.888-.3508-1.424-.3508-.536 0-1.032.1238-1.424.3508-.412.2269-.722.5364-.99.8872-.268.3714-.454.784-.578 1.2586-.124.4745-.185.9491-.185 1.4236 0 .4952.061.9698.185 1.4443.124.4746.31.8872.578 1.2586.268.3714.598.6809.99.9079.413.2475.888.3507 1.424.3507Zm6.396-9.5529h1.878v-3.3838h2.476v3.3631h2.228v1.8363h-2.228v5.9835c0 .2683.02.4746.041.6809.021.1857.083.3508.144.4746.083.1238.207.2269.351.2888.165.0619.372.1032.66.1032.165 0 .351 0 .516-.0206.165-.0207.351-.0413.516-.0826v1.9189c-.268.0412-.536.0619-.805.0825-.268.0413-.515.0413-.804.0413-.661 0-1.176-.0619-1.568-.1857-.392-.1238-.702-.3095-.929-.5365-.227-.2476-.371-.5364-.454-.8872-.082-.3508-.124-.784-.144-1.238V17.683h-1.878v-1.8776.0413Z" />
    <path fill="#969696"
        d="M30.0594 11.5757H18.732L15.2451.80542 11.7375 11.5757.41016 11.5551l9.16094 6.6644-3.50757 10.7703 9.16097-6.6644 9.1609 6.6643-3.4869-10.7702 9.1609-6.6438Z" />
    <path fill="#5B5B5B" d="m21.6874 20.6537-.784-2.4347-5.6534 4.1059 6.4374-1.6712Z" />
</svg>