<svg width="160" height="26" viewBox="0 0 160 26" fill="none" xmlns="http://www.w3.org/2000/svg">
    <g clip-path="url(#clip0_1151_16342)">
        <path
            d="M9.62043 13.3122C10.6684 9.37521 9.47318 5.24964 6.61449 3.06337C2.72033 5.52858 0.474837 10.1637 1.28593 14.9928C1.55317 16.5893 2.13208 18.0564 2.94706 19.342C5.99196 18.4943 8.6691 16.8893 9.62043 13.3122ZM14.8765 24.6737C21.3037 23.5946 25.6373 17.5095 24.5574 11.0847C23.6591 5.73661 19.299 1.83933 14.1574 1.30094C13.1196 1.19186 12.0475 1.22147 10.966 1.40223C9.68432 1.61727 8.48912 2.03412 7.40065 2.61146C13.065 4.53283 16.1107 7.45306 16.3219 10.4458C16.4255 12.2931 15.5669 13.6293 14.4387 14.7186L22.4483 14.1592C22.675 14.1436 22.7459 14.4077 22.4716 14.4864L3.36702 19.9638C5.31177 22.6425 8.33173 24.4244 11.6859 24.775C12.7238 24.8841 13.7959 24.856 14.8765 24.6737ZM14.2314 0.597373C20.523 1.25263 25.4301 6.56952 25.4324 13.0341C25.4347 19.942 19.8358 25.5448 12.9271 25.5471C6.01845 25.5495 0.416401 19.9513 0.414063 13.0426C0.411726 6.13397 6.00988 0.531146 12.9186 0.528809C13.3611 0.528809 13.7998 0.552962 14.2314 0.597373Z"
            fill="white" />
        <path
            d="M1.28597 14.9936C1.55321 16.5893 2.13212 18.0564 2.9471 19.342C5.992 18.4943 8.66914 16.8893 9.62125 13.3122C10.6684 9.37518 9.47322 5.24961 6.61376 3.06334C2.72037 5.52855 0.474877 10.1645 1.28597 14.9936ZM24.5575 11.0838C25.6373 17.5094 21.3037 23.5946 14.8766 24.6737C13.7959 24.856 12.7238 24.8841 11.6852 24.775C8.33255 24.4244 5.31103 22.6425 3.36706 19.9638L22.4717 14.4864C22.7459 14.4069 22.675 14.1435 22.4483 14.1591L14.4387 14.7186C15.5669 13.6293 16.4255 12.2931 16.3219 10.4457C16.1107 7.45303 13.0651 4.5328 7.40069 2.61143C8.48916 2.03409 9.68437 1.61724 10.9661 1.4022C12.0475 1.22144 13.1196 1.19183 14.1574 1.30091C19.299 1.8393 23.6591 5.73658 24.5575 11.0838Z"
            fill="#5B5B5B" />
        <path
            d="M90.2234 17.9444V13.8313H86.0994V17.9444H83.8359V8.14746H86.0994V12.0502H90.2234V8.14746H92.5039V17.9444H90.2234Z"
            fill="#5B5B5B" />
        <path
            d="M41.4375 8.14746V14.2809C41.4375 14.9587 41.5372 15.5454 41.7344 16.0223C41.9299 16.4952 42.2135 16.8887 42.5774 17.191C42.9444 17.4964 43.3877 17.7216 43.8934 17.8603C44.4076 18.0021 44.9881 18.0745 45.6184 18.0745C46.2479 18.0745 46.8229 18.0021 47.3263 17.8603C47.8218 17.7216 48.2441 17.4972 48.583 17.1941C48.9212 16.8918 49.1869 16.4983 49.3723 16.0246C49.5593 15.5493 49.6528 14.9626 49.6528 14.2809V8.14746H47.5351V14.2154C47.5351 14.8333 47.3816 15.3327 47.0793 15.6989C46.77 16.0721 46.2783 16.2615 45.6184 16.2615C44.9694 16.2615 44.4816 16.0729 44.1668 15.7005C43.8583 15.3351 43.7017 14.8356 43.7017 14.2154V8.14746H41.4375Z"
            fill="#5B5B5B" />
        <path
            d="M34.9086 17.946V9.97689H32.2471V8.14746H39.85V9.02478C39.85 9.54992 39.4238 9.97689 38.8986 9.97689H37.1728V17.946H34.9086Z"
            fill="#5B5B5B" />
        <path d="M71.292 8.14648H73.5562V17.9434H71.292V8.14648Z" fill="#5B5B5B" />
        <path
            d="M63.7523 13.3755L63.8287 13.4729L66.7208 17.1995C67.0886 17.674 67.6441 17.9467 68.2448 17.9467H70.0478L65.9043 12.6766L65.8435 12.5987L65.9043 12.5216L69.3107 8.14355H66.9546L63.831 12.3665L63.7523 12.4686L63.7515 12.2917V8.14355H61.4873V17.9413H63.7515V13.55L63.7523 13.3755Z"
            fill="#5B5B5B" />
        <path
            d="M54.0087 12.6314H55.3286C55.8039 12.6314 56.1662 12.5005 56.4046 12.2442C56.6407 11.9902 56.7607 11.6598 56.7607 11.2633C56.7607 10.8565 56.6438 10.5223 56.4139 10.2683C56.1802 10.0096 55.8156 9.8795 55.3286 9.8795H54.0087V12.6314ZM58.5363 17.9429C57.8655 17.9429 57.2336 17.5868 56.8869 17.0133L55.1252 14.1048H54.0087V17.9429H51.7461V8.14746H55.7805C56.8168 8.14746 57.6286 8.41782 58.1927 8.95154C58.7553 9.48369 59.0404 10.213 59.0404 11.1183C59.0404 11.578 58.9181 12.044 58.6766 12.5029C58.4382 12.954 58.0159 13.3233 57.4198 13.5999L57.2889 13.6607L60.0377 17.9429H58.5363Z"
            fill="#5B5B5B" />
        <path
            d="M75.415 17.5279V15.6494C76.1357 15.9813 77.0645 16.3125 78.0244 16.3125C79.1292 16.3125 79.6894 15.9338 79.6894 15.2077C79.6894 14.3553 78.9376 14.261 77.4322 13.6135C76.4077 13.1562 75.4314 12.4456 75.4314 10.8047C75.4314 8.89503 76.8884 7.99512 78.9056 7.99512C79.9777 7.99512 80.8909 8.24756 81.4028 8.43689V10.2679C80.8909 10.031 79.9777 9.74663 79.0653 9.74663C78.0727 9.74663 77.6083 10.1097 77.6083 10.7408C77.6083 11.4039 78.1693 11.6096 79.1775 11.9882C80.474 12.6349 81.9793 12.9193 81.9793 15.129C81.9793 17.0386 80.4584 18.0804 78.4249 18.0804C77.1759 18.0804 76.1841 17.8591 75.415 17.5279Z"
            fill="#5B5B5B" />
        <path
            d="M145.348 17.9432V8.14551H151.483V9.03451C151.483 9.55342 151.06 9.97494 150.542 9.97494H147.612V12.0825H150.902V13.7179H147.612V16.1146H151.483V17.9432H145.348Z"
            fill="#5B5B5B" />
        <path
            d="M122.964 17.9425V8.14551H124.064C124.705 8.14551 125.227 8.66753 125.227 9.30877V16.1777H128.841V17.9425H122.964Z"
            fill="#5B5B5B" />
        <path d="M108.95 17.9411V8.15039H111.214L111.214 17.9411H108.95Z" fill="#5B5B5B" />
        <path
            d="M115.553 12.6297H116.873C117.348 12.6297 117.709 12.4996 117.949 12.2432C118.185 11.9884 118.305 11.6589 118.305 11.2615C118.305 10.8556 118.188 10.5205 117.957 10.2665C117.724 10.0086 117.359 9.87774 116.873 9.87774H115.553V12.6297ZM120.08 17.9411C119.409 17.9411 118.777 17.585 118.43 17.0124L116.669 14.1038H115.553V17.9411H113.29V8.14648H117.324C118.361 8.14648 119.172 8.41685 119.737 8.95056C120.299 9.48272 120.584 10.212 120.584 11.1174C120.584 11.5771 120.462 12.043 120.22 12.5019C119.982 12.9522 119.559 13.3216 118.964 13.5989L118.833 13.6597L121.582 17.9411H120.08Z"
            fill="#5B5B5B" />
        <path
            d="M101.168 14.3735L102.057 11.8974C102.255 11.3403 102.453 10.752 102.584 10.3188H102.617C102.732 10.7676 102.93 11.3247 103.127 11.8974L103.984 14.3735H101.168ZM103.966 8.14502H101.366L97.6709 17.9428H99.3016C99.7162 17.9428 100.082 17.6786 100.211 17.2859L100.59 16.1359H104.564L105.145 17.9428H107.598L103.966 8.14502Z"
            fill="#5B5B5B" />
        <path
            d="M153.301 17.5279V15.6502C154.021 15.9813 154.949 16.3125 155.91 16.3125C157.015 16.3125 157.575 15.9338 157.575 15.2077C157.575 14.3553 156.823 14.261 155.318 13.6143C154.293 13.1562 153.316 12.4464 153.316 10.8047C153.316 8.89503 154.773 7.99512 156.791 7.99512C157.863 7.99512 158.776 8.24756 159.289 8.43689V10.2679C158.776 10.0318 157.863 9.74741 156.951 9.74741C155.958 9.74741 155.494 10.1105 155.494 10.7416C155.494 11.4039 156.054 11.6096 157.062 11.9882C158.36 12.6349 159.864 12.9193 159.864 15.129C159.864 17.0386 158.343 18.0804 156.311 18.0804C155.062 18.0804 154.069 17.8591 153.301 17.5279Z"
            fill="#5B5B5B" />
        <path
            d="M134.635 8.14746H136.038C136.704 8.14746 137.324 8.49106 137.676 9.05672L140.408 13.4464C140.717 13.9342 141.074 14.5785 141.286 15.0343H141.335C141.302 14.5941 141.286 13.9809 141.286 13.5407V8.14746H143.27V17.9436H140.788L137.465 12.6439C137.155 12.1569 136.83 11.5749 136.602 11.1347H136.57C136.587 11.5593 136.618 12.0627 136.618 12.534V17.9436H134.635V8.14746Z"
            fill="#5B5B5B" />
        <path d="M130.298 17.9411V8.15039H132.561V17.9411H130.298Z" fill="#5B5B5B" />
    </g>
    <defs>
        <clipPath id="clip0_1151_16342">
            <rect width="159.697" height="25.2648" fill="white" transform="translate(0.291016 0.405762)" />
        </clipPath>
    </defs>
</svg>