<svg xmlns="http://www.w3.org/2000/svg" fill="none" viewBox="0 0 129 23">
    <g clip-path="url(#clip0_1151_16369)">
        <path fill="#5B5B5B" fill-rule="evenodd"
            d="M10.555 8.13459c-.0618.0627-.1428.10343-.2302.11491a.40877.40877 0 0 1-.2814-.1279C8.96901 6.70188 8.1888.8309 10.5295.22984c2.5714-.6218 3.633 3.0168 4.147 4.77853.0357.1224.0688.23558.0995.33775a6.75158 6.75158 0 0 0-3.8116-.92083c-.1535 1.38124-.2558 2.71153-.307 3.49171a.435.435 0 0 1-.1024.21759Zm2.5966.60106a.3076.3076 0 0 1-.0768-.14064.35978.35978 0 0 1 0-.16638c.4093-1.72675 4.1314-6.30566 6.421-4.57892 2.1473 1.61957-.0484 4.76902-1.0892 6.26199-.0688.0989-.1327.1906-.1899.274a7.27852 7.27852 0 0 0-1.6756-3.55591c-.9497.59606-1.8277 1.20038-2.4699 1.6423-.1707.11742-.3249.22334-.4592.31478l-.016.01024a.37122.37122 0 0 1-.0345.01848.29809.29809 0 0 1-.0276.01149l-.0097.00375a.38794.38794 0 0 1-.1552.01999.4887.4887 0 0 1-.0381-.00899l-.016-.00475a.44234.44234 0 0 1-.0473-.01899.4099.4099 0 0 1-.116-.08244Zm30.8 2.59665c0-4.00362 1.7651-6.49781 5.2314-6.49781s5.193 2.49419 5.193 6.49781c0 4.0033-1.7523 6.472-5.193 6.472-3.4407 0-5.2314-2.4687-5.2314-6.472Zm2.1488 0c0 1.5604.3581 4.4637 3.0826 4.4637 2.7244 0 3.0569-2.8907 3.0569-4.4637 0-1.57339-.3581-4.50251-3.0569-4.50251-2.6989 0-3.0826 2.94186-3.0826 4.50251Zm-9.9895-6.242 2.4686 8.9407 2.2639-8.9407h2.1233l-3.1849 12.4582h-2.0721l-2.6988-8.58251-2.7244 8.58251h-2.0849L27.0167 5.0903h2.136l2.264 8.9407 2.4686-8.9407h2.2256Zm29.3802 3.61987c0-2.6733-1.6628-3.61987-4.6686-3.61987h-4.3872v12.4582h2.1488v-5.0908h2.1361l2.4174 5.0908h2.3791l-2.507-5.3466c1.6116-.435 2.4814-1.5092 2.4814-3.49173Zm-4.7709 1.75223h-2.1361V7.11134h2.1361c1.7651 0 2.6732.47315 2.6732 1.67553 0 1.20237-.8569 1.67553-2.6732 1.67553Zm7.0604-5.3721h2.1361v10.3989h6.1395v2.0593h-8.2756V5.0903Zm13.8396 0h-3.543v12.4582h3.543c3.7349 0 6.1139-2.3663 6.1139-6.1908 0-3.82442-2.379-6.2674-6.1139-6.2674Zm.1663 10.3989h-1.5477V7.13682h1.5477c2.2767 0 3.8244 1.77795 3.8244 4.22088 0 2.443-1.471 4.1315-3.8244 4.1315ZM98.069 9.24728c-.4221-1.17664-1.0105-2.31506-3.0314-2.31506-2.0337 0-3.3384 1.82891-3.3384 4.34888 0 2.5196 1.2407 4.4127 3.3384 4.4127s2.7756-1.2536 3.057-2.3662l1.9694.6523c-.5624 2.3789-2.4938 3.7732-5.0264 3.7732-3.3384 0-5.5-2.6221-5.5-6.472 0-3.85 2.1616-6.3954 5.5-6.3954 2.3791 0 4.3872 1.30455 5.0264 3.72205l-1.995.63953Zm8.531-4.41279c-3.466 0-5.244 2.49419-5.244 6.49781 0 4.0033 1.804 6.472 5.244 6.472 3.441 0 5.193-2.4687 5.193-6.472 0-4.00362-1.726-6.49781-5.193-6.49781Zm0 10.96151c-2.724 0-3.082-2.9033-3.082-4.4637 0-1.56065.384-4.50251 3.082-4.50251 2.699 0 3.057 2.92912 3.057 4.50251 0 1.573-.332 4.4637-3.057 4.4637Zm7.445-10.7057h2.161v12.4569h-2.161V5.0903Zm11.882 0v8.4034l-4.822-8.4034h-2.136v12.4582h2.136V9.4264l4.822 8.1221h2.162V5.0903h-2.162ZM14.7504 11.0252l-.1407.1022-.0767.1537a.3754.3754 0 0 0-.0018.0352l.0004.021a.4258.4258 0 0 0 .0525.1868.3601.3601 0 0 0 .2175.1407l.374.1154.0211.0067c.7568.2326 1.8365.5651 2.9432.9523a6.84266 6.84266 0 0 1-1.7267 3.4917c.0913-.0057.1913-.0115.2987-.0174 1.8022-.1019 5.683-.3221 5.6106-3.0139-.0767-2.4047-5.986-2.9291-7.5721-2.1744Zm-1.0777 2.9017c.011.003.0217.0067.0323.011a.33648.33648 0 0 1 .0349.0164c1.5989.7674 5.2442 5.4743 3.0314 7.2907-2.0833 1.7101-4.654-1.1719-5.8551-2.5181-.0747-.0837-.144-.1614-.2076-.2319a7.01251 7.01251 0 0 0 3.7988-.8186c-.4369-1.2743-.8969-2.4452-1.1833-3.1734l-.0022-.006-.0424-.1079a.34563.34563 0 0 1-.0273-.1977.3464.3464 0 0 1 .0145-.0582l.0073-.018.0065-.0134.0087-.0163a.32207.32207 0 0 1 .023-.0348.3204.3204 0 0 1 .1208-.0964c.0474-.0244.1-.0376.1535-.0384a.30176.30176 0 0 1 .0862.011Zm-2.8362 1.0507c-.0076-.0318-.0202-.0617-.0371-.0895a.30673.30673 0 0 0-.0397-.0514.23285.23285 0 0 0-.0708-.0655c-.0177-.0105-.0369-.0184-.0571-.0239a.31955.31955 0 0 0-.243 0 .33239.33239 0 0 0-.1919.1534c-.38369.6652-1.0488 1.8164-1.79066 3.0058-1.22237-.5101-2.26767-1.3687-3.00582-2.4685l-.0336.1906-.01296.073c-.31664 1.7767-1.00236 5.6238 1.65816 6.1829 2.36628.4605 4.18258-5.1931 3.82448-6.9069Zm-2.5326-1.7652a.49989.49989 0 0 1-.07672.1406c-1.1384 1.3687-6.68955 3.4535-7.78956 1.3176-1.21708-2.422 2.233-4.3114 3.80445-5.17201a42.30104 42.30104 0 0 0 .22462-.1234 7.09907 7.09907 0 0 0-.05115 3.90121c1.39417-.1535 2.69882-.3583 3.49187-.4862a.3841.3841 0 0 1 .24301.064c.07375.0422.12869.1106.15348.1918a.35825.35825 0 0 1 0 .1664Zm-.44768-2.9164c.05672.0118.11567.0025.1663-.0255a.28024.28024 0 0 0 .1151-.1279.30888.30888 0 0 0 .05531-.1086.3076.3076 0 0 0 .00864-.12171.39518.39518 0 0 0-.03772-.1234.40635.40635 0 0 0-.0341-.05671.3932.3932 0 0 0-.04328-.04996c-.56282-.51163-1.53488-1.40698-2.50699-2.40476.76703-1.08571 1.84018-1.9186 3.08257-2.39176l-.22561-.09543c-1.65521-.70348-5.30309-2.25361-6.42555.22334-.98488 2.21264 4.08022 5.25689 5.84533 5.28239Z"
            clip-rule="evenodd" />
    </g>
    <defs>
        <clipPath id="clip0_1151_16369">
            <path fill="#fff" d="M.18262.03809h127.907v22H.18262z" />
        </clipPath>
    </defs>
</svg>