<svg width="48" height="49" viewBox="0 0 48 49" fill="none" xmlns="http://www.w3.org/2000/svg">
    <path
        d="M8 24.915C8 33.7516 15.1634 40.915 24 40.915C32.8366 40.915 40 33.7516 40 24.915C40 16.0785 32.8366 8.91504 24 8.91504C15.1634 8.91504 8 16.0785 8 24.915Z"
        stroke="#F42060" stroke-width="1.4" stroke-linecap="round" stroke-linejoin="round" />
    <path
        d="M23.5462 17.8355L23.9999 27.4786L24.4528 17.8394C24.4556 17.7778 24.4458 17.7163 24.424 17.6586C24.4022 17.6009 24.3689 17.5482 24.3261 17.5038C24.2832 17.4594 24.2318 17.4242 24.1749 17.4004C24.118 17.3766 24.0568 17.3646 23.9952 17.3652C23.9346 17.3658 23.8747 17.3785 23.8191 17.4026C23.7635 17.4267 23.7133 17.4618 23.6714 17.5056C23.6296 17.5494 23.5969 17.6012 23.5754 17.6579C23.5539 17.7145 23.544 17.7749 23.5462 17.8355Z"
        fill="#F42060" stroke="#F42060" stroke-linecap="round" stroke-linejoin="round" />
    <path fill-rule="evenodd" clip-rule="evenodd"
        d="M23.9927 17.1152C24.0884 17.1143 24.1833 17.1329 24.2715 17.1698C24.3597 17.2068 24.4395 17.2614 24.506 17.3302C24.5724 17.3991 24.6241 17.4807 24.6579 17.5702C24.6917 17.6597 24.7069 17.7552 24.7026 17.8508L24.2496 27.4903C24.2434 27.6237 24.1334 27.7286 23.9999 27.7286C23.8664 27.7286 23.7565 27.6237 23.7502 27.4904L23.2965 17.8472L23.5462 17.8355L23.2964 17.8446C23.2929 17.7507 23.3083 17.657 23.3417 17.5691C23.3751 17.4813 23.4257 17.401 23.4906 17.333C23.5555 17.265 23.6334 17.2107 23.7196 17.1733C23.8059 17.1359 23.8987 17.1161 23.9927 17.1152ZM23.9976 17.6152C23.9704 17.6154 23.9435 17.6212 23.9186 17.632C23.8936 17.6428 23.871 17.6585 23.8523 17.6782C23.8335 17.6979 23.8188 17.7211 23.8092 17.7466C23.7996 17.7717 23.7952 17.7985 23.796 17.8253L23.796 17.8263L23.9997 22.1556L24.2031 17.8281C24.2043 17.8005 24.1999 17.7728 24.1901 17.7469C24.1804 17.721 24.1654 17.6973 24.1462 17.6774C24.1269 17.6575 24.1038 17.6417 24.0783 17.631C24.0528 17.6203 24.0253 17.6149 23.9976 17.6152Z"
        fill="#F42060" />
    <path
        d="M23.9927 17.1152C24.0884 17.1143 24.1833 17.1329 24.2715 17.1698C24.3597 17.2068 24.4395 17.2614 24.506 17.3302C24.5724 17.3991 24.6241 17.4807 24.6579 17.5702C24.6917 17.6597 24.7069 17.7552 24.7026 17.8508L24.2496 27.4903C24.2434 27.6237 24.1334 27.7286 23.9999 27.7286C23.8664 27.7286 23.7565 27.6237 23.7502 27.4904L23.2965 17.8472L23.5462 17.8355L23.2964 17.8446C23.2929 17.7507 23.3083 17.657 23.3417 17.5691C23.3751 17.4813 23.4257 17.401 23.4906 17.333C23.5555 17.265 23.6334 17.2107 23.7196 17.1733C23.8059 17.1359 23.8987 17.1161 23.9927 17.1152ZM23.9927 17.1152L23.9952 17.3655M24.2031 17.8281L23.9997 22.1556L23.796 17.8263L23.796 17.8253C23.7952 17.7985 23.7996 17.7717 23.8092 17.7466C23.8188 17.7211 23.8335 17.6979 23.8523 17.6782C23.871 17.6585 23.8936 17.6428 23.9186 17.632C23.9435 17.6212 23.9704 17.6154 23.9976 17.6152C24.0253 17.6149 24.0528 17.6203 24.0783 17.631C24.1038 17.6417 24.1269 17.6575 24.1462 17.6774C24.1654 17.6973 24.1804 17.721 24.1901 17.7469C24.1999 17.7728 24.2043 17.8005 24.2031 17.8281ZM24.2031 17.8281V17.8281Z"
        stroke="#F42060" stroke-linecap="round" stroke-linejoin="round" />
    <path
        d="M24.0003 31.4649C23.8618 31.4649 23.7265 31.4238 23.6114 31.3469C23.4963 31.27 23.4066 31.1607 23.3536 31.0328C23.3006 30.9048 23.2867 30.7641 23.3137 30.6283C23.3408 30.4925 23.4074 30.3678 23.5053 30.2699C23.6032 30.172 23.7279 30.1053 23.8637 30.0783C23.9995 30.0513 24.1403 30.0652 24.2682 30.1182C24.3961 30.1711 24.5054 30.2609 24.5823 30.376C24.6592 30.4911 24.7003 30.6264 24.7003 30.7649C24.7003 30.9505 24.6265 31.1286 24.4953 31.2599C24.364 31.3911 24.1859 31.4649 24.0003 31.4649Z"
        fill="#F42060" stroke="#F42060" />
</svg>