<svg width="26" height="26" viewBox="0 0 26 26" fill="none" xmlns="http://www.w3.org/2000/svg">
    <path
        d="M12.7641 0.00390625C5.71586 0.00390625 0 5.74211 0 12.8207C0 18.4823 3.65738 23.2854 8.73177 24.9817C9.37005 25.0998 9.60303 24.704 9.60303 24.3641C9.60303 24.0594 9.59186 23.2535 9.58548 22.1844C6.035 22.9583 5.28502 20.4658 5.28502 20.4658C4.70577 18.985 3.86802 18.5908 3.86802 18.5908C2.70793 17.7962 3.95419 17.8121 3.95419 17.8121C5.23555 17.9031 5.90894 19.1334 5.90894 19.1334C7.04829 21.0913 8.89772 20.5264 9.62537 20.1977C9.74026 19.3695 10.0706 18.8047 10.436 18.4839C7.602 18.16 4.6212 17.0605 4.6212 12.1505C4.6212 10.7511 5.11906 9.60694 5.93607 8.71014C5.80363 8.38621 5.3664 7.08251 6.06054 5.31924C6.06054 5.31924 7.13286 4.97457 9.57112 6.63252C10.5892 6.34848 11.6807 6.20646 12.7673 6.20167C13.8508 6.20806 14.9439 6.34848 15.9636 6.63411C18.4002 4.97616 19.4709 5.32084 19.4709 5.32084C20.1667 7.0857 19.7295 8.38781 19.5986 8.71174C20.4172 9.60853 20.9103 10.7527 20.9103 12.1521C20.9103 17.0749 17.9263 18.1584 15.0827 18.4759C15.5407 18.8717 15.9492 19.6536 15.9492 20.8488C15.9492 22.5626 15.9332 23.9445 15.9332 24.3641C15.9332 24.7072 16.163 25.1061 16.8109 24.9801C21.8773 23.2822 25.5315 18.4807 25.5315 12.8207C25.5315 5.74211 19.8156 0.00390625 12.7641 0.00390625Z"
        fill="white" />
</svg>