<svg viewBox="0 0 43 42" fill="none" xmlns="http://www.w3.org/2000/svg">
    <path
        d="M0.203125 6C0.203125 2.68629 2.88942 0 6.20313 0H36.2031C39.5168 0 42.2031 2.68629 42.2031 6V36C42.2031 39.3137 39.5168 42 36.2031 42H6.20312C2.88942 42 0.203125 39.3137 0.203125 36V6Z"
        fill="white" />
    <path
        d="M14.5148 32.169V16.3682H9.26298V32.169H14.5148ZM11.8896 14.2096C13.721 14.2096 14.8609 12.9963 14.8609 11.4801C14.8268 9.92964 13.7211 8.75 11.9243 8.75C10.1279 8.75 8.95312 9.92966 8.95312 11.4801C8.95312 12.9964 10.0928 14.2096 11.8553 14.2096H11.8894H11.8896ZM17.4217 32.169H22.6735V23.3451C22.6735 22.8728 22.7077 22.4011 22.8463 22.0635C23.226 21.12 24.0901 20.1427 25.5409 20.1427C27.4413 20.1427 28.2016 21.5917 28.2016 23.7158V32.1688H33.4531V23.1089C33.4531 18.2555 30.8621 15.9973 27.4068 15.9973C24.5736 15.9973 23.3297 17.5809 22.6386 18.6595H22.6736V16.3679H17.4218C17.4907 17.8506 17.4218 32.1686 17.4218 32.1686L17.4217 32.169Z"
        fill="#0D102B" />
</svg>