<svg width="26" height="25" viewBox="0 0 26 25" fill="none" xmlns="http://www.w3.org/2000/svg">
    <path
        d="M6.23093 24.5039V8.31115H0.848794V24.5039H6.23093ZM3.54056 6.09897C5.41741 6.09897 6.58565 4.85556 6.58565 3.3017C6.55068 1.71281 5.41748 0.503906 3.57617 0.503906C1.73516 0.503906 0.53125 1.71283 0.53125 3.3017C0.53125 4.85563 1.69921 6.09897 3.50542 6.09897H3.54039H3.54056ZM9.20993 24.5039H14.5921V15.4611C14.5921 14.9771 14.627 14.4937 14.7692 14.1477C15.1583 13.1808 16.0438 12.1793 17.5306 12.1793C19.4782 12.1793 20.2573 13.6642 20.2573 15.841V24.5038H25.6391V15.219C25.6391 10.2452 22.9839 7.93099 19.4427 7.93099C16.5393 7.93099 15.2645 9.55391 14.5563 10.6593H14.5922V8.31081H9.21005C9.28068 9.83025 9.21005 24.5036 9.21005 24.5036L9.20993 24.5039Z"
        fill="white" />
</svg>