<svg viewBox="0 0 43 42" fill="none" xmlns="http://www.w3.org/2000/svg">
    <path
        d="M0.203125 6C0.203125 2.68629 2.88942 0 6.20313 0H36.2031C39.5168 0 42.2031 2.68629 42.2031 6V36C42.2031 39.3137 39.5168 42 36.2031 42H6.20312C2.88942 42 0.203125 39.3137 0.203125 36V6Z"
        fill="white" />
    <path
        d="M33.4531 12.8556C32.552 13.2555 31.5841 13.5258 30.5664 13.6473C31.605 13.0254 32.4007 12.0398 32.7764 10.8669C31.7898 11.4528 30.71 11.8654 29.584 12.0865C28.6677 11.1098 27.361 10.5 25.9153 10.5C23.1405 10.5 20.8901 12.7495 20.8901 15.5259C20.8901 15.9193 20.9344 16.3031 21.0196 16.6716C16.8425 16.4617 13.1392 14.4608 10.6603 11.4204C10.2275 12.163 9.97975 13.0263 9.97975 13.9474C9.97975 15.6909 10.8672 17.2292 12.2155 18.1303C11.4173 18.1056 10.6366 17.8901 9.93868 17.5019V17.5654C9.93868 20.0008 11.6709 22.0315 13.9702 22.4933C13.5479 22.609 13.1046 22.6695 12.646 22.6695C12.3217 22.6695 12.0072 22.6388 11.6999 22.581C12.3395 24.5771 14.1956 26.0301 16.3943 26.0711C14.6742 27.4195 12.5068 28.2233 10.1527 28.2233C9.74724 28.2233 9.34652 28.1991 8.95312 28.1517C11.1777 29.5781 13.819 30.4108 16.6574 30.4108C25.9017 30.4108 30.9574 22.7524 30.9574 16.1109C30.9574 15.8929 30.9526 15.6765 30.9421 15.4608C31.9271 14.7483 32.7774 13.8662 33.4531 12.8556Z"
        fill="#0D102B" />
</svg>