<svg width="28" height="23" viewBox="0 0 28 23" fill="none" xmlns="http://www.w3.org/2000/svg">
    <path
        d="M27.7103 3.10669C26.7146 3.54853 25.6451 3.84722 24.5207 3.98148C25.6683 3.29428 26.5474 2.20531 26.9626 0.909259C25.8724 1.55673 24.6794 2.01255 23.4352 2.25692C22.4227 1.1777 20.979 0.503906 19.3816 0.503906C16.3156 0.503906 13.8291 2.98942 13.8291 6.0572C13.8291 6.49187 13.8781 6.91593 13.9722 7.32308C9.35677 7.09112 5.2649 4.88028 2.52599 1.52091C2.04774 2.34136 1.77399 3.29528 1.77399 4.31307C1.77399 6.23948 2.75451 7.93917 4.24438 8.93481C3.3624 8.90748 2.49978 8.66941 1.72862 8.24051V8.31069C1.72862 11.0016 3.64255 13.2453 6.18319 13.7556C5.71648 13.8835 5.22669 13.9503 4.71998 13.9503C4.36172 13.9503 4.01415 13.9164 3.6746 13.8525C4.38129 16.058 6.43221 17.6635 8.8616 17.7088C6.961 19.1987 4.56616 20.0868 1.96509 20.0868C1.51709 20.0868 1.07432 20.0601 0.639648 20.0077C3.09764 21.5838 6.01611 22.5039 9.15234 22.5039C19.3665 22.5039 24.9527 14.0419 24.9527 6.70354C24.9527 6.46262 24.9474 6.2235 24.9358 5.98523C26.0242 5.19801 26.9637 4.22328 27.7103 3.10669Z"
        fill="white" />
</svg>