<svg viewBox="0 0 80 80" fill="none" xmlns="http://www.w3.org/2000/svg">
    <rect width="80" height="80" rx="16" fill="#F9F9FB" />
    <g clip-path="url(#clip0_4795_48752)">
        <path fill-rule="evenodd" clip-rule="evenodd"
            d="M40.0004 29.6348H22.6395C21.1818 29.6348 20 30.8165 20 32.2743V45.6393C20 47.0971 21.1818 48.2788 22.6395 48.2788H29.3217V51.0088H28.2763C28.0002 51.0088 27.7763 51.2326 27.7763 51.5088C27.7763 51.7849 28.0002 52.0088 28.2763 52.0088H36.6444C36.9205 52.0088 37.1444 51.7849 37.1444 51.5088C37.1444 51.2326 36.9205 51.0088 36.6444 51.0088H35.5978V48.2788H40.0004V46.2788H22.6395C22.2863 46.2788 22 45.9925 22 45.6393V32.2743C22 31.9211 22.2863 31.6348 22.6395 31.6348H40.0004V29.6348Z"
            fill="#0D102B" />
        <path fill-rule="evenodd" clip-rule="evenodd"
            d="M40 57.8916C40.1942 57.9378 40.3969 57.9623 40.6053 57.9623H55.5673C57.0061 57.9623 58.1725 56.7959 58.1725 55.357V24.2225C58.1725 22.7836 57.0061 21.6172 55.5673 21.6172H40.6053C40.3969 21.6172 40.1942 21.6417 40 21.6879V24.2224C40 23.8882 40.271 23.6172 40.6053 23.6172H44.1105C44.067 23.7293 44.0431 23.8512 44.0431 23.9787V24.4046C44.0431 24.9569 44.4908 25.4046 45.0431 25.4046H51.1294C51.6817 25.4046 52.1294 24.9569 52.1294 24.4046V23.9787C52.1294 23.8512 52.1055 23.7293 52.062 23.6172H55.5673C55.9016 23.6172 56.1725 23.8882 56.1725 24.2225V55.357C56.1725 55.6913 55.9016 55.9623 55.5673 55.9623H40.6053C40.271 55.9623 40 55.6913 40 55.357V57.8916ZM44.0431 53.9099C43.7089 53.9099 43.4379 54.1809 43.4379 54.5152C43.4379 54.8495 43.7089 55.1205 44.0431 55.1205H52.1294C52.4637 55.1205 52.7347 54.8495 52.7347 54.5152C52.7347 54.1809 52.4637 53.9099 52.1294 53.9099H44.0431Z"
            fill="#0D102B" />
        <path d="M40 16V64.5" stroke="#0D102B" stroke-width="2" />
    </g>
    <defs>
        <clipPath id="clip0_4795_48752">
            <rect width="48" height="48" fill="white" transform="translate(16 16)" />
        </clipPath>
    </defs>
</svg>