<svg viewBox="0 0 512 512" >
    <path class="st0" d="M220.4 388.6C127.5 388.6 52 313.1 52 220.2S127.5 51.8 220.4 51.8s168.4 75.6 168.4 168.4c0 34-10.2 65.5-27.6 92l24.1 24.1 22.6-1.2c20.6-33.5 32.7-72.8 32.7-114.9C440.6 98.8 341.8 0 220.4 0S.2 98.8.2 220.2C.2 341.6 99 440.4 220.4 440.4c42.1 0 81.4-12.1 114.9-32.7l1.2-22.6-24.1-24.1c-26.5 17.4-58.1 27.6-92 27.6z"/><path class="st0" d="M332 282.9c10.5-18.6 16.5-39.9 16.5-62.7 0-70.6-57.5-128.1-128.1-128.1S92.3 149.6 92.3 220.2s57.5 128.1 128.1 128.1c22.8 0 44.2-6.1 62.7-16.5l-39.3-39.3c-7.4 2.5-15.2 4.1-23.4 4.1-42.1 0-76.3-34.2-76.3-76.3s34.2-76.3 76.3-76.3c42.1 0 76.3 34.2 76.3 76.3 0 8.2-1.7 16-4 23.4l39.3 39.2z"/>
    <path class="st0" d="M237.6 202.9c6.9 0 13.5 2 19.2 5.8-4.9-15.6-19.3-26.9-36.4-26.9-21.2 0-38.4 17.2-38.4 38.4 0 17.2 11.4 31.6 27 36.4-9-13.4-7.6-31.7 4.3-43.6 6.5-6.5 15.1-10.1 24.3-10.1z"/>
    <path class="st0" d="M507.8 429.6l-73.9-74c-2.6-2.6-6.1-4-9.8-4h-.7l-44.8 2.4-128.8-128.7c-3.4-3.4-7.8-5.1-12.2-5.1-4.4 0-8.8 1.7-12.2 5.1-6.8 6.8-6.8 17.7 0 24.4l128.7 128.7-2.4 44.8c-.2 3.9 1.2 7.7 4 10.5L430 508c2.6 2.6 6.2 4 9.8 4 1.3 0 2.5-.2 3.8-.5 4.8-1.4 8.6-5.3 9.7-10.1l7.5-31.6c1.2-5.2 5.3-9.2 10.5-10.3l29.6-6.5c5-1.1 8.9-4.8 10.3-9.7 1.5-4.9.2-10.1-3.4-13.7z"/>
</svg>