<svg xmlns="http://www.w3.org/2000/svg" viewBox="0 0 512 512">
    <path d="M176.94 328.852C188.073 317.953 195 302.773 195 286c0-33.084-26.916-60-60-60s-60 26.916-60 60c0 16.773 6.927 31.953 18.06 42.852C73.127 342.346 60 365.169 60 391v30c0 8.284 6.716 15 15 15h120c8.284 0 15-6.716 15-15v-30c0-25.831-13.127-48.654-33.06-62.148zM135 256c16.542 0 30 13.458 30 30s-13.458 30-30 30-30-13.458-30-30 13.458-30 30-30zm45 150H90v-15c0-24.813 20.187-45 45-45s45 20.187 45 45v15z"/>
    <circle cx="347" cy="301" r="15"/>
    <circle cx="407" cy="301" r="15"/>
    <circle cx="287" cy="301" r="15"/>
    <path d="M407 346H287c-8.284 0-15 6.716-15 15s6.716 15 15 15h120c8.284 0 15-6.716 15-15s-6.716-15-15-15zM407 406H287c-8.284 0-15 6.716-15 15s6.716 15 15 15h120c8.284 0 15-6.716 15-15s-6.716-15-15-15zM447.606 95.394c-5.857-5.859-15.355-5.859-21.212-.001L377 144.787l-19.394-19.394c-5.857-5.858-15.355-5.858-21.213 0-5.858 5.858-5.858 15.355 0 21.213l30 30c2.929 2.93 6.768 4.394 10.607 4.394s7.678-1.464 10.606-4.393l60-60c5.858-5.858 5.858-15.355 0-21.213z"/>
    <path d="M392 16c-66.168 0-120 53.832-120 120H45c-24.813 0-45 20.187-45 45v270c0 24.813 20.187 45 45 45h392c24.813 0 45-20.187 45-45V215.279c18.66-21.158 30-48.917 30-79.279 0-66.168-53.832-120-120-120zm60 435c0 8.271-6.729 15-15 15H45c-8.271 0-15-6.729-15-15V181c0-8.271 6.729-15 15-15h230.797c13.355 51.699 60.39 90 116.203 90 21.843 0 42.339-5.869 60-16.109V451zm-60-225c-49.626 0-90-40.374-90-90s40.374-90 90-90 90 40.374 90 90-40.374 90-90 90z"/>
</svg>