<svg xmlns="http://www.w3.org/2000/svg" viewBox="0 0 512 512">
    <path d="M36.6 310.2c-4.4-17.8-6.6-36-6.6-54.2C30 131.4 131.4 30 256 30c70 0 136 33 178.5 87.8l-25.1-2.2c-8.3-.7-15.5 5.4-16.3 13.6-.7 8.3 5.4 15.5 13.6 16.3l56.6 5c.4 0 .9.1 1.3.1 7.7 0 14.2-5.9 14.9-13.7l5-56.6c.7-8.3-5.4-15.5-13.6-16.3-8.3-.7-15.5 5.4-16.3 13.6l-1.4 15.7c-19-23-41.9-42.7-67.7-58C346.5 12.2 301.7 0 256 0 187.6 0 123.3 26.6 75 75 26.6 123.3 0 187.6 0 256c0 20.6 2.5 41.3 7.5 61.4 1.7 6.8 7.8 11.4 14.6 11.4 1.2 0 2.4-.1 3.6-.4 8-2 12.9-10.1 10.9-18.2zM504.5 194.6c-2-8-10.1-13-18.2-11-8 2-13 10.1-11 18.2 4.4 17.8 6.6 36 6.6 54.2 0 124.6-101.4 226-226 226-70 0-136-33-178.5-87.8l25.1 2.2c8.3.7 15.5-5.4 16.3-13.6.7-8.3-5.4-15.5-13.6-16.3l-56.6-5c-8.3-.7-15.5 5.4-16.3 13.6l-5 56.6c-.6 8.3 5.5 15.6 13.7 16.3.4 0 .9.1 1.3.1 7.7 0 14.2-5.9 14.9-13.7l1.4-15.8c19 23.1 41.9 42.8 67.7 58 39.1 23.1 84 35.3 129.7 35.3 68.4 0 132.7-26.6 181-75 48.4-48.4 75-112.6 75-181 0-20.5-2.5-41.2-7.5-61.3z"/>
    <path d="M256 91c-91 0-165 74-165 165s74 165 165 165 165-74 165-165S347 91 256 91zm134.2 150H376c-8.3 0-15 6.7-15 15s6.7 15 15 15h14.2c-1.5 13.8-5.1 26.9-10.5 39.1l-12.3-7.1c-7.2-4.1-16.3-1.7-20.5 5.5s-1.7 16.3 5.5 20.5l12.2 7.1c-8.1 10.9-17.7 20.5-28.6 28.6l-7.1-12.2c-4.1-7.2-13.3-9.6-20.5-5.5s-9.6 13.3-5.5 20.5l7.1 12.3c-12.2 5.4-25.3 9-39.1 10.5V376c0-8.3-6.7-15-15-15s-15 6.7-15 15v14.2c-13.8-1.5-26.9-5.1-39.1-10.5l7.1-12.3c4.1-7.2 1.7-16.3-5.5-20.5s-16.3-1.7-20.5 5.5l-7.1 12.2c-10.9-8.1-20.5-17.7-28.6-28.6l12.2-7.1c7.2-4.1 9.6-13.3 5.5-20.5-4.1-7.2-13.3-9.6-20.5-5.5l-12.3 7.1c-5.4-12.2-9-25.3-10.5-39.1H136c8.3 0 15-6.7 15-15s-6.7-15-15-15h-14.2c1.5-13.8 5.1-26.9 10.5-39.1l12.3 7.1c7.2 4.1 16.3 1.7 20.5-5.5 4.1-7.2 1.7-16.3-5.5-20.5l-12.2-7.1c8.1-10.9 17.7-20.5 28.6-28.6l7.1 12.2c4.1 7.2 13.3 9.6 20.5 5.5 7.2-4.1 9.6-13.3 5.5-20.5l-7.1-12.3c12.2-5.4 25.3-9 39.1-10.5V136c0 8.3 6.7 15 15 15s15-6.7 15-15v-14.2c13.8 1.5 26.9 5.1 39.1 10.5l-7.1 12.3c-4.1 7.2-1.7 16.3 5.5 20.5s16.3 1.7 20.5-5.5l7.1-12.2c10.9 8.1 20.5 17.7 28.6 28.6l-12.2 7.1c-7.2 4.1-9.6 13.3-5.5 20.5 4.1 7.2 13.3 9.6 20.5 5.5l12.3-7.1c5.1 12.1 8.7 25.2 10.3 39z"/>
    <path d="M256 181c-8.3 0-15 6.7-15 15v45h-35c-8.3 0-15 6.7-15 15s6.7 15 15 15h50c8.3 0 15-6.7 15-15v-60c0-8.3-6.7-15-15-15z"/>
</svg>