<svg fill="none" xmlns="http://www.w3.org/2000/svg" viewBox="0 0 608 360"><rect width="608" height="360" rx="16" fill="#F9F9FB"/><path d="M110.073 173.781v2.217h2.705v9.795h-2.705V188h8.223v-2.207h-2.774v-9.795h2.774v-2.217h-8.223zM121.021 188h3.818c.632 0 1.224-.078 1.777-.234a5.752 5.752 0 001.534-.674 5.222 5.222 0 001.093-.918c.332-.371.622-.775.87-1.211a6.88 6.88 0 00.605-1.611 7.85 7.85 0 00.215-1.866v-1.172c0-.683-.078-1.328-.235-1.933a6.627 6.627 0 00-.644-1.66 6.27 6.27 0 00-.85-1.133 4.637 4.637 0 00-1.093-.889 5.845 5.845 0 00-1.563-.674 6.758 6.758 0 00-1.846-.244h-3.681V188zm2.763-11.992h.918c.332 0 .638.039.918.117.287.072.547.176.782.313.306.182.572.416.8.703.235.286.424.612.567.976.117.306.205.645.263 1.016.066.364.098.752.098 1.162v1.191a7.1 7.1 0 01-.098 1.221 5.01 5.01 0 01-.263 1.016c-.143.351-.316.66-.518.927a2.793 2.793 0 01-.664.645 2.821 2.821 0 01-.801.371 3.382 3.382 0 01-.947.127h-1.055v-9.785z" fill="#0D102B"/><rect x="82" y="142" width="76" height="76" rx="12" stroke="#0D102B" stroke-width="2.4"/><path d="M200 174.927v1.054c0 2.904.882 5.741 2.528 8.134l9.311 13.531a.195.195 0 00.322 0l9.311-13.532a14.342 14.342 0 002.528-8.133v-1.053A11.93 11.93 0 00212.072 163h-.145A11.926 11.926 0 00200 174.927z" stroke="#0D102B" stroke-width="2.4"/><circle cx="212" cy="174" r="3" fill="#0D102B"/><rect x="174" y="142" width="76" height="76" rx="12" stroke="#0D102B" stroke-width="2.4"/><path d="M314.995 166.435a.907.907 0 01-.44-.114 23.142 23.142 0 00-21.036 0 .978.978 0 01-1.286-.358.875.875 0 01-.071-.686.882.882 0 01.444-.525 25.15 25.15 0 0122.818-.028.846.846 0 01.465.517.867.867 0 01-.07.694.945.945 0 01-.824.5zm-27.032 9.422c-.2 0-.396-.057-.564-.165a.875.875 0 01-.253-.247.873.873 0 01.027-1.004 19.342 19.342 0 017.097-5.868 22.856 22.856 0 019.736-2.179c3.365 0 6.689.744 9.737 2.179a19.363 19.363 0 017.085 5.811.89.89 0 01.158.679.883.883 0 01-.389.577.972.972 0 01-1.32-.244 17.558 17.558 0 00-6.403-5.271 20.854 20.854 0 00-8.876-1.985c-3.067 0-6.097.678-8.876 1.985a17.655 17.655 0 00-6.414 5.351.84.84 0 01-.739.381h-.006zm11.807 21.657a.941.941 0 01-.666-.273 17.981 17.981 0 01-3.791-4.737 15.237 15.237 0 01-1.985-7.783c0-5.328 4.795-9.666 10.718-9.666s10.662 4.321 10.662 9.666c0 .253-.1.496-.278.675a.946.946 0 01-1.618-.675c0-4.35-3.949-7.887-8.789-7.887s-8.806 3.537-8.806 7.887a13.493 13.493 0 001.755 6.902 16.82 16.82 0 003.497 4.338.884.884 0 01.271.64.884.884 0 01-.271.64 1.126 1.126 0 01-.699.273zm13.539-3.327a10.57 10.57 0 01-5.856-1.592 9.373 9.373 0 01-3.263-3.351 9.47 9.47 0 01-1.25-4.523c0-.252.099-.494.276-.672a.939.939 0 011.332 0c.177.178.276.42.276.672a7.664 7.664 0 001.022 3.673 7.594 7.594 0 002.662 2.712 8.62 8.62 0 004.801 1.273c.657-.01 1.314-.069 1.963-.176a.946.946 0 01.716.129.941.941 0 01.412.605.915.915 0 01-.169.687.884.884 0 01-.609.353c-.746.131-1.5.201-2.257.21h-.056zm-3.791 3.702a.836.836 0 01-.248-.04 14.925 14.925 0 01-7.024-3.758 12.767 12.767 0 01-3.027-4.252 12.835 12.835 0 01-1.079-5.118c0-2.906 2.611-5.282 5.821-5.282 3.21 0 5.816 2.376 5.816 5.282 0 1.91 1.755 3.479 3.949 3.479 2.195 0 3.949-1.569 3.949-3.479 0-6.772-6.143-12.259-13.691-12.259-5.365 0-10.278 2.843-12.49 7.232a11.085 11.085 0 00-1.128 5.027 16.932 16.932 0 001.269 6.476.885.885 0 01-.037.692.872.872 0 01-.527.445.956.956 0 01-1.235-.512 19.241 19.241 0 01-1.36-7.101 12.856 12.856 0 011.281-5.817c2.51-5.003 8.084-8.25 14.182-8.25 8.591 0 15.575 6.294 15.575 14.05 0 2.905-2.601 5.27-5.816 5.27-3.216 0-5.81-2.365-5.81-5.27 0-1.922-1.761-3.48-3.949-3.48-2.189 0-3.949 1.558-3.949 3.48.004 1.525.325 3.032.941 4.426a10.949 10.949 0 002.635 3.664 13.011 13.011 0 006.172 3.315.865.865 0 01.321.145.876.876 0 01.362.592.885.885 0 01-.018.355.927.927 0 01-.885.688z" fill="#0D102B"/><rect x="266" y="142" width="76" height="76" rx="12" stroke="#0D102B" stroke-width="2.4"/><path d="M377 191.835h38m-5 0l-1.91-22.918a1 1 0 00-1.161-.903l-10.765 1.794c-.108.018-.22.018-.328 0l-10.765-1.794a1 1 0 00-1.161.903L382 191.835h28z" stroke="#0D102B" stroke-width="2.4"/><rect x="358" y="142" width="76" height="76" rx="12" stroke="#0D102B" stroke-width="2.4"/><path d="M474.644 187v-12.797h-.132l-5.573 2.013v2.127l3.235-1.16V187h2.47zm12.797-4.869v-3.059c0-.826-.097-1.552-.29-2.179-.194-.633-.469-1.164-.826-1.591a3.52 3.52 0 00-1.319-.958c-.515-.217-1.096-.325-1.74-.325-.639 0-1.216.108-1.732.325a3.454 3.454 0 00-1.3.958c-.364.427-.642.958-.835 1.591-.194.627-.29 1.353-.29 2.179v3.059c0 .826.096 1.556.29 2.188.199.627.48 1.152.844 1.574.357.427.793.75 1.309.966a4.426 4.426 0 001.732.326c.644 0 1.224-.109 1.74-.326a3.396 3.396 0 001.309-.966c.358-.422.63-.947.818-1.574.193-.632.29-1.362.29-2.188zm-5.871-1.055v-2.39c0-.475.035-.885.105-1.231.076-.346.191-.627.343-.844.141-.205.313-.357.518-.457a1.62 1.62 0 01.73-.158c.246 0 .466.041.659.123.199.076.366.196.501.36.176.206.308.481.396.827.093.34.146.75.158 1.23l-3.41 2.54zm3.41 1.424c0 .475-.038.888-.114 1.239-.071.346-.179.63-.326.853a1.35 1.35 0 01-.527.474c-.211.1-.454.15-.729.15-.299 0-.557-.059-.774-.176a1.386 1.386 0 01-.536-.536 2.505 2.505 0 01-.29-.747 5.63 5.63 0 01-.114-1.028l3.41-2.532v2.303zm12.911-.369v-3.059c0-.826-.096-1.552-.29-2.179-.193-.633-.468-1.164-.826-1.591a3.516 3.516 0 00-1.318-.958c-.516-.217-1.096-.325-1.741-.325-.638 0-1.215.108-1.731.325-.51.217-.943.536-1.301.958-.363.427-.641.958-.835 1.591-.193.627-.29 1.353-.29 2.179v3.059c0 .826.097 1.556.29 2.188.2.627.481 1.152.844 1.574.357.427.794.75 1.31.966a4.418 4.418 0 001.731.326c.645 0 1.225-.109 1.74-.326a3.4 3.4 0 001.31-.966c.357-.422.63-.947.817-1.574.194-.632.29-1.362.29-2.188zm-5.871-1.055v-2.39c0-.475.035-.885.106-1.231.076-.346.19-.627.342-.844.141-.205.314-.357.519-.457.211-.105.454-.158.729-.158.247 0 .466.041.66.123.199.076.366.196.501.36.175.206.307.481.395.827.094.34.147.75.158 1.23l-3.41 2.54zm3.41 1.424c0 .475-.038.888-.114 1.239-.07.346-.179.63-.325.853a1.363 1.363 0 01-.527.474c-.211.1-.455.15-.73.15-.299 0-.557-.059-.773-.176a1.388 1.388 0 01-.537-.536 2.532 2.532 0 01-.29-.747 5.811 5.811 0 01-.114-1.028l3.41-2.532v2.303zm9.765-2.637V176.4h-2.329v3.463h-3.225v2.233h3.225v3.621h2.329v-3.621h3.217v-2.233h-3.217z" fill="#0D102B"/><rect x="450" y="142" width="76" height="76" rx="12" stroke="#0D102B" stroke-width="2.4"/></svg>