<svg fill="none" xmlns="http://www.w3.org/2000/svg" viewBox="0 0 608 360">
    <rect width="608" height="360" rx="16" fill="#F9F9FB" />
    <rect x="90.996" y="112.971" width="66.667" height="134" rx="10.252" stroke="#0D102B" stroke-width="2" />
    <path
        d="M136.582 118.659v-1.021a1 1 0 0 1 1-1h9.411a6.292 6.292 0 0 1 6.292 6.291v114.084a6.291 6.291 0 0 1-6.292 6.291H100.91a6.29 6.29 0 0 1-6.291-6.291V122.929a6.29 6.29 0 0 1 6.291-6.291h9.649a1 1 0 0 1 1 1v1.021c0 1.658 1.352 3 3.015 3h18.993a3.008 3.008 0 0 0 3.015-3Z"
        stroke="#0D102B" stroke-width=".667" />
    <path
        d="M89 145.621c0-.261.212-.473.473-.473h.473v3.47h-.473a.473.473 0 0 1-.473-.473v-2.524ZM89 166.441c0-.261.212-.473.473-.473h.473v11.357h-.473a.473.473 0 0 1-.473-.474v-10.41ZM159.281 157.637a.473.473 0 0 0-.473-.473h-.473v18.612h.473a.473.473 0 0 0 .473-.473v-17.666ZM89 152.971c0-.262.212-.474.473-.474h.473v11.357h-.473a.473.473 0 0 1-.473-.473v-10.41Z"
        fill="#0D102B" stroke="#0D102B" stroke-width=".667" />
    <rect x="194" y="113.971" width="61.124" height="132" rx="9" stroke="#0D102B" stroke-width="2" />
    <path
        d="M256.125 143.425h.185a.37.37 0 0 1 .369.37v8.49a.37.37 0 0 1-.369.369h-.185v-9.229ZM256.125 161.329h.185a.37.37 0 0 1 .369.369v17.535a.37.37 0 0 1-.369.369h-.185v-18.273Z"
        fill="#0D102B" stroke="#0D102B" stroke-width=".667" />
    <rect x="195.882" y="122.499" width="57.356" height="119.003" rx="5.606" stroke="#0D102B" stroke-width=".6" />
    <rect x="209.759" y="118.103" width="1.548" height="1.548" rx=".774" stroke="#0D102B" stroke-width=".667" />
    <rect x="221.335" y="118.6" width="6.46" height=".554" rx=".277" stroke="#0D102B" stroke-width=".554" />
    <path d="M500.186 239.799v-123.39a5.41 5.41 0 0 0-5.41-5.409H315.577a5.41 5.41 0 0 0-5.409 5.409v123.39"
        stroke="#0D102B" stroke-width="2" />
    <path
        d="M512.266 246.557H298.085a5.41 5.41 0 0 1-5.409-5.41v-.898a.45.45 0 0 1 .451-.45h224.098a.45.45 0 0 1 .451.45v.898a5.41 5.41 0 0 1-5.41 5.41Z"
        stroke="#0D102B" stroke-width="2" />
    <path
        d="M303.805 246.557v2.385h12.721v-2.385M387.684 239.799v1.032c0 .747.605 1.353 1.352 1.353h32.278c.746 0 1.352-.606 1.352-1.353v-1.032M415.117 115.955v-1.324c0-.249.202-.451.451-.451h79.133a2.705 2.705 0 0 1 2.704 2.705v116.553H312.953V116.885a2.705 2.705 0 0 1 2.705-2.705h79.132c.249 0 .451.202.451.451v1.324c0 .996.807 1.803 1.803 1.803h16.27c.996 0 1.803-.807 1.803-1.803ZM493.824 246.557v2.385h12.721v-2.385"
        stroke="#0D102B" stroke-width=".8" />
    <circle cx="405.178" cy="114.975" r=".795" stroke="#0D102B" stroke-width=".451" />
</svg>