<svg viewBox="0 0 608 360" fill="none" xmlns="http://www.w3.org/2000/svg">
    <rect width="608" height="360" rx="16" fill="#F9F9FB" />
    <path d="M438 266a4 4 0 0 0 4-3 141 141 0 0 0 3-29.5 140.5 140.5 0 1 0-278 29.4 4 4 0 0 0 4 3.1h267z"
        stroke="#0D102B" stroke-width="3" />
    <mask id="a" style="mask-type:alpha" maskUnits="userSpaceOnUse" x="164" y="93" width="281" height="173">
        <path fill-rule="evenodd" clip-rule="evenodd"
            d="M433.8 266a9 9 0 0 0 9-7.3 141.3 141.3 0 0 0 2.2-25.2 140.5 140.5 0 1 0-278.7 25.2 9 9 0 0 0 8.9 7.3h258.6z"
            fill="#F9F9FB" />
    </mask>
    <g mask="url(#a)">
        <path
            d="M426.4 234.1a.6.6 0 1 0 0-1.2v1.2zM422 233a.6.6 0 1 0 0 1.2V233zm4.3 0H422v1.2h4.3V233zm0 4.1a.6.6 0 0 0 0-1.3v1.3zm-4.3-1.4a.6.6 0 0 0 0 1.3v-1.3zm4.2.1h-4.2v1.2l4.2.1v-1.3zm-.1 4.6a.6.6 0 0 0 0-1.2v1.2zM422 239a.6.6 0 0 0 0 1.2V239zm4.2.2-4.2-.2v1.2l4.2.2v-1.2zm-.3 4.6a.6.6 0 1 0 .1-1.3v1.3zm-4-1.6a.6.6 0 0 0-.2 1.2l.1-1.2zm4.1.3-4.2-.3v1.2l4.1.4.1-1.3zm-.3 4.1a.6.6 0 0 0 0-1.3v1.3zm-4.1-1.7a.6.6 0 0 0-.2 1.3l.2-1.3zm4.2.4-4.2-.4-.2 1.3 4.3.4v-1.3zm-.5 4.6a.6.6 0 0 0 .1-1.3l-.1 1.3zm-4-1.8a.6.6 0 0 0-.2 1.2l.1-1.2zm4.1.5-4.2-.5-.1 1.2 4.2.6.1-1.3zm-.6 4.5a.6.6 0 0 0 .2-1.3l-.2 1.3zm-4-2a.6.6 0 0 0-.2 1.3l.2-1.2zm4.2.7-4.2-.6-.2 1.2 4.2.7.2-1.3zm-.8 4.5a.6.6 0 1 0 .3-1.2l-.3 1.2zm-3.9-2a.6.6 0 0 0-.2 1.2l.2-1.2zm4.2.8-4.2-.8-.2 1.2 4.1.8.3-1.2zm-.9 4.4a.6.6 0 1 0 .3-1.3l-.3 1.3zm-3.9-2.1a.6.6 0 1 0-.2 1.2l.2-1.2zm4.2.8-4.2-.8-.2 1.2 4.1.9.3-1.3zm-1 4.4a.6.6 0 0 0 .3-1.2l-.3 1.2zm-3.8-2.2a.6.6 0 0 0-.3 1.2l.3-1.2zm4 1-4-1-.3 1.2 4 1 .4-1.2zm-1 4.3a.6.6 0 1 0 .3-1.2l-.3 1.2zm-3.8-2.3a.6.6 0 1 0-.3 1.2l.3-1.2zm4.1 1.1-4-1.1-.4 1.2 4 1.1.4-1.2zm-235 3a.6.6 0 0 0 .4 1.2l-.4-1.2zm4.5 0a.6.6 0 1 0-.4-1.2l.4 1.2zm-4.1 1.2 4-1.2-.3-1.2-4 1.2.3 1.2zm-1.2-4.3a.6.6 0 0 0 .3 1.2l-.3-1.2zm4.4.1a.6.6 0 0 0-.3-1.2l.3 1.2zm-4 1.1 4-1-.3-1.3-4.1 1 .3 1.3zm-1.2-4.3a.6.6 0 0 0 .3 1.2l-.3-1.2zm4.4.2a.6.6 0 1 0-.3-1.2l.3 1.2zm-4 1 4-1-.3-1.2-4 1 .2 1.2zm-1-4.4a.6.6 0 1 0 .2 1.3l-.3-1.3zm4.3.4a.6.6 0 0 0-.2-1.2l.2 1.2zm-4.1.9 4.1-.9-.2-1.2-4.2.8.3 1.3zm-.9-4.4a.6.6 0 0 0 .3 1.2l-.3-1.2zm4.4.5a.6.6 0 1 0-.2-1.3l.2 1.3zm-4.1.7 4.1-.7-.2-1.3-4.2.8.3 1.2zm-.8-4.4a.6.6 0 1 0 .2 1.2l-.2-1.2zm4.4.6a.6.6 0 0 0-.2-1.3l.2 1.3zm-4.2.6 4.2-.6-.2-1.3-4.2.7.2 1.2zm-.6-4.5a.6.6 0 0 0 .1 1.3l-.1-1.3zm4.3.8a.6.6 0 0 0-.1-1.3l.1 1.3zm-4.2.5 4.2-.5-.1-1.3-4.2.5.1 1.3zm-.5-4.5a.6.6 0 0 0 .1 1.3v-1.3zm4.4.8a.6.6 0 1 0-.2-1.2l.2 1.2zm-4.3.5 4.3-.5-.2-1.2-4.2.4.1 1.3zm-.3-4.2a.6.6 0 0 0 0 1.3v-1.3zm4.3 1a.6.6 0 0 0-.1-1.3l.1 1.3zm-4.2.3 4.2-.3-.1-1.3-4.2.3v1.3zm-.3-4.5a.6.6 0 0 0 0 1.2v-1.2zm4.3 1a.6.6 0 1 0 0-1.3v1.3zm-4.2.2 4.2-.2v-1.3l-4.3.3v1.2zm-.2-4.6a.6.6 0 1 0 0 1.3v-1.3zm4.2 1.2a.6.6 0 1 0 0-1.3v1.3zm-4.2.1h4.2v-1.4l-4.2.1v1.3zm0-5.1a.6.6 0 1 0 0 1.3v-1.3zm4.2 1.3a.6.6 0 0 0 0-1.3v1.3zm-4.2 0h4.2V232h-4.2v1.3zm0-4.2a.6.6 0 0 0 0 1.3V229zm4.2 1.4a.6.6 0 1 0 0-1.2v1.2zm-4.2 0h4.2v-1.2l-4.2-.2v1.3zm.2-4.7a.6.6 0 0 0 0 1.3v-1.3zm4.2 1.5a.6.6 0 0 0 0-1.2v1.2zm-4.3-.2 4.3.2V226l-4.2-.3v1.3zm.4-4.6a.6.6 0 1 0-.1 1.3v-1.3zm4 1.6a.6.6 0 0 0 .2-1.2l-.1 1.2zm-4.1-.3 4.2.3v-1.2l-4.1-.4-.1 1.3zm.3-4a.6.6 0 0 0-.1 1.2l.1-1.3zm22.5 3.6a.6.6 0 0 0 .1-1.2l-.1 1.2zm-22.6-2.4 22.6 2.4.1-1.2-22.6-2.5-.1 1.3zm.6-4.5a.6.6 0 0 0-.2 1.2l.2-1.2zm4 1.8a.6.6 0 0 0 .2-1.3l-.2 1.3zm-4.2-.6 4.2.6.2-1.3-4.2-.5-.2 1.2zm.6-4.5a.6.6 0 1 0-.2 1.3l.2-1.3zm4 2a.6.6 0 0 0 .2-1.3l-.2 1.3zm-4.2-.7 4.2.7.2-1.3-4.2-.7-.2 1.3zm.8-4.5a.6.6 0 1 0-.2 1.3l.2-1.3zm4 2a.6.6 0 1 0 .2-1.2l-.2 1.3zm-4.2-.7 4.2.8.2-1.3-4.2-.8-.2 1.3zm.9-4.4a.6.6 0 1 0-.3 1.2l.3-1.2zm3.9 2.1a.6.6 0 1 0 .2-1.2l-.2 1.2zm-4.2-.9 4.2 1 .2-1.3-4.1-1-.3 1.3zm1-4.4a.6.6 0 0 0-.3 1.3l.4-1.3zm3.9 2.3a.6.6 0 1 0 .3-1.3l-.3 1.3zm-4.2-1 4.2 1 .3-1.3-4.1-1-.4 1.3zm1.2-4.4a.6.6 0 0 0-.4 1.2l.4-1.2zm3.7 2.4a.6.6 0 0 0 .4-1.3l-.4 1.3zm-4-1.2 4 1.2.4-1.3-4.1-1-.4 1.1zm1.2-4.3a.6.6 0 0 0-.4 1.3l.4-1.3zm3.7 2.5a.6.6 0 0 0 .3-1.2l-.3 1.2zm-4-1.2 4 1.2.3-1.2-4-1.3-.4 1.3zm1.3-4.3a.6.6 0 0 0-.4 1.2l.4-1.2zm3.6 2.5a.6.6 0 0 0 .4-1.2l-.4 1.2zm-4-1.3 4 1.3.4-1.2-4-1.3-.4 1.2zm1.4-4.2a.6.6 0 0 0-.4 1.2l.4-1.2zm3.6 2.6a.6.6 0 0 0 .4-1.2l-.4 1.2zm-4-1.4 4 1.4.4-1.2-4-1.4-.4 1.2zm1.6-4.2a.6.6 0 0 0-.5 1.2l.5-1.2zm3.4 2.8a.6.6 0 1 0 .5-1.2l-.5 1.2zm-4-1.6 4 1.6.5-1.2-4-1.6-.4 1.2zm1.8-4a.6.6 0 1 0-.5 1l.5-1zm3.4 2.7a.6.6 0 0 0 .5-1.1l-.5 1.1zm-4-1.6 4 1.6.5-1.1-4-1.7-.4 1.2zm1.8-4a.6.6 0 1 0-.5 1.1l.5-1.2zm3.4 2.9a.6.6 0 0 0 .5-1.2l-.5 1.2zm-3.9-1.8 3.9 1.8.5-1.2-3.9-1.8-.5 1.2zm1.9-4a.6.6 0 1 0-.6 1.2l.6-1.2zm3.3 3a.6.6 0 1 0 .5-1.1l-.5 1.1zm-3.9-1.8 3.9 1.8.5-1.1-3.8-1.9-.6 1.2zm2-4a.6.6 0 0 0-.6 1.1l.6-1zm3.2 3.1a.6.6 0 0 0 .6-1.1l-.6 1.1zm-3.8-2 3.8 2 .6-1.1-3.8-2-.6 1.1zm2-3.8a.6.6 0 1 0-.5 1l.6-1zm3.2 3.1a.6.6 0 1 0 .6-1l-.6 1zm-3.7-2 3.7 2 .6-1-3.7-2.1-.6 1zm2.1-3.8a.6.6 0 1 0-.6 1l.6-1zm19.7 12.2a.6.6 0 1 0 .6-1l-.6 1zM199 172.7l20.3 11.1.6-1-20.3-11.2-.6 1zm2.3-3.8a.6.6 0 1 0-.7 1.1l.7-1zm2.9 3.3a.6.6 0 0 0 .7-1l-.7 1zm-3.6-2.2 3.6 2.2.7-1-3.6-2.3-.7 1.1zm2.3-3.7a.6.6 0 1 0-.7 1l.7-1zm2.9 3.4a.6.6 0 0 0 .7-1l-.7 1zm-3.6-2.3 3.6 2.3.7-1-3.6-2.4-.7 1zm2.9-4.2a.6.6 0 0 0-.8 1l.8-1zm2.7 3.5a.6.6 0 1 0 .7-1l-.7 1zm-3.5-2.5 3.5 2.5.7-1-3.4-2.5-.8 1zm2.6-3.5a.6.6 0 0 0-.8 1l.8-1zm2.6 3.5a.6.6 0 1 0 .8-1l-.8 1zm-3.4-2.5 3.4 2.5.8-1-3.4-2.5-.8 1zm2.7-3.4a.6.6 0 1 0-.8 1l.8-1zm2.5 3.6a.6.6 0 1 0 .8-1l-.8 1zm-3.3-2.6 3.3 2.6.8-1-3.3-2.6-.8 1zm2.7-3.4a.6.6 0 0 0-.8 1l.8-1zm2.5 3.6a.6.6 0 1 0 .8-1l-.8 1zm-3.3-2.7 3.3 2.7.8-1-3.3-2.6-.8 1zm2.8-3.3a.6.6 0 1 0-.9 1l.9-1zm2.3 3.8a.6.6 0 1 0 .9-1l-.9 1zm-3.2-2.8 3.2 2.8.9-1-3.2-2.8-.9 1zm3-3.3a.6.6 0 0 0-1 1l1-1zm2.2 3.8a.6.6 0 1 0 .8-1l-.8 1zm-3.1-2.8 3 2.8 1-1-3.2-2.8-.8 1zm3-3.2a.6.6 0 1 0-1 1l1-1zm2 3.9a.6.6 0 0 0 1-1l-1 1zm-3-3 3 3 1-1-3-2.9-1 1zm3.6-3.6a.6.6 0 1 0-1 .9l1-.9zm2 4a.6.6 0 1 0 1-1l-1 1zm-3-3.1 3 3 1-.9-3-3-1 .9zm3.2-3a.6.6 0 1 0-1 .9l1-1zm2 4a.6.6 0 1 0 1-1l-1 1zm-3-3.1 3 3 1-.8-3-3.1-1 .9zm3.3-3a.6.6 0 1 0-1 .9l1-.9zm1.9 4a.6.6 0 0 0 1-.8l-1 .8zm-2.9-3.1 2.9 3.1 1-.8-3-3.2-.9.9zm3.3-2.9a.6.6 0 1 0-1 .8l1-.8zm1.8 4a.6.6 0 1 0 1-.7l-1 .8zm-2.8-3.2 2.8 3.3 1-.8-2.8-3.3-1 .8zm3.4-2.7a.6.6 0 1 0-1 .8l1-.8zm1.6 4a.6.6 0 0 0 1-.7l-1 .8zm-2.6-3.2 2.6 3.3 1-.8-2.6-3.3-1 .8zm3.4-2.7a.6.6 0 0 0-1 .8l1-.8zm1.6 4.2a.6.6 0 0 0 1-.8l-1 .8zM230 137l2.6 3.4 1-.8-2.6-3.4-1 .8zm4.1-3a.6.6 0 0 0-1 .7l1-.8zm14.2 22a.6.6 0 1 0 1-.7l-1 .7zM233 134.8l15.2 21.3 1-.7L234 134l-1 .8zm3.6-2.5a.6.6 0 1 0-1.1.7l1-.7zm1.3 4.2a.6.6 0 1 0 1-.7l-1 .7zm-2.4-3.5 2.4 3.5 1-.7-2.3-3.5-1.1.7zm3.6-2.4a.6.6 0 0 0-1 .7l1-.7zm1.3 4.2c.1.3.5.4.8.2a.6.6 0 0 0 .2-.8l-1 .6zm-2.3-3.5 2.3 3.5 1-.6-2.3-3.6-1 .7zm3.7-2.3a.6.6 0 1 0-1.1.6l1-.6zm1 4.3a.6.6 0 1 0 1.1-.7l-1 .7zm-2.1-3.7 2.2 3.7 1-.7-2.1-3.6-1.1.6zm3.7-2.2a.6.6 0 1 0-1 .6l1-.6zm1 4.3a.6.6 0 0 0 1.1-.6l-1 .6zm-2-3.7 2 3.7 1.1-.6-2-3.7-1.2.6zm3.7-2a.6.6 0 0 0-1 .5l1-.6zm1 4.3a.6.6 0 1 0 1-.6l-1 .6zm-2-3.8 2 3.8 1-.6-2-3.8-1 .6zm3.8-2a.6.6 0 0 0-1.1.6l1-.6zm.8 4.3a.6.6 0 0 0 1.1-.5l-1.1.5zm-2-3.7 2 3.7 1.1-.5-2-3.8-1 .6zm4-2a.6.6 0 0 0-1.2.6l1.2-.6zm.7 4.4a.6.6 0 0 0 1.1-.5l-1.1.5zm-1.9-3.8 1.9 3.8 1.1-.5-1.8-3.9-1.2.6zm4-1.9a.6.6 0 1 0-1.1.6l1.1-.6zm.6 4.4a.6.6 0 1 0 1.1-.5l-1.1.5zm-1.7-3.8 1.7 3.8 1.1-.5-1.7-3.9-1.1.6zm4.8-2.1a.6.6 0 1 0-1.1.5l1.1-.5zm.4 4.4a.6.6 0 0 0 1.2-.5l-1.2.5zm-1.5-4 1.5 4 1.2-.5-1.6-3.9-1.1.5zm4-1.5a.6.6 0 0 0-1.1.4l1.2-.4zm.4 4.4a.6.6 0 0 0 1.2-.5l-1.2.5zm-1.5-4 1.5 4 1.2-.5-1.5-4-1.2.5zm4.2-1.5a.6.6 0 1 0-1.2.4l1.2-.4zm.2 4.4a.6.6 0 1 0 1.2-.4l-1.2.4zm-1.4-4 1.4 4 1.2-.4-1.4-4-1.2.4zm4.2-1.4a.6.6 0 0 0-1.2.4l1.2-.4zm0 4.4a.6.6 0 1 0 1.3-.3l-1.2.3zm-1.2-4 1.3 4 1.2-.3-1.3-4-1.2.3zm4.3-1.3a.6.6 0 1 0-1.2.4l1.2-.4zm0 4.4a.6.6 0 0 0 1.2-.3l-1.3.3zm-1.2-4 1.1 4 1.3-.3-1.2-4.1-1.2.4zm4.3-1.2a.6.6 0 1 0-1.2.3l1.2-.3zm-.2 4.4a.6.6 0 1 0 1.3-.3l-1.3.3zm-1-4.1 1 4 1.3-.2-1.1-4.1-1.2.3zm3.5-.9a.6.6 0 0 0-1.3.3l1.3-.3zm-.3 4.4a.6.6 0 1 0 1.3-.3l-1.3.3zm-1-4 1 4 1.3-.3-1-4-1.3.2zm4.5-1a.6.6 0 0 0-1.3.2l1.3-.3zm4.2 25.6a.6.6 0 0 0 1.2-.3l-1.2.3zm-5.5-25.4 5.5 25.4 1.2-.3L280 114l-1.3.3zm4.5-.9a.6.6 0 0 0-1.2.2l1.2-.2zm-.5 4.4a.6.6 0 1 0 1.3-.2l-1.3.2zm-.7-4.2.7 4.2 1.3-.2-.8-4.2-1.2.2zm4.5-.7a.6.6 0 0 0-1.3.2l1.3-.2zm-.6 4.4a.6.6 0 0 0 1.2-.2l-1.2.2zm-.7-4.2.7 4.2 1.2-.2-.6-4.2-1.3.2zm4.6-.7a.6.6 0 1 0-1.2.2l1.2-.2zm-.7 4.4a.6.6 0 1 0 1.2-.2l-1.2.2zm-.5-4.2.5 4.2 1.2-.2-.5-4.2-1.2.2zm4.6-.5a.6.6 0 0 0-1.3 0h1.3zm-.9 4.3a.6.6 0 0 0 1.3-.1l-1.3.1zm-.4-4.2.4 4.2 1.3-.1-.4-4.2h-1.3zm3.8-.3a.6.6 0 0 0-1.3 0h1.3zm-1 4.3a.6.6 0 1 0 1.3-.1h-1.3zm-.3-4.2.3 4.2 1.3-.1-.3-4.2h-1.3zm4.7-.3a.6.6 0 1 0-1.3 0h1.3zm-1 4.3a.6.6 0 1 0 1.2-.1H298zm-.3-4.3.2 4.3 1.3-.1-.2-4.2h-1.3zm4.8-.1a.6.6 0 0 0-1.3 0h1.3zm-1.2 4.2a.6.6 0 0 0 1.3 0h-1.3zm0-4.2v4.2h1.3l-.1-4.2h-1.3zm5.2 0a.6.6 0 1 0-1.3 0h1.3zm-1.3 4.2a.6.6 0 1 0 1.2 0h-1.2zm0-4.3v4.3h1.2v-4.2h-1.2zm3.8.1a.6.6 0 1 0-1.2 0h1.2zm-1.4 4.2a.6.6 0 0 0 1.3 0h-1.3zm.2-4.2-.2 4.2h1.3l.1-4.2H308zm4.7.2a.6.6 0 1 0-1.3 0h1.3zm-1.5 4.2a.6.6 0 1 0 1.2 0h-1.2zm.2-4.3-.2 4.3h1.2l.3-4.2h-1.3zm4.7.4a.6.6 0 1 0-1.3-.1h1.3zm-1.6 4a.6.6 0 0 0 1.2.2l-1.2-.1zm.3-4.1-.3 4.2 1.2.1.4-4.2-1.3-.1zm3.8.3a.6.6 0 0 0-1.3-.1l1.3.1zm-1.8 4.1a.6.6 0 0 0 1.3.2l-1.3-.2zm.5-4.2-.5 4.2 1.3.2.5-4.3-1.3-.1zm4.6.6a.6.6 0 1 0-1.3-.2l1.3.2zm-1.8 4a.6.6 0 0 0 1.2.2l-1.2-.2zm.5-4.2-.5 4.2 1.2.2.6-4.2-1.3-.2zm4.6.7a.6.6 0 1 0-1.3-.2l1.3.2zm-2 4a.6.6 0 1 0 1.3.2l-1.3-.2zm.7-4.2-.7 4.2 1.3.2.7-4.2-1.3-.2zm4.6.8a.6.6 0 1 0-1.3-.3l1.3.3zm-2.1 3.9a.6.6 0 0 0 1.2.2l-1.2-.2zm.8-4.2-.8 4.2 1.2.2.9-4.1-1.3-.3zm4.5 1a.6.6 0 1 0-1.3-.3l1.3.3zm-7.6 25.2a.6.6 0 1 0 1.3.3l-1.3-.3zm6.3-25.5-6.3 25.5 1.3.3 6.3-25.5-1.3-.3zm4.4 1a.6.6 0 0 0-1.2-.3l1.2.3zm-2.2 3.8a.6.6 0 1 0 1.2.3l-1.2-.3zm1-4-1 4 1.2.3 1-4-1.2-.4zm4.4 1a.6.6 0 1 0-1.3-.3l1.3.4zm-2.4 3.8a.6.6 0 0 0 1.2.3l-1.2-.3zm1.1-4-1.1 4 1.2.3 1.2-4-1.3-.4zm4.3 1.2a.6.6 0 0 0-1.2-.4l1.2.4zm-2.4 3.7a.6.6 0 0 0 1.2.3l-1.2-.3zm1.2-4-1.2 4 1.2.3 1.2-4-1.2-.4zm4.3 1.3a.6.6 0 1 0-1.2-.4l1.2.4zm-2.6 3.6a.6.6 0 1 0 1.2.4l-1.2-.4zm1.4-4-1.4 4 1.2.4 1.4-4-1.2-.4zm4.2 1.5a.6.6 0 1 0-1.2-.5l1.2.5zm-2.7 3.5a.6.6 0 0 0 1.2.4l-1.2-.4zm1.5-4-1.5 4 1.2.4 1.5-4-1.2-.4zm4.1 1.6a.6.6 0 1 0-1.2-.5l1.2.5zm-2.7 3.5a.6.6 0 0 0 1.2.4l-1.2-.4zm1.5-4-1.5 4 1.2.4 1.5-4-1.2-.4zm4.1 1.7a.6.6 0 1 0-1.1-.5l1.1.5zM350 125a.6.6 0 1 0 1.2.5l-1.2-.5zm1.7-3.9L350 125l1.2.5 1.6-3.9-1.1-.5zm4 1.8a.6.6 0 1 0-1.2-.5l1.2.5zm-3 3.3a.6.6 0 1 0 1.2.5l-1.1-.5zm1.8-3.8-1.7 3.8 1.1.5 1.8-3.8-1.2-.5zm4 1.8a.6.6 0 1 0-1.1-.5l1.1.5zm-3 3.3a.6.6 0 0 0 1.1.5l-1.1-.5zm1.9-3.8-1.9 3.8 1.1.5 2-3.8-1.2-.5zm3.9 2a.6.6 0 1 0-1.1-.6l1 .6zm-3.1 3.1a.6.6 0 0 0 1.1.6l-1.1-.6zm2-3.7-2 3.7 1.1.6 2-3.7-1.1-.6zm3.8 2a.6.6 0 0 0-1.1-.6l1.1.6zm-3.2 3.1a.6.6 0 1 0 1.1.6l-1-.6zm2.1-3.7-2 3.7 1 .6 2.1-3.7-1.1-.6zm3.8 2.2a.6.6 0 0 0-1-.7l1 .7zm-3.3 3a.6.6 0 0 0 1.1.6l-1-.6zm2.2-3.7-2.2 3.7 1.1.6 2.2-3.6-1-.7zm3.7 2.3a.6.6 0 0 0-1-.7l1 .7zm-3.3 3a.6.6 0 0 0 1 .6l-1-.7zm2.3-3.7-2.3 3.6 1 .7 2.3-3.6-1-.7zm4.3 2.8a.6.6 0 0 0-1-.7l1 .7zm-3.4 2.9a.6.6 0 1 0 1 .7l-1-.7zm2.3-3.6-2.3 3.6 1 .7 2.4-3.6-1-.7zm3.6 2.5a.6.6 0 0 0-1-.7l1 .7zm-3.5 2.7a.6.6 0 0 0 1 .8l-1-.8zm2.5-3.4-2.5 3.4 1 .8 2.5-3.5-1-.7zm3.5 2.5a.6.6 0 0 0-1-.8l1 .8zm-17.4 19.3a.6.6 0 1 0 1 .8l-1-.8zm16.4-20-16.4 20 1 .8 16.4-20-1-.9zm3.5 2.6a.6.6 0 0 0-1-.8l1 .8zm-3.7 2.5a.6.6 0 0 0 1 .8l-1-.8zm2.7-3.3-2.7 3.3 1 .8 2.7-3.3-1-.8zm3.3 2.7a.6.6 0 1 0-1-.8l1 .8zm-3.6 2.5a.6.6 0 1 0 1 .8l-1-.8zm2.7-3.3-2.7 3.3 1 .8 2.6-3.3-1-.8zm3.3 2.8a.6.6 0 1 0-1-.8l1 .8zm-3.8 2.4a.6.6 0 1 0 1 .8l-1-.8zm2.8-3.2-2.8 3.2 1 .8 2.8-3.2-1-.8zm3.3 2.9a.6.6 0 0 0-1-.9l1 .9zm-3.8 2.2a.6.6 0 1 0 .9.9l-1-.9zm2.8-3-2.8 3 .9.9 2.9-3.1-1-.9zm3.7 3.4a.6.6 0 0 0-.9-.9l1 1zm-3.8 2.2a.6.6 0 1 0 .9.9l-1-1zm3-3-3 3 .9.9 3-3-1-1zm3 3a.6.6 0 1 0-.9-1l.9 1zm-4 2a.6.6 0 1 0 1 1l-1-1zm3.1-3-3 3 .9 1 3-3-.9-1zm3 3.2a.6.6 0 0 0-.9-1l1 1zm-4 2a.6.6 0 0 0 .9 1l-.9-1zm3.1-3-3 3 .8 1 3.1-3-.9-1zm3 3.3a.6.6 0 0 0-.9-1l.9 1zm-4 1.9a.6.6 0 1 0 .8 1l-.9-1zm3.1-2.8-3.2 2.8.9 1 3.2-2.9-.9-1zm2.9 3.3a.6.6 0 0 0-.8-1l.8 1zm-4 1.7a.6.6 0 0 0 .7 1l-.8-1zm3.2-2.7-3.3 2.7.8 1 3.3-2.8-.8-1zm2.7 3.3a.6.6 0 0 0-.8-1l.8 1zm-4 1.7a.6.6 0 0 0 .7 1l-.8-1zm3.2-2.6-3.3 2.6.8 1 3.3-2.7-.8-1zm3.1 4a.6.6 0 0 0-.7-1l.7 1zm-4.1 1.5a.6.6 0 0 0 .7 1l-.7-1zm3.4-2.6-3.4 2.6.7 1 3.4-2.5-.7-1zm2.5 3.6a.6.6 0 1 0-.7-1l.7 1zm-4.2 1.4a.6.6 0 1 0 .8 1l-.8-1zm3.5-2.5L400 165l.8 1 3.4-2.4-.7-1zm2.5 3.6a.6.6 0 0 0-.7-1l.7 1zm-4.2 1.3a.6.6 0 1 0 .7 1l-.7-1zm3.5-2.3-3.5 2.3.7 1 3.5-2.3-.7-1zm2.4 3.6a.6.6 0 1 0-.7-1l.7 1zm-4.3 1.2a.6.6 0 0 0 .7 1.1l-.7-1zm3.6-2.3-3.6 2.3.7 1.1 3.6-2.3-.7-1zm2.3 3.8a.6.6 0 1 0-.7-1.1l.7 1zm-23.1 12.3a.6.6 0 0 0 .6 1l-.6-1zm22.4-13.4-22.4 13.4.6 1 22.5-13.3-.7-1.1zm2.3 3.8a.6.6 0 0 0-.7-1.1l.7 1zm-4.4 1a.6.6 0 0 0 .7 1l-.7-1zm3.7-2.1-3.7 2 .7 1.2 3.7-2.1-.7-1.1zm2.2 3.8a.6.6 0 0 0-.6-1.1l.5 1.1zm-4.4.9a.6.6 0 1 0 .6 1.1l-.6-1.1zm3.8-2-3.8 2 .6 1.1 3.8-2-.6-1.1zm2 4a.6.6 0 1 0-.6-1.2l.6 1.1zm-4.4.7a.6.6 0 1 0 .6 1.1l-.6-1.1zm3.8-2-3.8 2 .6 1.1 3.8-1.9-.6-1.1zm2 4a.6.6 0 1 0-.6-1.1l.5 1.2zm-4.4.7a.6.6 0 0 0 .5 1.2l-.5-1.2zm3.8-1.8-3.8 1.8.5 1.2 3.8-1.8-.5-1.2zm2 4.6a.6.6 0 1 0-.4-1.2l.5 1.2zm-4.3.5a.6.6 0 1 0 .5 1.2l-.5-1.2zm3.9-1.7-4 1.7.6 1.2 3.9-1.7-.5-1.2zm1.7 4.1a.6.6 0 0 0-.5-1.1l.5 1.1zm-4.4.4a.6.6 0 1 0 .4 1.2l-.4-1.2zm3.9-1.5-4 1.5.5 1.2 4-1.6-.5-1.1zm1.6 4.1a.6.6 0 0 0-.4-1.2l.4 1.2zm-4.4.3a.6.6 0 0 0 .4 1.2l-.4-1.2zm4-1.5-4 1.5.4 1.2 4-1.5-.4-1.2zm1.5 4.2a.6.6 0 0 0-.5-1.2l.5 1.2zm-4.5.2a.6.6 0 0 0 .4 1.2l-.4-1.2zm4-1.4-4 1.4.4 1.2 4-1.4-.4-1.2zm1.4 4.2a.6.6 0 1 0-.4-1.2l.4 1.2zm-4.4 0a.6.6 0 1 0 .4 1.3l-.4-1.2zm4-1.2-4 1.3.4 1.2 4-1.3-.4-1.2zm1.3 4.3a.6.6 0 0 0-.3-1.2l.3 1.2zm-4.4 0a.6.6 0 0 0 .4 1.2l-.4-1.2zm4-1.2-4 1.2.4 1.2 4-1.2-.3-1.2zm1.3 4.3a.6.6 0 0 0-.4-1.2l.4 1.2zm-4.5-.2a.6.6 0 0 0 .3 1.3l-.3-1.3zm4.1-1-4 1 .2 1.3 4.2-1-.4-1.3zm1 3.8a.6.6 0 1 0-.3-1.2l.3 1.2zm-4.4-.3a.6.6 0 1 0 .2 1.3l-.2-1.3zm4-1-4 1 .2 1.3 4.2-1-.3-1.2zm1 4.5a.6.6 0 1 0-.2-1.2l.2 1.2zm-4.4-.4a.6.6 0 1 0 .3 1.3l-.3-1.3zm4.2-.8-4.2.8.3 1.3 4.1-.9-.2-1.2zm.8 4.4a.6.6 0 0 0-.2-1.2l.2 1.2zm-4.4-.5a.6.6 0 0 0 .3 1.3l-.3-1.3zm4.2-.7-4.2.7.3 1.3 4.1-.8-.2-1.2zm.7 4.5a.6.6 0 0 0-.2-1.3l.2 1.3zm-4.3-.7a.6.6 0 1 0 .1 1.3l-.1-1.3zm4.1-.6-4.1.6.1 1.3 4.2-.6-.2-1.3zm.7 4.5a.6.6 0 0 0-.2-1.2l.2 1.2zm-27.7 2.2a.6.6 0 1 0 .1 1.3l-.1-1.3zm27.5-3.4-27.5 3.4.1 1.3 27.6-3.5-.2-1.2zm.5 4.5a.6.6 0 0 0-.1-1.2v1.2zm-4.3-.9a.6.6 0 1 0 0 1.3v-1.3zm4.2-.3-4.2.3v1.3l4.3-.4-.1-1.2zm.3 4a.6.6 0 0 0 0-1.2v1.2zm-4.3-1a.6.6 0 1 0 0 1.3v-1.3zm4.2-.2-4.2.2v1.3l4.3-.3v-1.2zm.3 4.6a.6.6 0 1 0 0-1.3v1.3zm-4.3-1.1a.6.6 0 0 0 0 1.2v-1.2zm4.2-.2-4.2.2v1.2l4.3-.1v-1.3zm.2 4.6a.6.6 0 0 0 .6-.6.6.6 0 0 0-.7-.7v1.3zM422 231a.6.6 0 0 0 0 1.3V231zm4.2 0h-4.2v1.3h4.3v-1.4zm-222.7 14.7v-1.3h-3.8l1.6-1.7a23.4 23.4 0 0 0 1.4-1.6l.4-.7v-1.8a2.2 2.2 0 0 0-.6-.8 2.3 2.3 0 0 0-.8-.6 3.3 3.3 0 0 0-1.2-.1c-.4 0-.9 0-1.2.2a2.8 2.8 0 0 0-1 .6 2.7 2.7 0 0 0-.8 2h1.6l.1-.7c0-.2.2-.3.3-.4l.4-.3a1.6 1.6 0 0 1 1 0l.4.2.2.4a1.5 1.5 0 0 1 0 1 2 2 0 0 1-.2.4 5 5 0 0 1-.3.5l-.6.6-2.7 3v1.1h5.8zm7-3.2v-2c0-.6-.1-1.1-.3-1.5a3 3 0 0 0-.5-1 2.3 2.3 0 0 0-.9-.7 3 3 0 0 0-1.2-.2 3 3 0 0 0-1.1.2l-.9.6a3 3 0 0 0-.5 1 5 5 0 0 0-.2 1.5v2c0 .6 0 1.1.2 1.5l.5 1c.3.4.6.6.9.7.3.2.7.2 1.2.2.4 0 .8 0 1.1-.2.4-.1.7-.3.9-.6l.5-1c.2-.5.2-1 .2-1.5zm-4-.7v-2.5l.3-.5a.9.9 0 0 1 .4-.3l.4-.1h.5a.8.8 0 0 1 .3.3l.3.5v.9l-2.2 1.7zm2.3 1v.7l-.3.6a.9.9 0 0 1-.4.3 1.1 1.1 0 0 1-.4.1 1 1 0 0 1-.6-.1 1 1 0 0 1-.3-.4 1.7 1.7 0 0 1-.2-.5 3.8 3.8 0 0 1 0-.6l2.2-1.7v1.5zm20.1-78.2v-5.4h-1.6l-3.6 5.7v1h3.6v1.8h1.6V166h1v-1.3h-1zm-3.6 0 1.9-3 .1-.2v3.2h-2zm11.4-.1v-2c0-.6 0-1-.2-1.5a3 3 0 0 0-.5-1 2.3 2.3 0 0 0-1-.7 3 3 0 0 0-1-.2 3 3 0 0 0-1.2.2c-.4.1-.7.3-.9.6a3 3 0 0 0-.6 1 5 5 0 0 0-.1 1.5v2l.1 1.5.6 1c.2.4.5.6.9.7.3.2.7.2 1.1.2.5 0 .9 0 1.2-.2l.9-.6a2.9 2.9 0 0 0 .5-1l.2-1.5zm-4-.7v-1.6l.2-.8a1.6 1.6 0 0 1 .2-.6.9.9 0 0 1 .3-.3l.5-.1h.5a.8.8 0 0 1 .3.3l.3.6v.8l-2.2 1.7zm2.4 1-.1.8-.2.5a1 1 0 0 1-.4.3l-.5.1a1 1 0 0 1-.5 0 1 1 0 0 1-.3-.4 1.7 1.7 0 0 1-.2-.5 3.8 3.8 0 0 1-.1-.7l2.3-1.7v1.5zm-31.7 34.4v1.3h1.4c.2 0 .4.2.5.3l.3.4v1.1a1 1 0 0 1-.7.6 1.7 1.7 0 0 1-.5 0h-.5a1.3 1.3 0 0 1-.5-.2 1 1 0 0 1-.2-.4 1.1 1.1 0 0 1-.1-.4h-1.6c0 .4 0 .7.2 1l.6.8 1 .4 1 .2a4 4 0 0 0 1.2-.2 2.8 2.8 0 0 0 1-.5l.6-.8.2-1v-.7a2 2 0 0 0-.3-.5 2 2 0 0 0-.5-.5 2.2 2.2 0 0 0-.6-.3 2.2 2.2 0 0 0 1-.8 2 2 0 0 0 .2-.5v-.5l-.1-1a2.1 2.1 0 0 0-.6-.9 2.5 2.5 0 0 0-1-.4 4 4 0 0 0-1-.2c-.5 0-.8 0-1.2.2a2.8 2.8 0 0 0-.8.5c-.3.2-.5.4-.6.7a2.1 2.1 0 0 0-.2 1h1.6a1 1 0 0 1 .3-.8l.4-.2a1.5 1.5 0 0 1 .5 0h.5l.4.3.2.3a1.3 1.3 0 0 1 0 .5v.5a1 1 0 0 1-.2.3 1 1 0 0 1-.5.3 1.7 1.7 0 0 1-.6 0h-.8zm10.8 1.7v-2a5 5 0 0 0-.2-1.5 3 3 0 0 0-.5-1 2.4 2.4 0 0 0-.9-.7 3 3 0 0 0-1.1-.2 3 3 0 0 0-1.2.2l-.9.7a3 3 0 0 0-.5 1 5 5 0 0 0-.2 1.5v2c0 .6 0 1 .2 1.5l.5 1 1 .7 1 .2c.5 0 .9 0 1.2-.2a2.3 2.3 0 0 0 .9-.7 2.9 2.9 0 0 0 .5-1 5 5 0 0 0 .2-1.5zm-3.9-.7v-1.6l.1-.8.2-.6a.9.9 0 0 1 .4-.3 1 1 0 0 1 .5 0h.4l.3.3.3.5.1.8-2.3 1.7zm2.3 1v.8l-.3.6a1 1 0 0 1-.3.3 1.1 1.1 0 0 1-.5 0 1 1 0 0 1-.5 0 1 1 0 0 1-.4-.4 1.7 1.7 0 0 1-.2-.5 3.8 3.8 0 0 1 0-.7l2.2-1.7v1.6zm43-60.6 1.3.4.2-.2a1.2 1.2 0 0 1 .3-.2 1.5 1.5 0 0 1 .3 0l.4-.1.6.1a1.2 1.2 0 0 1 .7.8v.6a2.8 2.8 0 0 1 0 .7 1.5 1.5 0 0 1-.2.5 1 1 0 0 1-.4.3 1.2 1.2 0 0 1-.5.2c-.4 0-.7-.2-.9-.4-.2-.2-.4-.4-.4-.8h-1.6a2.4 2.4 0 0 0 1 1.8l.8.5a3.5 3.5 0 0 0 2.3 0 2.5 2.5 0 0 0 1.5-1.6l.1-1c0-.5 0-1-.2-1.3a2.6 2.6 0 0 0-.5-.9 2.2 2.2 0 0 0-.8-.6 2.8 2.8 0 0 0-1-.2l-.8.1a2.8 2.8 0 0 0-.6.3l.2-2h3.4v-1.3h-4.7l-.5 4.3zm12.5 1v-2l-.2-1.5a3 3 0 0 0-.6-1 2.3 2.3 0 0 0-.9-.7 3 3 0 0 0-1.1-.2 3 3 0 0 0-1.2.2l-.8.6a3 3 0 0 0-.6 1.1 5 5 0 0 0-.2 1.5v2c0 .5 0 1 .2 1.5.1.4.3.7.6 1 .2.3.5.5.8.6l1.2.3 1.2-.3c.3-.1.6-.3.8-.6.3-.3.4-.6.6-1l.2-1.5zm-4-.7v-1.6l.1-.8.2-.6a.9.9 0 0 1 .4-.3 1 1 0 0 1 .5-.1h.4a.8.8 0 0 1 .4.3l.2.6.1.8-2.3 1.7zm2.3 1v.8l-.3.5a.9.9 0 0 1-.3.4h-.5a1 1 0 0 1-.5 0 1 1 0 0 1-.4-.4 1.7 1.7 0 0 1-.2-.5 3.8 3.8 0 0 1 0-.7l2.2-1.7v1.5zm36.3-12.9h-.2c-.7 0-1.4.2-2 .4l-1.3 1a4.2 4.2 0 0 0-.8 1.5 6.2 6.2 0 0 0-.3 1.8v.7l.2 1.3.6 1a2.7 2.7 0 0 0 1 .8c.3.2.8.3 1.2.3a3 3 0 0 0 1.2-.3l.9-.6a2.7 2.7 0 0 0 .6-1 3.3 3.3 0 0 0 .2-1c0-.5 0-.8-.2-1.2a2.7 2.7 0 0 0-.4-.9 2.2 2.2 0 0 0-.8-.6c-.3-.2-.7-.3-1-.3l-.6.1a2.3 2.3 0 0 0-.9.5 3 3 0 0 0-.3.2l.2-1a2.3 2.3 0 0 1 1.4-1.1 3.5 3.5 0 0 1 1.2-.2V129zm-1.6 4.3h.5l.4.4.3.5V135.5a1.5 1.5 0 0 1-.3.5 1.2 1.2 0 0 1-.4.3 1.1 1.1 0 0 1-.5.1h-.5a1.2 1.2 0 0 1-.5-.4 1.7 1.7 0 0 1-.2-.6 3.2 3.2 0 0 1-.1-.8v-.5a1.6 1.6 0 0 1 .4-.6l.4-.2h.5zm9.8 1v-2c0-.5 0-1-.2-1.4a3 3 0 0 0-.6-1 2.3 2.3 0 0 0-.8-.7 3 3 0 0 0-1.2-.2 3 3 0 0 0-1.2.2l-.8.6a3 3 0 0 0-.6 1.1 5 5 0 0 0-.2 1.4v2c0 .6 0 1.1.2 1.5.1.5.3.8.6 1.1.2.3.5.5.8.6l1.2.3 1.2-.3c.3-.1.6-.3.8-.6a2.9 2.9 0 0 0 .6-1l.2-1.5zm-4-.6V132l.1-.8a1.6 1.6 0 0 1 .3-.6.9.9 0 0 1 .3-.3l.5-.1h.4a.8.8 0 0 1 .4.3l.2.6.1.8-2.2 1.7zm2.3 1v.8c0 .2-.2.4-.3.5a1 1 0 0 1-.3.3l-.5.1a1 1 0 0 1-.5 0 1 1 0 0 1-.4-.4 1.7 1.7 0 0 1-.2-.5 3.8 3.8 0 0 1 0-.7l2.2-1.7v1.5zm67 27.6a2.4 2.4 0 0 0-.2-1 2 2 0 0 0-.6-.8 2.4 2.4 0 0 0-.8-.4 3.5 3.5 0 0 0-1.1-.2c-.4 0-.8 0-1 .2a2.3 2.3 0 0 0-1 .4 2.1 2.1 0 0 0-.5.8 2.4 2.4 0 0 0-.2 1l.1.6a2 2 0 0 0 .6 1c.2 0 .3.2.5.3a2.6 2.6 0 0 0-.6.3 2.2 2.2 0 0 0-.4.5 2.2 2.2 0 0 0-.3.6 2.3 2.3 0 0 0 0 .6l.1 1.1.7.8c.2.2.5.3.9.4a4 4 0 0 0 1.1.2c.4 0 .8 0 1.1-.2a2.7 2.7 0 0 0 1-.4 2.1 2.1 0 0 0 .5-.8c.2-.3.3-.7.3-1a2.2 2.2 0 0 0-1-1.9 3 3 0 0 0-.4-.2 2.3 2.3 0 0 0 .8-.7l.3-.5a2 2 0 0 0 0-.7zm-1.5 3.8a1.4 1.4 0 0 1 0 .6l-.3.3a1.1 1.1 0 0 1-.4.3 1.4 1.4 0 0 1-.5 0h-.5a1 1 0 0 1-.6-.6 1.5 1.5 0 0 1-.1-.6v-.5l.3-.4a1 1 0 0 1 .4-.3h1l.4.3.2.4.1.5zm-.1-3.7-.1.5a1 1 0 0 1-.2.3 1 1 0 0 1-.4.3 1.1 1.1 0 0 1-.4 0h-.4a1 1 0 0 1-.4-.3 1 1 0 0 1-.2-.3 1.5 1.5 0 0 1 0-.5v-.5a1 1 0 0 1 .2-.4.8.8 0 0 1 .3-.2h.9a1 1 0 0 1 .4.3l.2.3v.5zm8.7 3v-2.1c0-.6 0-1-.2-1.5a3 3 0 0 0-.5-1 2.3 2.3 0 0 0-.9-.7 3 3 0 0 0-1.1-.2 3 3 0 0 0-1.2.2l-.9.7a3 3 0 0 0-.5 1 5 5 0 0 0-.2 1.5v2c0 .6 0 1 .2 1.5l.5 1 1 .7 1 .2c.5 0 .9 0 1.2-.2.4-.2.7-.4.9-.7l.5-1c.2-.4.2-1 .2-1.5zm-3.9-.8V163l.1-.8.2-.6a.9.9 0 0 1 .4-.3h.9a.8.8 0 0 1 .3.3c.2.1.2.3.3.5l.1.8-2.3 1.7zm2.3 1v.8l-.3.6a1 1 0 0 1-.3.3h-.5a1 1 0 0 1-.5 0 1 1 0 0 1-.4-.4 1.7 1.7 0 0 1-.2-.5 3.9 3.9 0 0 1 0-.7l2.2-1.7v1.6zm-35-28.4v-.9h-6v1.3h4.3l-3.3 7.2h1.7l3.3-7.6zm7 4.4v-2c0-.6 0-1-.2-1.5a3 3 0 0 0-.6-1 2.3 2.3 0 0 0-.8-.7 3 3 0 0 0-1.2-.2 3 3 0 0 0-1.2.2l-.8.6a3 3 0 0 0-.6 1.1 5 5 0 0 0-.2 1.5v2c0 .5 0 1 .2 1.5.2.4.3.7.6 1 .2.3.5.5.9.6.3.2.7.3 1.1.3l1.2-.3c.3-.1.6-.3.8-.6.3-.3.5-.6.6-1l.2-1.5zm-4-.7v-1.6l.1-.8c0-.3.2-.4.3-.6a.9.9 0 0 1 .3-.3 1 1 0 0 1 .5-.1h.4a.8.8 0 0 1 .4.3l.2.6.1.8-2.2 1.7zm2.3 1v.8c0 .2-.2.4-.3.5a1 1 0 0 1-.3.4h-.5a1 1 0 0 1-.5 0 1 1 0 0 1-.4-.4 1.7 1.7 0 0 1-.2-.5 3.8 3.8 0 0 1 0-.7l2.2-1.7v1.5zm37.7 61v1.3a5 5 0 0 0 2-.3c.5-.2 1-.6 1.3-1a4 4 0 0 0 .8-1.5c.2-.5.3-1.2.3-1.8v-.6c0-.5 0-1-.2-1.4a3.3 3.3 0 0 0-.6-1.1 2.6 2.6 0 0 0-.9-.7 2.7 2.7 0 0 0-1.2-.3l-1.2.3a2.6 2.6 0 0 0-.9.6 2.9 2.9 0 0 0-.5 1 3.5 3.5 0 0 0-.2 1.1l.1 1.2.5.9.8.6 1 .2h.6l.4-.2a1.8 1.8 0 0 0 .6-.4 2.8 2.8 0 0 1-.2.9l-.5.6a2.3 2.3 0 0 1-.8.4 4 4 0 0 1-1.2.2zm1.5-2.8h-.5a1.2 1.2 0 0 1-.4-.4 1.5 1.5 0 0 1-.2-.6 2.5 2.5 0 0 1 0-1.2l.2-.6a1.2 1.2 0 0 1 .4-.3 1 1 0 0 1 .5-.2 1 1 0 0 1 .9.5l.3.6v1.4a1.4 1.4 0 0 1-.1.3 1.2 1.2 0 0 1-1 .5zm10 .8v-2l-.2-1.5a3 3 0 0 0-.6-1 2.3 2.3 0 0 0-.9-.7 3 3 0 0 0-1.1-.2 3 3 0 0 0-1.2.2l-.9.7a3 3 0 0 0-.5 1 5 5 0 0 0-.2 1.5v2c0 .6 0 1 .2 1.5l.5 1 1 .7 1 .2a3 3 0 0 0 1.2-.2l1-.7.5-1 .1-1.5zm-4-.7v-1.6l.1-.8.2-.6a.9.9 0 0 1 .4-.3 1 1 0 0 1 .5 0h.4l.3.3c.2.1.2.3.3.5l.1.8-2.3 1.7zm2.3 1v.8l-.3.6a1 1 0 0 1-.3.3 1.1 1.1 0 0 1-.5 0 1 1 0 0 1-.5 0 1 1 0 0 1-.4-.4 1.7 1.7 0 0 1-.2-.5 3.8 3.8 0 0 1 0-.7l2.2-1.7v1.6zm-10.4 47v-8.5l-3.8 1.4v1.4l2.2-.8v6.6h1.6zm8.6-3.2v-2l-.2-1.5a3 3 0 0 0-.6-1 2.3 2.3 0 0 0-.9-.7 3 3 0 0 0-1.1-.2 3 3 0 0 0-1.2.2l-.8.7a3 3 0 0 0-.6 1 5 5 0 0 0-.2 1.5v2c0 .6 0 1 .2 1.5.1.4.3.7.6 1l.8.7 1.2.2 1.2-.2.8-.7c.3-.3.4-.6.6-1l.2-1.5zm-4-.7v-1.6l.1-.8.2-.6a.9.9 0 0 1 .4-.3 1 1 0 0 1 .5 0h.4a.8.8 0 0 1 .4.2l.2.6.1.8-2.3 1.7zm2.3 1v.8l-.3.5a1 1 0 0 1-.3.4h-.5a1 1 0 0 1-.5 0 1 1 0 0 1-.4-.4 1.7 1.7 0 0 1-.2-.5 3.8 3.8 0 0 1 0-.7l2.2-1.7v1.6zm8.6-.3v-2c0-.6 0-1-.2-1.5a3 3 0 0 0-.5-1 2.3 2.3 0 0 0-.9-.7 3 3 0 0 0-1.2-.2 3 3 0 0 0-1.1.2l-.9.7a3 3 0 0 0-.5 1 5 5 0 0 0-.2 1.5v2c0 .6 0 1 .2 1.5l.5 1 .9.7 1.2.2 1.1-.2c.4-.2.7-.4.9-.7l.5-1c.2-.5.2-1 .2-1.5zm-3.9-.7V241.9a1.6 1.6 0 0 1 .3-.6.9.9 0 0 1 .4-.3 1 1 0 0 1 .4 0h.5a.8.8 0 0 1 .3.2l.3.6v.8l-2.2 1.7zm2.3 1v.8l-.3.5a1 1 0 0 1-.4.4h-.4a1 1 0 0 1-.6 0 1 1 0 0 1-.3-.4 1.7 1.7 0 0 1-.2-.5 3.8 3.8 0 0 1 0-.7l2.2-1.7v1.6z"
            fill="#0D102B" />
        <path
            d="M306 212.4a2 2 0 0 1-1.4-2.5l.3-1a2 2 0 0 1 2.5-1.3l77.5 25c.7.3 1 1 .9 1.7a1.3 1.3 0 0 1-1.6.8L306 212.4z"
            stroke="#0D102B" stroke-width="2" />
        <path
            d="M289.7 191.6v1.4a5 5 0 0 0 2-.3c.5-.3 1-.6 1.3-1 .4-.4.7-1 .8-1.5.2-.6.3-1.2.3-1.9v-.5c0-.5 0-1-.2-1.4a3.3 3.3 0 0 0-.6-1.1 2.6 2.6 0 0 0-.9-.8 2.7 2.7 0 0 0-1.2-.2c-.4 0-.8 0-1.2.2a2.7 2.7 0 0 0-.9.7 2.9 2.9 0 0 0-.5 1 3.5 3.5 0 0 0-.2 1.1l.1 1.1.5 1 .8.5c.3.2.6.3 1 .3h.6a2.2 2.2 0 0 0 .7-.4l.3-.2a2.8 2.8 0 0 1-.2.9l-.5.6-.8.4a4 4 0 0 1-1.2.1zm1.5-2.7-.5-.1a1.2 1.2 0 0 1-.4-.4 1.6 1.6 0 0 1-.2-.5 2.5 2.5 0 0 1 0-1.3l.2-.5a1.2 1.2 0 0 1 .4-.4 1 1 0 0 1 .5 0 1 1 0 0 1 .9.4l.3.6v1.4a1.5 1.5 0 0 1-.1.3 1.3 1.3 0 0 1-1 .5zm5.5 2.7h-.1v1.4h.1a5 5 0 0 0 2-.3c.5-.3 1-.6 1.3-1 .4-.4.6-1 .8-1.5.2-.6.2-1.2.2-1.9v-.5c0-.5 0-1-.2-1.4a3.3 3.3 0 0 0-.5-1.1 2.6 2.6 0 0 0-1-.8 2.7 2.7 0 0 0-1.1-.2c-.5 0-.9 0-1.2.2a2.7 2.7 0 0 0-1 .7 2.9 2.9 0 0 0-.5 1 3.5 3.5 0 0 0-.2 1.1c0 .4 0 .8.2 1.1l.5 1 .7.5c.4.2.7.3 1.1.3h.5a2.2 2.2 0 0 0 .8-.4l.3-.2a2.8 2.8 0 0 1-.3.9c0 .2-.2.4-.4.6l-.9.4a4 4 0 0 1-1 .1zm1.5-2.7-.5-.1a1.2 1.2 0 0 1-.4-.4 1.6 1.6 0 0 1-.3-.5 2.5 2.5 0 0 1 0-1.3c0-.2.2-.3.3-.5a1.2 1.2 0 0 1 .3-.4 1 1 0 0 1 .6 0 1 1 0 0 1 .9.4l.2.6.1.8v.6a1.5 1.5 0 0 1-.2.3 1.3 1.3 0 0 1-1 .5zm6 3c0 .4.1.6.3.8.2.3.5.4.8.4.4 0 .7-.1.9-.3.2-.2.3-.5.3-.8a1 1 0 0 0-.3-.8 1 1 0 0 0-.9-.3 1 1 0 0 0-.8.3 1 1 0 0 0-.3.8zm5.4-3.2 1.3.4a2.1 2.1 0 0 1 .4-.4 1.6 1.6 0 0 1 .8-.1h.6l.4.4a1.3 1.3 0 0 1 .3.5V190.8a1.5 1.5 0 0 1-.2.5 1 1 0 0 1-.4.3 1.2 1.2 0 0 1-.5.1c-.4 0-.7 0-1-.3-.1-.2-.3-.4-.3-.8h-1.6a2.4 2.4 0 0 0 .9 1.8l1 .5a3.5 3.5 0 0 0 2.2 0 2.5 2.5 0 0 0 1.4-1.6 3.5 3.5 0 0 0 .2-1.1c0-.4 0-.8-.2-1.2a2.5 2.5 0 0 0-.5-.9 2.2 2.2 0 0 0-.8-.6 2.9 2.9 0 0 0-1-.2l-.9.1a3 3 0 0 0-.5.3l.2-2h3.4v-1.3h-4.7l-.5 4.3zm6.3-2.8v1.1a1.5 1.5 0 0 0 1 .9l.6.1.8-.1a1.4 1.4 0 0 0 .5-.4 1.4 1.4 0 0 0 .3-.5l.1-.6v-.5l-.1-.6a1.4 1.4 0 0 0-.3-.5 1.4 1.4 0 0 0-.5-.4 1.8 1.8 0 0 0-.8-.1l-.7.1a1.4 1.4 0 0 0-.5.4 1.4 1.4 0 0 0-.3.5 2 2 0 0 0-.1.6zm1 .5v-.5l.1-.2a.6.6 0 0 1 .1-.3.4.4 0 0 1 .2-.1.5.5 0 0 1 .2 0 .6.6 0 0 1 .5.1.7.7 0 0 1 0 .3l.1.2v.7a.6.6 0 0 1-.1.3.5.5 0 0 1-.2.1.6.6 0 0 1-.3 0 .6.6 0 0 1-.2 0 .5.5 0 0 1-.2-.1.6.6 0 0 1-.1-.3 1.2 1.2 0 0 1 0-.2zm2.4 4.6v.4l.1.7a1.5 1.5 0 0 0 .9.8l.7.2a1.9 1.9 0 0 0 .7-.2l.6-.3c0-.2.2-.4.3-.5V191a1.9 1.9 0 0 0 0-.7 1.5 1.5 0 0 0-.4-.5 1.4 1.4 0 0 0-.5-.4 2 2 0 0 0-.7 0 2 2 0 0 0-.7 0 1.4 1.4 0 0 0-.6.4 1.5 1.5 0 0 0-.3.5v.7zm1.1.4v-.7a.7.7 0 0 1 .1-.2.4.4 0 0 1 .2-.2.6.6 0 0 1 .3 0h.3a.5.5 0 0 1 .1.2l.1.2v1a.6.6 0 0 1 0 .2.4.4 0 0 1-.2.2.7.7 0 0 1-.3 0 .6.6 0 0 1-.3 0 .5.5 0 0 1-.1-.2.6.6 0 0 1-.1-.2 1 1 0 0 1 0-.3zm-2.3.4 3.3-6-.8-.4-3.3 6 .8.4z"
            fill="#0D102B" />
        <rect x="282.1" y="175.5" width="46.5" height="25.7" rx="3.9" stroke="#0D102B" stroke-width="2" />
    </g>
</svg>