<svg viewBox="0 0 608 360" fill="none" xmlns="http://www.w3.org/2000/svg">
    <rect width="608" height="360" rx="16" fill="#F9F9FB" />
    <path
        d="M438.05 266C439.904 266 441.521 264.727 441.907 262.914C443.928 253.427 444.992 243.586 444.992 233.496C444.992 155.902 382.09 93 304.496 93C226.902 93 164 155.902 164 233.496C164 243.586 165.064 253.427 167.085 262.914C167.471 264.727 169.088 266 170.942 266H438.05Z"
        stroke="#0D102B" stroke-width="3" />
    <mask id="mask0_3856_50911" style="mask-type:alpha" maskUnits="userSpaceOnUse" x="164" y="93" width="281"
        height="173">
        <path fill-rule="evenodd" clip-rule="evenodd"
            d="M433.79 266C438.141 266 441.955 263.016 442.731 258.735C444.216 250.547 444.992 242.112 444.992 233.496C444.992 155.902 382.09 93 304.496 93C226.902 93 164 155.902 164 233.496C164 242.112 164.776 250.547 166.261 258.735C167.037 263.016 170.851 266 175.202 266H433.79Z"
            fill="#F9F9FB" />
    </mask>
    <g mask="url(#mask0_3856_50911)">
        <path
            d="M426.355 234.132C426.707 234.132 426.991 233.848 426.991 233.496C426.991 233.145 426.707 232.861 426.355 232.861V234.132ZM422.117 232.861C421.766 232.861 421.482 233.145 421.482 233.496C421.482 233.848 421.766 234.132 422.117 234.132V232.861ZM426.355 232.861H422.117V234.132H426.355V232.861Z"
            fill="#0D102B" />
        <path
            d="M426.309 237.014C426.661 237.023 426.952 236.745 426.96 236.394C426.968 236.043 426.69 235.751 426.339 235.743L426.309 237.014ZM422.102 235.645C421.751 235.637 421.46 235.915 421.452 236.266C421.443 236.617 421.721 236.908 422.072 236.916L422.102 235.645ZM426.339 235.743L422.102 235.645L422.072 236.916L426.309 237.014L426.339 235.743Z"
            fill="#0D102B" />
        <path
            d="M426.167 240.349C426.518 240.366 426.817 240.096 426.834 239.746C426.852 239.395 426.582 239.096 426.231 239.079L426.167 240.349ZM421.998 238.866C421.648 238.849 421.349 239.119 421.331 239.469C421.314 239.82 421.584 240.118 421.934 240.136L421.998 238.866ZM426.231 239.079L421.998 238.866L421.934 240.136L426.167 240.349L426.231 239.079Z"
            fill="#0D102B" />
        <path
            d="M425.939 243.653C426.289 243.68 426.595 243.419 426.622 243.069C426.649 242.718 426.387 242.413 426.037 242.386L425.939 243.653ZM421.812 242.059C421.462 242.032 421.156 242.294 421.129 242.644C421.102 242.994 421.364 243.3 421.714 243.327L421.812 242.059ZM426.037 242.386L421.812 242.059L421.714 243.327L425.939 243.653L426.037 242.386Z"
            fill="#0D102B" />
        <path
            d="M425.667 246.507C426.016 246.542 426.328 246.287 426.363 245.938C426.398 245.588 426.143 245.277 425.794 245.241L425.667 246.507ZM421.577 244.817C421.228 244.782 420.916 245.037 420.881 245.386C420.846 245.736 421.101 246.047 421.45 246.082L421.577 244.817ZM425.794 245.241L421.577 244.817L421.45 246.082L425.667 246.507L425.794 245.241Z"
            fill="#0D102B" />
        <path
            d="M425.279 249.768C425.627 249.813 425.945 249.566 425.99 249.218C426.034 248.87 425.788 248.551 425.44 248.507L425.279 249.768ZM421.236 247.969C420.888 247.925 420.569 248.171 420.525 248.519C420.48 248.868 420.727 249.186 421.075 249.231L421.236 247.969ZM425.44 248.507L421.236 247.969L421.075 249.231L425.279 249.768L425.44 248.507Z"
            fill="#0D102B" />
        <path
            d="M424.809 252.999C425.156 253.053 425.481 252.816 425.534 252.469C425.588 252.122 425.351 251.797 425.004 251.743L424.809 252.999ZM420.816 251.093C420.469 251.039 420.144 251.277 420.09 251.623C420.036 251.97 420.274 252.295 420.621 252.349L420.816 251.093ZM425.004 251.743L420.816 251.093L420.621 252.349L424.809 252.999L425.004 251.743Z"
            fill="#0D102B" />
        <path
            d="M424.245 256.201C424.59 256.265 424.922 256.036 424.985 255.69C425.048 255.345 424.819 255.014 424.474 254.951L424.245 256.201ZM420.305 254.188C419.959 254.125 419.628 254.354 419.565 254.7C419.502 255.045 419.731 255.376 420.076 255.439L420.305 254.188ZM424.474 254.951L420.305 254.188L420.076 255.439L424.245 256.201L424.474 254.951Z"
            fill="#0D102B" />
        <path
            d="M423.603 259.373C423.947 259.446 424.284 259.226 424.356 258.882C424.429 258.539 424.209 258.201 423.865 258.129L423.603 259.373ZM419.718 257.256C419.375 257.183 419.037 257.403 418.965 257.747C418.893 258.09 419.113 258.428 419.456 258.5L419.718 257.256ZM423.865 258.129L419.718 257.256L419.456 258.5L423.603 259.373L423.865 258.129Z"
            fill="#0D102B" />
        <path
            d="M422.88 262.515C423.221 262.596 423.564 262.385 423.646 262.044C423.727 261.702 423.516 261.359 423.175 261.278L422.88 262.515ZM419.052 260.294C418.711 260.213 418.368 260.424 418.287 260.765C418.205 261.107 418.416 261.45 418.757 261.531L419.052 260.294ZM423.175 261.278L419.052 260.294L418.757 261.531L422.88 262.515L423.175 261.278Z"
            fill="#0D102B" />
        <path
            d="M422.078 265.625C422.417 265.716 422.766 265.514 422.856 265.175C422.947 264.836 422.745 264.488 422.406 264.397L422.078 265.625ZM418.311 263.304C417.972 263.213 417.624 263.415 417.533 263.754C417.443 264.093 417.644 264.442 417.983 264.532L418.311 263.304ZM422.406 264.397L418.311 263.304L417.983 264.532L422.078 265.625L422.406 264.397Z"
            fill="#0D102B" />
        <path
            d="M187.425 267.357C187.089 267.457 186.896 267.81 186.996 268.147C187.095 268.484 187.449 268.676 187.786 268.577L187.425 267.357ZM191.85 267.375C192.187 267.276 192.379 266.922 192.28 266.586C192.18 266.249 191.826 266.057 191.49 266.156L191.85 267.375ZM187.786 268.577L191.85 267.375L191.49 266.156L187.425 267.357L187.786 268.577Z"
            fill="#0D102B" />
        <path
            d="M186.582 264.279C186.243 264.37 186.041 264.718 186.132 265.057C186.222 265.397 186.571 265.598 186.91 265.508L186.582 264.279ZM191.005 264.415C191.344 264.324 191.546 263.976 191.455 263.636C191.365 263.297 191.016 263.096 190.677 263.186L191.005 264.415ZM186.91 265.508L191.005 264.415L190.677 263.186L186.582 264.279L186.91 265.508Z"
            fill="#0D102B" />
        <path
            d="M185.813 261.171C185.472 261.253 185.261 261.596 185.343 261.937C185.424 262.279 185.767 262.49 186.108 262.408L185.813 261.171ZM190.231 261.424C190.572 261.343 190.783 261 190.702 260.659C190.62 260.317 190.277 260.106 189.936 260.188L190.231 261.424ZM186.108 262.408L190.231 261.424L189.936 260.188L185.813 261.171L186.108 262.408Z"
            fill="#0D102B" />
        <path
            d="M185.127 258.034C184.783 258.106 184.563 258.443 184.636 258.787C184.708 259.131 185.045 259.35 185.389 259.278L185.127 258.034ZM189.536 258.405C189.88 258.332 190.099 257.995 190.027 257.652C189.955 257.308 189.618 257.088 189.274 257.161L189.536 258.405ZM185.389 259.278L189.536 258.405L189.274 257.161L185.127 258.034L185.389 259.278Z"
            fill="#0D102B" />
        <path
            d="M184.53 254.867C184.185 254.93 183.956 255.261 184.019 255.607C184.082 255.952 184.413 256.181 184.759 256.118L184.53 254.867ZM188.928 255.355C189.273 255.292 189.502 254.961 189.439 254.616C189.376 254.27 189.045 254.042 188.699 254.105L188.928 255.355ZM184.759 256.118L188.928 255.355L188.699 254.105L184.53 254.867L184.759 256.118Z"
            fill="#0D102B" />
        <path
            d="M184.004 251.672C183.657 251.725 183.419 252.05 183.473 252.397C183.527 252.744 183.852 252.982 184.199 252.928L184.004 251.672ZM188.387 252.278C188.734 252.224 188.972 251.899 188.918 251.552C188.864 251.205 188.539 250.968 188.192 251.021L188.387 252.278ZM184.199 252.928L188.387 252.278L188.192 251.021L184.004 251.672L184.199 252.928Z"
            fill="#0D102B" />
        <path
            d="M183.564 248.447C183.216 248.492 182.969 248.81 183.014 249.159C183.058 249.507 183.377 249.753 183.725 249.708L183.564 248.447ZM187.929 249.171C188.277 249.126 188.524 248.808 188.479 248.46C188.435 248.112 188.116 247.865 187.768 247.91L187.929 249.171ZM183.725 249.708L187.929 249.171L187.768 247.91L183.564 248.447L183.725 249.708Z"
            fill="#0D102B" />
        <path
            d="M183.214 245.194C182.864 245.23 182.61 245.541 182.645 245.891C182.68 246.24 182.992 246.495 183.341 246.46L183.214 245.194ZM187.558 246.035C187.907 246 188.162 245.689 188.127 245.339C188.092 244.99 187.78 244.735 187.431 244.77L187.558 246.035ZM183.341 246.46L187.558 246.035L187.431 244.77L183.214 245.194L183.341 246.46Z"
            fill="#0D102B" />
        <path
            d="M182.978 242.349C182.628 242.376 182.366 242.682 182.394 243.032C182.421 243.382 182.726 243.644 183.076 243.617L182.978 242.349ZM187.302 243.29C187.652 243.263 187.914 242.957 187.887 242.607C187.86 242.257 187.554 241.995 187.204 242.022L187.302 243.29ZM183.076 243.617L187.302 243.29L187.204 242.022L182.978 242.349L183.076 243.617Z"
            fill="#0D102B" />
        <path
            d="M182.788 239.055C182.438 239.073 182.168 239.372 182.185 239.722C182.203 240.073 182.502 240.343 182.852 240.325L182.788 239.055ZM187.085 240.113C187.436 240.095 187.706 239.797 187.688 239.446C187.67 239.095 187.372 238.825 187.021 238.843L187.085 240.113ZM182.852 240.325L187.085 240.113L187.021 238.843L182.788 239.055L182.852 240.325Z"
            fill="#0D102B" />
        <path
            d="M182.677 235.732C182.326 235.74 182.048 236.031 182.056 236.382C182.064 236.733 182.355 237.011 182.706 237.003L182.677 235.732ZM186.943 236.905C187.294 236.897 187.572 236.606 187.564 236.255C187.556 235.904 187.265 235.626 186.914 235.634L186.943 236.905ZM182.706 237.003L186.943 236.905L186.914 235.634L182.677 235.732L182.706 237.003Z"
            fill="#0D102B" />
        <path
            d="M182.669 231.901C182.318 231.898 182.031 232.18 182.028 232.531C182.026 232.882 182.308 233.169 182.659 233.172L182.669 231.901ZM186.897 233.205C187.248 233.207 187.535 232.925 187.538 232.574C187.541 232.223 187.258 231.936 186.907 231.933L186.897 233.205ZM182.659 233.172L186.897 233.205L186.907 231.933L182.669 231.901L182.659 233.172Z"
            fill="#0D102B" />
        <path
            d="M182.738 229.04C182.387 229.03 182.094 229.305 182.083 229.656C182.072 230.007 182.348 230.3 182.699 230.311L182.738 229.04ZM186.935 230.442C187.286 230.453 187.58 230.177 187.59 229.826C187.601 229.475 187.325 229.182 186.975 229.171L186.935 230.442ZM182.699 230.311L186.935 230.442L186.975 229.171L182.738 229.04L182.699 230.311Z"
            fill="#0D102B" />
        <path
            d="M182.9 225.714C182.55 225.694 182.249 225.962 182.229 226.312C182.208 226.663 182.476 226.963 182.827 226.984L182.9 225.714ZM187.058 227.229C187.408 227.249 187.709 226.981 187.729 226.631C187.749 226.28 187.482 225.98 187.131 225.959L187.058 227.229ZM182.827 226.984L187.058 227.229L187.131 225.959L182.9 225.714L182.827 226.984Z"
            fill="#0D102B" />
        <path
            d="M183.159 222.406C182.81 222.376 182.502 222.635 182.472 222.985C182.442 223.335 182.702 223.643 183.052 223.673L183.159 222.406ZM187.275 224.032C187.624 224.062 187.932 223.802 187.962 223.452C187.992 223.102 187.732 222.795 187.382 222.765L187.275 224.032ZM183.052 223.673L187.275 224.032L187.382 222.765L183.159 222.406L183.052 223.673Z"
            fill="#0D102B" />
        <path
            d="M183.435 219.634C183.086 219.597 182.772 219.849 182.735 220.198C182.698 220.548 182.95 220.861 183.299 220.898L183.435 219.634ZM205.9 223.321C206.249 223.358 206.563 223.106 206.6 222.756C206.637 222.407 206.385 222.094 206.036 222.057L205.9 223.321ZM183.299 220.898L205.9 223.321L206.036 222.057L183.435 219.634L183.299 220.898Z"
            fill="#0D102B" />
        <path
            d="M183.855 216.378C183.507 216.331 183.187 216.575 183.14 216.923C183.092 217.271 183.336 217.591 183.684 217.638L183.855 216.378ZM187.884 218.208C188.232 218.255 188.552 218.011 188.599 217.663C188.646 217.315 188.403 216.995 188.055 216.948L187.884 218.208ZM183.684 217.638L187.884 218.208L188.055 216.948L183.855 216.378L183.684 217.638Z"
            fill="#0D102B" />
        <path
            d="M184.348 213.147C184.002 213.09 183.675 213.325 183.619 213.672C183.562 214.018 183.797 214.345 184.144 214.401L184.348 213.147ZM188.327 215.084C188.673 215.14 189 214.905 189.056 214.559C189.113 214.212 188.878 213.885 188.531 213.829L188.327 215.084ZM184.144 214.401L188.327 215.084L188.531 213.829L184.348 213.147L184.144 214.401Z"
            fill="#0D102B" />
        <path
            d="M184.936 209.942C184.591 209.877 184.258 210.103 184.192 210.448C184.126 210.793 184.352 211.125 184.697 211.191L184.936 209.942ZM188.86 211.985C189.205 212.051 189.538 211.825 189.604 211.48C189.67 211.135 189.444 210.802 189.099 210.736L188.86 211.985ZM184.697 211.191L188.86 211.985L189.099 210.736L184.936 209.942L184.697 211.191Z"
            fill="#0D102B" />
        <path
            d="M185.601 206.768C185.258 206.693 184.919 206.91 184.844 207.253C184.769 207.596 184.986 207.935 185.329 208.01L185.601 206.768ZM189.47 208.915C189.813 208.99 190.151 208.773 190.226 208.43C190.301 208.087 190.084 207.748 189.741 207.673L189.47 208.915ZM185.329 208.01L189.47 208.915L189.741 207.673L185.601 206.768L185.329 208.01Z"
            fill="#0D102B" />
        <path
            d="M186.351 203.624C186.011 203.54 185.666 203.748 185.582 204.089C185.498 204.43 185.706 204.774 186.047 204.858L186.351 203.624ZM190.162 205.873C190.503 205.958 190.847 205.749 190.931 205.409C191.015 205.068 190.807 204.723 190.466 204.639L190.162 205.873ZM186.047 204.858L190.162 205.873L190.466 204.639L186.351 203.624L186.047 204.858Z"
            fill="#0D102B" />
        <path
            d="M187.176 200.514C186.838 200.421 186.488 200.62 186.395 200.958C186.302 201.297 186.501 201.647 186.839 201.74L187.176 200.514ZM190.926 202.864C191.264 202.957 191.614 202.758 191.707 202.42C191.8 202.081 191.601 201.731 191.263 201.638L190.926 202.864ZM186.839 201.74L190.926 202.864L191.263 201.638L187.176 200.514L186.839 201.74Z"
            fill="#0D102B" />
        <path
            d="M188.087 197.438C187.751 197.336 187.396 197.526 187.294 197.862C187.192 198.198 187.382 198.553 187.718 198.655L188.087 197.438ZM191.773 199.887C192.109 199.989 192.464 199.799 192.566 199.463C192.668 199.127 192.478 198.772 192.142 198.67L191.773 199.887ZM187.718 198.655L191.773 199.887L192.142 198.67L188.087 197.438L187.718 198.655Z"
            fill="#0D102B" />
        <path
            d="M189.068 194.4C188.735 194.289 188.375 194.469 188.264 194.802C188.153 195.135 188.333 195.495 188.666 195.606L189.068 194.4ZM192.688 196.945C193.021 197.056 193.381 196.875 193.492 196.542C193.602 196.209 193.422 195.849 193.089 195.738L192.688 196.945ZM188.666 195.606L192.688 196.945L193.089 195.738L189.068 194.4L188.666 195.606Z"
            fill="#0D102B" />
        <path
            d="M190.123 191.399C189.793 191.28 189.428 191.45 189.309 191.78C189.189 192.11 189.36 192.475 189.69 192.595L190.123 191.399ZM193.674 194.039C194.004 194.158 194.369 193.988 194.489 193.658C194.608 193.328 194.438 192.963 194.107 192.843L193.674 194.039ZM189.69 192.595L193.674 194.039L194.107 192.843L190.123 191.399L189.69 192.595Z"
            fill="#0D102B" />
        <path
            d="M191.26 188.438C190.933 188.31 190.564 188.471 190.436 188.798C190.307 189.125 190.468 189.494 190.795 189.622L191.26 188.438ZM194.74 191.17C195.067 191.299 195.436 191.138 195.564 190.811C195.693 190.484 195.532 190.115 195.205 189.987L194.74 191.17ZM190.795 189.622L194.74 191.17L195.205 189.987L191.26 188.438L190.795 189.622Z"
            fill="#0D102B" />
        <path
            d="M192.47 185.519C192.147 185.382 191.774 185.533 191.637 185.857C191.5 186.18 191.652 186.553 191.975 186.69L192.47 185.519ZM195.878 188.341C196.202 188.478 196.575 188.326 196.712 188.003C196.848 187.68 196.697 187.307 196.374 187.17L195.878 188.341ZM191.975 186.69L195.878 188.341L196.374 187.17L192.47 185.519L191.975 186.69Z"
            fill="#0D102B" />
        <path
            d="M193.747 182.642C193.428 182.496 193.051 182.638 192.906 182.958C192.76 183.277 192.902 183.654 193.222 183.799L193.747 182.642ZM197.081 185.552C197.4 185.697 197.777 185.555 197.922 185.236C198.067 184.916 197.926 184.539 197.606 184.394L197.081 185.552ZM193.222 183.799L197.081 185.552L197.606 184.394L193.747 182.642L193.222 183.799Z"
            fill="#0D102B" />
        <path
            d="M195.094 179.808C194.778 179.654 194.398 179.786 194.245 180.102C194.091 180.417 194.223 180.798 194.539 180.951L195.094 179.808ZM198.351 182.803C198.666 182.957 199.047 182.825 199.2 182.509C199.354 182.194 199.222 181.813 198.906 181.66L198.351 182.803ZM194.539 180.951L198.351 182.803L198.906 181.66L195.094 179.808L194.539 180.951Z"
            fill="#0D102B" />
        <path
            d="M196.515 177.018C196.204 176.857 195.82 176.978 195.658 177.29C195.497 177.602 195.618 177.986 195.93 178.147L196.515 177.018ZM199.693 180.098C200.005 180.259 200.388 180.137 200.55 179.826C200.711 179.514 200.59 179.13 200.278 178.969L199.693 180.098ZM195.93 178.147L199.693 180.098L200.278 178.969L196.515 177.018L195.93 178.147Z"
            fill="#0D102B" />
        <path
            d="M197.991 174.275C197.683 174.105 197.297 174.217 197.127 174.524C196.957 174.832 197.069 175.218 197.377 175.388L197.991 174.275ZM201.088 177.435C201.395 177.605 201.782 177.493 201.951 177.186C202.121 176.878 202.009 176.491 201.702 176.322L201.088 177.435ZM197.377 175.388L201.088 177.435L201.702 176.322L197.991 174.275L197.377 175.388Z"
            fill="#0D102B" />
        <path
            d="M199.521 171.569C199.213 171.4 198.826 171.513 198.658 171.821C198.489 172.128 198.601 172.515 198.909 172.684L199.521 171.569ZM219.222 183.831C219.529 184 219.916 183.888 220.085 183.58C220.254 183.272 220.141 182.886 219.833 182.717L219.222 183.831ZM198.909 172.684L219.222 183.831L219.833 182.717L199.521 171.569L198.909 172.684Z"
            fill="#0D102B" />
        <path
            d="M201.156 168.929C200.857 168.744 200.465 168.835 200.28 169.134C200.095 169.432 200.187 169.824 200.485 170.009L201.156 168.929ZM204.086 172.245C204.384 172.43 204.776 172.338 204.961 172.04C205.146 171.742 205.055 171.35 204.756 171.164L204.086 172.245ZM200.485 170.009L204.086 172.245L204.756 171.164L201.156 168.929L200.485 170.009Z"
            fill="#0D102B" />
        <path
            d="M202.833 166.328C202.54 166.135 202.146 166.216 201.953 166.51C201.76 166.803 201.842 167.198 202.135 167.39L202.833 166.328ZM205.677 169.718C205.971 169.91 206.365 169.829 206.558 169.535C206.75 169.242 206.669 168.848 206.375 168.655L205.677 169.718ZM202.135 167.39L205.677 169.718L206.375 168.655L202.833 166.328L202.135 167.39Z"
            fill="#0D102B" />
        <path
            d="M204.962 163.205C204.675 163.004 204.278 163.074 204.077 163.362C203.875 163.649 203.945 164.046 204.233 164.247L204.962 163.205ZM207.705 166.677C207.993 166.879 208.39 166.809 208.591 166.521C208.792 166.233 208.722 165.837 208.434 165.636L207.705 166.677ZM204.233 164.247L207.705 166.677L208.434 165.636L204.962 163.205L204.233 164.247Z"
            fill="#0D102B" />
        <path
            d="M206.78 160.707C206.498 160.499 206.1 160.558 205.891 160.841C205.682 161.123 205.742 161.521 206.025 161.73L206.78 160.707ZM209.434 164.248C209.716 164.457 210.114 164.397 210.323 164.114C210.531 163.832 210.472 163.434 210.189 163.225L209.434 164.248ZM206.025 161.73L209.434 164.248L210.189 163.225L206.78 160.707L206.025 161.73Z"
            fill="#0D102B" />
        <path
            d="M208.656 158.261C208.379 158.045 207.98 158.095 207.764 158.372C207.548 158.649 207.598 159.048 207.875 159.264L208.656 158.261ZM211.219 161.868C211.496 162.084 211.895 162.034 212.111 161.757C212.327 161.48 212.277 161.081 212 160.865L211.219 161.868ZM207.875 159.264L211.219 161.868L212 160.865L208.656 158.261L207.875 159.264Z"
            fill="#0D102B" />
        <path
            d="M210.587 155.867C210.315 155.644 209.915 155.684 209.692 155.955C209.469 156.226 209.509 156.627 209.78 156.85L210.587 155.867ZM213.056 159.538C213.328 159.761 213.728 159.722 213.951 159.45C214.174 159.179 214.134 158.778 213.863 158.556L213.056 159.538ZM209.78 156.85L213.056 159.538L213.863 158.556L210.587 155.867L209.78 156.85Z"
            fill="#0D102B" />
        <path
            d="M212.568 153.526C212.302 153.296 211.901 153.326 211.671 153.591C211.442 153.857 211.471 154.258 211.737 154.488L212.568 153.526ZM214.943 157.259C215.209 157.489 215.61 157.46 215.84 157.194C216.07 156.928 216.04 156.527 215.775 156.297L214.943 157.259ZM211.737 154.488L214.943 157.259L215.775 156.297L212.568 153.526L211.737 154.488Z"
            fill="#0D102B" />
        <path
            d="M214.611 151.238C214.352 151.002 213.95 151.021 213.713 151.281C213.477 151.541 213.496 151.943 213.756 152.179L214.611 151.238ZM216.891 155.031C217.151 155.267 217.553 155.248 217.789 154.988C218.025 154.729 218.006 154.327 217.746 154.09L216.891 155.031ZM213.756 152.179L216.891 155.031L217.746 154.09L214.611 151.238L213.756 152.179Z"
            fill="#0D102B" />
        <path
            d="M216.713 149.005C216.459 148.762 216.057 148.771 215.814 149.025C215.571 149.278 215.58 149.681 215.834 149.924L216.713 149.005ZM218.895 152.855C219.149 153.097 219.551 153.089 219.794 152.835C220.037 152.581 220.028 152.179 219.775 151.936L218.895 152.855ZM215.834 149.924L218.895 152.855L219.775 151.936L216.713 149.005L215.834 149.924Z"
            fill="#0D102B" />
        <path
            d="M219.398 146.298C219.152 146.047 218.749 146.045 218.499 146.291C218.249 146.537 218.246 146.94 218.493 147.19L219.398 146.298ZM221.468 150.209C221.714 150.459 222.116 150.462 222.367 150.215C222.617 149.969 222.62 149.566 222.373 149.316L221.468 150.209ZM218.493 147.19L221.468 150.209L222.373 149.316L219.398 146.298L218.493 147.19Z"
            fill="#0D102B" />
        <path
            d="M221.616 144.184C221.376 143.928 220.974 143.914 220.718 144.154C220.462 144.394 220.448 144.797 220.688 145.053L221.616 144.184ZM223.586 148.146C223.826 148.402 224.228 148.416 224.484 148.176C224.74 147.936 224.754 147.533 224.514 147.277L223.586 148.146ZM220.688 145.053L223.586 148.146L224.514 147.277L221.616 144.184L220.688 145.053Z"
            fill="#0D102B" />
        <path
            d="M223.889 142.128C223.656 141.865 223.254 141.842 222.991 142.075C222.729 142.309 222.706 142.711 222.939 142.973L223.889 142.128ZM225.757 146.139C225.99 146.401 226.392 146.424 226.654 146.191C226.917 145.958 226.94 145.556 226.707 145.293L225.757 146.139ZM222.939 142.973L225.757 146.139L226.707 145.293L223.889 142.128L222.939 142.973Z"
            fill="#0D102B" />
        <path
            d="M226.212 140.129C225.985 139.861 225.584 139.827 225.316 140.054C225.048 140.281 225.014 140.682 225.241 140.95L226.212 140.129ZM227.977 144.186C228.204 144.455 228.605 144.488 228.873 144.262C229.141 144.035 229.175 143.634 228.948 143.366L227.977 144.186ZM225.241 140.95L227.977 144.186L228.948 143.366L226.212 140.129L225.241 140.95Z"
            fill="#0D102B" />
        <path
            d="M228.582 138.189C228.362 137.916 227.962 137.872 227.688 138.091C227.414 138.311 227.37 138.711 227.59 138.985L228.582 138.189ZM230.243 142.291C230.463 142.564 230.863 142.608 231.137 142.388C231.41 142.169 231.454 141.769 231.234 141.495L230.243 142.291ZM227.59 138.985L230.243 142.291L231.234 141.495L228.582 138.189L227.59 138.985Z"
            fill="#0D102B" />
        <path
            d="M231.006 136.309C230.793 136.03 230.394 135.976 230.115 136.188C229.836 136.401 229.782 136.8 229.994 137.079L231.006 136.309ZM232.562 140.451C232.774 140.73 233.173 140.784 233.453 140.572C233.732 140.359 233.786 139.96 233.573 139.681L232.562 140.451ZM229.994 137.079L232.562 140.451L233.573 139.681L231.006 136.309L229.994 137.079Z"
            fill="#0D102B" />
        <path
            d="M234.12 134.023C233.916 133.737 233.519 133.67 233.233 133.874C232.947 134.077 232.88 134.474 233.083 134.76L234.12 134.023ZM248.257 156.094C248.46 156.38 248.857 156.447 249.143 156.244C249.429 156.04 249.496 155.643 249.293 155.357L248.257 156.094ZM233.083 134.76L248.257 156.094L249.293 155.357L234.12 134.023L233.083 134.76Z"
            fill="#0D102B" />
        <path
            d="M236.655 132.275C236.458 131.984 236.063 131.909 235.772 132.106C235.481 132.303 235.406 132.698 235.603 132.989L236.655 132.275ZM237.982 136.496C238.179 136.787 238.574 136.862 238.865 136.665C239.155 136.468 239.231 136.073 239.034 135.782L237.982 136.496ZM235.603 132.989L237.982 136.496L239.034 135.782L236.655 132.275L235.603 132.989Z"
            fill="#0D102B" />
        <path
            d="M239.234 130.59C239.045 130.295 238.652 130.209 238.356 130.398C238.06 130.588 237.975 130.981 238.164 131.277L239.234 130.59ZM240.452 134.844C240.642 135.139 241.035 135.225 241.331 135.036C241.626 134.846 241.712 134.453 241.523 134.157L240.452 134.844ZM238.164 131.277L240.452 134.844L241.523 134.157L239.234 130.59L238.164 131.277Z"
            fill="#0D102B" />
        <path
            d="M241.852 128.969C241.67 128.669 241.28 128.573 240.979 128.755C240.679 128.936 240.583 129.327 240.765 129.628L241.852 128.969ZM242.961 133.253C243.143 133.553 243.533 133.649 243.834 133.467C244.134 133.285 244.23 132.894 244.048 132.594L242.961 133.253ZM240.765 129.628L242.961 133.253L244.048 132.594L241.852 128.969L240.765 129.628Z"
            fill="#0D102B" />
        <path
            d="M244.521 127.411C244.347 127.106 243.958 127 243.654 127.174C243.349 127.348 243.243 127.737 243.417 128.042L244.521 127.411ZM245.518 131.722C245.692 132.027 246.081 132.133 246.386 131.959C246.691 131.785 246.797 131.396 246.622 131.092L245.518 131.722ZM243.417 128.042L245.518 131.722L246.622 131.092L244.521 127.411L243.417 128.042Z"
            fill="#0D102B" />
        <path
            d="M247.24 125.919C247.074 125.61 246.688 125.494 246.379 125.66C246.07 125.826 245.953 126.212 246.12 126.521L247.24 125.919ZM248.126 130.254C248.292 130.564 248.677 130.68 248.986 130.514C249.296 130.347 249.412 129.962 249.246 129.653L248.126 130.254ZM246.12 126.521L248.126 130.254L249.246 129.653L247.24 125.919L246.12 126.521Z"
            fill="#0D102B" />
        <path
            d="M249.99 124.493C249.831 124.179 249.449 124.054 249.136 124.212C248.822 124.37 248.696 124.752 248.854 125.066L249.99 124.493ZM250.763 128.85C250.921 129.163 251.303 129.289 251.617 129.131C251.93 128.973 252.056 128.591 251.898 128.277L250.763 128.85ZM248.854 125.066L250.763 128.85L251.898 128.277L249.99 124.493L248.854 125.066Z"
            fill="#0D102B" />
        <path
            d="M252.798 123.133C252.648 122.816 252.269 122.68 251.951 122.83C251.634 122.98 251.498 123.359 251.648 123.676L252.798 123.133ZM253.457 127.509C253.607 127.826 253.986 127.962 254.304 127.812C254.621 127.662 254.757 127.283 254.607 126.966L253.457 127.509ZM251.648 123.676L253.457 127.509L254.607 126.966L252.798 123.133L251.648 123.676Z"
            fill="#0D102B" />
        <path
            d="M255.64 121.842C255.499 121.521 255.124 121.375 254.802 121.517C254.481 121.658 254.335 122.033 254.477 122.355L255.64 121.842ZM256.186 126.233C256.327 126.554 256.703 126.7 257.024 126.558C257.345 126.417 257.491 126.042 257.349 125.72L256.186 126.233ZM254.477 122.355L256.186 126.233L257.349 125.72L255.64 121.842L254.477 122.355Z"
            fill="#0D102B" />
        <path
            d="M259.335 120.295C259.203 119.97 258.833 119.813 258.507 119.945C258.182 120.077 258.025 120.447 258.157 120.773L259.335 120.295ZM259.749 124.701C259.881 125.026 260.252 125.183 260.577 125.051C260.903 124.919 261.06 124.548 260.928 124.223L259.749 124.701ZM258.157 120.773L259.749 124.701L260.928 124.223L259.335 120.295L258.157 120.773Z"
            fill="#0D102B" />
        <path
            d="M262.287 119.162C262.163 118.833 261.797 118.667 261.468 118.79C261.139 118.914 260.973 119.28 261.096 119.609L262.287 119.162ZM262.585 123.577C262.708 123.906 263.075 124.072 263.404 123.949C263.732 123.825 263.899 123.459 263.776 123.13L262.585 123.577ZM261.096 119.609L262.585 123.577L263.776 123.13L262.287 119.162L261.096 119.609Z"
            fill="#0D102B" />
        <path
            d="M265.273 118.102C265.158 117.77 264.796 117.594 264.464 117.708C264.132 117.823 263.956 118.185 264.071 118.517L265.273 118.102ZM265.455 122.523C265.57 122.855 265.932 123.031 266.263 122.916C266.595 122.801 266.771 122.439 266.657 122.108L265.455 122.523ZM264.071 118.517L265.455 122.523L266.657 122.108L265.273 118.102L264.071 118.517Z"
            fill="#0D102B" />
        <path
            d="M268.309 117.115C268.203 116.78 267.846 116.595 267.511 116.7C267.177 116.806 266.991 117.163 267.097 117.498L268.309 117.115ZM268.375 121.539C268.481 121.874 268.838 122.06 269.173 121.954C269.507 121.848 269.693 121.491 269.587 121.156L268.375 121.539ZM267.097 117.498L268.375 121.539L269.587 121.156L268.309 117.115L267.097 117.498Z"
            fill="#0D102B" />
        <path
            d="M271.381 116.204C271.284 115.866 270.931 115.671 270.594 115.768C270.257 115.865 270.062 116.217 270.159 116.555L271.381 116.204ZM271.329 120.628C271.426 120.965 271.778 121.16 272.116 121.063C272.453 120.967 272.648 120.614 272.551 120.277L271.329 120.628ZM270.159 116.555L271.329 120.628L272.551 120.277L271.381 116.204L270.159 116.555Z"
            fill="#0D102B" />
        <path
            d="M274.502 115.369C274.414 115.029 274.067 114.825 273.727 114.913C273.388 115.001 273.183 115.348 273.271 115.688L274.502 115.369ZM274.333 119.791C274.421 120.131 274.768 120.335 275.108 120.247C275.448 120.159 275.652 119.812 275.564 119.472L274.333 119.791ZM273.271 115.688L274.333 119.791L275.564 119.472L274.502 115.369L273.271 115.688Z"
            fill="#0D102B" />
        <path
            d="M276.787 114.815C276.707 114.473 276.365 114.261 276.023 114.342C275.681 114.422 275.469 114.764 275.549 115.106L276.787 114.815ZM276.517 119.232C276.597 119.574 276.939 119.786 277.281 119.706C277.623 119.625 277.835 119.283 277.755 118.941L276.517 119.232ZM275.549 115.106L276.517 119.232L277.755 118.941L276.787 114.815L275.549 115.106Z"
            fill="#0D102B" />
        <path
            d="M279.977 114.113C279.903 113.769 279.565 113.551 279.222 113.624C278.879 113.698 278.66 114.036 278.734 114.379L279.977 114.113ZM284.177 139.754C284.251 140.097 284.589 140.316 284.932 140.242C285.276 140.168 285.494 139.83 285.42 139.487L284.177 139.754ZM278.734 114.379L284.177 139.754L285.42 139.487L279.977 114.113L278.734 114.379Z"
            fill="#0D102B" />
        <path
            d="M283.216 113.502C283.154 113.156 282.824 112.926 282.478 112.988C282.132 113.049 281.902 113.38 281.964 113.725L283.216 113.502ZM282.71 117.897C282.772 118.243 283.102 118.473 283.448 118.411C283.794 118.349 284.024 118.019 283.962 117.673L282.71 117.897ZM281.964 113.725L282.71 117.897L283.962 117.673L283.216 113.502L281.964 113.725Z"
            fill="#0D102B" />
        <path
            d="M286.5 112.97C286.447 112.623 286.123 112.384 285.776 112.437C285.429 112.489 285.19 112.813 285.243 113.16L286.5 112.97ZM285.877 117.351C285.929 117.698 286.253 117.937 286.6 117.884C286.947 117.832 287.186 117.508 287.134 117.161L285.877 117.351ZM285.243 113.16L285.877 117.351L287.134 117.161L286.5 112.97L285.243 113.16Z"
            fill="#0D102B" />
        <path
            d="M289.818 112.524C289.775 112.175 289.458 111.928 289.109 111.971C288.761 112.014 288.513 112.332 288.557 112.68L289.818 112.524ZM289.078 116.886C289.121 117.235 289.439 117.482 289.787 117.439C290.135 117.396 290.383 117.078 290.34 116.73L289.078 116.886ZM288.557 112.68L289.078 116.886L290.34 116.73L289.818 112.524L288.557 112.68Z"
            fill="#0D102B" />
        <path
            d="M293.18 112.167C293.146 111.817 292.835 111.561 292.486 111.595C292.136 111.629 291.88 111.94 291.914 112.289L293.18 112.167ZM292.322 116.508C292.356 116.857 292.667 117.113 293.016 117.079C293.365 117.045 293.621 116.735 293.588 116.385L292.322 116.508ZM291.914 112.289L292.322 116.508L293.588 116.385L293.18 112.167L291.914 112.289Z"
            fill="#0D102B" />
        <path
            d="M295.657 111.964C295.632 111.614 295.327 111.351 294.977 111.377C294.627 111.403 294.364 111.707 294.389 112.057L295.657 111.964ZM294.7 116.284C294.725 116.634 295.03 116.897 295.38 116.872C295.731 116.846 295.994 116.541 295.968 116.191L294.7 116.284ZM294.389 112.057L294.7 116.284L295.968 116.191L295.657 111.964L294.389 112.057Z"
            fill="#0D102B" />
        <path
            d="M299.096 111.766C299.08 111.415 298.782 111.144 298.432 111.16C298.081 111.176 297.81 111.474 297.826 111.825L299.096 111.766ZM298.022 116.058C298.038 116.409 298.336 116.68 298.687 116.664C299.037 116.648 299.308 116.35 299.292 115.999L298.022 116.058ZM297.826 111.825L298.022 116.058L299.292 115.999L299.096 111.766L297.826 111.825Z"
            fill="#0D102B" />
        <path
            d="M302.577 111.662C302.57 111.311 302.28 111.032 301.929 111.039C301.578 111.045 301.299 111.335 301.306 111.686L302.577 111.662ZM301.388 115.924C301.394 116.275 301.684 116.554 302.035 116.547C302.387 116.54 302.666 116.25 302.659 115.899L301.388 115.924ZM301.306 111.686L301.388 115.924L302.659 115.899L302.577 111.662L301.306 111.686Z"
            fill="#0D102B" />
        <path
            d="M306.581 111.664C306.585 111.313 306.304 111.025 305.953 111.021C305.602 111.017 305.314 111.298 305.31 111.649L306.581 111.664ZM305.261 115.887C305.256 116.238 305.538 116.526 305.889 116.53C306.24 116.534 306.528 116.253 306.532 115.902L305.261 115.887ZM305.31 111.649L305.261 115.887L306.532 115.902L306.581 111.664L305.31 111.649Z"
            fill="#0D102B" />
        <path
            d="M309.135 111.734C309.148 111.383 308.873 111.088 308.522 111.076C308.171 111.064 307.877 111.339 307.865 111.689L309.135 111.734ZM307.717 115.925C307.705 116.276 307.98 116.57 308.331 116.582C308.682 116.595 308.976 116.32 308.988 115.969L307.717 115.925ZM307.865 111.689L307.717 115.925L308.988 115.969L309.135 111.734L307.865 111.689Z"
            fill="#0D102B" />
        <path
            d="M312.592 111.911C312.613 111.561 312.347 111.259 311.996 111.237C311.646 111.216 311.344 111.482 311.323 111.833L312.592 111.911ZM311.061 116.063C311.039 116.413 311.306 116.715 311.656 116.736C312.007 116.758 312.308 116.492 312.33 116.141L311.061 116.063ZM311.323 111.833L311.061 116.063L312.33 116.141L312.592 111.911L311.323 111.833Z"
            fill="#0D102B" />
        <path
            d="M316.008 112.183C316.039 111.833 315.781 111.524 315.431 111.493C315.082 111.462 314.773 111.721 314.742 112.07L316.008 112.183ZM314.366 116.292C314.335 116.642 314.594 116.95 314.943 116.981C315.293 117.012 315.602 116.754 315.633 116.404L314.366 116.292ZM314.742 112.07L314.366 116.292L315.633 116.404L316.008 112.183L314.742 112.07Z"
            fill="#0D102B" />
        <path
            d="M318.468 112.438C318.507 112.089 318.256 111.774 317.907 111.735C317.558 111.696 317.243 111.947 317.204 112.296L318.468 112.438ZM316.731 116.508C316.692 116.857 316.943 117.171 317.292 117.211C317.641 117.25 317.956 116.999 317.995 116.65L316.731 116.508ZM317.204 112.296L316.731 116.508L317.995 116.65L318.468 112.438L317.204 112.296Z"
            fill="#0D102B" />
        <path
            d="M321.805 112.866C321.854 112.518 321.611 112.197 321.264 112.148C320.916 112.1 320.595 112.342 320.546 112.69L321.805 112.866ZM319.96 116.888C319.912 117.235 320.154 117.557 320.502 117.605C320.85 117.654 321.171 117.411 321.22 117.063L319.96 116.888ZM320.546 112.69L319.96 116.888L321.22 117.063L321.805 112.866L320.546 112.69Z"
            fill="#0D102B" />
        <path
            d="M325.1 113.38C325.158 113.034 324.924 112.706 324.577 112.648C324.231 112.59 323.903 112.824 323.846 113.171L325.1 113.38ZM323.147 117.351C323.089 117.697 323.323 118.025 323.67 118.083C324.016 118.14 324.344 117.907 324.401 117.56L323.147 117.351ZM323.846 113.171L323.147 117.351L324.401 117.56L325.1 113.38L323.846 113.171Z"
            fill="#0D102B" />
        <path
            d="M328.354 113.98C328.422 113.635 328.197 113.301 327.852 113.234C327.507 113.167 327.174 113.392 327.106 113.737L328.354 113.98ZM326.296 117.897C326.229 118.241 326.454 118.575 326.799 118.642C327.144 118.709 327.477 118.484 327.545 118.14L326.296 117.897ZM327.106 113.737L326.296 117.897L327.545 118.14L328.354 113.98L327.106 113.737Z"
            fill="#0D102B" />
        <path
            d="M331.562 114.677C331.647 114.336 331.439 113.991 331.098 113.907C330.757 113.823 330.412 114.031 330.328 114.372L331.562 114.677ZM324.025 139.892C323.94 140.233 324.149 140.577 324.489 140.662C324.83 140.746 325.175 140.538 325.259 140.197L324.025 139.892ZM330.328 114.372L324.025 139.892L325.259 140.197L331.562 114.677L330.328 114.372Z"
            fill="#0D102B" />
        <path
            d="M334.738 115.425C334.823 115.085 334.616 114.739 334.276 114.654C333.935 114.569 333.59 114.776 333.504 115.116L334.738 115.425ZM332.474 119.227C332.388 119.568 332.595 119.913 332.936 119.998C333.276 120.084 333.622 119.877 333.707 119.536L332.474 119.227ZM333.504 115.116L332.474 119.227L333.707 119.536L334.738 115.425L333.504 115.116Z"
            fill="#0D102B" />
        <path
            d="M337.858 116.267C337.953 115.929 337.755 115.579 337.417 115.484C337.079 115.39 336.728 115.587 336.634 115.926L337.858 116.267ZM335.494 120.008C335.4 120.346 335.597 120.696 335.936 120.791C336.274 120.885 336.624 120.688 336.719 120.349L335.494 120.008ZM336.634 115.926L335.494 120.008L336.719 120.349L337.858 116.267L336.634 115.926Z"
            fill="#0D102B" />
        <path
            d="M340.94 117.187C341.043 116.851 340.855 116.495 340.519 116.392C340.184 116.289 339.828 116.477 339.724 116.812L340.94 117.187ZM338.477 120.863C338.374 121.198 338.562 121.554 338.898 121.658C339.233 121.761 339.589 121.573 339.692 121.237L338.477 120.863ZM339.724 116.812L338.477 120.863L339.692 121.237L340.94 117.187L339.724 116.812Z"
            fill="#0D102B" />
        <path
            d="M343.977 118.181C344.09 117.849 343.911 117.488 343.578 117.376C343.245 117.264 342.885 117.442 342.773 117.775L343.977 118.181ZM341.419 121.791C341.307 122.124 341.485 122.485 341.818 122.597C342.151 122.709 342.511 122.53 342.624 122.197L341.419 121.791ZM342.773 117.775L341.419 121.791L342.624 122.197L343.977 118.181L342.773 117.775Z"
            fill="#0D102B" />
        <path
            d="M346.968 119.25C347.089 118.92 346.92 118.555 346.59 118.434C346.26 118.313 345.895 118.483 345.774 118.812L346.968 119.25ZM344.315 122.791C344.194 123.121 344.364 123.486 344.693 123.607C345.023 123.728 345.388 123.559 345.509 123.229L344.315 122.791ZM345.774 118.812L344.315 122.791L345.509 123.229L346.968 119.25L345.774 118.812Z"
            fill="#0D102B" />
        <path
            d="M349.919 120.391C350.049 120.065 349.889 119.695 349.563 119.566C349.236 119.436 348.867 119.596 348.737 119.922L349.919 120.391ZM347.174 123.862C347.045 124.188 347.204 124.557 347.531 124.687C347.857 124.816 348.227 124.657 348.356 124.33L347.174 123.862ZM348.737 119.922L347.174 123.862L348.356 124.33L349.919 120.391L348.737 119.922Z"
            fill="#0D102B" />
        <path
            d="M352.827 121.603C352.965 121.28 352.815 120.907 352.492 120.769C352.169 120.631 351.796 120.781 351.658 121.104L352.827 121.603ZM349.992 125.001C349.854 125.324 350.004 125.697 350.327 125.835C350.65 125.973 351.023 125.823 351.161 125.5L349.992 125.001ZM351.658 121.104L349.992 125.001L351.161 125.5L352.827 121.603L351.658 121.104Z"
            fill="#0D102B" />
        <path
            d="M355.687 122.886C355.834 122.567 355.694 122.189 355.374 122.043C355.055 121.897 354.678 122.037 354.532 122.356L355.687 122.886ZM352.765 126.208C352.618 126.527 352.759 126.905 353.078 127.051C353.397 127.197 353.774 127.057 353.921 126.738L352.765 126.208ZM354.532 122.356L352.765 126.208L353.921 126.738L355.687 122.886L354.532 122.356Z"
            fill="#0D102B" />
        <path
            d="M358.508 124.237C358.663 123.921 358.533 123.54 358.217 123.386C357.902 123.231 357.521 123.361 357.367 123.677L358.508 124.237ZM355.5 127.482C355.346 127.797 355.476 128.178 355.791 128.333C356.107 128.487 356.487 128.357 356.642 128.042L355.5 127.482ZM357.367 123.677L355.5 127.482L356.642 128.042L358.508 124.237L357.367 123.677Z"
            fill="#0D102B" />
        <path
            d="M361.282 125.655C361.445 125.344 361.325 124.96 361.013 124.797C360.702 124.634 360.318 124.754 360.155 125.066L361.282 125.655ZM358.191 128.821C358.028 129.132 358.149 129.516 358.46 129.679C358.771 129.842 359.155 129.721 359.318 129.41L358.191 128.821ZM360.155 125.066L358.191 128.821L359.318 129.41L361.282 125.655L360.155 125.066Z"
            fill="#0D102B" />
        <path
            d="M364.009 127.14C364.179 126.833 364.069 126.446 363.762 126.275C363.455 126.104 363.068 126.215 362.898 126.522L364.009 127.14ZM360.837 130.225C360.666 130.532 360.776 130.919 361.083 131.09C361.39 131.26 361.777 131.15 361.948 130.843L360.837 130.225ZM362.898 126.522L360.837 130.225L361.948 130.843L364.009 127.14L362.898 126.522Z"
            fill="#0D102B" />
        <path
            d="M366.7 128.691C366.878 128.388 366.778 127.999 366.476 127.82C366.173 127.641 365.784 127.742 365.605 128.044L366.7 128.691ZM363.449 131.693C363.271 131.995 363.371 132.385 363.673 132.564C363.976 132.742 364.365 132.642 364.544 132.34L363.449 131.693ZM365.605 128.044L363.449 131.693L364.544 132.34L366.7 128.691L365.605 128.044Z"
            fill="#0D102B" />
        <path
            d="M369.332 130.306C369.518 130.008 369.428 129.616 369.13 129.429C368.833 129.243 368.44 129.333 368.254 129.631L369.332 130.306ZM366.005 133.223C365.819 133.521 365.909 133.913 366.207 134.099C366.504 134.286 366.897 134.196 367.083 133.898L366.005 133.223ZM368.254 129.631L366.005 133.223L367.083 133.898L369.332 130.306L368.254 129.631Z"
            fill="#0D102B" />
        <path
            d="M372.603 132.437C372.798 132.145 372.719 131.75 372.427 131.555C372.135 131.36 371.74 131.439 371.545 131.731L372.603 132.437ZM369.192 135.256C368.997 135.548 369.076 135.942 369.368 136.137C369.66 136.332 370.055 136.254 370.25 135.962L369.192 135.256ZM371.545 131.731L369.192 135.256L370.25 135.962L372.603 132.437L371.545 131.731Z"
            fill="#0D102B" />
        <path
            d="M375.129 134.192C375.331 133.905 375.263 133.508 374.976 133.306C374.689 133.103 374.292 133.172 374.09 133.459L375.129 134.192ZM371.647 136.922C371.445 137.209 371.513 137.606 371.8 137.808C372.087 138.01 372.484 137.942 372.686 137.655L371.647 136.922ZM374.09 133.459L371.647 136.922L372.686 137.655L375.129 134.192L374.09 133.459Z"
            fill="#0D102B" />
        <path
            d="M377.598 136.031C377.82 135.759 377.78 135.358 377.508 135.136C377.236 134.914 376.836 134.954 376.613 135.226L377.598 136.031ZM360.171 155.323C359.948 155.595 359.988 155.995 360.26 156.218C360.532 156.44 360.932 156.4 361.155 156.128L360.171 155.323ZM376.613 135.226L360.171 155.323L361.155 156.128L377.598 136.031L376.613 135.226Z"
            fill="#0D102B" />
        <path
            d="M380.051 137.884C380.268 137.608 380.219 137.208 379.943 136.992C379.667 136.775 379.267 136.823 379.051 137.099L380.051 137.884ZM376.434 140.433C376.217 140.71 376.266 141.109 376.542 141.326C376.818 141.543 377.218 141.495 377.434 141.218L376.434 140.433ZM379.051 137.099L376.434 140.433L377.434 141.218L380.051 137.884L379.051 137.099Z"
            fill="#0D102B" />
        <path
            d="M382.435 139.821C382.659 139.55 382.621 139.15 382.35 138.926C382.08 138.702 381.679 138.74 381.455 139.011L382.435 139.821ZM378.755 142.277C378.531 142.548 378.569 142.948 378.84 143.172C379.11 143.396 379.511 143.358 379.735 143.087L378.755 142.277ZM381.455 139.011L378.755 142.277L379.735 143.087L382.435 139.821L381.455 139.011Z"
            fill="#0D102B" />
        <path
            d="M384.772 141.816C385.003 141.552 384.975 141.15 384.71 140.919C384.446 140.689 384.044 140.717 383.813 140.981L384.772 141.816ZM381.031 144.178C380.8 144.443 380.828 144.844 381.093 145.075C381.357 145.305 381.759 145.278 381.99 145.013L381.031 144.178ZM383.813 140.981L381.031 144.178L381.99 145.013L384.772 141.816L383.813 140.981Z"
            fill="#0D102B" />
        <path
            d="M387.059 143.87C387.296 143.611 387.278 143.209 387.019 142.972C386.76 142.735 386.358 142.752 386.121 143.011L387.059 143.87ZM383.258 146.136C383.021 146.395 383.038 146.797 383.297 147.034C383.556 147.271 383.958 147.254 384.195 146.995L383.258 146.136ZM386.121 143.011L383.258 146.136L384.195 146.995L387.059 143.87L386.121 143.011Z"
            fill="#0D102B" />
        <path
            d="M389.839 146.513C390.083 146.261 390.078 145.858 389.826 145.614C389.574 145.369 389.171 145.375 388.927 145.627L389.839 146.513ZM385.974 148.667C385.729 148.919 385.735 149.321 385.987 149.566C386.239 149.81 386.641 149.805 386.886 149.553L385.974 148.667ZM388.927 145.627L385.974 148.667L386.886 149.553L389.839 146.513L388.927 145.627Z"
            fill="#0D102B" />
        <path
            d="M392.003 148.689C392.254 148.444 392.259 148.041 392.013 147.79C391.767 147.539 391.365 147.535 391.114 147.78L392.003 148.689ZM388.085 150.744C387.834 150.99 387.829 151.392 388.075 151.643C388.32 151.894 388.723 151.899 388.974 151.653L388.085 150.744ZM391.114 147.78L388.085 150.744L388.974 151.653L392.003 148.689L391.114 147.78Z"
            fill="#0D102B" />
        <path
            d="M394.109 150.922C394.366 150.683 394.38 150.28 394.141 150.023C393.902 149.766 393.5 149.751 393.243 149.99L394.109 150.922ZM390.139 152.876C389.882 153.116 389.867 153.518 390.106 153.775C390.346 154.032 390.748 154.047 391.005 153.808L390.139 152.876ZM393.243 149.99L390.139 152.876L391.005 153.808L394.109 150.922L393.243 149.99Z"
            fill="#0D102B" />
        <path
            d="M396.167 153.209C396.43 152.976 396.455 152.575 396.223 152.311C395.99 152.048 395.588 152.023 395.325 152.256L396.167 153.209ZM392.149 155.062C391.886 155.295 391.861 155.696 392.094 155.959C392.326 156.222 392.728 156.247 392.991 156.015L392.149 155.062ZM395.325 152.256L392.149 155.062L392.991 156.015L396.167 153.209L395.325 152.256Z"
            fill="#0D102B" />
        <path
            d="M398.17 155.55C398.439 155.324 398.474 154.923 398.249 154.654C398.023 154.385 397.622 154.35 397.353 154.576L398.17 155.55ZM394.106 157.3C393.838 157.526 393.802 157.927 394.028 158.196C394.254 158.465 394.655 158.5 394.924 158.274L394.106 157.3ZM397.353 154.576L394.106 157.3L394.924 158.274L398.17 155.55L397.353 154.576Z"
            fill="#0D102B" />
        <path
            d="M400.119 157.945C400.393 157.726 400.439 157.326 400.22 157.052C400.001 156.777 399.601 156.732 399.327 156.951L400.119 157.945ZM396.012 159.591C395.737 159.81 395.692 160.21 395.91 160.485C396.129 160.759 396.529 160.804 396.804 160.586L396.012 159.591ZM399.327 156.951L396.012 159.591L396.804 160.586L400.119 157.945L399.327 156.951Z"
            fill="#0D102B" />
        <path
            d="M402.424 160.962C402.705 160.751 402.762 160.353 402.552 160.072C402.341 159.791 401.942 159.734 401.662 159.945L402.424 160.962ZM398.271 162.487C397.99 162.698 397.933 163.097 398.144 163.378C398.354 163.658 398.753 163.715 399.034 163.505L398.271 162.487ZM401.662 159.945L398.271 162.487L399.034 163.505L402.424 160.962L401.662 159.945Z"
            fill="#0D102B" />
        <path
            d="M404.235 163.465C404.522 163.261 404.589 162.865 404.385 162.578C404.182 162.292 403.785 162.225 403.499 162.428L404.235 163.465ZM400.044 164.884C399.758 165.087 399.691 165.484 399.895 165.77C400.098 166.057 400.495 166.124 400.781 165.92L400.044 164.884ZM403.499 162.428L400.044 164.884L400.781 165.92L404.235 163.465L403.499 162.428Z"
            fill="#0D102B" />
        <path
            d="M405.984 166.019C406.275 165.823 406.352 165.428 406.156 165.137C405.96 164.845 405.565 164.768 405.274 164.964L405.984 166.019ZM401.758 167.33C401.466 167.526 401.389 167.921 401.585 168.213C401.781 168.504 402.176 168.581 402.468 168.385L401.758 167.33ZM405.274 164.964L401.758 167.33L402.468 168.385L405.984 166.019L405.274 164.964Z"
            fill="#0D102B" />
        <path
            d="M407.669 168.623C407.966 168.434 408.053 168.041 407.864 167.745C407.676 167.449 407.283 167.361 406.987 167.55L407.669 168.623ZM403.411 169.825C403.115 170.013 403.028 170.406 403.216 170.703C403.404 170.999 403.797 171.086 404.094 170.898L403.411 169.825ZM406.987 167.55L403.411 169.825L404.094 170.898L407.669 168.623L406.987 167.55Z"
            fill="#0D102B" />
        <path
            d="M409.294 171.276C409.596 171.096 409.695 170.706 409.515 170.404C409.335 170.103 408.945 170.004 408.643 170.184L409.294 171.276ZM386.193 183.576C385.892 183.755 385.793 184.146 385.973 184.447C386.153 184.749 386.543 184.847 386.844 184.668L386.193 183.576ZM408.643 170.184L386.193 183.576L386.844 184.668L409.294 171.276L408.643 170.184Z"
            fill="#0D102B" />
        <path
            d="M410.856 173.976C411.162 173.803 411.269 173.415 411.096 173.109C410.923 172.804 410.535 172.696 410.23 172.869L410.856 173.976ZM406.542 174.957C406.236 175.13 406.129 175.518 406.302 175.824C406.475 176.129 406.863 176.237 407.168 176.064L406.542 174.957ZM410.23 172.869L406.542 174.957L407.168 176.064L410.856 173.976L410.23 172.869Z"
            fill="#0D102B" />
        <path
            d="M412.35 176.723C412.659 176.558 412.777 176.173 412.612 175.863C412.447 175.553 412.062 175.436 411.752 175.601L412.35 176.723ZM408.011 177.593C407.701 177.758 407.584 178.143 407.749 178.453C407.914 178.763 408.299 178.88 408.609 178.715L408.011 177.593ZM411.752 175.601L408.011 177.593L408.609 178.715L412.35 176.723L411.752 175.601Z"
            fill="#0D102B" />
        <path
            d="M413.776 179.516C414.09 179.359 414.218 178.978 414.061 178.664C413.904 178.35 413.522 178.222 413.208 178.379L413.776 179.516ZM409.417 180.274C409.103 180.43 408.975 180.812 409.132 181.126C409.289 181.44 409.671 181.568 409.985 181.411L409.417 180.274ZM413.208 178.379L409.417 180.274L409.985 181.411L413.776 179.516L413.208 178.379Z"
            fill="#0D102B" />
        <path
            d="M415.133 182.354C415.451 182.206 415.588 181.827 415.439 181.509C415.29 181.191 414.912 181.054 414.594 181.203L415.133 182.354ZM410.755 182.998C410.437 183.147 410.3 183.525 410.448 183.843C410.597 184.161 410.975 184.298 411.293 184.15L410.755 182.998ZM414.594 181.203L410.755 182.998L411.293 184.15L415.133 182.354L414.594 181.203Z"
            fill="#0D102B" />
        <path
            d="M416.678 185.815C417 185.676 417.149 185.302 417.009 184.98C416.87 184.657 416.496 184.509 416.174 184.648L416.678 185.815ZM412.283 186.328C411.96 186.467 411.812 186.842 411.951 187.164C412.09 187.486 412.465 187.635 412.787 187.496L412.283 186.328ZM416.174 184.648L412.283 186.328L412.787 187.496L416.678 185.815L416.174 184.648Z"
            fill="#0D102B" />
        <path
            d="M417.877 188.738C418.203 188.607 418.361 188.237 418.231 187.911C418.1 187.586 417.73 187.427 417.404 187.558L417.877 188.738ZM413.47 189.136C413.145 189.266 412.986 189.637 413.117 189.962C413.248 190.288 413.618 190.447 413.944 190.316L413.47 189.136ZM417.404 187.558L413.47 189.136L413.944 190.316L417.877 188.738L417.404 187.558Z"
            fill="#0D102B" />
        <path
            d="M419.006 191.702C419.335 191.579 419.503 191.214 419.381 190.884C419.259 190.555 418.893 190.387 418.564 190.509L419.006 191.702ZM414.59 191.983C414.261 192.106 414.093 192.471 414.216 192.801C414.338 193.13 414.703 193.298 415.033 193.176L414.59 191.983ZM418.564 190.509L414.59 191.983L415.033 193.176L419.006 191.702L418.564 190.509Z"
            fill="#0D102B" />
        <path
            d="M420.053 194.705C420.385 194.591 420.563 194.23 420.449 193.898C420.336 193.565 419.975 193.388 419.642 193.501L420.053 194.705ZM415.631 194.87C415.299 194.984 415.122 195.345 415.235 195.677C415.348 196.009 415.71 196.187 416.042 196.073L415.631 194.87ZM419.642 193.501L415.631 194.87L416.042 196.073L420.053 194.705L419.642 193.501Z"
            fill="#0D102B" />
        <path
            d="M421.029 197.746C421.364 197.641 421.551 197.284 421.447 196.949C421.342 196.614 420.986 196.427 420.65 196.532L421.029 197.746ZM416.605 197.794C416.27 197.899 416.083 198.255 416.187 198.591C416.292 198.926 416.648 199.113 416.983 199.008L416.605 197.794ZM420.65 196.532L416.605 197.794L416.983 199.008L421.029 197.746L420.65 196.532Z"
            fill="#0D102B" />
        <path
            d="M421.931 200.823C422.269 200.727 422.465 200.376 422.369 200.038C422.274 199.7 421.922 199.504 421.585 199.599L421.931 200.823ZM417.507 200.754C417.169 200.85 416.973 201.201 417.068 201.539C417.164 201.877 417.515 202.073 417.853 201.978L417.507 200.754ZM421.585 199.599L417.507 200.754L417.853 201.978L421.931 200.823L421.585 199.599Z"
            fill="#0D102B" />
        <path
            d="M422.751 203.935C423.091 203.848 423.296 203.502 423.21 203.162C423.123 202.821 422.777 202.616 422.437 202.703L422.751 203.935ZM418.33 203.749C417.99 203.836 417.784 204.182 417.871 204.522C417.957 204.862 418.303 205.068 418.644 204.981L418.33 203.749ZM422.437 202.703L418.33 203.749L418.644 204.981L422.751 203.935L422.437 202.703Z"
            fill="#0D102B" />
        <path
            d="M423.366 206.53C423.708 206.452 423.921 206.11 423.842 205.768C423.763 205.426 423.422 205.213 423.08 205.292L423.366 206.53ZM418.95 206.244C418.608 206.323 418.394 206.664 418.473 207.006C418.552 207.348 418.894 207.562 419.236 207.483L418.95 206.244ZM423.08 205.292L418.95 206.244L419.236 207.483L423.366 206.53L423.08 205.292Z"
            fill="#0D102B" />
        <path
            d="M424.04 209.713C424.384 209.643 424.607 209.308 424.537 208.964C424.467 208.62 424.132 208.397 423.788 208.467L424.04 209.713ZM419.634 209.309C419.29 209.378 419.068 209.714 419.137 210.058C419.207 210.402 419.542 210.624 419.887 210.555L419.634 209.309ZM423.788 208.467L419.634 209.309L419.887 210.555L424.04 209.713L423.788 208.467Z"
            fill="#0D102B" />
        <path
            d="M424.633 212.926C424.979 212.865 425.21 212.536 425.15 212.19C425.089 211.844 424.76 211.613 424.414 211.673L424.633 212.926ZM420.239 212.403C419.893 212.464 419.662 212.793 419.722 213.139C419.783 213.485 420.112 213.716 420.458 213.656L420.239 212.403ZM424.414 211.673L420.239 212.403L420.458 213.656L424.633 212.926L424.414 211.673Z"
            fill="#0D102B" />
        <path
            d="M425.132 216.166C425.479 216.114 425.719 215.791 425.668 215.444C425.617 215.097 425.294 214.856 424.946 214.908L425.132 216.166ZM420.753 215.526C420.406 215.577 420.166 215.9 420.217 216.247C420.268 216.595 420.592 216.835 420.939 216.784L420.753 215.526ZM424.946 214.908L420.753 215.526L420.939 216.784L425.132 216.166L424.946 214.908Z"
            fill="#0D102B" />
        <path
            d="M425.56 219.43C425.908 219.386 426.155 219.068 426.111 218.72C426.067 218.372 425.749 218.125 425.401 218.169L425.56 219.43ZM397.883 221.634C397.534 221.678 397.287 221.996 397.331 222.344C397.375 222.693 397.693 222.94 398.041 222.896L397.883 221.634ZM425.401 218.169L397.883 221.634L398.041 222.896L425.56 219.43L425.401 218.169Z"
            fill="#0D102B" />
        <path
            d="M425.891 222.719C426.24 222.686 426.497 222.377 426.465 222.027C426.433 221.678 426.123 221.42 425.773 221.453L425.891 222.719ZM421.553 221.845C421.204 221.877 420.947 222.187 420.979 222.536C421.011 222.886 421.321 223.143 421.671 223.111L421.553 221.845ZM425.773 221.453L421.553 221.845L421.671 223.111L425.891 222.719L425.773 221.453Z"
            fill="#0D102B" />
        <path
            d="M426.099 225.523C426.449 225.499 426.713 225.195 426.689 224.845C426.665 224.495 426.361 224.23 426.011 224.255L426.099 225.523ZM421.783 224.549C421.432 224.573 421.168 224.877 421.193 225.227C421.217 225.577 421.521 225.842 421.871 225.817L421.783 224.549ZM426.011 224.255L421.783 224.549L421.871 225.817L426.099 225.523L426.011 224.255Z"
            fill="#0D102B" />
        <path
            d="M426.273 228.859C426.624 228.844 426.896 228.548 426.881 228.197C426.866 227.846 426.57 227.574 426.219 227.589L426.273 228.859ZM421.985 227.768C421.634 227.783 421.362 228.08 421.377 228.431C421.391 228.781 421.688 229.054 422.039 229.039L421.985 227.768ZM426.219 227.589L421.985 227.768L422.039 229.039L426.273 228.859L426.219 227.589Z"
            fill="#0D102B" />
        <path
            d="M426.35 232.211C426.701 232.206 426.981 231.917 426.975 231.566C426.97 231.214 426.681 230.934 426.33 230.94L426.35 232.211ZM422.092 231.005C421.741 231.011 421.461 231.3 421.467 231.651C421.472 232.002 421.761 232.282 422.112 232.276L422.092 231.005ZM426.33 230.94L422.092 231.005L422.112 232.276L426.35 232.211L426.33 230.94Z"
            fill="#0D102B" />
        <path
            d="M203.585 245.708V244.401H199.841L201.446 242.702C201.723 242.417 201.975 242.145 202.202 241.888C202.428 241.626 202.624 241.37 202.788 241.12C202.948 240.87 203.071 240.618 203.157 240.364C203.247 240.106 203.292 239.837 203.292 239.556C203.292 239.184 203.233 238.847 203.116 238.542C202.999 238.233 202.829 237.97 202.606 237.751C202.38 237.532 202.098 237.362 201.762 237.241C201.43 237.12 201.048 237.059 200.614 237.059C200.161 237.059 199.747 237.134 199.372 237.282C199.001 237.427 198.684 237.626 198.423 237.88C198.157 238.134 197.952 238.431 197.807 238.77C197.663 239.106 197.591 239.464 197.591 239.843H199.225C199.225 239.612 199.255 239.407 199.313 239.227C199.372 239.048 199.458 238.897 199.571 238.776C199.68 238.659 199.817 238.571 199.981 238.513C200.149 238.45 200.342 238.419 200.561 238.419C200.729 238.419 200.882 238.446 201.018 238.501C201.159 238.556 201.28 238.634 201.382 238.735C201.479 238.841 201.555 238.968 201.61 239.116C201.665 239.265 201.692 239.434 201.692 239.626C201.692 239.755 201.671 239.888 201.628 240.024C201.589 240.161 201.524 240.307 201.434 240.464C201.341 240.624 201.219 240.8 201.071 240.991C200.923 241.182 200.741 241.395 200.526 241.63L197.766 244.595V245.708H203.585ZM210.528 242.462V240.423C210.528 239.872 210.464 239.388 210.335 238.97C210.206 238.548 210.022 238.194 209.784 237.909C209.542 237.628 209.249 237.415 208.905 237.27C208.561 237.126 208.175 237.054 207.745 237.054C207.319 237.054 206.935 237.126 206.591 237.27C206.251 237.415 205.962 237.628 205.724 237.909C205.481 238.194 205.296 238.548 205.167 238.97C205.038 239.388 204.974 239.872 204.974 240.423V242.462C204.974 243.013 205.038 243.499 205.167 243.921C205.3 244.339 205.487 244.688 205.729 244.97C205.968 245.255 206.259 245.47 206.602 245.614C206.946 245.759 207.331 245.831 207.757 245.831C208.186 245.831 208.573 245.759 208.917 245.614C209.261 245.47 209.552 245.255 209.79 244.97C210.028 244.688 210.21 244.339 210.335 243.921C210.464 243.499 210.528 243.013 210.528 242.462ZM206.614 241.759C206.614 241.638 206.614 241.546 206.614 241.483C206.614 241.421 206.614 241.296 206.614 241.108V240.165C206.614 239.849 206.638 239.575 206.685 239.345C206.735 239.114 206.811 238.927 206.913 238.782C207.007 238.645 207.122 238.544 207.259 238.477C207.399 238.407 207.561 238.372 207.745 238.372C207.909 238.372 208.056 238.399 208.185 238.454C208.317 238.505 208.429 238.585 208.519 238.694C208.636 238.831 208.724 239.015 208.782 239.245C208.845 239.472 208.88 239.745 208.888 240.065L206.614 241.759ZM208.888 242.708C208.888 243.024 208.862 243.3 208.811 243.534C208.765 243.765 208.692 243.954 208.595 244.102C208.501 244.243 208.384 244.349 208.243 244.419C208.102 244.485 207.94 244.518 207.757 244.518C207.558 244.518 207.386 244.479 207.241 244.401C207.097 244.323 206.977 244.204 206.884 244.044C206.802 243.911 206.737 243.745 206.69 243.546C206.647 243.347 206.622 243.118 206.614 242.86L208.888 241.173C208.888 241.286 208.888 241.374 208.888 241.436C208.888 241.495 208.888 241.589 208.888 241.718V242.708Z"
            fill="#0D102B" />
        <path
            d="M229.042 164.555V159.194H227.389L223.803 164.854L223.868 165.874H227.413V167.725H229.042V165.874H230.032V164.555H229.042ZM225.403 164.555L227.255 161.667L227.413 161.385V164.555H225.403ZM236.806 164.479V162.44C236.806 161.889 236.741 161.405 236.612 160.987C236.483 160.565 236.3 160.211 236.061 159.926C235.819 159.645 235.526 159.432 235.183 159.288C234.839 159.143 234.452 159.071 234.022 159.071C233.597 159.071 233.212 159.143 232.868 159.288C232.528 159.432 232.239 159.645 232.001 159.926C231.759 160.211 231.573 160.565 231.444 160.987C231.315 161.405 231.251 161.889 231.251 162.44V164.479C231.251 165.03 231.315 165.516 231.444 165.938C231.577 166.356 231.765 166.706 232.007 166.987C232.245 167.272 232.536 167.487 232.88 167.631C233.224 167.776 233.608 167.848 234.034 167.848C234.464 167.848 234.851 167.776 235.194 167.631C235.538 167.487 235.829 167.272 236.067 166.987C236.306 166.706 236.487 166.356 236.612 165.938C236.741 165.516 236.806 165.03 236.806 164.479ZM232.892 163.776C232.892 163.655 232.892 163.563 232.892 163.501C232.892 163.438 232.892 163.313 232.892 163.126V162.182C232.892 161.866 232.915 161.592 232.962 161.362C233.013 161.131 233.089 160.944 233.19 160.799C233.284 160.663 233.399 160.561 233.536 160.495C233.677 160.424 233.839 160.389 234.022 160.389C234.186 160.389 234.333 160.417 234.462 160.471C234.595 160.522 234.706 160.602 234.796 160.711C234.913 160.848 235.001 161.032 235.06 161.262C235.122 161.489 235.157 161.762 235.165 162.083L232.892 163.776ZM235.165 164.725C235.165 165.042 235.14 165.317 235.089 165.551C235.042 165.782 234.97 165.971 234.872 166.12C234.778 166.26 234.661 166.366 234.52 166.436C234.38 166.503 234.218 166.536 234.034 166.536C233.835 166.536 233.663 166.497 233.519 166.419C233.374 166.34 233.255 166.221 233.161 166.061C233.079 165.928 233.015 165.762 232.968 165.563C232.925 165.364 232.899 165.135 232.892 164.878L235.165 163.19C235.165 163.303 235.165 163.391 235.165 163.454C235.165 163.512 235.165 163.606 235.165 163.735V164.725Z"
            fill="#0D102B" />
        <path
            d="M203.46 199.193V200.459H204.344C204.567 200.459 204.766 200.484 204.942 200.535C205.122 200.586 205.276 200.664 205.405 200.769C205.53 200.875 205.626 201.01 205.692 201.174C205.759 201.338 205.792 201.535 205.792 201.765C205.792 201.949 205.762 202.115 205.704 202.263C205.649 202.412 205.567 202.537 205.458 202.638C205.344 202.752 205.204 202.838 205.036 202.896C204.868 202.955 204.678 202.984 204.467 202.984C204.28 202.984 204.108 202.957 203.952 202.902C203.796 202.844 203.661 202.763 203.548 202.662C203.43 202.564 203.341 202.447 203.278 202.31C203.216 202.17 203.184 202.017 203.184 201.853H201.555C201.555 202.267 201.635 202.627 201.796 202.931C201.96 203.236 202.176 203.488 202.446 203.687C202.716 203.89 203.022 204.043 203.366 204.144C203.714 204.242 204.069 204.291 204.432 204.291C204.854 204.291 205.247 204.236 205.61 204.127C205.977 204.013 206.294 203.849 206.559 203.635C206.825 203.424 207.034 203.162 207.186 202.849C207.339 202.537 207.415 202.181 207.415 201.783C207.415 201.556 207.387 201.342 207.333 201.138C207.278 200.935 207.194 200.748 207.081 200.576C206.967 200.408 206.823 200.258 206.647 200.125C206.475 199.992 206.27 199.883 206.032 199.797C206.235 199.699 206.415 199.584 206.571 199.451C206.727 199.314 206.858 199.166 206.964 199.006C207.069 198.845 207.149 198.677 207.204 198.502C207.259 198.322 207.286 198.14 207.286 197.957C207.286 197.558 207.216 197.209 207.075 196.908C206.938 196.603 206.745 196.347 206.495 196.14C206.245 195.937 205.944 195.785 205.592 195.683C205.241 195.578 204.854 195.525 204.432 195.525C204.042 195.525 203.676 195.582 203.337 195.695C203.001 195.808 202.708 195.967 202.458 196.17C202.208 196.377 202.01 196.623 201.866 196.908C201.725 197.193 201.655 197.51 201.655 197.857H203.284C203.284 197.701 203.315 197.56 203.378 197.435C203.44 197.31 203.526 197.203 203.635 197.113C203.741 197.027 203.864 196.961 204.005 196.914C204.149 196.867 204.303 196.844 204.467 196.844C204.667 196.844 204.841 196.871 204.989 196.926C205.141 196.98 205.266 197.056 205.364 197.154C205.462 197.256 205.534 197.377 205.581 197.517C205.632 197.654 205.657 197.806 205.657 197.974C205.657 198.146 205.632 198.306 205.581 198.455C205.534 198.599 205.462 198.722 205.364 198.824C205.259 198.941 205.12 199.033 204.948 199.099C204.78 199.162 204.579 199.193 204.344 199.193H203.46ZM214.341 200.927V198.888C214.341 198.338 214.276 197.853 214.147 197.435C214.019 197.013 213.835 196.66 213.597 196.375C213.354 196.094 213.061 195.881 212.718 195.736C212.374 195.592 211.987 195.519 211.558 195.519C211.132 195.519 210.747 195.592 210.403 195.736C210.063 195.881 209.774 196.094 209.536 196.375C209.294 196.66 209.108 197.013 208.979 197.435C208.851 197.853 208.786 198.338 208.786 198.888V200.927C208.786 201.478 208.851 201.965 208.979 202.386C209.112 202.804 209.3 203.154 209.542 203.435C209.78 203.72 210.071 203.935 210.415 204.08C210.759 204.224 211.144 204.297 211.569 204.297C211.999 204.297 212.386 204.224 212.729 204.08C213.073 203.935 213.364 203.72 213.602 203.435C213.841 203.154 214.022 202.804 214.147 202.386C214.276 201.965 214.341 201.478 214.341 200.927ZM210.427 200.224C210.427 200.103 210.427 200.011 210.427 199.949C210.427 199.886 210.427 199.761 210.427 199.574V198.631C210.427 198.314 210.45 198.041 210.497 197.81C210.548 197.58 210.624 197.392 210.726 197.248C210.819 197.111 210.935 197.01 211.071 196.943C211.212 196.873 211.374 196.838 211.558 196.838C211.722 196.838 211.868 196.865 211.997 196.92C212.13 196.97 212.241 197.051 212.331 197.16C212.448 197.297 212.536 197.48 212.595 197.711C212.657 197.937 212.692 198.211 212.7 198.531L210.427 200.224ZM212.7 201.174C212.7 201.49 212.675 201.765 212.624 202C212.577 202.23 212.505 202.42 212.407 202.568C212.313 202.709 212.196 202.814 212.056 202.885C211.915 202.951 211.753 202.984 211.569 202.984C211.37 202.984 211.198 202.945 211.054 202.867C210.909 202.789 210.79 202.67 210.696 202.51C210.614 202.377 210.55 202.211 210.503 202.011C210.46 201.812 210.435 201.584 210.427 201.326L212.7 199.638C212.7 199.752 212.7 199.84 212.7 199.902C212.7 199.961 212.7 200.054 212.7 200.183V201.174Z"
            fill="#0D102B" />
        <path
            d="M255.721 140.638L257.022 140.96C257.085 140.898 257.151 140.839 257.221 140.784C257.292 140.726 257.372 140.675 257.462 140.632C257.551 140.589 257.655 140.554 257.772 140.527C257.889 140.499 258.028 140.486 258.188 140.486C258.426 140.486 258.634 140.523 258.809 140.597C258.985 140.671 259.132 140.777 259.249 140.913C259.366 141.05 259.452 141.214 259.507 141.406C259.565 141.593 259.594 141.8 259.594 142.027C259.594 142.257 259.571 142.472 259.524 142.671C259.481 142.87 259.413 143.042 259.319 143.187C259.221 143.331 259.094 143.445 258.938 143.527C258.786 143.609 258.6 143.65 258.382 143.65C258.026 143.65 257.733 143.548 257.503 143.345C257.276 143.142 257.143 142.855 257.104 142.484H255.499C255.51 142.878 255.598 143.23 255.762 143.538C255.93 143.843 256.147 144.101 256.413 144.312C256.678 144.523 256.981 144.683 257.321 144.792C257.665 144.902 258.02 144.956 258.387 144.956C258.872 144.956 259.292 144.88 259.647 144.728C260.003 144.575 260.298 144.368 260.532 144.107C260.766 143.845 260.94 143.542 261.053 143.198C261.167 142.855 261.223 142.491 261.223 142.109C261.223 141.659 261.165 141.257 261.048 140.902C260.93 140.546 260.762 140.245 260.544 139.999C260.321 139.753 260.048 139.566 259.723 139.437C259.403 139.304 259.038 139.238 258.628 139.238C258.339 139.238 258.083 139.275 257.86 139.349C257.637 139.423 257.466 139.495 257.344 139.566L257.55 137.691H260.942V136.308H256.208L255.721 140.638ZM268.161 141.593V139.554C268.161 139.003 268.097 138.519 267.968 138.101C267.839 137.679 267.655 137.325 267.417 137.04C267.175 136.759 266.882 136.546 266.538 136.402C266.194 136.257 265.808 136.185 265.378 136.185C264.952 136.185 264.567 136.257 264.224 136.402C263.884 136.546 263.595 136.759 263.356 137.04C263.114 137.325 262.929 137.679 262.8 138.101C262.671 138.519 262.606 139.003 262.606 139.554V141.593C262.606 142.144 262.671 142.63 262.8 143.052C262.933 143.47 263.12 143.82 263.362 144.101C263.601 144.386 263.892 144.601 264.235 144.745C264.579 144.89 264.964 144.962 265.39 144.962C265.819 144.962 266.206 144.89 266.55 144.745C266.894 144.601 267.185 144.386 267.423 144.101C267.661 143.82 267.843 143.47 267.968 143.052C268.097 142.63 268.161 142.144 268.161 141.593ZM264.247 140.89C264.247 140.769 264.247 140.677 264.247 140.615C264.247 140.552 264.247 140.427 264.247 140.24V139.296C264.247 138.98 264.27 138.706 264.317 138.476C264.368 138.245 264.444 138.058 264.546 137.913C264.64 137.777 264.755 137.675 264.892 137.609C265.032 137.538 265.194 137.503 265.378 137.503C265.542 137.503 265.688 137.531 265.817 137.585C265.95 137.636 266.061 137.716 266.151 137.825C266.269 137.962 266.356 138.146 266.415 138.376C266.477 138.603 266.513 138.876 266.52 139.197L264.247 140.89ZM266.52 141.839C266.52 142.156 266.495 142.431 266.444 142.665C266.397 142.896 266.325 143.085 266.227 143.234C266.134 143.374 266.017 143.48 265.876 143.55C265.735 143.616 265.573 143.65 265.39 143.65C265.19 143.65 265.019 143.611 264.874 143.532C264.729 143.454 264.61 143.335 264.517 143.175C264.435 143.042 264.37 142.876 264.323 142.677C264.28 142.478 264.255 142.249 264.247 141.991L266.52 140.304C266.52 140.417 266.52 140.505 266.52 140.568C266.52 140.626 266.52 140.72 266.52 140.849V141.839Z"
            fill="#0D102B" />
        <path
            d="M302.776 129.033H302.559C301.852 129.033 301.229 129.152 300.69 129.39C300.151 129.624 299.7 129.951 299.337 130.368C298.973 130.79 298.7 131.29 298.516 131.868C298.333 132.443 298.241 133.068 298.241 133.743V134.37C298.241 134.859 298.309 135.31 298.446 135.724C298.587 136.134 298.786 136.49 299.044 136.79C299.298 137.091 299.608 137.327 299.975 137.499C300.342 137.667 300.755 137.751 301.212 137.751C301.649 137.751 302.044 137.677 302.395 137.529C302.747 137.376 303.046 137.169 303.292 136.908C303.538 136.646 303.727 136.337 303.86 135.982C303.993 135.626 304.059 135.242 304.059 134.827C304.059 134.441 304.009 134.074 303.907 133.726C303.809 133.374 303.659 133.066 303.456 132.8C303.253 132.538 302.999 132.331 302.694 132.179C302.393 132.023 302.04 131.945 301.634 131.945C301.434 131.945 301.249 131.968 301.077 132.015C300.905 132.062 300.747 132.122 300.602 132.197C300.454 132.275 300.321 132.363 300.204 132.46C300.087 132.554 299.983 132.65 299.893 132.747C299.928 132.392 300.012 132.07 300.145 131.781C300.282 131.492 300.467 131.243 300.702 131.036C300.932 130.829 301.212 130.669 301.54 130.556C301.872 130.443 302.253 130.386 302.682 130.386H302.776V129.033ZM301.159 133.251C301.362 133.251 301.542 133.292 301.698 133.374C301.858 133.452 301.993 133.562 302.102 133.702C302.212 133.847 302.296 134.017 302.354 134.212C302.413 134.408 302.442 134.62 302.442 134.851C302.442 135.081 302.413 135.294 302.354 135.49C302.296 135.681 302.212 135.847 302.102 135.988C301.993 136.128 301.86 136.24 301.704 136.322C301.548 136.4 301.374 136.439 301.182 136.439C300.995 136.439 300.821 136.4 300.661 136.322C300.501 136.243 300.362 136.126 300.245 135.97C300.128 135.818 300.036 135.624 299.969 135.39C299.907 135.156 299.876 134.882 299.876 134.57V134.089C299.93 133.972 299.997 133.865 300.075 133.767C300.157 133.669 300.247 133.583 300.344 133.509C300.458 133.427 300.583 133.365 300.719 133.322C300.856 133.275 301.003 133.251 301.159 133.251ZM310.974 134.388V132.349C310.974 131.798 310.909 131.314 310.78 130.896C310.651 130.474 310.468 130.12 310.229 129.835C309.987 129.554 309.694 129.341 309.351 129.197C309.007 129.052 308.62 128.98 308.19 128.98C307.765 128.98 307.38 129.052 307.036 129.197C306.696 129.341 306.407 129.554 306.169 129.835C305.927 130.12 305.741 130.474 305.612 130.896C305.483 131.314 305.419 131.798 305.419 132.349V134.388C305.419 134.939 305.483 135.425 305.612 135.847C305.745 136.265 305.933 136.615 306.175 136.896C306.413 137.181 306.704 137.396 307.048 137.54C307.392 137.685 307.776 137.757 308.202 137.757C308.632 137.757 309.019 137.685 309.362 137.54C309.706 137.396 309.997 137.181 310.235 136.896C310.474 136.615 310.655 136.265 310.78 135.847C310.909 135.425 310.974 134.939 310.974 134.388ZM307.06 133.685C307.06 133.564 307.06 133.472 307.06 133.409C307.06 133.347 307.06 133.222 307.06 133.034V132.091C307.06 131.775 307.083 131.501 307.13 131.271C307.181 131.04 307.257 130.853 307.358 130.708C307.452 130.572 307.567 130.47 307.704 130.404C307.845 130.333 308.007 130.298 308.19 130.298C308.354 130.298 308.501 130.326 308.63 130.38C308.763 130.431 308.874 130.511 308.964 130.62C309.081 130.757 309.169 130.941 309.227 131.171C309.29 131.398 309.325 131.671 309.333 131.992L307.06 133.685ZM309.333 134.634C309.333 134.951 309.308 135.226 309.257 135.46C309.21 135.691 309.138 135.88 309.04 136.029C308.946 136.169 308.829 136.275 308.688 136.345C308.548 136.411 308.386 136.445 308.202 136.445C308.003 136.445 307.831 136.406 307.686 136.327C307.542 136.249 307.423 136.13 307.329 135.97C307.247 135.837 307.183 135.671 307.136 135.472C307.093 135.273 307.067 135.044 307.06 134.786L309.333 133.099C309.333 133.212 309.333 133.3 309.333 133.363C309.333 133.421 309.333 133.515 309.333 133.644V134.634Z"
            fill="#0D102B" />
        <path
            d="M376.276 162.309C376.276 161.922 376.208 161.583 376.071 161.29C375.938 160.993 375.753 160.743 375.514 160.54C375.272 160.336 374.987 160.184 374.659 160.083C374.331 159.977 373.973 159.924 373.587 159.924C373.2 159.924 372.842 159.977 372.514 160.083C372.19 160.184 371.911 160.336 371.676 160.54C371.438 160.743 371.253 160.993 371.12 161.29C370.987 161.583 370.921 161.922 370.921 162.309C370.921 162.52 370.948 162.721 371.003 162.913C371.061 163.104 371.143 163.28 371.249 163.44C371.346 163.592 371.466 163.731 371.606 163.856C371.751 163.981 371.911 164.088 372.087 164.178C371.88 164.276 371.692 164.395 371.524 164.536C371.36 164.672 371.219 164.827 371.102 164.999C370.985 165.174 370.893 165.368 370.827 165.579C370.764 165.786 370.733 166.006 370.733 166.241C370.733 166.643 370.805 166.997 370.95 167.301C371.098 167.606 371.301 167.86 371.559 168.063C371.817 168.27 372.12 168.426 372.467 168.532C372.819 168.637 373.198 168.69 373.604 168.69C374.007 168.69 374.382 168.637 374.729 168.532C375.077 168.426 375.38 168.27 375.637 168.063C375.891 167.86 376.091 167.606 376.235 167.301C376.384 166.997 376.458 166.643 376.458 166.241C376.458 165.936 376.405 165.655 376.3 165.397C376.194 165.139 376.048 164.913 375.86 164.717C375.759 164.608 375.643 164.51 375.514 164.424C375.385 164.335 375.249 164.254 375.104 164.184C375.264 164.102 375.409 164.006 375.538 163.897C375.671 163.784 375.786 163.663 375.884 163.534C376.009 163.362 376.104 163.174 376.171 162.971C376.241 162.764 376.276 162.544 376.276 162.309ZM374.823 166.129C374.823 166.325 374.792 166.501 374.729 166.657C374.671 166.809 374.589 166.94 374.483 167.049C374.374 167.159 374.245 167.243 374.096 167.301C373.948 167.356 373.784 167.383 373.604 167.383C373.421 167.383 373.255 167.358 373.106 167.307C372.958 167.253 372.831 167.174 372.725 167.073C372.612 166.967 372.524 166.835 372.462 166.674C372.399 166.514 372.368 166.333 372.368 166.129C372.368 165.934 372.397 165.758 372.456 165.602C372.514 165.446 372.596 165.311 372.702 165.198C372.807 165.088 372.934 165.004 373.083 164.946C373.235 164.887 373.405 164.858 373.592 164.858C373.78 164.858 373.948 164.887 374.096 164.946C374.249 165.004 374.38 165.088 374.489 165.198C374.594 165.311 374.676 165.446 374.735 165.602C374.794 165.758 374.823 165.934 374.823 166.129ZM374.653 162.385C374.653 162.557 374.628 162.715 374.577 162.86C374.53 163.001 374.462 163.122 374.372 163.223C374.282 163.325 374.173 163.405 374.044 163.463C373.915 163.518 373.768 163.545 373.604 163.545C373.44 163.545 373.292 163.518 373.159 163.463C373.03 163.405 372.921 163.325 372.831 163.223C372.737 163.122 372.667 163.001 372.62 162.86C372.573 162.715 372.55 162.557 372.55 162.385C372.55 162.21 372.571 162.051 372.614 161.911C372.661 161.766 372.729 161.645 372.819 161.547C372.905 161.45 373.012 161.376 373.141 161.325C373.27 161.27 373.417 161.243 373.581 161.243C373.749 161.243 373.897 161.27 374.026 161.325C374.159 161.379 374.272 161.456 374.366 161.553C374.456 161.655 374.526 161.776 374.577 161.917C374.628 162.057 374.653 162.213 374.653 162.385ZM383.442 165.327V163.288C383.442 162.737 383.378 162.253 383.249 161.835C383.12 161.413 382.936 161.059 382.698 160.774C382.456 160.493 382.163 160.28 381.819 160.135C381.476 159.991 381.089 159.919 380.659 159.919C380.233 159.919 379.849 159.991 379.505 160.135C379.165 160.28 378.876 160.493 378.638 160.774C378.395 161.059 378.21 161.413 378.081 161.835C377.952 162.253 377.888 162.737 377.888 163.288V165.327C377.888 165.878 377.952 166.364 378.081 166.786C378.214 167.204 378.401 167.553 378.644 167.835C378.882 168.12 379.173 168.335 379.517 168.479C379.86 168.624 380.245 168.696 380.671 168.696C381.101 168.696 381.487 168.624 381.831 168.479C382.175 168.335 382.466 168.12 382.704 167.835C382.942 167.553 383.124 167.204 383.249 166.786C383.378 166.364 383.442 165.878 383.442 165.327ZM379.528 164.624C379.528 164.503 379.528 164.411 379.528 164.348C379.528 164.286 379.528 164.161 379.528 163.973V163.03C379.528 162.713 379.552 162.44 379.599 162.21C379.649 161.979 379.726 161.792 379.827 161.647C379.921 161.51 380.036 161.409 380.173 161.342C380.313 161.272 380.476 161.237 380.659 161.237C380.823 161.237 380.97 161.264 381.099 161.319C381.231 161.37 381.343 161.45 381.433 161.559C381.55 161.696 381.638 161.879 381.696 162.11C381.759 162.336 381.794 162.61 381.802 162.93L379.528 164.624ZM381.802 165.573C381.802 165.889 381.776 166.165 381.726 166.399C381.679 166.629 381.606 166.819 381.509 166.967C381.415 167.108 381.298 167.213 381.157 167.284C381.017 167.35 380.854 167.383 380.671 167.383C380.472 167.383 380.3 167.344 380.155 167.266C380.011 167.188 379.892 167.069 379.798 166.909C379.716 166.776 379.651 166.61 379.604 166.411C379.561 166.211 379.536 165.983 379.528 165.725L381.802 164.038C381.802 164.151 381.802 164.239 381.802 164.301C381.802 164.36 381.802 164.454 381.802 164.583V165.573Z"
            fill="#0D102B" />
        <path
            d="M346.833 137.216V136.308H340.839V137.638H345.122L341.794 144.839H343.51L346.833 137.216ZM353.782 141.593V139.554C353.782 139.003 353.718 138.519 353.589 138.101C353.46 137.679 353.276 137.325 353.038 137.04C352.796 136.759 352.503 136.546 352.159 136.402C351.815 136.257 351.429 136.185 350.999 136.185C350.573 136.185 350.188 136.257 349.845 136.402C349.505 136.546 349.216 136.759 348.977 137.04C348.735 137.325 348.55 137.679 348.421 138.101C348.292 138.519 348.227 139.003 348.227 139.554V141.593C348.227 142.144 348.292 142.63 348.421 143.052C348.554 143.47 348.741 143.82 348.983 144.101C349.222 144.386 349.513 144.601 349.856 144.745C350.2 144.89 350.585 144.962 351.011 144.962C351.44 144.962 351.827 144.89 352.171 144.745C352.515 144.601 352.806 144.386 353.044 144.101C353.282 143.82 353.464 143.47 353.589 143.052C353.718 142.63 353.782 142.144 353.782 141.593ZM349.868 140.89C349.868 140.769 349.868 140.677 349.868 140.615C349.868 140.552 349.868 140.427 349.868 140.24V139.296C349.868 138.98 349.892 138.706 349.938 138.476C349.989 138.245 350.065 138.058 350.167 137.913C350.261 137.777 350.376 137.675 350.513 137.609C350.653 137.538 350.815 137.503 350.999 137.503C351.163 137.503 351.31 137.531 351.438 137.585C351.571 137.636 351.683 137.716 351.772 137.825C351.89 137.962 351.977 138.146 352.036 138.376C352.099 138.603 352.134 138.876 352.142 139.197L349.868 140.89ZM352.142 141.839C352.142 142.156 352.116 142.431 352.065 142.665C352.019 142.896 351.946 143.085 351.849 143.234C351.755 143.374 351.638 143.48 351.497 143.55C351.356 143.616 351.194 143.65 351.011 143.65C350.811 143.65 350.64 143.611 350.495 143.532C350.351 143.454 350.231 143.335 350.138 143.175C350.056 143.042 349.991 142.876 349.944 142.677C349.901 142.478 349.876 142.249 349.868 141.991L352.142 140.304C352.142 140.417 352.142 140.505 352.142 140.568C352.142 140.626 352.142 140.72 352.142 140.849V141.839Z"
            fill="#0D102B" />
        <path
            d="M389.844 202.879H389.733V204.244H389.856C390.61 204.244 391.259 204.129 391.801 203.898C392.344 203.664 392.792 203.338 393.143 202.92C393.495 202.506 393.755 202.013 393.923 201.443C394.091 200.873 394.175 200.248 394.175 199.568V199.006C394.175 198.498 394.108 198.031 393.975 197.605C393.846 197.179 393.659 196.812 393.413 196.504C393.163 196.195 392.86 195.955 392.505 195.783C392.149 195.611 391.749 195.525 391.303 195.525C390.866 195.525 390.471 195.605 390.12 195.765C389.772 195.922 389.475 196.136 389.229 196.41C388.983 196.683 388.794 197.004 388.661 197.371C388.532 197.734 388.467 198.123 388.467 198.537C388.467 198.939 388.52 199.316 388.626 199.668C388.735 200.015 388.895 200.318 389.106 200.576C389.313 200.834 389.571 201.037 389.88 201.185C390.188 201.334 390.546 201.408 390.952 201.408C391.143 201.408 391.319 201.392 391.479 201.361C391.639 201.326 391.784 201.279 391.913 201.22C392.034 201.17 392.145 201.109 392.247 201.039C392.348 200.969 392.44 200.892 392.522 200.81V200.845C392.483 201.158 392.403 201.441 392.282 201.695C392.165 201.945 392.001 202.156 391.79 202.328C391.571 202.508 391.301 202.644 390.981 202.738C390.661 202.832 390.282 202.879 389.844 202.879ZM391.339 200.148C391.128 200.148 390.944 200.105 390.788 200.019C390.632 199.929 390.503 199.81 390.401 199.662C390.296 199.513 390.217 199.34 390.167 199.14C390.116 198.941 390.091 198.732 390.091 198.513C390.091 198.295 390.118 198.086 390.173 197.886C390.227 197.683 390.305 197.504 390.407 197.347C390.509 197.195 390.634 197.074 390.782 196.984C390.934 196.89 391.106 196.844 391.298 196.844C391.473 196.844 391.637 196.883 391.79 196.961C391.942 197.039 392.075 197.156 392.188 197.312C392.301 197.469 392.389 197.664 392.452 197.898C392.518 198.133 392.551 198.406 392.551 198.719V199.299C392.505 199.42 392.442 199.533 392.364 199.638C392.29 199.74 392.202 199.828 392.1 199.902C391.995 199.98 391.878 200.041 391.749 200.084C391.624 200.127 391.487 200.148 391.339 200.148ZM401.247 200.927V198.888C401.247 198.338 401.183 197.853 401.054 197.435C400.925 197.013 400.741 196.66 400.503 196.375C400.261 196.094 399.968 195.881 399.624 195.736C399.28 195.592 398.894 195.519 398.464 195.519C398.038 195.519 397.653 195.592 397.31 195.736C396.97 195.881 396.681 196.094 396.442 196.375C396.2 196.66 396.015 197.013 395.886 197.435C395.757 197.853 395.692 198.338 395.692 198.888V200.927C395.692 201.478 395.757 201.965 395.886 202.386C396.019 202.804 396.206 203.154 396.448 203.435C396.686 203.72 396.977 203.935 397.321 204.08C397.665 204.224 398.05 204.297 398.476 204.297C398.905 204.297 399.292 204.224 399.636 204.08C399.979 203.935 400.27 203.72 400.509 203.435C400.747 203.154 400.929 202.804 401.054 202.386C401.183 201.965 401.247 201.478 401.247 200.927ZM397.333 200.224C397.333 200.103 397.333 200.011 397.333 199.949C397.333 199.886 397.333 199.761 397.333 199.574V198.631C397.333 198.314 397.356 198.041 397.403 197.81C397.454 197.58 397.53 197.392 397.632 197.248C397.726 197.111 397.841 197.01 397.977 196.943C398.118 196.873 398.28 196.838 398.464 196.838C398.628 196.838 398.774 196.865 398.903 196.92C399.036 196.97 399.147 197.051 399.237 197.16C399.354 197.297 399.442 197.48 399.501 197.711C399.563 197.937 399.599 198.211 399.606 198.531L397.333 200.224ZM399.606 201.174C399.606 201.49 399.581 201.765 399.53 202C399.483 202.23 399.411 202.42 399.313 202.568C399.22 202.709 399.102 202.814 398.962 202.885C398.821 202.951 398.659 202.984 398.476 202.984C398.276 202.984 398.104 202.945 397.96 202.867C397.815 202.789 397.696 202.67 397.602 202.51C397.52 202.377 397.456 202.211 397.409 202.011C397.366 201.812 397.341 201.584 397.333 201.326L399.606 199.638C399.606 199.752 399.606 199.84 399.606 199.902C399.606 199.961 399.606 200.054 399.606 200.183V201.174Z"
            fill="#0D102B" />
        <path
            d="M389.232 248.251V239.72H389.144L385.429 241.061V242.479L387.585 241.706V248.251H389.232ZM397.763 245.005V242.966C397.763 242.415 397.699 241.931 397.57 241.513C397.441 241.091 397.258 240.737 397.019 240.452C396.777 240.171 396.484 239.958 396.14 239.813C395.797 239.669 395.41 239.597 394.98 239.597C394.554 239.597 394.17 239.669 393.826 239.813C393.486 239.958 393.197 240.171 392.959 240.452C392.717 240.737 392.531 241.091 392.402 241.513C392.273 241.931 392.209 242.415 392.209 242.966V245.005C392.209 245.556 392.273 246.042 392.402 246.464C392.535 246.882 392.722 247.231 392.965 247.513C393.203 247.798 393.494 248.013 393.838 248.157C394.181 248.302 394.566 248.374 394.992 248.374C395.422 248.374 395.808 248.302 396.152 248.157C396.496 248.013 396.787 247.798 397.025 247.513C397.263 247.231 397.445 246.882 397.57 246.464C397.699 246.042 397.763 245.556 397.763 245.005ZM393.849 244.302C393.849 244.181 393.849 244.089 393.849 244.026C393.849 243.964 393.849 243.839 393.849 243.651V242.708C393.849 242.391 393.873 242.118 393.92 241.888C393.97 241.657 394.047 241.47 394.148 241.325C394.242 241.188 394.357 241.087 394.494 241.02C394.635 240.95 394.797 240.915 394.98 240.915C395.144 240.915 395.291 240.942 395.42 240.997C395.552 241.048 395.664 241.128 395.754 241.237C395.871 241.374 395.959 241.557 396.017 241.788C396.08 242.015 396.115 242.288 396.123 242.608L393.849 244.302ZM396.123 245.251C396.123 245.567 396.097 245.843 396.047 246.077C396 246.307 395.927 246.497 395.83 246.645C395.736 246.786 395.619 246.891 395.478 246.962C395.338 247.028 395.176 247.061 394.992 247.061C394.793 247.061 394.621 247.022 394.476 246.944C394.332 246.866 394.213 246.747 394.119 246.587C394.037 246.454 393.972 246.288 393.926 246.089C393.883 245.89 393.857 245.661 393.849 245.403L396.123 243.716C396.123 243.829 396.123 243.917 396.123 243.979C396.123 244.038 396.123 244.132 396.123 244.261V245.251ZM404.73 245.005V242.966C404.73 242.415 404.666 241.931 404.537 241.513C404.408 241.091 404.225 240.737 403.986 240.452C403.744 240.171 403.451 239.958 403.107 239.813C402.764 239.669 402.377 239.597 401.947 239.597C401.521 239.597 401.137 239.669 400.793 239.813C400.453 239.958 400.164 240.171 399.926 240.452C399.684 240.737 399.498 241.091 399.369 241.513C399.24 241.931 399.176 242.415 399.176 242.966V245.005C399.176 245.556 399.24 246.042 399.369 246.464C399.502 246.882 399.689 247.231 399.932 247.513C400.17 247.798 400.461 248.013 400.805 248.157C401.148 248.302 401.533 248.374 401.959 248.374C402.389 248.374 402.775 248.302 403.119 248.157C403.463 248.013 403.754 247.798 403.992 247.513C404.23 247.231 404.412 246.882 404.537 246.464C404.666 246.042 404.73 245.556 404.73 245.005ZM400.816 244.302C400.816 244.181 400.816 244.089 400.816 244.026C400.816 243.964 400.816 243.839 400.816 243.651V242.708C400.816 242.391 400.84 242.118 400.887 241.888C400.938 241.657 401.014 241.47 401.115 241.325C401.209 241.188 401.324 241.087 401.461 241.02C401.602 240.95 401.764 240.915 401.947 240.915C402.111 240.915 402.258 240.942 402.387 240.997C402.52 241.048 402.631 241.128 402.721 241.237C402.838 241.374 402.926 241.557 402.984 241.788C403.047 242.015 403.082 242.288 403.09 242.608L400.816 244.302ZM403.09 245.251C403.09 245.567 403.064 245.843 403.014 246.077C402.967 246.307 402.895 246.497 402.797 246.645C402.703 246.786 402.586 246.891 402.445 246.962C402.305 247.028 402.143 247.061 401.959 247.061C401.76 247.061 401.588 247.022 401.443 246.944C401.299 246.866 401.18 246.747 401.086 246.587C401.004 246.454 400.939 246.288 400.893 246.089C400.85 245.89 400.824 245.661 400.816 245.403L403.09 243.716C403.09 243.829 403.09 243.917 403.09 243.979C403.09 244.038 403.09 244.132 403.09 244.261V245.251Z"
            fill="#0D102B" />
        <path
            d="M305.95 212.428C304.878 212.117 304.268 210.989 304.595 209.921L304.895 208.941C305.223 207.874 306.36 207.281 307.422 207.624L384.95 232.664C385.621 232.881 385.994 233.597 385.788 234.271V234.271C385.581 234.945 384.871 235.329 384.194 235.132L305.95 212.428Z"
            stroke="#0D102B" stroke-width="2" />
        <path
            d="M289.744 191.641H289.632V193.006H289.755C290.509 193.006 291.158 192.891 291.701 192.66C292.244 192.426 292.691 192.1 293.042 191.682C293.394 191.268 293.654 190.776 293.822 190.205C293.99 189.635 294.074 189.01 294.074 188.33V187.768C294.074 187.26 294.007 186.793 293.875 186.367C293.746 185.942 293.558 185.574 293.312 185.266C293.062 184.957 292.759 184.717 292.404 184.545C292.048 184.373 291.648 184.287 291.203 184.287C290.765 184.287 290.371 184.367 290.019 184.527C289.671 184.684 289.375 184.899 289.128 185.172C288.882 185.445 288.693 185.766 288.56 186.133C288.431 186.496 288.367 186.885 288.367 187.299C288.367 187.701 288.419 188.078 288.525 188.43C288.634 188.777 288.794 189.08 289.005 189.338C289.212 189.596 289.47 189.799 289.779 189.947C290.087 190.096 290.445 190.17 290.851 190.17C291.042 190.17 291.218 190.154 291.378 190.123C291.539 190.088 291.683 190.041 291.812 189.983C291.933 189.932 292.044 189.871 292.146 189.801C292.248 189.731 292.339 189.654 292.421 189.572V189.608C292.382 189.92 292.302 190.203 292.181 190.457C292.064 190.707 291.9 190.918 291.689 191.09C291.47 191.27 291.201 191.406 290.88 191.5C290.56 191.594 290.181 191.641 289.744 191.641ZM291.238 188.91C291.027 188.91 290.843 188.867 290.687 188.781C290.531 188.692 290.402 188.572 290.3 188.424C290.195 188.276 290.117 188.102 290.066 187.902C290.015 187.703 289.99 187.494 289.99 187.276C289.99 187.057 290.017 186.848 290.072 186.649C290.126 186.445 290.205 186.266 290.306 186.109C290.408 185.957 290.533 185.836 290.681 185.746C290.834 185.652 291.005 185.606 291.197 185.606C291.373 185.606 291.537 185.645 291.689 185.723C291.841 185.801 291.974 185.918 292.087 186.074C292.201 186.231 292.289 186.426 292.351 186.66C292.417 186.895 292.451 187.168 292.451 187.481V188.061C292.404 188.182 292.341 188.295 292.263 188.401C292.189 188.502 292.101 188.59 292 188.664C291.894 188.742 291.777 188.803 291.648 188.846C291.523 188.889 291.386 188.91 291.238 188.91ZM296.711 191.641H296.599V193.006H296.722C297.476 193.006 298.125 192.891 298.668 192.66C299.211 192.426 299.658 192.1 300.01 191.682C300.361 191.268 300.621 190.776 300.789 190.205C300.957 189.635 301.041 189.01 301.041 188.33V187.768C301.041 187.26 300.974 186.793 300.842 186.367C300.713 185.942 300.525 185.574 300.279 185.266C300.029 184.957 299.726 184.717 299.371 184.545C299.015 184.373 298.615 184.287 298.17 184.287C297.732 184.287 297.338 184.367 296.986 184.527C296.638 184.684 296.342 184.899 296.095 185.172C295.849 185.445 295.66 185.766 295.527 186.133C295.398 186.496 295.334 186.885 295.334 187.299C295.334 187.701 295.386 188.078 295.492 188.43C295.601 188.777 295.761 189.08 295.972 189.338C296.179 189.596 296.437 189.799 296.746 189.947C297.054 190.096 297.412 190.17 297.818 190.17C298.01 190.17 298.185 190.154 298.345 190.123C298.506 190.088 298.65 190.041 298.779 189.983C298.9 189.932 299.011 189.871 299.113 189.801C299.215 189.731 299.306 189.654 299.388 189.572V189.608C299.349 189.92 299.269 190.203 299.148 190.457C299.031 190.707 298.867 190.918 298.656 191.09C298.437 191.27 298.168 191.406 297.847 191.5C297.527 191.594 297.148 191.641 296.711 191.641ZM298.205 188.91C297.994 188.91 297.81 188.867 297.654 188.781C297.498 188.692 297.369 188.572 297.267 188.424C297.162 188.276 297.084 188.102 297.033 187.902C296.982 187.703 296.957 187.494 296.957 187.276C296.957 187.057 296.984 186.848 297.039 186.649C297.094 186.445 297.172 186.266 297.273 186.109C297.375 185.957 297.5 185.836 297.648 185.746C297.801 185.652 297.972 185.606 298.164 185.606C298.34 185.606 298.504 185.645 298.656 185.723C298.808 185.801 298.941 185.918 299.054 186.074C299.168 186.231 299.256 186.426 299.318 186.66C299.385 186.895 299.418 187.168 299.418 187.481V188.061C299.371 188.182 299.308 188.295 299.23 188.401C299.156 188.502 299.068 188.59 298.967 188.664C298.861 188.742 298.744 188.803 298.615 188.846C298.49 188.889 298.353 188.91 298.205 188.91ZM304.205 191.992C304.205 192.293 304.307 192.545 304.51 192.748C304.713 192.951 304.988 193.053 305.336 193.053C305.68 193.053 305.953 192.953 306.156 192.754C306.363 192.551 306.467 192.297 306.467 191.992C306.467 191.688 306.365 191.432 306.162 191.225C305.963 191.018 305.688 190.914 305.336 190.914C304.98 190.914 304.703 191.02 304.504 191.231C304.305 191.438 304.205 191.692 304.205 191.992ZM309.608 188.734L310.908 189.057C310.971 188.994 311.037 188.936 311.108 188.881C311.178 188.822 311.258 188.772 311.348 188.729C311.438 188.686 311.541 188.651 311.658 188.623C311.776 188.596 311.914 188.582 312.074 188.582C312.313 188.582 312.52 188.619 312.696 188.693C312.871 188.768 313.018 188.873 313.135 189.01C313.252 189.147 313.338 189.311 313.393 189.502C313.451 189.69 313.481 189.897 313.481 190.123C313.481 190.354 313.457 190.568 313.41 190.768C313.367 190.967 313.299 191.139 313.205 191.283C313.108 191.428 312.981 191.541 312.824 191.623C312.672 191.705 312.487 191.746 312.268 191.746C311.912 191.746 311.619 191.645 311.389 191.442C311.162 191.238 311.03 190.951 310.99 190.58H309.385C309.397 190.975 309.485 191.326 309.649 191.635C309.817 191.94 310.033 192.197 310.299 192.408C310.565 192.619 310.867 192.779 311.207 192.889C311.551 192.998 311.906 193.053 312.274 193.053C312.758 193.053 313.178 192.977 313.533 192.824C313.889 192.672 314.184 192.465 314.418 192.203C314.653 191.942 314.826 191.639 314.94 191.295C315.053 190.951 315.11 190.588 315.11 190.205C315.11 189.756 315.051 189.354 314.934 188.998C314.817 188.643 314.649 188.342 314.43 188.096C314.207 187.85 313.934 187.662 313.61 187.533C313.289 187.401 312.924 187.334 312.514 187.334C312.225 187.334 311.969 187.371 311.746 187.445C311.524 187.52 311.352 187.592 311.231 187.662L311.436 185.787H314.828V184.404H310.094L309.608 188.734ZM315.872 185.928V186.379C315.872 186.602 315.907 186.813 315.977 187.012C316.047 187.207 316.153 187.379 316.293 187.527C316.43 187.68 316.602 187.799 316.809 187.885C317.02 187.971 317.266 188.014 317.547 188.014C317.829 188.014 318.073 187.971 318.28 187.885C318.487 187.799 318.659 187.68 318.795 187.527C318.932 187.379 319.034 187.207 319.1 187.012C319.17 186.813 319.206 186.602 319.206 186.379V185.928C319.206 185.701 319.17 185.488 319.1 185.289C319.034 185.09 318.932 184.916 318.795 184.768C318.659 184.619 318.485 184.502 318.274 184.416C318.067 184.326 317.821 184.281 317.536 184.281C317.258 184.281 317.014 184.326 316.803 184.416C316.596 184.502 316.424 184.619 316.288 184.768C316.147 184.916 316.041 185.09 315.971 185.289C315.905 185.488 315.872 185.701 315.872 185.928ZM316.973 186.379V185.928C316.973 185.838 316.983 185.752 317.002 185.67C317.022 185.584 317.055 185.508 317.102 185.442C317.145 185.379 317.202 185.33 317.272 185.295C317.342 185.256 317.43 185.236 317.536 185.236C317.645 185.236 317.735 185.256 317.805 185.295C317.879 185.33 317.94 185.379 317.987 185.442C318.03 185.508 318.061 185.584 318.081 185.67C318.1 185.752 318.11 185.838 318.11 185.928V186.379C318.11 186.469 318.1 186.557 318.081 186.643C318.061 186.725 318.03 186.797 317.987 186.859C317.944 186.926 317.885 186.979 317.811 187.018C317.741 187.053 317.653 187.07 317.547 187.07C317.442 187.07 317.352 187.053 317.278 187.018C317.204 186.979 317.145 186.926 317.102 186.859C317.055 186.797 317.022 186.725 317.002 186.643C316.983 186.557 316.973 186.469 316.973 186.379ZM319.317 190.961V191.418C319.317 191.641 319.352 191.852 319.422 192.051C319.493 192.25 319.598 192.424 319.739 192.572C319.875 192.721 320.049 192.838 320.26 192.924C320.471 193.01 320.717 193.053 320.999 193.053C321.28 193.053 321.524 193.01 321.731 192.924C321.938 192.838 322.112 192.721 322.252 192.572C322.389 192.424 322.491 192.25 322.557 192.051C322.624 191.852 322.657 191.641 322.657 191.418V190.961C322.657 190.738 322.622 190.527 322.551 190.328C322.485 190.129 322.383 189.953 322.247 189.801C322.11 189.652 321.936 189.535 321.725 189.449C321.518 189.363 321.272 189.32 320.987 189.32C320.709 189.32 320.465 189.363 320.254 189.449C320.047 189.535 319.875 189.652 319.739 189.801C319.598 189.953 319.493 190.129 319.422 190.328C319.352 190.527 319.317 190.738 319.317 190.961ZM320.418 191.418V190.961C320.418 190.871 320.428 190.785 320.448 190.703C320.467 190.621 320.499 190.547 320.541 190.481C320.584 190.418 320.643 190.369 320.717 190.334C320.791 190.295 320.881 190.276 320.987 190.276C321.092 190.276 321.18 190.295 321.25 190.334C321.325 190.369 321.385 190.418 321.432 190.481C321.475 190.547 321.506 190.621 321.526 190.703C321.545 190.785 321.555 190.871 321.555 190.961V191.418C321.555 191.512 321.549 191.6 321.538 191.682C321.526 191.764 321.5 191.836 321.461 191.899C321.422 191.965 321.366 192.018 321.291 192.057C321.217 192.092 321.12 192.109 320.999 192.109C320.901 192.109 320.815 192.092 320.741 192.057C320.67 192.018 320.612 191.965 320.565 191.899C320.514 191.836 320.477 191.764 320.454 191.682C320.43 191.596 320.418 191.508 320.418 191.418ZM318.098 191.776L321.385 185.752L320.588 185.371L317.301 191.395L318.098 191.776Z"
            fill="#0D102B" />
        <rect x="282.098" y="175.493" width="46.4764" height="25.7339" rx="3.86658" stroke="#0D102B" stroke-width="2" />
    </g>
</svg>