<svg fill="none" xmlns="http://www.w3.org/2000/svg" viewBox="0 0 608 360">
    <rect width="608" height="360" rx="16" fill="#F9F9FB" />
    <rect x="199" y="170" width="78.491" height="47.571" rx="2.867" fill="#F9F9FB" stroke="#0D102B" stroke-width="3" />
    <circle cx="238.246" cy="193.785" r="23.785" stroke="#0D102B" stroke-width="3" />
    <path
        d="M239.35 184.367v2.979h-1.554v-2.979h1.554Zm-.19 16.379v2.688h-1.545v-2.688h1.545Zm1.304-3.27c0-.381-.074-.712-.221-.993-.14-.28-.378-.531-.712-.752-.328-.22-.769-.431-1.324-.632a14.332 14.332 0 0 1-2.267-1.033c-.648-.381-1.153-.852-1.514-1.414-.355-.562-.532-1.271-.532-2.126 0-.823.191-1.535.572-2.137a3.81 3.81 0 0 1 1.615-1.404c.688-.334 1.487-.502 2.397-.502.709 0 1.344.107 1.906.321a3.941 3.941 0 0 1 1.454.913c.408.401.719.896.933 1.485.22.581.331 1.247.331 1.996h-2.648c0-.415-.047-.783-.141-1.104a2.347 2.347 0 0 0-.401-.812 1.657 1.657 0 0 0-.632-.512 1.914 1.914 0 0 0-.822-.17c-.442 0-.806.083-1.094.25-.28.168-.488.395-.621.683a2.433 2.433 0 0 0-.191.993c0 .361.067.678.201.952.14.268.374.512.702.733.334.22.792.444 1.374.672a13.3 13.3 0 0 1 2.267 1.063c.642.381 1.14.849 1.494 1.404.355.555.532 1.257.532 2.106 0 .87-.201 1.605-.602 2.207-.395.602-.95 1.06-1.665 1.374-.716.314-1.548.472-2.498.472-.608 0-1.21-.081-1.805-.241a4.81 4.81 0 0 1-1.625-.783 3.905 3.905 0 0 1-1.153-1.454c-.288-.608-.432-1.354-.432-2.237H236c0 .509.067.93.201 1.264.134.335.314.602.542.803.227.193.481.331.762.411.281.08.565.12.852.12.468 0 .856-.08 1.164-.241.314-.16.548-.384.702-.672.161-.294.241-.628.241-1.003Z"
        fill="#0D102B" />
    <rect x="232" y="185" width="78.491" height="47.571" rx="2.867" fill="#F9F9FB" stroke="#0D102B" stroke-width="3" />
    <circle cx="271.246" cy="208.785" r="23.785" stroke="#0D102B" stroke-width="3" />
    <path
        d="M272.35 199.367v2.979h-1.554v-2.979h1.554Zm-.19 16.379v2.688h-1.545v-2.688h1.545Zm1.304-3.27c0-.381-.074-.712-.221-.993-.14-.28-.378-.531-.712-.752-.328-.22-.769-.431-1.324-.632a14.332 14.332 0 0 1-2.267-1.033c-.648-.381-1.153-.852-1.514-1.414-.355-.562-.532-1.271-.532-2.126 0-.823.191-1.535.572-2.137a3.81 3.81 0 0 1 1.615-1.404c.688-.334 1.487-.502 2.397-.502.709 0 1.344.107 1.906.321a3.941 3.941 0 0 1 1.454.913c.408.401.719.896.933 1.485.22.581.331 1.247.331 1.996h-2.648c0-.415-.047-.783-.141-1.104a2.347 2.347 0 0 0-.401-.812 1.657 1.657 0 0 0-.632-.512 1.914 1.914 0 0 0-.822-.17c-.442 0-.806.083-1.094.25-.28.168-.488.395-.621.683a2.433 2.433 0 0 0-.191.993c0 .361.067.678.201.952.14.268.374.512.702.733.334.22.792.444 1.374.672a13.3 13.3 0 0 1 2.267 1.063c.642.381 1.14.849 1.494 1.404.355.555.532 1.257.532 2.106 0 .87-.201 1.605-.602 2.207-.395.602-.95 1.06-1.665 1.374-.716.314-1.548.472-2.498.472-.608 0-1.21-.081-1.805-.241a4.81 4.81 0 0 1-1.625-.783 3.905 3.905 0 0 1-1.153-1.454c-.288-.608-.432-1.354-.432-2.237H269c0 .509.067.93.201 1.264.134.335.314.602.542.803.227.193.481.331.762.411.281.08.565.12.852.12.468 0 .856-.08 1.164-.241.314-.16.548-.384.702-.672.161-.294.241-.628.241-1.003Z"
        fill="#0D102B" />
    <rect x="265" y="201" width="78.491" height="47.571" rx="2.867" fill="#F9F9FB" stroke="#0D102B" stroke-width="3" />
    <circle cx="304.246" cy="224.785" r="23.785" stroke="#0D102B" stroke-width="3" />
    <path
        d="M305.35 215.367v2.979h-1.554v-2.979h1.554Zm-.19 16.379v2.688h-1.545v-2.688h1.545Zm1.304-3.27c0-.381-.074-.712-.221-.993-.14-.28-.378-.531-.712-.752-.328-.22-.769-.431-1.324-.632a14.332 14.332 0 0 1-2.267-1.033c-.648-.381-1.153-.852-1.514-1.414-.355-.562-.532-1.271-.532-2.126 0-.823.191-1.535.572-2.137a3.81 3.81 0 0 1 1.615-1.404c.688-.334 1.487-.502 2.397-.502.709 0 1.344.107 1.906.321a3.941 3.941 0 0 1 1.454.913c.408.401.719.896.933 1.485.22.581.331 1.247.331 1.996h-2.648c0-.415-.047-.783-.141-1.104a2.347 2.347 0 0 0-.401-.812 1.657 1.657 0 0 0-.632-.512 1.914 1.914 0 0 0-.822-.17c-.442 0-.806.083-1.094.25-.28.168-.488.395-.621.683a2.433 2.433 0 0 0-.191.993c0 .361.067.678.201.952.14.268.374.512.702.733.334.22.792.444 1.374.672a13.3 13.3 0 0 1 2.267 1.063c.642.381 1.14.849 1.494 1.404.355.555.532 1.257.532 2.106 0 .87-.201 1.605-.602 2.207-.395.602-.95 1.06-1.665 1.374-.716.314-1.548.472-2.498.472-.608 0-1.21-.081-1.805-.241a4.81 4.81 0 0 1-1.625-.783 3.905 3.905 0 0 1-1.153-1.454c-.288-.608-.432-1.354-.432-2.237H302c0 .509.067.93.201 1.264.134.335.314.602.542.803.227.193.481.331.762.411.281.08.565.12.852.12.468 0 .856-.08 1.164-.241.314-.16.548-.384.702-.672.161-.294.241-.628.241-1.003Z"
        fill="#0D102B" />
    <path
        d="m353.491 86.189-43.341 15.917a9.387 9.387 0 0 0-6.15 8.811v68.542a9.388 9.388 0 0 0 4.104 7.759l43.341 29.506a9.385 9.385 0 0 0 10.564 0l43.341-29.506a9.388 9.388 0 0 0 4.104-7.759v-68.542a9.387 9.387 0 0 0-6.151-8.811l-43.34-15.917a9.386 9.386 0 0 0-6.472 0Z"
        fill="#F9F9FB" stroke="#0D102B" stroke-width="3" />
    <mask id="a" style="mask-type:alpha" maskUnits="userSpaceOnUse" x="356" y="85" width="54" height="136">
        <path
            d="M356.852 86.654v133.06a.68.68 0 0 0 1.062.562l47.56-32.379a9.382 9.382 0 0 0 4.104-7.758v-68.542a9.386 9.386 0 0 0-6.15-8.811l-45.662-16.77a.68.68 0 0 0-.914.638Z"
            fill="#C4C4C4" />
    </mask>
    <g mask="url(#a)" stroke="#0D102B" stroke-width=".631">
        <path
            d="M249.559 517.221 693.34 73.44M253.258 517.221 697.039 73.44M256.953 517.221 700.734 73.44M260.652 517.221 704.433 73.44M264.348 517.221 708.129 73.44M268.051 517.221 711.832 73.44M271.75 517.221 715.531 73.44M275.445 517.221 719.226 73.44M279.145 517.221 722.926 73.44M282.84 517.221 726.621 73.44M286.539 517.221 730.32 73.44M290.234 517.221 734.016 73.44M293.934 517.221 737.715 73.44M297.637 517.221 741.418 73.44M301.328 517.221 745.109 73.44M305.031 517.221 748.812 73.44M308.73 517.221 752.512 73.44M312.426 517.221 756.207 73.44M316.125 517.221 759.906 73.44M319.82 517.221 763.601 73.44M323.52 517.221 767.301 73.44M327.215 517.221 770.996 73.44M330.914 517.221 774.695 73.44M334.617 517.221 778.398 73.44M338.312 517.221 782.094 73.44M342.012 517.221 785.793 73.44M345.711 517.221 789.492 73.44M349.406 517.221 793.187 73.44M353.105 517.221 796.887 73.44M356.801 517.221 800.582 73.44M360.504 517.221 804.285 73.44M364.203 517.221 807.984 73.44M367.898 517.221 811.68 73.44M245.859 517.221 689.641 73.44M242.164 517.221 685.945 73.44M238.465 517.221 682.246 73.44M234.762 517.221 678.543 73.44M231.066 517.221 674.848 73.44M227.367 517.221 671.148 73.44M223.672 517.221 667.453 73.44M219.973 517.221 663.754 73.44M216.277 517.221 660.058 73.44M212.578 517.221 656.359 73.44M208.879 517.221 652.66 73.44M205.18 517.221 648.961 73.44M201.48 517.221 645.262 73.44M197.781 517.221 641.562 73.44M194.086 517.221 637.867 73.44M190.387 517.221 634.168 73.44M186.691 517.221 630.473 73.44M182.992 517.221 626.773 73.44M179.289 517.221 623.07 73.44M175.594 517.221 619.375 73.44M171.895 517.221 615.676 73.44M168.199 517.221 611.98 73.44M164.5 517.221 608.281 73.44M160.801 517.221 604.582 73.44M157.105 517.221 600.887 73.44M153.406 517.221 597.187 73.44M149.703 517.221 593.484 73.44M146.008 517.221 589.789 73.44M142.309 517.221 586.09 73.44M138.613 517.221 582.394 73.44M134.914 517.221 578.695 73.44M131.219 517.221 575 73.44M127.52 517.221 571.301 73.44M123.82 517.221 567.601 73.44M120.121 517.221 563.902 73.44M116.422 517.221 560.203 73.44M112.723 517.221 556.504 73.44M109.027 517.221 552.808 73.44M105.328 517.221 549.109 73.44M101.633 517.221 545.414 73.44M97.934 517.221 541.715 73.44M94.238 517.221 538.02 73.44M90.535 517.221 534.316 73.44M86.836 517.221 530.617 73.44M83.14 517.221 526.923 73.44M79.441 517.221 523.223 73.44M75.742 517.221 519.523 73.44M72.047 517.221 515.828 73.44M68.348 517.221 512.129 73.44M64.652 517.221 508.433 73.44M60.953 517.221 504.734 73.44M57.258 517.221 501.039 73.44M53.555 517.221 497.336 73.44M49.855 517.221 493.637 73.44M46.16 517.221 489.941 73.44M42.46 517.221 486.243 73.44M38.758 517.221 482.539 73.44M35.063 517.221 478.844 73.44M31.363 517.221 475.144 73.44M27.664 517.221 471.445 73.44M23.969 517.221 467.75 73.44M20.27 517.221 464.05 73.44M16.574 517.221 460.355 73.44M12.875 517.221 456.656 73.44M9.18 517.221 452.96 73.44M5.477 517.221 449.258 73.44M1.777 517.221 445.558 73.44M-1.918 517.221 441.863 73.44M-5.617 517.221 438.164 73.44M-9.313 517.221 434.47 73.44M-13.012 517.221 430.77 73.44M-16.71 517.221 427.07 73.44M-20.406 517.221 423.375 73.44M-24.11 517.221 419.673 73.44M-27.809 517.221 415.973 73.44M-31.504 517.221 412.277 73.44M-35.203 517.221 408.578 73.44M-38.898 517.221 404.883 73.44M-42.598 517.221 401.183 73.44M-46.293 517.221 397.488 73.44M-49.992 517.221 393.789 73.44M-53.695 517.221 390.086 73.44M-57.39 517.221 386.39 73.44M-61.09 517.221 382.691 73.44M-64.79 517.221 378.993 73.44M-68.484 517.221 375.297 73.44M-72.184 517.221 371.598 73.44M-75.879 517.221 367.902 73.44M-79.578 517.221 364.203 73.44M-83.281 517.221 360.5 73.44M-86.977 517.221 356.805 73.44" />
    </g>
    <path d="M356.578 85v133.596" stroke="#0D102B" stroke-width=".782" />
</svg>