<svg fill="none" xmlns="http://www.w3.org/2000/svg" viewBox="0 0 608 360"><rect width="608" height="360" rx="16" fill="#F9F9FB"/><path d="M408.261 184.902a24.87 24.87 0 0110.34-2.257h2.798c3.561 0 7.083.769 10.34 2.257l3.283 1.501c1.203.549 1.978 1.779 1.978 3.136v5.824c0 1.457-1.144 2.637-2.554 2.637h-28.892c-1.41 0-2.554-1.18-2.554-2.637v-5.824c0-1.357.775-2.587 1.978-3.136l3.283-1.501zm5.372-14.623c0-3.468 2.723-6.279 6.082-6.279h.584c3.36 0 6.084 2.811 6.084 6.28v2.153a8.96 8.96 0 01-2.514 6.245 5.352 5.352 0 01-7.722 0 8.962 8.962 0 01-2.514-6.246v-2.153z" stroke="#0D102B" stroke-width="2"/><rect x="439" y="124" width="38" height="38" rx="19" fill="#F9F9FB"/><path d="M464.418 137.5l-5.658 9.41c-.334.555-.501.832-.733.952a.917.917 0 01-.607.081c-.256-.053-.49-.277-.958-.724L452.043 143" stroke="#0D102B" stroke-width="2" stroke-linecap="round" stroke-linejoin="round"/><rect x="439" y="124" width="38" height="38" rx="19" stroke="#0D102B" stroke-width="2" stroke-linecap="round"/><rect x="382" y="143" width="76" height="76" rx="12" stroke="#0D102B" stroke-width="2.4" stroke-linecap="round"/><path d="M193 166.334h6.667" stroke="#0D102B" stroke-width="1.8" stroke-linecap="round"/><circle cx="204.331" cy="166.334" r="4.667" stroke="#0D102B" stroke-width="1.8" stroke-linecap="round"/><path d="M209 166.334h24M193 181h14.667" stroke="#0D102B" stroke-width="1.8" stroke-linecap="round"/><circle cx="212.331" cy="181.001" r="4.667" stroke="#0D102B" stroke-width="1.8" stroke-linecap="round"/><path d="M217 181h16m0 14.667h-6.667" stroke="#0D102B" stroke-width="1.8" stroke-linecap="round"/><circle r="4.667" transform="matrix(-1 0 0 1 221.669 195.667)" stroke="#0D102B" stroke-width="1.8" stroke-linecap="round"/><path d="M217 195.667h-24m0-126h6.667" stroke="#0D102B" stroke-width="1.8" stroke-linecap="round"/><circle cx="204.331" cy="69.667" r="4.667" stroke="#0D102B" stroke-width="1.8" stroke-linecap="round"/><path d="M209 69.667h24m-40 14.667h14.667" stroke="#0D102B" stroke-width="1.8" stroke-linecap="round"/><circle cx="212.331" cy="84.334" r="4.667" stroke="#0D102B" stroke-width="1.8" stroke-linecap="round"/><path d="M217 84.334h16M233 99h-6.667" stroke="#0D102B" stroke-width="1.8" stroke-linecap="round"/><circle r="4.667" transform="matrix(-1 0 0 1 221.669 99)" stroke="#0D102B" stroke-width="1.8" stroke-linecap="round"/><path d="M217 99h-24m0 164.001h6.667" stroke="#0D102B" stroke-width="1.8" stroke-linecap="round"/><circle cx="204.331" cy="263.001" r="4.667" stroke="#0D102B" stroke-width="1.8" stroke-linecap="round"/><path d="M209 263.001h24m-40 14.666h14.667" stroke="#0D102B" stroke-width="1.8" stroke-linecap="round"/><circle cx="212.331" cy="277.668" r="4.667" stroke="#0D102B" stroke-width="1.8" stroke-linecap="round"/><path d="M217 277.667h16m0 14.667h-6.667" stroke="#0D102B" stroke-width="1.8" stroke-linecap="round"/><circle r="4.667" transform="matrix(-1 0 0 1 221.669 292.334)" stroke="#0D102B" stroke-width="1.8" stroke-linecap="round"/><path d="M217 292.334h-24M283 85h16a8 8 0 018 8v72a8 8 0 008 8h16m-48 104h16a8 8 0 008-8v-72a8 8 0 018-8h16m-47-8h48" stroke="#0D102B" stroke-width="1.8" stroke-linecap="round"/></svg>