<svg viewBox="0 0 80 80" fill="none" xmlns="http://www.w3.org/2000/svg">
    <rect width="80" height="80" rx="16" fill="#FF5D22" />
    <path
        d="M23.9445 43.205C24.3445 43.205 24.6595 43.315 24.8895 43.535C25.1295 43.755 25.2495 44.05 25.2495 44.42C25.2495 44.79 25.1295 45.085 24.8895 45.305C24.6595 45.525 24.3445 45.635 23.9445 45.635C23.5445 45.635 23.2245 45.53 22.9845 45.32C22.7545 45.1 22.6395 44.8 22.6395 44.42C22.6395 44.04 22.7545 43.745 22.9845 43.535C23.2245 43.315 23.5445 43.205 23.9445 43.205ZM31.7632 35.6C33.3132 35.6 34.5132 36.03 35.3632 36.89C36.2132 37.75 36.6382 38.97 36.6382 40.55C36.6382 42.13 36.2132 43.35 35.3632 44.21C34.5132 45.07 33.3132 45.5 31.7632 45.5H27.9382V35.6H31.7632ZM31.6582 43.85C32.5982 43.85 33.3032 43.57 33.7732 43.01C34.2532 42.44 34.4932 41.62 34.4932 40.55C34.4932 39.48 34.2532 38.665 33.7732 38.105C33.3032 37.535 32.5982 37.25 31.6582 37.25H30.0082V43.85H31.6582ZM46.9545 43.835V45.5H39.3195V35.6H46.7445V37.265H41.3895V39.725H45.6045V41.315H41.3895V43.835H46.9545ZM54.3617 45.5H51.9467L48.3317 35.6H50.5217L52.6067 41.9L53.1767 43.85L53.7317 41.915L55.8317 35.6H57.9617L54.3617 45.5Z"
        fill="white" />
    <rect x="17" y="26" width="46" height="28" rx="2" stroke="white" stroke-width="2" />
    <defs>
        <filter id="filter0_b_3343_39703" x="4.33333" y="13.3333" width="71.3333" height="53.3333"
            filterUnits="userSpaceOnUse" color-interpolation-filters="sRGB">
            <feFlood flood-opacity="0" result="BackgroundImageFix" />
            <feGaussianBlur in="BackgroundImage" stdDeviation="5.83333" />
            <feComposite in2="SourceAlpha" operator="in" result="effect1_backgroundBlur_3343_39703" />
            <feBlend mode="normal" in="SourceGraphic" in2="effect1_backgroundBlur_3343_39703" result="shape" />
        </filter>
    </defs>
</svg>