<svg viewBox="0 0 80 80" fill="none" xmlns="http://www.w3.org/2000/svg">
    <rect width="80" height="80" rx="16" fill="#FF5D22" />
    <rect x="15" y="24" width="50" height="32" rx="2" fill="white" fill-opacity="0.2" />
    <path
        d="M29.774 35.76C31.2207 35.76 32.3407 36.1613 33.134 36.964C33.9273 37.7667 34.324 38.9053 34.324 40.38C34.324 41.8547 33.9273 42.9933 33.134 43.796C32.3407 44.5987 31.2207 45 29.774 45H26.204V35.76H29.774ZM29.676 43.46C30.5533 43.46 31.2113 43.1987 31.65 42.676C32.098 42.144 32.322 41.3787 32.322 40.38C32.322 39.3813 32.098 38.6207 31.65 38.098C31.2113 37.566 30.5533 37.3 29.676 37.3H28.136V43.46H29.676ZM43.9525 43.446V45H36.8265V35.76H43.7565V37.314H38.7585V39.61H42.6925V41.094H38.7585V43.446H43.9525ZM50.8659 45H48.6119L45.2379 35.76H47.2819L49.2279 41.64L49.7599 43.46L50.2779 41.654L52.2379 35.76H54.2259L50.8659 45Z"
        fill="white" />
    <rect x="14" y="23" width="52" height="34" rx="3" stroke="white" stroke-width="2" />
    <defs>
        <filter id="filter0_b_2710_36365" x="1.33333" y="10.3333" width="77.3333" height="59.3333"
            filterUnits="userSpaceOnUse" color-interpolation-filters="sRGB">
            <feFlood flood-opacity="0" result="BackgroundImageFix" />
            <feGaussianBlur in="BackgroundImage" stdDeviation="5.83333" />
            <feComposite in2="SourceAlpha" operator="in" result="effect1_backgroundBlur_2710_36365" />
            <feBlend mode="normal" in="SourceGraphic" in2="effect1_backgroundBlur_2710_36365" result="shape" />
        </filter>
    </defs>
</svg>