<svg width="38" height="22" viewBox="0 0 38 22" fill="none" xmlns="http://www.w3.org/2000/svg">
    <path
        d="M27.4876 15.9009C26.6309 15.9009 25.9341 15.2036 25.9341 14.347C25.9341 13.4904 26.6309 12.7936 27.4876 12.7936C28.3442 12.7936 29.041 13.4904 29.041 14.347C29.041 15.2036 28.3442 15.9009 27.4876 15.9009ZM10.3165 15.9009C9.4598 15.9009 8.76302 15.2036 8.76302 14.347C8.76302 13.4904 9.4598 12.7936 10.3165 12.7936C11.1731 12.7936 11.8699 13.4904 11.8699 14.347C11.8699 15.2036 11.1731 15.9009 10.3165 15.9009ZM28.0447 6.54295L31.1496 1.16564C31.3276 0.856558 31.2217 0.46177 30.9131 0.283282C30.6045 0.105299 30.2093 0.211181 30.0308 0.519752L26.8871 5.96514C24.483 4.86799 21.783 4.2569 18.902 4.2569C16.021 4.2569 13.321 4.86799 10.917 5.96514L7.77326 0.519752C7.59477 0.211181 7.19948 0.105299 6.89091 0.283282C6.58234 0.46177 6.47595 0.856558 6.65444 1.16564L9.7593 6.54295C4.42787 9.44262 0.781485 14.8401 0.248047 21.2168H37.556C37.022 14.8401 33.3757 9.44262 28.0447 6.54295Z"
        fill="#FAFAFA" />
</svg>