<svg width="27" height="33" viewBox="0 0 27 33" fill="none" xmlns="http://www.w3.org/2000/svg">
    <g clip-path="url(#clip0_965_29597)">
        <path
            d="M25.7019 11.3129C25.5173 11.4561 22.2576 13.2929 22.2576 17.3771C22.2576 22.1011 26.4055 23.7723 26.5296 23.8137C26.5105 23.9156 25.8707 26.1025 24.3427 28.3308C22.9802 30.2918 21.5573 32.2495 19.3926 32.2495C17.228 32.2495 16.6709 30.9921 14.172 30.9921C11.7368 30.9921 10.8709 32.2909 8.89087 32.2909C6.91085 32.2909 5.52929 30.4764 3.94082 28.2481C2.10087 25.6314 0.614258 21.5663 0.614258 17.7081C0.614258 11.5198 4.63797 8.23777 8.59801 8.23777C10.7022 8.23777 12.4562 9.61933 13.7773 9.61933C15.0347 9.61933 16.9956 8.155 19.3894 8.155C20.2967 8.155 23.5564 8.23777 25.7019 11.3129ZM18.253 5.53514C19.243 4.3605 19.9433 2.73064 19.9433 1.10078C19.9433 0.874768 19.9242 0.64557 19.8829 0.460938C18.2721 0.52142 16.3557 1.53371 15.2002 2.87389C14.293 3.90528 13.4462 5.53514 13.4462 7.18728C13.4462 7.43558 13.4876 7.68387 13.5067 7.76346C13.6085 7.78256 13.7741 7.80484 13.9396 7.80484C15.3848 7.80484 17.2025 6.83711 18.253 5.53514Z"
            fill="#FAFAFA" />
    </g>
    <defs>
        <clipPath id="clip0_965_29597">
            <rect width="25.9122" height="31.8331" fill="white" transform="translate(0.614258 0.460938)" />
        </clipPath>
    </defs>
</svg>