<svg width="32" height="32" viewBox="0 0 32 32" fill="none" xmlns="http://www.w3.org/2000/svg">
    <g opacity="0.9" clip-path="url(#clip0_965_29693)">
        <path
            d="M10.2949 16.2146C10.2949 19.4611 12.9362 22.1022 16.1828 22.1022C19.4292 22.1022 22.0702 19.461 22.0702 16.2146C22.0702 12.9681 19.4292 10.3269 16.1828 10.3269C12.9362 10.3269 10.2949 12.9681 10.2949 16.2146Z"
            fill="#FAFAFA" />
        <path
            d="M29.7388 8.44273C29.7847 8.36205 29.7839 8.26298 29.7365 8.18313C28.3651 5.87351 26.4136 3.93887 24.0928 2.5884C21.7008 1.19641 18.9653 0.460693 16.1822 0.460693C11.3658 0.460693 6.8771 2.62218 3.86709 6.39095C3.80066 6.474 3.79199 6.58918 3.84519 6.68122L8.27994 14.3622C8.32642 14.4428 8.41216 14.4914 8.50348 14.4914C8.51505 14.4914 8.52683 14.4905 8.5385 14.489C8.64242 14.4748 8.72744 14.3992 8.75368 14.2977C9.62813 10.9095 12.6829 8.54314 16.1822 8.54314C16.3994 8.54314 16.6236 8.55306 16.849 8.57227C16.8564 8.57299 16.8638 8.5733 16.8711 8.5733H29.5144C29.6072 8.5733 29.693 8.52351 29.7388 8.44273Z"
            fill="#FAFAFA" />
        <path
            d="M18.5109 23.6959C18.4468 23.6129 18.3391 23.5773 18.2376 23.6054C17.5705 23.7911 16.8793 23.8852 16.1829 23.8852C13.2241 23.8852 10.4972 22.1499 9.23547 19.4643C9.23237 19.4577 9.22896 19.4513 9.22535 19.4449L2.89887 8.48741C2.85279 8.40735 2.76746 8.35828 2.67521 8.35828C2.6748 8.35828 2.67428 8.35828 2.67387 8.35828C2.5811 8.35879 2.49566 8.4089 2.45021 8.48968C1.12778 10.8363 0.428711 13.5073 0.428711 16.2139C0.428711 20.0109 1.79855 23.6786 4.28586 26.5413C6.74848 29.3755 10.1388 31.2407 13.8325 31.7934C13.8453 31.7954 13.8581 31.7962 13.8708 31.7962C13.962 31.7962 14.0478 31.7477 14.0944 31.6671L18.5305 23.9834C18.5829 23.8924 18.5752 23.7788 18.5109 23.6959Z"
            fill="#FAFAFA" />
        <path
            d="M30.6113 10.2957H21.7297C21.6247 10.2957 21.5302 10.3592 21.4906 10.4563C21.451 10.5534 21.474 10.665 21.5489 10.7383C23.0349 12.1951 23.8533 14.1396 23.8533 16.2136C23.8533 17.7836 23.3796 19.2946 22.4832 20.5832C22.4791 20.5892 22.4752 20.5953 22.4716 20.6016L16.1342 31.5781C16.0878 31.6585 16.0881 31.7575 16.1349 31.8377C16.1813 31.9169 16.2662 31.9655 16.3578 31.9655C16.3588 31.9655 16.3598 31.9655 16.3607 31.9655C20.5312 31.919 24.4448 30.2598 27.3803 27.2938C30.3182 24.3253 31.9362 20.3902 31.9362 16.2136C31.9362 14.2283 31.5714 12.2925 30.8517 10.4596C30.8129 10.3606 30.7175 10.2957 30.6113 10.2957Z"
            fill="#FAFAFA" />
    </g>
    <defs>
        <clipPath id="clip0_965_29693">
            <rect width="31.5071" height="31.5071" fill="white" transform="translate(0.427246 0.460938)" />
        </clipPath>
    </defs>
</svg>