<svg width="46" height="32" viewBox="0 0 46 32" fill="none" xmlns="http://www.w3.org/2000/svg">
    <g opacity="0.9">
        <path
            d="M31.3426 26.4411L31.573 25.6445C31.8475 24.697 31.7454 23.821 31.2848 23.1775C30.8609 22.5847 30.1545 22.2356 29.2966 22.195L13.048 21.9894C12.9976 21.9884 12.9481 21.9756 12.9036 21.9519C12.859 21.9283 12.8208 21.8945 12.7916 21.8533C12.7633 21.8107 12.7451 21.7621 12.7387 21.7113C12.7324 21.6605 12.7381 21.6089 12.7552 21.5606C12.783 21.481 12.8336 21.4113 12.9007 21.3601C12.9678 21.309 13.0483 21.2786 13.1326 21.2727L29.5316 21.0648C31.477 20.9756 33.5832 19.3983 34.3206 17.4748L35.2557 15.0329C35.2941 14.9297 35.3029 14.8178 35.2811 14.7099C34.2192 9.93696 29.9564 6.3678 24.8596 6.3678C20.1635 6.3678 16.1762 9.39656 14.7459 13.6064C13.7794 12.8815 12.5744 12.5482 11.3725 12.6734C9.11958 12.8969 7.30813 14.7095 7.0851 16.9611C7.02794 17.5234 7.06976 18.0913 7.20899 18.639C3.52862 18.7462 0.577148 21.7593 0.577148 25.463C0.577618 25.7936 0.602048 26.1238 0.650286 26.451C0.660936 26.5264 0.69837 26.5957 0.755848 26.646C0.813327 26.6962 0.887097 26.7241 0.96337 26.7246L30.9611 26.7283C30.9639 26.7285 30.9667 26.7285 30.9695 26.7283C31.0544 26.7268 31.1365 26.6981 31.2037 26.6464C31.2709 26.5946 31.3196 26.5227 31.3426 26.4411Z"
            fill="#FAFAFA" />
        <path
            d="M36.7561 15.2095C36.6056 15.2095 36.4555 15.2133 36.3061 15.2208C36.282 15.2225 36.2583 15.2277 36.2358 15.2362C36.1966 15.2496 36.1612 15.2722 36.1327 15.3022C36.1042 15.3323 36.0834 15.3687 36.0721 15.4085L35.4332 17.6138C35.1585 18.5614 35.2606 19.4367 35.7217 20.0803C36.1454 20.6738 36.8518 21.0221 37.7096 21.0627L41.1737 21.2705C41.2224 21.2721 41.27 21.2851 41.3129 21.3083C41.3557 21.3316 41.3925 21.3645 41.4204 21.4045C41.4492 21.4473 41.4675 21.4962 41.4738 21.5474C41.4802 21.5985 41.4744 21.6505 41.457 21.699C41.4292 21.7784 41.3786 21.848 41.3117 21.8992C41.2448 21.9503 41.1643 21.9808 41.0803 21.987L37.4811 22.1948C35.5269 22.2848 33.4211 23.8614 32.6843 25.7849L32.4243 26.4641C32.4135 26.4924 32.4094 26.5229 32.4127 26.5532C32.416 26.5834 32.4264 26.6125 32.4431 26.6379C32.4599 26.6633 32.4823 26.6844 32.5087 26.6995C32.5352 26.7143 32.565 26.723 32.5953 26.7242C32.5986 26.7242 32.6016 26.7242 32.6049 26.7242H44.9895C45.0616 26.7248 45.1318 26.702 45.1896 26.6589C45.2472 26.6158 45.2893 26.5552 45.3092 26.486C45.5287 25.7036 45.6395 24.895 45.6388 24.0824C45.6374 19.1824 41.661 15.2095 36.7561 15.2095Z"
            fill="#FAFAFA" />
    </g>
</svg>