<svg width="27" height="33" viewBox="0 0 27 33" fill="none" xmlns="http://www.w3.org/2000/svg">
    <path
        d="M16.6094 0.53022L26.6412 0.519165L9.81064 17.3411L5.42428 21.7029L0.433594 16.7061L16.6094 0.53022ZM16.5161 15.5502C16.6463 15.3782 16.8858 15.463 17.0676 15.4409L26.6326 15.4433L17.9151 24.1522L12.8986 19.1664L16.5161 15.5502Z"
        fill="#FAFAFA" />
    <path d="M7.89844 24.1608L12.899 19.1664L17.9154 24.1522L17.9363 24.1743L12.9002 29.1637L7.89844 24.1608Z"
        fill="#FAFAFA" fill-opacity="0.9" />
    <path
        d="M12.9004 29.1638L17.9365 24.1743L26.6368 32.8832C23.3596 32.8905 20.0836 32.8807 16.8077 32.8881C16.621 32.9298 16.5055 32.7591 16.3864 32.6535L12.9004 29.1638Z"
        fill="#FAFAFA" />
</svg>