<svg width="64" height="25" viewBox="0 0 64 25" fill="none" xmlns="http://www.w3.org/2000/svg">
    <path
        d="M5.47992 8.054C5.35693 8.054 5.32619 7.99251 5.38768 7.90027L6.03336 7.07011C6.09485 6.97787 6.24858 6.91638 6.37157 6.91638H17.3481C17.4711 6.91638 17.5018 7.00862 17.4403 7.10086L16.9176 7.90027C16.8561 7.99251 16.7024 8.08475 16.6101 8.08475L5.47992 8.054Z"
        fill="#FAFAFA" />
    <path
        d="M0.837342 10.8827C0.714356 10.8827 0.683609 10.8212 0.745102 10.729L1.39078 9.89885C1.45227 9.80661 1.606 9.74512 1.72899 9.74512H15.7494C15.8724 9.74512 15.9339 9.83736 15.9031 9.9296L15.6572 10.6675C15.6264 10.7905 15.5034 10.852 15.3804 10.852L0.837342 10.8827Z"
        fill="#FAFAFA" />
    <path
        d="M8.27679 13.7113C8.15381 13.7113 8.12306 13.6191 8.18456 13.5269L8.61501 12.7582C8.6765 12.666 8.79949 12.5737 8.92247 12.5737H15.0718C15.1948 12.5737 15.2562 12.666 15.2562 12.789L15.1948 13.5269C15.1948 13.6499 15.0718 13.7421 14.9795 13.7421L8.27679 13.7113Z"
        fill="#FAFAFA" />
    <path
        d="M40.1941 7.50046C38.2571 7.9924 36.935 8.36136 35.0287 8.8533C34.5675 8.97629 34.5368 9.00704 34.1371 8.54584C33.6759 8.02315 33.3376 7.68494 32.692 7.37747C30.7549 6.42433 28.8794 6.70105 27.1269 7.83867C25.0361 9.19152 23.96 11.19 23.9907 13.6805C24.0215 16.1402 25.7125 18.1695 28.1415 18.5077C30.2323 18.7844 31.9848 18.0465 33.3684 16.4784C33.6451 16.1402 33.8911 15.7713 34.1986 15.3408C33.0917 15.3408 31.7081 15.3408 28.2645 15.3408C27.6188 15.3408 27.4651 14.9411 27.6803 14.4184C28.08 13.4653 28.8179 11.8665 29.2484 11.0671C29.3406 10.8826 29.5558 10.5751 30.017 10.5751C31.5851 10.5751 37.3654 10.5751 41.2087 10.5751C41.1473 11.4053 41.1473 12.2354 41.0243 13.0656C40.6861 15.2793 39.8559 17.3086 38.5031 19.0919C36.2893 22.0128 33.3991 23.8268 29.7403 24.3188C26.7272 24.7185 23.9292 24.1343 21.4695 22.2895C19.1943 20.5677 17.9029 18.2925 17.5647 15.4638C17.165 12.1124 18.1489 9.09928 20.1782 6.45508C22.3612 3.59566 25.2513 1.78161 28.7872 1.13594C31.6773 0.613246 34.4445 0.951457 36.935 2.64251C38.5646 3.71864 39.7329 5.19447 40.5016 6.97777C40.6861 7.25449 40.5631 7.40822 40.1941 7.50046Z"
        fill="#FAFAFA" />
    <path
        d="M50.3717 24.5032C47.5737 24.4417 45.0218 23.6423 42.8695 21.7975C41.0555 20.2295 39.9178 18.2309 39.5489 15.8635C38.9955 12.3891 39.9486 9.31446 42.0394 6.57803C44.2838 3.62636 46.9895 2.08904 50.6484 1.44336C53.7845 0.889925 56.7362 1.19739 59.4111 3.01143C61.8401 4.67174 63.3467 6.91624 63.7464 9.8679C64.2691 14.0187 63.07 17.4008 60.2105 20.291C58.1813 22.351 55.6908 23.6423 52.8314 24.2265C52.0012 24.3802 51.1711 24.411 50.3717 24.5032ZM57.6893 12.0816C57.6586 11.6819 57.6586 11.3745 57.5971 11.067C57.0436 8.02311 54.2457 6.30131 51.3248 6.97773C48.4654 7.62341 46.6206 9.43745 45.9442 12.3276C45.3907 14.7258 46.5591 17.1548 48.7728 18.1387C50.4639 18.8766 52.155 18.7844 53.7845 17.9542C56.2135 16.6936 57.5356 14.7258 57.6893 12.0816Z"
        fill="#FAFAFA" />
</svg>