<svg width="32" height="32" viewBox="0 0 32 32" fill="none" xmlns="http://www.w3.org/2000/svg">
    <g clip-path="url(#clip0_965_29663)">
        <path d="M13.2188 30.7713L18.6895 25.2945L6.93807 13.4237L1.36665 18.9936L13.2188 30.7713Z" fill="#FAFAFA" />
        <path
            d="M13.1794 7.18314L18.7493 1.61218L30.5601 13.4226C32.0987 14.9598 32.1 17.4512 30.5627 18.9897C30.5614 18.991 30.5601 18.9922 30.5601 18.9922L18.7493 30.8026L13.2853 25.3133L22.2104 16.2151L13.1794 7.18314Z"
            fill="#FAFAFA" fill-opacity="0.6" />
        <path
            d="M1.36806 13.4233L13.1794 1.61241C14.718 0.0738582 17.2122 0.0738582 18.7508 1.61241C20.2894 3.15096 20.2894 5.64505 18.7508 7.18232L6.93309 18.9932C5.39448 20.5317 2.90029 20.5317 1.36295 18.9932C-0.175665 17.4546 -0.175665 14.9606 1.36295 13.4233H1.36806Z"
            fill="#FAFAFA" />
        <path
            d="M16.0067 31.9683C13.8506 31.9683 12.1028 30.2206 12.1028 28.0646C12.1028 25.9086 13.8506 24.1608 16.0067 24.1608C18.1628 24.1608 19.9106 25.9086 19.9106 28.0646C19.9106 30.2206 18.1628 31.9683 16.0067 31.9683Z"
            fill="#FAFAFA" />
    </g>
    <defs>
        <clipPath id="clip0_965_29663">
            <rect width="31.5071" height="31.5071" fill="white" transform="matrix(-1 0 0 1 31.7144 0.460938)" />
        </clipPath>
    </defs>
</svg>