<svg width="32" height="32" viewBox="0 0 32 32" fill="none" xmlns="http://www.w3.org/2000/svg">
    <g clip-path="url(#clip0_1315_19594)">
        <path d="M31.2169 0.460938H0.124512V31.5533H31.2169V0.460938Z" fill="#FAFAFA" />
        <path
            d="M21.011 24.7521C21.6373 25.7747 22.4521 26.5263 23.8933 26.5263C25.1039 26.5263 25.8772 25.9213 25.8772 25.0852C25.8772 24.0833 25.0827 23.7285 23.7501 23.1456L23.0197 22.8322C20.9113 21.934 19.5107 20.8088 19.5107 18.43C19.5107 16.2387 21.1803 14.5706 23.7896 14.5706C25.6473 14.5706 26.9827 15.2171 27.9451 16.9099L25.67 18.3707C25.169 17.4725 24.6286 17.1187 23.7896 17.1187C22.9338 17.1187 22.3914 17.6615 22.3914 18.3707C22.3914 19.2472 22.9343 19.6021 24.1879 20.145L24.9183 20.4579C27.4008 21.5224 28.8024 22.6077 28.8024 25.0477C28.8024 27.6782 26.736 29.1193 23.9609 29.1193C21.2474 29.1193 19.4944 27.8263 18.6367 26.1315L21.011 24.7521ZM10.6898 25.0053C11.1488 25.8196 11.5664 26.5081 12.5702 26.5081C13.5301 26.5081 14.1357 26.1325 14.1357 24.6721V14.7374H17.0574V24.7116C17.0574 27.7369 15.2836 29.1139 12.6946 29.1139C10.3552 29.1139 9.00049 27.9033 8.31152 26.4451L10.6898 25.0053Z"
            fill="black" />
    </g>
    <defs>
        <clipPath id="clip0_1315_19594">
            <rect width="31.0924" height="31.0924" fill="white" transform="translate(0.124512 0.460938)" />
        </clipPath>
    </defs>
</svg>