<svg width="54" height="37" viewBox="0 0 54 37" fill="none" xmlns="http://www.w3.org/2000/svg">
    <path
        d="M15.209 11.8044H24.1828V12.5142H16.0316V17.8566H23.6967V18.5664H16.0316V24.4318H24.2763V25.1416H15.209V11.8044ZM24.9867 11.8044H25.9402L30.1654 17.6698L34.484 11.8044L40.3581 4.354L30.7075 18.2862L35.6805 25.1416H34.6897L30.1654 18.9026L25.6224 25.1416H24.6502L29.6606 18.2862L24.9867 11.8044ZM36.0357 12.5142V11.8044H46.2621V12.5142H41.5509V25.1416H40.7283V12.5142H36.0357Z"
        fill="white" stroke="white" stroke-width="0.74283" />
    <path d="M3.98193 11.8044H5.01023L19.1898 32.9209L13.3301 25.1422L4.84196 12.8132L4.80457 25.1422H3.98193V11.8044Z"
        fill="white" stroke="white" stroke-width="0.74283" />
    <path
        d="M46.1784 24.219C46.3485 24.219 46.4726 24.0894 46.4726 23.9219C46.4726 23.7544 46.3485 23.6248 46.1784 23.6248C46.0103 23.6248 45.8843 23.7544 45.8843 23.9219C45.8843 24.0894 46.0103 24.219 46.1784 24.219ZM46.9869 23.4373C46.9869 23.9318 47.345 24.2549 47.8673 24.2549C48.4236 24.2549 48.7598 23.9219 48.7598 23.3436V21.3077H48.3115V23.3416C48.3115 23.6627 48.1495 23.8341 47.8633 23.8341C47.6072 23.8341 47.4331 23.6746 47.4271 23.4373H46.9869ZM49.3461 23.4114C49.3781 23.9259 49.8083 24.2549 50.4487 24.2549C51.133 24.2549 51.5612 23.9099 51.5612 23.3596C51.5612 22.9269 51.3171 22.6876 50.7248 22.55L50.4066 22.4722C50.0304 22.3845 49.8784 22.2668 49.8784 22.0614C49.8784 21.8022 50.1145 21.6327 50.4687 21.6327C50.8049 21.6327 51.037 21.7982 51.079 22.0634H51.5152C51.4892 21.5789 51.061 21.2379 50.4747 21.2379C49.8443 21.2379 49.4241 21.5789 49.4241 22.0914C49.4241 22.5141 49.6623 22.7653 50.1845 22.887L50.5567 22.9767C50.9389 23.0664 51.107 23.198 51.107 23.4174C51.107 23.6726 50.8429 23.8581 50.4827 23.8581C50.0965 23.8581 49.8283 23.6846 49.7903 23.4114H49.3461Z"
        fill="white" stroke="white" stroke-width="0.51773" />
</svg>