<svg width="50" height="31" viewBox="0 0 50 31" fill="none" xmlns="http://www.w3.org/2000/svg">
    <g clip-path="url(#clip0_1315_19530)">
        <path
            d="M24.5884 30.7522C24.4252 30.7522 24.2631 30.7097 24.12 30.6269L22.6285 29.7448C22.406 29.6207 22.5145 29.576 22.5882 29.5503C22.8856 29.4474 22.9449 29.4239 23.2624 29.2439C23.296 29.2249 23.3396 29.2327 23.3731 29.2529L24.5191 29.9326C24.5605 29.9561 24.6197 29.9561 24.6578 29.9326L29.1243 27.3544C29.1657 27.3309 29.1925 27.2829 29.1925 27.2337V22.0795C29.1925 22.0292 29.1657 21.9822 29.1232 21.9565L24.6589 19.3805C24.6175 19.3559 24.5627 19.3559 24.5213 19.3805L20.0581 21.9576C20.0145 21.9822 19.9877 22.0314 19.9877 22.0795V27.2337C19.9877 27.2829 20.0156 27.3298 20.0581 27.3533L21.2813 28.0599C21.9454 28.392 22.3512 28.0007 22.3512 27.6082V22.5189C22.3512 22.4473 22.4094 22.3903 22.4809 22.3903H23.0478C23.1182 22.3903 23.1775 22.4473 23.1775 22.5189V27.6082C23.1775 28.4937 22.6945 29.0024 21.8548 29.0024C21.5965 29.0024 21.3931 29.0024 20.8262 28.7229L19.6545 28.0487C19.3649 27.881 19.186 27.5691 19.186 27.2337V22.0795C19.186 21.7441 19.3649 21.4321 19.6545 21.2655L24.1211 18.6851C24.404 18.5252 24.7796 18.5252 25.0602 18.6851L29.5268 21.2655C29.8164 21.4333 29.9964 21.7452 29.9964 22.0795V27.2337C29.9964 27.5691 29.8164 27.8799 29.5268 28.0487L25.0602 30.6269C24.9171 30.7097 24.755 30.7522 24.5896 30.7522H24.5884Z"
            fill="#FAFAFA" />
        <path
            d="M25.968 27.2001C24.0137 27.2001 23.6045 26.3034 23.6045 25.5498C23.6045 25.4783 23.6615 25.4213 23.7331 25.4213H24.31C24.3748 25.4213 24.4285 25.4671 24.4386 25.5308C24.5258 26.1189 24.7851 26.4152 25.968 26.4152C26.9094 26.4152 27.3097 26.2028 27.3097 25.703C27.3097 25.4157 27.1957 25.2021 25.7333 25.0579C24.5112 24.9372 23.7554 24.6666 23.7554 23.6894C23.7554 22.7883 24.5146 22.2505 25.7892 22.2505C27.2203 22.2505 27.928 22.7469 28.0174 23.8124C28.0208 23.8493 28.0074 23.884 27.9828 23.9119C27.9582 23.9376 27.9246 23.9533 27.8877 23.9533H27.3086C27.2482 23.9533 27.1957 23.9108 27.1834 23.8526C27.0447 23.2344 26.706 23.0365 25.788 23.0365C24.7606 23.0365 24.6409 23.3942 24.6409 23.6626C24.6409 23.9879 24.7818 24.0818 26.1693 24.2652C27.5422 24.4463 28.1941 24.7035 28.1941 25.6684C28.1941 26.6332 27.3824 27.199 25.9669 27.199L25.968 27.2001Z"
            fill="#FAFAFA" />
        <path
            d="M32.4083 21.7944C32.4083 22.2684 32.0215 22.6553 31.5474 22.6553C31.0734 22.6553 30.6865 22.2729 30.6865 21.7944C30.6865 21.3158 31.0879 20.9335 31.5474 20.9335C32.0069 20.9335 32.4083 21.3069 32.4083 21.7944ZM30.8263 21.7921C30.8263 22.1935 31.1494 22.5166 31.5463 22.5166C31.9432 22.5166 32.2708 22.1868 32.2708 21.7921C32.2708 21.3975 31.9432 21.0721 31.5463 21.0721C31.1494 21.0721 30.8263 21.3863 30.8263 21.7921ZM31.2243 21.3114H31.5575C31.6715 21.3114 31.8951 21.3114 31.8951 21.5663C31.8951 21.7441 31.7811 21.7798 31.7129 21.8033C31.8448 21.8123 31.8538 21.8995 31.8728 22.0224C31.8817 22.0996 31.8962 22.2315 31.9231 22.2774H31.7185C31.714 22.2315 31.6816 21.9856 31.6816 21.9721C31.6682 21.9174 31.6492 21.8905 31.581 21.8905H31.4121V22.2774H31.2254V21.3114H31.2243ZM31.4065 21.7351H31.5564C31.6793 21.7351 31.7017 21.649 31.7017 21.5987C31.7017 21.4668 31.61 21.4668 31.5608 21.4668H31.4065V21.7351Z"
            fill="#FAFAFA" />
        <path fill-rule="evenodd" clip-rule="evenodd"
            d="M10.7573 10.5847C10.7573 10.379 10.6489 10.1901 10.4711 10.0872L5.73616 7.36141C5.65566 7.31445 5.56622 7.28985 5.47566 7.2865H5.42646C5.3359 7.28985 5.24646 7.31445 5.16484 7.36141L0.428798 10.0872C0.252147 10.1889 0.142578 10.3779 0.142578 10.5847L0.152641 17.9236C0.152641 18.0253 0.205189 18.1204 0.29575 18.1707C0.384076 18.2232 0.492526 18.2232 0.579734 18.1707L3.39385 16.5596C3.57162 16.4534 3.68007 16.2678 3.68007 16.0632V12.6352C3.68007 12.4306 3.78852 12.2417 3.96518 12.1399L5.16372 11.4501C5.25316 11.3987 5.35043 11.373 5.44994 11.373C5.54945 11.373 5.64783 11.3987 5.73392 11.4501L6.93135 12.1399C7.10912 12.2417 7.21757 12.4306 7.21757 12.6352V16.0632C7.21757 16.2666 7.32714 16.4545 7.50379 16.5596L10.3168 18.1707C10.4051 18.2232 10.5147 18.2232 10.603 18.1707C10.6902 18.1204 10.745 18.0253 10.745 17.9236L10.7539 10.5847H10.7573Z"
            fill="#FAFAFA" />
        <path fill-rule="evenodd" clip-rule="evenodd"
            d="M33.5421 0.496891C33.4537 0.447697 33.3453 0.448815 33.2581 0.500245C33.1709 0.551675 33.1172 0.645591 33.1172 0.747333V8.01463C33.1172 8.08619 33.0792 8.15215 33.0177 8.18793C32.9562 8.22371 32.8791 8.22371 32.8176 8.18793L31.6313 7.5048C31.4547 7.40306 31.2367 7.40306 31.06 7.5048L26.3228 10.2384C26.1462 10.3402 26.0366 10.5291 26.0366 10.7337V16.2032C26.0366 16.4078 26.1462 16.5968 26.3228 16.6985L31.06 19.4343C31.2367 19.5361 31.4547 19.5361 31.6324 19.4343L36.3707 16.6985C36.5474 16.5956 36.6569 16.4078 36.6569 16.2032V2.56975C36.6569 2.36291 36.5451 2.17172 36.364 2.06998L33.5421 0.496891ZM33.1027 14.4054C33.1027 14.4568 33.0758 14.5038 33.0311 14.5295L31.4044 15.4675C31.3608 15.4932 31.306 15.4932 31.2612 15.4675L29.6345 14.5295C29.5898 14.5038 29.5629 14.4568 29.5629 14.4054V12.5271C29.5629 12.4756 29.5898 12.4287 29.6345 12.403L31.2612 11.4638C31.306 11.4381 31.3596 11.4381 31.4044 11.4638L33.0311 12.403C33.0747 12.4287 33.1027 12.4756 33.1027 12.5271V14.4054Z"
            fill="#FAFAFA" />
        <path fill-rule="evenodd" clip-rule="evenodd"
            d="M49.3174 12.4787C49.4941 12.3759 49.6025 12.188 49.6025 11.9846V10.6597C49.6025 10.4562 49.4941 10.2672 49.3174 10.1644L44.6105 7.43188C44.4338 7.32902 44.2147 7.32902 44.0369 7.43188L39.3009 10.1655C39.1242 10.2672 39.0146 10.4562 39.0146 10.6608V16.128C39.0146 16.3338 39.1253 16.5238 39.3031 16.6256L44.009 19.3078C44.1823 19.4073 44.3947 19.4084 44.5702 19.3111L47.4168 17.7291C47.5073 17.6788 47.5632 17.5837 47.5643 17.4809C47.5643 17.378 47.5107 17.2819 47.4212 17.2304L42.655 14.4957C42.5656 14.4443 42.5108 14.3503 42.5108 14.2475V12.5335C42.5108 12.4318 42.5656 12.3367 42.6539 12.2853L44.1375 11.43C44.2259 11.3786 44.3343 11.3786 44.4226 11.43L45.9063 12.2853C45.9946 12.3367 46.0494 12.4307 46.0494 12.5335V13.8819C46.0494 13.9847 46.1042 14.0787 46.1925 14.1301C46.2808 14.1815 46.3904 14.1804 46.4787 14.1301L49.3152 12.481L49.3174 12.4787Z"
            fill="#FAFAFA" />
        <path fill-rule="evenodd" clip-rule="evenodd"
            d="M44.2532 12.2229C44.2867 12.2027 44.3292 12.2027 44.3627 12.2229L45.2717 12.7472C45.3052 12.7673 45.3265 12.8031 45.3265 12.8423V13.8921C45.3265 13.9312 45.3052 13.967 45.2717 13.9871L44.3627 14.5115C44.3292 14.5316 44.2867 14.5316 44.2532 14.5115L43.3453 13.9871C43.3118 13.967 43.2905 13.9312 43.2905 13.8921V12.8423C43.2905 12.8031 43.3118 12.7673 43.3453 12.7472L44.2532 12.2229Z"
            fill="#FAFAFA" />
        <path fill-rule="evenodd" clip-rule="evenodd"
            d="M18.6807 7.45875C18.5052 7.35701 18.2883 7.35701 18.1116 7.45875L13.4013 10.1767C13.2247 10.2785 13.1162 10.4663 13.1162 10.6698V16.1113C13.1162 16.3148 13.2247 16.5026 13.4002 16.6044L18.1105 19.3246C18.2872 19.4263 18.5041 19.4263 18.6796 19.3246L23.3888 16.6044C23.5643 16.5026 23.6728 16.3148 23.6728 16.1113V10.6698C23.6728 10.4663 23.5643 10.2785 23.3877 10.1767L18.6785 7.45875H18.6807Z"
            fill="url(#paint0_linear_1315_19530)" />
        <path
            d="M13.3827 10.1768C13.2061 10.2785 13.0786 10.4664 13.0786 10.6698V16.1114C13.0786 16.3149 13.2083 16.5027 13.3838 16.6044L18.1154 19.3246C18.2272 19.3884 18.3558 19.4118 18.4799 19.3951L13.4107 10.1611L13.3827 10.1779V10.1768Z"
            fill="#D9D9D9" />
        <path
            d="M18.1031 7.45876L13.3827 10.1767C13.2061 10.2785 13.0786 10.4663 13.0786 10.6698V16.1113C13.0786 16.2455 13.1356 16.3729 13.2251 16.4736L18.5291 7.40062C18.3871 7.36597 18.2328 7.38497 18.1031 7.45988V7.45876Z"
            fill="#FAFAFA" />
        <path
            d="M18.5547 19.3795C18.6005 19.3672 18.6452 19.3482 18.6877 19.3247L23.4037 16.6045C23.5792 16.5028 23.6999 16.315 23.6999 16.1115V10.6699C23.6999 10.5201 23.6329 10.3792 23.5278 10.2753L18.5558 19.3806L18.5547 19.3795Z"
            fill="#FAFAFA" />
        <path
            d="M23.6985 16.1113V10.6698C23.6985 10.4663 23.5755 10.2785 23.4 10.1767L18.6762 7.45875C18.6214 7.42744 18.5633 7.40732 18.5029 7.39502L23.6817 16.2421C23.6929 16.1996 23.6996 16.156 23.6996 16.1113H23.6985Z"
            fill="#D9D9D9" />
        <path
            d="M23.3833 16.6044C23.5205 16.5251 23.6221 16.3931 23.6611 16.2422L18.4929 7.39509C18.3579 7.36826 18.2151 7.38838 18.0935 7.45882L13.4106 10.1611L18.4695 19.3951C18.542 19.385 18.6123 19.3615 18.677 19.3246L23.3833 16.6044Z"
            fill="#C5C5C5" fill-opacity="0.2" />
        <path
            d="M23.4004 10.1765L18.6767 7.45855C18.6297 7.43172 18.5805 7.41271 18.5291 7.39929L13.2251 16.4722C13.2709 16.5237 13.3246 16.5684 13.3839 16.603L18.1154 19.3232C18.2496 19.4004 18.4084 19.4183 18.5548 19.378L23.5127 10.2732C23.4747 10.2352 23.4463 10.2022 23.4004 10.1754V10.1765Z"
            fill="#C5C5C5" fill-opacity="0.2" />
    </g>
    <defs>
        <linearGradient id="paint0_linear_1315_19530" x1="12.6439" y1="13.3912" x2="23.8371" y2="13.3912"
            gradientUnits="userSpaceOnUse">
            <stop offset="0.09" stop-color="#E8E8E8" stop-opacity="0.47" />
            <stop offset="1" stop-color="#FAFAFA" />
        </linearGradient>
        <clipPath id="clip0_1315_19530">
            <rect width="49.459" height="30.2912" fill="white" transform="translate(0.142578 0.460938)" />
        </clipPath>
    </defs>
</svg>