<svg width="32" height="33" viewBox="0 0 32 33" fill="none" xmlns="http://www.w3.org/2000/svg">
    <path
        d="M23.3413 18.6019H31.667C31.6654 18.643 31.6644 18.6835 31.6623 18.724C31.6591 18.8023 31.6533 18.8802 31.6486 18.9585C31.6465 18.9922 31.6449 19.0259 31.6423 19.059C31.636 19.1495 31.6281 19.2399 31.6197 19.3299C31.6176 19.3504 31.616 19.3709 31.6139 19.3904C31.6044 19.4908 31.5934 19.5913 31.5818 19.6907C31.5813 19.7002 31.5802 19.7102 31.5786 19.7196C31.5655 19.8269 31.5518 19.9348 31.536 20.0415C31.536 20.0431 31.536 20.0447 31.5355 20.0457C31.4395 20.7109 31.2957 21.3683 31.1052 22.0129C31.1042 22.0155 31.1031 22.0181 31.1026 22.0208C31.0726 22.1228 31.0411 22.2238 31.009 22.3243C31.0069 22.33 31.0048 22.3364 31.0032 22.3421C31.0016 22.3479 30.9995 22.3537 30.9974 22.36C30.968 22.451 30.9369 22.5415 30.9059 22.6325C30.898 22.6551 30.8901 22.6782 30.8817 22.7014C30.8538 22.7798 30.8254 22.8581 30.796 22.937C30.7823 22.9723 30.7692 23.0075 30.756 23.0433C30.7302 23.1085 30.7055 23.1732 30.6797 23.2379C30.6603 23.2868 30.6403 23.3357 30.6198 23.3841C30.5987 23.4351 30.5777 23.4851 30.5561 23.5361C30.5298 23.5982 30.502 23.6597 30.4746 23.7218C30.4583 23.7586 30.4415 23.7949 30.4252 23.8317C30.3915 23.9059 30.3568 23.98 30.3215 24.0537C30.31 24.0773 30.2989 24.101 30.2874 24.1242C30.2463 24.2094 30.2048 24.293 30.1627 24.3766C30.1553 24.3892 30.1496 24.4024 30.1427 24.415C30.0954 24.5076 30.047 24.5996 29.997 24.6912C29.9949 24.6954 29.9923 24.699 29.9907 24.7038C29.9802 24.7227 29.9686 24.7411 29.9581 24.7601L22.8474 20.477L22.8211 20.4613C23.1015 19.8701 23.2761 19.241 23.3413 18.6019Z"
        fill="white" />
    <path
        d="M21.2951 22.4243L21.3151 22.4443L27.1797 28.3084C27.1497 28.3363 27.1197 28.3652 27.0887 28.392C27.034 28.442 26.9782 28.4909 26.923 28.5398C26.8941 28.5651 26.8662 28.5903 26.8373 28.6156C26.771 28.6729 26.7037 28.7287 26.6369 28.7849C26.6185 28.8002 26.6011 28.8149 26.5827 28.8302C26.4975 28.9003 26.4114 28.9694 26.3245 29.0374C26.2413 29.1032 26.1577 29.1668 26.0725 29.231C26.0688 29.2331 26.0662 29.2352 26.063 29.2378C25.7092 29.5022 25.3431 29.7497 24.9659 29.9794C24.9532 29.9879 24.9401 29.9952 24.9269 30.0036C24.8549 30.0462 24.7833 30.0888 24.7108 30.1309L24.5782 30.2067C24.5361 30.2309 24.4946 30.254 24.4525 30.2771C24.3762 30.3187 24.3 30.3602 24.2232 30.4007C24.2127 30.4065 24.2021 30.4123 24.1911 30.4176C23.9781 30.5291 23.7614 30.6327 23.5426 30.7326L23.3343 30.2272L20.3846 23.065L20.3741 23.0387C20.696 22.8661 21.0047 22.6621 21.2951 22.4243Z"
        fill="white" />
    <path
        d="M21.9056 21.8402C21.9686 21.7701 22.0296 21.6982 22.0886 21.6246C22.1412 21.5599 22.1917 21.4947 22.2406 21.4284C22.2969 21.3527 22.3516 21.2759 22.4037 21.198C22.4557 21.1197 22.5073 21.0408 22.5557 20.9608L29.6753 25.2491C29.5659 25.4311 29.4523 25.6078 29.3355 25.7824C29.3318 25.7887 29.3281 25.7951 29.3239 25.8008C29.3229 25.8035 29.3213 25.8051 29.3197 25.8077C29.3161 25.8129 29.3124 25.8193 29.3087 25.825C29.3082 25.8256 29.3076 25.8261 29.3076 25.8271C29.2982 25.8408 29.2887 25.8545 29.2792 25.8687C29.2787 25.8692 29.2782 25.8703 29.2771 25.8713C29.2761 25.8724 29.2766 25.8719 29.2766 25.8724C29.153 26.0549 29.0257 26.2348 28.8947 26.4105C28.8921 26.4141 28.889 26.4178 28.8863 26.4215C28.8832 26.4252 28.8805 26.4289 28.8779 26.4325C28.8206 26.5078 28.7638 26.583 28.7049 26.6577C28.697 26.6677 28.6896 26.6771 28.6812 26.6866C28.6212 26.7639 28.5597 26.8402 28.4971 26.9154C28.4824 26.9333 28.4671 26.9512 28.4524 26.9696C28.3961 27.0369 28.3398 27.1037 28.2825 27.17C28.2578 27.1984 28.2325 27.2273 28.2073 27.2552C28.1584 27.3109 28.11 27.3667 28.06 27.4214C28.0327 27.4514 28.0043 27.4819 27.9764 27.5118C27.9638 27.526 27.9511 27.5392 27.938 27.5534C27.9017 27.5928 27.8654 27.6323 27.8286 27.6712C27.8139 27.6865 27.7981 27.7017 27.7834 27.7175C27.7187 27.7848 27.6529 27.8527 27.5866 27.919L21.7131 22.0464C21.7804 21.9791 21.8435 21.9097 21.9056 21.8402Z"
        fill="white" fill-opacity="0.6" />
    <path
        d="M14.1207 22.4211C14.1854 22.4732 14.2506 22.5242 14.3169 22.5731L14.3027 22.5979L10.0202 29.7054C9.8219 29.576 9.62571 29.4424 9.43426 29.302C9.01979 28.9964 8.619 28.665 8.23241 28.3084L14.0976 22.4443L14.1207 22.4211Z"
        fill="white" />
    <path
        d="M10.6424 29.7639L10.7876 29.5225L14.785 22.8883C14.866 22.9367 14.9486 22.9809 15.0312 23.0251C15.1148 23.0703 15.1984 23.1119 15.2837 23.1524C16.0516 23.5163 16.8826 23.7025 17.7152 23.7025C18.2607 23.7025 18.8056 23.6236 19.3326 23.4664C19.4226 23.4395 19.5104 23.4043 19.5988 23.3727C19.6876 23.3417 19.7776 23.3144 19.8649 23.2786L22.8125 30.4361L22.9277 30.7164L23.0265 30.9568L23.0271 30.9578C23.0197 30.961 23.0118 30.9636 23.0045 30.9668C22.996 30.9699 22.9881 30.9726 22.9803 30.9763H22.9792C22.9771 30.9773 22.975 30.9778 22.9734 30.9784C22.904 31.0073 22.834 31.0315 22.7641 31.0588C22.6762 31.093 22.5889 31.1277 22.5011 31.1598C22.4559 31.1761 22.4117 31.1951 22.367 31.2108H22.3664C21.4427 31.5369 20.4874 31.7655 19.5162 31.893C19.4778 31.8978 19.4404 31.903 19.402 31.9083C19.3626 31.913 19.3226 31.9167 19.2826 31.9214C19.208 31.9298 19.1333 31.9383 19.0581 31.9456L19.0023 31.9504C18.9103 31.9593 18.8182 31.9672 18.7267 31.9735C18.6951 31.9761 18.6636 31.9772 18.6325 31.9798C18.5521 31.9851 18.4716 31.9898 18.3911 31.9935C18.3417 31.9966 18.2922 31.9977 18.2428 31.9998C18.1786 32.0019 18.115 32.0045 18.0508 32.0066C17.9588 32.0087 17.8657 32.0093 17.7731 32.0098C17.751 32.0098 17.7294 32.0103 17.7073 32.0108C16.9315 32.0108 16.1557 31.9462 15.3883 31.8173C15.3757 31.8152 15.3626 31.8131 15.3494 31.8115C15.2684 31.7973 15.1874 31.782 15.1064 31.7673C15.0601 31.7584 15.0133 31.7494 14.9681 31.7405C14.9207 31.7305 14.8729 31.721 14.8255 31.7105C14.7466 31.6942 14.6677 31.6769 14.5883 31.6584C14.5741 31.6553 14.5599 31.6527 14.5457 31.6484C13.3791 31.377 12.2525 30.9563 11.1942 30.3993V30.3987C11.1248 30.3624 11.0569 30.3209 10.988 30.283C10.906 30.2383 10.8244 30.1915 10.7424 30.1447C10.6861 30.1126 10.6288 30.0826 10.5725 30.049C10.572 30.0484 10.5714 30.0479 10.5709 30.0479H10.5704C10.5693 30.0474 10.5688 30.0469 10.5678 30.0463L10.5667 30.0453L10.5772 30.0279L10.5667 30.0453C10.5662 30.0453 10.5656 30.0447 10.5651 30.0447C10.5641 30.0442 10.5635 30.0437 10.5625 30.0432C10.5593 30.0411 10.5562 30.0395 10.553 30.0374C10.5351 30.0263 10.5167 30.0158 10.4983 30.0048L10.6424 29.7639ZM21.2919 13.6574C21.2272 13.6048 21.1614 13.5544 21.0957 13.5049L21.1099 13.4807L25.3924 6.37268C25.5912 6.5026 25.7874 6.63672 25.9794 6.77716C26.3933 7.08222 26.7946 7.41306 27.1802 7.76915L21.315 13.6338L21.2919 13.6574Z"
        fill="white" />
    <path
        d="M27.5865 8.16007C27.6533 8.22687 27.7165 8.29577 27.7817 8.3631C27.8464 8.43095 27.9126 8.49828 27.9763 8.56665C28.4045 9.02958 28.8009 9.52091 29.1629 10.0373C29.1802 10.061 29.1971 10.0862 29.2144 10.1104C29.2544 10.1693 29.2944 10.2277 29.3333 10.2866C29.3743 10.3476 29.4148 10.4097 29.4543 10.4712C29.469 10.4938 29.4837 10.517 29.4979 10.5396C30.8471 12.6556 31.5698 15.0556 31.6671 17.4756C31.6707 17.5698 31.6728 17.6639 31.675 17.7576C31.6765 17.8512 31.6797 17.9453 31.6797 18.039H23.3729C23.3729 17.9453 23.3645 17.8517 23.3593 17.7576C23.3545 17.6634 23.3535 17.5693 23.344 17.4756C23.2367 16.3942 22.8191 15.3381 22.0911 14.4513C22.0322 14.3792 21.9654 14.3114 21.9018 14.2419C21.8392 14.172 21.7803 14.0999 21.713 14.0326L27.5865 8.16007ZM10.4476 6.09825C10.4587 6.09141 10.4708 6.08457 10.4818 6.07773C10.5549 6.03303 10.6286 5.9899 10.7027 5.94677C10.7453 5.92205 10.7884 5.89785 10.8311 5.87366C10.8747 5.84946 10.9173 5.82527 10.961 5.8016C11.0361 5.76072 11.1113 5.72004 11.1866 5.67957C11.1987 5.67379 11.2103 5.66747 11.2224 5.66116C11.7094 5.40659 12.2096 5.18252 12.7204 4.98791C12.7335 4.98265 12.7467 4.97739 12.7598 4.97266C12.8713 4.93111 12.9828 4.88956 13.0954 4.85063C14.0031 4.53402 14.9409 4.31141 15.8941 4.18633L16.0109 4.17055C16.0503 4.16581 16.0892 4.16213 16.1282 4.15792C16.2034 4.14898 16.2781 4.14057 16.3538 4.1332C16.3743 4.1311 16.3954 4.13005 16.4169 4.12742C16.5058 4.11953 16.5957 4.11164 16.6852 4.1048L16.7898 4.09849C16.8661 4.09375 16.9439 4.08797 17.0202 4.08481C17.0612 4.08271 17.1023 4.08113 17.1428 4.08008V12.4058C16.7157 12.4499 16.2923 12.5409 15.8815 12.6803L9.75333 6.55322C9.98107 6.39542 10.2109 6.24184 10.4476 6.09825Z"
        fill="white" />
    <path
        d="M17.9874 4.07292C18.0815 4.07503 18.1757 4.07503 18.2693 4.07871C18.8568 4.10238 19.4433 4.16234 20.025 4.26017C20.0376 4.26228 20.0502 4.26438 20.0634 4.26648C20.1449 4.28068 20.2259 4.29541 20.3069 4.31067C20.3527 4.31961 20.399 4.32802 20.4453 4.33696C20.4931 4.34643 20.5405 4.35643 20.5883 4.36695C20.6672 4.38325 20.7461 4.40061 20.8245 4.41902C20.8392 4.42165 20.8534 4.42533 20.8676 4.42848C22.0336 4.70071 23.16 5.12068 24.2197 5.6782C24.2886 5.71502 24.3559 5.75657 24.4248 5.79392C24.5068 5.83915 24.5889 5.88544 24.6704 5.93225C24.7309 5.96749 24.7924 5.99957 24.8529 6.03534C24.8535 6.03587 24.8545 6.03639 24.855 6.03639C24.8592 6.03902 24.8635 6.04165 24.8677 6.04376C24.8834 6.05375 24.8997 6.06164 24.9155 6.07111L24.915 6.07216L24.7693 6.31358L20.6272 13.1897C20.5462 13.1413 20.4637 13.0966 20.3811 13.0524C20.298 13.0077 20.2138 12.9656 20.1291 12.9256C19.5438 12.6462 18.9146 12.4699 18.2693 12.4044C18.1757 12.3949 18.082 12.387 17.9879 12.3823C17.8943 12.3776 17.8001 12.3728 17.706 12.3728V4.06714C17.8001 4.06714 17.8937 4.07135 17.9874 4.07292Z"
        fill="white" fill-opacity="0.6" />
    <path
        d="M3.74968 17.3525C3.75389 17.2778 3.7581 17.2036 3.76336 17.1284C3.76529 17.0912 3.76774 17.054 3.77072 17.0169C3.7765 16.929 3.78387 16.8412 3.79228 16.7534C3.79386 16.7308 3.79597 16.7081 3.79807 16.6855C3.80754 16.5872 3.81806 16.4893 3.82963 16.3915C3.83068 16.3836 3.83121 16.3757 3.83226 16.3678L3.83384 16.3568C3.84646 16.2511 3.86066 16.1453 3.87539 16.0401L3.87697 16.0302C3.97286 15.3662 4.11629 14.7101 4.30616 14.0667C4.30774 14.0619 4.30879 14.0583 4.31037 14.0541C4.34035 13.9536 4.37138 13.8542 4.40242 13.7548C4.40715 13.7416 4.41136 13.7285 4.41556 13.7153C4.44502 13.6254 4.475 13.536 4.50603 13.4466L4.53128 13.374C4.55863 13.2967 4.58703 13.2193 4.61543 13.142C4.62964 13.1052 4.64331 13.0684 4.65804 13.0321C4.68223 12.9679 4.70696 12.9043 4.73273 12.8412C4.75272 12.7901 4.77323 12.7402 4.79374 12.6907C4.81425 12.6408 4.83529 12.5918 4.85581 12.5424C4.88316 12.4793 4.91103 12.4162 4.93891 12.3536C4.95469 12.3183 4.97047 12.2826 4.98678 12.2468C5.02096 12.1721 5.0562 12.0969 5.09144 12.0222C5.10249 12.0001 5.11353 11.977 5.12458 11.9544C5.16561 11.8692 5.20768 11.7834 5.25081 11.6993C5.2566 11.6877 5.26291 11.6756 5.2687 11.664C5.31656 11.5709 5.366 11.4773 5.41545 11.3853C5.41755 11.3821 5.41913 11.3784 5.42123 11.3753C5.66275 10.9314 5.92805 10.5009 6.21598 10.0856L12.3457 16.2153C12.2063 16.6261 12.1159 17.0495 12.0717 17.4761H3.74442C3.74652 17.4345 3.74758 17.393 3.74968 17.3525Z"
        fill="white" />
    <path
        d="M12.0392 18.0388C12.0392 18.133 12.0482 18.2266 12.0529 18.3207C12.0576 18.4149 12.0592 18.509 12.0687 18.6021C12.176 19.6841 12.5931 20.7402 13.321 21.6276C13.38 21.6996 13.4468 21.7669 13.5104 21.8369C13.5735 21.9063 13.6319 21.9784 13.6992 22.0457L7.82565 27.9182C7.75885 27.8514 7.69626 27.7825 7.63104 27.7147C7.56581 27.6468 7.49954 27.58 7.43643 27.5111C7.00197 27.0404 6.60433 26.5481 6.24667 26.0363C6.23194 26.0158 6.21879 25.9958 6.20459 25.9758C6.16093 25.9132 6.11886 25.8496 6.07573 25.7864C6.03838 25.7296 6.00104 25.6734 5.96475 25.616C5.94634 25.5887 5.92845 25.5603 5.9111 25.5329C4.56407 23.418 3.84296 21.0206 3.74618 18.6021C3.7425 18.5085 3.74039 18.4144 3.73882 18.3202C3.73671 18.2266 3.73408 18.133 3.73408 18.0388H12.0392Z"
        fill="white" fill-opacity="0.6" />
    <path
        d="M1.26639 1.6006C2.78593 0.0810515 5.2496 0.0810515 6.76915 1.6006C7.98152 2.81244 8.224 4.62443 7.50183 6.07928L15.9785 14.5554C17.4333 13.8337 19.2458 14.0757 20.4582 15.2875C21.9777 16.8071 21.9772 19.2708 20.4582 20.7903C18.9381 22.3098 16.4739 22.3093 14.9544 20.7903C13.742 19.5779 13.5001 17.7659 14.2222 16.3111L5.7456 7.83551C4.29022 8.55715 2.47876 8.3152 1.26639 7.10283C-0.253157 5.58381 -0.253157 3.12014 1.26639 1.6006Z"
        fill="white" />
</svg>