<svg width="28" height="32" viewBox="0 0 28 32" fill="none" xmlns="http://www.w3.org/2000/svg">
  <path d="M13.5891 0.460938L27.0082 8.20848V23.7036L13.5891 31.4511L0.169922 23.7036V8.20848L13.5891 0.460938Z"
    fill="#FAFAFA" />
  <path
    d="M4.18241 23.1829C5.70866 25.172 11.1598 23.551 16.3578 19.5624C21.5559 15.5738 24.5324 10.728 23.0062 8.73894C21.4799 6.74989 16.0288 8.37085 10.8308 12.3595C5.63274 16.3481 2.65616 21.1939 4.18241 23.1829Z"
    stroke="#1D1D20" stroke-width="0.968443" />
  <path
    d="M22.9892 23.1799C24.5154 21.1909 21.5388 16.345 16.3408 12.3564C11.1427 8.36782 5.69163 6.74687 4.16538 8.73591C2.63913 10.725 5.6157 15.5708 10.8137 19.5594C16.0118 23.548 21.4629 25.169 22.9892 23.1799Z"
    stroke="#1D1D20" stroke-width="0.968443" />
</svg>