<svg width="29" height="32" viewBox="0 0 29 32" fill="none" xmlns="http://www.w3.org/2000/svg">
    <g clip-path="url(#clip0_965_29600)">
        <path
            d="M13.8511 1.8828C12.7077 1.88811 11.6157 1.98563 10.6549 2.15564C7.82458 2.65567 7.3107 3.70228 7.3107 5.6324V8.1815H13.9992V9.03121H7.3107H4.80057C2.85671 9.03121 1.15461 10.1996 0.62222 12.4222C0.00810972 14.9699 -0.0191294 16.5597 0.62222 19.2198C1.09766 21.2 2.23308 22.6108 4.17694 22.6108H6.47659V19.555C6.47659 17.3474 8.38669 15.4001 10.6549 15.4001H17.3356C19.1953 15.4001 20.6799 13.8689 20.6799 12.0013V5.6324C20.6799 3.81978 19.1507 2.45816 17.3356 2.15564C16.1866 1.96438 14.9945 1.87748 13.8511 1.8828ZM10.234 3.933C10.9249 3.933 11.489 4.5064 11.489 5.21145C11.489 5.91399 10.9249 6.4821 10.234 6.4821C9.54063 6.4821 8.97892 5.91399 8.97892 5.21145C8.97892 4.5064 9.54063 3.933 10.234 3.933Z"
            fill="#FAFAFA" />
        <path
            d="M21.5138 9.03125V12.0013C21.5138 14.304 19.5616 16.242 17.3355 16.242H10.6548C8.82484 16.242 7.31055 17.8082 7.31055 19.6408V26.0097C7.31055 27.8223 8.88674 28.8885 10.6548 29.4085C12.772 30.031 14.8023 30.1436 17.3355 29.4085C19.0193 28.921 20.6797 27.9398 20.6797 26.0097V23.4606H13.999V22.6109H20.6797H24.024C25.9678 22.6109 26.6922 21.255 27.3682 19.2199C28.0665 17.1247 28.0368 15.1099 27.3682 12.4223C26.8878 10.4871 25.9703 9.03125 24.024 9.03125H21.5138ZM17.7564 25.16C18.4498 25.16 19.0115 25.7281 19.0115 26.4307C19.0115 27.1357 18.4498 27.7091 17.7564 27.7091C17.0655 27.7091 16.5014 27.1357 16.5014 26.4307C16.5014 25.7281 17.0655 25.16 17.7564 25.16Z"
            fill="#FAFAFA" />
    </g>
    <defs>
        <clipPath id="clip0_965_29600">
            <rect width="28" height="31" fill="white" transform="translate(0.0947266 0.460938)" />
        </clipPath>
    </defs>
</svg>