<svg width="39" height="33" viewBox="0 0 39 33" fill="none" xmlns="http://www.w3.org/2000/svg">
    <g opacity="0.9" clip-path="url(#clip0_965_29677)">
        <path
            d="M19.1654 20.2739C20.9586 20.2739 22.4123 18.8595 22.4123 17.1148C22.4123 15.37 20.9586 13.9556 19.1654 13.9556C17.3722 13.9556 15.9185 15.37 15.9185 17.1148C15.9185 18.8595 17.3722 20.2739 19.1654 20.2739Z"
            fill="#FAFAFA" />
        <path fill-rule="evenodd" clip-rule="evenodd"
            d="M19.1652 10.6927C23.524 10.6927 27.5732 11.3013 30.6263 12.324C34.3049 13.5562 36.5666 15.4239 36.5666 17.1151C36.5666 18.8775 34.1696 20.8616 30.2194 22.1351C27.2328 23.0978 23.3028 23.6004 19.1652 23.6004C14.923 23.6004 10.9059 23.1287 7.88569 22.1245C4.06464 20.8538 1.76318 18.8439 1.76318 17.1151C1.76318 15.4376 3.92266 13.5843 7.54951 12.354C10.614 11.3145 14.7632 10.6927 19.1646 10.6927H19.1652Z"
            stroke="#FAFAFA" stroke-width="1.57814" />
        <path fill-rule="evenodd" clip-rule="evenodd"
            d="M13.419 13.9233C15.5966 10.2495 18.1612 7.14054 20.597 5.07809C23.5317 2.59315 26.3246 1.61997 27.8303 2.46476C29.3994 3.34519 29.9685 6.35683 29.1289 10.3224C28.4947 13.3207 26.9782 16.8841 24.9111 20.3715C22.7918 23.9471 20.365 27.0973 17.9624 29.1407C14.9222 31.7265 11.9829 32.6622 10.4437 31.7986C8.95013 30.9611 8.37897 28.2146 9.09548 24.543C9.70087 21.4408 11.2201 17.633 13.4183 13.9232L13.419 13.9233Z"
            stroke="#FAFAFA" stroke-width="1.57814" />
        <path fill-rule="evenodd" clip-rule="evenodd"
            d="M13.4237 20.3808C11.2399 16.7111 9.75314 12.9959 9.13254 9.91269C8.38549 6.1978 8.91368 3.35749 10.418 2.51025C11.9856 1.62724 14.9515 2.65154 18.0632 5.33986C20.4159 7.37234 22.8318 10.4297 24.9049 13.9139C27.0303 17.486 28.6233 21.105 29.243 24.1507C30.0271 28.0049 29.3925 30.9498 27.8547 31.816C26.3626 32.6564 23.6322 31.7666 20.7207 29.3289C18.2608 27.2693 15.629 24.0869 13.4237 20.3807V20.3808Z"
            stroke="#FAFAFA" stroke-width="1.57814" />
    </g>
    <defs>
        <clipPath id="clip0_965_29677">
            <rect width="38.3993" height="32.4917" fill="white" transform="translate(0.136719 0.460938)" />
        </clipPath>
    </defs>
</svg>