<svg width="27" height="32" viewBox="0 0 27 32" fill="none" xmlns="http://www.w3.org/2000/svg">
  <g clip-path="url(#clip0_965_29605)">
    <path
      d="M24.8952 4.57872C22.018 0.434589 16.2901 -0.779616 12.1724 1.83356L4.91358 6.47921C2.9339 7.71981 1.56132 9.75228 1.16538 12.0487C0.822239 13.9756 1.11259 15.9553 2.03644 17.671C1.40295 18.6213 0.980614 19.6771 0.795844 20.7857C0.373512 23.1349 0.927822 25.5633 2.3004 27.4902C5.20393 31.6344 10.9054 32.8486 15.0231 30.2354L22.282 25.6161C24.2617 24.3755 25.6342 22.3431 26.0302 20.0466C26.3733 18.1197 26.083 16.1401 25.1591 14.4243C25.7926 13.4741 26.2149 12.4183 26.3997 11.3096C26.8484 8.93402 26.2941 6.50561 24.8952 4.57872Z"
      fill="#FAFAFA" />
    <path
      d="M11.4593 27.8861C9.11008 28.4932 6.65528 27.5694 5.2827 25.5897C4.43803 24.4283 4.12129 22.9765 4.35885 21.5511C4.41164 21.3136 4.46443 21.1024 4.51722 20.8648L4.6492 20.4425L5.01874 20.7065C5.8898 21.34 6.84005 21.8151 7.86948 22.1318L8.13344 22.211L8.10704 22.475C8.08065 22.8445 8.18623 23.2405 8.3974 23.5572C8.81973 24.1643 9.55881 24.4547 10.2715 24.2699C10.4299 24.2171 10.5882 24.1643 10.7202 24.0851L17.9527 19.4659C18.3222 19.2283 18.5598 18.8852 18.6389 18.4628C18.7181 18.0405 18.6125 17.5918 18.375 17.2486C17.9527 16.6415 17.2136 16.3776 16.5009 16.5623C16.3425 16.6151 16.1841 16.6679 16.0522 16.7471L13.2806 18.5156C12.8319 18.806 12.3304 19.0171 11.8024 19.1491C9.45323 19.7562 6.99842 18.8324 5.62584 16.8527C4.80757 15.6913 4.46443 14.2395 4.72839 12.8141C4.96595 11.4416 5.81061 10.201 6.99842 9.46188L14.2572 4.84263C14.706 4.55228 15.2075 4.34111 15.7354 4.18274C18.0846 3.57564 20.5394 4.49949 21.912 6.47917C22.7567 7.64058 23.0734 9.09234 22.8359 10.5177C22.7831 10.7553 22.7303 10.9664 22.6511 11.204L22.5191 11.6263L22.1496 11.3624C21.2785 10.7289 20.3283 10.2538 19.2988 9.93701L19.0349 9.85782L19.0613 9.59386C19.0877 9.22432 18.9821 8.82839 18.7709 8.51164C18.3486 7.90454 17.6095 7.64058 16.8968 7.82535C16.7384 7.87814 16.5801 7.93093 16.4481 8.01012L9.21566 12.6294C8.84612 12.8669 8.60856 13.2101 8.52937 13.6324C8.45019 14.0547 8.55577 14.5035 8.79333 14.8466C9.21566 15.4537 9.95474 15.7177 10.6674 15.5329C10.8258 15.4801 10.9842 15.4273 11.1162 15.3481L13.8877 13.5796C14.3364 13.2893 14.838 13.0781 15.3659 12.9197C17.7151 12.3126 20.1699 13.2365 21.5425 15.2162C22.3871 16.3776 22.7039 17.8293 22.4663 19.2547C22.2288 20.6273 21.3841 21.8679 20.1963 22.607L12.9375 27.2262C12.4887 27.5166 11.9872 27.7277 11.4593 27.8861Z"
      fill="#1C1D20" />
  </g>
  <defs>
    <clipPath id="clip0_965_29605">
      <rect width="25.8942" height="31.147" fill="white" transform="translate(0.663574 0.460938)" />
    </clipPath>
  </defs>
</svg>