<svg width="33" height="32" viewBox="0 0 33 32" fill="none" xmlns="http://www.w3.org/2000/svg">
    <g clip-path="url(#clip0_1315_19586)">
        <path
            d="M29.0092 0.460938H3.98949C2.31255 0.460938 0.953125 1.82037 0.953125 3.4973V28.517C0.953125 30.1939 2.31255 31.5533 3.98949 31.5533H29.0092C30.6861 31.5533 32.0455 30.1939 32.0455 28.517V3.4973C32.0455 1.82037 30.6861 0.460938 29.0092 0.460938Z"
            fill="#FAFAFA" />
        <path fill-rule="evenodd" clip-rule="evenodd"
            d="M20.2039 25.1769V28.2133C20.6958 28.4684 21.297 28.6566 21.965 28.7841C22.633 28.9117 23.3617 28.9724 24.0904 28.9724C24.8192 28.9724 25.4872 28.9056 26.1552 28.7659C26.8232 28.6262 27.3697 28.3955 27.8555 28.0979C28.3474 27.7761 28.7664 27.3692 29.0093 26.8226C29.2523 26.2761 29.4405 25.6688 29.4405 24.8794C29.4405 24.3268 29.3555 23.847 29.1915 23.4219C29.0276 22.9968 28.7907 22.6325 28.4628 22.3288C28.1531 22.007 27.7948 21.7215 27.3697 21.4786C26.9446 21.2357 26.4588 20.9807 25.9123 20.7499C25.5114 20.5859 25.1835 20.4281 24.8192 20.2702C24.5034 20.1123 24.2301 19.9544 24.0297 19.7965C23.805 19.6325 23.635 19.4625 23.5135 19.2864C23.3921 19.1042 23.3313 18.9038 23.3313 18.6791C23.3313 18.4726 23.3854 18.2844 23.4953 18.1143C23.6052 17.9443 23.7564 17.8046 23.9508 17.6832C24.1451 17.5617 24.388 17.4706 24.6795 17.4038C24.9649 17.337 25.2807 17.3067 25.6511 17.3067C25.9062 17.3067 26.1734 17.3255 26.4406 17.3638C26.7199 17.402 27.0053 17.4609 27.2908 17.5399C27.5762 17.6188 27.8555 17.716 28.1409 17.8374C28.4081 17.9589 28.6571 18.0986 28.8697 18.2564V15.4023C28.4081 15.2262 27.898 15.0926 27.3515 15.0075C26.8049 14.9225 26.1977 14.88 25.4689 14.88C24.7402 14.88 24.0722 14.959 23.4042 15.1108C22.7362 15.2626 22.1897 15.5055 21.7038 15.8395C21.212 16.1674 20.8537 16.5682 20.55 17.1148C20.2646 17.6249 20.1249 18.2079 20.1249 18.9366C20.1249 19.8475 20.3861 20.637 20.9144 21.2442C21.4366 21.9122 22.2504 22.398 23.2828 22.8839C23.7018 23.0539 24.0722 23.2239 24.4366 23.3879C24.8009 23.5519 25.1046 23.7219 25.3475 23.898C25.6086 24.0741 25.8151 24.2685 25.9548 24.4749C26.1066 24.6814 26.1855 24.9243 26.1855 25.2037C26.1855 25.398 26.1382 25.5802 26.0459 25.7502C25.9535 25.9202 25.809 26.066 25.6147 26.1874C25.4204 26.3089 25.1835 26.4061 24.886 26.4789C24.6005 26.5457 24.2787 26.5822 23.8536 26.5822C23.1856 26.5822 22.5176 26.4668 21.9103 26.236C21.2423 26.0053 20.635 25.6591 20.0885 25.2037L20.2039 25.1769ZM15.1028 17.7075H18.9893V15.2176H8.11914V17.7075H12.0057V28.8206H15.1028V17.7075Z"
            fill="#1A1B1E" />
    </g>
    <defs>
        <clipPath id="clip0_1315_19586">
            <rect width="31.0924" height="31.0924" fill="white" transform="translate(0.953125 0.460938)" />
        </clipPath>
    </defs>
</svg>