<svg width="25" height="24" viewBox="0 0 25 24" fill="none" xmlns="http://www.w3.org/2000/svg">
    <path
        d="M4.5 12C4.5 16.4183 8.08172 20 12.5 20C16.9183 20 20.5 16.4183 20.5 12C20.5 7.58172 16.9183 4 12.5 4C8.08172 4 4.5 7.58172 4.5 12Z"
        stroke="#90143A" stroke-linecap="round" stroke-linejoin="round" />
    <path
        d="M12.2732 8.46026L12.5 13.2818L12.7265 8.46223C12.7279 8.43142 12.723 8.40065 12.7121 8.3718C12.7012 8.34294 12.6845 8.31662 12.6631 8.29442C12.6417 8.27223 12.616 8.25464 12.5875 8.24272C12.5591 8.2308 12.5285 8.22481 12.4976 8.22511C12.4673 8.2254 12.4374 8.23177 12.4096 8.24383C12.3818 8.25588 12.3567 8.27339 12.3358 8.29531C12.3148 8.31723 12.2985 8.34312 12.2878 8.37145C12.277 8.39978 12.2721 8.42998 12.2732 8.46026Z"
        fill="#90143A" stroke="#90143A" stroke-width="0.5" stroke-linecap="round" stroke-linejoin="round" />
    <path fill-rule="evenodd" clip-rule="evenodd"
        d="M12.4965 8.10011C12.5443 8.09965 12.5918 8.10894 12.6359 8.12743C12.68 8.14591 12.7199 8.1732 12.7531 8.20762C12.7863 8.24205 12.8122 8.28288 12.8291 8.32763C12.846 8.37238 12.8536 8.42011 12.8514 8.4679L12.625 13.2877C12.6218 13.3544 12.5668 13.4068 12.5001 13.4068C12.4333 13.4068 12.3784 13.3544 12.3752 13.2877L12.1484 8.46613L12.2732 8.46026L12.1483 8.46484C12.1466 8.41787 12.1543 8.37103 12.171 8.32709C12.1877 8.28315 12.213 8.24299 12.2454 8.20899C12.2779 8.175 12.3168 8.14785 12.3599 8.12915C12.4031 8.11045 12.4495 8.10057 12.4965 8.10011ZM12.4989 8.3501C12.4853 8.35024 12.4719 8.35309 12.4594 8.35851C12.4469 8.36392 12.4357 8.37178 12.4263 8.38162C12.4169 8.39146 12.4095 8.40308 12.4047 8.4158C12.3999 8.42836 12.3977 8.44174 12.3981 8.45516L12.3982 8.45568L12.5 10.6203L12.6017 8.45657C12.6023 8.44276 12.6001 8.42889 12.5952 8.41596C12.5903 8.40301 12.5828 8.39119 12.5732 8.38122C12.5636 8.37126 12.5521 8.36336 12.5393 8.35801C12.5265 8.35266 12.5128 8.34997 12.4989 8.3501Z"
        fill="#90143A" />
    <path
        d="M12.4965 8.10011C12.5443 8.09965 12.5918 8.10894 12.6359 8.12743C12.68 8.14591 12.7199 8.1732 12.7531 8.20762C12.7863 8.24205 12.8122 8.28288 12.8291 8.32763C12.846 8.37238 12.8536 8.42011 12.8514 8.4679L12.625 13.2877C12.6218 13.3544 12.5668 13.4068 12.5001 13.4068C12.4333 13.4068 12.3784 13.3544 12.3752 13.2877L12.1484 8.46613L12.2732 8.46026L12.1483 8.46484C12.1466 8.41787 12.1543 8.37103 12.171 8.32709C12.1877 8.28315 12.213 8.24299 12.2454 8.20899C12.2779 8.175 12.3168 8.14785 12.3599 8.12915C12.4031 8.11045 12.4495 8.10057 12.4965 8.10011ZM12.4965 8.10011L12.4977 8.22529M12.6017 8.45657L12.5 10.6203L12.3982 8.45568L12.3981 8.45516C12.3977 8.44174 12.3999 8.42836 12.4047 8.4158C12.4095 8.40308 12.4169 8.39146 12.4263 8.38162C12.4357 8.37178 12.4469 8.36392 12.4594 8.35851C12.4719 8.35309 12.4853 8.35024 12.4989 8.3501C12.5128 8.34997 12.5265 8.35266 12.5393 8.35801C12.5521 8.36336 12.5636 8.37126 12.5732 8.38122C12.5828 8.39119 12.5903 8.40301 12.5952 8.41596C12.6001 8.42889 12.6023 8.44276 12.6017 8.45657ZM12.6017 8.45657V8.45657Z"
        stroke="#90143A" stroke-width="0.5" stroke-linecap="round" stroke-linejoin="round" />
    <path
        d="M12.5001 15.275C12.4309 15.275 12.3632 15.2544 12.3056 15.216C12.2481 15.1775 12.2032 15.1228 12.1767 15.0589C12.1502 14.9949 12.1433 14.9246 12.1568 14.8567C12.1703 14.7888 12.2036 14.7264 12.2526 14.6775C12.3015 14.6285 12.3639 14.5952 12.4318 14.5817C12.4997 14.5682 12.5701 14.5751 12.634 14.6016C12.698 14.6281 12.7526 14.6729 12.7911 14.7305C12.8296 14.7881 12.8501 14.8557 12.8501 14.925C12.8501 15.0178 12.8132 15.1068 12.7476 15.1724C12.6819 15.2381 12.5929 15.275 12.5001 15.275Z"
        fill="#90143A" stroke="#90143A" stroke-width="0.5" />
</svg>