<?xml version="1.0" encoding="utf-8"?>
<!-- Generator: Adobe Illustrator 26.3.1, SVG Export Plug-In . SVG Version: 6.00 Build 0)  -->
<svg version="1.1" id="Layer_1" xmlns="http://www.w3.org/2000/svg" xmlns:xlink="http://www.w3.org/1999/xlink" x="0px"
    y="0px" viewBox="0 0 435.1 398.7" style="enable-background:new 0 0 435.1 398.7;" xml:space="preserve">
    <style type="text/css">
        .st0 {
            fill-rule: evenodd;
            clip-rule: evenodd;
            fill: #434344;
        }

        .st1 {
            fill: none;
            stroke: #AEAEAE;
            stroke-opacity: 0.2;
        }

        .st2 {
            fill: none;
            stroke: #FFFFFF;
            stroke-width: 1.6;
        }

        .st3 {
            fill: none;
            stroke: #FAFAFA;
            stroke-width: 1.6;
        }

        .st4 {
            fill: none;
            stroke: #B9B9B9;
            stroke-width: 1.6;
        }

        .st5 {
            fill: #FAFAFA;
        }

        .st6 {
            fill: #E8E8E8;
        }
    </style>
    <path class="st0" d="M43.7,106.3c3.3,0,6.3,1.6,8.1,4.3l14.4,21.6c1,1.4,3.1,1.4,4.1,0l14.4-21.6c1.8-2.7,4.9-4.3,8.1-4.3h33.4
	c5.3,0,9.7-4.3,9.7-9.7V9.8c0-5.3-4.3-9.7-9.7-9.7H10.3c-5.3,0-9.7,4.3-9.7,9.7v86.9c0,5.3,4.3,9.7,9.7,9.7
	C10.3,106.3,43.7,106.3,43.7,106.3z" />
    <path class="st1" d="M52.2,110.4c-1.9-2.8-5.1-4.6-8.5-4.6H10.3c-5.1,0-9.2-4.1-9.2-9.2V9.8c0-5.1,4.1-9.2,9.2-9.2h115.9
	c5.1,0,9.2,4.1,9.2,9.2v86.9c0,5.1-4.1,9.2-9.2,9.2H92.8c-3.4,0-6.6,1.7-8.5,4.6L69.8,132c-0.8,1.1-2.5,1.1-3.2,0
	C66.6,132,52.2,110.4,52.2,110.4z" />
    <g>
        <path class="st2" d="M44.1,67.8h48.3 M34.4,38.8H102" />
    </g>
    <path class="st3" d="M388.8,347.2c24.4,0,44.2-19.8,44.2-44.2v-44.2c0-24.4-19.8-44.2-44.2-44.2c-12.2,0-22.1,9.9-22.1,22.1V325
	C366.7,337.3,376.6,347.2,388.8,347.2z M388.8,347.2c0,24.4-19.8,44.2-44.2,44.2h-55.3 M433,291.9v-55.3
	c0-85.5-69.3-154.8-154.8-154.8s-154.8,69.3-154.8,154.8v55.3 M167.7,347.2c12.2,0,22.1-9.9,22.1-22.1v-88.4
	c0-12.2-9.9-22.1-22.1-22.1c-24.4,0-44.2,19.8-44.2,44.2v44.2C123.4,327.4,143.2,347.2,167.7,347.2z" />
    <path class="st4" d="M388.8,347.2c0,24.4-19.8,44.2-44.2,44.2h-55.3" />
    <g>
        <path class="st5" d="M281.8,398.7c4.2,0,7.6-3.4,7.6-7.6c0-4.2-3.4-7.6-7.6-7.6c-4.2,0-7.6,3.4-7.6,7.6
		C274.2,395.3,277.6,398.7,281.8,398.7z" />
    </g>
    <g>
        <path class="st6" d="M433,257.5c0-25.2-20.4-45.6-45.6-45.6c-12.6,0-22.8,10.2-22.8,22.8v91.2c0,12.6,10.2,22.8,22.8,22.8
		c25.2,0,45.6-20.4,45.6-45.6V257.5z" />
        <path class="st3" d="M433,257.5c0-25.2-20.4-45.6-45.6-45.6c-12.6,0-22.8,10.2-22.8,22.8v91.2c0,12.6,10.2,22.8,22.8,22.8
		c25.2,0,45.6-20.4,45.6-45.6V257.5z" />
    </g>
    <g>
        <path class="st6" d="M123.7,303.2c0,25,20.7,45.3,46.2,45.3c12.8,0,23.1-10.1,23.1-22.6v-90.6c0-12.5-10.3-22.6-23.1-22.6
		c-25.5,0-46.2,20.3-46.2,45.3V303.2z" />
        <path class="st3" d="M123.7,303.2c0,25,20.7,45.3,46.2,45.3c12.8,0,23.1-10.1,23.1-22.6v-90.6c0-12.5-10.3-22.6-23.1-22.6
		c-25.5,0-46.2,20.3-46.2,45.3V303.2z" />
    </g>
</svg>