<svg xmlns="http://www.w3.org/2000/svg" fill="none" viewBox="0 0 97 58">
    <path fill="#17181A" stroke="#E8E8E8" stroke-width="1.8"
        d="M43.12 1.73H7.69a4.83 4.83 0 0 0-4.83 4.83v32.2A4.83 4.83 0 0 0 7.7 43.6h35.43a4.83 4.83 0 0 0 4.83-4.83V6.56a4.83 4.83 0 0 0-4.83-4.83Z" />
    <path fill="#17181A" d="m9.5 8.17 6.87 5.5c.22.18.22.51 0 .69l-6.87 5.5m8.76 0h5.84-5.84Z" />
    <path stroke="#E8E8E8" stroke-width="1.8" d="m9.5 8.17 6.87 5.5c.22.18.22.51 0 .69l-6.87 5.5m8.76 0h5.84" />
    <path fill="#17181A" stroke="#E8E8E8" stroke-width="1.8"
        d="M43.05 24.17c0-1.69 1.37-3.06 3.06-3.06H85.5a3.06 3.06 0 0 1 3.06 3.06v24.88c0 1.7-1.37 3.06-3.06 3.06H58.03a.47.47 0 0 0-.34.15l-3.8 4.14c-.2.2-.5.2-.7 0l-3.76-4.14a.47.47 0 0 0-.34-.15H46.1a3.06 3.06 0 0 1-3.06-3.06V24.17Z" />
    <circle cx="88.73" cy="21.99" r="4.66" fill="#17181A" stroke="#FF7340" stroke-width="1.8" />
</svg>