<svg xmlns="http://www.w3.org/2000/svg" fill="none" viewBox="0 0 93 59">
    <rect width="39.44" height="65.78" x="80.3" y="1.79" fill="#17181A" stroke="#E8E8E8" stroke-width="1.8" rx="3.43"
        transform="rotate(90 80.3 1.8)" />
    <path stroke="#E8E8E8" stroke-width="1.8"
        d="M52.83 41.8v-.9H41.98v2.52a14.4 14.4 0 0 1-6.48 12.03c-1.06.7-.56 2.35.71 2.35h22.4c1.27 0 1.76-1.65.7-2.35a14.4 14.4 0 0 1-6.48-12.03V41.8Z" />
    <rect width="23.85" height="38.61" x="1.77" y="18.83" fill="#17181A" stroke="#E8E8E8" stroke-width="1.8"
        rx="2.08" />
    <path stroke="#E8E8E8" stroke-linecap="round" stroke-width="1.8" d="M10.23 21.07h6.39" />
    <path fill="#17181A" stroke="#FF7340" stroke-width="1.8"
        d="M79.34 32.33a12.58 12.58 0 0 1 2.18 0c1.15.1 2 .95 2.27 1.96l.45 1.72c.02.1.12.24.33.35.36.18.7.38 1.03.6.2.13.37.14.47.1l1.72-.46c1-.28 2.16.03 2.83.98.41.6.78 1.23 1.1 1.9a2.6 2.6 0 0 1-.57 2.94l-1.27 1.25c-.08.07-.15.23-.14.46a9.49 9.49 0 0 1 0 1.2c-.01.23.06.38.14.46l1.27 1.25a2.6 2.6 0 0 1 .56 2.94c-.3.67-.68 1.3-1.1 1.9a2.6 2.6 0 0 1-2.82.97l-1.72-.47c-.1-.02-.27-.01-.47.12a9.3 9.3 0 0 1-1.03.6c-.21.1-.3.24-.33.34l-.45 1.72a2.6 2.6 0 0 1-2.27 1.97 12.58 12.58 0 0 1-2.18 0 2.6 2.6 0 0 1-2.27-1.97l-.45-1.72c-.03-.1-.13-.24-.33-.34a9.3 9.3 0 0 1-1.04-.6c-.2-.13-.36-.14-.47-.12l-1.71.47a2.6 2.6 0 0 1-2.83-.97c-.42-.6-.79-1.23-1.1-1.9a2.6 2.6 0 0 1 .57-2.94l1.26-1.25c.08-.08.15-.23.14-.46a9.49 9.49 0 0 1 0-1.2c.01-.23-.06-.39-.14-.46l-1.26-1.25a2.6 2.6 0 0 1-.57-2.95c.31-.66.68-1.3 1.1-1.9a2.6 2.6 0 0 1 2.83-.97l1.71.47c.1.03.28.02.47-.11.33-.22.68-.42 1.04-.6.2-.1.3-.25.33-.35l.45-1.72a2.6 2.6 0 0 1 2.27-1.96Z" />
    <circle cx="80.43" cy="44.73" r="4.53" fill="#17181A" stroke="#FF7340" stroke-width="1.8" />
</svg>