<svg viewBox="0 0 360 377" fill="none" xmlns="http://www.w3.org/2000/svg">
    <g opacity=".4" stroke="#E3E3ED" stroke-width="1.2">
        <path d="M55 0v440M135 0v440M215 0v440M295 0v440M575 0H-25M575 80H-25M575 160H-25M575 240H-25M575 320H-25" />
    </g>
    <path transform="rotate(90 360 0)" fill="url(#paint0_linear)" d="M360 0h377v360H360z" />
    <rect x="20" y="20" width="320" height="337" rx="10.24" fill="#272A3F" />
    <path
        d="M41.46 54.374c1.213-.85 2.155-1.568 2.828-2.156.672-.597 1.152-1.139 1.442-1.624.298-.495.448-1.003.448-1.526 0-.495-.16-.896-.476-1.204-.308-.308-.733-.462-1.274-.462-.58 0-1.041.191-1.386.574-.337.383-.528.915-.575 1.596l-1.301-.602c.093-.887.434-1.587 1.022-2.1.587-.513 1.362-.77 2.323-.77.663 0 1.237.13 1.722.392.486.252.855.597 1.107 1.036.252.439.377.933.377 1.484 0 .887-.33 1.731-.993 2.534-.654.803-1.746 1.694-3.276 2.674v.028a19.19 19.19 0 011.526-.056h2.912v1.288h-6.427v-1.106zm9.392 2.086h-1.4l4.172-11.13h1.4l-4.172 11.13zm9.412-6.916c.588 0 1.101.126 1.54.378.439.243.775.583 1.008 1.022.243.439.364.947.364 1.526 0 .999-.299 1.773-.896 2.324-.597.55-1.395.826-2.394.826-.84 0-1.53-.168-2.072-.504-.532-.336-.957-.845-1.274-1.526l1.4-.77c.14.504.35.887.63 1.148.29.252.719.378 1.288.378.57 0 1.017-.154 1.344-.462.336-.308.504-.742.504-1.302 0-.579-.154-1.022-.462-1.33-.308-.317-.751-.476-1.33-.476-.877 0-1.503.266-1.876.798l-1.246-.084.574-5.25h5.362v1.288h-4.172l-.322 2.562-.028.196h.014c.448-.495 1.13-.742 2.044-.742z"
        fill="#fff" />
    <path d="M295.52 42.48h24M295.52 50.48h24M295.52 58.48h24" stroke="#fff" stroke-width="2.4"
        stroke-linecap="round" />
    <rect opacity=".3" x="40.48" y="90.347" width="280" height="20" rx="4" fill="#fff" />
    <rect opacity=".3" x="40.48" y="118.347" width="205" height="20" rx="4" fill="#fff" />
    <circle cx="50.719" cy="178.453" r="9.813" stroke="#fff" stroke-width=".853" />
    <rect opacity=".3" x="74.613" y="168.453" width="120" height="20" rx="4" fill="#fff" />
    <circle cx="50.719" cy="212.587" r="9.813" stroke="#fff" stroke-width=".853" />
    <rect x="44.746" y="206.613" width="11.947" height="11.947" rx="5.973" fill="#fff" />
    <rect opacity=".3" x="74.613" y="202.587" width="120" height="20" rx="4" fill="#fff" />
    <circle cx="50.719" cy="246.72" r="9.813" stroke="#fff" stroke-width=".853" />
    <rect opacity=".3" x="74.613" y="236.72" width="120" height="20" rx="4" fill="#fff" />
    <rect x="40.48" y="286.827" width="279.04" height="50" rx="8" fill="#4D5066" />
    <path
        d="M164.521 307.447c.849 0 1.573.154 2.17.462.607.308 1.115.779 1.526 1.414l-1.134 1.022c-.261-.56-.588-.966-.98-1.218s-.915-.378-1.568-.378c-.644 0-1.143.13-1.498.392-.355.252-.532.578-.532.98 0 .373.173.672.518.896.345.214.961.401 1.848.56.831.149 1.489.34 1.974.574.495.224.854.508 1.078.854.224.336.336.756.336 1.26 0 .541-.154 1.017-.462 1.428-.308.41-.742.728-1.302.952-.551.214-1.19.322-1.918.322-1.876 0-3.201-.626-3.976-1.876l1.05-1.05c.299.56.681.97 1.148 1.232.476.261 1.064.392 1.764.392.663 0 1.181-.112 1.554-.336.383-.234.574-.56.574-.98 0-.336-.173-.607-.518-.812-.336-.206-.929-.388-1.778-.546-.849-.159-1.526-.355-2.03-.588-.504-.234-.873-.523-1.106-.868-.224-.346-.336-.766-.336-1.26a2.5 2.5 0 01.434-1.428c.289-.43.705-.77 1.246-1.022.551-.252 1.19-.378 1.918-.378zm13.14 8.092v1.288h-6.888v-9.24h6.692v1.288h-5.194v2.66h4.06v1.26h-4.06v2.744h5.39zm10.007 1.288h-1.778l-3.57-5.824-.896-1.708h-.014l.056 1.568v5.964h-1.372v-9.24h1.764l3.556 5.81.91 1.722h.014l-.056-1.568v-5.964h1.386v9.24zm6.416-9.24c1.456 0 2.586.401 3.388 1.204.803.802 1.204 1.941 1.204 3.416 0 1.474-.401 2.613-1.204 3.416-.802.802-1.932 1.204-3.388 1.204h-3.262v-9.24h3.262zm0 7.966c.971 0 1.718-.29 2.24-.868.523-.588.784-1.414.784-2.478 0-1.064-.261-1.886-.784-2.464-.522-.588-1.269-.882-2.24-.882h-1.764v6.692h1.764z"
        fill="#fff" />
    <circle cx="308" cy="142" r="45" fill="url(#paint1_linear)" />
    <circle cx="308" cy="142" r="44.3" stroke="#fff" stroke-opacity=".1" stroke-width="1.399" />
    <path d="M295 139.642a1 1 0 011-1h24a1 1 0 011 1v18a1 1 0 01-1 1h-24a1 1 0 01-1-1v-18z" stroke="#FAFAFA"
        stroke-width="2" />
    <path d="M317 139.642v-7a9 9 0 00-9-9v0a9 9 0 00-9 9v7" stroke="#FAFAFA" stroke-width="2" />
    <defs>
        <linearGradient id="paint0_linear" x1="521.796" y1="180" x2="708.201" y2="180" gradientUnits="userSpaceOnUse">
            <stop stop-color="#0D102B" stop-opacity="0" />
            <stop offset="1" stop-color="#0D102B" />
        </linearGradient>
        <linearGradient id="paint1_linear" x1="308" y1="97" x2="308" y2="187" gradientUnits="userSpaceOnUse">
            <stop stop-color="#F04405" />
            <stop offset="1" stop-color="#FF782D" />
        </linearGradient>
        <filter id="filter0_d" x="2.933" y="11.467" width="354.133" height="371.133" filterUnits="userSpaceOnUse"
            color-interpolation-filters="sRGB">
            <feFlood flood-opacity="0" result="BackgroundImageFix" />
            <feColorMatrix in="SourceAlpha" values="0 0 0 0 0 0 0 0 0 0 0 0 0 0 0 0 0 0 127 0" result="hardAlpha" />
            <feOffset dy="8.533" />
            <feGaussianBlur stdDeviation="8.533" />
            <feColorMatrix values="0 0 0 0 0.0509804 0 0 0 0 0.0627451 0 0 0 0 0.168627 0 0 0 1 0" />
            <feBlend in2="BackgroundImageFix" result="effect1_dropShadow" />
            <feBlend in="SourceGraphic" in2="effect1_dropShadow" result="shape" />
        </filter>
        <filter id="filter1_b" x="243.41" y="77.41" width="129.179" height="129.179" filterUnits="userSpaceOnUse"
            color-interpolation-filters="sRGB">
            <feFlood flood-opacity="0" result="BackgroundImageFix" />
            <feGaussianBlur in="BackgroundImage" stdDeviation="9.795" />
            <feComposite in2="SourceAlpha" operator="in" result="effect1_backgroundBlur" />
            <feBlend in="SourceGraphic" in2="effect1_backgroundBlur" result="shape" />
        </filter>
        <clipPath id="clip0">
            <path fill="#fff" d="M0 0h360v377H0z" />
        </clipPath>
    </defs>
</svg>