<svg fill="none" xmlns="http://www.w3.org/2000/svg" viewBox="0 0 608 440">
    <g opacity=".4" stroke="#E3E3ED" stroke-width="1.2">
        <path
            d="M0 0v440M80 0v440M160 0v440M240 0v440M320 0v440M400 0v440M480 0v440M560 0v440M600 60H0M600 140H0M600 220H0M600 300H0M600 380H0" />
    </g>
    <path fill="url(#BlueFilter)" d="M0 0h608v440H0z" />
    <g>
        <rect x="40" y="40" width="444.091" height="364" rx="12" fill="#272A3F" />
        <path
            d="M64.98 76.894c1.213-.85 2.156-1.568 2.828-2.156.672-.597 1.153-1.139 1.442-1.624.299-.495.448-1.003.448-1.526 0-.495-.159-.896-.476-1.204-.308-.308-.733-.462-1.274-.462-.579 0-1.04.191-1.386.574-.336.383-.527.915-.574 1.596l-1.302-.602c.093-.887.434-1.587 1.022-2.1.588-.513 1.363-.77 2.324-.77.663 0 1.237.13 1.722.392.485.252.854.597 1.106 1.036.252.439.378.933.378 1.484 0 .887-.331 1.731-.994 2.534-.653.803-1.745 1.694-3.276 2.674v.028c.467-.037.975-.056 1.526-.056h2.912V78H64.98v-1.106Zm9.393 2.086h-1.4l4.172-11.13h1.4l-4.172 11.13Zm9.411-6.916c.588 0 1.102.126 1.54.378.44.243.775.583 1.008 1.022.243.439.365.947.365 1.526 0 .999-.3 1.773-.897 2.324-.597.55-1.395.826-2.394.826-.84 0-1.53-.168-2.072-.504-.532-.336-.956-.845-1.273-1.526l1.4-.77c.14.504.35.887.63 1.148.289.252.718.378 1.288.378.569 0 1.017-.154 1.343-.462.337-.308.505-.742.505-1.302 0-.579-.154-1.022-.463-1.33-.307-.317-.75-.476-1.33-.476-.877 0-1.502.266-1.876.798l-1.246-.084.575-5.25h5.362v1.288h-4.172l-.323 2.562-.028.196h.014c.449-.495 1.13-.742 2.044-.742Z"
            fill="#fff" />
        <path d="M436.091 65h24M436.091 73h24M436.091 81h24" stroke="#fff" stroke-width="2.4" stroke-linecap="round" />
        <rect opacity=".3" x="64" y="114" width="397" height="24" rx="4" fill="#fff" />
        <rect opacity=".3" x="64" y="146" width="290" height="24" rx="4" fill="#fff" />
        <circle cx="76" cy="206" r="11.5" stroke="#fff" />
        <rect opacity=".3" x="104" y="194" width="137" height="24" rx="4" fill="#fff" />
        <circle cx="76" cy="246" r="11.5" stroke="#fff" />
        <rect x="69" y="239" width="14" height="14" rx="7" fill="#fff" />
        <rect opacity=".3" x="104" y="234" width="137" height="24" rx="4" fill="#fff" />
        <circle cx="76" cy="286" r="11.5" stroke="#fff" />
        <rect opacity=".3" x="104" y="274" width="137" height="24" rx="4" fill="#fff" />
        <rect x="64" y="330" width="396.091" height="50" rx="8" fill="#4D5066" />
        <path
            d="M246.568 350.62c.849 0 1.573.154 2.17.462.607.308 1.115.779 1.526 1.414l-1.134 1.022c-.261-.56-.588-.966-.98-1.218s-.915-.378-1.568-.378c-.644 0-1.143.131-1.498.392-.355.252-.532.579-.532.98 0 .373.173.672.518.896.345.215.961.401 1.848.56.831.149 1.489.341 1.974.574.495.224.854.509 1.078.854.224.336.336.756.336 1.26 0 .541-.154 1.017-.462 1.428-.308.411-.742.728-1.302.952-.551.215-1.19.322-1.918.322-1.876 0-3.201-.625-3.976-1.876l1.05-1.05c.299.56.681.971 1.148 1.232.476.261 1.064.392 1.764.392.663 0 1.181-.112 1.554-.336.383-.233.574-.56.574-.98 0-.336-.173-.607-.518-.812-.336-.205-.929-.387-1.778-.546-.849-.159-1.526-.355-2.03-.588-.504-.233-.873-.523-1.106-.868-.224-.345-.336-.765-.336-1.26a2.5 2.5 0 0 1 .434-1.428c.289-.429.705-.77 1.246-1.022.551-.252 1.19-.378 1.918-.378Zm13.14 8.092V360h-6.888v-9.24h6.692v1.288h-5.194v2.66h4.06v1.26h-4.06v2.744h5.39ZM269.715 360h-1.778l-3.57-5.824-.896-1.708h-.014l.056 1.568V360h-1.372v-9.24h1.764l3.556 5.81.91 1.722h.014l-.056-1.568v-5.964h1.386V360Zm6.416-9.24c1.456 0 2.586.401 3.388 1.204.803.803 1.204 1.941 1.204 3.416 0 1.475-.401 2.613-1.204 3.416-.802.803-1.932 1.204-3.388 1.204h-3.262v-9.24h3.262Zm0 7.966c.971 0 1.718-.289 2.24-.868.523-.588.784-1.414.784-2.478 0-1.064-.261-1.885-.784-2.464-.522-.588-1.269-.882-2.24-.882h-1.764v6.692h1.764Z"
            fill="#fff" />
    </g>
    <g>
        <circle cx="484" cy="208" r="45" fill="url(#d)" />
        <circle cx="484" cy="208" r="44.3" stroke="#fff" stroke-opacity=".1" stroke-width="1.399" />
    </g>
    <path d="M471 205.642a1 1 0 0 1 1-1h24a1 1 0 0 1 1 1v18a1 1 0 0 1-1 1h-24a1 1 0 0 1-1-1v-18Z" stroke="#FAFAFA"
        stroke-width="2" />
    <path d="M493 205.642v-7a9 9 0 0 0-9-9 9 9 0 0 0-9 9v7" stroke="#FAFAFA" stroke-width="2" />
    <defs>
        <linearGradient id="BlueFilter" x1="0" y1="220" x2="530" y2="220" gradientUnits="userSpaceOnUse">
            <stop stop-color="#0D102B" stop-opacity="0" />
            <stop offset="1" stop-color="#0D102B" />
        </linearGradient>
        <linearGradient id="d" x1="484" y1="163" x2="484" y2="253" gradientUnits="userSpaceOnUse">
            <stop stop-color="#F04405" />
            <stop offset="1" stop-color="#FF782D" />
        </linearGradient>
        <filter id="b" x="20" y="30" width="484.091" height="404" filterUnits="userSpaceOnUse"
            color-interpolation-filters="sRGB">
            <feFlood flood-opacity="0" result="BackgroundImageFix" />
            <feColorMatrix in="SourceAlpha" values="0 0 0 0 0 0 0 0 0 0 0 0 0 0 0 0 0 0 127 0" result="hardAlpha" />
            <feOffset dy="10" />
            <feGaussianBlur stdDeviation="10" />
            <feColorMatrix values="0 0 0 0 0.0509804 0 0 0 0 0.0627451 0 0 0 0 0.168627 0 0 0 1 0" />
            <feBlend in2="BackgroundImageFix" result="effect1_dropShadow_363_784" />
            <feBlend in="SourceGraphic" in2="effect1_dropShadow_363_784" result="shape" />
        </filter>
        <filter id="c" x="419.41" y="143.41" width="129.179" height="129.179" filterUnits="userSpaceOnUse"
            color-interpolation-filters="sRGB">
            <feFlood flood-opacity="0" result="BackgroundImageFix" />
            <feGaussianBlur in="BackgroundImage" stdDeviation="9.795" />
            <feComposite in2="SourceAlpha" operator="in" result="effect1_backgroundBlur_363_784" />
            <feBlend in="SourceGraphic" in2="effect1_backgroundBlur_363_784" result="shape" />
        </filter>
    </defs>
</svg>