<svg xmlns="http://www.w3.org/2000/svg" viewBox="0 0 24 24">
  <path
    d="M19.8 2c.7 0 1.3.8 1.4 1.8v3.9c0 .4-.2.6-.5.6H3.9v11.9c0 .3.2.6.4.6h15.5c.2 0 .4-.2.5-.6V10.1c0-.4.2-.6.5-.6s.5.2.5.6v10c0 1-.5 1.8-1.3 1.9H4.4c-.8 0-1.4-.8-1.4-1.8V3.9c0-1 .5-1.8 1.3-1.9h15.5zm0 1.2H4.4c-.2 0-.4.2-.5.6V7h16.4V3.9c0-.3-.2-.6-.5-.7zM8 4.5c.3 0 .5.2.5.6s-.2.6-.5.6H5.3c-.3 0-.5-.2-.5-.6s.2-.6.5-.6H8z"
    fill-rule="evenodd"
    clip-rule="evenodd"
    fill="#202659"/>
    <path
        d="M11.6 12.1V9.2h-6c-.3 0-.5.2-.5.4V12h6.5v.1zm3.7 0h3.8V9.6c0-.2-.2-.4-.5-.4h-5.9v2.9h2.6zm-5.9.8v3.2h5.4v-3.2h-2.7-2.7zm-4.3 0h3.2v3.2H5.1v-3.2zm10.8 0h3.2v3.2h-3.2v-3.2zm-7 4.1H5.1v2.4c0 .2.2.4.5.4h5.9V17H8.9zm3.7 0v2.9h5.9c.3 0 .5-.2.5-.4V17h-6.4z" fill="#202659"/>
</svg>