<svg viewBox="0 0 124 43" fill="none" xmlns="http://www.w3.org/2000/svg">
    <g clip-path="url(#clip0_5821_44997)">
        <path
            d="M113.781 0.990124H10.2482C9.87079 0.990124 9.49793 0.990124 9.12154 0.992182C8.80647 0.994241 8.4939 1.00022 8.1758 1.00525C7.48474 1.01338 6.7953 1.07418 6.11348 1.18711C5.43262 1.30251 4.77309 1.52005 4.15719 1.83239C3.54204 2.14738 2.97997 2.55667 2.49135 3.04541C2.00017 3.53279 1.59073 4.09612 1.27878 4.71376C0.965972 5.33017 0.749068 5.99071 0.635563 6.67257C0.520978 7.35356 0.459319 8.04241 0.451139 8.73293C0.441588 9.04847 0.440579 9.36506 0.435547 9.68064V33.4687C0.440579 33.7883 0.441588 34.0978 0.451139 34.4175C0.459321 35.108 0.52098 35.7968 0.635563 36.4778C0.748755 37.16 0.965672 37.8209 1.27878 38.4376C1.59059 39.0532 2.00009 39.6143 2.49135 40.0989C2.97811 40.5899 3.54055 40.9994 4.15719 41.312C4.77308 41.6252 5.43254 41.844 6.11348 41.9612C6.79542 42.0732 7.48478 42.134 8.1758 42.1431C8.4939 42.1501 8.80647 42.1542 9.12154 42.1542C9.49792 42.1562 9.87082 42.1562 10.2482 42.1562H113.781C114.151 42.1562 114.527 42.1562 114.897 42.1542C115.21 42.1542 115.532 42.1501 115.845 42.1431C116.535 42.1345 117.223 42.0737 117.904 41.9612C118.587 41.8432 119.249 41.6244 119.868 41.312C120.484 40.9992 121.046 40.5897 121.532 40.0989C122.022 39.6124 122.432 39.0517 122.748 38.4376C123.059 37.8205 123.274 37.1596 123.385 36.4778C123.5 35.7967 123.564 35.108 123.576 34.4175C123.58 34.0978 123.58 33.7883 123.58 33.4687C123.588 33.0948 123.588 32.723 123.588 32.343V10.8043C123.588 10.4274 123.588 10.0535 123.58 9.68064C123.58 9.36506 123.58 9.04847 123.576 8.73289C123.564 8.04231 123.5 7.35362 123.385 6.67253C123.273 5.99106 123.058 5.33058 122.748 4.71372C122.113 3.47573 121.105 2.46801 119.868 1.8323C119.249 1.52072 118.587 1.30323 117.904 1.18702C117.223 1.07359 116.535 1.01277 115.845 1.00511C115.532 1.00009 115.21 0.994055 114.897 0.992049C114.527 0.98999 114.151 0.98999 113.781 0.98999V0.990124Z"
            fill="#FDE4DB" fill-opacity="0.8" />
        <path
            d="M25.926 21.8827C25.937 21.0238 26.1652 20.1815 26.5892 19.4344C27.0133 18.6873 27.6194 18.0596 28.3512 17.6096C27.8863 16.9457 27.273 16.3993 26.56 16.0138C25.8469 15.6283 25.0539 15.4144 24.2437 15.3891C22.5155 15.2077 20.8401 16.4232 19.9594 16.4232C19.0617 16.4232 17.7058 15.4071 16.2457 15.4371C15.3013 15.4676 14.3809 15.7423 13.5742 16.2343C12.7674 16.7262 12.1019 17.4188 11.6424 18.2445C9.65205 21.6905 11.1367 26.755 13.0433 29.5406C13.9972 30.9045 15.1121 32.4282 16.5709 32.3741C17.9984 32.3149 18.5315 31.4639 20.2546 31.4639C21.9617 31.4639 22.4619 32.3741 23.9503 32.3398C25.4821 32.3149 26.4472 30.9697 27.3676 29.5928C28.053 28.6209 28.5804 27.5468 28.9303 26.4102C28.0404 26.0338 27.2809 25.4037 26.7467 24.5986C26.2124 23.7935 25.927 22.849 25.926 21.8827Z"
            fill="#D63900" />
        <path
            d="M23.1146 13.5572C23.9498 12.5546 24.3613 11.2659 24.2616 9.96484C22.9857 10.0989 21.807 10.7087 20.9606 11.6728C20.5467 12.1438 20.2297 12.6918 20.0278 13.2854C19.8258 13.879 19.7428 14.5065 19.7835 15.1322C20.4217 15.1388 21.0531 15.0005 21.6301 14.7276C22.2071 14.4548 22.7147 14.0546 23.1146 13.5572Z"
            fill="#D63900" />
        <path
            d="M43.9708 28.9212H39.0994L37.9295 32.3755H35.8662L40.4803 19.5955H42.624L47.2381 32.3755H45.1396L43.9708 28.9212ZM39.6039 27.3272H43.4653L41.5618 21.7211H41.5085L39.6039 27.3272Z"
            fill="#D63900" />
        <path
            d="M57.2028 27.717C57.2028 30.6125 55.653 32.4728 53.3143 32.4728C52.7218 32.5038 52.1327 32.3674 51.6142 32.0791C51.0957 31.7908 50.6689 31.3623 50.3826 30.8427H50.3384V35.4578H48.4258V23.0577H50.2771V24.6075H50.3123C50.6117 24.0904 51.0457 23.6641 51.5681 23.374C52.0906 23.084 52.6819 22.941 53.2791 22.9602C55.6439 22.9602 57.2028 24.8296 57.2028 27.717ZM55.2369 27.717C55.2369 25.8306 54.262 24.5904 52.7746 24.5904C51.3133 24.5904 50.3303 25.8567 50.3303 27.717C50.3303 29.5944 51.3133 30.8517 52.7746 30.8517C54.262 30.8517 55.2369 29.6206 55.2369 27.717Z"
            fill="#D63900" />
        <path
            d="M67.4586 27.717C67.4586 30.6125 65.9089 32.4728 63.5701 32.4728C62.9777 32.5038 62.3885 32.3674 61.87 32.0791C61.3516 31.7907 60.9247 31.3623 60.6385 30.8427H60.5942V35.4578H58.6816V23.0577H60.5329V24.6075H60.5681C60.8675 24.0903 61.3015 23.6641 61.824 23.374C62.3464 23.084 62.9377 22.941 63.5349 22.9602C65.8998 22.9602 67.4586 24.8296 67.4586 27.717ZM65.4928 27.717C65.4928 25.8306 64.5179 24.5904 63.0304 24.5904C61.5691 24.5904 60.5862 25.8567 60.5862 27.717C60.5862 29.5944 61.5691 30.8517 63.0304 30.8517C64.5179 30.8517 65.4928 29.6206 65.4928 27.717H65.4928Z"
            fill="#D63900" />
        <path
            d="M74.2362 28.8146C74.3779 30.0819 75.609 30.9141 77.2914 30.9141C78.9035 30.9141 80.0633 30.0819 80.0633 28.9392C80.0633 27.9472 79.3638 27.3533 77.7075 26.9462L76.0512 26.5472C73.7045 25.9804 72.615 24.8829 72.615 23.1019C72.615 20.8969 74.5367 19.3823 77.2653 19.3823C79.9658 19.3823 81.8171 20.8969 81.8794 23.1019H79.9487C79.8332 21.8266 78.7789 21.0567 77.2382 21.0567C75.6974 21.0567 74.6432 21.8356 74.6432 22.9693C74.6432 23.8728 75.3165 24.4045 76.9638 24.8115L78.3718 25.1572C80.994 25.7773 82.0834 26.8306 82.0834 28.6999C82.0834 31.0909 80.1789 32.5884 77.1497 32.5884C74.3155 32.5884 72.4019 31.1261 72.2783 28.8145L74.2362 28.8146Z"
            fill="#D63900" />
        <path
            d="M86.211 20.8528V23.0578H87.9828V24.5724H86.211V29.7091C86.211 30.5071 86.5657 30.879 87.3446 30.879C87.555 30.8753 87.765 30.8605 87.9738 30.8347V32.3403C87.6236 32.4057 87.2677 32.4353 86.9115 32.4287C85.025 32.4287 84.2893 31.7202 84.2893 29.9131V24.5724H82.9346V23.0578H84.2893V20.8528H86.211Z"
            fill="#D63900" />
        <path
            d="M89.0088 27.717C89.0088 24.7853 90.7354 22.9431 93.4279 22.9431C96.1294 22.9431 97.848 24.7853 97.848 27.717C97.848 30.6567 96.1385 32.4909 93.4279 32.4909C90.7183 32.4909 89.0088 30.6567 89.0088 27.717ZM95.8993 27.717C95.8993 25.7059 94.9777 24.519 93.4279 24.519C91.8781 24.519 90.9575 25.715 90.9575 27.717C90.9575 29.7361 91.8781 30.914 93.4279 30.914C94.9777 30.914 95.8992 29.7361 95.8992 27.717H95.8993Z"
            fill="#D63900" />
        <path
            d="M99.4258 23.0579H101.25V24.6438H101.294C101.418 24.1485 101.708 23.7107 102.116 23.4042C102.524 23.0976 103.025 22.9409 103.535 22.9604C103.756 22.9596 103.976 22.9835 104.191 23.0317V24.8207C103.912 24.7357 103.622 24.6966 103.331 24.7051C103.053 24.6938 102.776 24.7428 102.519 24.8487C102.262 24.9546 102.031 25.1149 101.842 25.3185C101.652 25.5222 101.509 25.7644 101.422 26.0286C101.336 26.2927 101.307 26.5725 101.338 26.8488V32.3755H99.4258L99.4258 23.0579Z"
            fill="#D63900" />
        <path
            d="M113.009 29.6386C112.751 31.3301 111.104 32.4909 108.997 32.4909C106.286 32.4909 104.604 30.6748 104.604 27.7612C104.604 24.8386 106.295 22.9431 108.916 22.9431C111.494 22.9431 113.115 24.714 113.115 27.5391V28.1944H106.534V28.31C106.504 28.6529 106.547 28.9983 106.66 29.3234C106.774 29.6484 106.955 29.9456 107.192 30.1953C107.429 30.4449 107.716 30.6412 108.035 30.7712C108.354 30.9012 108.697 30.9619 109.041 30.9492C109.493 30.9915 109.946 30.8869 110.334 30.6507C110.722 30.4146 111.023 30.0596 111.193 29.6386L113.009 29.6386ZM106.543 26.8577H111.202C111.219 26.5494 111.172 26.2408 111.064 25.9514C110.957 25.662 110.79 25.398 110.576 25.1759C110.361 24.9539 110.103 24.7786 109.817 24.661C109.532 24.5435 109.225 24.4862 108.916 24.4929C108.605 24.491 108.296 24.5509 108.008 24.6689C107.72 24.787 107.458 24.961 107.237 25.1809C107.016 25.4007 106.841 25.6621 106.722 25.9499C106.603 26.2377 106.542 26.5463 106.543 26.8577V26.8577Z"
            fill="#D63900" />
        <path
            d="M39.3646 9.97572C39.7656 9.94694 40.1679 10.0075 40.5426 10.1531C40.9174 10.2986 41.2551 10.5255 41.5315 10.8174C41.808 11.1093 42.0161 11.4589 42.1411 11.841C42.266 12.2231 42.3046 12.6282 42.2541 13.027C42.2541 14.9888 41.1937 16.1165 39.3646 16.1165H37.1465V9.97572H39.3646ZM38.1003 15.2481H39.258C39.5446 15.2652 39.8313 15.2182 40.0974 15.1105C40.3635 15.0029 40.6022 14.8372 40.7962 14.6257C40.9902 14.4141 41.1345 14.162 41.2188 13.8876C41.303 13.6132 41.325 13.3235 41.2832 13.0395C41.322 12.7567 41.2978 12.4687 41.2122 12.1964C41.1267 11.924 40.9819 11.6739 40.7884 11.464C40.5949 11.2541 40.3573 11.0897 40.0927 10.9824C39.8281 10.8751 39.5431 10.8277 39.258 10.8435H38.1003V15.2481Z"
            fill="#D63900" />
        <path
            d="M43.3316 13.7973C43.3025 13.4928 43.3373 13.1855 43.4339 12.8952C43.5305 12.6049 43.6867 12.338 43.8924 12.1116C44.0982 11.8852 44.349 11.7043 44.6288 11.5805C44.9086 11.4568 45.2111 11.3928 45.5171 11.3928C45.823 11.3928 46.1256 11.4568 46.4053 11.5805C46.6851 11.7043 46.9359 11.8852 47.1417 12.1116C47.3475 12.338 47.5037 12.6049 47.6002 12.8952C47.6968 13.1855 47.7316 13.4928 47.7025 13.7973C47.7322 14.1022 47.6978 14.4099 47.6015 14.7006C47.5051 14.9914 47.349 15.2588 47.1432 15.4856C46.9374 15.7125 46.6864 15.8937 46.4063 16.0178C46.1263 16.1418 45.8234 16.2059 45.5171 16.2059C45.2108 16.2059 44.9079 16.1418 44.6278 16.0178C44.3477 15.8937 44.0967 15.7125 43.8909 15.4856C43.6851 15.2588 43.529 14.9914 43.4327 14.7006C43.3364 14.4099 43.3019 14.1022 43.3316 13.7973ZM46.7618 13.7973C46.7618 12.7928 46.3105 12.2053 45.5186 12.2053C44.7236 12.2053 44.2764 12.7928 44.2764 13.7973C44.2764 14.8099 44.7236 15.3928 45.5186 15.3928C46.3105 15.3928 46.7618 14.8059 46.7618 13.7973H46.7618Z"
            fill="#D63900" />
        <path
            d="M53.5121 16.1164H52.5633L51.6055 12.7033H51.5332L50.5794 16.1164H49.6397L48.3623 11.4822H49.29L50.1201 15.0183H50.1885L51.1412 11.4822H52.0186L52.9714 15.0183H53.0437L53.8699 11.4822H54.7845L53.5121 16.1164Z"
            fill="#D63900" />
        <path
            d="M55.8594 11.4822H56.7398V12.2184H56.8081C56.9241 11.954 57.1196 11.7323 57.3675 11.5843C57.6154 11.4363 57.9033 11.3694 58.1911 11.3927C58.4165 11.3758 58.643 11.4098 58.8535 11.4922C59.0641 11.5747 59.2534 11.7034 59.4074 11.8689C59.5615 12.0345 59.6763 12.2325 59.7434 12.4485C59.8105 12.6644 59.8282 12.8927 59.7951 13.1164V16.1163H58.8805V13.346C58.8805 12.6013 58.5569 12.2309 57.8805 12.2309C57.7274 12.2238 57.5746 12.2499 57.4325 12.3073C57.2904 12.3648 57.1624 12.4523 57.0573 12.5638C56.9522 12.6754 56.8725 12.8083 56.8236 12.9536C56.7747 13.0988 56.7577 13.2529 56.7739 13.4053V16.1164H55.8594L55.8594 11.4822Z"
            fill="#D63900" />
        <path d="M61.252 9.6731H62.1665V16.1163H61.252V9.6731Z" fill="#D63900" />
        <path
            d="M63.438 13.7974C63.4089 13.4928 63.4438 13.1855 63.5404 12.8952C63.637 12.6049 63.7932 12.338 63.999 12.1116C64.2048 11.8852 64.4556 11.7043 64.7354 11.5805C65.0152 11.4568 65.3178 11.3928 65.6237 11.3928C65.9297 11.3928 66.2323 11.4568 66.5121 11.5805C66.7919 11.7043 67.0427 11.8852 67.2485 12.1116C67.4543 12.338 67.6105 12.6049 67.7071 12.8952C67.8037 13.1855 67.8385 13.4928 67.8094 13.7974C67.8391 14.1023 67.8046 14.41 67.7083 14.7007C67.6119 14.9915 67.4558 15.2589 67.25 15.4857C67.0441 15.7125 66.7931 15.8938 66.513 16.0178C66.233 16.1419 65.9301 16.206 65.6237 16.206C65.3174 16.206 65.0145 16.1419 64.7344 16.0178C64.4544 15.8938 64.2034 15.7125 63.9975 15.4857C63.7917 15.2589 63.6356 14.9915 63.5392 14.7007C63.4429 14.41 63.4084 14.1023 63.438 13.7974ZM66.8682 13.7974C66.8682 12.7929 66.4169 12.2054 65.625 12.2054C64.83 12.2054 64.3828 12.7929 64.3828 13.7974C64.3828 14.81 64.83 15.3929 65.625 15.3929C66.417 15.3929 66.8682 14.8059 66.8682 13.7974H66.8682Z"
            fill="#D63900" />
        <path
            d="M68.7715 14.8059C68.7715 13.9717 69.3926 13.4908 70.4951 13.4225L71.7504 13.3501V12.9501C71.7504 12.4607 71.4268 12.1843 70.8016 12.1843C70.2911 12.1843 69.9373 12.3717 69.8358 12.6994H68.9504C69.0438 11.9034 69.7926 11.3928 70.8439 11.3928C72.0057 11.3928 72.661 11.9712 72.661 12.9501V16.1165H71.7805V15.4652H71.7082C71.5613 15.6988 71.3551 15.8893 71.1105 16.0171C70.866 16.1449 70.5919 16.2056 70.3162 16.1928C70.1217 16.2131 69.925 16.1923 69.739 16.1319C69.553 16.0715 69.3817 15.9728 69.2361 15.8421C69.0906 15.7114 68.9741 15.5517 68.894 15.3732C68.814 15.1948 68.7723 15.0015 68.7715 14.8059ZM71.7504 14.4099V14.0225L70.6187 14.0948C69.9805 14.1376 69.6911 14.3546 69.6911 14.7632C69.6911 15.1803 70.0529 15.423 70.5504 15.423C70.6962 15.4377 70.8434 15.423 70.9834 15.3797C71.1234 15.3364 71.2532 15.2654 71.3652 15.1708C71.4771 15.0763 71.5689 14.9602 71.6351 14.8295C71.7013 14.6988 71.7405 14.5561 71.7504 14.4099Z"
            fill="#D63900" />
        <path
            d="M73.8633 13.7973C73.8633 12.3329 74.6161 11.4053 75.7869 11.4053C76.0765 11.3919 76.364 11.4613 76.6156 11.6053C76.8673 11.7493 77.0727 11.9619 77.208 12.2183H77.2764V9.6731H78.1909V16.1163H77.3146V15.3842H77.2422C77.0965 15.6389 76.8838 15.8489 76.6273 15.9914C76.3708 16.1339 76.0802 16.2035 75.7869 16.1927C74.608 16.1928 73.8633 15.2651 73.8633 13.7973ZM74.808 13.7973C74.808 14.7802 75.2714 15.3716 76.0462 15.3716C76.8171 15.3716 77.2935 14.7716 77.2935 13.8013C77.2935 12.8354 76.8121 12.2269 76.0462 12.2269C75.2764 12.2269 74.808 12.8224 74.808 13.7973H74.808Z"
            fill="#D63900" />
        <path
            d="M81.9752 13.7973C81.946 13.4928 81.9809 13.1855 82.0775 12.8952C82.174 12.6049 82.3302 12.338 82.536 12.1116C82.7418 11.8852 82.9926 11.7043 83.2723 11.5805C83.5521 11.4568 83.8547 11.3928 84.1606 11.3928C84.4666 11.3928 84.7691 11.4568 85.0489 11.5805C85.3287 11.7043 85.5795 11.8852 85.7852 12.1116C85.991 12.338 86.1472 12.6049 86.2438 12.8952C86.3404 13.1855 86.3752 13.4928 86.3461 13.7973C86.3758 14.1022 86.3413 14.4099 86.245 14.7006C86.1487 14.9914 85.9926 15.2588 85.7868 15.4856C85.5809 15.7125 85.3299 15.8937 85.0499 16.0178C84.7698 16.1418 84.4669 16.2059 84.1606 16.2059C83.8543 16.2059 83.5514 16.1418 83.2714 16.0178C82.9913 15.8937 82.7403 15.7125 82.5345 15.4856C82.3286 15.2588 82.1726 14.9914 82.0762 14.7006C81.9799 14.4099 81.9455 14.1022 81.9752 13.7973ZM85.4053 13.7973C85.4053 12.7928 84.9541 12.2053 84.1621 12.2053C83.3672 12.2053 82.9199 12.7928 82.9199 13.7973C82.9199 14.8099 83.3672 15.3928 84.1621 15.3928C84.9541 15.3928 85.4053 14.8059 85.4053 13.7973Z"
            fill="#D63900" />
        <path
            d="M87.5732 11.4822H88.4536V12.2184H88.522C88.6379 11.954 88.8335 11.7323 89.0814 11.5843C89.3293 11.4363 89.6172 11.3694 89.9049 11.3927C90.1304 11.3758 90.3568 11.4098 90.5674 11.4922C90.7779 11.5747 90.9673 11.7034 91.1213 11.8689C91.2754 12.0345 91.3902 12.2325 91.4573 12.4485C91.5244 12.6644 91.542 12.8927 91.5089 13.1164V16.1163H90.5944V13.346C90.5944 12.6013 90.2708 12.2309 89.5944 12.2309C89.4413 12.2238 89.2884 12.2499 89.1464 12.3073C89.0043 12.3648 88.8763 12.4523 88.7712 12.5638C88.6661 12.6754 88.5864 12.8083 88.5374 12.9536C88.4885 13.0988 88.4716 13.2529 88.4878 13.4053V16.1164H87.5732V11.4822Z"
            fill="#D63900" />
        <path
            d="M96.6767 10.3284V11.5032H97.6807V12.2736H96.6767V14.6565C96.6767 15.142 96.8767 15.3545 97.3319 15.3545C97.4485 15.3542 97.5649 15.3471 97.6807 15.3334V16.0952C97.5164 16.1246 97.35 16.1402 97.1832 16.142C96.1661 16.142 95.7611 15.7842 95.7611 14.8907V12.2736H95.0254V11.5032H95.7611V10.3284H96.6767Z"
            fill="#D63900" />
        <path
            d="M98.9307 9.6731H99.8372V12.2269H99.9096C100.031 11.96 100.232 11.7371 100.485 11.5885C100.738 11.44 101.03 11.373 101.323 11.3967C101.547 11.3845 101.771 11.422 101.979 11.5064C102.187 11.5908 102.374 11.7202 102.527 11.8852C102.679 12.0502 102.793 12.2468 102.861 12.461C102.929 12.6752 102.948 12.9017 102.919 13.1244V16.1164H102.003V13.35C102.003 12.6098 101.658 12.2349 101.012 12.2349C100.855 12.222 100.697 12.2436 100.549 12.2982C100.401 12.3528 100.267 12.4391 100.155 12.551C100.044 12.6629 99.959 12.7978 99.9054 12.9461C99.8518 13.0944 99.8313 13.2527 99.8453 13.4098V16.1163H98.9307L98.9307 9.6731Z"
            fill="#D63900" />
        <path
            d="M108.251 14.8653C108.126 15.2888 107.857 15.6552 107.49 15.9003C107.123 16.1454 106.681 16.2536 106.243 16.206C105.937 16.214 105.634 16.1556 105.353 16.0346C105.073 15.9137 104.822 15.7331 104.618 15.5055C104.415 15.278 104.263 15.0088 104.174 14.7167C104.085 14.4246 104.06 14.1166 104.102 13.814C104.061 13.5105 104.086 13.2019 104.175 12.9089C104.264 12.6159 104.415 12.3455 104.618 12.1159C104.82 11.8863 105.07 11.703 105.35 11.5782C105.629 11.4535 105.932 11.3903 106.238 11.3929C107.528 11.3929 108.306 12.2739 108.306 13.7291V14.0482H105.033V14.0995C105.019 14.2695 105.041 14.4407 105.096 14.602C105.152 14.7633 105.241 14.9112 105.357 15.0362C105.473 15.1612 105.614 15.2606 105.771 15.3279C105.928 15.3952 106.097 15.429 106.268 15.4271C106.486 15.4533 106.708 15.4139 106.904 15.3139C107.101 15.2139 107.263 15.0577 107.37 14.8652L108.251 14.8653ZM105.033 13.3718H107.374C107.386 13.2163 107.365 13.06 107.312 12.9132C107.26 12.7663 107.177 12.632 107.07 12.5189C106.962 12.4059 106.832 12.3165 106.688 12.2567C106.544 12.1968 106.389 12.1677 106.233 12.1713C106.075 12.1693 105.918 12.199 105.772 12.2586C105.625 12.3183 105.492 12.4066 105.38 12.5185C105.268 12.6304 105.18 12.7635 105.121 12.9101C105.061 13.0566 105.031 13.2136 105.033 13.3718H105.033Z"
            fill="#D63900" />
    </g>
    <defs>
        <clipPath id="clip0_5821_44997">
            <rect width="123.153" height="41.1661" fill="white" transform="translate(0.435547 0.990234)" />
        </clipPath>
    </defs>
</svg>