<svg viewBox="0 0 140 43" fill="none" xmlns="http://www.w3.org/2000/svg">
    <path
        d="M134.29 0.990234H5.64575C2.80383 0.990234 0.5 3.29407 0.5 6.13599V37.0105C0.5 39.8524 2.80383 42.1562 5.64575 42.1562H134.29C137.131 42.1562 139.435 39.8524 139.435 37.0105V6.13599C139.435 3.29407 137.131 0.990234 134.29 0.990234Z"
        fill="#FDE4DB" fill-opacity="0.8" />
    <path
        d="M52.0046 12.3964C52.0046 13.2364 51.7546 13.9064 51.2546 14.3964C50.6946 14.9864 49.9546 15.2864 49.0546 15.2864C48.1546 15.2864 47.4546 14.9864 46.8446 14.3864C46.2346 13.7864 45.9346 13.0364 45.9346 12.1564C45.9346 11.2764 46.2346 10.5264 46.8446 9.92637C47.4546 9.32637 48.1846 9.02637 49.0546 9.02637C49.4846 9.02637 49.8946 9.10637 50.2846 9.27637C50.6746 9.44637 50.9846 9.66637 51.2246 9.94637L50.6946 10.4764C50.2946 10.0064 49.7546 9.76637 49.0546 9.76637C48.4246 9.76637 47.8746 9.98637 47.4146 10.4364C46.9546 10.8764 46.7246 11.4564 46.7246 12.1664C46.7246 12.8764 46.9546 13.4564 47.4146 13.8964C47.8746 14.3364 48.4246 14.5664 49.0546 14.5664C49.7246 14.5664 50.2846 14.3464 50.7346 13.8964C51.0246 13.6064 51.1946 13.1964 51.2346 12.6764H49.0546V11.9564H51.9646C51.9946 12.1164 52.0046 12.2664 52.0046 12.4064V12.3964Z"
        fill="#D63900" />
    <path
        d="M56.6143 9.89625H53.8843V11.7962H56.3443V12.5163H53.8843V14.4163H56.6143V15.1562H53.1143V9.15625H56.6143V9.89625Z"
        fill="#D63900" />
    <path d="M59.865 15.1562H59.095V9.89625H57.415V9.15625H61.535V9.89625H59.855V15.1562H59.865Z" fill="#D63900" />
    <path d="M64.5244 15.1562V9.15625H65.2944V15.1562H64.5244Z" fill="#D63900" />
    <path d="M68.7146 15.1562H67.9446V9.89625H66.2646V9.15625H70.3847V9.89625H68.7047V15.1562H68.7146Z"
        fill="#D63900" />
    <path
        d="M78.195 14.3764C77.605 14.9864 76.875 15.2864 75.995 15.2864C75.115 15.2864 74.385 14.9864 73.795 14.3764C73.205 13.7664 72.915 13.0264 72.915 12.1564C72.915 11.2864 73.205 10.5364 73.795 9.93637C74.385 9.32637 75.115 9.02637 75.995 9.02637C76.875 9.02637 77.595 9.32637 78.195 9.93637C78.785 10.5464 79.085 11.2864 79.085 12.1564C79.085 13.0264 78.785 13.7764 78.205 14.3764H78.195ZM74.365 13.8764C74.805 14.3264 75.355 14.5464 75.995 14.5464C76.635 14.5464 77.185 14.3264 77.625 13.8764C78.065 13.4264 78.295 12.8564 78.295 12.1564C78.295 11.4564 78.075 10.8864 77.625 10.4364C77.185 9.98637 76.635 9.76637 75.995 9.76637C75.355 9.76637 74.805 9.98637 74.365 10.4364C73.925 10.8864 73.695 11.4564 73.695 12.1564C73.695 12.8564 73.915 13.4264 74.365 13.8764Z"
        fill="#D63900" />
    <path
        d="M80.165 15.1562V9.15625H81.105L84.025 13.8263H84.055L84.025 12.6663V9.15625H84.795V15.1562H83.995L80.945 10.2663H80.915L80.945 11.4263V15.1663H80.175L80.165 15.1562Z"
        fill="#D63900" />
    <path
        d="M72.7248 23.9063C70.3748 23.9063 68.4548 25.6963 68.4548 28.1563C68.4548 30.6163 70.3748 32.4063 72.7248 32.4063C75.0748 32.4063 76.9948 30.6063 76.9948 28.1563C76.9948 25.7063 75.0748 23.9063 72.7248 23.9063ZM72.7248 30.7363C71.4348 30.7363 70.3248 29.6763 70.3248 28.1563C70.3248 26.6363 71.4348 25.5763 72.7248 25.5763C74.0148 25.5763 75.1248 26.6263 75.1248 28.1563C75.1248 29.6863 74.0148 30.7363 72.7248 30.7363ZM63.4148 23.9063C61.0648 23.9063 59.1448 25.6963 59.1448 28.1563C59.1448 30.6163 61.0648 32.4063 63.4148 32.4063C65.7648 32.4063 67.6848 30.6063 67.6848 28.1563C67.6848 25.7063 65.7648 23.9063 63.4148 23.9063ZM63.4148 30.7363C62.1248 30.7363 61.0148 29.6763 61.0148 28.1563C61.0148 26.6363 62.1248 25.5763 63.4148 25.5763C64.7048 25.5763 65.8148 26.6263 65.8148 28.1563C65.8148 29.6863 64.7048 30.7363 63.4148 30.7363ZM52.3348 25.2063V27.0063H56.6548C56.5248 28.0263 56.1848 28.7663 55.6748 29.2763C55.0448 29.9063 54.0648 30.5963 52.3448 30.5963C49.6848 30.5963 47.6048 28.4563 47.6048 25.7963C47.6048 23.1363 49.6848 20.9963 52.3448 20.9963C53.7748 20.9963 54.8248 21.5563 55.5948 22.2863L56.8648 21.0163C55.7848 19.9863 54.3548 19.1963 52.3348 19.1963C48.6948 19.1963 45.6348 22.1563 45.6348 25.8063C45.6348 29.4563 48.6948 32.4163 52.3348 32.4163C54.3048 32.4163 55.7848 31.7763 56.9448 30.5663C58.1348 29.3763 58.5048 27.6963 58.5048 26.3463C58.5048 25.9263 58.4748 25.5363 58.4048 25.2163H52.3348V25.2063ZM97.6448 26.6063C97.2948 25.6563 96.2148 23.8963 94.0048 23.8963C91.7948 23.8963 89.9948 25.6163 89.9948 28.1463C89.9948 30.5263 91.7948 32.3963 94.2148 32.3963C96.1648 32.3963 97.2948 31.2063 97.7548 30.5163L96.3048 29.5463C95.8248 30.2563 95.1648 30.7263 94.2148 30.7263C93.2648 30.7263 92.5848 30.2863 92.1548 29.4363L97.8448 27.0863L97.6548 26.6063H97.6448ZM91.8448 28.0263C91.7948 26.3863 93.1148 25.5463 94.0648 25.5463C94.8048 25.5463 95.4348 25.9163 95.6448 26.4463L91.8448 28.0263ZM87.2248 32.1463H89.0948V19.6463H87.2248V32.1463ZM84.1648 24.8463H84.1048C83.6848 24.3463 82.8848 23.8963 81.8648 23.8963C79.7348 23.8963 77.7848 25.7663 77.7848 28.1663C77.7848 30.5663 79.7348 32.4063 81.8648 32.4063C82.8848 32.4063 83.6848 31.9563 84.1048 31.4363H84.1648V32.0463C84.1648 33.6763 83.2948 34.5463 81.8948 34.5463C80.7548 34.5463 80.0448 33.7263 79.7548 33.0363L78.1248 33.7163C78.5948 34.8463 79.8348 36.2263 81.8948 36.2263C84.0848 36.2263 85.9348 34.9363 85.9348 31.7963V24.1563H84.1648V24.8463ZM82.0248 30.7263C80.7348 30.7263 79.6548 29.6463 79.6548 28.1663C79.6548 26.6863 80.7348 25.5763 82.0248 25.5763C83.3148 25.5763 84.2948 26.6763 84.2948 28.1663C84.2948 29.6563 83.2948 30.7263 82.0248 30.7263ZM106.405 19.6463H101.935V32.1463H103.805V27.4063H106.415C108.485 27.4063 110.515 25.9063 110.515 23.5263C110.515 21.1463 108.485 19.6463 106.415 19.6463H106.405ZM106.455 25.6763H103.805V21.3863H106.455C107.855 21.3863 108.645 22.5463 108.645 23.5263C108.645 24.5063 107.855 25.6663 106.455 25.6663V25.6763ZM117.985 23.8763C116.635 23.8763 115.235 24.4763 114.655 25.7863L116.315 26.4763C116.665 25.7863 117.325 25.5563 118.015 25.5563C118.975 25.5563 119.965 26.1363 119.975 27.1663V27.2963C119.635 27.1063 118.915 26.8163 118.025 26.8163C116.235 26.8163 114.425 27.7963 114.425 29.6263C114.425 31.2963 115.885 32.3763 117.525 32.3763C118.775 32.3763 119.475 31.8163 119.905 31.1563H119.965V32.1263H121.765V27.3363C121.765 25.1163 120.105 23.8763 117.965 23.8763H117.985ZM117.755 30.7263C117.145 30.7263 116.295 30.4163 116.295 29.6663C116.295 28.7063 117.355 28.3363 118.275 28.3363C119.095 28.3363 119.485 28.5163 119.975 28.7563C119.835 29.9163 118.835 30.7363 117.755 30.7363V30.7263ZM128.335 24.1463L126.195 29.5663H126.135L123.915 24.1463H121.905L125.235 31.7263L123.335 35.9363H125.285L130.415 24.1463H128.345H128.335ZM111.525 32.1463H113.395V19.6463H111.525V32.1463Z"
        fill="#D63900" />
    <path
        d="M15.1521 34.8805C14.7538 34.6816 14.5547 34.1844 14.5547 33.6871C14.5547 33.5876 14.5547 33.3888 14.5547 33.2893C14.5547 25.9302 14.5547 18.5709 14.5547 11.3112C14.5547 10.9134 14.6542 10.6151 14.7538 10.2173C14.8534 10.0183 15.0525 9.81948 15.2517 9.62061C19.533 13.8969 23.7147 18.1731 27.8964 22.4494C23.6151 26.4273 19.4334 30.6042 15.1521 34.8805Z"
        fill="#D63900" />
    <path
        d="M32.078 18.0739C30.8832 19.2673 29.5889 20.4606 28.3941 21.7535C24.4115 17.6761 20.3293 13.5987 16.3467 9.52131C16.3467 9.52131 16.3467 9.42188 16.4462 9.42188C21.6237 12.3059 26.801 15.1899 32.078 18.0739Z"
        fill="#D63900" />
    <path
        d="M16.3467 34.8803C20.3293 30.9024 24.4115 26.9245 28.3941 22.9465C29.4893 24.0404 30.6841 25.1344 31.9785 26.3278C26.8011 29.2118 21.6237 32.0958 16.4462 34.8803H16.3467Z"
        fill="#D63900" />
    <path
        d="M32.6741 25.93C31.3797 24.7367 30.185 23.5433 28.8906 22.35C30.185 21.0571 31.4793 19.7643 32.7736 18.4714C33.1719 18.6703 33.5702 18.8692 33.9685 19.1675C34.9641 19.7643 36.0593 20.2615 37.055 20.8582C37.3537 20.9576 37.5528 21.1565 37.7519 21.4549C38.1502 21.9521 38.1502 22.4494 37.7519 22.9466C37.5528 23.1455 37.3537 23.3444 37.055 23.4439C35.6611 24.3389 34.1676 25.1345 32.6741 25.93Z"
        fill="#D63900" />
</svg>