<svg width="12" height="12" viewBox="0 0 12 12" fill="none" xmlns="http://www.w3.org/2000/svg">
<path d="M3.05192 11.3178V3.89023H0.583156V11.3178H3.05192ZM1.81786 2.87551C2.67876 2.87551 3.21463 2.30516 3.21463 1.59242C3.19859 0.8636 2.67879 0.309082 1.83419 0.309082C0.989728 0.309082 0.4375 0.863611 0.4375 1.59242C0.4375 2.3052 0.973237 2.87551 1.80174 2.87551H1.81778H1.81786ZM4.41837 11.3178H6.88713V7.16987C6.88713 6.94788 6.90317 6.72612 6.96837 6.56743C7.14684 6.1239 7.55305 5.66453 8.23502 5.66453C9.12837 5.66453 9.48575 6.34566 9.48575 7.34415V11.3177H11.9544V7.05883C11.9544 4.77738 10.7364 3.71585 9.11211 3.71585C7.78031 3.71585 7.19556 4.46028 6.87071 4.96731H6.88719V3.89007H4.41843C4.45082 4.58703 4.41843 11.3176 4.41843 11.3176L4.41837 11.3178Z" fill="#0D102B" fill-opacity="0.7"/>
</svg>
