<svg width="14" height="7" viewBox="0 0 14 7" fill="none" xmlns="http://www.w3.org/2000/svg">
<path d="M1.5577 3.49995C1.5577 2.35115 2.49153 1.41732 3.64033 1.41732H6.3276V0.140869H3.64033C1.78612 0.140869 0.28125 1.64574 0.28125 3.49995C0.28125 5.35417 1.78612 6.85904 3.64033 6.85904H6.3276V5.58259H3.64033C2.49153 5.58259 1.5577 4.64876 1.5577 3.49995ZM4.31215 4.17177H9.68669V2.82814H4.31215V4.17177ZM10.3585 0.140869H7.67124V1.41732H10.3585C11.5073 1.41732 12.4411 2.35115 12.4411 3.49995C12.4411 4.64876 11.5073 5.58259 10.3585 5.58259H7.67124V6.85904H10.3585C12.2127 6.85904 13.7176 5.35417 13.7176 3.49995C13.7176 1.64574 12.2127 0.140869 10.3585 0.140869Z" fill="#0D102B" fill-opacity="0.7"/>
</svg>
