<svg width="12" height="11" viewBox="0 0 12 11" fill="none" xmlns="http://www.w3.org/2000/svg">
<path d="M11.5353 2.01039C11.1215 2.19401 10.677 2.31814 10.2097 2.37394C10.6867 2.08835 11.052 1.63579 11.2245 1.09717C10.7715 1.36625 10.2757 1.55568 9.75864 1.65724C9.33787 1.20873 8.73786 0.928711 8.07403 0.928711C6.79986 0.928711 5.7665 1.96165 5.7665 3.23657C5.7665 3.41722 5.78684 3.59345 5.82596 3.76265C3.90786 3.66625 2.20734 2.74746 1.06909 1.35136C0.870336 1.69233 0.756571 2.08876 0.756571 2.51174C0.756571 3.31233 1.16406 4.01869 1.78323 4.43246C1.41669 4.4211 1.0582 4.32217 0.737714 4.14392V4.17309C0.737714 5.29138 1.53312 6.22384 2.58897 6.43591C2.39501 6.48905 2.19146 6.51682 1.98088 6.51682C1.83199 6.51682 1.68754 6.50273 1.54643 6.47618C1.84013 7.39277 2.69246 8.05996 3.70207 8.07882C2.91221 8.69799 1.91695 9.06707 0.835989 9.06707C0.649806 9.06707 0.465798 9.05596 0.285156 9.03419C1.30666 9.68919 2.51953 10.0716 3.8229 10.0716C8.06775 10.0716 10.3893 6.55489 10.3893 3.50518C10.3893 3.40506 10.3871 3.30568 10.3823 3.20667C10.8346 2.87951 11.225 2.47443 11.5353 2.01039Z" fill="#0D102B" fill-opacity="0.7"/>
</svg>
