<svg id="ebJ3ZqH7pWA1" xmlns="http://www.w3.org/2000/svg" xmlns:xlink="http://www.w3.org/1999/xlink" viewBox="0 0 271 75" shape-rendering="geometricPrecision" text-rendering="geometricPrecision"><path id="ebJ3ZqH7pWA2" d="M5.36354,11h-1.778L0.869539,1.76h1.624001l2.016,8.05l2.03-8.05h1.54L10.1235,9.824l2.03-8.064h1.54L10.9915,11h-1.76396l-1.47-5.544-.462-2.128h-.014l-.462,2.128L5.36354,11ZM15.9991,2.824c-.3174,0-.5647-.07933-.742-.238-.1774-.168-.266-.40133-.266-.7s.0886-.52733.266-.686.4246-.238.742-.238.56.07933.728.238c.1773.15867.266.38733.266.686s-.0887.532-.266.7c-.168.15867-.4107.238-.728.238ZM16.7411,11h-1.498v-7h1.498v7Zm6.8798-.462c-.224.1867-.4994.336-.826.448-.3174.1027-.6627.154-1.036.154-.644,0-1.162-.1587-1.554-.476-.3827-.3267-.5787-.83067-.588-1.512v-3.976h-1.33v-1.176h1.33v-1.638l1.498-.42v2.058h2.45v1.176h-2.45v3.724c0,.336.0886.588.266.756.1866.15867.4386.238.756.238.4293,0,.8073-.14933,1.134-.448l.35,1.092ZM28.8391,3.86c.7747,0,1.4047.224,1.89.672.4947.448.742,1.092.742,1.932v4.536h-1.498v-4.06c0-1.232-.4993-1.848-1.498-1.848-.5226,0-.9706.182-1.344.546s-.56.91933-.56,1.666v3.696h-1.498v-10.15h1.498v4.27c.2334-.42933.5414-.74667.924-.952.392-.20533.84-.308,1.344-.308Zm15.5027,6.16c.2054,0,.378-.0187.518-.056l-.098,1.008c-.252.112-.5413.168-.868.168-.4013,0-.7233-.0793-.966-.238-.2333-.1587-.3873-.4247-.462-.798-.2146.3267-.532.5833-.952.77-.42.1773-.8913.266-1.414.266-.6813,0-1.232-.1587-1.652-.476s-.63-.77-.63-1.358c0-.55067.2287-1.01267.686-1.386.4574-.38267,1.1387-.65333,2.044-.812l1.778-.308v-.378c0-.42933-.126-.76533-.378-1.008-.252-.252-.602-.378-1.05-.378-.924,0-1.526.42-1.806,1.26l-1.162-.616c.168-.56.5087-1.00333,1.022-1.33.5227-.32667,1.162-.49,1.918-.49.9054,0,1.624.21,2.156.63s.798,1.036.798,1.848v3.164c0,.17733.0374.308.112.392.084.084.2194.126.406.126Zm-3.92-.014c.504,0,.9474-.12133,1.33-.364s.574-.56467.574-.966v-.84l-1.526.308c-.4853.09333-.8446.224-1.078.392s-.35.392-.35.672c0,.26133.0887.462.266.602.1867.13067.448.196.784.196ZM49.3445,3.86c1.5307,0,2.5434.65333,3.038,1.96l-1.4.56c-.2426-.88667-.7886-1.33-1.638-1.33-.6253,0-1.1106.21467-1.456.644s-.518,1.036-.518,1.82.1727,1.386.518,1.806.8307.63,1.456.63c.476,0,.8587-.11667,1.148-.35.2894-.23333.4807-.56933.574-1.008l1.372.462c-.2053.65333-.5693,1.1667-1.092,1.54-.5226.364-1.1806.546-1.974.546-1.1013,0-1.9646-.322-2.59-.966-.616-.644-.924-1.53533-.924-2.674s.308-2.03.924-2.674s1.47-.966,2.562-.966Zm7.9297,0c1.5307,0,2.5434.65333,3.038,1.96l-1.4.56c-.2426-.88667-.7886-1.33-1.638-1.33-.6253,0-1.1106.21467-1.456.644-.3453.42933-.518,1.036-.518,1.82s.1727,1.386.518,1.806c.3454.42.8307.63,1.456.63.476,0,.8587-.11667,1.148-.35.2894-.23333.4807-.56933.574-1.008l1.372.462c-.2053.65333-.5693,1.1667-1.092,1.54-.5226.364-1.1806.546-1.974.546-1.1013,0-1.9646-.322-2.59-.966-.616-.644-.924-1.53533-.924-2.674s.308-2.03.924-2.674s1.47-.966,2.562-.966ZM68.4659,4v7h-1.33l-.056-1.134c-.476.8493-1.3067,1.274-2.492,1.274-.756,0-1.3673-.2053-1.834-.616-.4573-.42-.686-1.05933-.686-1.918v-4.606h1.498v4.214c0,.616.1213,1.05467.364,1.316.2427.252.602.378,1.078.378.5693,0,1.036-.17733,1.4-.532.3733-.364.56-.896.56-1.596v-3.78h1.498Zm5.938-.14c.3266,0,.5833.04667.77.14l-.238,1.372c-.2147-.12133-.5087-.182-.882-.182-.2987,0-.5834.07933-.854.238-.2614.15867-.4807.39667-.658.714-.168.31733-.252.7-.252,1.148v3.71h-1.498v-7h1.274l.126,1.26c.392-.93333,1.1293-1.4,2.212-1.4Zm8.0825,6.16c.2053,0,.378-.0187.518-.056l-.098,1.008c-.252.112-.5414.168-.868.168-.4014,0-.7234-.0793-.966-.238-.2334-.1587-.3874-.4247-.462-.798-.2147.3267-.532.5833-.952.77-.42.1773-.8914.266-1.414.266-.6814,0-1.232-.1587-1.652-.476s-.63-.77-.63-1.358c0-.55067.2286-1.01267.686-1.386.4573-.38267,1.1386-.65333,2.044-.812l1.778-.308v-.378c0-.42933-.126-.76533-.378-1.008-.252-.252-.602-.378-1.05-.378-.924,0-1.526.42-1.806,1.26l-1.162-.616c.168-.56.5086-1.00333,1.022-1.33.5226-.32667,1.162-.49,1.918-.49.9053,0,1.624.21,2.156.63s.798,1.036.798,1.848v3.164c0,.17733.0373.308.112.392.084.084.2193.126.406.126Zm-3.92-.014c.504,0,.9473-.12133,1.33-.364.3826-.24267.574-.56467.574-.966v-.84l-1.526.308c-.4854.09333-.8447.224-1.078.392-.2334.168-.35.392-.35.672c0,.26133.0886.462.266.602.1866.13067.448.196.784.196Zm10.1189.532c-.224.1867-.4993.336-.826.448-.3173.1027-.6627.154-1.036.154-.644,0-1.162-.1587-1.554-.476-.3827-.3267-.5787-.83067-.588-1.512v-3.976h-1.33v-1.176h1.33v-1.638l1.498-.42v2.058h2.45v1.176h-2.45v3.724c0,.336.0887.588.266.756.1867.15867.4387.238.756.238.4293,0,.8073-.14933,1.134-.448l.35,1.092ZM96.3409,7.29c0,.27067-.0187.52733-.056.77h-5.124c.084.616.3033,1.08733.658,1.414.3547.31733.812.476,1.372.476.4573,0,.8353-.07933,1.134-.238.308-.168.518-.406.63-.714l1.246.518c-.5227,1.0827-1.526,1.624-3.01,1.624-1.1013,0-1.9647-.322-2.59-.966-.616-.644-.924-1.53533-.924-2.674c0-1.148.2987-2.03933.896-2.674.5973-.644,1.4373-.966,2.52-.966c1.0267,0,1.8247.31267,2.394.938s.854,1.456.854,2.492Zm-3.248-2.24c-.5413,0-.98.15867-1.316.476-.3267.31733-.532.77933-.616,1.386h3.78c-.0747-.588-.2753-1.04533-.602-1.372-.3173-.32667-.7327-.49-1.246-.49ZM108.603,4l-2.786,7h-1.638l-2.8-7h1.652l1.974,5.782L107.035,4h1.568Zm2.033-1.176c-.318,0-.565-.07933-.742-.238-.178-.168-.266-.40133-.266-.7s.088-.52733.266-.686c.177-.15867.424-.238.742-.238.317,0,.56.07933.728.238.177.15867.266.38733.266.686s-.089.532-.266.7c-.168.15867-.411.238-.728.238ZM111.378,11h-1.498v-7h1.498v7Zm4.878.14c-.71,0-1.34-.1213-1.89-.364-.542-.2427-.952-.6113-1.232-1.106l1.008-.868c.177.40133.452.69533.826.882.373.18667.821.28,1.344.28.476,0,.844-.07467,1.106-.224.261-.15867.392-.364.392-.616c0-.224-.122-.40133-.364-.532-.243-.14-.663-.27067-1.26-.392-1.036-.196-1.764-.45733-2.184-.784s-.63-.78867-.63-1.386c0-.38267.116-.73733.35-1.064.233-.336.569-.602,1.008-.798.448-.20533.975-.308,1.582-.308.774,0,1.395.13067,1.862.392.466.252.826.64867,1.078,1.19l-1.064.784c-.168-.41067-.406-.70933-.714-.896-.299-.196-.682-.294-1.148-.294-.42,0-.77.08867-1.05.266-.271.168-.406.364-.406.588c0,.252.121.45267.364.602.252.14933.704.28467,1.358.406.989.17733,1.689.42933,2.1.756.41.32667.616.784.616,1.372c0,.62533-.271,1.134-.812,1.526-.542.392-1.288.588-2.24.588Zm5.632-8.316c-.318,0-.565-.07933-.742-.238-.178-.168-.266-.40133-.266-.7s.088-.52733.266-.686c.177-.15867.424-.238.742-.238.317,0,.56.07933.728.238.177.15867.266.38733.266.686s-.089.532-.266.7c-.168.15867-.411.238-.728.238ZM122.63,11h-1.498v-7h1.498v7Zm6.88-.462c-.224.1867-.5.336-.826.448-.318.1027-.663.154-1.036.154-.644,0-1.162-.1587-1.554-.476-.383-.3267-.579-.83067-.588-1.512v-3.976h-1.33v-1.176h1.33v-1.638l1.498-.42v2.058h2.45v1.176h-2.45v3.724c0,.336.088.588.266.756.186.15867.438.238.756.238.429,0,.807-.14933,1.134-.448l.35,1.092Zm4.477-6.678c1.092,0,1.946.322,2.562.966s.924,1.53533.924,2.674-.308,2.03-.924,2.674-1.47.966-2.562.966-1.946-.322-2.562-.966-.924-1.53533-.924-2.674.308-2.03.924-2.674s1.47-.966,2.562-.966Zm0,1.176c-.635,0-1.125.21467-1.47.644-.336.42-.504,1.02667-.504,1.82s.168,1.40467.504,1.834c.345.42.835.63,1.47.63s1.125-.21467,1.47-.644.518-1.036.518-1.82-.173-1.39067-.518-1.82-.835-.644-1.47-.644Zm9.022-1.176c.327,0,.584.04667.77.14l-.238,1.372c-.214-.12133-.508-.182-.882-.182-.298,0-.583.07933-.854.238-.261.15867-.48.39667-.658.714-.168.31733-.252.7-.252,1.148v3.71h-1.498v-7h1.274l.126,1.26c.392-.93333,1.13-1.4,2.212-1.4ZM146.793,11h-1.498v-9.24h1.498v9.24Zm6.002-9.24c1.456,0,2.585.40133,3.388,1.204s1.204,1.94133,1.204,3.416-.401,2.61333-1.204,3.416-1.932,1.204-3.388,1.204h-3.262v-9.24h3.262Zm0,7.966c.971,0,1.717-.28933,2.24-.868.523-.588.784-1.414.784-2.478s-.261-1.88533-.784-2.464c-.523-.588-1.269-.882-2.24-.882h-1.764v6.692h1.764ZM167.718,3.86c.775,0,1.405.224,1.89.672.495.448.742,1.092.742,1.932v4.536h-1.498v-4.06c0-1.232-.499-1.848-1.498-1.848-.523,0-.971.182-1.344.546s-.56.91933-.56,1.666v3.696h-1.498v-10.15h1.498v4.27c.233-.42933.541-.74667.924-.952.392-.20533.84-.308,1.344-.308Zm5.658-1.036c-.317,0-.565-.07933-.742-.238-.177-.168-.266-.40133-.266-.7s.089-.52733.266-.686.425-.238.742-.238.56.07933.728.238c.177.15867.266.38733.266.686s-.089.532-.266.7c-.168.15867-.411.238-.728.238ZM174.118,11h-1.498v-7h1.498v7Zm4.878.14c-.71,0-1.34-.1213-1.89-.364-.542-.2427-.952-.6113-1.232-1.106l1.008-.868c.177.40133.452.69533.826.882.373.18667.821.28,1.344.28.476,0,.844-.07467,1.106-.224.261-.15867.392-.364.392-.616c0-.224-.122-.40133-.364-.532-.243-.14-.663-.27067-1.26-.392-1.036-.196-1.764-.45733-2.184-.784s-.63-.78867-.63-1.386c0-.38267.116-.73733.35-1.064.233-.336.569-.602,1.008-.798.448-.20533.975-.308,1.582-.308.774,0,1.395.13067,1.862.392.466.252.826.64867,1.078,1.19l-1.064.784c-.168-.41067-.406-.70933-.714-.896-.299-.196-.682-.294-1.148-.294-.42,0-.77.08867-1.05.266-.271.168-.406.364-.406.588c0,.252.121.45267.364.602.252.14933.704.28467,1.358.406.989.17733,1.689.42933,2.1.756.41.32667.616.784.616,1.372c0,.62533-.271,1.134-.812,1.526-.542.392-1.288.588-2.24.588Zm9.412-.602c-.224.1867-.499.336-.826.448-.317.1027-.663.154-1.036.154-.644,0-1.162-.1587-1.554-.476-.383-.3267-.579-.83067-.588-1.512v-3.976h-1.33v-1.176h1.33v-1.638l1.498-.42v2.058h2.45v1.176h-2.45v3.724c0,.336.089.588.266.756.187.15867.439.238.756.238.429,0,.807-.14933,1.134-.448l.35,1.092Zm4.478-6.678c1.092,0,1.946.322,2.562.966s.924,1.53533.924,2.674-.308,2.03-.924,2.674-1.47.966-2.562.966-1.946-.322-2.562-.966-.924-1.53533-.924-2.674.308-2.03.924-2.674s1.47-.966,2.562-.966Zm0,1.176c-.635,0-1.125.21467-1.47.644-.336.42-.504,1.02667-.504,1.82s.168,1.40467.504,1.834c.345.42.835.63,1.47.63.634,0,1.124-.21467,1.47-.644.345-.42933.518-1.036.518-1.82s-.173-1.39067-.518-1.82c-.346-.42933-.836-.644-1.47-.644Zm9.022-1.176c.326,0,.583.04667.77.14l-.238,1.372c-.215-.12133-.509-.182-.882-.182-.299,0-.584.07933-.854.238-.262.15867-.481.39667-.658.714-.168.31733-.252.7-.252,1.148v3.71h-1.498v-7h1.274l.126,1.26c.392-.93333,1.129-1.4,2.212-1.4Zm5.419,7.966c-.308.8027-.658,1.3673-1.05,1.694s-.906.49-1.54.49c-.364,0-.682-.0467-.952-.14-.262-.084-.495-.224-.7-.42l.434-1.148c.28.336.662.504,1.148.504.28,0,.513-.0747.7-.224.196-.14.368-.4013.518-.784l.308-.756-.728-1.736L203.281,4h1.68l1.54,4.396.406,1.316.476-1.442L208.839,4h1.554l-3.066,7.826Zm4.125-2.716c.373,0,.663.14.868.42.215.27067.322.6253.322,1.064c0,.532-.14,1.0173-.42,1.456-.28.448-.691.798-1.232,1.05l-.728-.616c.383-.1307.705-.3267.966-.588.261-.252.434-.5367.518-.854l-.07-.028c-.075.0747-.205.112-.392.112-.233,0-.443-.084-.63-.252-.177-.1773-.266-.42-.266-.728c0-.29867.103-.546.308-.742s.457-.294.756-.294Zm10.572,2.716c-.308.8027-.658,1.3673-1.05,1.694s-.905.49-1.54.49c-.364,0-.681-.0467-.952-.14-.261-.084-.495-.224-.7-.42l.434-1.148c.28.336.663.504,1.148.504.28,0,.513-.0747.7-.224.196-.14.369-.4013.518-.784l.308-.756-.728-1.736L217.978,4h1.68l1.54,4.396.406,1.316.476-1.442L223.536,4h1.554l-3.066,7.826Zm7.447-7.966c1.092,0,1.946.322,2.562.966s.924,1.53533.924,2.674-.308,2.03-.924,2.674-1.47.966-2.562.966-1.946-.322-2.562-.966-.924-1.53533-.924-2.674.308-2.03.924-2.674s1.47-.966,2.562-.966Zm0,1.176c-.634,0-1.124.21467-1.47.644-.336.42-.504,1.02667-.504,1.82s.168,1.40467.504,1.834c.346.42.836.63,1.47.63.635,0,1.125-.21467,1.47-.644.346-.42933.518-1.036.518-1.82s-.172-1.39067-.518-1.82c-.345-.42933-.835-.644-1.47-.644ZM241.224,4v7h-1.33l-.056-1.134c-.476.8493-1.307,1.274-2.492,1.274-.756,0-1.368-.2053-1.834-.616-.458-.42-.686-1.05933-.686-1.918v-4.606h1.498v4.214c0,.616.121,1.05467.364,1.316.242.252.602.378,1.078.378.569,0,1.036-.17733,1.4-.532.373-.364.56-.896.56-1.596v-3.78h1.498Zm9.958-.14c1.531,0,2.544.65333,3.038,1.96l-1.4.56c-.242-.88667-.788-1.33-1.638-1.33-.625,0-1.11.21467-1.456.644-.345.42933-.518,1.036-.518,1.82s.173,1.386.518,1.806c.346.42.831.63,1.456.63.476,0,.859-.11667,1.148-.35.29-.23333.481-.56933.574-1.008l1.372.462c-.205.65333-.569,1.1667-1.092,1.54-.522.364-1.18.546-1.974.546-1.101,0-1.964-.322-2.59-.966-.616-.644-.924-1.53533-.924-2.674s.308-2.03.924-2.674s1.47-.966,2.562-.966Zm10.898,6.16c.205,0,.378-.0187.518-.056l-.098,1.008c-.252.112-.541.168-.868.168-.401,0-.723-.0793-.966-.238-.233-.1587-.387-.4247-.462-.798-.215.3267-.532.5833-.952.77-.42.1773-.891.266-1.414.266-.681,0-1.232-.1587-1.652-.476s-.63-.77-.63-1.358c0-.55067.229-1.01267.686-1.386.457-.38267,1.139-.65333,2.044-.812l1.778-.308v-.378c0-.42933-.126-.76533-.378-1.008-.252-.252-.602-.378-1.05-.378-.924,0-1.526.42-1.806,1.26l-1.162-.616c.168-.56.509-1.00333,1.022-1.33.523-.32667,1.162-.49,1.918-.49.905,0,1.624.21,2.156.63s.798,1.036.798,1.848v3.164c0,.17733.037.308.112.392.084.084.219.126.406.126Zm-3.92-.014c.504,0,.947-.12133,1.33-.364s.574-.56467.574-.966v-.84l-1.526.308c-.485.09333-.845.224-1.078.392s-.35.392-.35.672c0,.26133.089.462.266.602.187.13067.448.196.784.196Zm9.622-6.146c.775,0,1.405.224,1.89.672.495.448.742,1.092.742,1.932v4.536h-1.498v-4.06c0-1.232-.499-1.848-1.498-1.848-.522,0-.97.182-1.344.546-.373.35467-.56.90533-.56,1.652v3.71h-1.498v-7h1.33l.07,1.162c.234-.43867.556-.76533.966-.98.411-.21467.878-.322,1.4-.322Zm-240.4902,21c1.5307,0,2.5433.6533,3.038,1.96l-1.4.56c-.2427-.8867-.7887-1.33-1.638-1.33-.6253,0-1.1107.2147-1.456.644s-.518,1.036-.518,1.82.1727,1.386.518,1.806.8307.63,1.456.63c.476,0,.8587-.1167,1.148-.35s.4807-.5693.574-1.008l1.372.462c-.2053.6533-.5693,1.1667-1.092,1.54-.5227.364-1.1807.546-1.974.546-1.1013,0-1.9647-.322-2.59-.966-.616-.644-.924-1.5353-.924-2.674s.308-2.03.924-2.674s1.47-.966,2.562-.966Zm8.6157,0c.7747,0,1.4047.224,1.89.672.4947.448.742,1.092.742,1.932v4.536h-1.498v-4.06c0-1.232-.4993-1.848-1.498-1.848-.5227,0-.9707.182-1.344.546s-.56.9193-.56,1.666v3.696h-1.498v-10.15h1.498v4.27c.2333-.4293.5413-.7467.924-.952.392-.2053.84-.308,1.344-.308Zm10.95,6.16c.2053,0,.378-.0187.518-.056l-.098,1.008c-.252.112-.5414.168-.868.168-.4014,0-.7234-.0793-.966-.238-.2334-.1587-.3874-.4247-.462-.798-.2147.3267-.532.5833-.952.77-.42.1773-.8914.266-1.414.266-.6814,0-1.232-.1587-1.652-.476s-.63-.77-.63-1.358c0-.5507.2286-1.0127.686-1.386.4573-.3827,1.1386-.6533,2.044-.812l1.778-.308v-.378c0-.4293-.126-.7653-.378-1.008-.252-.252-.602-.378-1.05-.378-.924,0-1.526.42-1.806,1.26l-1.162-.616c.168-.56.5086-1.0033,1.022-1.33.5226-.3267,1.162-.49,1.918-.49.9053,0,1.624.21,2.156.63s.798,1.036.798,1.848v3.164c0,.1773.0373.308.112.392.084.084.2193.126.406.126Zm-3.92-.014c.504,0,.9473-.1213,1.33-.364s.574-.5647.574-.966v-.84l-1.526.308c-.4854.0933-.8447.224-1.078.392s-.35.392-.35.672c0,.2613.0886.462.266.602.1866.1307.448.196.784.196Zm7.3123-1.05c0,.3453.0514.588.154.728.1027.1307.294.196.574.196.1774,0,.3267-.0093.448-.028.1307-.028.2894-.0793.476-.154l-.168,1.204c-.3173.1587-.7046.238-1.162.238-.6253,0-1.0873-.1587-1.386-.476-.2893-.3173-.434-.8167-.434-1.498v-8.316h1.498v8.106Zm4.3614,0c0,.3453.0513.588.154.728.1026.1307.294.196.574.196.1773,0,.3266-.0093.448-.028.1306-.028.2893-.0793.476-.154l-.168,1.204c-.3174.1587-.7047.238-1.162.238-.6254,0-1.0874-.1587-1.386-.476-.2894-.3173-.434-.8167-.434-1.498v-8.316h1.498v8.106Zm9.1633-1.666c0,.2707-.0187.5273-.056.77h-5.124c.084.616.3033,1.0873.658,1.414.3547.3173.812.476,1.372.476.4573,0,.8353-.0793,1.134-.238.308-.168.518-.406.63-.714l1.246.518c-.5227,1.0827-1.526,1.624-3.01,1.624-1.1013,0-1.9647-.322-2.59-.966-.616-.644-.924-1.5353-.924-2.674c0-1.148.2987-2.0393.896-2.674.5973-.644,1.4373-.966,2.52-.966c1.0267,0,1.8247.3127,2.394.938s.854,1.456.854,2.492Zm-3.248-2.24c-.5413,0-.98.1587-1.316.476-.3267.3173-.532.7793-.616,1.386h3.78c-.0747-.588-.2753-1.0453-.602-1.372-.3173-.3267-.7327-.49-1.246-.49Zm8.8908-1.19c.7746,0,1.4046.224,1.89.672.4946.448.742,1.092.742,1.932v4.536h-1.498v-4.06c0-1.232-.4994-1.848-1.498-1.848-.5227,0-.9707.182-1.344.546-.3734.3547-.56.9053-.56,1.652v3.71h-1.498v-7h1.33l.07,1.162c.2333-.4387.5553-.7653.966-.98.4106-.2147.8773-.322,1.4-.322Zm8.9759,6.048c.7094,0,1.26.1587,1.652.476s.588.756.588,1.316c0,.476-.1586.8867-.476,1.232-.308.3453-.7373.6113-1.288.798-.5413.1867-1.1526.28-1.834.28-1.1106,0-1.946-.1633-2.506-.49-.5506-.3267-.826-.7607-.826-1.302c0-.3173.1074-.5973.322-.84.224-.2333.532-.4013.924-.504-.2986-.14-.5366-.3173-.714-.532-.1773-.224-.266-.49-.266-.798c0-.6813.364-1.148,1.092-1.4-.3546-.2053-.6253-.4713-.812-.798-.1773-.3267-.266-.7-.266-1.12c0-.4667.126-.8773.378-1.232.252-.364.6067-.644,1.064-.84.4667-.196.9987-.294,1.596-.294.5134,0,.9847.0747,1.414.224.1307-.5133.364-.9007.7-1.162.3454-.2707.798-.4013,1.358-.392l.252,1.162c-.448-.0093-.812.0467-1.092.168-.2706.1213-.4573.3033-.56.546.308.2147.546.476.714.784s.252.6533.252,1.036c0,.7187-.28,1.2927-.84,1.722-.5506.4293-1.2833.644-2.198.644-.4293,0-.8166-.042-1.162-.126-.2333.056-.406.1493-.518.28-.1026.1213-.154.2847-.154.49c0,.2147.0747.3827.224.504.1587.112.3734.168.644.168h2.338Zm-1.372-4.998c-.4293,0-.7886.126-1.078.378-.2893.2427-.434.5553-.434.938c0,.392.1447.714.434.966.2894.2427.6487.364,1.078.364.4387,0,.798-.1213,1.078-.364.2894-.252.434-.574.434-.966s-.1446-.7093-.434-.952c-.28-.2427-.6393-.364-1.078-.364Zm.154,7.98c.6814,0,1.2134-.098,1.596-.294.3827-.196.574-.4387.574-.728c0-.2333-.0933-.4107-.28-.532-.1866-.1213-.4993-.182-.938-.182h-1.89c-.42,0-.7373.0653-.952.196-.2053.1307-.308.3127-.308.546c0,.3173.182.56.546.728.3734.1773.924.266,1.652.266Zm11.154-5.6c0,.2707-.0187.5273-.056.77h-5.124c.084.616.3033,1.0873.658,1.414.3546.3173.812.476,1.372.476.4573,0,.8353-.0793,1.134-.238.308-.168.518-.406.63-.714l1.246.518c-.5227,1.0827-1.526,1.624-3.01,1.624-1.1014,0-1.9647-.322-2.59-.966-.616-.644-.924-1.5353-.924-2.674c0-1.148.2986-2.0393.896-2.674.5973-.644,1.4373-.966,2.52-.966c1.0266,0,1.8246.3127,2.394.938.5693.6253.854,1.456.854,2.492Zm-3.248-2.24c-.5414,0-.98.1587-1.316.476-.3267.3173-.532.7793-.616,1.386h3.78c-.0747-.588-.2754-1.0453-.602-1.372-.3174-.3267-.7327-.49-1.246-.49ZM101.101,25v7h-1.3303l-.056-1.134c-.476.8493-1.3067,1.274-2.492,1.274-.756,0-1.3674-.2053-1.834-.616-.4574-.42-.686-1.0593-.686-1.918v-4.606h1.498v4.214c0,.616.1213,1.0547.364,1.316.2426.252.602.378,1.078.378.5693,0,1.036-.1773,1.4-.532.3733-.364.56-.896.56-1.596v-3.78h1.4983Zm6.092-.14c.774,0,1.404.224,1.89.672.494.448.742,1.092.742,1.932v4.536h-1.498v-4.06c0-1.232-.5-1.848-1.498-1.848-.523,0-.971.182-1.344.546-.374.3547-.56.9053-.56,1.652v3.71h-1.498v-7h1.33l.07,1.162c.233-.4387.555-.7653.966-.98.41-.2147.877-.322,1.4-.322Zm9.356,6.678c-.224.1867-.5.336-.826.448-.318.1027-.663.154-1.036.154-.644,0-1.162-.1587-1.554-.476-.383-.3267-.579-.8307-.588-1.512v-3.976h-1.33v-1.176h1.33v-1.638l1.498-.42v2.058h2.45v1.176h-2.45v3.724c0,.336.088.588.266.756.186.1587.438.238.756.238.429,0,.807-.1493,1.134-.448l.35,1.092Zm5.009-6.678c.327,0,.584.0467.77.14l-.238,1.372c-.214-.1213-.508-.182-.882-.182-.298,0-.583.0793-.854.238-.261.1587-.48.3967-.658.714-.168.3173-.252.7-.252,1.148v3.71h-1.498v-7h1.274l.126,1.26c.392-.9333,1.13-1.4,2.212-1.4Zm8.527.14v7h-1.33l-.056-1.134c-.476.8493-1.307,1.274-2.492,1.274-.756,0-1.367-.2053-1.834-.616-.457-.42-.686-1.0593-.686-1.918v-4.606h1.498v4.214c0,.616.121,1.0547.364,1.316.243.252.602.378,1.078.378.569,0,1.036-.1773,1.4-.532.373-.364.56-.896.56-1.596v-3.78h1.498Zm4.86,7.14c-.709,0-1.339-.1213-1.89-.364-.541-.2427-.952-.6113-1.232-1.106l1.008-.868c.177.4013.453.6953.826.882s.821.28,1.344.28c.476,0,.845-.0747,1.106-.224.261-.1587.392-.364.392-.616c0-.224-.121-.4013-.364-.532-.243-.14-.663-.2707-1.26-.392-1.036-.196-1.764-.4573-2.184-.784s-.63-.7887-.63-1.386c0-.3827.117-.7373.35-1.064.233-.336.569-.602,1.008-.798.448-.2053.975-.308,1.582-.308.775,0,1.395.1307,1.862.392.467.252.826.6487,1.078,1.19l-1.064.784c-.168-.4107-.406-.7093-.714-.896-.299-.196-.681-.294-1.148-.294-.42,0-.77.0887-1.05.266-.271.168-.406.364-.406.588c0,.252.121.4527.364.602.252.1493.705.2847,1.358.406.989.1773,1.689.4293,2.1.756s.616.784.616,1.372c0,.6253-.271,1.134-.812,1.526s-1.288.588-2.24.588Zm9.412-.602c-.224.1867-.499.336-.826.448-.317.1027-.662.154-1.036.154-.644,0-1.162-.1587-1.554-.476-.382-.3267-.578-.8307-.588-1.512v-3.976h-1.33v-1.176h1.33v-1.638l1.498-.42v2.058h2.45v1.176h-2.45v3.724c0,.336.089.588.266.756.187.1587.439.238.756.238.43,0,.808-.1493,1.134-.448l.35,1.092Zm7.656-3.248c0,.2707-.019.5273-.056.77h-5.124c.084.616.303,1.0873.658,1.414.354.3173.812.476,1.372.476.457,0,.835-.0793,1.134-.238.308-.168.518-.406.63-.714l1.246.518c-.523,1.0827-1.526,1.624-3.01,1.624-1.102,0-1.965-.322-2.59-.966-.616-.644-.924-1.5353-.924-2.674c0-1.148.298-2.0393.896-2.674.597-.644,1.437-.966,2.52-.966c1.026,0,1.824.3127,2.394.938.569.6253.854,1.456.854,2.492Zm-3.248-2.24c-.542,0-.98.1587-1.316.476-.327.3173-.532.7793-.616,1.386h3.78c-.075-.588-.276-1.0453-.602-1.372-.318-.3267-.733-.49-1.246-.49Zm11.607-4.2v10.15h-1.316l-.084-1.246c-.206.42-.518.756-.938,1.008-.411.252-.882.378-1.414.378-.962,0-1.722-.3173-2.282-.952-.551-.644-.826-1.5353-.826-2.674s.275-2.03.826-2.674c.56-.6533,1.32-.98,2.282-.98.513,0,.966.1167,1.358.35.392.224.69.532.896.924v-4.284h1.498Zm-3.416,9.086c.588,0,1.054-.21,1.4-.63.345-.42.518-.994.518-1.722v-.168c0-.728-.173-1.2973-.518-1.708-.346-.42-.812-.63-1.4-.63-.607,0-1.083.2147-1.428.644-.336.42-.504,1.0127-.504,1.778s.168,1.3627.504,1.792c.345.4293.821.644,1.428.644Zm14.608.602c-.224.1867-.499.336-.826.448-.317.1027-.662.154-1.036.154-.644,0-1.162-.1587-1.554-.476-.382-.3267-.578-.8307-.588-1.512v-3.976h-1.33v-1.176h1.33v-1.638l1.498-.42v2.058h2.45v1.176h-2.45v3.724c0,.336.089.588.266.756.187.1587.439.238.756.238.43,0,.808-.1493,1.134-.448l.35,1.092Zm5.01-6.678c.326,0,.583.0467.77.14l-.238,1.372c-.215-.1213-.509-.182-.882-.182-.299,0-.584.0793-.854.238-.262.1587-.481.3967-.658.714-.168.3173-.252.7-.252,1.148v3.71h-1.498v-7h1.274l.126,1.26c.392-.9333,1.129-1.4,2.212-1.4Zm8.082,6.16c.206,0,.378-.0187.518-.056l-.098,1.008c-.252.112-.541.168-.868.168-.401,0-.723-.0793-.966-.238-.233-.1587-.387-.4247-.462-.798-.214.3267-.532.5833-.952.77-.42.1773-.891.266-1.414.266-.681,0-1.232-.1587-1.652-.476s-.63-.77-.63-1.358c0-.5507.229-1.0127.686-1.386.458-.3827,1.139-.6533,2.044-.812l1.778-.308v-.378c0-.4293-.126-.7653-.378-1.008-.252-.252-.602-.378-1.05-.378-.924,0-1.526.42-1.806,1.26l-1.162-.616c.168-.56.509-1.0033,1.022-1.33.523-.3267,1.162-.49,1.918-.49.906,0,1.624.21,2.156.63s.798,1.036.798,1.848v3.164c0,.1773.038.308.112.392.084.084.22.126.406.126Zm-3.92-.014c.504,0,.948-.1213,1.33-.364.383-.2427.574-.5647.574-.966v-.84l-1.526.308c-.485.0933-.844.224-1.078.392-.233.168-.35.392-.35.672c0,.2613.089.462.266.602.187.1307.448.196.784.196ZM188.526,25h2.268v1.176h-2.226v5.824h-1.498v-5.824h-1.316v-1.176h1.316v-1.008c0-.7093.215-1.26.644-1.652s1.031-.588,1.806-.588c.28,0,.537.0327.77.098.233.056.415.1353.546.238l-.28,1.092c-.215-.14-.481-.21-.798-.21-.821,0-1.232.378-1.232,1.134v.896Zm4.758,0h2.268v1.176h-2.226v5.824h-1.498v-5.824h-1.316v-1.176h1.316v-1.008c0-.7093.214-1.26.644-1.652.429-.392,1.031-.588,1.806-.588.28,0,.536.0327.77.098.233.056.415.1353.546.238l-.28,1.092c-.215-.14-.481-.21-.798-.21-.822,0-1.232.378-1.232,1.134v.896Zm4.373-1.176c-.317,0-.564-.0793-.742-.238-.177-.168-.266-.4013-.266-.7s.089-.5273.266-.686c.178-.1587.425-.238.742-.238.318,0,.56.0793.728.238.178.1587.266.3873.266.686s-.088.532-.266.7c-.168.1587-.41.238-.728.238ZM198.399,32h-1.498v-7h1.498v7Zm5.424-7.14c1.531,0,2.543.6533,3.038,1.96l-1.4.56c-.243-.8867-.789-1.33-1.638-1.33-.625,0-1.111.2147-1.456.644s-.518,1.036-.518,1.82.173,1.386.518,1.806.831.63,1.456.63c.476,0,.859-.1167,1.148-.35s.481-.5693.574-1.008l1.372.462c-.205.6533-.569,1.1667-1.092,1.54-.523.364-1.181.546-1.974.546-1.101,0-1.965-.322-2.59-.966-.616-.644-.924-1.5353-.924-2.674s.308-2.03.924-2.674s1.47-.966,2.562-.966Zm19.728.14l-2.338,7h-1.638l-1.764-5.292L216.131,32h-1.638l-2.338-7h1.624l1.582,5.6l1.75-5.6h1.484l1.736,5.6l1.596-5.6h1.624Zm5.321-.14c.775,0,1.405.224,1.89.672.495.448.742,1.092.742,1.932v4.536h-1.498v-4.06c0-1.232-.499-1.848-1.498-1.848-.522,0-.97.182-1.344.546-.373.364-.56.9193-.56,1.666v3.696h-1.498v-10.15h1.498v4.27c.234-.4293.542-.7467.924-.952.392-.2053.84-.308,1.344-.308Zm5.658-1.036c-.317,0-.564-.0793-.742-.238-.177-.168-.266-.4013-.266-.7s.089-.5273.266-.686c.178-.1587.425-.238.742-.238.318,0,.56.0793.728.238.178.1587.266.3873.266.686s-.088.532-.266.7c-.168.1587-.41.238-.728.238ZM235.272,32h-1.498v-7h1.498v7Zm3.8-2.044c0,.3453.051.588.154.728.103.1307.294.196.574.196.177,0,.327-.0093.448-.028.131-.028.289-.0793.476-.154l-.168,1.204c-.317.1587-.705.238-1.162.238-.625,0-1.087-.1587-1.386-.476-.289-.3173-.434-.8167-.434-1.498v-8.316h1.498v8.106Zm9.163-1.666c0,.2707-.018.5273-.056.77h-5.124c.084.616.304,1.0873.658,1.414.355.3173.812.476,1.372.476.458,0,.836-.0793,1.134-.238.308-.168.518-.406.63-.714l1.246.518c-.522,1.0827-1.526,1.624-3.01,1.624-1.101,0-1.964-.322-2.59-.966-.616-.644-.924-1.5353-.924-2.674c0-1.148.299-2.0393.896-2.674.598-.644,1.438-.966,2.52-.966c1.027,0,1.825.3127,2.394.938.57.6253.854,1.456.854,2.492Zm-3.248-2.24c-.541,0-.98.1587-1.316.476-.326.3173-.532.7793-.616,1.386h3.78c-.074-.588-.275-1.0453-.602-1.372-.317-.3267-.732-.49-1.246-.49ZM12.6106,45.86c.9614,0,1.7174.322,2.268.966.5507.6347.826,1.5213.826,2.66s-.2753,2.0347-.826,2.688c-.5506.644-1.3066.966-2.268.966-.504,0-.9566-.112-1.358-.336-.392-.224-.6953-.532-.91-.924v4.06h-1.49798v-9.94h1.31598l.07,1.302c.2054-.4387.5134-.7887.924-1.05.42-.2613.9054-.392,1.456-.392Zm-.336,6.062c.6067,0,1.078-.21,1.414-.63.3454-.4293.518-1.0267.518-1.792s-.1726-1.3627-.518-1.792c-.336-.4293-.8073-.644-1.414-.644-.5693,0-1.0266.1913-1.372.574-.336.3827-.5226.9147-.56,1.596v.532c.0374.672.224,1.1993.56,1.582.3454.3827.8027.574,1.372.574ZM23.9073,49.29c0,.2707-.0187.5273-.056.77h-5.124c.084.616.3033,1.0873.658,1.414.3547.3173.812.476,1.372.476.4573,0,.8353-.0793,1.134-.238.308-.168.518-.406.63-.714l1.246.518c-.5227,1.0827-1.526,1.624-3.01,1.624-1.1013,0-1.9647-.322-2.59-.966-.616-.644-.924-1.5353-.924-2.674c0-1.148.2987-2.0393.896-2.674.5973-.644,1.4373-.966,2.52-.966c1.0267,0,1.8247.3127,2.394.938s.854,1.456.854,2.492Zm-3.248-2.24c-.5413,0-.98.1587-1.316.476-.3267.3173-.532.7793-.616,1.386h3.78c-.0747-.588-.2753-1.0453-.602-1.372-.3173-.3267-.7327-.49-1.246-.49Zm8.7368-1.19c.3266,0,.5833.0467.77.14l-.238,1.372c-.2147-.1213-.5087-.182-.882-.182-.2987,0-.5834.0793-.854.238-.2614.1587-.4807.3967-.658.714-.168.3173-.252.7-.252,1.148v3.71h-1.498v-7h1.274l.126,1.26c.392-.9333,1.1293-1.4,2.212-1.4Zm4.4864,7.28c-.7093,0-1.3393-.1213-1.89-.364-.5413-.2427-.952-.6113-1.232-1.106l1.008-.868c.1774.4013.4527.6953.826.882.3734.1867.8214.28,1.344.28.476,0,.8447-.0747,1.106-.224.2614-.1587.392-.364.392-.616c0-.224-.1213-.4013-.364-.532-.2426-.14-.6626-.2707-1.26-.392-1.036-.196-1.764-.4573-2.184-.784s-.63-.7887-.63-1.386c0-.3827.1167-.7373.35-1.064.2334-.336.5694-.602,1.008-.798.448-.2053.9754-.308,1.582-.308.7747,0,1.3954.1307,1.862.392.4667.252.826.6487,1.078,1.19l-1.064.784c-.168-.4107-.406-.7093-.714-.896-.2986-.196-.6813-.294-1.148-.294-.42,0-.77.0887-1.05.266-.2706.168-.406.364-.406.588c0,.252.1214.4527.364.602.252.1493.7047.2847,1.358.406.9894.1773,1.6894.4293,2.1.756s.616.784.616,1.372c0,.6253-.2706,1.134-.812,1.526s-1.288.588-2.24.588Zm7.9425-7.28c1.092,0,1.946.322,2.562.966s.924,1.5353.924,2.674-.308,2.03-.924,2.674-1.47.966-2.562.966-1.946-.322-2.562-.966-.924-1.5353-.924-2.674.308-2.03.924-2.674s1.47-.966,2.562-.966Zm0,1.176c-.6347,0-1.1247.2147-1.47.644-.336.42-.504,1.0267-.504,1.82s.168,1.4047.504,1.834c.3453.42.8353.63,1.47.63s1.1247-.2147,1.47-.644.518-1.036.518-1.82-.1727-1.3907-.518-1.82-.8353-.644-1.47-.644Zm9.1762-1.176c.7747,0,1.4047.224,1.89.672.4947.448.742,1.092.742,1.932v4.536h-1.498v-4.06c0-1.232-.4993-1.848-1.498-1.848-.5226,0-.9706.182-1.344.546-.3733.3547-.56.9053-.56,1.652v3.71h-1.498v-7h1.33l.07,1.162c.2334-.4387.5554-.7653.966-.98.4107-.2147.8774-.322,1.4-.322Zm10.95,6.16c.2053,0,.378-.0187.518-.056l-.098,1.008c-.252.112-.5413.168-.868.168-.4013,0-.7233-.0793-.966-.238-.2333-.1587-.3873-.4247-.462-.798-.2147.3267-.532.5833-.952.77-.42.1773-.8913.266-1.414.266-.6813,0-1.232-.1587-1.652-.476s-.63-.77-.63-1.358c0-.5507.2287-1.0127.686-1.386.4573-.3827,1.1387-.6533,2.044-.812l1.778-.308v-.378c0-.4293-.126-.7653-.378-1.008-.252-.252-.602-.378-1.05-.378-.924,0-1.526.42-1.806,1.26l-1.162-.616c.168-.56.5087-1.0033,1.022-1.33.5227-.3267,1.162-.49,1.918-.49.9053,0,1.624.21,2.156.63s.798,1.036.798,1.848v3.164c0,.1773.0373.308.112.392.084.084.2193.126.406.126Zm-3.92-.014c.504,0,.9473-.1213,1.33-.364s.574-.5647.574-.966v-.84l-1.526.308c-.4853.0933-.8447.224-1.078.392s-.35.392-.35.672c0,.2613.0887.462.266.602.1867.1307.448.196.784.196Zm7.3124-1.05c0,.3453.0513.588.154.728.1027.1307.294.196.574.196.1773,0,.3267-.0093.448-.028.1307-.028.2893-.0793.476-.154l-.168,1.204c-.3173.1587-.7047.238-1.162.238-.6253,0-1.0873-.1587-1.386-.476-.2893-.3173-.434-.8167-.434-1.498v-8.316h1.498v8.106Zm3.6613-6.132c-.3173,0-.5647-.0793-.742-.238-.1773-.168-.266-.4013-.266-.7s.0887-.5273.266-.686.4247-.238.742-.238.56.0793.728.238c.1773.1587.266.3873.266.686s-.0887.532-.266.7c-.168.1587-.4107.238-.728.238ZM69.7469,53h-1.498v-7h1.498v7Zm1.8958-1.036l3.402-3.948.84-.868-1.204.028h-3.01v-1.176h5.866v1.036l-3.388,3.948-.84.868l1.33-.028h3.024v1.176h-6.02v-1.036Zm8.6005-7.14c-.3173,0-.5647-.0793-.742-.238-.1773-.168-.266-.4013-.266-.7s.0887-.5273.266-.686.4247-.238.742-.238.56.0793.728.238c.1773.1587.266.3873.266.686s-.0887.532-.266.7c-.168.1587-.4107.238-.728.238ZM80.9852,53h-1.498v-7h1.498v7Zm6.1098-7.14c.7747,0,1.4047.224,1.89.672.4947.448.742,1.092.742,1.932v4.536h-1.498v-4.06c0-1.232-.4993-1.848-1.498-1.848-.5227,0-.9707.182-1.344.546-.3733.3547-.56.9053-.56,1.652v3.71h-1.498v-7h1.33l.07,1.162c.2333-.4387.5553-.7653.966-.98s.8773-.322,1.4-.322Zm8.976,6.048c.7093,0,1.26.1587,1.652.476s.588.756.588,1.316c0,.476-.1587.8867-.476,1.232-.308.3453-.7374.6113-1.288.798-.5414.1867-1.1527.28-1.834.28-1.1107,0-1.946-.1633-2.506-.49-.5507-.3267-.826-.7607-.826-1.302c0-.3173.1073-.5973.322-.84.224-.2333.532-.4013.924-.504-.2987-.14-.5367-.3173-.714-.532-.1774-.224-.266-.49-.266-.798c0-.6813.364-1.148,1.092-1.4-.3547-.2053-.6254-.4713-.812-.798-.1774-.3267-.266-.7-.266-1.12c0-.4667.126-.8773.378-1.232.252-.364.6066-.644,1.064-.84.4666-.196.9986-.294,1.596-.294.5133,0,.9846.0747,1.414.224.1306-.5133.364-.9007.7-1.162.3453-.2707.798-.4013,1.358-.392l.252,1.162c-.448-.0093-.812.0467-1.092.168-.2707.1213-.4574.3033-.56.546.308.2147.546.476.714.784s.252.6533.252,1.036c0,.7187-.28,1.2927-.84,1.722-.5507.4293-1.2834.644-2.198.644-.4294,0-.8167-.042-1.162-.126-.2334.056-.406.1493-.518.28-.1027.1213-.154.2847-.154.49c0,.2147.0746.3827.224.504.1586.112.3733.168.644.168h2.338ZM94.699,46.91c-.4294,0-.7887.126-1.078.378-.2894.2427-.434.5553-.434.938c0,.392.1446.714.434.966.2893.2427.6486.364,1.078.364.4386,0,.798-.1213,1.078-.364.2893-.252.434-.574.434-.966s-.1447-.7093-.434-.952c-.28-.2427-.6394-.364-1.078-.364Zm.154,7.98c.6813,0,1.2133-.098,1.596-.294.3826-.196.574-.4387.574-.728c0-.2333-.0934-.4107-.28-.532-.1867-.1213-.4994-.182-.938-.182h-1.89c-.42,0-.7374.0653-.952.196-.2054.1307-.308.3127-.308.546c0,.3173.182.56.546.728.3733.1773.924.266,1.652.266Zm15.707-5.6c0,.2707-.019.5273-.056.77h-5.124c.084.616.303,1.0873.658,1.414.354.3173.812.476,1.372.476.457,0,.835-.0793,1.134-.238.308-.168.518-.406.63-.714l1.246.518c-.523,1.0827-1.526,1.624-3.01,1.624-1.102,0-1.965-.322-2.59-.966-.616-.644-.924-1.5353-.924-2.674c0-1.148.298-2.0393.896-2.674.597-.644,1.437-.966,2.52-.966c1.026,0,1.824.3127,2.394.938.569.6253.854,1.456.854,2.492Zm-3.248-2.24c-.542,0-.98.1587-1.316.476-.327.3173-.532.7793-.616,1.386h3.78c-.075-.588-.276-1.0453-.602-1.372-.318-.3267-.733-.49-1.246-.49ZM116.56,53l-1.764-2.632L112.976,53h-1.694l2.632-3.528L111.422,46h1.792l1.68,2.534L116.56,46h1.722l-2.506,3.43L118.324,53h-1.764Zm7.039-7.14c.961,0,1.717.322,2.268.966.551.6347.826,1.5213.826,2.66s-.275,2.0347-.826,2.688c-.551.644-1.307.966-2.268.966-.504,0-.957-.112-1.358-.336-.392-.224-.695-.532-.91-.924v4.06h-1.498v-9.94h1.316l.07,1.302c.205-.4387.513-.7887.924-1.05.42-.2613.905-.392,1.456-.392Zm-.336,6.062c.607,0,1.078-.21,1.414-.63.345-.4293.518-1.0267.518-1.792s-.173-1.3627-.518-1.792c-.336-.4293-.807-.644-1.414-.644-.569,0-1.027.1913-1.372.574-.336.3827-.523.9147-.56,1.596v.532c.037.672.224,1.1993.56,1.582.345.3827.803.574,1.372.574Zm11.633-2.632c0,.2707-.019.5273-.056.77h-5.124c.084.616.303,1.0873.658,1.414.354.3173.812.476,1.372.476.457,0,.835-.0793,1.134-.238.308-.168.518-.406.63-.714l1.246.518c-.523,1.0827-1.526,1.624-3.01,1.624-1.102,0-1.965-.322-2.59-.966-.616-.644-.924-1.5353-.924-2.674c0-1.148.298-2.0393.896-2.674.597-.644,1.437-.966,2.52-.966c1.026,0,1.824.3127,2.394.938.569.6253.854,1.456.854,2.492Zm-3.248-2.24c-.542,0-.98.1587-1.316.476-.327.3173-.532.7793-.616,1.386h3.78c-.075-.588-.276-1.0453-.602-1.372-.318-.3267-.733-.49-1.246-.49Zm8.736-1.19c.327,0,.584.0467.77.14l-.238,1.372c-.214-.1213-.508-.182-.882-.182-.298,0-.583.0793-.854.238-.261.1587-.48.3967-.658.714-.168.3173-.252.7-.252,1.148v3.71h-1.498v-7h1.274l.126,1.26c.392-.9333,1.13-1.4,2.212-1.4Zm2.941-1.036c-.317,0-.564-.0793-.742-.238-.177-.168-.266-.4013-.266-.7s.089-.5273.266-.686c.178-.1587.425-.238.742-.238.318,0,.56.0793.728.238.178.1587.266.3873.266.686s-.088.532-.266.7c-.168.1587-.41.238-.728.238ZM144.067,53h-1.498v-7h1.498v7Zm8.602-3.71c0,.2707-.019.5273-.056.77h-5.124c.084.616.303,1.0873.658,1.414.355.3173.812.476,1.372.476.457,0,.835-.0793,1.134-.238.308-.168.518-.406.63-.714l1.246.518c-.523,1.0827-1.526,1.624-3.01,1.624-1.101,0-1.965-.322-2.59-.966-.616-.644-.924-1.5353-.924-2.674c0-1.148.299-2.0393.896-2.674.597-.644,1.437-.966,2.52-.966c1.027,0,1.825.3127,2.394.938s.854,1.456.854,2.492Zm-3.248-2.24c-.541,0-.98.1587-1.316.476-.327.3173-.532.7793-.616,1.386h3.78c-.075-.588-.275-1.0453-.602-1.372-.317-.3267-.733-.49-1.246-.49Zm8.891-1.19c.774,0,1.404.224,1.89.672.494.448.742,1.092.742,1.932v4.536h-1.498v-4.06c0-1.232-.5-1.848-1.498-1.848-.523,0-.971.182-1.344.546-.374.3547-.56.9053-.56,1.652v3.71h-1.498v-7h1.33l.07,1.162c.233-.4387.555-.7653.966-.98.41-.2147.877-.322,1.4-.322Zm7.982,0c1.53,0,2.543.6533,3.038,1.96l-1.4.56c-.243-.8867-.789-1.33-1.638-1.33-.626,0-1.111.2147-1.456.644-.346.4293-.518,1.036-.518,1.82s.172,1.386.518,1.806c.345.42.83.63,1.456.63.476,0,.858-.1167,1.148-.35.289-.2333.48-.5693.574-1.008l1.372.462c-.206.6533-.57,1.1667-1.092,1.54-.523.364-1.181.546-1.974.546-1.102,0-1.965-.322-2.59-.966-.616-.644-.924-1.5353-.924-2.674s.308-2.03.924-2.674s1.47-.966,2.562-.966Zm11.107,3.43c0,.2707-.018.5273-.056.77h-5.124c.084.616.304,1.0873.658,1.414.355.3173.812.476,1.372.476.458,0,.836-.0793,1.134-.238.308-.168.518-.406.63-.714l1.246.518c-.522,1.0827-1.526,1.624-3.01,1.624-1.101,0-1.964-.322-2.59-.966-.616-.644-.924-1.5353-.924-2.674c0-1.148.299-2.0393.896-2.674.598-.644,1.438-.966,2.52-.966c1.027,0,1.825.3127,2.394.938.57.6253.854,1.456.854,2.492Zm-3.248-2.24c-.541,0-.98.1587-1.316.476-.326.3173-.532.7793-.616,1.386h3.78c-.074-.588-.275-1.0453-.602-1.372-.317-.3267-.732-.49-1.246-.49Zm7.659,6.09c-.709,0-1.339-.1213-1.89-.364-.541-.2427-.952-.6113-1.232-1.106l1.008-.868c.178.4013.453.6953.826.882.374.1867.822.28,1.344.28.476,0,.845-.0747,1.106-.224.262-.1587.392-.364.392-.616c0-.224-.121-.4013-.364-.532-.242-.14-.662-.2707-1.26-.392-1.036-.196-1.764-.4573-2.184-.784s-.63-.7887-.63-1.386c0-.3827.117-.7373.35-1.064.234-.336.57-.602,1.008-.798.448-.2053.976-.308,1.582-.308.775,0,1.396.1307,1.862.392.467.252.826.6487,1.078,1.19l-1.064.784c-.168-.4107-.406-.7093-.714-.896-.298-.196-.681-.294-1.148-.294-.42,0-.77.0887-1.05.266-.27.168-.406.364-.406.588c0,.252.122.4527.364.602.252.1493.705.2847,1.358.406.99.1773,1.69.4293,2.1.756.411.3267.616.784.616,1.372c0,.6253-.27,1.134-.812,1.526-.541.392-1.288.588-2.24.588ZM193.01,46h2.268v1.176h-2.226v5.824h-1.498v-5.824h-1.316v-1.176h1.316v-1.008c0-.7093.215-1.26.644-1.652.43-.392,1.032-.588,1.806-.588.28,0,.537.0327.77.098.234.056.416.1353.546.238l-.28,1.092c-.214-.14-.48-.21-.798-.21-.821,0-1.232.378-1.232,1.134v.896Zm6.547-.14c1.092,0,1.946.322,2.562.966s.924,1.5353.924,2.674-.308,2.03-.924,2.674-1.47.966-2.562.966-1.946-.322-2.562-.966-.924-1.5353-.924-2.674.308-2.03.924-2.674s1.47-.966,2.562-.966Zm0,1.176c-.634,0-1.124.2147-1.47.644-.336.42-.504,1.0267-.504,1.82s.168,1.4047.504,1.834c.346.42.836.63,1.47.63.635,0,1.125-.2147,1.47-.644.346-.4293.518-1.036.518-1.82s-.172-1.3907-.518-1.82c-.345-.4293-.835-.644-1.47-.644Zm9.023-1.176c.326,0,.583.0467.77.14l-.238,1.372c-.215-.1213-.509-.182-.882-.182-.299,0-.584.0793-.854.238-.262.1587-.481.3967-.658.714-.168.3173-.252.7-.252,1.148v3.71h-1.498v-7h1.274l.126,1.26c.392-.9333,1.129-1.4,2.212-1.4Zm10.754,6.678c-.224.1867-.5.336-.826.448-.318.1027-.663.154-1.036.154-.644,0-1.162-.1587-1.554-.476-.383-.3267-.579-.8307-.588-1.512v-3.976h-1.33L214,46h1.33v-1.638l1.498-.42v2.058h2.45v1.176h-2.45v3.724c0,.336.088.588.266.756.186.1587.438.238.756.238.429,0,.807-.1493,1.134-.448l.35,1.092Zm5.009-6.678c.327,0,.584.0467.77.14l-.238,1.372c-.214-.1213-.508-.182-.882-.182-.298,0-.583.0793-.854.238-.261.1587-.48.3967-.658.714-.168.3173-.252.7-.252,1.148v3.71h-1.498v-7h1.274l.126,1.26c.392-.9333,1.13-1.4,2.212-1.4Zm8.527.14v7h-1.33l-.056-1.134c-.476.8493-1.306,1.274-2.492,1.274-.756,0-1.367-.2053-1.834-.616-.457-.42-.686-1.0593-.686-1.918v-4.606h1.498v4.214c0,.616.122,1.0547.364,1.316.243.252.602.378,1.078.378.57,0,1.036-.1773,1.4-.532.374-.364.56-.896.56-1.596v-3.78h1.498Zm4.86,7.14c-.709,0-1.339-.1213-1.89-.364-.541-.2427-.952-.6113-1.232-1.106l1.008-.868c.178.4013.453.6953.826.882.374.1867.822.28,1.344.28.476,0,.845-.0747,1.106-.224.262-.1587.392-.364.392-.616c0-.224-.121-.4013-.364-.532-.242-.14-.662-.2707-1.26-.392-1.036-.196-1.764-.4573-2.184-.784s-.63-.7887-.63-1.386c0-.3827.117-.7373.35-1.064.234-.336.57-.602,1.008-.798.448-.2053.976-.308,1.582-.308.775,0,1.396.1307,1.862.392.467.252.826.6487,1.078,1.19l-1.064.784c-.168-.4107-.406-.7093-.714-.896-.298-.196-.681-.294-1.148-.294-.42,0-.77.0887-1.05.266-.27.168-.406.364-.406.588c0,.252.122.4527.364.602.252.1493.705.2847,1.358.406.99.1773,1.69.4293,2.1.756.411.3267.616.784.616,1.372c0,.6253-.27,1.134-.812,1.526-.541.392-1.288.588-2.24.588Zm9.412-.602c-.224.1867-.499.336-.826.448-.317.1027-.662.154-1.036.154-.644,0-1.162-.1587-1.554-.476-.382-.3267-.578-.8307-.588-1.512v-3.976h-1.33v-1.176h1.33v-1.638l1.498-.42v2.058h2.45v1.176h-2.45v3.724c0,.336.089.588.266.756.187.1587.439.238.756.238.43,0,.808-.1493,1.134-.448l.35,1.092Zm7.656-3.248c0,.2707-.019.5273-.056.77h-5.124c.084.616.303,1.0873.658,1.414.355.3173.812.476,1.372.476.457,0,.835-.0793,1.134-.238.308-.168.518-.406.63-.714l1.246.518c-.523,1.0827-1.526,1.624-3.01,1.624-1.101,0-1.965-.322-2.59-.966-.616-.644-.924-1.5353-.924-2.674c0-1.148.299-2.0393.896-2.674.597-.644,1.437-.966,2.52-.966c1.027,0,1.825.3127,2.394.938s.854,1.456.854,2.492Zm-3.248-2.24c-.541,0-.98.1587-1.316.476-.327.3173-.532.7793-.616,1.386h3.78c-.075-.588-.275-1.0453-.602-1.372-.317-.3267-.733-.49-1.246-.49Zm11.607-4.2v10.15h-1.316l-.084-1.246c-.206.42-.518.756-.938,1.008-.411.252-.882.378-1.414.378-.962,0-1.722-.3173-2.282-.952-.551-.644-.826-1.5353-.826-2.674s.275-2.03.826-2.674c.56-.6533,1.32-.98,2.282-.98.513,0,.966.1167,1.358.35.392.224.69.532.896.924v-4.284h1.498Zm-3.416,9.086c.588,0,1.054-.21,1.4-.63.345-.42.518-.994.518-1.722v-.168c0-.728-.173-1.2973-.518-1.708-.346-.42-.812-.63-1.4-.63-.607,0-1.083.2147-1.428.644-.336.42-.504,1.0127-.504,1.778s.168,1.3627.504,1.792c.345.4293.821.644,1.428.644ZM118.364,67l-2.786,7h-1.638l-2.8-7h1.652l1.974,5.782L116.796,67h1.568Zm2.033-1.176c-.317,0-.564-.0793-.742-.238-.177-.168-.266-.4013-.266-.7s.089-.5273.266-.686c.178-.1587.425-.238.742-.238.318,0,.56.0793.728.238.178.1587.266.3873.266.686s-.088.532-.266.7c-.168.1587-.41.238-.728.238ZM121.139,74h-1.498v-7h1.498v7Zm4.878.14c-.709,0-1.339-.1213-1.89-.364-.541-.2427-.952-.6113-1.232-1.106l1.008-.868c.178.4013.453.6953.826.882.374.1867.822.28,1.344.28.476,0,.845-.0747,1.106-.224.262-.1587.392-.364.392-.616c0-.224-.121-.4013-.364-.532-.242-.14-.662-.2707-1.26-.392-1.036-.196-1.764-.4573-2.184-.784s-.63-.7887-.63-1.386c0-.3827.117-.7373.35-1.064.234-.336.57-.602,1.008-.798.448-.2053.976-.308,1.582-.308.775,0,1.396.1307,1.862.392.467.252.826.6487,1.078,1.19l-1.064.784c-.168-.4107-.406-.7093-.714-.896-.298-.196-.681-.294-1.148-.294-.42,0-.77.0887-1.05.266-.27.168-.406.364-.406.588c0,.252.122.4527.364.602.252.1493.705.2847,1.358.406.99.1773,1.69.4293,2.1.756.411.3267.616.784.616,1.372c0,.6253-.27,1.134-.812,1.526-.541.392-1.288.588-2.24.588Zm5.632-8.316c-.317,0-.564-.0793-.742-.238-.177-.168-.266-.4013-.266-.7s.089-.5273.266-.686c.178-.1587.425-.238.742-.238.318,0,.56.0793.728.238.178.1587.266.3873.266.686s-.088.532-.266.7c-.168.1587-.41.238-.728.238ZM132.391,74h-1.498v-7h1.498v7Zm6.88-.462c-.224.1867-.499.336-.826.448-.317.1027-.662.154-1.036.154-.644,0-1.162-.1587-1.554-.476-.382-.3267-.578-.8307-.588-1.512v-3.976h-1.33v-1.176h1.33v-1.638l1.498-.42v2.058h2.45v1.176h-2.45v3.724c0,.336.089.588.266.756.187.1587.439.238.756.238.43,0,.808-.1493,1.134-.448l.35,1.092Zm4.478-6.678c1.092,0,1.946.322,2.562.966s.924,1.5353.924,2.674-.308,2.03-.924,2.674-1.47.966-2.562.966-1.946-.322-2.562-.966-.924-1.5353-.924-2.674.308-2.03.924-2.674s1.47-.966,2.562-.966Zm0,1.176c-.635,0-1.125.2147-1.47.644-.336.42-.504,1.0267-.504,1.82s.168,1.4047.504,1.834c.345.42.835.63,1.47.63s1.125-.2147,1.47-.644.518-1.036.518-1.82-.173-1.3907-.518-1.82-.835-.644-1.47-.644Zm9.022-1.176c.327,0,.583.0467.77.14l-.238,1.372c-.215-.1213-.509-.182-.882-.182-.299,0-.583.0793-.854.238-.261.1587-.481.3967-.658.714-.168.3173-.252.7-.252,1.148v3.71h-1.498v-7h1.274l.126,1.26c.392-.9333,1.129-1.4,2.212-1.4Zm4.487,7.28c-.71,0-1.34-.1213-1.89-.364-.542-.2427-.952-.6113-1.232-1.106l1.008-.868c.177.4013.452.6953.826.882.373.1867.821.28,1.344.28.476,0,.844-.0747,1.106-.224.261-.1587.392-.364.392-.616c0-.224-.122-.4013-.364-.532-.243-.14-.663-.2707-1.26-.392-1.036-.196-1.764-.4573-2.184-.784s-.63-.7887-.63-1.386c0-.3827.116-.7373.35-1.064.233-.336.569-.602,1.008-.798.448-.2053.975-.308,1.582-.308.774,0,1.395.1307,1.862.392.466.252.826.6487,1.078,1.19l-1.064.784c-.168-.4107-.406-.7093-.714-.896-.299-.196-.682-.294-1.148-.294-.42,0-.77.0887-1.05.266-.271.168-.406.364-.406.588c0,.252.121.4527.364.602.252.1493.704.2847,1.358.406.989.1773,1.689.4293,2.1.756.41.3267.616.784.616,1.372c0,.6253-.271,1.134-.812,1.526-.542.392-1.288.588-2.24.588Z" opacity="0" fill="#fff"/><script><![CDATA[!function(t,e){"object"==typeof exports&&"undefined"!=typeof module?module.exports=e():"function"==typeof define&&define.amd?define(e):((t="undefined"!=typeof globalThis?globalThis:t||self).__SVGATOR_PLAYER__=t.__SVGATOR_PLAYER__||{},t.__SVGATOR_PLAYER__["91c80d77"]=e())}(this,(function(){"use strict";function t(t,e){var n=Object.keys(t);if(Object.getOwnPropertySymbols){var r=Object.getOwnPropertySymbols(t);e&&(r=r.filter((function(e){return Object.getOwnPropertyDescriptor(t,e).enumerable}))),n.push.apply(n,r)}return n}function e(e){for(var n=1;n<arguments.length;n++){var r=null!=arguments[n]?arguments[n]:{};n%2?t(Object(r),!0).forEach((function(t){u(e,t,r[t])})):Object.getOwnPropertyDescriptors?Object.defineProperties(e,Object.getOwnPropertyDescriptors(r)):t(Object(r)).forEach((function(t){Object.defineProperty(e,t,Object.getOwnPropertyDescriptor(r,t))}))}return e}function n(t){return(n="function"==typeof Symbol&&"symbol"==typeof Symbol.iterator?function(t){return typeof t}:function(t){return t&&"function"==typeof Symbol&&t.constructor===Symbol&&t!==Symbol.prototype?"symbol":typeof t})(t)}function r(t,e){if(!(t instanceof e))throw new TypeError("Cannot call a class as a function")}function i(t,e){for(var n=0;n<e.length;n++){var r=e[n];r.enumerable=r.enumerable||!1,r.configurable=!0,"value"in r&&(r.writable=!0),Object.defineProperty(t,r.key,r)}}function o(t,e,n){return e&&i(t.prototype,e),n&&i(t,n),t}function u(t,e,n){return e in t?Object.defineProperty(t,e,{value:n,enumerable:!0,configurable:!0,writable:!0}):t[e]=n,t}function a(t){return(a=Object.setPrototypeOf?Object.getPrototypeOf:function(t){return t.__proto__||Object.getPrototypeOf(t)})(t)}function s(t,e){return(s=Object.setPrototypeOf||function(t,e){return t.__proto__=e,t})(t,e)}function l(){if("undefined"==typeof Reflect||!Reflect.construct)return!1;if(Reflect.construct.sham)return!1;if("function"==typeof Proxy)return!0;try{return Boolean.prototype.valueOf.call(Reflect.construct(Boolean,[],(function(){}))),!0}catch(t){return!1}}function f(t,e,n){return(f=l()?Reflect.construct:function(t,e,n){var r=[null];r.push.apply(r,e);var i=new(Function.bind.apply(t,r));return n&&s(i,n.prototype),i}).apply(null,arguments)}function c(t,e){if(e&&("object"==typeof e||"function"==typeof e))return e;if(void 0!==e)throw new TypeError("Derived constructors may only return object or undefined");return function(t){if(void 0===t)throw new ReferenceError("this hasn't been initialised - super() hasn't been called");return t}(t)}function h(t,e,n){return(h="undefined"!=typeof Reflect&&Reflect.get?Reflect.get:function(t,e,n){var r=function(t,e){for(;!Object.prototype.hasOwnProperty.call(t,e)&&null!==(t=a(t)););return t}(t,e);if(r){var i=Object.getOwnPropertyDescriptor(r,e);return i.get?i.get.call(n):i.value}})(t,e,n||t)}function v(t){return function(t){if(Array.isArray(t))return y(t)}(t)||function(t){if("undefined"!=typeof Symbol&&null!=t[Symbol.iterator]||null!=t["@@iterator"])return Array.from(t)}(t)||function(t,e){if(!t)return;if("string"==typeof t)return y(t,e);var n=Object.prototype.toString.call(t).slice(8,-1);"Object"===n&&t.constructor&&(n=t.constructor.name);if("Map"===n||"Set"===n)return Array.from(t);if("Arguments"===n||/^(?:Ui|I)nt(?:8|16|32)(?:Clamped)?Array$/.test(n))return y(t,e)}(t)||function(){throw new TypeError("Invalid attempt to spread non-iterable instance.\nIn order to be iterable, non-array objects must have a [Symbol.iterator]() method.")}()}function y(t,e){(null==e||e>t.length)&&(e=t.length);for(var n=0,r=new Array(e);n<e;n++)r[n]=t[n];return r}Number.isInteger||(Number.isInteger=function(t){return"number"==typeof t&&isFinite(t)&&Math.floor(t)===t}),Number.EPSILON||(Number.EPSILON=2220446049250313e-31);var d=g(Math.pow(10,-6));function g(t){var e=arguments.length>1&&void 0!==arguments[1]?arguments[1]:6;if(Number.isInteger(t))return t;var n=Math.pow(10,e);return Math.round((+t+Number.EPSILON)*n)/n}function p(t,e){var n=arguments.length>2&&void 0!==arguments[2]?arguments[2]:d;return Math.abs(t-e)<n}var m=Math.PI/180;function b(t){return t}function k(t,e,n){var r=1-n;return 3*n*r*(t*r+e*n)+n*n*n}function w(){var t=arguments.length>0&&void 0!==arguments[0]?arguments[0]:0,e=arguments.length>1&&void 0!==arguments[1]?arguments[1]:0,n=arguments.length>2&&void 0!==arguments[2]?arguments[2]:1,r=arguments.length>3&&void 0!==arguments[3]?arguments[3]:1;return t<0||t>1||n<0||n>1?null:p(t,e)&&p(n,r)?b:function(i){if(i<=0)return t>0?i*e/t:0===e&&n>0?i*r/n:0;if(i>=1)return n<1?1+(i-1)*(r-1)/(n-1):1===n&&t<1?1+(i-1)*(e-1)/(t-1):1;for(var o,u=0,a=1;u<a;){var s=k(t,n,o=(u+a)/2);if(p(i,s))break;s<i?u=o:a=o}return k(e,r,o)}}function x(){return 1}function A(t){return 1===t?1:0}function _(){var t=arguments.length>0&&void 0!==arguments[0]?arguments[0]:1,e=arguments.length>1&&void 0!==arguments[1]?arguments[1]:0;if(1===t){if(0===e)return A;if(1===e)return x}var n=1/t;return function(t){return t>=1?1:(t+=e*n)-t%n}}var O=Math.sin,S=Math.cos,E=Math.acos,P=Math.asin,M=Math.tan,j=Math.atan2,B=Math.PI/180,T=180/Math.PI,I=Math.sqrt,R=function(){function t(){var e=arguments.length>0&&void 0!==arguments[0]?arguments[0]:1,n=arguments.length>1&&void 0!==arguments[1]?arguments[1]:0,i=arguments.length>2&&void 0!==arguments[2]?arguments[2]:0,o=arguments.length>3&&void 0!==arguments[3]?arguments[3]:1,u=arguments.length>4&&void 0!==arguments[4]?arguments[4]:0,a=arguments.length>5&&void 0!==arguments[5]?arguments[5]:0;r(this,t),this.m=[e,n,i,o,u,a],this.i=null,this.w=null,this.s=null}return o(t,[{key:"determinant",get:function(){var t=this.m;return t[0]*t[3]-t[1]*t[2]}},{key:"isIdentity",get:function(){if(null===this.i){var t=this.m;this.i=1===t[0]&&0===t[1]&&0===t[2]&&1===t[3]&&0===t[4]&&0===t[5]}return this.i}},{key:"point",value:function(t,e){var n=this.m;return{x:n[0]*t+n[2]*e+n[4],y:n[1]*t+n[3]*e+n[5]}}},{key:"translateSelf",value:function(){var t=arguments.length>0&&void 0!==arguments[0]?arguments[0]:0,e=arguments.length>1&&void 0!==arguments[1]?arguments[1]:0;if(!t&&!e)return this;var n=this.m;return n[4]+=n[0]*t+n[2]*e,n[5]+=n[1]*t+n[3]*e,this.w=this.s=this.i=null,this}},{key:"rotateSelf",value:function(){var t=arguments.length>0&&void 0!==arguments[0]?arguments[0]:0;if(t%=360){var e=O(t*=B),n=S(t),r=this.m,i=r[0],o=r[1];r[0]=i*n+r[2]*e,r[1]=o*n+r[3]*e,r[2]=r[2]*n-i*e,r[3]=r[3]*n-o*e,this.w=this.s=this.i=null}return this}},{key:"scaleSelf",value:function(){var t=arguments.length>0&&void 0!==arguments[0]?arguments[0]:1,e=arguments.length>1&&void 0!==arguments[1]?arguments[1]:1;if(1!==t||1!==e){var n=this.m;n[0]*=t,n[1]*=t,n[2]*=e,n[3]*=e,this.w=this.s=this.i=null}return this}},{key:"skewSelf",value:function(t,e){if(e%=360,(t%=360)||e){var n=this.m,r=n[0],i=n[1],o=n[2],u=n[3];t&&(t=M(t*B),n[2]+=r*t,n[3]+=i*t),e&&(e=M(e*B),n[0]+=o*e,n[1]+=u*e),this.w=this.s=this.i=null}return this}},{key:"resetSelf",value:function(){var t=arguments.length>0&&void 0!==arguments[0]?arguments[0]:1,e=arguments.length>1&&void 0!==arguments[1]?arguments[1]:0,n=arguments.length>2&&void 0!==arguments[2]?arguments[2]:0,r=arguments.length>3&&void 0!==arguments[3]?arguments[3]:1,i=arguments.length>4&&void 0!==arguments[4]?arguments[4]:0,o=arguments.length>5&&void 0!==arguments[5]?arguments[5]:0,u=this.m;return u[0]=t,u[1]=e,u[2]=n,u[3]=r,u[4]=i,u[5]=o,this.w=this.s=this.i=null,this}},{key:"recomposeSelf",value:function(){var t=arguments.length>0&&void 0!==arguments[0]?arguments[0]:null,e=arguments.length>1&&void 0!==arguments[1]?arguments[1]:null,n=arguments.length>2&&void 0!==arguments[2]?arguments[2]:null,r=arguments.length>3&&void 0!==arguments[3]?arguments[3]:null,i=arguments.length>4&&void 0!==arguments[4]?arguments[4]:null;return this.isIdentity||this.resetSelf(),t&&(t.x||t.y)&&this.translateSelf(t.x,t.y),e&&this.rotateSelf(e),n&&(n.x&&this.skewSelf(n.x,0),n.y&&this.skewSelf(0,n.y)),!r||1===r.x&&1===r.y||this.scaleSelf(r.x,r.y),i&&(i.x||i.y)&&this.translateSelf(i.x,i.y),this}},{key:"decompose",value:function(){var t=arguments.length>0&&void 0!==arguments[0]?arguments[0]:0,e=arguments.length>1&&void 0!==arguments[1]?arguments[1]:0,n=this.m,r=n[0]*n[0]+n[1]*n[1],i=[[n[0],n[1]],[n[2],n[3]]],o=I(r);if(0===o)return{origin:{x:g(n[4]),y:g(n[5])},translate:{x:g(t),y:g(e)},scale:{x:0,y:0},skew:{x:0,y:0},rotate:0};i[0][0]/=o,i[0][1]/=o;var u=n[0]*n[3]-n[1]*n[2]<0;u&&(o=-o);var a=i[0][0]*i[1][0]+i[0][1]*i[1][1];i[1][0]-=i[0][0]*a,i[1][1]-=i[0][1]*a;var s=I(i[1][0]*i[1][0]+i[1][1]*i[1][1]);if(0===s)return{origin:{x:g(n[4]),y:g(n[5])},translate:{x:g(t),y:g(e)},scale:{x:g(o),y:0},skew:{x:0,y:0},rotate:0};i[1][0]/=s,i[1][1]/=s,a/=s;var l=0;return i[1][1]<0?(l=E(i[1][1])*T,i[0][1]<0&&(l=360-l)):l=P(i[0][1])*T,u&&(l=-l),a=j(a,I(i[0][0]*i[0][0]+i[0][1]*i[0][1]))*T,u&&(a=-a),{origin:{x:g(n[4]),y:g(n[5])},translate:{x:g(t),y:g(e)},scale:{x:g(o),y:g(s)},skew:{x:g(a),y:0},rotate:g(l)}}},{key:"clone",value:function(){var t=this.m;return new this.constructor(t[0],t[1],t[2],t[3],t[4],t[5])}},{key:"toString",value:function(){var t=arguments.length>0&&void 0!==arguments[0]?arguments[0]:" ";if(null===this.s){var e=this.m.map((function(t){return g(t)}));1===e[0]&&0===e[1]&&0===e[2]&&1===e[3]?this.s="translate("+e[4]+t+e[5]+")":this.s="matrix("+e.join(t)+")"}return this.s}}],[{key:"create",value:function(t){return t?Array.isArray(t)?f(this,v(t)):t instanceof this?t.clone():(new this).recomposeSelf(t.origin,t.rotate,t.skew,t.scale,t.translate):new this}}]),t}();function N(t,e,n){return t>=.5?n:e}function F(t,e,n){return 0===t||e===n?e:t*(n-e)+e}function C(t,e,n){var r=F(t,e,n);return r<=0?0:r}function L(t,e,n){var r=F(t,e,n);return r<=0?0:r>=1?1:r}function D(t,e,n){return 0===t?e:1===t?n:{x:F(t,e.x,n.x),y:F(t,e.y,n.y)}}function q(t,e,n){return 0===t?e:1===t?n:{x:C(t,e.x,n.x),y:C(t,e.y,n.y)}}function V(t,e,n){var r=function(t,e,n){return Math.round(F(t,e,n))}(t,e,n);return r<=0?0:r>=255?255:r}function z(t,e,n){return 0===t?e:1===t?n:{r:V(t,e.r,n.r),g:V(t,e.g,n.g),b:V(t,e.b,n.b),a:F(t,null==e.a?1:e.a,null==n.a?1:n.a)}}function Y(t,e,n){var r=e.length;if(r!==n.length)return N(t,e,n);for(var i=new Array(r),o=0;o<r;o++)i[o]=F(t,e[o],n[o]);return i}function G(t,e){for(var n=[],r=0;r<t;r++)n.push(e);return n}function U(t,e){if(--e<=0)return t;var n=(t=Object.assign([],t)).length;do{for(var r=0;r<n;r++)t.push(t[r])}while(--e>0);return t}var $,W=function(){function t(e){r(this,t),this.list=e,this.length=e.length}return o(t,[{key:"setAttribute",value:function(t,e){for(var n=this.list,r=0;r<this.length;r++)n[r].setAttribute(t,e)}},{key:"removeAttribute",value:function(t){for(var e=this.list,n=0;n<this.length;n++)e[n].removeAttribute(t)}},{key:"style",value:function(t,e){for(var n=this.list,r=0;r<this.length;r++)n[r].style[t]=e}}]),t}(),H=/-./g,Q=function(t,e){return e.toUpperCase()};function X(t){return"function"==typeof t?t:N}function J(t){return t?"function"==typeof t?t:Array.isArray(t)?function(t){var e=arguments.length>1&&void 0!==arguments[1]?arguments[1]:b;if(!Array.isArray(t))return e;switch(t.length){case 1:return _(t[0])||e;case 2:return _(t[0],t[1])||e;case 4:return w(t[0],t[1],t[2],t[3])||e}return e}(t,null):function(t,e){var n=arguments.length>2&&void 0!==arguments[2]?arguments[2]:b;switch(t){case"linear":return b;case"steps":return _(e.steps||1,e.jump||0)||n;case"bezier":case"cubic-bezier":return w(e.x1||0,e.y1||0,e.x2||0,e.y2||0)||n}return n}(t.type,t.value,null):null}function K(t,e,n){var r=arguments.length>3&&void 0!==arguments[3]&&arguments[3],i=e.length-1;if(t<=e[0].t)return r?[0,0,e[0].v]:e[0].v;if(t>=e[i].t)return r?[i,1,e[i].v]:e[i].v;var o,u=e[0],a=null;for(o=1;o<=i;o++){if(!(t>e[o].t)){a=e[o];break}u=e[o]}return null==a?r?[i,1,e[i].v]:e[i].v:u.t===a.t?r?[o,1,a.v]:a.v:(t=(t-u.t)/(a.t-u.t),u.e&&(t=u.e(t)),r?[o,t,n(t,u.v,a.v)]:n(t,u.v,a.v))}function Z(t,e){var n=arguments.length>2&&void 0!==arguments[2]?arguments[2]:null;return t&&t.length?"function"!=typeof e?null:("function"!=typeof n&&(n=null),function(r){var i=K(r,t,e);return null!=i&&n&&(i=n(i)),i}):null}function tt(t,e){return t.t-e.t}function et(t,e,r,i,o){var u,a="@"===r[0],s="#"===r[0],l=$[r],f=N;switch(a?(u=r.substr(1),r=u.replace(H,Q)):s&&(r=r.substr(1)),n(l)){case"function":if(f=l(i,o,K,J,r,a,e,t),s)return f;break;case"string":f=Z(i,X(l));break;case"object":if((f=Z(i,X(l.i),l.f))&&"function"==typeof l.u)return l.u(e,f,r,a,t)}return f?function(t,e,n){if(arguments.length>3&&void 0!==arguments[3]&&arguments[3])return t instanceof W?function(r){return t.style(e,n(r))}:function(r){return t.style[e]=n(r)};if(Array.isArray(e)){var r=e.length;return function(i){var o=n(i);if(null==o)for(var u=0;u<r;u++)t[u].removeAttribute(e);else for(var a=0;a<r;a++)t[a].setAttribute(e,o)}}return function(r){var i=n(r);null==i?t.removeAttribute(e):t.setAttribute(e,i)}}(e,r,f,a):null}function nt(t,e,r,i){if(!i||"object"!==n(i))return null;var o=null,u=null;return Array.isArray(i)?u=function(t){if(!t||!t.length)return null;for(var e=0;e<t.length;e++)t[e].e&&(t[e].e=J(t[e].e));return t.sort(tt)}(i):(u=i.keys,o=i.data||null),u?et(t,e,r,u,o):null}function rt(t,e,n){if(!n)return null;var r=[];for(var i in n)if(n.hasOwnProperty(i)){var o=nt(t,e,i,n[i]);o&&r.push(o)}return r.length?r:null}function it(t,e){if(!e.settings.duration||e.settings.duration<0)return null;var n,r,i,o,u,a=function(t,e){if(!e)return null;var n=[];if(Array.isArray(e))for(var r=e.length,i=0;i<r;i++){var o=e[i];if(2===o.length){var u=null;if("string"==typeof o[0])u=t.getElementById(o[0]);else if(Array.isArray(o[0])){u=[];for(var a=0;a<o[0].length;a++)if("string"==typeof o[0][a]){var s=t.getElementById(o[0][a]);s&&u.push(s)}u=u.length?1===u.length?u[0]:new W(u):null}if(u){var l=rt(t,u,o[1]);l&&(n=n.concat(l))}}}else for(var f in e)if(e.hasOwnProperty(f)){var c=t.getElementById(f);if(c){var h=rt(t,c,e[f]);h&&(n=n.concat(h))}}return n.length?n:null}(t,e.elements);return a?(n=a,r=e.settings,i=r.duration,o=n.length,u=null,function(t,e){var a=r.iterations||1/0,s=(r.alternate&&a%2==0)^r.direction>0?i:0,l=t%i,f=1+(t-l)/i;e*=r.direction,r.alternate&&f%2==0&&(e=-e);var c=!1;if(f>a)l=s,c=!0,-1===r.fill&&(l=r.direction>0?0:i);else if(e<0&&(l=i-l),l===u)return!1;u=l;for(var h=0;h<o;h++)n[h](l);return c}):null}function ot(t,e){if($=e,!t||!t.root||!Array.isArray(t.animations))return null;var n=function(t){for(var e=document.getElementsByTagName("svg"),n=0;n<e.length;n++)if(e[n].id===t.root&&!e[n].svgatorAnimation)return e[n].svgatorAnimation=!0,e[n];return null}(t);if(!n)return null;var r=t.animations.map((function(t){return it(n,t)})).filter((function(t){return!!t}));return r.length?{svg:n,animations:r,animationSettings:t.animationSettings,options:t.options||void 0}:null}function ut(t){return+("0x"+(t.replace(/[^0-9a-fA-F]+/g,"")||27))}function at(t,e,n){return!t||!n||e>t.length?t:t.substring(0,e)+at(t.substring(e+1),n,n)}function st(t){var e=arguments.length>1&&void 0!==arguments[1]?arguments[1]:27;return!t||t%e?t%e:st(t/e,e)}function lt(t,e,n){if(t&&t.length){var r=ut(n),i=ut(e),o=st(r)+5,u=at(t,st(r,5),o);return u=u.replace(/\x7c$/g,"==").replace(/\x2f$/g,"="),u=function(t,e,n){var r=+("0x"+t.substring(0,4));t=t.substring(4);for(var i=e%r+n%27,o=[],u=0;u<t.length;u+=2)if("|"!==t[u]){var a=+("0x"+t[u]+t[u+1])-i;o.push(a)}else{var s=+("0x"+t.substring(u+1,u+1+4))-i;u+=3,o.push(s)}return String.fromCharCode.apply(String,o)}(u=(u=atob(u)).replace(/[\x41-\x5A]/g,""),i,r),u=JSON.parse(u)}}var ft=[{key:"alternate",def:!1},{key:"fill",def:1},{key:"iterations",def:0},{key:"direction",def:1},{key:"speed",def:1},{key:"fps",def:100}],ct=function(){function t(e,n){var i=this,o=arguments.length>2&&void 0!==arguments[2]?arguments[2]:null;r(this,t),this._id=0,this._running=!1,this._rollingBack=!1,this._animations=e,this._settings=n,(!o||o<"2022-05-02")&&delete this._settings.speed,ft.forEach((function(t){i._settings[t.key]=i._settings[t.key]||t.def})),this.duration=n.duration,this.offset=n.offset||0,this.rollbackStartOffset=0}return o(t,[{key:"alternate",get:function(){return this._settings.alternate}},{key:"fill",get:function(){return this._settings.fill}},{key:"iterations",get:function(){return this._settings.iterations}},{key:"direction",get:function(){return this._settings.direction}},{key:"speed",get:function(){return this._settings.speed}},{key:"fps",get:function(){return this._settings.fps}},{key:"maxFiniteDuration",get:function(){return this.iterations>0?this.iterations*this.duration:this.duration}},{key:"_apply",value:function(t){for(var e=arguments.length>1&&void 0!==arguments[1]?arguments[1]:{},n=this._animations,r=n.length,i=0,o=0;o<r;o++)e[o]?i++:(e[o]=n[o](t,1),e[o]&&i++);return i}},{key:"_rollback",value:function(t){var e=this,n=1/0,r=null;this.rollbackStartOffset=t,this._rollingBack=!0,this._running=!0;this._id=window.requestAnimationFrame((function i(o){if(e._rollingBack){null==r&&(r=o);var u=Math.round(t-(o-r)*e.speed);if(u>e.duration&&n!==1/0){var a=!!e.alternate&&u/e.duration%2>1,s=u%e.duration;u=(s+=a?e.duration:0)||e.duration}var l=(e.fps?1e3/e.fps:0)*e.speed,f=Math.max(0,u);f<n-l&&(e.offset=f,n=f,e._apply(f));var c=e.iterations>0&&-1===e.fill&&u>=e.maxFiniteDuration;(u<=0||e.offset<u||c)&&e.stop(),e._id=window.requestAnimationFrame(i)}}))}},{key:"_start",value:function(){var t=this,e=arguments.length>0&&void 0!==arguments[0]?arguments[0]:0,n=-1/0,r=null,i={};this._running=!0;var o=function o(u){null==r&&(r=u);var a=Math.round((u-r)*t.speed+e),s=(t.fps?1e3/t.fps:0)*t.speed;if(a>n+s&&!t._rollingBack&&(t.offset=a,n=a,t._apply(a,i)===t._animations.length))return void t.pause(!0);t._id=window.requestAnimationFrame(o)};this._id=window.requestAnimationFrame(o)}},{key:"_pause",value:function(){this._id&&window.cancelAnimationFrame(this._id),this._running=!1}},{key:"play",value:function(){if(!this._running)return this._rollingBack?this._rollback(this.offset):this._start(this.offset)}},{key:"stop",value:function(){this._pause(),this.offset=0,this.rollbackStartOffset=0,this._rollingBack=!1,this._apply(0)}},{key:"reachedToEnd",value:function(){return this.iterations>0&&this.offset>=this.iterations*this.duration}},{key:"restart",value:function(){var t=arguments.length>0&&void 0!==arguments[0]&&arguments[0];this.stop(t),this.play(t)}},{key:"pause",value:function(){this._pause()}},{key:"reverse",value:function(){this.direction=-this.direction}}],[{key:"build",value:function(t,e){delete t.animationSettings,t.options=lt(t.options,t.root,"91c80d77"),t.animations.map((function(e){e.settings=lt(e.s,t.root,"91c80d77"),delete e.s,t.animationSettings||(t.animationSettings=e.settings)}));var n=t.version;if(!(t=ot(t,e)))return null;var r=t.options||{},i=new this(t.animations,t.animationSettings,n);return{el:t.svg,options:r,player:i}}},{key:"push",value:function(t){return this.build(t)}},{key:"init",value:function(){var t=this,e=window.__SVGATOR_PLAYER__&&window.__SVGATOR_PLAYER__["91c80d77"];Array.isArray(e)&&e.splice(0).forEach((function(e){return t.build(e)}))}}]),t}();!function(){for(var t=0,e=["ms","moz","webkit","o"],n=0;n<e.length&&!window.requestAnimationFrame;++n)window.requestAnimationFrame=window[e[n]+"RequestAnimationFrame"],window.cancelAnimationFrame=window[e[n]+"CancelAnimationFrame"]||window[e[n]+"CancelRequestAnimationFrame"];window.requestAnimationFrame||(window.requestAnimationFrame=function(e){var n=Date.now(),r=Math.max(0,16-(n-t)),i=window.setTimeout((function(){e(n+r)}),r);return t=n+r,i},window.cancelAnimationFrame=window.clearTimeout)}();var ht=function(t,e){var n=!1,r=null;return function(i){n&&clearTimeout(n),n=setTimeout((function(){return function(){for(var i=0,o=window.innerHeight,u=0,a=window.innerWidth,s=t.parentNode;s instanceof Element;){var l=window.getComputedStyle(s);if("visible"!==l.overflowY||"visible"!==l.overflowX){var f=s.getBoundingClientRect();"visible"!==l.overflowY&&(i=Math.max(i,f.top),o=Math.min(o,f.bottom)),"visible"!==l.overflowX&&(u=Math.max(u,f.left),a=Math.min(a,f.right))}if(s===s.parentNode)break;s=s.parentNode}n=!1;var c=t.getBoundingClientRect(),h=Math.min(c.height,Math.max(0,i-c.top)),v=Math.min(c.height,Math.max(0,c.bottom-o)),y=Math.min(c.width,Math.max(0,u-c.left)),d=Math.min(c.width,Math.max(0,c.right-a)),g=(c.height-h-v)/c.height,p=(c.width-y-d)/c.width,m=Math.round(g*p*100);null!==r&&r===m||(r=m,e(m))}()}),100)}},vt=function(){function t(e,n,i){r(this,t),n=Math.max(1,n||1),n=Math.min(n,100),this.el=e,this._handlers=[],this.onThresholdChange=i&&i.call?i:function(){},this.thresholdPercent=n||1,this.currentVisibility=null,this.visibilityCalculator=ht(e,this.onVisibilityUpdate.bind(this)),this.bindScrollWatchers(),this.visibilityCalculator()}return o(t,[{key:"bindScrollWatchers",value:function(){for(var t=this.el.parentNode;t&&(this._handlers.push({element:t,event:"scroll",handler:this.visibilityCalculator}),t.addEventListener("scroll",this.visibilityCalculator),t!==t.parentNode&&t!==document);)t=t.parentNode}},{key:"onVisibilityUpdate",value:function(t){var e=this.currentVisibility>=this.thresholdPercent,n=t>=this.thresholdPercent;if(null===this.currentVisibility||e!==n)return this.currentVisibility=t,void this.onThresholdChange(n);this.currentVisibility=t}},{key:"destruct",value:function(){this._handlers.forEach((function(t){t.element.removeEventListener(t.event,t.handler)}))}}]),t}();function yt(t){return g(t)+""}function dt(t){var e=arguments.length>1&&void 0!==arguments[1]?arguments[1]:" ";return t&&t.length?t.map(yt).join(e):""}function gt(t){return yt(t.x)+","+yt(t.y)}function pt(t){if(!t)return"transparent";if(null==t.a||t.a>=1){var e=function(t){return 1===(t=parseInt(t).toString(16)).length?"0"+t:t},n=function(t){return t.charAt(0)===t.charAt(1)},r=e(t.r),i=e(t.g),o=e(t.b);return n(r)&&n(i)&&n(o)&&(r=r.charAt(0),i=i.charAt(0),o=o.charAt(0)),"#"+r+i+o}return"rgba("+t.r+","+t.g+","+t.b+","+t.a+")"}function mt(t){return t?"url(#"+t+")":"none"}var bt={f:null,i:q,u:function(t,e){return function(n){var r=e(n);t.setAttribute("rx",yt(r.x)),t.setAttribute("ry",yt(r.y))}}},kt={f:null,i:function(t,e,n){return 0===t?e:1===t?n:{width:C(t,e.width,n.width),height:C(t,e.height,n.height)}},u:function(t,e){return function(n){var r=e(n);t.setAttribute("width",yt(r.width)),t.setAttribute("height",yt(r.height))}}};Object.freeze({M:2,L:2,Z:0,H:1,V:1,C:6,Q:4,T:2,S:4,A:7});var wt={},xt=null;function At(t){var e=function(){if(xt)return xt;if("object"!==("undefined"==typeof document?"undefined":n(document))||!document.createElementNS)return{};var t=document.createElementNS("http://www.w3.org/2000/svg","svg");return t&&t.style?(t.style.position="absolute",t.style.opacity="0.01",t.style.zIndex="-9999",t.style.left="-9999px",t.style.width="1px",t.style.height="1px",xt={svg:t}):{}}().svg;if(!e)return function(t){return null};var r=document.createElementNS(e.namespaceURI,"path");r.setAttributeNS(null,"d",t),r.setAttributeNS(null,"fill","none"),r.setAttributeNS(null,"stroke","none"),e.appendChild(r);var i=r.getTotalLength();return function(t){var e=r.getPointAtLength(i*t);return{x:e.x,y:e.y}}}function _t(t){return wt[t]?wt[t]:wt[t]=At(t)}function Ot(t,e,n,r){if(!t||!r)return!1;var i=["M",t.x,t.y];if(e&&n&&(i.push("C"),i.push(e.x),i.push(e.y),i.push(n.x),i.push(n.y)),e?!n:n){var o=e||n;i.push("Q"),i.push(o.x),i.push(o.y)}return e||n||i.push("L"),i.push(r.x),i.push(r.y),i.join(" ")}function St(t,e,n,r){var i=arguments.length>4&&void 0!==arguments[4]?arguments[4]:1,o=Ot(t,e,n,r),u=_t(o);try{return u(i)}catch(t){return null}}function Et(t,e,n){return t+(e-t)*n}function Pt(t,e,n){var r=arguments.length>3&&void 0!==arguments[3]&&arguments[3],i={x:Et(t.x,e.x,n),y:Et(t.y,e.y,n)};return r&&(i.a=Mt(t,e)),i}function Mt(t,e){return Math.atan2(e.y-t.y,e.x-t.x)}function jt(t,e,n,r){var i=1-r;return i*i*t+2*i*r*e+r*r*n}function Bt(t,e,n,r){return 2*(1-r)*(e-t)+2*r*(n-e)}function Tt(t,e,n,r){var i=arguments.length>4&&void 0!==arguments[4]&&arguments[4],o=St(t,e,null,n,r);return o||(o={x:jt(t.x,e.x,n.x,r),y:jt(t.y,e.y,n.y,r)}),i&&(o.a=It(t,e,n,r)),o}function It(t,e,n,r){return Math.atan2(Bt(t.y,e.y,n.y,r),Bt(t.x,e.x,n.x,r))}function Rt(t,e,n,r,i){var o=i*i;return i*o*(r-t+3*(e-n))+3*o*(t+n-2*e)+3*i*(e-t)+t}function Nt(t,e,n,r,i){var o=1-i;return 3*(o*o*(e-t)+2*o*i*(n-e)+i*i*(r-n))}function Ft(t,e,n,r,i){var o=arguments.length>5&&void 0!==arguments[5]&&arguments[5],u=St(t,e,n,r,i);return u||(u={x:Rt(t.x,e.x,n.x,r.x,i),y:Rt(t.y,e.y,n.y,r.y,i)}),o&&(u.a=Ct(t,e,n,r,i)),u}function Ct(t,e,n,r,i){return Math.atan2(Nt(t.y,e.y,n.y,r.y,i),Nt(t.x,e.x,n.x,r.x,i))}function Lt(t,e,n){var r=arguments.length>3&&void 0!==arguments[3]&&arguments[3];if(qt(e)){if(Vt(n))return Tt(e,n.start,n,t,r)}else if(qt(n)){if(zt(e))return Tt(e,e.end,n,t,r)}else{if(zt(e))return Vt(n)?Ft(e,e.end,n.start,n,t,r):Tt(e,e.end,n,t,r);if(Vt(n))return Tt(e,n.start,n,t,r)}return Pt(e,n,t,r)}function Dt(t,e,n){var r=Lt(t,e,n,!0);return r.a=function(t){return arguments.length>1&&void 0!==arguments[1]&&arguments[1]?t+Math.PI:t}(r.a)/m,r}function qt(t){return!t.type||"corner"===t.type}function Vt(t){return null!=t.start&&!qt(t)}function zt(t){return null!=t.end&&!qt(t)}var Yt=new R;var Gt={f:function(t){return t?t.join(" "):""},i:function(t,e,r){if(0===t)return e;if(1===t)return r;var i=e.length;if(i!==r.length)return N(t,e,r);for(var o,u=new Array(i),a=0;a<i;a++){if((o=n(e[a]))!==n(r[a]))return N(t,e,r);if("number"===o)u[a]=F(t,e[a],r[a]);else{if(e[a]!==r[a])return N(t,e,r);u[a]=e[a]}}return u}},Ut={f:null,i:Y,u:function(t,e){return function(n){var r=e(n);t.setAttribute("x1",yt(r[0])),t.setAttribute("y1",yt(r[1])),t.setAttribute("x2",yt(r[2])),t.setAttribute("y2",yt(r[3]))}}},$t={f:yt,i:F},Wt={f:yt,i:L},Ht={f:function(t){var e=arguments.length>1&&void 0!==arguments[1]?arguments[1]:" ";return t&&t.length>0&&(t=t.map((function(t){return g(t,4)}))),dt(t,e)},i:function(t,e,n){var r,i,o,u=e.length,a=n.length;if(u!==a)if(0===u)e=G(u=a,0);else if(0===a)a=u,n=G(u,0);else{var s=(o=(r=u)*(i=a)/function(t,e){for(var n;e;)n=e,e=t%e,t=n;return t||1}(r,i))<0?-o:o;e=U(e,Math.floor(s/u)),n=U(n,Math.floor(s/a)),u=a=s}for(var l=[],f=0;f<u;f++)l.push(g(C(t,e[f],n[f])));return l}};function Qt(t,e,n){return t.map((function(t){return function(t,e,n){var r=t.v;if(!r||"g"!==r.t||r.s||!r.v||!r.r)return t;var i=n.getElementById(r.r),o=i&&i.querySelectorAll("stop")||[];return r.s=r.v.map((function(t,e){var n=o[e]&&o[e].getAttribute("offset");return{c:t,o:n=g(parseInt(n)/100)}})),delete r.v,t}(t,0,n)}))}var Xt={gt:"gradientTransform",c:{x:"cx",y:"cy"},rd:"r",f:{x:"x1",y:"y1"},to:{x:"x2",y:"y2"}};function Jt(t,e,r,i,o,u,a,s){return Qt(t,0,s),e=function(t,e,n){for(var r,i,o,u=t.length-1,a={},s=0;s<=u;s++)(r=t[s]).e&&(r.e=e(r.e)),r.v&&"g"===(i=r.v).t&&i.r&&(o=n.getElementById(i.r))&&(a[i.r]={e:o,s:o.querySelectorAll("stop")});return a}(t,i,s),function(i){var o=r(i,t,Kt);if(!o)return"none";if("c"===o.t)return pt(o.v);if("g"===o.t){if(!e[o.r])return mt(o.r);var u=e[o.r];return function(t,e){for(var n=t.s,r=n.length;r<e.length;r++){var i=n[n.length-1].cloneNode();i.id=ee(i.id),t.e.appendChild(i),n=t.s=t.e.querySelectorAll("stop")}for(var o=0,u=n.length,a=e.length-1;o<u;o++)n[o].setAttribute("stop-color",pt(e[Math.min(o,a)].c)),n[o].setAttribute("offset",e[Math.min(o,a)].o)}(u,o.s),Object.keys(Xt).forEach((function(t){if(void 0!==o[t])if("object"!==n(Xt[t])){var e,r="gt"===t?(e=o[t],Array.isArray(e)?"matrix("+e.join(" ")+")":""):o[t],i=Xt[t];u.e.setAttribute(i,r)}else Object.keys(Xt[t]).forEach((function(e){if(void 0!==o[t][e]){var n=o[t][e],r=Xt[t][e];u.e.setAttribute(r,n)}}))})),mt(o.r)}return"none"}}function Kt(t,n,r){if(0===t)return n;if(1===t)return r;if(n&&r){var i=n.t;if(i===r.t)switch(n.t){case"c":return{t:i,v:z(t,n.v,r.v)};case"g":if(n.r===r.r){var o={t:i,s:Zt(t,n.s,r.s),r:n.r};return n.gt&&r.gt&&(o.gt=Y(t,n.gt,r.gt)),n.c?(o.c=D(t,n.c,r.c),o.rd=C(t,n.rd,r.rd)):n.f&&(o.f=D(t,n.f,r.f),o.to=D(t,n.to,r.to)),o}}if("c"===n.t&&"g"===r.t||"c"===r.t&&"g"===n.t){var u="c"===n.t?n:r,a="g"===n.t?e({},n):e({},r),s=a.s.map((function(t){return{c:u.v,o:t.o}}));return a.s="c"===n.t?Zt(t,s,a.s):Zt(t,a.s,s),a}}return N(t,n,r)}function Zt(t,e,n){if(e.length===n.length)return e.map((function(e,r){return te(t,e,n[r])}));for(var r=Math.max(e.length,n.length),i=[],o=0;o<r;o++){var u=te(t,e[Math.min(o,e.length-1)],n[Math.min(o,n.length-1)]);i.push(u)}return i}function te(t,e,n){return{o:L(t,e.o,n.o||0),c:z(t,e.c,n.c||{})}}function ee(t){return t.replace(/-fill-([0-9]+)$/,(function(t,e){return"-fill-"+(+e+1)}))}var ne={blur:q,brightness:C,contrast:C,"drop-shadow":function(t,e,n){return 0===t?e:1===t?n:{blur:q(t,e.blur,n.blur),offset:D(t,e.offset,n.offset),color:z(t,e.color,n.color)}},grayscale:C,"hue-rotate":F,invert:C,opacity:C,saturate:C,sepia:C};function re(t,e,n){if(0===t)return e;if(1===t)return n;var r=e.length;if(r!==n.length)return N(t,e,n);for(var i,o=[],u=0;u<r;u++){if(e[u].type!==n[u].type)return e;if(!(i=ne[e[u].type]))return N(t,e,n);o.push({type:e.type,value:i(t,e[u].value,n[u].value)})}return o}var ie={blur:function(t){return t?function(e){t.setAttribute("stdDeviation",gt(e))}:null},brightness:function(t,e,n){return(t=ue(n,e))?function(e){e=yt(e),t.map((function(t){return t.setAttribute("slope",e)}))}:null},contrast:function(t,e,n){return(t=ue(n,e))?function(e){var n=yt((1-e)/2);e=yt(e),t.map((function(t){t.setAttribute("slope",e),t.setAttribute("intercept",n)}))}:null},"drop-shadow":function(t,e,n){var r=n.getElementById(e+"-blur");if(!r)return null;var i=n.getElementById(e+"-offset");if(!i)return null;var o=n.getElementById(e+"-flood");return o?function(t){r.setAttribute("stdDeviation",gt(t.blur)),i.setAttribute("dx",yt(t.offset.x)),i.setAttribute("dy",yt(t.offset.y)),o.setAttribute("flood-color",pt(t.color))}:null},grayscale:function(t){return t?function(e){t.setAttribute("values",dt(function(t){return[.2126+.7874*(t=1-t),.7152-.7152*t,.0722-.0722*t,0,0,.2126-.2126*t,.7152+.2848*t,.0722-.0722*t,0,0,.2126-.2126*t,.7152-.7152*t,.0722+.9278*t,0,0,0,0,0,1,0]}(e)))}:null},"hue-rotate":function(t){return t?function(e){return t.setAttribute("values",yt(e))}:null},invert:function(t,e,n){return(t=ue(n,e))?function(e){e=yt(e)+" "+yt(1-e),t.map((function(t){return t.setAttribute("tableValues",e)}))}:null},opacity:function(t,e,n){return(t=n.getElementById(e+"-A"))?function(e){return t.setAttribute("tableValues","0 "+yt(e))}:null},saturate:function(t){return t?function(e){return t.setAttribute("values",yt(e))}:null},sepia:function(t){return t?function(e){return t.setAttribute("values",dt(function(t){return[.393+.607*(t=1-t),.769-.769*t,.189-.189*t,0,0,.349-.349*t,.686+.314*t,.168-.168*t,0,0,.272-.272*t,.534-.534*t,.131+.869*t,0,0,0,0,0,1,0]}(e)))}:null}};var oe=["R","G","B"];function ue(t,e){var n=oe.map((function(n){return t.getElementById(e+"-"+n)||null}));return-1!==n.indexOf(null)?null:n}var ae={fill:Jt,"fill-opacity":Wt,stroke:Jt,"stroke-opacity":Wt,"stroke-width":$t,"stroke-dashoffset":{f:yt,i:F},"stroke-dasharray":Ht,opacity:Wt,transform:function(t,e,r,i){if(!(t=function(t,e){if(!t||"object"!==n(t))return null;var r=!1;for(var i in t)t.hasOwnProperty(i)&&(t[i]&&t[i].length?(t[i].forEach((function(t){t.e&&(t.e=e(t.e))})),r=!0):delete t[i]);return r?t:null}(t,i)))return null;var o=function(n,i,o){var u=arguments.length>3&&void 0!==arguments[3]?arguments[3]:null;return t[n]?r(i,t[n],o):e&&e[n]?e[n]:u};return e&&e.a&&t.o?function(e){var n=r(e,t.o,Dt);return Yt.recomposeSelf(n,o("r",e,F,0)+n.a,o("k",e,D),o("s",e,D),o("t",e,D)).toString()}:function(t){return Yt.recomposeSelf(o("o",t,Lt,null),o("r",t,F,0),o("k",t,D),o("s",t,D),o("t",t,D)).toString()}},"#filter":function(t,e,n,r,i,o,u,a){if(!e.items||!t||!t.length)return null;var s=function(t,e){var n=(t=t.map((function(t){return t&&ie[t[0]]?(e.getElementById(t[1]),ie[t[0]](e.getElementById(t[1]),t[1],e)):null}))).length;return function(e){for(var r=0;r<n;r++)t[r]&&t[r](e[r].value)}}(e.items,a);return s?(t=function(t,e){return t.map((function(t){return t.e=e(t.e),t}))}(t,r),function(e){s(n(e,t,re))}):null},"#line":Ut,points:{f:dt,i:Y},d:Gt,r:$t,"#size":kt,"#radius":bt,_:function(t,e){if(Array.isArray(t))for(var n=0;n<t.length;n++)this[t[n]]=e;else this[t]=e}},se={currentTime:"offset",duration:"duration",hasEnded:function(){return this.reachedToEnd()},isAlternate:"alternate",isPlaying:"_running",isRollingBack:"_rollingBack",state:function(t,e){return e.isPlaying?e.isRollingBack?"rollback":"playing":e.hasEnded?"ended":"paused"},totalTime:"maxFiniteDuration",iterations:"iterations",direction:"direction",fill:"fill",isReversed:function(t,e){return-1===e.direction},isBackwards:function(t,e){return-1===e.fill},isInfinite:function(t,e){return 0===e.iterations},speed:"speed",fps:"fps"},le={destruct:"destruct",pause:"pause",play:function(t,e){return fe(t,e.hasEnded?"restart":"play",e)},restart:"restart",reverse:function(t,e){return fe(t,"reverse",e,[!0])},seek:"seek",seekBy:"seekBy",seekTo:"seekTo",stop:"stop",toggle:"toggle",togglePlay:"toggle",set:"set"};function fe(t,e,n){var r=arguments.length>3&&void 0!==arguments[3]?arguments[3]:[];return function(){var i,o=Array.prototype.slice.call(arguments);return o.unshift.apply(o,v(r)),(i=t[e]).call.apply(i,[t].concat(v(o))),n}}var ce=function t(e){r(this,t);var n={},i=["on","off"],o={get:function(t,e,r){return se[e]?"function"==typeof se[e]?se[e].call(t,t,r):t[se[e]]:le[e]?"function"==typeof le[e]?le[e].call(t,t,r):fe(t,le[e],r):-1!==i.indexOf(e)?n[e]:"ready"===e?function(t){return t&&t.call(r,r),r}:void 0},set:function(t,e,r){return-1!==i.indexOf(e)&&(n[e]=r)},ownKeys:function(t){return Object.keys(se)},has:function(t,e){return void 0!==se[e]}};if("function"==typeof Proxy)return new Proxy(e,o);var u=Object.keys(se).concat(Object.keys(le)).concat(i),a={};return u.forEach((function(t){var n={enumerable:!1,configurable:!1,get:function(){return o.get(e,t,a)}};-1!==i.indexOf(t)&&(n.set=function(n){return o.set(e,t,n)}),Object.defineProperty(a,t,n)})),a};function he(t){t||(t=this);var e={};this.on=function(t,n){var r=arguments.length>2&&void 0!==arguments[2]&&arguments[2];return"function"==typeof n&&(t.split(/[, ]+/g).forEach((function(t){return e[t]=e[t]||[],r?e[t].unshift(n):e[t].push(n)})),!0)},this.off=function(t,n){for(var r in e)if(e.hasOwnProperty(r)&&r.substr(0,t.length)===t)if(n)for(var i=0;i<e[r].length;i++)e[r][i]===n&&(e[r][i]=null);else e[r]=null},this.trigger=function(){var n,r=Array.prototype.slice.call(arguments),i=r[0],o=r.slice(1);t:for(var u in e)if(e.hasOwnProperty(u)&&e[u]&&(u===i||u.substr(0,i.length+1)===i+"."))for(var a=0;a<e[u].length;a++)if(e[u][a]&&!1===(n=e[u][a].apply(t,o)))break t;return n}}var ve=!0,ye=["iterations","speed","fps","direction","fill","alternate"],de=function(t){!function(t,e){if("function"!=typeof e&&null!==e)throw new TypeError("Super expression must either be null or a function");t.prototype=Object.create(e&&e.prototype,{constructor:{value:t,writable:!0,configurable:!0}}),e&&s(t,e)}(u,t);var e,n,i=(e=u,n=l(),function(){var t,r=a(e);if(n){var i=a(this).constructor;t=Reflect.construct(r,arguments,i)}else t=r.apply(this,arguments);return c(this,t)});function u(t,e){var n,o=arguments.length>2&&void 0!==arguments[2]?arguments[2]:null;return r(this,u),(n=i.call(this,t,e,o))._handlers=[],n}return o(u,[{key:"_adjustOffset",value:function(){var t=arguments.length>0&&void 0!==arguments[0]&&arguments[0],e=this.alternate?2*this.duration:this.duration;if(t){if(!this._rollingBack&&0===this.offset)return void(this.offset=e);this._rollingBack&&(this.offset,this.maxFiniteDuration)}!this._rollingBack||this.rollbackStartOffset<=this.duration?0!==this.iterations&&(this.offset=Math.min(this.offset,this.maxFiniteDuration)):(this.offset=this.rollbackStartOffset-(this.rollbackStartOffset-this.offset)%e,this.rollbackStartOffset=0)}},{key:"reverse",value:function(){var t=arguments.length>0&&void 0!==arguments[0]&&arguments[0];if(!this._running)return this._adjustOffset(t),this._rollingBack=!this._rollingBack,t&&this.play(!1),void this.trigger("reverse",this.offset);this.pause(!1,!1),this._adjustOffset(),this._rollingBack=!this._rollingBack,this.play(!1),this.trigger("reverse",this.offset)}},{key:"play",value:function(){var t=arguments.length>0&&void 0!==arguments[0]?arguments[0]:ve,e=h(a(u.prototype),"play",this).call(this);return t===ve&&this.trigger("play",this.offset),e}},{key:"pause",value:function(){var t=arguments.length>0&&void 0!==arguments[0]&&arguments[0],e=arguments.length>1&&void 0!==arguments[1]?arguments[1]:ve,n=h(a(u.prototype),"pause",this).call(this);return e===ve&&this.trigger(t?"end":"pause",this.offset),n}},{key:"restart",value:function(){var t=h(a(u.prototype),"restart",this).call(this,!1);return this.trigger("restart",this.offset),t}},{key:"stop",value:function(){var t=arguments.length>0&&void 0!==arguments[0]?arguments[0]:ve,e=h(a(u.prototype),"stop",this).call(this);return t===ve&&this.trigger("stop",this.offset),e}},{key:"_apply",value:function(t){var e=this,n=arguments.length>2&&void 0!==arguments[2]?arguments[2]:ve,r=h(a(u.prototype),"_apply",this).call(this,t);if(n===ve){var i=function(){return e.trigger("keyframe",t)};window.requestAnimationFrame(i)}return r}},{key:"seekTo",value:function(t){var e,n,r,i=this._running;i&&this.pause(!1,!1),this.offset=this.iterations>0?(e=t,n=0,r=this.maxFiniteDuration,e<n?n:e>r?r:e):Math.max(t,0),this._apply(this.offset),i&&this.play(!1)}},{key:"seek",value:function(t){return this.seekTo(Math.round(t/100*this.maxFiniteDuration))}},{key:"seekBy",value:function(t){return this.seekTo(this.offset+t)}},{key:"toggle",value:function(){return this._running?this.pause():this.reachedToEnd()?this.restart():this.play()}},{key:"set",value:function(t,e){if(ye.includes(t)){var n=this._running;n&&this.pause(!1,!1),this._settings[t]=e,n?this.play(!1):this._apply(this.offset,{},!1)}}},{key:"destruct",value:function(){var t=this;this.stop(),this._handlers.forEach((function(t){t.element?t.element.removeEventListener(t.event,t.handler):t.callback&&t.callback.call&&t.callback.call()}));var e=function(){},n=Object.getOwnPropertyNames(Object.getPrototypeOf(this));n.push.apply(n,v(Object.getOwnPropertyNames(this))),n.forEach((function(n){"function"==typeof t[n]?t[n]=e:delete t[n]}))}}],[{key:"build",value:function(t){var e=h(a(u),"build",this).call(this,t,ae);if(!e)return null;var n=e.el,r=e.options,i=e.player,o=new ce(i),s=new he(o);o.on=s.on,o.off=s.off,i.trigger=s.trigger;var l=n.svgatorPlayer&&n.svgatorPlayer.ready&&n.svgatorPlayer.ready.call&&n.svgatorPlayer.ready.call();n.svgatorPlayer=o,function(t,e,n){if("click"===n.start){var r=function(){switch(n.click){case"freeze":return!t._running&&t.reachedToEnd()?t.restart():t.toggle();case"restart":return t.offset>0?t.restart():t.play();case"reverse":return t._running?t.reverse():t.reachedToEnd()?1===t.fill?t.reverse(!0):t.restart():t.play();case"none":default:if(t._running)return;return t.reachedToEnd()?t.restart():t.play()}};return t._handlers.push({element:e,event:"click",handler:r}),void e.addEventListener("click",r)}if("hover"===n.start){var i=function(){return t.reachedToEnd()?t.restart():t._rollingBack?t.reverse():t.play()};t._handlers.push({element:e,event:"mouseenter",handler:i}),e.addEventListener("mouseenter",i);var o=function(){switch(n.hover){case"freeze":return t.pause();case"reset":return t.stop();case"reverse":if(t.reverse(),t._running)return;return t.play();case"none":default:return}};return t._handlers.push({element:e,event:"mouseleave",handler:o}),void e.addEventListener("mouseleave",o)}if("scroll"===n.start){var u=new vt(e,n.scroll||25,(function(e){e?t.reachedToEnd()?t.restart():t.play():t.pause()}));return void t._handlers.push({callback:function(){return u.destruct()}})}if("programmatic"===n.start)return;t.play()}(i,n,r),function(t,e,n){var r;"function"==typeof Event?r=new Event("ready"):(r=document.createEvent("Event")).initEvent("ready",!0,!0);if(t.dispatchEvent(r),!n||!n.length)return;n.forEach((function(t){return e.ready(t)}))}(n,n.svgatorPlayer,l)}}]),u}(ct);return de.init(),de}));
(function(s,i,o,w,a,b){(a=document.getElementById(i.root)).svgatorPlayer={ready:(function(a){b=[];return function(c){return c?(b.push(c),a.svgatorPlayer):b}})(a)};w[o]=w[o]||{};w[o][s]=w[o][s]||[];w[o][s].push(i);})('91c80d77',{"root":"ebJ3ZqH7pWA1","version":"2022-05-04","animations":[{"elements":{"ebJ3ZqH7pWA2":{"opacity":[{"t":0,"v":0},{"t":5700,"v":0},{"t":6200,"v":1}]}},"s":"MDEA1MzliNDI4NHDk1OTJUODE5WNDg5OGY4ZTQWyNWE1NjUyNTCA1MDRjNDI4NMEQ4OTkyODU4NMzk0ODk4ZjhMlNDI1YTUxNGMM0Mjg5OTQ4NYTkyODE5NDg5KOGY4ZTkzNDIJ1YTUxNGM0MjSg2ODlQTjhjOQGNBNDI1YTUxNNGM0MjgxOGME5NDg1OTI4ZVQI4MTk0ODVYNEDI1YTg2ODE4YYzkzODU0YzQLyOTNEOTA4NTQg1ODQ0MjVhNITE5ZA|"}],"options":"MDRAxODgyMjk3YOTdiNjhSNzlEXN2IyOTQxMjlAGNzc3OTc2NmSVRNzk2ODc0NXzQ2ODdiNzA2IYTI5RTg0"},'__SVGATOR_PLAYER__',window)]]></script></svg>