<svg xmlns="http://www.w3.org/2000/svg" xmlns:xlink="http://www.w3.org/1999/xlink" fill="none" width="360" height="550"
    viewBox="0 0 360 550" shape-rendering="geometricPrecision" text-rendering="geometricPrecision"
    preserveAspectRatio="xMinYMin meet">
    <rect id="svgEditorBackground" x="0" y="0" width="360" height="550" style="fill:none;stroke:none" />
    <mask id="b" style="mask-type:alpha" maskUnits="userSpaceOnUse" x="-90" y="-234" width="512" height="474">
        <g clip-path="url(#a)" stroke="#000" stroke-width="2">
            <path
                d="M406 .674 48.196-205.904M404 4.139 46.196-202.44M402 7.602 44.196-198.977M400 11.066 42.196-195.512M398 14.53 40.196-192.05M396 17.994 38.196-188.584M394 21.459 36.196-185.119M392 24.922 34.196-181.656M390 28.387 32.196-178.191M388 31.852 30.196-174.727M386 35.315 28.196-171.264M384 38.78 26.196-167.8M382 42.242 24.196-164.336M380 45.707 22.196-160.871M378 49.172 20.196-157.406M376 52.635 18.196-153.943M374 56.1 16.196-150.48M372 59.563 14.196-147.017M370 63.027 12.196-143.55M368 66.492 10.196-140.086M366 69.955 8.196-136.623M364 73.42 6.196-133.158M362 76.885 4.196-129.693M360 80.348 2.196-126.23M358 83.813.196-122.767M356 87.275-1.804-119.303M354 90.74-3.804-115.838M352 94.205-5.804-112.373M350 97.668-7.804-108.91M348 101.133-9.804-105.445M346 104.598-11.804-101.98M344 108.061-13.804-98.518M342 111.525-15.804-95.053M340 114.988-17.804-91.59M338 118.453-19.804-88.125M336 121.918-21.804-84.66M334 125.381-23.804-81.197M332 128.846-25.804-77.732M330 132.311-27.804-74.268M328 135.773-29.804-70.805M326 139.238-31.804-67.34M324 142.701-33.804-63.877M322 146.166-35.804-60.412M320 149.631-37.804-56.947M318 153.094-39.804-53.484M316 156.559-41.804-50.019M314 160.021-43.804-46.557M312 163.486-45.804-43.092M310 166.951-47.804-39.627M308 170.414-49.804-36.164M306 173.879-51.804-32.699M304 177.344-53.804-29.234M302 180.807-55.804-25.771M300 184.271-57.804-22.307M298 187.734-59.804-18.844M296 191.199-61.804-15.379M294 194.664-63.804-11.914M292 198.127-65.804-8.451M290 201.592-67.804-4.986M288 205.057-69.804-1.521M286 208.52-71.804 1.941M284 211.984-73.804 5.406M282 215.447-75.804 8.869M280 218.912-77.804 12.334M278 222.377-79.804 15.799M276 225.84-81.804 19.262M274 229.305-83.804 22.727M272 232.768-85.804 26.19M270 236.232-87.804 29.654M268 239.697-89.804 33.119" />
        </g>
    </mask>
    <g mask="url(#b)">
        <path
            d="M272.926,-86.617c52.614,0,79.749,62.896,43.647,101.17l-111.321,118.02a34.444,34.444,0,0,1,-49.639,.492L40.138,15.411C2.884,-22.546,29.775,-86.617,82.959,-86.617h189.967Z"
            fill="url(#c)" />
    </g>
    <g opacity=".3">
        <mask id="e" style="mask-type:alpha" maskUnits="userSpaceOnUse" x="-49" y="281" width="512" height="474">
            <g clip-path="url(#d)" stroke="#000" stroke-width="2">
                <path
                    d="M463 487.961 105.196 281.383M461 491.426 103.196 284.848M459 494.889 101.196 288.311M457 498.354 99.196 291.775M455 501.816 97.196 295.238M453 505.281 95.196 298.703M451 508.746 93.196 302.168M449 512.209 91.196 305.631M447 515.674 89.196 309.096M445 519.139 87.196 312.561M443 522.602 85.196 316.023M441 526.066 83.196 319.488M439 529.529 81.196 322.951M437 532.994 79.196 326.416M435 536.459 77.196 329.881M433 539.922 75.196 333.344M431 543.387 73.196 336.809M429 546.852 71.196 340.273M427 550.314 69.196 343.736M425 553.779 67.196 347.201M423 557.242 65.196 350.664M421 560.707 63.196 354.129M419 564.172 61.196 357.594M417 567.635 59.196 361.057M415 571.1 57.196 364.521M413 574.562 55.196 367.984M411 578.027 53.196 371.449M409 581.492 51.196 374.914M407 584.955 49.196 378.377M405 588.42 47.196 381.842M403 591.885 45.196 385.307M401 595.348 43.196 388.77M399 598.812 41.196 392.234M397 602.275 39.196 395.697M395 605.74 37.196 399.162M393 609.205 35.196 402.627M391 612.668 33.196 406.09M389 616.133 31.196 409.555M387 619.598 29.196 413.02M385 623.061 27.196 416.482M383 626.525 25.196 419.947M381 629.988 23.196 423.41M379 633.453 21.196 426.875M377 636.918 19.196 430.34M375 640.381 17.196 433.803M373 643.846 15.196 437.268M371 647.311 13.196 440.732M369 650.773 11.196 444.195M367 654.238 9.196 447.66M365 657.701 7.196 451.123M363 661.166 5.196 454.588M361 664.631 3.196 458.053M359 668.094 1.196 461.516M357 671.559-.804 464.98M355 675.021-2.804 468.443M353 678.486-4.804 471.908M351 681.951-6.804 475.373M349 685.414-8.804 478.836M347 688.879-10.804 482.301M345 692.344-12.804 485.766M343 695.807-14.804 489.229M341 699.271-16.804 492.693M339 702.734-18.804 496.156M337 706.199-20.804 499.621M335 709.664-22.804 503.086M333 713.127-24.804 506.549M331 716.592-26.804 510.014M329 720.057-28.804 513.479M327 723.52-30.804 516.941M325 726.984-32.804 520.406M323 730.447-34.804 523.869M321 733.912-36.804 527.334M319 737.377-38.804 530.799M317 740.84-40.804 534.262M315 744.305-42.804 537.727M313 747.768-44.804 541.189M311 751.232-46.804 544.654M309 754.697-48.804 548.119" />
            </g>
        </mask>
        <g mask="url(#e)">
            <path
                d="M392.7736815920398,603.383c18.376,0,27.026,-22.701,13.309,-34.929L194.7286815920398,380.037A26.246,26.246,0,0,0,177.2636815920398,373.383v210c0,11.046,8.954,20,20,20h195.51Z"
                fill="url(#f)" />
        </g>
        <mask id="h" style="mask-type:alpha" maskUnits="userSpaceOnUse" x="-97" y="281" width="512" height="474">
            <g clip-path="url(#g)" stroke="#000" stroke-width="2">
                <path
                    d="M415 487.961 57.196 281.383M413 491.426 55.196 284.848M411 494.889 53.196 288.311M409 498.354 51.196 291.775M407 501.816 49.196 295.238M405 505.281 47.196 298.703M403 508.746 45.196 302.168M401 512.209 43.196 305.631M399 515.674 41.196 309.096M397 519.139 39.196 312.561M395 522.602 37.196 316.023M393 526.066 35.196 319.488M391 529.529 33.196 322.951M389 532.994 31.196 326.416M387 536.459 29.196 329.881M385 539.922 27.196 333.344M383 543.387 25.196 336.809M381 546.852 23.196 340.273M379 550.314 21.196 343.736M377 553.779 19.196 347.201M375 557.242 17.196 350.664M373 560.707 15.196 354.129M371 564.172 13.196 357.594M369 567.635 11.196 361.057M367 571.1 9.196 364.521M365 574.562 7.196 367.984M363 578.027 5.196 371.449M361 581.492 3.196 374.914M359 584.955 1.196 378.377M357 588.42-.804 381.842M355 591.885-2.804 385.307M353 595.348-4.804 388.77M351 598.812-6.804 392.234M349 602.275-8.804 395.697M347 605.74-10.804 399.162M345 609.205-12.804 402.627M343 612.668-14.804 406.09M341 616.133-16.804 409.555M339 619.598-18.804 413.02M337 623.061-20.804 416.482M335 626.525-22.804 419.947M333 629.988-24.804 423.41M331 633.453-26.804 426.875M329 636.918-28.804 430.34M327 640.381-30.804 433.803M325 643.846-32.804 437.268M323 647.311-34.804 440.732M321 650.773-36.804 444.195M319 654.238-38.804 447.66M317 657.701-40.804 451.123M315 661.166-42.804 454.588M313 664.631-44.804 458.053M311 668.094-46.804 461.516M309 671.559-48.804 464.98M307 675.021-50.804 468.443M305 678.486-52.804 471.908M303 681.951-54.804 475.373M301 685.414-56.804 478.836M299 688.879-58.804 482.301M297 692.344-60.804 485.766M295 695.807-62.804 489.229M293 699.271-64.804 492.693M291 702.734-66.804 496.156M289 706.199-68.804 499.621M287 709.664-70.804 503.086M285 713.127-72.804 506.549M283 716.592-74.804 510.014M281 720.057-76.804 513.479M279 723.52-78.804 516.941M277 726.984-80.804 520.406M275 730.447-82.804 523.869M273 733.912-84.804 527.334M271 737.377-86.804 530.799M269 740.84-88.804 534.262M267 744.305-90.804 537.727M265 747.768-92.804 541.189M263 751.232-94.804 544.654M261 754.697-96.804 548.119" />
            </g>
        </mask>
        <g mask="url(#h)">
            <path
                d="M-26.361318407960198,603.383c-18.104,0,-26.892,-22.136,-13.718,-34.554l200.066,-188.587A25.186,25.186,0,0,1,177.2636815920398,373.383v210c0,11.045,-8.954,20,-20,20H-26.361318407960198Z"
                fill="url(#i)" />
        </g>
    </g>
    <rect x="140" y="194" width="80" height="80" rx="16" fill="url(#j)" />
    <path d="M179.903 240.578V235.5l4.2-1.879c5.425-2.427 5.387-9.968-1.383-12.225-3.95-1.316-8.463.623-10.72 6.206"
        stroke="#fff" stroke-width="2" stroke-linecap="round" stroke-linejoin="round" />
    <circle cx="179.898" cy="245.657" r="1.193" fill="#fff" stroke="#fff" />
    <rect x="139.5" y="193.5" width="81" height="81" rx="16.5" stroke="#fff" stroke-opacity=".2" />
    <circle cx="199" cy="32.20721111645548" r="8" transform="rotate(90 199 30.383)" fill="#63CB7B" />
    <circle opacity=".3" cx="199" cy="32.20721111645548" r="12" transform="rotate(90 199 30.383)" fill="#63CB7B" />
    <circle cx="157" cy="90.20721874585001" r="8" transform="rotate(90 157 88.383)" fill="#63CB7B" />
    <circle opacity=".3" cx="157" cy="90.20721874585001" r="12" transform="rotate(90 157 88.383)" fill="#63CB7B" />
    <circle cx="181" cy="125.20721874585001" r="8" transform="rotate(90 181 123.383)" fill="#63CB7B" />
    <circle opacity=".3" cx="181" cy="125.20721874585001" r="12" transform="rotate(90 181 123.383)" fill="#63CB7B" />
    <circle cx="263" cy="-1.79278" r="8" transform="rotate(90 263 -3.617)" fill="#63CB7B" />
    <circle opacity=".3" cx="263" cy="-1.79278" r="12" transform="rotate(90 263 -3.617)" fill="#63CB7B" />
    <circle cx="121" cy="27.207211116455483" r="8" transform="rotate(90 121 25.383)" fill="#EE6359" />
    <circle opacity=".3" cx="121" cy="27.207211116455483" r="12" transform="rotate(90 121 25.383)" fill="#EE6359" />
    <circle cx="220" cy="87.20721874585001" r="8" transform="rotate(90 220 85.383)" fill="#EE6359" />
    <circle opacity=".3" cx="220" cy="87.20721874585001" r="12" transform="rotate(90 220 85.383)" fill="#EE6359" />
    <circle cx="100" cy="417.558780094482" r="8" transform="rotate(90 100 419.383)" fill="#EE6359" />
    <circle opacity=".3" cx="100" cy="417.558780094482" r="12" transform="rotate(90 100 419.383)" fill="#EE6359" />
    <circle cx="139" cy="446.558780094482" r="8" transform="rotate(90 139 448.383)" fill="#EE6359" />
    <circle opacity=".3" cx="139" cy="446.558780094482" r="12" transform="rotate(90 139 448.383)" fill="#EE6359" />
    <circle cx="93" cy="468.558780094482" r="8" transform="rotate(90 93 470.383)" fill="#EE6359" />
    <circle opacity=".3" cx="93" cy="468.558780094482" r="12" transform="rotate(90 93 470.383)" fill="#EE6359" />
    <circle cx="61" cy="440.558780094482" r="8" transform="rotate(90 61 442.383)" fill="#999" />
    <circle opacity=".3" cx="61" cy="440.558780094482" r="12" transform="rotate(90 61 442.383)" fill="#999" />
    <circle cx="128" cy="500.558780094482" r="8" transform="rotate(90 128 502.383)" fill="#999" />
    <circle opacity=".3" cx="128" cy="500.558780094482" r="12" transform="rotate(90 128 502.383)" fill="#999" />
    <circle cx="275" cy="470.558780094482" r="8" transform="rotate(90 275 472.383)" fill="#63CB7B" />
    <circle opacity=".3" cx="275" cy="470.558780094482" r="12" transform="rotate(90 275 472.383)" fill="#63CB7B" />
    <circle cx="220" cy="400.558780094482" r="8" transform="rotate(90 220 402.383)" fill="#63CB7B" />
    <circle opacity=".3" cx="220" cy="400.558780094482" r="12" transform="rotate(90 220 402.383)" fill="#63CB7B" />
    <circle cx="228" cy="438.558780094482" r="8" transform="rotate(90 228 440.383)" fill="#63CB7B" />
    <circle opacity=".3" cx="228" cy="438.558780094482" r="12" transform="rotate(90 228 440.383)" fill="#63CB7B" />
    <circle cx="317" cy="509.558780094482" r="8" transform="rotate(90 317 511.383)" fill="#63CB7B" />
    <circle opacity=".3" cx="317" cy="509.558780094482" r="12" transform="rotate(90 317 511.383)" fill="#63CB7B" />
    <circle cx="232" cy="496.558780094482" r="8" transform="rotate(90 232 498.383)" fill="#999" />
    <circle opacity=".3" cx="232" cy="496.558780094482" r="12" transform="rotate(90 232 498.383)" fill="#999" />
    <circle cx="277" cy="416.558780094482" r="8" transform="rotate(90 277 418.383)" fill="#999" />
    <circle opacity=".3" cx="277" cy="416.558780094482" r="12" transform="rotate(90 277 418.383)" fill="#999" />
    <defs>
        <linearGradient id="c" x1="176" y1="-86.617" x2="176" y2="154.883" gradientUnits="userSpaceOnUse">
            <stop offset=".307" stop-color="#323869" stop-opacity="0" />
            <stop offset="1" stop-color="#323869" />
        </linearGradient>
        <linearGradient id="f" x1="177" y1="603.383" x2="177" y2="361.883" gradientUnits="userSpaceOnUse">
            <stop stop-color="#323869" stop-opacity="0" />
            <stop offset="1" stop-color="#63CB7B" />
        </linearGradient>
        <linearGradient id="i" x1="183" y1="603.383" x2="183" y2="361.883" gradientUnits="userSpaceOnUse">
            <stop stop-color="#323869" stop-opacity="0" />
            <stop offset="1" stop-color="#F44336" />
        </linearGradient>
        <linearGradient id="j" x1="180" y1="194" x2="180" y2="274" gradientUnits="userSpaceOnUse">
            <stop stop-color="#fff" stop-opacity=".1" />
            <stop offset="1" stop-color="#fff" stop-opacity=".2" />
        </linearGradient>
        <clipPath id="a">
            <path fill="#fff" transform="rotate(120 218.806 108.301)" d="M0 0h308v413.156H0z" />
        </clipPath>
        <clipPath id="d">
            <path fill="#fff" transform="rotate(120 90.638 377.637)" d="M0 0h308v413.156H0z" />
        </clipPath>
        <clipPath id="g">
            <path fill="#fff" transform="rotate(120 66.638 363.78)" d="M0 0h308v413.156H0z" />
        </clipPath>
    </defs>
</svg>