<svg id="eCpVwmASjY11" xmlns="http://www.w3.org/2000/svg" xmlns:xlink="http://www.w3.org/1999/xlink"
    viewBox="0 0 1128 560" shape-rendering="geometricPrecision" text-rendering="geometricPrecision">
    <defs>
        <linearGradient id="eCpVwmASjY14-fill" x1="250" y1="286" x2="491.5" y2="286" spreadMethod="pad"
            gradientUnits="userSpaceOnUse" gradientTransform="translate(0 0)">
            <stop id="eCpVwmASjY14-fill-0" offset="0%" stop-color="rgba(50,56,105,0)" />
            <stop id="eCpVwmASjY14-fill-1" offset="100%" stop-color="#323869" />
        </linearGradient>
        <linearGradient id="eCpVwmASjY190-fill" x1="864" y1="286" x2="622.5" y2="286" spreadMethod="pad"
            gradientUnits="userSpaceOnUse" gradientTransform="translate(0 0)">
            <stop id="eCpVwmASjY190-fill-0" offset="0%" stop-color="rgba(50,56,105,0)" />
            <stop id="eCpVwmASjY190-fill-1" offset="100%" stop-color="#63cb7b" />
        </linearGradient>
        <linearGradient id="eCpVwmASjY1176-fill" x1="864" y1="280" x2="622.5" y2="280" spreadMethod="pad"
            gradientUnits="userSpaceOnUse" gradientTransform="translate(0 0)">
            <stop id="eCpVwmASjY1176-fill-0" offset="0%" stop-color="rgba(50,56,105,0)" />
            <stop id="eCpVwmASjY1176-fill-1" offset="100%" stop-color="#f44336" />
        </linearGradient>
        <linearGradient id="eCpVwmASjY1309-fill" x1="120" y1="0" x2="120" y2="145.238" spreadMethod="pad"
            gradientUnits="userSpaceOnUse" gradientTransform="translate(0 0)">
            <stop id="eCpVwmASjY1309-fill-0" offset="0%" stop-color="#f04405" />
            <stop id="eCpVwmASjY1309-fill-1" offset="100%" stop-color="#ffa439" />
        </linearGradient>
        <linearGradient id="eCpVwmASjY1311-fill" x1="108" y1="0" x2="108" y2="130.714" spreadMethod="pad"
            gradientUnits="userSpaceOnUse" gradientTransform="translate(0 0)">
            <stop id="eCpVwmASjY1311-fill-0" offset="0%" stop-color="#f04405" />
            <stop id="eCpVwmASjY1311-fill-1" offset="100%" stop-color="#ffa439" />
        </linearGradient>
        <linearGradient id="eCpVwmASjY1313-fill" x1="96" y1="0" x2="96" y2="116.19" spreadMethod="pad"
            gradientUnits="userSpaceOnUse" gradientTransform="translate(0 0)">
            <stop id="eCpVwmASjY1313-fill-0" offset="0%" stop-color="#f04405" />
            <stop id="eCpVwmASjY1313-fill-1" offset="100%" stop-color="#ffa439" />
        </linearGradient>
    </defs>
    <g transform="translate(17 0)" mask="url(#eCpVwmASjY15)">
        <g>
            <path
                d="M250,161.652c0-15.827,17.513-25.383,30.823-16.818L471.499,267.53c5.299,3.409,8.501,9.278,8.501,15.579c0,6.181-3.083,11.955-8.219,15.394L281.127,426.158C267.839,435.056,250,425.532,250,409.539v-247.887Z"
                fill="url(#eCpVwmASjY14-fill)" />
        </g>
        <mask id="eCpVwmASjY15" mask-type="alpha">
            <g clip-path="url(#eCpVwmASjY186)">
                <g transform="translate(6.064423 4.267974)">
                    <path d="M309.578,0L103,357.804" fill="none" stroke="#000" stroke-width="2" />
                    <path d="M313.043,2L106.465,359.804" fill="none" stroke="#000" stroke-width="2" />
                    <path d="M316.506,4L109.928,361.804" fill="none" stroke="#000" stroke-width="2" />
                    <path d="M319.971,6L113.393,363.804" fill="none" stroke="#000" stroke-width="2" />
                    <path d="M323.434,8L116.855,365.804" fill="none" stroke="#000" stroke-width="2" />
                    <path d="M326.898,10L120.32,367.804" fill="none" stroke="#000" stroke-width="2" />
                    <path d="M330.363,12L123.785,369.804" fill="none" stroke="#000" stroke-width="2" />
                    <path d="M333.826,14L127.248,371.804" fill="none" stroke="#000" stroke-width="2" />
                    <path d="M337.291,16L130.713,373.804" fill="none" stroke="#000" stroke-width="2" />
                    <path d="M340.756,18L134.178,375.804" fill="none" stroke="#000" stroke-width="2" />
                    <path d="M344.219,20L137.641,377.804" fill="none" stroke="#000" stroke-width="2" />
                    <path d="M347.684,22L141.105,379.804" fill="none" stroke="#000" stroke-width="2" />
                    <path d="M351.146,24L144.568,381.804" fill="none" stroke="#000" stroke-width="2" />
                    <path d="M354.611,26L148.033,383.804" fill="none" stroke="#000" stroke-width="2" />
                    <path d="M358.076,28L151.498,385.804" fill="none" stroke="#000" stroke-width="2" />
                    <path d="M361.539,30L154.961,387.804" fill="none" stroke="#000" stroke-width="2" />
                    <path d="M365.004,32L158.426,389.804" fill="none" stroke="#000" stroke-width="2" />
                    <path d="M368.469,34L161.891,391.804" fill="none" stroke="#000" stroke-width="2" />
                    <path d="M371.932,36L165.354,393.804" fill="none" stroke="#000" stroke-width="2" />
                    <path d="M375.396,38L168.818,395.804" fill="none" stroke="#000" stroke-width="2" />
                    <path d="M378.859,40L172.281,397.804" fill="none" stroke="#000" stroke-width="2" />
                    <path d="M382.324,42L175.746,399.804" fill="none" stroke="#000" stroke-width="2" />
                    <path d="M385.789,44L179.211,401.804" fill="none" stroke="#000" stroke-width="2" />
                    <path d="M389.252,46L182.674,403.804" fill="none" stroke="#000" stroke-width="2" />
                    <path d="M392.717,48L186.139,405.804" fill="none" stroke="#000" stroke-width="2" />
                    <path d="M396.18,50L189.602,407.804" fill="none" stroke="#000" stroke-width="2" />
                    <path d="M399.645,52L193.066,409.804" fill="none" stroke="#000" stroke-width="2" />
                    <path d="M403.109,54L196.531,411.804" fill="none" stroke="#000" stroke-width="2" />
                    <path d="M406.572,56L199.994,413.804" fill="none" stroke="#000" stroke-width="2" />
                    <path d="M410.037,58L203.459,415.804" fill="none" stroke="#000" stroke-width="2" />
                    <path d="M413.502,60L206.924,417.804" fill="none" stroke="#000" stroke-width="2" />
                    <path d="M416.965,62L210.387,419.804" fill="none" stroke="#000" stroke-width="2" />
                    <path d="M420.43,64L213.852,421.804" fill="none" stroke="#000" stroke-width="2" />
                    <path d="M423.893,66L217.314,423.804" fill="none" stroke="#000" stroke-width="2" />
                    <path d="M427.357,68L220.779,425.804" fill="none" stroke="#000" stroke-width="2" />
                    <path d="M430.822,70L224.244,427.804" fill="none" stroke="#000" stroke-width="2" />
                    <path d="M434.285,72L227.707,429.804" fill="none" stroke="#000" stroke-width="2" />
                    <path d="M437.75,74L231.172,431.804" fill="none" stroke="#000" stroke-width="2" />
                    <path d="M441.215,76L234.637,433.804" fill="none" stroke="#000" stroke-width="2" />
                    <path d="M444.678,78L238.1,435.804" fill="none" stroke="#000" stroke-width="2" />
                    <path d="M448.143,80L241.564,437.804" fill="none" stroke="#000" stroke-width="2" />
                    <path d="M451.605,82L245.027,439.804" fill="none" stroke="#000" stroke-width="2" />
                    <path d="M455.07,84L248.492,441.804" fill="none" stroke="#000" stroke-width="2" />
                    <path d="M458.535,86L251.957,443.804" fill="none" stroke="#000" stroke-width="2" />
                    <path d="M461.998,88L255.42,445.804" fill="none" stroke="#000" stroke-width="2" />
                    <path d="M465.463,90L258.885,447.804" fill="none" stroke="#000" stroke-width="2" />
                    <path d="M468.928,92L262.35,449.804" fill="none" stroke="#000" stroke-width="2" />
                    <path d="M472.391,94L265.813,451.804" fill="none" stroke="#000" stroke-width="2" />
                    <path d="M475.855,96L269.277,453.804" fill="none" stroke="#000" stroke-width="2" />
                    <path d="M479.318,98L272.74,455.804" fill="none" stroke="#000" stroke-width="2" />
                    <path d="M482.783,100L276.205,457.804" fill="none" stroke="#000" stroke-width="2" />
                    <path d="M486.248,102L279.67,459.804" fill="none" stroke="#000" stroke-width="2" />
                    <path d="M489.711,104L283.133,461.804" fill="none" stroke="#000" stroke-width="2" />
                    <path d="M493.176,106L286.598,463.804" fill="none" stroke="#000" stroke-width="2" />
                    <path d="M496.639,108L290.061,465.804" fill="none" stroke="#000" stroke-width="2" />
                    <path d="M500.104,110L293.525,467.804" fill="none" stroke="#000" stroke-width="2" />
                    <path d="M503.568,112L296.99,469.804" fill="none" stroke="#000" stroke-width="2" />
                    <path d="M507.031,114L300.453,471.804" fill="none" stroke="#000" stroke-width="2" />
                    <path d="M510.496,116L303.918,473.804" fill="none" stroke="#000" stroke-width="2" />
                    <path d="M513.961,118L307.383,475.804" fill="none" stroke="#000" stroke-width="2" />
                    <path d="M517.424,120L310.846,477.804" fill="none" stroke="#000" stroke-width="2" />
                    <path d="M520.889,122L314.311,479.804" fill="none" stroke="#000" stroke-width="2" />
                    <path d="M524.352,124L317.773,481.804" fill="none" stroke="#000" stroke-width="2" />
                    <path d="M527.816,126L321.238,483.804" fill="none" stroke="#000" stroke-width="2" />
                    <path d="M531.281,128L324.703,485.804" fill="none" stroke="#000" stroke-width="2" />
                    <path d="M534.744,130L328.166,487.804" fill="none" stroke="#000" stroke-width="2" />
                    <path d="M538.209,132L331.631,489.804" fill="none" stroke="#000" stroke-width="2" />
                    <path d="M541.674,134L335.096,491.804" fill="none" stroke="#000" stroke-width="2" />
                    <path d="M545.137,136L338.559,493.804" fill="none" stroke="#000" stroke-width="2" />
                    <path d="M548.602,138L342.023,495.804" fill="none" stroke="#000" stroke-width="2" />
                    <path d="M552.064,140L345.486,497.804" fill="none" stroke="#000" stroke-width="2" />
                    <path d="M555.529,142L348.951,499.804" fill="none" stroke="#000" stroke-width="2" />
                    <path d="M558.994,144L352.416,501.804" fill="none" stroke="#000" stroke-width="2" />
                    <path d="M562.457,146L355.879,503.804" fill="none" stroke="#000" stroke-width="2" />
                    <path d="M565.922,148L359.344,505.804" fill="none" stroke="#000" stroke-width="2" />
                    <path d="M569.385,150L362.807,507.804" fill="none" stroke="#000" stroke-width="2" />
                    <path d="M572.85,152L366.272,509.804" fill="none" stroke="#000" stroke-width="2" />
                    <path d="M576.314,154L369.736,511.804" fill="none" stroke="#000" stroke-width="2" />
                </g>
                <clipPath id="eCpVwmASjY186">
                    <rect width="308" height="413.156" rx="0" ry="0"
                        transform="matrix(.866025 0.5-.5 0.866025 309.578 0)" fill="#fff" />
                </clipPath>
            </g>
        </mask>
    </g>
    <g transform="translate(17 0)" mask="url(#eCpVwmASjY191)">
        <g>
            <path
                d="M864,161.652c0-15.827-17.513-25.383-30.823-16.818L642.409,267.589C637.168,270.962,634,276.767,634,283h210c11.046,0,20-8.954,20-20v-101.348Z"
                fill="url(#eCpVwmASjY190-fill)" />
        </g>
        <mask id="eCpVwmASjY191" mask-type="alpha">
            <g clip-path="url(#eCpVwmASjY1172)">
                <g transform="translate(11.692603 4.267974)">
                    <path d="M748.578,0L542,357.804" fill="none" stroke="#000" stroke-width="2" />
                    <path d="M752.043,2L545.465,359.804" fill="none" stroke="#000" stroke-width="2" />
                    <path d="M755.506,4L548.928,361.804" fill="none" stroke="#000" stroke-width="2" />
                    <path d="M758.971,6L552.393,363.804" fill="none" stroke="#000" stroke-width="2" />
                    <path d="M762.434,8L555.855,365.804" fill="none" stroke="#000" stroke-width="2" />
                    <path d="M765.898,10L559.32,367.804" fill="none" stroke="#000" stroke-width="2" />
                    <path d="M769.363,12L562.785,369.804" fill="none" stroke="#000" stroke-width="2" />
                    <path d="M772.826,14L566.248,371.804" fill="none" stroke="#000" stroke-width="2" />
                    <path d="M776.291,16L569.713,373.804" fill="none" stroke="#000" stroke-width="2" />
                    <path d="M779.756,18L573.178,375.804" fill="none" stroke="#000" stroke-width="2" />
                    <path d="M783.219,20L576.641,377.804" fill="none" stroke="#000" stroke-width="2" />
                    <path d="M786.684,22L580.105,379.804" fill="none" stroke="#000" stroke-width="2" />
                    <path d="M790.146,24L583.568,381.804" fill="none" stroke="#000" stroke-width="2" />
                    <path d="M793.611,26L587.033,383.804" fill="none" stroke="#000" stroke-width="2" />
                    <path d="M797.076,28L590.498,385.804" fill="none" stroke="#000" stroke-width="2" />
                    <path d="M800.539,30L593.961,387.804" fill="none" stroke="#000" stroke-width="2" />
                    <path d="M804.004,32L597.426,389.804" fill="none" stroke="#000" stroke-width="2" />
                    <path d="M807.469,34L600.891,391.804" fill="none" stroke="#000" stroke-width="2" />
                    <path d="M810.932,36L604.354,393.804" fill="none" stroke="#000" stroke-width="2" />
                    <path d="M814.396,38L607.818,395.804" fill="none" stroke="#000" stroke-width="2" />
                    <path d="M817.859,40L611.281,397.804" fill="none" stroke="#000" stroke-width="2" />
                    <path d="M821.324,42L614.746,399.804" fill="none" stroke="#000" stroke-width="2" />
                    <path d="M824.789,44L618.211,401.804" fill="none" stroke="#000" stroke-width="2" />
                    <path d="M828.252,46L621.674,403.804" fill="none" stroke="#000" stroke-width="2" />
                    <path d="M831.717,48L625.139,405.804" fill="none" stroke="#000" stroke-width="2" />
                    <path d="M835.18,50L628.602,407.804" fill="none" stroke="#000" stroke-width="2" />
                    <path d="M838.645,52L632.066,409.804" fill="none" stroke="#000" stroke-width="2" />
                    <path d="M842.109,54L635.531,411.804" fill="none" stroke="#000" stroke-width="2" />
                    <path d="M845.572,56L638.994,413.804" fill="none" stroke="#000" stroke-width="2" />
                    <path d="M849.037,58L642.459,415.804" fill="none" stroke="#000" stroke-width="2" />
                    <path d="M852.502,60L645.924,417.804" fill="none" stroke="#000" stroke-width="2" />
                    <path d="M855.965,62L649.387,419.804" fill="none" stroke="#000" stroke-width="2" />
                    <path d="M859.43,64L652.852,421.804" fill="none" stroke="#000" stroke-width="2" />
                    <path d="M862.893,66L656.314,423.804" fill="none" stroke="#000" stroke-width="2" />
                    <path d="M866.357,68L659.779,425.804" fill="none" stroke="#000" stroke-width="2" />
                    <path d="M869.822,70L663.244,427.804" fill="none" stroke="#000" stroke-width="2" />
                    <path d="M873.285,72L666.707,429.804" fill="none" stroke="#000" stroke-width="2" />
                    <path d="M876.75,74L670.172,431.804" fill="none" stroke="#000" stroke-width="2" />
                    <path d="M880.215,76L673.637,433.804" fill="none" stroke="#000" stroke-width="2" />
                    <path d="M883.678,78L677.1,435.804" fill="none" stroke="#000" stroke-width="2" />
                    <path d="M887.143,80L680.564,437.804" fill="none" stroke="#000" stroke-width="2" />
                    <path d="M890.605,82L684.027,439.804" fill="none" stroke="#000" stroke-width="2" />
                    <path d="M894.07,84L687.492,441.804" fill="none" stroke="#000" stroke-width="2" />
                    <path d="M897.535,86L690.957,443.804" fill="none" stroke="#000" stroke-width="2" />
                    <path d="M900.998,88L694.42,445.804" fill="none" stroke="#000" stroke-width="2" />
                    <path d="M904.463,90L697.885,447.804" fill="none" stroke="#000" stroke-width="2" />
                    <path d="M907.928,92L701.35,449.804" fill="none" stroke="#000" stroke-width="2" />
                    <path d="M911.391,94L704.813,451.804" fill="none" stroke="#000" stroke-width="2" />
                    <path d="M914.855,96L708.277,453.804" fill="none" stroke="#000" stroke-width="2" />
                    <path d="M918.318,98L711.74,455.804" fill="none" stroke="#000" stroke-width="2" />
                    <path d="M921.783,100L715.205,457.804" fill="none" stroke="#000" stroke-width="2" />
                    <path d="M925.248,102L718.67,459.804" fill="none" stroke="#000" stroke-width="2" />
                    <path d="M928.711,104L722.133,461.804" fill="none" stroke="#000" stroke-width="2" />
                    <path d="M932.176,106L725.598,463.804" fill="none" stroke="#000" stroke-width="2" />
                    <path d="M935.639,108L729.061,465.804" fill="none" stroke="#000" stroke-width="2" />
                    <path d="M939.104,110L732.525,467.804" fill="none" stroke="#000" stroke-width="2" />
                    <path d="M942.568,112L735.99,469.804" fill="none" stroke="#000" stroke-width="2" />
                    <path d="M946.031,114L739.453,471.804" fill="none" stroke="#000" stroke-width="2" />
                    <path d="M949.496,116L742.918,473.804" fill="none" stroke="#000" stroke-width="2" />
                    <path d="M952.961,118L746.383,475.804" fill="none" stroke="#000" stroke-width="2" />
                    <path d="M956.424,120L749.846,477.804" fill="none" stroke="#000" stroke-width="2" />
                    <path d="M959.889,122L753.311,479.804" fill="none" stroke="#000" stroke-width="2" />
                    <path d="M963.352,124L756.773,481.804" fill="none" stroke="#000" stroke-width="2" />
                    <path d="M966.816,126L760.238,483.804" fill="none" stroke="#000" stroke-width="2" />
                    <path d="M970.281,128L763.703,485.804" fill="none" stroke="#000" stroke-width="2" />
                    <path d="M973.744,130L767.166,487.804" fill="none" stroke="#000" stroke-width="2" />
                    <path d="M977.209,132L770.631,489.804" fill="none" stroke="#000" stroke-width="2" />
                    <path d="M980.674,134L774.096,491.804" fill="none" stroke="#000" stroke-width="2" />
                    <path d="M984.137,136L777.559,493.804" fill="none" stroke="#000" stroke-width="2" />
                    <path d="M987.602,138L781.023,495.804" fill="none" stroke="#000" stroke-width="2" />
                    <path d="M991.064,140L784.486,497.804" fill="none" stroke="#000" stroke-width="2" />
                    <path d="M994.529,142L787.951,499.804" fill="none" stroke="#000" stroke-width="2" />
                    <path d="M997.994,144L791.416,501.804" fill="none" stroke="#000" stroke-width="2" />
                    <path d="M1001.46,146L794.879,503.804" fill="none" stroke="#000" stroke-width="2" />
                    <path d="M1004.92,148L798.344,505.804" fill="none" stroke="#000" stroke-width="2" />
                    <path d="M1008.38,150L801.807,507.804" fill="none" stroke="#000" stroke-width="2" />
                    <path d="M1011.85,152L805.272,509.804" fill="none" stroke="#000" stroke-width="2" />
                    <path d="M1015.31,154L808.736,511.804" fill="none" stroke="#000" stroke-width="2" />
                </g>
                <clipPath id="eCpVwmASjY1172">
                    <rect width="308" height="413.156" rx="0" ry="0"
                        transform="matrix(.866025 0.5-.5 0.866025 748.578 0)" fill="#fff" />
                </clipPath>
            </g>
        </mask>
    </g>
    <g transform="translate(17 0)" mask="url(#eCpVwmASjY1177)">
        <g>
            <path
                d="M864,404.348c0,15.827-17.513,25.383-30.823,16.818L642.409,298.411C637.168,295.038,634,289.233,634,283h210c11.046,0,20,8.954,20,20v101.348Z"
                fill="url(#eCpVwmASjY1176-fill)" />
        </g>
        <mask id="eCpVwmASjY1177" mask-type="alpha">
            <g clip-path="url(#eCpVwmASjY1258)">
                <g transform="translate(11.692603 4.883359)">
                    <path d="M748.578,48L542,405.804" fill="none" stroke="#000" stroke-width="2" />
                    <path d="M752.043,50L545.465,407.804" fill="none" stroke="#000" stroke-width="2" />
                    <path d="M755.506,52L548.928,409.804" fill="none" stroke="#000" stroke-width="2" />
                    <path d="M758.971,54L552.393,411.804" fill="none" stroke="#000" stroke-width="2" />
                    <path d="M762.434,56L555.855,413.804" fill="none" stroke="#000" stroke-width="2" />
                    <path d="M765.898,58L559.32,415.804" fill="none" stroke="#000" stroke-width="2" />
                    <path d="M769.363,60L562.785,417.804" fill="none" stroke="#000" stroke-width="2" />
                    <path d="M772.826,62L566.248,419.804" fill="none" stroke="#000" stroke-width="2" />
                    <path d="M776.291,64L569.713,421.804" fill="none" stroke="#000" stroke-width="2" />
                    <path d="M779.756,66L573.178,423.804" fill="none" stroke="#000" stroke-width="2" />
                    <path d="M783.219,68L576.641,425.804" fill="none" stroke="#000" stroke-width="2" />
                    <path d="M786.684,70L580.105,427.804" fill="none" stroke="#000" stroke-width="2" />
                    <path d="M790.146,72L583.568,429.804" fill="none" stroke="#000" stroke-width="2" />
                    <path d="M793.611,74L587.033,431.804" fill="none" stroke="#000" stroke-width="2" />
                    <path d="M797.076,76L590.498,433.804" fill="none" stroke="#000" stroke-width="2" />
                    <path d="M800.539,78L593.961,435.804" fill="none" stroke="#000" stroke-width="2" />
                    <path d="M804.004,80L597.426,437.804" fill="none" stroke="#000" stroke-width="2" />
                    <path d="M807.469,82L600.891,439.804" fill="none" stroke="#000" stroke-width="2" />
                    <path d="M810.932,84L604.354,441.804" fill="none" stroke="#000" stroke-width="2" />
                    <path d="M814.396,86L607.818,443.804" fill="none" stroke="#000" stroke-width="2" />
                    <path d="M817.859,88L611.281,445.804" fill="none" stroke="#000" stroke-width="2" />
                    <path d="M821.324,90L614.746,447.804" fill="none" stroke="#000" stroke-width="2" />
                    <path d="M824.789,92L618.211,449.804" fill="none" stroke="#000" stroke-width="2" />
                    <path d="M828.252,94L621.674,451.804" fill="none" stroke="#000" stroke-width="2" />
                    <path d="M831.717,96L625.139,453.804" fill="none" stroke="#000" stroke-width="2" />
                    <path d="M835.18,98L628.602,455.804" fill="none" stroke="#000" stroke-width="2" />
                    <path d="M838.645,100L632.066,457.804" fill="none" stroke="#000" stroke-width="2" />
                    <path d="M842.109,102L635.531,459.804" fill="none" stroke="#000" stroke-width="2" />
                    <path d="M845.572,104L638.994,461.804" fill="none" stroke="#000" stroke-width="2" />
                    <path d="M849.037,106L642.459,463.804" fill="none" stroke="#000" stroke-width="2" />
                    <path d="M852.502,108L645.924,465.804" fill="none" stroke="#000" stroke-width="2" />
                    <path d="M855.965,110L649.387,467.804" fill="none" stroke="#000" stroke-width="2" />
                    <path d="M859.43,112L652.852,469.804" fill="none" stroke="#000" stroke-width="2" />
                    <path d="M862.893,114L656.314,471.804" fill="none" stroke="#000" stroke-width="2" />
                    <path d="M866.357,116L659.779,473.804" fill="none" stroke="#000" stroke-width="2" />
                    <path d="M869.822,118L663.244,475.804" fill="none" stroke="#000" stroke-width="2" />
                    <path d="M873.285,120L666.707,477.804" fill="none" stroke="#000" stroke-width="2" />
                    <path d="M876.75,122L670.172,479.804" fill="none" stroke="#000" stroke-width="2" />
                    <path d="M880.215,124L673.637,481.804" fill="none" stroke="#000" stroke-width="2" />
                    <path d="M883.678,126L677.1,483.804" fill="none" stroke="#000" stroke-width="2" />
                    <path d="M887.143,128L680.564,485.804" fill="none" stroke="#000" stroke-width="2" />
                    <path d="M890.605,130L684.027,487.804" fill="none" stroke="#000" stroke-width="2" />
                    <path d="M894.07,132L687.492,489.804" fill="none" stroke="#000" stroke-width="2" />
                    <path d="M897.535,134L690.957,491.804" fill="none" stroke="#000" stroke-width="2" />
                    <path d="M900.998,136L694.42,493.804" fill="none" stroke="#000" stroke-width="2" />
                    <path d="M904.463,138L697.885,495.804" fill="none" stroke="#000" stroke-width="2" />
                    <path d="M907.928,140L701.35,497.804" fill="none" stroke="#000" stroke-width="2" />
                    <path d="M911.391,142L704.813,499.804" fill="none" stroke="#000" stroke-width="2" />
                    <path d="M914.855,144L708.277,501.804" fill="none" stroke="#000" stroke-width="2" />
                    <path d="M918.318,146L711.74,503.804" fill="none" stroke="#000" stroke-width="2" />
                    <path d="M921.783,148L715.205,505.804" fill="none" stroke="#000" stroke-width="2" />
                    <path d="M925.248,150L718.67,507.804" fill="none" stroke="#000" stroke-width="2" />
                    <path d="M928.711,152L722.133,509.804" fill="none" stroke="#000" stroke-width="2" />
                    <path d="M932.176,154L725.598,511.804" fill="none" stroke="#000" stroke-width="2" />
                    <path d="M935.639,156L729.061,513.804" fill="none" stroke="#000" stroke-width="2" />
                    <path d="M939.104,158L732.525,515.804" fill="none" stroke="#000" stroke-width="2" />
                    <path d="M942.568,160L735.99,517.804" fill="none" stroke="#000" stroke-width="2" />
                    <path d="M946.031,162L739.453,519.804" fill="none" stroke="#000" stroke-width="2" />
                    <path d="M949.496,164L742.918,521.804" fill="none" stroke="#000" stroke-width="2" />
                    <path d="M952.961,166L746.383,523.804" fill="none" stroke="#000" stroke-width="2" />
                    <path d="M956.424,168L749.846,525.804" fill="none" stroke="#000" stroke-width="2" />
                    <path d="M959.889,170L753.311,527.804" fill="none" stroke="#000" stroke-width="2" />
                    <path d="M963.352,172L756.773,529.804" fill="none" stroke="#000" stroke-width="2" />
                    <path d="M966.816,174L760.238,531.804" fill="none" stroke="#000" stroke-width="2" />
                    <path d="M970.281,176L763.703,533.804" fill="none" stroke="#000" stroke-width="2" />
                    <path d="M973.744,178L767.166,535.804" fill="none" stroke="#000" stroke-width="2" />
                    <path d="M977.209,180L770.631,537.804" fill="none" stroke="#000" stroke-width="2" />
                    <path d="M980.674,182L774.096,539.804" fill="none" stroke="#000" stroke-width="2" />
                    <path d="M984.137,184L777.559,541.804" fill="none" stroke="#000" stroke-width="2" />
                    <path d="M987.602,186L781.023,543.804" fill="none" stroke="#000" stroke-width="2" />
                    <path d="M991.064,188L784.486,545.804" fill="none" stroke="#000" stroke-width="2" />
                    <path d="M994.529,190L787.951,547.804" fill="none" stroke="#000" stroke-width="2" />
                    <path d="M997.994,192L791.416,549.804" fill="none" stroke="#000" stroke-width="2" />
                    <path d="M1001.46,194L794.879,551.804" fill="none" stroke="#000" stroke-width="2" />
                    <path d="M1004.92,196L798.344,553.804" fill="none" stroke="#000" stroke-width="2" />
                    <path d="M1008.38,198L801.807,555.804" fill="none" stroke="#000" stroke-width="2" />
                    <path d="M1011.85,200L805.272,557.804" fill="none" stroke="#000" stroke-width="2" />
                    <path d="M1015.31,202L808.736,559.804" fill="none" stroke="#000" stroke-width="2" />
                </g>
                <clipPath id="eCpVwmASjY1258">
                    <rect width="308" height="413.156" rx="0" ry="0"
                        transform="matrix(.866025 0.5-.5 0.866025 748.578 48)" fill="#fff" />
                </clipPath>
            </g>
        </mask>
    </g>
    <circle r="8" transform="translate(169 346)" fill="#63cb7b" />
    <circle r="12" transform="translate(169 346)" opacity="0.3" fill="#63cb7b" />
    <circle r="8" transform="translate(167 214)" fill="#63cb7b" />
    <circle r="12" transform="translate(167 214)" opacity="0.3" fill="#63cb7b" />
    <circle r="8" transform="translate(335 289)" fill="#63cb7b" />
    <circle r="12" transform="translate(335 289)" opacity="0.3" fill="#63cb7b" />
    <circle r="8" transform="translate(88 227)" fill="#63cb7b" />
    <circle r="12" transform="translate(88 227)" opacity="0.3" fill="#63cb7b" />
    <circle r="8" transform="translate(127 193)" fill="#63cb7b" />
    <circle r="12" transform="translate(127 193)" opacity="0.3" fill="#63cb7b" />
    <circle r="8" transform="translate(29 128)" fill="#63cb7b" />
    <circle r="12" transform="translate(29 128)" opacity="0.3" fill="#63cb7b" />
    <circle r="8" transform="translate(431 309)" fill="#63cb7b" />
    <circle r="12" transform="translate(431 309)" opacity="0.3" fill="#63cb7b" />
    <circle r="8" transform="translate(431 271)" fill="#63cb7b" />
    <circle r="12" transform="translate(431 271)" opacity="0.3" fill="#63cb7b" />
    <circle r="8" transform="translate(330 194)" fill="#63cb7b" />
    <circle r="12" transform="translate(330 194)" opacity="0.3" fill="#63cb7b" />
    <circle r="8" transform="translate(259 406)" fill="#63cb7b" />
    <circle r="12" transform="translate(259 406)" opacity="0.3" fill="#63cb7b" />
    <circle r="8" transform="translate(276 328.73)" fill="#ee6359" />
    <circle r="12" transform="translate(276 328.73)" opacity="0.3" fill="#ee6359" />
    <circle r="8" transform="translate(278 220)" fill="#ee6359" />
    <circle r="12" transform="translate(278 220)" opacity="0.3" fill="#ee6359" />
    <circle r="8" transform="translate(378 330.73)" fill="#ee6359" />
    <circle r="12" transform="translate(378 330.73)" opacity="0.3" fill="#ee6359" />
    <circle r="8" transform="translate(165 258)" fill="#63cb7b" />
    <circle r="12" transform="translate(165 258)" opacity="0.3" fill="#63cb7b" />
    <circle r="8" transform="translate(921 378.73)" fill="#ee6359" />
    <circle r="12" transform="translate(921 378.73)" opacity="0.3" fill="#ee6359" />
    <circle r="8" transform="translate(950 339.73)" fill="#ee6359" />
    <circle r="12" transform="translate(950 339.73)" opacity="0.3" fill="#ee6359" />
    <circle r="8" transform="translate(976 403.73)" fill="#ee6359" />
    <circle r="12" transform="translate(976 403.73)" opacity="0.3" fill="#ee6359" />
    <circle r="8" transform="translate(897 146)" fill="#63cb7b" />
    <circle r="12" transform="translate(897 146)" opacity="0.3" fill="#63cb7b" />
    <circle r="8" transform="translate(945 193)" fill="#63cb7b" />
    <circle r="12" transform="translate(945 193)" opacity="0.3" fill="#63cb7b" />
    <circle r="8" transform="translate(902 200)" fill="#63cb7b" />
    <circle r="12" transform="translate(902 200)" opacity="0.3" fill="#63cb7b" />
    <circle r="8" transform="translate(864 232)" fill="#63cb7b" />
    <circle r="12" transform="translate(864 232)" opacity="0.3" fill="#63cb7b" />
    <circle r="8" transform="translate(970 243)" fill="#63cb7b" />
    <circle r="12" transform="translate(970 243)" opacity="0.3" fill="#63cb7b" />
    <circle r="8" transform="translate(945 134)" fill="#63cb7b" />
    <circle r="12" transform="translate(945 134)" opacity="0.3" fill="#63cb7b" />
    <circle r="8" transform="translate(922 247)" fill="#63cb7b" />
    <circle r="12" transform="translate(922 247)" opacity="0.3" fill="#63cb7b" />
    <g transform="translate(17 0)" opacity="0.3">
        <rect width="120" height="120" rx="32" ry="32" transform="translate(499 223)"
            fill="url(#eCpVwmASjY1309-fill)" />
    </g>
    <g transform="translate(17 0)" opacity="0.3">
        <rect width="108" height="108" rx="28" ry="28" transform="translate(505 229)"
            fill="url(#eCpVwmASjY1311-fill)" />
    </g>
    <g transform="translate(17 0)">
        <rect width="96" height="96" rx="24" ry="24" transform="translate(511 235)" fill="url(#eCpVwmASjY1313-fill)" />
        <path
            d="M569.995,269.435c-.153,0-.305-.039-.44-.114-3.26-1.663-6.863-2.529-10.518-2.529-3.654,0-7.257.866-10.518,2.529-.22.114-.474.14-.712.074-.238-.067-.443-.221-.574-.432-.057-.103-.093-.217-.105-.335s-.001-.237.034-.351c.035-.113.092-.218.168-.308.077-.09.17-.164.276-.217c3.535-1.804,7.442-2.747,11.405-2.752c3.964-.005,7.873.928,11.413,2.724.109.048.207.12.287.209s.14.194.178.308c.037.114.05.235.038.354-.012.12-.049.236-.108.34-.08.15-.199.275-.344.363s-.311.135-.48.137Zm-27.032,9.422c-.2,0-.396-.057-.564-.165-.1-.064-.186-.148-.253-.247-.066-.1-.111-.211-.132-.329-.021-.117-.018-.238.009-.354.028-.117.079-.226.15-.321c1.863-2.503,4.298-4.515,7.097-5.868c3.048-1.435,6.372-2.179,9.736-2.179c3.365,0,6.689.744,9.737,2.179c2.788,1.339,5.218,3.331,7.085,5.811.072.096.122.206.149.323s.03.238.009.356c-.022.118-.068.23-.135.33-.067.099-.153.183-.254.247-.21.136-.463.187-.708.141-.245-.045-.464-.183-.612-.385-1.687-2.246-3.882-4.054-6.403-5.271-2.779-1.307-5.809-1.985-8.876-1.985s-6.097.678-8.876,1.985c-2.532,1.242-4.731,3.077-6.414,5.351-.08.123-.19.222-.32.289-.129.067-.274.098-.419.092h-.006Zm11.807,21.657c-.124.001-.246-.023-.36-.069-.114-.047-.218-.117-.306-.204-1.521-1.351-2.803-2.952-3.791-4.737-1.345-2.367-2.031-5.056-1.985-7.783c0-5.328,4.795-9.666,10.718-9.666s10.662,4.321,10.662,9.666c0,.253-.1.496-.278.675s-.419.28-.67.28-.492-.101-.67-.28-.278-.422-.278-.675c0-4.35-3.949-7.887-8.789-7.887s-8.806,3.537-8.806,7.887c-.043,2.418.563,4.803,1.755,6.902.918,1.632,2.1,3.099,3.497,4.338.086.083.154.183.2.292.047.11.071.229.071.348c0,.12-.024.238-.071.348-.046.11-.114.209-.2.292-.195.168-.442.265-.699.273Zm13.539-3.327c-2.064.054-4.099-.5-5.856-1.592-1.351-.821-2.474-1.974-3.263-3.351s-1.219-2.933-1.25-4.523c0-.252.099-.494.276-.672s.416-.278.666-.278.49.1.666.278c.177.178.276.42.276.672.026,1.292.378,2.556,1.022,3.673.645,1.117,1.561,2.05,2.662,2.712c1.443.887,3.112,1.329,4.801,1.273.657-.01,1.314-.069,1.963-.176.122-.027.248-.03.371-.008s.24.069.345.137.196.157.266.26c.071.104.121.221.146.345.019.12.014.243-.015.361s-.082.229-.154.326c-.073.097-.165.178-.269.239-.105.061-.221.1-.34.114-.746.131-1.5.201-2.257.21h-.056Zm-3.791,3.702c-.084-.001-.168-.014-.248-.04-2.635-.591-5.062-1.89-7.024-3.758-1.289-1.191-2.32-2.639-3.027-4.252-.707-1.612-1.074-3.355-1.079-5.118c0-2.906,2.611-5.282,5.821-5.282s5.816,2.376,5.816,5.282c0,1.91,1.755,3.479,3.949,3.479c2.195,0,3.949-1.569,3.949-3.479c0-6.772-6.143-12.259-13.691-12.259-5.365,0-10.278,2.843-12.49,7.232-.765,1.562-1.152,3.285-1.128,5.027-.006,2.222.426,4.423,1.269,6.476.041.111.059.231.053.35s-.037.235-.09.342c-.053.106-.127.201-.217.278-.091.076-.196.133-.31.167-.231.093-.49.092-.72-.004-.231-.095-.416-.277-.515-.508-.898-2.258-1.359-4.669-1.36-7.101-.034-2.014.405-4.007,1.281-5.817c2.51-5.003,8.084-8.25,14.182-8.25c8.591,0,15.575,6.294,15.575,14.05c0,2.905-2.601,5.27-5.816,5.27-3.216,0-5.81-2.365-5.81-5.27c0-1.922-1.761-3.48-3.949-3.48-2.189,0-3.949,1.558-3.949,3.48.004,1.525.325,3.032.941,4.426.616,1.393,1.513,2.641,2.635,3.664c1.72,1.651,3.854,2.797,6.172,3.315.116.026.225.075.321.145.097.069.179.157.241.259s.103.215.121.333c.018.119.012.239-.018.355-.052.196-.168.37-.328.494-.159.124-.355.192-.557.194Z"
            fill="#fff" />
    </g>
    <path d="M66.2184,489.5c-3.0003-39,25.5004-83.5,48.9996-95" transform="translate(17 0)" fill="none" stroke="#f04405"
        stroke-width="2" stroke-linecap="round" />
    <path d="M100.719,396l13.993-1.749c.822-.103,1.405.781.988,1.496L109.719,406" transform="translate(17 0)"
        fill="none" stroke="#f04405" stroke-width="2" stroke-linecap="round" />
    <path d="M565.659,465.857l-5.482-12.993c-.322-.763-1.379-.826-1.79-.107l-5.889,10.306" transform="translate(17 0)"
        fill="none" stroke="#f04405" stroke-width="2" stroke-linecap="round" />
    <path d="M996.545,169.683l-12.72,6.087c-.747.358-.761,1.416-.023,1.793l10.572,5.397" transform="translate(17 0)"
        fill="none" stroke="#f04405" stroke-width="2" stroke-linecap="round" />
    <path d="M1085.15,347.018l-1.88,13.977c-.11.821.77,1.412,1.49,1.001l10.3-5.885" transform="translate(17 0)"
        fill="none" stroke="#f04405" stroke-width="2" stroke-linecap="round" />
    <path d="M461.5,478.857c34,24.5,98,36.5,98-23.5" transform="translate(17 0)" fill="none" stroke="#f04405"
        stroke-width="2" stroke-linecap="round" />
    <path d="M986.5,57c54.5,32,72,119.5.001,119.5" transform="translate(17 0)" fill="none" stroke="#f04405"
        stroke-width="2" stroke-linecap="round" />
    <path d="M989,55.5c124,85.5,145,247,97,304" transform="translate(17 0)" fill="none" stroke="#f04405"
        stroke-width="2" stroke-linecap="round" />
</svg>