<svg xmlns="http://www.w3.org/2000/svg" viewBox="0 0 633 312" shape-rendering="geometricPrecision"
    text-rendering="geometricPrecision">
    <defs>
        <linearGradient id="b" x1="148.84" y1="159.05" x2="282.883" y2="159.05" spreadMethod="pad"
            gradientUnits="userSpaceOnUse">
            <stop offset="0%" stop-color="rgba(50,56,105,0)" />
            <stop offset="100%" stop-color="#323869" />
        </linearGradient>
        <linearGradient id="e" x1="489.639" y1="159.05" x2="355.595" y2="159.05" spreadMethod="pad"
            gradientUnits="userSpaceOnUse">
            <stop offset="0%" stop-color="rgba(50,56,105,0)" />
            <stop offset="100%" stop-color="#769a84" />
        </linearGradient>
        <linearGradient id="h" x1="489.639" y1="155.72" x2="355.595" y2="155.72" spreadMethod="pad"
            gradientUnits="userSpaceOnUse">
            <stop offset="0%" stop-color="rgba(50,56,105,0)" />
            <stop offset="100%" stop-color="#9b7a78" />
        </linearGradient>
        <linearGradient id="j" x1="26.642" y1="0" x2="26.642" y2="53.285" spreadMethod="pad"
            gradientUnits="userSpaceOnUse">
            <stop offset="0%" stop-color="rgba(255,255,255,0.1)" />
            <stop offset="100%" stop-color="rgba(255,255,255,0.2)" />
        </linearGradient>
    </defs>
    <g mask="url(#a)">
        <path
            d="M148.84 90.031c0-8.785 9.72-14.089 17.108-9.335l105.834 68.102a10.285 10.285 0 0 1 .157 17.192l-105.822 70.854c-7.376 4.939-17.277-.348-17.277-9.224V90.031Z"
            fill="url(#b)" />
        <mask id="a" mask-type="alpha">
            <g clip-path="url(#c)">
                <g fill="none" stroke="#000" stroke-width="1.11">
                    <path
                        d="M185.403 2.68 70.743 201.276M187.325 3.789 72.665 202.387M189.25 4.9 74.588 203.498M191.171 6.01 76.511 204.607M193.095 7.119 78.435 205.717M195.016 8.23 80.356 206.828M196.94 9.34 82.28 207.937M198.862 10.451 84.202 209.049M200.786 11.56 86.126 210.158M202.708 12.67 88.048 211.267M204.63 13.781 89.97 212.379M206.554 14.89 91.894 213.488M208.475 16 93.815 214.597M210.4 17.111 95.74 215.71M212.321 18.22 97.661 216.819M214.245 19.332 99.585 217.929M216.167 20.441 101.507 219.04M218.091 21.55l-114.66 198.598M220.013 22.662 105.353 221.26M221.934 23.771 107.274 222.37M223.858 24.88l-114.66 198.598M225.78 25.992 111.12 224.59M227.704 27.101 113.044 225.7M229.626 28.21l-114.66 198.598M231.55 29.322 116.89 227.92M233.472 30.431 118.812 229.03M235.393 31.543 120.733 230.14M237.317 32.652 122.657 231.25M239.24 33.762 124.58 232.359M241.163 34.873 126.503 233.47M243.085 35.982 128.425 234.58M245.01 37.092 130.347 235.689M246.931 38.203 132.271 236.8M248.854 39.312 134.194 237.91M250.776 40.422l-114.66 198.597M252.698 41.533l-114.66 198.598M254.622 42.642 139.962 241.24M256.544 43.754 141.884 242.35M258.468 44.863l-114.66 198.598M260.39 45.972 145.73 244.57M262.313 47.084 147.653 245.68M264.235 48.193l-114.66 198.598M266.16 49.303 151.5 247.9M268.081 50.414l-114.66 198.598M270.003 51.523l-114.66 198.598M271.927 52.635l-114.66 198.597M273.85 53.744 159.187 252.342M275.772 54.853l-114.66 198.598M277.694 55.965l-114.66 198.597M279.618 57.074l-114.66 198.598M281.54 58.183 166.88 256.781M283.464 59.295l-114.66 198.597M285.386 60.404l-114.66 198.598M287.307 61.513l-114.66 198.598M289.231 62.625l-114.66 198.597M291.153 63.734l-114.66 198.598M293.077 64.846l-114.66 198.597M295 65.955 180.34 264.553M296.923 67.064l-114.66 198.598M298.845 68.176l-114.66 198.597M300.766 69.285l-114.66 198.598M302.69 70.394 188.03 268.992M304.612 71.506l-114.66 198.597M306.536 72.615l-114.66 198.598M308.458 73.724l-114.66 198.598M310.382 74.836l-114.66 198.597M312.304 75.945l-114.66 198.598M314.227 77.056l-114.66 198.598M316.15 78.166 201.49 276.763M318.071 79.275l-114.66 198.598M319.995 80.387l-114.66 198.597M321.917 81.496l-114.66 198.598M323.841 82.605l-114.66 198.598M325.763 83.717l-114.66 198.597M327.686 84.826l-114.66 198.598M329.608 85.937l-114.66 198.598M331.53 87.047 216.87 285.644M333.454 88.156l-114.66 198.598" />
                </g>
                <clipPath id="c">
                    <rect width="170.954" height="229.321" rx="0" ry="0" transform="rotate(30 90.382 339.598)"
                        fill="#fff" />
                </clipPath>
            </g>
        </mask>
    </g>
    <g mask="url(#d)">
        <path
            d="M489.639 90.031c0-8.785-9.721-14.089-17.108-9.335l-105.885 68.135a10.17 10.17 0 0 0-4.668 8.554h116.56c6.131 0 11.101-4.97 11.101-11.101V90.031Z"
            fill="url(#e)" />
        <mask id="d" mask-type="alpha">
            <g clip-path="url(#f)">
                <g fill="none" stroke="#000" stroke-width="1.11">
                    <path
                        d="m432.193 2.68-114.66 198.597M434.115 3.789l-114.66 198.598M436.04 4.9 321.38 203.498M437.961 6.01l-114.66 198.597M439.885 7.119l-114.66 198.598M441.807 8.23l-114.66 198.598M443.73 9.34 329.07 207.937M445.652 10.451l-114.66 198.598M447.576 11.56l-114.66 198.598M449.498 12.67l-114.66 198.597M451.42 13.781 336.76 212.379M453.344 14.89l-114.66 198.598M455.265 16l-114.66 198.597M457.19 17.111 342.53 215.71M459.111 18.22l-114.66 198.598M461.035 19.332l-114.66 198.597M462.957 20.441 348.297 219.04M464.88 21.55 350.217 220.149M466.803 22.662 352.143 221.26M468.724 23.771 354.064 222.37M470.648 24.88l-114.66 198.598M472.57 25.992 357.91 224.59M474.494 27.101 359.834 225.7M476.416 28.21l-114.66 198.598M478.34 29.322 363.68 227.92M480.262 30.431 365.602 229.03M482.183 31.543 367.523 230.14M484.107 32.652 369.447 231.25M486.03 33.762 371.37 232.359M487.953 34.873 373.293 233.47M489.875 35.982 375.215 234.58M491.8 37.092 377.137 235.689M493.721 38.203 379.061 236.8M495.644 39.312 380.984 237.91M497.566 40.422l-114.66 198.597M499.488 41.533l-114.66 198.598M501.412 42.642 386.752 241.24M503.334 43.754 388.674 242.35M505.258 44.863l-114.66 198.598M507.18 45.972 392.52 244.57M509.103 47.084 394.443 245.68M511.025 48.193l-114.66 198.598M512.95 49.303 398.29 247.9M514.871 50.414l-114.66 198.598M516.793 51.523l-114.66 198.598M518.717 52.635l-114.66 198.597M520.64 53.744 405.977 252.342M522.562 54.853l-114.66 198.598M524.484 55.965l-114.66 198.597M526.408 57.074l-114.66 198.598M528.33 58.183 413.67 256.781M530.252 59.295l-114.66 198.597M532.176 60.404l-114.66 198.598M534.098 61.513l-114.66 198.598M536.021 62.625l-114.66 198.597M537.943 63.734l-114.66 198.598M539.867 64.846l-114.66 198.597M541.79 65.955 427.13 264.553M543.713 67.064l-114.66 198.598M545.635 68.176l-114.66 198.597M547.557 69.285l-114.66 198.598M549.48 70.394 434.82 268.992M551.402 71.506l-114.66 198.597M553.326 72.615l-114.66 198.598M555.248 73.726l-114.66 198.598M557.172 74.836l-114.66 198.597M559.094 75.945l-114.66 198.598M561.017 77.056l-114.66 198.598M562.94 78.166 448.28 276.763M564.861 79.275l-114.66 198.598M566.785 80.387l-114.66 198.597M568.707 81.496l-114.66 198.598M570.631 82.605l-114.66 198.598M572.553 83.717l-114.66 198.597M574.476 84.826l-114.66 198.598M576.398 85.937l-114.66 198.598M578.32 87.047 463.66 285.644M580.244 88.156l-114.66 198.598" />
                </g>
                <clipPath id="f">
                    <rect width="170.954" height="229.321" rx="0" ry="0" transform="rotate(30 212.215 794.285)"
                        fill="#fff" />
                </clipPath>
            </g>
        </mask>
    </g>
    <g mask="url(#g)">
        <path
            d="M489.639 224.738c0 8.785-9.721 14.089-17.108 9.335l-105.885-68.134a10.171 10.171 0 0 1-4.668-8.554h116.56c6.131 0 11.101 4.97 11.101 11.101v56.252Z"
            fill="url(#h)" />
        <mask id="g" mask-type="alpha">
            <g clip-path="url(#i)">
                <g fill="none" stroke="#000" stroke-width="1.11">
                    <path
                        d="M432.193 29.664 317.533 228.26M434.115 30.773 319.455 229.37M436.04 31.884 321.38 230.481M437.961 32.994 323.301 231.59M439.885 34.103 325.225 232.7M441.807 35.214l-114.66 198.598M443.73 36.324 329.07 234.92M445.652 37.435l-114.66 198.597M447.576 38.545l-114.66 198.597M449.498 39.654 334.838 238.25M451.42 40.765 336.76 239.362M453.344 41.875l-114.66 198.597M455.265 42.984 340.605 241.58M457.19 44.095 342.53 242.692M459.111 45.205l-114.66 198.597M461.035 46.316l-114.66 198.597M462.957 47.425l-114.66 198.597M464.88 48.535 350.217 247.132M466.803 49.646l-114.66 198.597M468.724 50.755l-114.66 198.598M470.648 51.865l-114.66 198.597M472.57 52.976 357.91 251.573M474.494 54.086l-114.66 198.597M476.416 55.195l-114.66 198.597M478.34 56.306 363.68 254.903M480.262 57.416l-114.66 198.597M482.183 58.527l-114.66 198.597M484.107 59.636l-114.66 198.597M486.03 60.746 371.37 259.343M487.953 61.857l-114.66 198.597M489.875 62.966l-114.66 198.597M491.8 64.076 377.137 262.673M493.721 65.187l-114.66 198.597M495.644 66.296l-114.66 198.598M497.566 67.406l-114.66 198.597M499.488 68.517l-114.66 198.597M501.412 69.627l-114.66 198.597M503.334 70.738l-114.66 198.597M505.258 71.847l-114.66 198.597M507.18 72.957 392.52 271.554M509.103 74.068l-114.66 198.597M511.025 75.177l-114.66 198.597M512.95 76.287 398.29 274.884M514.871 77.398l-114.66 198.597M516.793 78.507l-114.66 198.597M518.717 79.619l-114.66 198.597M520.64 80.728 405.977 279.325M522.562 81.837l-114.66 198.598M524.484 82.949l-114.66 198.597M526.408 84.058l-114.66 198.597M528.33 85.168 413.67 283.765M530.252 86.279l-114.66 198.597M532.176 87.388l-114.66 198.597M534.098 88.498l-114.66 198.597M536.021 89.609l-114.66 198.597M537.943 90.718l-114.66 198.597M539.867 91.83l-114.66 198.597M541.79 92.939 427.13 291.536M543.713 94.048l-114.66 198.597M545.635 95.16l-114.66 198.597M547.557 96.27l-114.66 198.596M549.48 97.379 434.82 295.976M551.402 98.49l-114.66 198.597M553.326 99.6l-114.66 198.596M555.248 100.71l-114.66 198.598M557.172 101.82l-114.66 198.597M559.094 102.93l-114.66 198.596M561.017 104.04l-114.66 198.598M562.94 105.15 448.28 303.747M564.861 106.26l-114.66 198.596M566.785 107.37l-114.66 198.598M568.707 108.48l-114.66 198.597M570.631 109.59l-114.66 198.597M572.553 110.7l-114.66 198.598M574.476 111.81l-114.66 198.597M576.398 112.921 461.738 311.52M578.32 114.03 463.66 312.628M580.244 115.14l-114.66 198.597" />
                </g>
                <clipPath id="i">
                    <rect width="170.954" height="229.321" rx="0" ry="0" transform="rotate(30 162.5 807.606)"
                        fill="#fff" />
                </clipPath>
            </g>
        </mask>
    </g>
    <circle r="4.44" transform="translate(94.446 192.354)" fill="#63cb7b" />
    <circle r="6.661" transform="translate(94.446 192.354)" opacity=".3" fill="#63cb7b" />
    <circle r="4.44" transform="translate(93.335 119.089)" fill="#63cb7b" />
    <circle r="6.661" transform="translate(93.334 119.088)" opacity=".3" fill="#63cb7b" />
    <circle r="4.44" transform="translate(186.583 160.718)" fill="#63cb7b" />
    <circle r="6.661" transform="translate(186.582 160.717)" opacity=".3" fill="#63cb7b" />
    <circle r="4.44" transform="translate(49.487 126.304)" fill="#63cb7b" />
    <circle r="6.661" transform="translate(49.487 126.303)" opacity=".3" fill="#63cb7b" />
    <circle r="4.44" transform="translate(71.134 107.433)" fill="#63cb7b" />
    <circle r="6.661" transform="translate(71.133 107.432)" opacity=".3" fill="#63cb7b" />
    <circle r="4.44" transform="translate(16.74 71.354)" fill="#63cb7b" />
    <circle r="6.661" transform="translate(16.739 71.354)" opacity=".3" fill="#63cb7b" />
    <circle r="4.44" transform="translate(239.868 171.817)" fill="#63cb7b" />
    <circle r="6.661" transform="translate(239.868 171.817)" opacity=".3" fill="#63cb7b" />
    <circle r="4.44" transform="translate(239.868 150.726)" fill="#63cb7b" />
    <circle r="6.661" transform="translate(239.868 150.725)" opacity=".3" fill="#63cb7b" />
    <circle r="4.44" transform="translate(183.808 107.987)" fill="#63cb7b" />
    <circle r="6.661" transform="translate(183.807 107.987)" opacity=".3" fill="#63cb7b" />
    <circle r="4.44" transform="translate(144.399 225.657)" fill="#63cb7b" />
    <circle r="6.661" transform="translate(144.399 225.657)" opacity=".3" fill="#63cb7b" />
    <circle r="4.44" transform="translate(110.542 178.477)" fill="#ee6359" />
    <circle r="6.661" transform="translate(110.541 178.477)" opacity=".3" fill="#ee6359" />
    <circle r="4.44" transform="translate(123.308 140.735)" fill="#ee6359" />
    <circle r="6.661" transform="translate(123.307 140.735)" opacity=".3" fill="#ee6359" />
    <circle r="4.44" transform="translate(171.597 175.702)" fill="#ee6359" />
    <circle r="6.661" transform="translate(171.596 175.702)" opacity=".3" fill="#ee6359" />
    <circle r="4.44" transform="translate(154.946 122.419)" fill="#ee6359" />
    <circle r="6.661" transform="translate(154.946 122.418)" opacity=".3" fill="#ee6359" />
    <circle r="4.44" transform="translate(261.515 157.386)" fill="#ee6359" />
    <circle r="6.661" transform="translate(261.514 157.385)" opacity=".3" fill="#ee6359" />
    <circle r="4.44" transform="translate(213.226 184.028)" fill="#ee6359" />
    <circle r="6.661" transform="translate(213.225 184.028)" opacity=".3" fill="#ee6359" />
    <circle r="4.44" transform="translate(7.304 151.837)" fill="#ee6359" />
    <circle r="6.661" transform="translate(7.303 151.836)" opacity=".3" fill="#ee6359" />
    <circle r="4.44" transform="translate(92.225 143.511)" fill="#63cb7b" />
    <circle r="6.661" transform="translate(92.225 143.51)" opacity=".3" fill="#63cb7b" />
    <rect width="53.284" height="53.284" rx="13.321" ry="13.321" transform="translate(294 127.742)" fill="url(#j)" />
    <path d="M321.189 157.874v-3.065l2.535-1.134c3.274-1.464 3.251-6.015-.835-7.377-2.383-.795-5.107.376-6.469 3.745"
        fill="none" stroke="#fff" stroke-width="1.11" stroke-linecap="round" stroke-linejoin="round" />
    <circle r=".744" transform="translate(321.187 160.939)" fill="#fff" stroke="#fff" stroke-width=".555" />
    <rect width="53.84" height="53.84" rx="13.599" ry="13.599" transform="translate(293.722 127.465)" fill="none"
        stroke="#fff" stroke-width=".555" stroke-opacity=".2" />
    <path d="M53.832 272.003c-1.665-21.647 14.154-46.347 27.197-52.73" fill="none" stroke="#e3e3ed" stroke-width="1.11"
        stroke-linecap="round" />
    <path
        d="m72.982 220.106 7.767-.971a.555.555 0 0 1 .549.831l-3.32 5.691M314.044 290.879l-3.042-7.211a.555.555 0 0 0-.993-.06l-3.269 5.72"
        fill="none" stroke="#e3e3ed" stroke-width="1.11" stroke-linecap="round" />
    <path d="M256.232 298.095c18.872 13.599 54.395 20.259 54.395-13.044" fill="none" stroke="#e3e3ed"
        stroke-width="1.11" stroke-linecap="round" />
    <circle r="4.44" transform="translate(509.638 83.563)" fill="#63cb7b" />
    <circle r="6.661" transform="translate(509.637 83.563)" opacity=".3" fill="#63cb7b" />
    <circle r="4.44" transform="translate(536.28 109.651)" fill="#999" />
    <circle r="6.661" transform="translate(536.28 109.651)" opacity=".3" fill="#999" />
    <circle r="4.44" transform="translate(552.931 229.54)" fill="#999" />
    <circle r="6.661" transform="translate(552.93 229.539)" opacity=".3" fill="#999" />
    <circle r="4.44" transform="translate(535.726 248.968)" fill="#999" />
    <circle r="6.661" transform="translate(535.725 248.967)" opacity=".3" fill="#999" />
    <circle r="4.44" transform="translate(531.284 197.903)" fill="#999" />
    <circle r="6.661" transform="translate(531.284 197.903)" opacity=".3" fill="#999" />
    <circle r="4.44" transform="translate(512.413 113.536)" fill="#63cb7b" />
    <circle r="6.661" transform="translate(512.412 113.536)" opacity=".3" fill="#63cb7b" />
    <circle r="4.44" transform="translate(525.179 96.329)" fill="#63cb7b" />
    <circle r="6.661" transform="translate(525.178 96.329)" opacity=".3" fill="#63cb7b" />
    <circle r="4.44" transform="translate(536.28 76.903)" fill="#63cb7b" />
    <circle r="6.661" transform="translate(536.28 76.903)" opacity=".3" fill="#63cb7b" />
    <circle r="4.44" transform="translate(529.62 220.661)" fill="#ee6359" />
    <circle r="6.661" transform="translate(529.62 220.661)" opacity=".3" fill="#ee6359" />
    <circle r="4.44" transform="translate(511.858 196.237)" fill="#ee6359" />
    <circle r="6.661" transform="translate(511.858 196.237)" opacity=".3" fill="#ee6359" />
    <circle r="4.44" transform="translate(559.593 117.421)" fill="#999" />
    <circle r="6.661" transform="translate(559.592 117.42)" opacity=".3" fill="#999" />
    <circle r="4.44" transform="translate(513.522 242.308)" fill="#999" />
    <circle r="6.661" transform="translate(513.522 242.307)" opacity=".3" fill="#999" />
    <circle r="4.44" transform="translate(561.811 212.335)" fill="#999" />
    <circle r="6.661" transform="translate(561.811 212.334)" opacity=".3" fill="#999" />
    <circle r="4.44" transform="translate(564.032 254.518)" fill="#ee6359" />
    <circle r="6.661" transform="translate(564.032 254.518)" opacity=".3" fill="#ee6359" />
    <circle r="4.44" transform="translate(543.495 177.921)" fill="#ee6359" />
    <circle r="6.661" transform="translate(543.495 177.92)" opacity=".3" fill="#ee6359" />
    <circle r="4.44" transform="translate(532.395 131.298)" fill="#999" />
    <circle r="6.661" transform="translate(532.395 131.297)" opacity=".3" fill="#999" />
    <circle r="4.44" transform="translate(494.097 105.21)" fill="#999" />
    <circle r="6.661" transform="translate(494.096 105.209)" opacity=".3" fill="#999" />
    <circle r="4.44" transform="translate(551.821 94.11)" fill="#999" />
    <circle r="6.661" transform="translate(551.821 94.11)" opacity=".3" fill="#999" />
</svg>