<svg fill="none" xmlns="http://www.w3.org/2000/svg" viewBox="0 0 1164 613">
    <mask id="mask0_8_2" style="mask-type:alpha" maskUnits="userSpaceOnUse" x="24" y="53" width="550" height="556">
        <g clip-path="url(#clip0_8_2)" stroke="#000" stroke-width="2">
            <path
                d="M230.578 53 24 410.804M234.043 55 27.464 412.804M237.507 57 30.929 414.804M240.971 59 34.393 416.804M244.435 61 37.857 418.804M247.899 63 41.321 420.804M251.363 65 44.785 422.804M254.827 67 48.249 424.804M258.291 69 51.713 426.804M261.755 71 55.177 428.804M265.219 73 58.641 430.804M268.684 75 62.105 432.804M272.148 77 65.57 434.804M275.612 79 69.034 436.804M279.076 81 72.498 438.804M282.54 83 75.962 440.804M286.004 85 79.426 442.804M289.468 87 82.89 444.804M292.932 89 86.354 446.804M296.396 91 89.818 448.804M299.86 93 93.282 450.804M303.325 95 96.747 452.804M306.789 97 100.211 454.804M310.253 99 103.675 456.804M313.717 101 107.139 458.804M317.181 103 110.603 460.804M320.645 105 114.067 462.804M324.109 107 117.531 464.804M327.573 109 120.995 466.804M331.037 111 124.459 468.804M334.502 113 127.923 470.804M337.966 115 131.388 472.804M341.43 117 134.852 474.804M344.894 119 138.316 476.804M348.358 121 141.78 478.804M351.822 123 145.244 480.804M355.286 125 148.708 482.804M358.75 127 152.172 484.804M362.214 129 155.636 486.804M365.678 131 159.1 488.804M369.143 133 162.564 490.804M372.607 135 166.029 492.804M376.071 137 169.493 494.804M379.535 139 172.957 496.804M382.999 141 176.421 498.804M386.463 143 179.885 500.804M389.927 145 183.349 502.804M393.391 147 186.813 504.804M396.855 149 190.277 506.804M400.319 151 193.741 508.804M403.784 153 197.205 510.804M407.248 155 200.67 512.804M410.712 157 204.134 514.804M414.176 159 207.598 516.804M417.64 161 211.062 518.804M421.104 163 214.526 520.804M424.568 165 217.99 522.804M428.032 167 221.454 524.804M431.496 169 224.918 526.804M434.96 171 228.382 528.804M438.425 173 231.846 530.804M441.889 175 235.311 532.804M445.353 177 238.775 534.804M448.817 179 242.239 536.804M452.281 181 245.703 538.804M455.745 183 249.167 540.804M459.209 185 252.631 542.804M462.673 187 256.095 544.804M466.137 189 259.559 546.804M469.601 191 263.023 548.804M473.066 193 266.487 550.804M476.53 195 269.952 552.804M479.994 197 273.416 554.804M483.458 199 276.88 556.804M486.922 201 280.344 558.804M490.386 203 283.808 560.804M493.85 205 287.272 562.804M497.314 207 290.736 564.804M500.778 209 294.2 566.804M504.243 211 297.664 568.804M507.707 213 301.129 570.804M511.171 215 304.593 572.804M514.635 217 308.057 574.804M518.099 219 311.521 576.804M521.563 221 314.985 578.804M525.027 223 318.449 580.804M528.491 225 321.913 582.804M531.955 227 325.377 584.804M535.419 229 328.841 586.804M538.884 231 332.305 588.804M542.348 233 335.77 590.804M545.812 235 339.234 592.804M549.276 237 342.698 594.804M552.74 239 346.162 596.804M556.204 241 349.626 598.804M559.668 243 353.09 600.804M563.132 245 356.554 602.804M566.596 247 360.018 604.804M570.06 249 363.482 606.804M573.525 251 366.946 608.804" />
        </g>
    </mask>
    <g mask="url(#mask0_8_2)">
        <path
            d="M153 182.046c0-15.031 15.96-24.69 29.276-17.719l298.032 156.032a19.942 19.942 0 0 1 .291 35.177L182.568 517.893C169.24 525.153 153 515.506 153 500.33V182.046Z"
            fill="url(#paint0_linear_8_2)" />
    </g>
    <g opacity=".3">
        <mask id="mask1_8_2" style="mask-type:alpha" maskUnits="userSpaceOnUse" x="598" y="0" width="566" height="612">
            <g clip-path="url(#clip1_8_2)" stroke="#000" stroke-width="2">
                <path
                    d="M844.719 0 598.047 427.249M848.184 2 601.511 429.249M851.648 4 604.975 431.249M855.112 6 608.439 433.249M858.576 8 611.904 435.249M862.04 10 615.368 437.249M865.504 12 618.832 439.249M868.968 14 622.296 441.249M872.432 16 625.76 443.249M875.896 18 629.224 445.249M879.361 20 632.688 447.249M882.825 22 636.152 449.249M886.289 24 639.616 451.249M889.753 26 643.08 453.249M893.217 28 646.544 455.249M896.681 30 650.009 457.249M900.145 32 653.473 459.249M903.609 34 656.937 461.249M907.073 36 660.401 463.249M910.537 38 663.865 465.249M914.001 40 667.329 467.249M917.466 42 670.793 469.249M920.93 44 674.257 471.249M924.394 46 677.721 473.249M927.858 48 681.186 475.249M931.322 50 684.65 477.249M934.786 52 688.114 479.249M938.25 54 691.578 481.249M941.714 56 695.042 483.249M945.178 58 698.506 485.249M948.643 60 701.97 487.249M952.107 62 705.434 489.249M955.571 64 708.898 491.249M959.035 66 712.363 493.249M962.499 68 715.827 495.249M965.963 70 719.291 497.249M969.427 72 722.755 499.249M972.891 74 726.219 501.249M976.355 76 729.683 503.249M979.819 78 733.147 505.249M983.283 80 736.611 507.249M986.748 82 740.075 509.249M990.212 84 743.539 511.249M993.676 86 747.003 513.249M997.14 88 750.468 515.249M1000.6 90 753.932 517.249M1004.07 92 757.396 519.249M1007.53 94 760.86 521.249M1011 96 764.324 523.249M1014.46 98 767.788 525.249M1017.92 100 771.252 527.249M1021.39 102 774.716 529.249M1024.85 104 778.18 531.249M1028.32 106 781.645 533.249M1031.78 108 785.109 535.249M1035.25 110 788.573 537.249M1038.71 112 792.037 539.249M1042.17 114 795.501 541.249M1045.64 116 798.965 543.249M1049.1 118 802.429 545.249M1052.57 120 805.893 547.249M1056.03 122 809.357 549.249M1059.49 124 812.822 551.249M1062.96 126 816.285 553.249M1066.42 128 819.75 555.249M1069.89 130 823.214 557.249M1073.35 132 826.678 559.249M1076.81 134 830.142 561.249M1080.28 136 833.606 563.249M1083.74 138 837.07 565.249M1087.21 140 840.534 567.249M1090.67 142 843.998 569.249M1094.13 144 847.462 571.249M1097.6 146 850.927 573.249M1101.06 148 854.391 575.249M1104.53 150 857.855 577.249M1107.99 152 861.319 579.249M1111.46 154 864.783 581.249M1114.92 156 868.247 583.249M1118.38 158 871.711 585.249M1121.85 160 875.175 587.249M1125.31 162 878.639 589.249M1128.78 164 882.104 591.249M1132.24 166 885.568 593.249M1135.7 168 889.032 595.249M1139.17 170 892.496 597.249M1142.63 172 895.96 599.249M1146.1 174 899.424 601.249M1149.56 176 902.888 603.249M1153.02 178 906.352 605.249M1156.49 180 909.816 607.249M1159.95 182 913.28 609.249M1163.42 184 916.744 611.249M1166.88 186 920.209 613.249M1170.34 188 923.673 615.249M1173.81 190 927.137 617.249M1177.27 192 930.601 619.249M1180.74 194 934.065 621.249M1184.2 196 937.529 623.249M1187.67 198 940.993 625.249M1191.13 200 944.457 627.249" />
            </g>
        </mask>
        <g mask="url(#mask1_8_2)">
            <path
                d="M990 182.571c0-15.154-16.196-24.802-29.522-17.588l-287 155.382C667.022 323.86 663 330.659 663 338h307c11.046 0 20-8.954 20-20V182.571Z"
                fill="url(#paint1_linear_8_2)" />
        </g>
        <mask id="mask2_8_2" style="mask-type:alpha" maskUnits="userSpaceOnUse" x="574" y="101" width="565"
            height="512">
            <g clip-path="url(#clip2_8_2)" stroke="#000" stroke-width="2">
                <path
                    d="M820.827 101 575 458.804M824.426 102.746 578.598 460.55M828.025 104.492 582.197 462.296M831.624 106.238 585.796 464.042M835.222 107.984 589.395 465.788M838.821 109.73 592.994 467.534M842.42 111.476 596.592 469.28M846.019 113.222 600.191 471.026M849.618 114.968 603.79 472.772M853.216 116.714 607.389 474.518M856.815 118.46 610.988 476.264M860.414 120.206 614.587 478.01M864.013 121.952 618.185 479.756M867.612 123.698 621.784 481.502M871.21 125.444 625.383 483.248M874.809 127.19 628.982 484.994M878.408 128.936 632.58 486.74M882.007 130.682 636.179 488.486M885.606 132.428 639.778 490.232M889.204 134.175 643.377 491.978M892.803 135.921 646.976 493.724M896.402 137.667 650.575 495.47M900.001 139.413 654.173 497.216M903.6 141.159 657.772 498.962M907.198 142.905 661.371 500.708M910.797 144.651 664.97 502.455M914.396 146.397 668.568 504.2M917.995 148.143 672.167 505.946M921.594 149.889 675.766 507.693M925.192 151.635 679.365 509.439M928.791 153.381 682.964 511.185M932.39 155.127 686.563 512.931M935.989 156.873 690.161 514.677M939.588 158.619 693.76 516.423M943.187 160.365 697.359 518.169M946.785 162.111 700.958 519.915M950.384 163.857 704.556 521.661M953.983 165.603 708.155 523.407M957.582 167.349 711.754 525.153M961.18 169.095 715.353 526.899M964.779 170.841 718.952 528.645M968.378 172.587 722.551 530.391M971.977 174.333 726.149 532.137M975.576 176.079 729.748 533.883M979.175 177.825 733.347 535.629M982.773 179.571 736.946 537.375M986.372 181.317 740.545 539.121M989.971 183.063 744.143 540.867M993.57 184.809 747.742 542.613M997.168 186.555 751.341 544.359M1000.77 188.301 754.94 546.105M1004.37 190.047 758.539 547.851M1007.96 191.793 762.137 549.597M1011.56 193.54 765.736 551.343M1015.16 195.286 769.335 553.089M1018.76 197.031 772.934 554.835M1022.36 198.778 776.533 556.581M1025.96 200.524 780.131 558.327M1029.56 202.27 783.73 560.073M1033.16 204.016 787.329 561.819M1036.76 205.762 790.928 563.565M1040.35 207.508 794.527 565.311M1043.95 209.254 798.125 567.058M1047.55 211 801.724 568.804M1051.15 212.746 805.323 570.55M1054.75 214.492 808.922 572.296M1058.35 216.238 812.521 574.042M1061.95 217.984 816.119 575.788M1065.55 219.73 819.718 577.534M1069.14 221.476 823.317 579.28M1072.74 223.222 826.916 581.026M1076.34 224.968 830.515 582.772M1079.94 226.714 834.113 584.518M1083.54 228.46 837.712 586.264M1087.14 230.206 841.311 588.01M1090.74 231.952 844.91 589.756M1094.34 233.698 848.509 591.502M1097.94 235.444 852.108 593.248" />
            </g>
        </mask>
        <g mask="url(#mask2_8_2)">
            <path
                d="M990 493.429c0 15.154-16.196 24.802-29.522 17.588l-287-155.382C667.022 352.14 663 345.341 663 338h307c11.046 0 20 8.954 20 20v135.429Z"
                fill="url(#paint2_linear_8_2)" />
        </g>
    </g>
    <circle cx="169" cy="399" r="8" fill="#63CB7B" />
    <circle opacity=".3" cx="169" cy="399" r="12" fill="#63CB7B" />
    <circle cx="167" cy="267" r="8" fill="#63CB7B" />
    <circle opacity=".3" cx="167" cy="267" r="12" fill="#63CB7B" />
    <circle cx="335" cy="342" r="8" fill="#63CB7B" />
    <circle opacity=".3" cx="335" cy="342" r="12" fill="#63CB7B" />
    <circle cx="88" cy="280" r="8" fill="#63CB7B" />
    <circle opacity=".3" cx="88" cy="280" r="12" fill="#63CB7B" />
    <circle cx="127" cy="246" r="8" fill="#63CB7B" />
    <circle opacity=".3" cx="127" cy="246" r="12" fill="#63CB7B" />
    <circle cx="29" cy="181" r="8" fill="#63CB7B" />
    <circle opacity=".3" cx="29" cy="181" r="12" fill="#63CB7B" />
    <circle cx="431" cy="362" r="8" fill="#63CB7B" />
    <circle opacity=".3" cx="431" cy="362" r="12" fill="#63CB7B" />
    <circle cx="431" cy="324" r="8" fill="#63CB7B" />
    <circle opacity=".3" cx="431" cy="324" r="12" fill="#63CB7B" />
    <circle cx="330" cy="247" r="8" fill="#63CB7B" />
    <circle opacity=".3" cx="330" cy="247" r="12" fill="#63CB7B" />
    <circle cx="259" cy="459" r="8" fill="#63CB7B" />
    <circle opacity=".3" cx="259" cy="459" r="12" fill="#63CB7B" />
    <circle cx="198" cy="374" r="8" fill="#EE6359" />
    <circle opacity=".3" cx="198" cy="374" r="12" fill="#EE6359" />
    <circle cx="221" cy="306" r="8" fill="#EE6359" />
    <circle opacity=".3" cx="221" cy="306" r="12" fill="#EE6359" />
    <circle cx="308" cy="369" r="8" fill="#EE6359" />
    <circle opacity=".3" cx="308" cy="369" r="12" fill="#EE6359" />
    <circle cx="278" cy="273" r="8" fill="#EE6359" />
    <circle opacity=".3" cx="278" cy="273" r="12" fill="#EE6359" />
    <circle cx="470" cy="336" r="8" fill="#EE6359" />
    <circle opacity=".3" cx="470" cy="336" r="12" fill="#EE6359" />
    <circle cx="383" cy="384" r="8" fill="#EE6359" />
    <circle opacity=".3" cx="383" cy="384" r="12" fill="#EE6359" />
    <circle cx="12" cy="326" r="8" fill="#EE6359" />
    <circle opacity=".3" cx="12" cy="326" r="12" fill="#EE6359" />
    <circle cx="165" cy="311" r="8" fill="#63CB7B" />
    <circle opacity=".3" cx="165" cy="311" r="12" fill="#63CB7B" />
    <g opacity=".3" filter="url(#filter0_d_8_2)">
        <rect x="515.713" y="277.506" width="120" height="120" rx="32" fill="url(#paint3_linear_8_2)" />
    </g>
    <g opacity=".3" filter="url(#filter1_d_8_2)">
        <rect x="521.713" y="283.506" width="108" height="108" rx="28" fill="url(#paint4_linear_8_2)" />
    </g>
    <g filter="url(#filter2_d_8_2)">
        <rect x="527.713" y="289.506" width="96" height="96" rx="24" fill="url(#paint5_linear_8_2)" />
        <path
            d="M586.708 323.941a.905.905 0 0 1-.44-.114 23.148 23.148 0 0 0-10.518-2.529c-3.654 0-7.257.866-10.518 2.529a.987.987 0 0 1-1.286-.358.886.886 0 0 1 .372-1.211 25.166 25.166 0 0 1 11.406-2.752 25.154 25.154 0 0 1 11.413 2.724.84.84 0 0 1 .464.517.85.85 0 0 1-.069.694.955.955 0 0 1-.824.5Zm-27.032 9.421c-.2.001-.396-.057-.565-.164a.863.863 0 0 1-.385-.576.867.867 0 0 1 .16-.675 19.33 19.33 0 0 1 7.096-5.868 22.86 22.86 0 0 1 9.737-2.179c3.365 0 6.688.744 9.737 2.179a19.363 19.363 0 0 1 7.085 5.811.874.874 0 0 1-.231 1.256.977.977 0 0 1-1.32-.244 17.549 17.549 0 0 0-6.403-5.271 20.854 20.854 0 0 0-8.876-1.985c-3.068 0-6.098.678-8.877 1.985a17.678 17.678 0 0 0-6.414 5.35.832.832 0 0 1-.739.381h-.005Zm11.807 21.657a.913.913 0 0 1-.666-.272 17.997 17.997 0 0 1-3.791-4.737 15.247 15.247 0 0 1-1.986-7.783c0-5.328 4.795-9.666 10.719-9.666 5.923 0 10.661 4.321 10.661 9.666 0 .253-.1.496-.277.675a.946.946 0 0 1-1.618-.675c0-4.35-3.949-7.887-8.789-7.887s-8.806 3.537-8.806 7.887a13.482 13.482 0 0 0 1.754 6.902 16.845 16.845 0 0 0 3.498 4.338.89.89 0 0 1 0 1.28 1.12 1.12 0 0 1-.699.272Zm13.538-3.326c-2.063.053-4.098-.5-5.855-1.592a9.373 9.373 0 0 1-3.263-3.351 9.47 9.47 0 0 1-1.25-4.523c0-.252.099-.494.276-.672a.937.937 0 0 1 1.332 0c.177.178.276.42.276.672a7.663 7.663 0 0 0 1.022 3.672 7.589 7.589 0 0 0 2.662 2.713 8.618 8.618 0 0 0 4.8 1.273 13.31 13.31 0 0 0 1.963-.176.932.932 0 0 1 .717.129.954.954 0 0 1 .412.604.896.896 0 0 1-.016.361.895.895 0 0 1-.763.68c-.745.131-1.5.201-2.256.21h-.057Zm-3.791 3.702a.84.84 0 0 1-.248-.04 14.927 14.927 0 0 1-7.023-3.758 12.739 12.739 0 0 1-3.027-4.252 12.84 12.84 0 0 1-1.08-5.118c0-2.906 2.612-5.283 5.822-5.283s5.816 2.377 5.816 5.283c0 1.91 1.754 3.479 3.949 3.479 2.194 0 3.949-1.569 3.949-3.479 0-6.772-6.144-12.259-13.692-12.259-5.364 0-10.278 2.843-12.489 7.232a11.085 11.085 0 0 0-1.128 5.027 16.913 16.913 0 0 0 1.269 6.476.88.88 0 0 1-.037.692.865.865 0 0 1-.527.445.952.952 0 0 1-.721-.004.966.966 0 0 1-.515-.508 19.24 19.24 0 0 1-1.359-7.101 12.868 12.868 0 0 1 1.28-5.817c2.511-5.004 8.084-8.25 14.182-8.25 8.592 0 15.576 6.294 15.576 14.049 0 2.906-2.601 5.271-5.816 5.271-3.216 0-5.811-2.365-5.811-5.271 0-1.921-1.76-3.479-3.949-3.479-2.188 0-3.948 1.558-3.948 3.479.004 1.526.325 3.033.94 4.426a10.946 10.946 0 0 0 2.636 3.665 13.003 13.003 0 0 0 6.171 3.315.873.873 0 0 1 .562.404.904.904 0 0 1 .104.688.926.926 0 0 1-.886.688Z"
            fill="#fff" />
    </g>
    <path
        d="M436.878 524.056a.5.5 0 0 0 0 1v-1Zm132.358-7.5h.5-.5Zm.5 0-.001-18.089h-1l.001 18.089h1Zm-132.858 8.5h66.179v-1h-66.179v1Zm66.179 0h58.179v-1h-58.179v1Zm65.679-8.5a7.5 7.5 0 0 1-7.5 7.5v1a8.5 8.5 0 0 0 8.5-8.5h-1Z"
        fill="#E3E3ED" />
    <path d="m574.442 503.068-5.175-5.175-5.035 5.035" stroke="#E3E3ED" stroke-linecap="round" />
    <path
        d="M114.571 500.731a.5.5 0 0 1-1 0h1Zm7.5-50.74v.5-.5Zm0-.5 40.302.001v1l-40.302-.001v-1Zm-8.5 51.24v-25.37h1v25.37h-1Zm0-25.37v-17.37h1v17.37h-1Zm8.5-24.87a7.5 7.5 0 0 0-7.5 7.5h-1a8.5 8.5 0 0 1 8.5-8.5v1Z"
        fill="#FAFAFA" />
    <path d="m157.772 444.785 5.175 5.175-5.035 5.035" stroke="#FAFAFA" stroke-linecap="round" />
    <circle cx="949.713" cy="435.235" r="8" fill="#EE6359" />
    <circle opacity=".3" cx="949.713" cy="435.235" r="12" fill="#EE6359" />
    <circle cx="978.713" cy="396.235" r="8" fill="#EE6359" />
    <circle opacity=".3" cx="978.713" cy="396.235" r="12" fill="#EE6359" />
    <circle cx="1004.71" cy="460.235" r="8" fill="#EE6359" />
    <circle opacity=".3" cx="1004.71" cy="460.235" r="12" fill="#EE6359" />
    <circle cx="925.713" cy="202.506" r="8" fill="#63CB7B" />
    <circle opacity=".3" cx="925.713" cy="202.506" r="12" fill="#63CB7B" />
    <circle cx="973.713" cy="249.506" r="8" fill="#63CB7B" />
    <circle opacity=".3" cx="973.713" cy="249.506" r="12" fill="#63CB7B" />
    <circle cx="930.713" cy="256.506" r="8" fill="#63CB7B" />
    <circle opacity=".3" cx="930.713" cy="256.506" r="12" fill="#63CB7B" />
    <circle cx="892.713" cy="288.506" r="8" fill="#63CB7B" />
    <circle opacity=".3" cx="892.713" cy="288.506" r="12" fill="#63CB7B" />
    <circle cx="998.713" cy="299.506" r="8" fill="#63CB7B" />
    <circle opacity=".3" cx="998.713" cy="299.506" r="12" fill="#63CB7B" />
    <circle cx="973.713" cy="190.506" r="8" fill="#63CB7B" />
    <circle opacity=".3" cx="973.713" cy="190.506" r="12" fill="#63CB7B" />
    <circle cx="950.713" cy="303.506" r="8" fill="#63CB7B" />
    <circle opacity=".3" cx="950.713" cy="303.506" r="12" fill="#63CB7B" />
    <path d="m1052.31 170.99-5.18-5.175 5.04-5.035" stroke="#E3E3ED" stroke-linecap="round" />
    <path d="M1066.1 329.71h22.03a8 8 0 0 0 8-8V165.915m0 0v-65.238c0-4.418-3.58-8-8-8h-19.94m27.94 73.238h-48.89"
        stroke="#E3E3ED" />
    <path d="m1070.93 324.458-5.18 5.175 5.04 5.035" stroke="#E3E3ED" stroke-linecap="round" />
    <defs>
        <linearGradient id="paint0_linear_8_2" x1="197.76" y1="337.054" x2="503.377" y2="340.94"
            gradientUnits="userSpaceOnUse">
            <stop stop-color="#727273" stop-opacity="0" />
            <stop offset="1" stop-color="#89898A" />
        </linearGradient>
        <linearGradient id="paint1_linear_8_2" x1="990" y1="341.589" x2="646.65" y2="341.589"
            gradientUnits="userSpaceOnUse">
            <stop stop-color="#323869" stop-opacity="0" />
            <stop offset="1" stop-color="#63CB7B" />
        </linearGradient>
        <linearGradient id="paint2_linear_8_2" x1="990" y1="334.411" x2="646.65" y2="334.411"
            gradientUnits="userSpaceOnUse">
            <stop stop-color="#323869" stop-opacity="0" />
            <stop offset="1" stop-color="#EE6359" />
        </linearGradient>
        <linearGradient id="paint3_linear_8_2" x1="515.713" y1="277.506" x2="644.33" y2="287.589"
            gradientUnits="userSpaceOnUse">
            <stop stop-color="#F5614B" />
            <stop offset="0" stop-color="#F5614B" />
            <stop offset="1" stop-color="#FA7545" />
        </linearGradient>
        <linearGradient id="paint4_linear_8_2" x1="521.713" y1="283.506" x2="637.468" y2="292.581"
            gradientUnits="userSpaceOnUse">
            <stop stop-color="#F5614B" />
            <stop offset="0" stop-color="#F5614B" />
            <stop offset="1" stop-color="#FA7545" />
        </linearGradient>
        <linearGradient id="paint5_linear_8_2" x1="527.713" y1="289.506" x2="630.607" y2="297.573"
            gradientUnits="userSpaceOnUse">
            <stop stop-color="#F5614B" />
            <stop offset="0" stop-color="#F5614B" />
            <stop offset="1" stop-color="#FA7545" />
        </linearGradient>
        <clipPath id="clip0_8_2">
            <path fill="#fff" d="m230.578 53 342.946 198-206.578 357.804L24 410.804z" />
        </clipPath>
        <clipPath id="clip1_8_2">
            <path fill="#fff" d="m844.719 0 318.506 183.89-246.673 427.249-318.505-183.89z" />
        </clipPath>
        <clipPath id="clip2_8_2">
            <path fill="#fff" d="m820.827 101 317.415 154-245.827 357.804-317.416-154z" />
        </clipPath>
        <filter id="filter0_d_8_2" x="511.713" y="277.506" width="128" height="128" filterUnits="userSpaceOnUse"
            color-interpolation-filters="sRGB">
            <feFlood flood-opacity="0" result="BackgroundImageFix" />
            <feColorMatrix in="SourceAlpha" values="0 0 0 0 0 0 0 0 0 0 0 0 0 0 0 0 0 0 127 0" result="hardAlpha" />
            <feOffset dy="4" />
            <feGaussianBlur stdDeviation="2" />
            <feColorMatrix values="0 0 0 0 0 0 0 0 0 0 0 0 0 0 0 0 0 0 0.25 0" />
            <feBlend in2="BackgroundImageFix" result="effect1_dropShadow_8_2" />
            <feBlend in="SourceGraphic" in2="effect1_dropShadow_8_2" result="shape" />
        </filter>
        <filter id="filter1_d_8_2" x="517.713" y="283.506" width="116" height="116" filterUnits="userSpaceOnUse"
            color-interpolation-filters="sRGB">
            <feFlood flood-opacity="0" result="BackgroundImageFix" />
            <feColorMatrix in="SourceAlpha" values="0 0 0 0 0 0 0 0 0 0 0 0 0 0 0 0 0 0 127 0" result="hardAlpha" />
            <feOffset dy="4" />
            <feGaussianBlur stdDeviation="2" />
            <feColorMatrix values="0 0 0 0 0 0 0 0 0 0 0 0 0 0 0 0 0 0 0.25 0" />
            <feBlend in2="BackgroundImageFix" result="effect1_dropShadow_8_2" />
            <feBlend in="SourceGraphic" in2="effect1_dropShadow_8_2" result="shape" />
        </filter>
        <filter id="filter2_d_8_2" x="523.713" y="289.506" width="104" height="104" filterUnits="userSpaceOnUse"
            color-interpolation-filters="sRGB">
            <feFlood flood-opacity="0" result="BackgroundImageFix" />
            <feColorMatrix in="SourceAlpha" values="0 0 0 0 0 0 0 0 0 0 0 0 0 0 0 0 0 0 127 0" result="hardAlpha" />
            <feOffset dy="4" />
            <feGaussianBlur stdDeviation="2" />
            <feColorMatrix values="0 0 0 0 0 0 0 0 0 0 0 0 0 0 0 0 0 0 0.25 0" />
            <feBlend in2="BackgroundImageFix" result="effect1_dropShadow_8_2" />
            <feBlend in="SourceGraphic" in2="effect1_dropShadow_8_2" result="shape" />
        </filter>
    </defs>
</svg>