<svg width="1140" height="613" viewBox="0 0 1140 613" fill="none" xmlns="http://www.w3.org/2000/svg">
    <mask id="mask0_9_2677" style="mask-type:alpha" maskUnits="userSpaceOnUse" x="0" y="53" width="550" height="556">
        <g clip-path="url(#clip0_9_2677)">
            <path d="M206.578 53L0.000389099 410.804" stroke="black" stroke-width="2" />
            <path d="M210.043 55L3.4645 412.804" stroke="black" stroke-width="2" />
            <path d="M213.507 57L6.92861 414.804" stroke="black" stroke-width="2" />
            <path d="M216.971 59L10.3927 416.804" stroke="black" stroke-width="2" />
            <path d="M220.435 61L13.8568 418.804" stroke="black" stroke-width="2" />
            <path d="M223.899 63L17.3209 420.804" stroke="black" stroke-width="2" />
            <path d="M227.363 65L20.7851 422.804" stroke="black" stroke-width="2" />
            <path d="M230.827 67L24.249 424.804" stroke="black" stroke-width="2" />
            <path d="M234.291 69L27.7132 426.804" stroke="black" stroke-width="2" />
            <path d="M237.755 71L31.1773 428.804" stroke="black" stroke-width="2" />
            <path d="M241.219 73L34.6414 430.804" stroke="black" stroke-width="2" />
            <path d="M244.684 75L38.1055 432.804" stroke="black" stroke-width="2" />
            <path d="M248.148 77L41.5696 434.804" stroke="black" stroke-width="2" />
            <path d="M251.612 79L45.0337 436.804" stroke="black" stroke-width="2" />
            <path d="M255.076 81L48.4978 438.804" stroke="black" stroke-width="2" />
            <path d="M258.54 83L51.9619 440.804" stroke="black" stroke-width="2" />
            <path d="M262.004 85L55.426 442.804" stroke="black" stroke-width="2" />
            <path d="M265.468 87L58.8902 444.804" stroke="black" stroke-width="2" />
            <path d="M268.932 89L62.3543 446.804" stroke="black" stroke-width="2" />
            <path d="M272.396 91L65.8183 448.804" stroke="black" stroke-width="2" />
            <path d="M275.86 93L69.2824 450.804" stroke="black" stroke-width="2" />
            <path d="M279.325 95L72.7465 452.804" stroke="black" stroke-width="2" />
            <path d="M282.789 97L76.2106 454.804" stroke="black" stroke-width="2" />
            <path d="M286.253 99L79.6747 456.804" stroke="black" stroke-width="2" />
            <path d="M289.717 101L83.1388 458.804" stroke="black" stroke-width="2" />
            <path d="M293.181 103L86.6029 460.804" stroke="black" stroke-width="2" />
            <path d="M296.645 105L90.067 462.804" stroke="black" stroke-width="2" />
            <path d="M300.109 107L93.5312 464.804" stroke="black" stroke-width="2" />
            <path d="M303.573 109L96.9953 466.804" stroke="black" stroke-width="2" />
            <path d="M307.037 111L100.459 468.804" stroke="black" stroke-width="2" />
            <path d="M310.502 113L103.923 470.804" stroke="black" stroke-width="2" />
            <path d="M313.966 115L107.388 472.804" stroke="black" stroke-width="2" />
            <path d="M317.43 117L110.852 474.804" stroke="black" stroke-width="2" />
            <path d="M320.894 119L114.316 476.804" stroke="black" stroke-width="2" />
            <path d="M324.358 121L117.78 478.804" stroke="black" stroke-width="2" />
            <path d="M327.822 123L121.244 480.804" stroke="black" stroke-width="2" />
            <path d="M331.286 125L124.708 482.804" stroke="black" stroke-width="2" />
            <path d="M334.75 127L128.172 484.804" stroke="black" stroke-width="2" />
            <path d="M338.214 129L131.636 486.804" stroke="black" stroke-width="2" />
            <path d="M341.678 131L135.1 488.804" stroke="black" stroke-width="2" />
            <path d="M345.143 133L138.564 490.804" stroke="black" stroke-width="2" />
            <path d="M348.607 135L142.029 492.804" stroke="black" stroke-width="2" />
            <path d="M352.071 137L145.493 494.804" stroke="black" stroke-width="2" />
            <path d="M355.535 139L148.957 496.804" stroke="black" stroke-width="2" />
            <path d="M358.999 141L152.421 498.804" stroke="black" stroke-width="2" />
            <path d="M362.463 143L155.885 500.804" stroke="black" stroke-width="2" />
            <path d="M365.927 145L159.349 502.804" stroke="black" stroke-width="2" />
            <path d="M369.391 147L162.813 504.804" stroke="black" stroke-width="2" />
            <path d="M372.855 149L166.277 506.804" stroke="black" stroke-width="2" />
            <path d="M376.319 151L169.741 508.804" stroke="black" stroke-width="2" />
            <path d="M379.784 153L173.205 510.804" stroke="black" stroke-width="2" />
            <path d="M383.248 155L176.67 512.804" stroke="black" stroke-width="2" />
            <path d="M386.712 157L180.134 514.804" stroke="black" stroke-width="2" />
            <path d="M390.176 159L183.598 516.804" stroke="black" stroke-width="2" />
            <path d="M393.64 161L187.062 518.804" stroke="black" stroke-width="2" />
            <path d="M397.104 163L190.526 520.804" stroke="black" stroke-width="2" />
            <path d="M400.568 165L193.99 522.804" stroke="black" stroke-width="2" />
            <path d="M404.032 167L197.454 524.804" stroke="black" stroke-width="2" />
            <path d="M407.496 169L200.918 526.804" stroke="black" stroke-width="2" />
            <path d="M410.96 171L204.382 528.804" stroke="black" stroke-width="2" />
            <path d="M414.425 173L207.846 530.804" stroke="black" stroke-width="2" />
            <path d="M417.889 175L211.311 532.804" stroke="black" stroke-width="2" />
            <path d="M421.353 177L214.775 534.804" stroke="black" stroke-width="2" />
            <path d="M424.817 179L218.239 536.804" stroke="black" stroke-width="2" />
            <path d="M428.281 181L221.703 538.804" stroke="black" stroke-width="2" />
            <path d="M431.745 183L225.167 540.804" stroke="black" stroke-width="2" />
            <path d="M435.209 185L228.631 542.804" stroke="black" stroke-width="2" />
            <path d="M438.673 187L232.095 544.804" stroke="black" stroke-width="2" />
            <path d="M442.137 189L235.559 546.804" stroke="black" stroke-width="2" />
            <path d="M445.601 191L239.023 548.804" stroke="black" stroke-width="2" />
            <path d="M449.066 193L242.487 550.804" stroke="black" stroke-width="2" />
            <path d="M452.53 195L245.952 552.804" stroke="black" stroke-width="2" />
            <path d="M455.994 197L249.416 554.804" stroke="black" stroke-width="2" />
            <path d="M459.458 199L252.88 556.804" stroke="black" stroke-width="2" />
            <path d="M462.922 201L256.344 558.804" stroke="black" stroke-width="2" />
            <path d="M466.386 203L259.808 560.804" stroke="black" stroke-width="2" />
            <path d="M469.85 205L263.272 562.804" stroke="black" stroke-width="2" />
            <path d="M473.314 207L266.736 564.804" stroke="black" stroke-width="2" />
            <path d="M476.778 209L270.2 566.804" stroke="black" stroke-width="2" />
            <path d="M480.243 211L273.664 568.804" stroke="black" stroke-width="2" />
            <path d="M483.707 213L277.129 570.804" stroke="black" stroke-width="2" />
            <path d="M487.171 215L280.593 572.804" stroke="black" stroke-width="2" />
            <path d="M490.635 217L284.057 574.804" stroke="black" stroke-width="2" />
            <path d="M494.099 219L287.521 576.804" stroke="black" stroke-width="2" />
            <path d="M497.563 221L290.985 578.804" stroke="black" stroke-width="2" />
            <path d="M501.027 223L294.449 580.804" stroke="black" stroke-width="2" />
            <path d="M504.491 225L297.913 582.804" stroke="black" stroke-width="2" />
            <path d="M507.955 227L301.377 584.804" stroke="black" stroke-width="2" />
            <path d="M511.419 229L304.841 586.804" stroke="black" stroke-width="2" />
            <path d="M514.884 231L308.305 588.804" stroke="black" stroke-width="2" />
            <path d="M518.348 233L311.77 590.804" stroke="black" stroke-width="2" />
            <path d="M521.812 235L315.234 592.804" stroke="black" stroke-width="2" />
            <path d="M525.276 237L318.698 594.804" stroke="black" stroke-width="2" />
            <path d="M528.74 239L322.162 596.804" stroke="black" stroke-width="2" />
            <path d="M532.204 241L325.626 598.804" stroke="black" stroke-width="2" />
            <path d="M535.668 243L329.09 600.804" stroke="black" stroke-width="2" />
            <path d="M539.132 245L332.554 602.804" stroke="black" stroke-width="2" />
            <path d="M542.596 247L336.018 604.804" stroke="black" stroke-width="2" />
            <path d="M546.06 249L339.482 606.804" stroke="black" stroke-width="2" />
            <path d="M549.525 251L342.946 608.804" stroke="black" stroke-width="2" />
        </g>
    </mask>
    <g mask="url(#mask0_9_2677)">
        <path
            d="M129 182.046C129 167.015 144.96 157.356 158.276 164.327L456.308 320.359C462.881 323.8 467 330.606 467 338.025V338.025C467 345.326 463.01 352.043 456.599 355.536L158.568 517.893C145.24 525.153 129 515.506 129 500.33V182.046Z"
            fill="url(#paint0_linear_9_2677)" />
    </g>
    <g opacity="0.3">
        <mask id="mask1_9_2677" style="mask-type:alpha" maskUnits="userSpaceOnUse" x="574" y="0" width="566"
            height="612">
            <g clip-path="url(#clip1_9_2677)">
                <path d="M820.719 0L574.047 427.249" stroke="black" stroke-width="2" />
                <path d="M824.184 2L577.511 429.249" stroke="black" stroke-width="2" />
                <path d="M827.648 4L580.975 431.249" stroke="black" stroke-width="2" />
                <path d="M831.112 6L584.439 433.249" stroke="black" stroke-width="2" />
                <path d="M834.576 8L587.904 435.249" stroke="black" stroke-width="2" />
                <path d="M838.04 10L591.368 437.249" stroke="black" stroke-width="2" />
                <path d="M841.504 12L594.832 439.249" stroke="black" stroke-width="2" />
                <path d="M844.968 14L598.296 441.249" stroke="black" stroke-width="2" />
                <path d="M848.432 16L601.76 443.249" stroke="black" stroke-width="2" />
                <path d="M851.896 18L605.224 445.249" stroke="black" stroke-width="2" />
                <path d="M855.361 20L608.688 447.249" stroke="black" stroke-width="2" />
                <path d="M858.825 22L612.152 449.249" stroke="black" stroke-width="2" />
                <path d="M862.289 24L615.616 451.249" stroke="black" stroke-width="2" />
                <path d="M865.753 26L619.08 453.249" stroke="black" stroke-width="2" />
                <path d="M869.217 28L622.544 455.249" stroke="black" stroke-width="2" />
                <path d="M872.681 30L626.009 457.249" stroke="black" stroke-width="2" />
                <path d="M876.145 32L629.473 459.249" stroke="black" stroke-width="2" />
                <path d="M879.609 34L632.937 461.249" stroke="black" stroke-width="2" />
                <path d="M883.073 36L636.401 463.249" stroke="black" stroke-width="2" />
                <path d="M886.537 38L639.865 465.249" stroke="black" stroke-width="2" />
                <path d="M890.001 40L643.329 467.249" stroke="black" stroke-width="2" />
                <path d="M893.466 42L646.793 469.249" stroke="black" stroke-width="2" />
                <path d="M896.93 44L650.257 471.249" stroke="black" stroke-width="2" />
                <path d="M900.394 46L653.721 473.249" stroke="black" stroke-width="2" />
                <path d="M903.858 48L657.186 475.249" stroke="black" stroke-width="2" />
                <path d="M907.322 50L660.65 477.249" stroke="black" stroke-width="2" />
                <path d="M910.786 52L664.114 479.249" stroke="black" stroke-width="2" />
                <path d="M914.25 54L667.578 481.249" stroke="black" stroke-width="2" />
                <path d="M917.714 56L671.042 483.249" stroke="black" stroke-width="2" />
                <path d="M921.178 58L674.506 485.249" stroke="black" stroke-width="2" />
                <path d="M924.643 60L677.97 487.249" stroke="black" stroke-width="2" />
                <path d="M928.107 62L681.434 489.249" stroke="black" stroke-width="2" />
                <path d="M931.571 64L684.898 491.249" stroke="black" stroke-width="2" />
                <path d="M935.035 66L688.363 493.249" stroke="black" stroke-width="2" />
                <path d="M938.499 68L691.827 495.249" stroke="black" stroke-width="2" />
                <path d="M941.963 70L695.291 497.249" stroke="black" stroke-width="2" />
                <path d="M945.427 72L698.755 499.249" stroke="black" stroke-width="2" />
                <path d="M948.891 74L702.219 501.249" stroke="black" stroke-width="2" />
                <path d="M952.355 76L705.683 503.249" stroke="black" stroke-width="2" />
                <path d="M955.819 78L709.147 505.249" stroke="black" stroke-width="2" />
                <path d="M959.283 80L712.611 507.249" stroke="black" stroke-width="2" />
                <path d="M962.748 82L716.075 509.249" stroke="black" stroke-width="2" />
                <path d="M966.212 84L719.539 511.249" stroke="black" stroke-width="2" />
                <path d="M969.676 86L723.003 513.249" stroke="black" stroke-width="2" />
                <path d="M973.14 88L726.468 515.249" stroke="black" stroke-width="2" />
                <path d="M976.604 90L729.932 517.249" stroke="black" stroke-width="2" />
                <path d="M980.068 92L733.396 519.249" stroke="black" stroke-width="2" />
                <path d="M983.532 94L736.86 521.249" stroke="black" stroke-width="2" />
                <path d="M986.996 96L740.324 523.249" stroke="black" stroke-width="2" />
                <path d="M990.46 98L743.788 525.249" stroke="black" stroke-width="2" />
                <path d="M993.925 100L747.252 527.249" stroke="black" stroke-width="2" />
                <path d="M997.389 102L750.716 529.249" stroke="black" stroke-width="2" />
                <path d="M1000.85 104L754.18 531.249" stroke="black" stroke-width="2" />
                <path d="M1004.32 106L757.645 533.249" stroke="black" stroke-width="2" />
                <path d="M1007.78 108L761.109 535.249" stroke="black" stroke-width="2" />
                <path d="M1011.25 110L764.573 537.249" stroke="black" stroke-width="2" />
                <path d="M1014.71 112L768.037 539.249" stroke="black" stroke-width="2" />
                <path d="M1018.17 114L771.501 541.249" stroke="black" stroke-width="2" />
                <path d="M1021.64 116L774.965 543.249" stroke="black" stroke-width="2" />
                <path d="M1025.1 118L778.429 545.249" stroke="black" stroke-width="2" />
                <path d="M1028.57 120L781.893 547.249" stroke="black" stroke-width="2" />
                <path d="M1032.03 122L785.357 549.249" stroke="black" stroke-width="2" />
                <path d="M1035.49 124L788.822 551.249" stroke="black" stroke-width="2" />
                <path d="M1038.96 126L792.285 553.249" stroke="black" stroke-width="2" />
                <path d="M1042.42 128L795.75 555.249" stroke="black" stroke-width="2" />
                <path d="M1045.89 130L799.214 557.249" stroke="black" stroke-width="2" />
                <path d="M1049.35 132L802.678 559.249" stroke="black" stroke-width="2" />
                <path d="M1052.81 134L806.142 561.249" stroke="black" stroke-width="2" />
                <path d="M1056.28 136L809.606 563.249" stroke="black" stroke-width="2" />
                <path d="M1059.74 138L813.07 565.249" stroke="black" stroke-width="2" />
                <path d="M1063.21 140L816.534 567.249" stroke="black" stroke-width="2" />
                <path d="M1066.67 142L819.998 569.249" stroke="black" stroke-width="2" />
                <path d="M1070.13 144L823.462 571.249" stroke="black" stroke-width="2" />
                <path d="M1073.6 146L826.927 573.249" stroke="black" stroke-width="2" />
                <path d="M1077.06 148L830.391 575.249" stroke="black" stroke-width="2" />
                <path d="M1080.53 150L833.855 577.249" stroke="black" stroke-width="2" />
                <path d="M1083.99 152L837.319 579.249" stroke="black" stroke-width="2" />
                <path d="M1087.46 154L840.783 581.249" stroke="black" stroke-width="2" />
                <path d="M1090.92 156L844.247 583.249" stroke="black" stroke-width="2" />
                <path d="M1094.38 158L847.711 585.249" stroke="black" stroke-width="2" />
                <path d="M1097.85 160L851.175 587.249" stroke="black" stroke-width="2" />
                <path d="M1101.31 162L854.639 589.249" stroke="black" stroke-width="2" />
                <path d="M1104.78 164L858.104 591.249" stroke="black" stroke-width="2" />
                <path d="M1108.24 166L861.568 593.249" stroke="black" stroke-width="2" />
                <path d="M1111.7 168L865.032 595.249" stroke="black" stroke-width="2" />
                <path d="M1115.17 170L868.496 597.249" stroke="black" stroke-width="2" />
                <path d="M1118.63 172L871.96 599.249" stroke="black" stroke-width="2" />
                <path d="M1122.1 174L875.424 601.249" stroke="black" stroke-width="2" />
                <path d="M1125.56 176L878.888 603.249" stroke="black" stroke-width="2" />
                <path d="M1129.02 178L882.352 605.249" stroke="black" stroke-width="2" />
                <path d="M1132.49 180L885.816 607.249" stroke="black" stroke-width="2" />
                <path d="M1135.95 182L889.28 609.249" stroke="black" stroke-width="2" />
                <path d="M1139.42 184L892.744 611.249" stroke="black" stroke-width="2" />
                <path d="M1142.88 186L896.209 613.249" stroke="black" stroke-width="2" />
                <path d="M1146.34 188L899.673 615.249" stroke="black" stroke-width="2" />
                <path d="M1149.81 190L903.137 617.249" stroke="black" stroke-width="2" />
                <path d="M1153.27 192L906.601 619.249" stroke="black" stroke-width="2" />
                <path d="M1156.74 194L910.065 621.249" stroke="black" stroke-width="2" />
                <path d="M1160.2 196L913.529 623.249" stroke="black" stroke-width="2" />
                <path d="M1163.67 198L916.993 625.249" stroke="black" stroke-width="2" />
                <path d="M1167.13 200L920.457 627.249" stroke="black" stroke-width="2" />
            </g>
        </mask>
        <g mask="url(#mask1_9_2677)">
            <path
                d="M966 182.571C966 167.417 949.804 157.769 936.478 164.983L649.478 320.365C643.022 323.86 639 330.659 639 338V338H946C957.046 338 966 329.046 966 318V182.571Z"
                fill="url(#paint1_linear_9_2677)" />
        </g>
        <mask id="mask2_9_2677" style="mask-type:alpha" maskUnits="userSpaceOnUse" x="550" y="101" width="565"
            height="512">
            <g clip-path="url(#clip2_9_2677)">
                <path d="M796.827 101L551 458.804" stroke="black" stroke-width="2" />
                <path d="M800.426 102.746L554.598 460.55" stroke="black" stroke-width="2" />
                <path d="M804.025 104.492L558.197 462.296" stroke="black" stroke-width="2" />
                <path d="M807.624 106.238L561.796 464.042" stroke="black" stroke-width="2" />
                <path d="M811.222 107.984L565.395 465.788" stroke="black" stroke-width="2" />
                <path d="M814.821 109.73L568.994 467.534" stroke="black" stroke-width="2" />
                <path d="M818.42 111.476L572.592 469.28" stroke="black" stroke-width="2" />
                <path d="M822.019 113.222L576.191 471.026" stroke="black" stroke-width="2" />
                <path d="M825.618 114.968L579.79 472.772" stroke="black" stroke-width="2" />
                <path d="M829.216 116.714L583.389 474.518" stroke="black" stroke-width="2" />
                <path d="M832.815 118.46L586.988 476.264" stroke="black" stroke-width="2" />
                <path d="M836.414 120.206L590.587 478.01" stroke="black" stroke-width="2" />
                <path d="M840.013 121.952L594.185 479.756" stroke="black" stroke-width="2" />
                <path d="M843.612 123.698L597.784 481.502" stroke="black" stroke-width="2" />
                <path d="M847.21 125.444L601.383 483.248" stroke="black" stroke-width="2" />
                <path d="M850.809 127.19L604.982 484.994" stroke="black" stroke-width="2" />
                <path d="M854.408 128.936L608.58 486.74" stroke="black" stroke-width="2" />
                <path d="M858.007 130.682L612.179 488.486" stroke="black" stroke-width="2" />
                <path d="M861.606 132.428L615.778 490.232" stroke="black" stroke-width="2" />
                <path d="M865.204 134.175L619.377 491.978" stroke="black" stroke-width="2" />
                <path d="M868.803 135.921L622.976 493.724" stroke="black" stroke-width="2" />
                <path d="M872.402 137.667L626.575 495.47" stroke="black" stroke-width="2" />
                <path d="M876.001 139.413L630.173 497.216" stroke="black" stroke-width="2" />
                <path d="M879.6 141.159L633.772 498.962" stroke="black" stroke-width="2" />
                <path d="M883.198 142.905L637.371 500.708" stroke="black" stroke-width="2" />
                <path d="M886.797 144.651L640.97 502.455" stroke="black" stroke-width="2" />
                <path d="M890.396 146.397L644.568 504.2" stroke="black" stroke-width="2" />
                <path d="M893.995 148.143L648.167 505.946" stroke="black" stroke-width="2" />
                <path d="M897.594 149.889L651.766 507.693" stroke="black" stroke-width="2" />
                <path d="M901.192 151.635L655.365 509.439" stroke="black" stroke-width="2" />
                <path d="M904.791 153.381L658.964 511.185" stroke="black" stroke-width="2" />
                <path d="M908.39 155.127L662.563 512.931" stroke="black" stroke-width="2" />
                <path d="M911.989 156.873L666.161 514.677" stroke="black" stroke-width="2" />
                <path d="M915.588 158.619L669.76 516.423" stroke="black" stroke-width="2" />
                <path d="M919.187 160.365L673.359 518.169" stroke="black" stroke-width="2" />
                <path d="M922.785 162.111L676.958 519.915" stroke="black" stroke-width="2" />
                <path d="M926.384 163.857L680.556 521.661" stroke="black" stroke-width="2" />
                <path d="M929.983 165.603L684.155 523.407" stroke="black" stroke-width="2" />
                <path d="M933.582 167.349L687.754 525.153" stroke="black" stroke-width="2" />
                <path d="M937.18 169.095L691.353 526.899" stroke="black" stroke-width="2" />
                <path d="M940.779 170.841L694.952 528.645" stroke="black" stroke-width="2" />
                <path d="M944.378 172.587L698.551 530.391" stroke="black" stroke-width="2" />
                <path d="M947.977 174.333L702.149 532.137" stroke="black" stroke-width="2" />
                <path d="M951.576 176.079L705.748 533.883" stroke="black" stroke-width="2" />
                <path d="M955.175 177.825L709.347 535.629" stroke="black" stroke-width="2" />
                <path d="M958.773 179.571L712.946 537.375" stroke="black" stroke-width="2" />
                <path d="M962.372 181.317L716.545 539.121" stroke="black" stroke-width="2" />
                <path d="M965.971 183.063L720.143 540.867" stroke="black" stroke-width="2" />
                <path d="M969.57 184.809L723.742 542.613" stroke="black" stroke-width="2" />
                <path d="M973.168 186.555L727.341 544.359" stroke="black" stroke-width="2" />
                <path d="M976.767 188.301L730.94 546.105" stroke="black" stroke-width="2" />
                <path d="M980.366 190.047L734.539 547.851" stroke="black" stroke-width="2" />
                <path d="M983.965 191.793L738.137 549.597" stroke="black" stroke-width="2" />
                <path d="M987.564 193.54L741.736 551.343" stroke="black" stroke-width="2" />
                <path d="M991.163 195.286L745.335 553.089" stroke="black" stroke-width="2" />
                <path d="M994.761 197.031L748.934 554.835" stroke="black" stroke-width="2" />
                <path d="M998.36 198.778L752.533 556.581" stroke="black" stroke-width="2" />
                <path d="M1001.96 200.524L756.131 558.327" stroke="black" stroke-width="2" />
                <path d="M1005.56 202.27L759.73 560.073" stroke="black" stroke-width="2" />
                <path d="M1009.16 204.016L763.329 561.819" stroke="black" stroke-width="2" />
                <path d="M1012.76 205.762L766.928 563.565" stroke="black" stroke-width="2" />
                <path d="M1016.35 207.508L770.527 565.311" stroke="black" stroke-width="2" />
                <path d="M1019.95 209.254L774.125 567.058" stroke="black" stroke-width="2" />
                <path d="M1023.55 211L777.724 568.804" stroke="black" stroke-width="2" />
                <path d="M1027.15 212.746L781.323 570.55" stroke="black" stroke-width="2" />
                <path d="M1030.75 214.492L784.922 572.296" stroke="black" stroke-width="2" />
                <path d="M1034.35 216.238L788.521 574.042" stroke="black" stroke-width="2" />
                <path d="M1037.95 217.984L792.119 575.788" stroke="black" stroke-width="2" />
                <path d="M1041.55 219.73L795.718 577.534" stroke="black" stroke-width="2" />
                <path d="M1045.14 221.476L799.317 579.28" stroke="black" stroke-width="2" />
                <path d="M1048.74 223.222L802.916 581.026" stroke="black" stroke-width="2" />
                <path d="M1052.34 224.968L806.515 582.772" stroke="black" stroke-width="2" />
                <path d="M1055.94 226.714L810.113 584.518" stroke="black" stroke-width="2" />
                <path d="M1059.54 228.46L813.712 586.264" stroke="black" stroke-width="2" />
                <path d="M1063.14 230.206L817.311 588.01" stroke="black" stroke-width="2" />
                <path d="M1066.74 231.952L820.91 589.756" stroke="black" stroke-width="2" />
                <path d="M1070.34 233.698L824.509 591.502" stroke="black" stroke-width="2" />
                <path d="M1073.94 235.444L828.108 593.248" stroke="black" stroke-width="2" />
            </g>
        </mask>
        <g mask="url(#mask2_9_2677)">
            <path
                d="M966 493.429C966 508.583 949.804 518.231 936.478 511.017L649.478 355.635C643.022 352.14 639 345.341 639 338V338H946C957.046 338 966 346.954 966 358V493.429Z"
                fill="url(#paint2_linear_9_2677)" />
        </g>
    </g>
    <defs>
        <linearGradient id="paint0_linear_9_2677" x1="173.76" y1="337.054" x2="479.377" y2="340.94"
            gradientUnits="userSpaceOnUse">
            <stop stop-color="#727273" stop-opacity="0" />
            <stop offset="1" stop-color="#89898A" />
        </linearGradient>
        <linearGradient id="paint1_linear_9_2677" x1="966" y1="341.589" x2="622.65" y2="341.589"
            gradientUnits="userSpaceOnUse">
            <stop stop-color="#323869" stop-opacity="0" />
            <stop offset="1" stop-color="#63CB7B" />
        </linearGradient>
        <linearGradient id="paint2_linear_9_2677" x1="966" y1="334.411" x2="622.65" y2="334.411"
            gradientUnits="userSpaceOnUse">
            <stop stop-color="#323869" stop-opacity="0" />
            <stop offset="1" stop-color="#EE6359" />
        </linearGradient>
        <clipPath id="clip0_9_2677">
            <rect width="396" height="413.156" fill="white" transform="translate(206.578 53) rotate(30)" />
        </clipPath>
        <clipPath id="clip1_9_2677">
            <rect width="367.779" height="493.345" fill="white" transform="translate(820.719) rotate(30)" />
        </clipPath>
        <clipPath id="clip2_9_2677">
            <rect width="352.801" height="434.114" fill="white"
                transform="matrix(0.899701 0.436507 -0.566275 0.824217 796.827 101)" />
        </clipPath>
    </defs>
</svg>