<svg fill="none" xmlns="http://www.w3.org/2000/svg" viewBox="0 0 47 46">
    <g clip-path="url(#clip0_9_430)">
        <mask id="mask0_9_430" style="mask-type:alpha" maskUnits="userSpaceOnUse" x="15" y="4" width="52" height="52">
            <path fill="#D9D9D9" d="M45.47 4.685 66.844 26.35l-29.59 29.192L15.88 33.877z" />
        </mask>
        <g mask="url(#mask0_9_430)" stroke="#D0D0D0">
            <path
                d="M27.319 15.549c0-1.222.99-2.212 2.211-2.212H43.031c1.222 0 2.212.99 2.212 2.212v25.067c0 1.222-.99 2.212-2.212 2.212h-13.5a2.212 2.212 0 0 1-2.212-2.212V15.55Z"
                fill="#D9D9D9" fill-opacity=".05" />
            <path d="M33.294 39.551h5.974" />
        </g>
        <mask id="mask1_9_430" style="mask-type:alpha" maskUnits="userSpaceOnUse" x="-13" y="-10" width="52"
            height="51">
            <path fill="#D9D9D9" d="m16.72-9.914 21.51 21.51L9 40.826l-21.51-21.51z" />
        </mask>
        <g mask="url(#mask1_9_430)" fill="#D9D9D9" fill-opacity=".05" stroke="#D0D0D0">
            <rect x="31.075" y="5.286" width="17.365" height="28.962" rx="2.172" transform="rotate(90 31.075 5.286)" />
            <path
                d="M19.04 23.3v-.5H14.148v1.198a6.082 6.082 0 0 1-2.735 5.078c-.55.363-.293 1.22.366 1.22h9.63c.66 0 .916-.857.366-1.22a6.082 6.082 0 0 1-2.735-5.078V23.3Z" />
        </g>
        <path d="M43.375 6.643 12.516 37.399" stroke="#D0D0D0" />
    </g>
    <defs>
        <clipPath id="clip0_9_430">
            <path fill="#fff" d="M.49.49h46.37v45.02H.49z" />
        </clipPath>
    </defs>
</svg>