<svg fill="none" xmlns="http://www.w3.org/2000/svg" viewBox="0 0 48 48">
    <path d="M24 6C14.059 6 6 14.059 6 24s8.059 18 18 18 18-8.059 18-18c0-8.387-5.736-15.435-13.5-17.433"
        stroke="#D0D0D0" stroke-linecap="round" />
    <path
        d="M16.8 28.6a4.8 4.8 0 1 1 0-9.6c3.527 0 5.512 2.54 7.494 5.006a.969.969 0 0 0 .037-.044C24.642 23.56 28.25 19 31.2 19a4.8 4.8 0 0 1 0 9.6c-3.164 0-5.034-2.264-6.906-4.594l-.009.01c-.337.374-4.209 4.584-7.485 4.584Z"
        fill="#D9D9D9" fill-opacity=".05" stroke="#D0D0D0" stroke-linecap="round" stroke-linejoin="round" />
    <path d="m35.74 5-7.47.935 2.925 6.936" stroke="#D0D0D0" stroke-linecap="round" stroke-linejoin="round" />
</svg>